{
    "asset" : {
        "generator" : "Khronos glTF Blender I/O v3.3.36",
        "version" : "2.0"
    },
    "scene" : 0,
    "scenes" : [
        {
            "name" : "Scene",
            "nodes" : [
                0,
                1,
                2,
                3,
                4,
                5,
                6,
                7,
                8,
                9,
                10,
                11,
                12
            ]
        }
    ],
    "nodes" : [
        {
            "mesh" : 0,
            "name" : "Wall"
        },
        {
            "mesh" : 1,
            "name" : "WallDinoRight"
        },
        {
            "mesh" : 2,
            "name" : "WallDinoLeft"
        },
        {
            "mesh" : 3,
            "name" : "FloorPavement1"
        },
        {
            "mesh" : 4,
            "name" : "FloorWood"
        },
        {
            "mesh" : 5,
            "name" : "FloorGrass"
        },
        {
            "mesh" : 6,
            "name" : "FloorPavement2"
        },
        {
            "mesh" : 7,
            "name" : "FloorDino"
        },
        {
            "mesh" : 8,
            "name" : "FloorDinoRight"
        },
        {
            "mesh" : 9,
            "name" : "FloorDinoLeft"
        },
        {
            "mesh" : 10,
            "name" : "CaveOneWay"
        },
        {
            "mesh" : 11,
            "name" : "CaveRightOneWay"
        },
        {
            "mesh" : 12,
            "name" : "AutomationOneWay"
        }
    ],
    "meshes" : [
        {
            "name" : "Wall",
            "primitives" : [
                {
                    "attributes" : {
                        "POSITION" : 0,
                        "NORMAL" : 1
                    },
                    "indices" : 2
                }
            ]
        },
        {
            "name" : "WallDinoRight",
            "primitives" : [
                {
                    "attributes" : {
                        "POSITION" : 3,
                        "NORMAL" : 4
                    },
                    "indices" : 5
                }
            ]
        },
        {
            "name" : "WallDinoLeft",
            "primitives" : [
                {
                    "attributes" : {
                        "POSITION" : 6,
                        "NORMAL" : 7
                    },
                    "indices" : 8
                }
            ]
        },
        {
            "name" : "FloorPavement1",
            "primitives" : [
                {
                    "attributes" : {
                        "POSITION" : 9,
                        "NORMAL" : 10
                    },
                    "indices" : 11
                }
            ]
        },
        {
            "name" : "FloorWood",
            "primitives" : [
                {
                    "attributes" : {
                        "POSITION" : 12,
                        "NORMAL" : 13
                    },
                    "indices" : 14
                }
            ]
        },
        {
            "name" : "FloorGrass",
            "primitives" : [
                {
                    "attributes" : {
                        "POSITION" : 15,
                        "NORMAL" : 16
                    },
                    "indices" : 17
                }
            ]
        },
        {
            "name" : "FloorPavement2",
            "primitives" : [
                {
                    "attributes" : {
                        "POSITION" : 18,
                        "NORMAL" : 19
                    },
                    "indices" : 20
                }
            ]
        },
        {
            "name" : "FloorDino",
            "primitives" : [
                {
                    "attributes" : {
                        "POSITION" : 21,
                        "NORMAL" : 22
                    },
                    "indices" : 23
                }
            ]
        },
        {
            "name" : "FloorDinoRight",
            "primitives" : [
                {
                    "attributes" : {
                        "POSITION" : 24,
                        "NORMAL" : 25
                    },
                    "indices" : 26
                }
            ]
        },
        {
            "name" : "FloorDinoLeft",
            "primitives" : [
                {
                    "attributes" : {
                        "POSITION" : 27,
                        "NORMAL" : 28
                    },
                    "indices" : 23
                }
            ]
        },
        {
            "name" : "CaveOneWay",
            "primitives" : [
                {
                    "attributes" : {
                        "POSITION" : 29,
                        "NORMAL" : 30
                    },
                    "indices" : 31
                }
            ]
        },
        {
            "name" : "CaveRightOneWay",
            "primitives" : [
                {
                    "attributes" : {
                        "POSITION" : 32,
                        "NORMAL" : 33
                    },
                    "indices" : 34
                }
            ]
        },
        {
            "name" : "AutomationOneWay",
            "primitives" : [
                {
                    "attributes" : {
                        "POSITION" : 35,
                        "NORMAL" : 36
                    },
                    "indices" : 37
                }
            ]
        }
    ],
    "accessors" : [
        {
            "bufferView" : 0,
            "componentType" : 5126,
            "count" : 6839,
            "max" : [
                7.450167655944824,
                25.415752410888672,
                93.21631622314453
            ],
            "min" : [
                -892.1873779296875,
                -285.95458984375,
                -1177.4393310546875
            ],
            "type" : "VEC3"
        },
        {
            "bufferView" : 1,
            "componentType" : 5126,
            "count" : 6839,
            "type" : "VEC3"
        },
        {
            "bufferView" : 2,
            "componentType" : 5123,
            "count" : 10263,
            "type" : "SCALAR"
        },
        {
            "bufferView" : 3,
            "componentType" : 5126,
            "count" : 124,
            "max" : [
                -391.3965759277344,
                -249.14120483398438,
                -1132.5555419921875
            ],
            "min" : [
                -413.99298095703125,
                -285.95428466796875,
                -1171.0194091796875
            ],
            "type" : "VEC3"
        },
        {
            "bufferView" : 4,
            "componentType" : 5126,
            "count" : 124,
            "type" : "VEC3"
        },
        {
            "bufferView" : 5,
            "componentType" : 5123,
            "count" : 186,
            "type" : "SCALAR"
        },
        {
            "bufferView" : 6,
            "componentType" : 5126,
            "count" : 44,
            "max" : [
                -391.3965759277344,
                -249.14120483398438,
                -1132.5555419921875
            ],
            "min" : [
                -438.6961975097656,
                -285.9540710449219,
                -1152.108642578125
            ],
            "type" : "VEC3"
        },
        {
            "bufferView" : 7,
            "componentType" : 5126,
            "count" : 44,
            "type" : "VEC3"
        },
        {
            "bufferView" : 8,
            "componentType" : 5123,
            "count" : 66,
            "type" : "SCALAR"
        },
        {
            "bufferView" : 9,
            "componentType" : 5126,
            "count" : 5971,
            "max" : [
                12.019407272338867,
                5.793828010559082,
                96.01731872558594
            ],
            "min" : [
                -450.318603515625,
                -266.5970153808594,
                -915.565185546875
            ],
            "type" : "VEC3"
        },
        {
            "bufferView" : 10,
            "componentType" : 5126,
            "count" : 5971,
            "type" : "VEC3"
        },
        {
            "bufferView" : 11,
            "componentType" : 5123,
            "count" : 14949,
            "type" : "SCALAR"
        },
        {
            "bufferView" : 12,
            "componentType" : 5126,
            "count" : 36,
            "max" : [
                -188.9795379638672,
                -40.23957824707031,
                -487.07843017578125
            ],
            "min" : [
                -431.77960205078125,
                -265.05902099609375,
                -964.5554809570312
            ],
            "type" : "VEC3"
        },
        {
            "bufferView" : 13,
            "componentType" : 5126,
            "count" : 36,
            "type" : "VEC3"
        },
        {
            "bufferView" : 14,
            "componentType" : 5123,
            "count" : 54,
            "type" : "SCALAR"
        },
        {
            "bufferView" : 15,
            "componentType" : 5126,
            "count" : 2431,
            "max" : [
                -272.43304443359375,
                -245.64886474609375,
                -914.799072265625
            ],
            "min" : [
                -894.3561401367188,
                -279.9961242675781,
                -1187.322509765625
            ],
            "type" : "VEC3"
        },
        {
            "bufferView" : 16,
            "componentType" : 5126,
            "count" : 2431,
            "type" : "VEC3"
        },
        {
            "bufferView" : 17,
            "componentType" : 5123,
            "count" : 2454,
            "type" : "SCALAR"
        },
        {
            "bufferView" : 18,
            "componentType" : 5126,
            "count" : 948,
            "max" : [
                -456.960205078125,
                -262.9493103027344,
                -1042.5760498046875
            ],
            "min" : [
                -721.8980102539062,
                -280.9962158203125,
                -1141.036865234375
            ],
            "type" : "VEC3"
        },
        {
            "bufferView" : 19,
            "componentType" : 5126,
            "count" : 948,
            "type" : "VEC3"
        },
        {
            "bufferView" : 20,
            "componentType" : 5123,
            "count" : 1416,
            "type" : "SCALAR"
        },
        {
            "bufferView" : 21,
            "componentType" : 5126,
            "count" : 64,
            "max" : [
                -279.2215881347656,
                -251.6158447265625,
                -984.9818115234375
            ],
            "min" : [
                -295.9136657714844,
                -277.0282287597656,
                -1075.91162109375
            ],
            "type" : "VEC3"
        },
        {
            "bufferView" : 22,
            "componentType" : 5126,
            "count" : 64,
            "type" : "VEC3"
        },
        {
            "bufferView" : 23,
            "componentType" : 5123,
            "count" : 186,
            "type" : "SCALAR"
        },
        {
            "bufferView" : 24,
            "componentType" : 5126,
            "count" : 62,
            "max" : [
                -337.48638916015625,
                -269.1471862792969,
                -1106.6240234375
            ],
            "min" : [
                -409.5332336425781,
                -277.1943359375,
                -1169.843994140625
            ],
            "type" : "VEC3"
        },
        {
            "bufferView" : 25,
            "componentType" : 5126,
            "count" : 62,
            "type" : "VEC3"
        },
        {
            "bufferView" : 26,
            "componentType" : 5123,
            "count" : 180,
            "type" : "SCALAR"
        },
        {
            "bufferView" : 27,
            "componentType" : 5126,
            "count" : 64,
            "max" : [
                -337.48638916015625,
                -262.8446350097656,
                -1106.6240234375
            ],
            "min" : [
                -429.2803039550781,
                -277.1943359375,
                -1151.3875732421875
            ],
            "type" : "VEC3"
        },
        {
            "bufferView" : 28,
            "componentType" : 5126,
            "count" : 64,
            "type" : "VEC3"
        },
        {
            "bufferView" : 29,
            "componentType" : 5126,
            "count" : 8,
            "max" : [
                -360.7243957519531,
                -192.5517120361328,
                -618.0929565429688
            ],
            "min" : [
                -440.0037841796875,
                -222.5517120361328,
                -846.0438842773438
            ],
            "type" : "VEC3"
        },
        {
            "bufferView" : 30,
            "componentType" : 5126,
            "count" : 8,
            "type" : "VEC3"
        },
        {
            "bufferView" : 31,
            "componentType" : 5123,
            "count" : 12,
            "type" : "SCALAR"
        },
        {
            "bufferView" : 32,
            "componentType" : 5126,
            "count" : 8,
            "max" : [
                -359.600830078125,
                -202.5517120361328,
                -750.4586181640625
            ],
            "min" : [
                -367.2422790527344,
                -222.5517120361328,
                -766.2470092773438
            ],
            "type" : "VEC3"
        },
        {
            "bufferView" : 33,
            "componentType" : 5126,
            "count" : 8,
            "type" : "VEC3"
        },
        {
            "bufferView" : 34,
            "componentType" : 5123,
            "count" : 12,
            "type" : "SCALAR"
        },
        {
            "bufferView" : 35,
            "componentType" : 5126,
            "count" : 4,
            "max" : [
                -430.87591552734375,
                -245.64834594726562,
                -911.0616455078125
            ],
            "min" : [
                -431.906494140625,
                -265.007568359375,
                -911.4608154296875
            ],
            "type" : "VEC3"
        },
        {
            "bufferView" : 36,
            "componentType" : 5126,
            "count" : 4,
            "type" : "VEC3"
        },
        {
            "bufferView" : 37,
            "componentType" : 5123,
            "count" : 6,
            "type" : "SCALAR"
        }
    ],
    "bufferViews" : [
        {
            "buffer" : 0,
            "byteLength" : 82068,
            "byteOffset" : 0,
            "target" : 34962
        },
        {
            "buffer" : 0,
            "byteLength" : 82068,
            "byteOffset" : 82068,
            "target" : 34962
        },
        {
            "buffer" : 0,
            "byteLength" : 20526,
            "byteOffset" : 164136,
            "target" : 34963
        },
        {
            "buffer" : 0,
            "byteLength" : 1488,
            "byteOffset" : 184664,
            "target" : 34962
        },
        {
            "buffer" : 0,
            "byteLength" : 1488,
            "byteOffset" : 186152,
            "target" : 34962
        },
        {
            "buffer" : 0,
            "byteLength" : 372,
            "byteOffset" : 187640,
            "target" : 34963
        },
        {
            "buffer" : 0,
            "byteLength" : 528,
            "byteOffset" : 188012,
            "target" : 34962
        },
        {
            "buffer" : 0,
            "byteLength" : 528,
            "byteOffset" : 188540,
            "target" : 34962
        },
        {
            "buffer" : 0,
            "byteLength" : 132,
            "byteOffset" : 189068,
            "target" : 34963
        },
        {
            "buffer" : 0,
            "byteLength" : 71652,
            "byteOffset" : 189200,
            "target" : 34962
        },
        {
            "buffer" : 0,
            "byteLength" : 71652,
            "byteOffset" : 260852,
            "target" : 34962
        },
        {
            "buffer" : 0,
            "byteLength" : 29898,
            "byteOffset" : 332504,
            "target" : 34963
        },
        {
            "buffer" : 0,
            "byteLength" : 432,
            "byteOffset" : 362404,
            "target" : 34962
        },
        {
            "buffer" : 0,
            "byteLength" : 432,
            "byteOffset" : 362836,
            "target" : 34962
        },
        {
            "buffer" : 0,
            "byteLength" : 108,
            "byteOffset" : 363268,
            "target" : 34963
        },
        {
            "buffer" : 0,
            "byteLength" : 29172,
            "byteOffset" : 363376,
            "target" : 34962
        },
        {
            "buffer" : 0,
            "byteLength" : 29172,
            "byteOffset" : 392548,
            "target" : 34962
        },
        {
            "buffer" : 0,
            "byteLength" : 4908,
            "byteOffset" : 421720,
            "target" : 34963
        },
        {
            "buffer" : 0,
            "byteLength" : 11376,
            "byteOffset" : 426628,
            "target" : 34962
        },
        {
            "buffer" : 0,
            "byteLength" : 11376,
            "byteOffset" : 438004,
            "target" : 34962
        },
        {
            "buffer" : 0,
            "byteLength" : 2832,
            "byteOffset" : 449380,
            "target" : 34963
        },
        {
            "buffer" : 0,
            "byteLength" : 768,
            "byteOffset" : 452212,
            "target" : 34962
        },
        {
            "buffer" : 0,
            "byteLength" : 768,
            "byteOffset" : 452980,
            "target" : 34962
        },
        {
            "buffer" : 0,
            "byteLength" : 372,
            "byteOffset" : 453748,
            "target" : 34963
        },
        {
            "buffer" : 0,
            "byteLength" : 744,
            "byteOffset" : 454120,
            "target" : 34962
        },
        {
            "buffer" : 0,
            "byteLength" : 744,
            "byteOffset" : 454864,
            "target" : 34962
        },
        {
            "buffer" : 0,
            "byteLength" : 360,
            "byteOffset" : 455608,
            "target" : 34963
        },
        {
            "buffer" : 0,
            "byteLength" : 768,
            "byteOffset" : 455968,
            "target" : 34962
        },
        {
            "buffer" : 0,
            "byteLength" : 768,
            "byteOffset" : 456736,
            "target" : 34962
        },
        {
            "buffer" : 0,
            "byteLength" : 96,
            "byteOffset" : 457504,
            "target" : 34962
        },
        {
            "buffer" : 0,
            "byteLength" : 96,
            "byteOffset" : 457600,
            "target" : 34962
        },
        {
            "buffer" : 0,
            "byteLength" : 24,
            "byteOffset" : 457696,
            "target" : 34963
        },
        {
            "buffer" : 0,
            "byteLength" : 96,
            "byteOffset" : 457720,
            "target" : 34962
        },
        {
            "buffer" : 0,
            "byteLength" : 96,
            "byteOffset" : 457816,
            "target" : 34962
        },
        {
            "buffer" : 0,
            "byteLength" : 24,
            "byteOffset" : 457912,
            "target" : 34963
        },
        {
            "buffer" : 0,
            "byteLength" : 48,
            "byteOffset" : 457936,
            "target" : 34962
        },
        {
            "buffer" : 0,
            "byteLength" : 48,
            "byteOffset" : 457984,
            "target" : 34962
        },
        {
            "buffer" : 0,
            "byteLength" : 12,
            "byteOffset" : 458032,
            "target" : 34963
        }
    ],
    "buffers" : [
        {
            "byteLength" : 458044,
            "uri" : "data:application/octet-stream;base64,"
        }
    ]
}
