{
    "asset" : {
        "generator" : "Khronos glTF Blender I/O v3.3.36",
        "version" : "2.0"
    },
    "scene" : 0,
    "scenes" : [
        {
            "name" : "Scene",
            "nodes" : [
                0,
                1,
                2,
                3,
                4,
                5,
                6,
                7,
                8,
                9,
                10,
                11,
                12
            ]
        }
    ],
    "nodes" : [
        {
            "mesh" : 0,
            "name" : "Wall"
        },
        {
            "mesh" : 1,
            "name" : "WallDinoRightOneWay"
        },
        {
            "mesh" : 2,
            "name" : "WallDinoLeftOneWay"
        },
        {
            "mesh" : 3,
            "name" : "FloorPavement"
        },
        {
            "mesh" : 4,
            "name" : "FloorWood"
        },
        {
            "mesh" : 5,
            "name" : "FloorGrass"
        },
        {
            "mesh" : 6,
            "name" : "FloorDino"
        },
        {
            "mesh" : 7,
            "name" : "FloorDinoRight"
        },
        {
            "mesh" : 8,
            "name" : "FloorDinoLeft"
        },
        {
            "mesh" : 9,
            "name" : "CaveOneWay"
        },
        {
            "mesh" : 10,
            "name" : "CaveRightOneWay"
        },
        {
            "mesh" : 11,
            "name" : "AutomationOneWay"
        },
        {
            "mesh" : 12,
            "name" : "FeedingTunnelOneWay"
        }
    ],
    "meshes" : [
        {
            "name" : "Wall",
            "primitives" : [
                {
                    "attributes" : {
                        "POSITION" : 0,
                        "NORMAL" : 1
                    },
                    "indices" : 2
                }
            ]
        },
        {
            "name" : "WallDinoRightOneWay",
            "primitives" : [
                {
                    "attributes" : {
                        "POSITION" : 3,
                        "NORMAL" : 4
                    },
                    "indices" : 5
                }
            ]
        },
        {
            "name" : "WallDinoLeftOneWay",
            "primitives" : [
                {
                    "attributes" : {
                        "POSITION" : 6,
                        "NORMAL" : 7
                    },
                    "indices" : 8
                }
            ]
        },
        {
            "name" : "FloorPavement",
            "primitives" : [
                {
                    "attributes" : {
                        "POSITION" : 9,
                        "NORMAL" : 10
                    },
                    "indices" : 11
                }
            ]
        },
        {
            "name" : "FloorWood",
            "primitives" : [
                {
                    "attributes" : {
                        "POSITION" : 12,
                        "NORMAL" : 13
                    },
                    "indices" : 14
                }
            ]
        },
        {
            "name" : "FloorGrass",
            "primitives" : [
                {
                    "attributes" : {
                        "POSITION" : 15,
                        "NORMAL" : 16
                    },
                    "indices" : 17
                }
            ]
        },
        {
            "name" : "FloorDino",
            "primitives" : [
                {
                    "attributes" : {
                        "POSITION" : 18,
                        "NORMAL" : 19
                    },
                    "indices" : 20
                }
            ]
        },
        {
            "name" : "FloorDinoRight",
            "primitives" : [
                {
                    "attributes" : {
                        "POSITION" : 21,
                        "NORMAL" : 22
                    },
                    "indices" : 23
                }
            ]
        },
        {
            "name" : "FloorDinoLeft",
            "primitives" : [
                {
                    "attributes" : {
                        "POSITION" : 24,
                        "NORMAL" : 25
                    },
                    "indices" : 20
                }
            ]
        },
        {
            "name" : "CaveOneWay",
            "primitives" : [
                {
                    "attributes" : {
                        "POSITION" : 26,
                        "NORMAL" : 27
                    },
                    "indices" : 28
                }
            ]
        },
        {
            "name" : "CaveRightOneWay",
            "primitives" : [
                {
                    "attributes" : {
                        "POSITION" : 29,
                        "NORMAL" : 30
                    },
                    "indices" : 31
                }
            ]
        },
        {
            "name" : "AutomationOneWay",
            "primitives" : [
                {
                    "attributes" : {
                        "POSITION" : 32,
                        "NORMAL" : 33
                    },
                    "indices" : 34
                }
            ]
        },
        {
            "name" : "FeedingTunnelOneWay",
            "primitives" : [
                {
                    "attributes" : {
                        "POSITION" : 35,
                        "NORMAL" : 36
                    },
                    "indices" : 37
                }
            ]
        }
    ],
    "accessors" : [
        {
            "bufferView" : 0,
            "componentType" : 5126,
            "count" : 6834,
            "max" : [
                7.450167655944824,
                25.415752410888672,
                93.21631622314453
            ],
            "min" : [
                -892.1873779296875,
                -285.95458984375,
                -1177.4393310546875
            ],
            "type" : "VEC3"
        },
        {
            "bufferView" : 1,
            "componentType" : 5126,
            "count" : 6834,
            "type" : "VEC3"
        },
        {
            "bufferView" : 2,
            "componentType" : 5123,
            "count" : 10254,
            "type" : "SCALAR"
        },
        {
            "bufferView" : 3,
            "componentType" : 5126,
            "count" : 124,
            "max" : [
                -391.3965759277344,
                -249.14120483398438,
                -1132.5555419921875
            ],
            "min" : [
                -413.99298095703125,
                -285.95428466796875,
                -1171.0194091796875
            ],
            "type" : "VEC3"
        },
        {
            "bufferView" : 4,
            "componentType" : 5126,
            "count" : 124,
            "type" : "VEC3"
        },
        {
            "bufferView" : 5,
            "componentType" : 5123,
            "count" : 186,
            "type" : "SCALAR"
        },
        {
            "bufferView" : 6,
            "componentType" : 5126,
            "count" : 44,
            "max" : [
                -391.3965759277344,
                -249.14120483398438,
                -1132.5555419921875
            ],
            "min" : [
                -438.6961975097656,
                -285.9540710449219,
                -1152.108642578125
            ],
            "type" : "VEC3"
        },
        {
            "bufferView" : 7,
            "componentType" : 5126,
            "count" : 44,
            "type" : "VEC3"
        },
        {
            "bufferView" : 8,
            "componentType" : 5123,
            "count" : 66,
            "type" : "SCALAR"
        },
        {
            "bufferView" : 9,
            "componentType" : 5126,
            "count" : 8393,
            "max" : [
                12.019407272338867,
                5.793828010559082,
                96.01731872558594
            ],
            "min" : [
                -721.8460083007812,
                -280.9962158203125,
                -1141.036865234375
            ],
            "type" : "VEC3"
        },
        {
            "bufferView" : 10,
            "componentType" : 5126,
            "count" : 8393,
            "type" : "VEC3"
        },
        {
            "bufferView" : 11,
            "componentType" : 5123,
            "count" : 18573,
            "type" : "SCALAR"
        },
        {
            "bufferView" : 12,
            "componentType" : 5126,
            "count" : 36,
            "max" : [
                -188.9795379638672,
                -40.23957824707031,
                -487.07843017578125
            ],
            "min" : [
                -431.77960205078125,
                -265.05902099609375,
                -964.5554809570312
            ],
            "type" : "VEC3"
        },
        {
            "bufferView" : 13,
            "componentType" : 5126,
            "count" : 36,
            "type" : "VEC3"
        },
        {
            "bufferView" : 14,
            "componentType" : 5123,
            "count" : 54,
            "type" : "SCALAR"
        },
        {
            "bufferView" : 15,
            "componentType" : 5126,
            "count" : 2423,
            "max" : [
                -272.43304443359375,
                -245.64886474609375,
                -914.799072265625
            ],
            "min" : [
                -894.3561401367188,
                -279.9961242675781,
                -1187.322509765625
            ],
            "type" : "VEC3"
        },
        {
            "bufferView" : 16,
            "componentType" : 5126,
            "count" : 2423,
            "type" : "VEC3"
        },
        {
            "bufferView" : 17,
            "componentType" : 5123,
            "count" : 2442,
            "type" : "SCALAR"
        },
        {
            "bufferView" : 18,
            "componentType" : 5126,
            "count" : 64,
            "max" : [
                -279.2215881347656,
                -251.6158447265625,
                -984.9818115234375
            ],
            "min" : [
                -295.9136657714844,
                -277.0282287597656,
                -1075.91162109375
            ],
            "type" : "VEC3"
        },
        {
            "bufferView" : 19,
            "componentType" : 5126,
            "count" : 64,
            "type" : "VEC3"
        },
        {
            "bufferView" : 20,
            "componentType" : 5123,
            "count" : 186,
            "type" : "SCALAR"
        },
        {
            "bufferView" : 21,
            "componentType" : 5126,
            "count" : 62,
            "max" : [
                -337.48638916015625,
                -269.1471862792969,
                -1106.6240234375
            ],
            "min" : [
                -409.5332336425781,
                -277.1943359375,
                -1169.843994140625
            ],
            "type" : "VEC3"
        },
        {
            "bufferView" : 22,
            "componentType" : 5126,
            "count" : 62,
            "type" : "VEC3"
        },
        {
            "bufferView" : 23,
            "componentType" : 5123,
            "count" : 180,
            "type" : "SCALAR"
        },
        {
            "bufferView" : 24,
            "componentType" : 5126,
            "count" : 64,
            "max" : [
                -337.48638916015625,
                -262.8446350097656,
                -1106.6240234375
            ],
            "min" : [
                -429.2803039550781,
                -277.1943359375,
                -1151.3875732421875
            ],
            "type" : "VEC3"
        },
        {
            "bufferView" : 25,
            "componentType" : 5126,
            "count" : 64,
            "type" : "VEC3"
        },
        {
            "bufferView" : 26,
            "componentType" : 5126,
            "count" : 32,
            "max" : [
                -358.3299560546875,
                -192.5517120361328,
                -618.0929565429688
            ],
            "min" : [
                -443.55267333984375,
                -222.55206298828125,
                -859.8591918945312
            ],
            "type" : "VEC3"
        },
        {
            "bufferView" : 27,
            "componentType" : 5126,
            "count" : 32,
            "type" : "VEC3"
        },
        {
            "bufferView" : 28,
            "componentType" : 5123,
            "count" : 48,
            "type" : "SCALAR"
        },
        {
            "bufferView" : 29,
            "componentType" : 5126,
            "count" : 20,
            "max" : [
                -348.5462341308594,
                -202.5517120361328,
                -632.2749633789062
            ],
            "min" : [
                -367.2422790527344,
                -222.5517120361328,
                -766.2470092773438
            ],
            "type" : "VEC3"
        },
        {
            "bufferView" : 30,
            "componentType" : 5126,
            "count" : 20,
            "type" : "VEC3"
        },
        {
            "bufferView" : 31,
            "componentType" : 5123,
            "count" : 30,
            "type" : "SCALAR"
        },
        {
            "bufferView" : 32,
            "componentType" : 5126,
            "count" : 4,
            "max" : [
                -430.87591552734375,
                -245.64834594726562,
                -911.0616455078125
            ],
            "min" : [
                -431.906494140625,
                -265.007568359375,
                -911.4608154296875
            ],
            "type" : "VEC3"
        },
        {
            "bufferView" : 33,
            "componentType" : 5126,
            "count" : 4,
            "type" : "VEC3"
        },
        {
            "bufferView" : 34,
            "componentType" : 5123,
            "count" : 6,
            "type" : "SCALAR"
        },
        {
            "bufferView" : 35,
            "componentType" : 5126,
            "count" : 4,
            "max" : [
                -630.7777709960938,
                -265.9542236328125,
                -1056.7972412109375
            ],
            "min" : [
                -633.622314453125,
                -285.9542541503906,
                -1058.738037109375
            ],
            "type" : "VEC3"
        },
        {
            "bufferView" : 36,
            "componentType" : 5126,
            "count" : 4,
            "type" : "VEC3"
        },
        {
            "bufferView" : 37,
            "componentType" : 5123,
            "count" : 6,
            "type" : "SCALAR"
        }
    ],
    "bufferViews" : [
        {
            "buffer" : 0,
            "byteLength" : 82008,
            "byteOffset" : 0,
            "target" : 34962
        },
        {
            "buffer" : 0,
            "byteLength" : 82008,
            "byteOffset" : 82008,
            "target" : 34962
        },
        {
            "buffer" : 0,
            "byteLength" : 20508,
            "byteOffset" : 164016,
            "target" : 34963
        },
        {
            "buffer" : 0,
            "byteLength" : 1488,
            "byteOffset" : 184524,
            "target" : 34962
        },
        {
            "buffer" : 0,
            "byteLength" : 1488,
            "byteOffset" : 186012,
            "target" : 34962
        },
        {
            "buffer" : 0,
            "byteLength" : 372,
            "byteOffset" : 187500,
            "target" : 34963
        },
        {
            "buffer" : 0,
            "byteLength" : 528,
            "byteOffset" : 187872,
            "target" : 34962
        },
        {
            "buffer" : 0,
            "byteLength" : 528,
            "byteOffset" : 188400,
            "target" : 34962
        },
        {
            "buffer" : 0,
            "byteLength" : 132,
            "byteOffset" : 188928,
            "target" : 34963
        },
        {
            "buffer" : 0,
            "byteLength" : 100716,
            "byteOffset" : 189060,
            "target" : 34962
        },
        {
            "buffer" : 0,
            "byteLength" : 100716,
            "byteOffset" : 289776,
            "target" : 34962
        },
        {
            "buffer" : 0,
            "byteLength" : 37146,
            "byteOffset" : 390492,
            "target" : 34963
        },
        {
            "buffer" : 0,
            "byteLength" : 432,
            "byteOffset" : 427640,
            "target" : 34962
        },
        {
            "buffer" : 0,
            "byteLength" : 432,
            "byteOffset" : 428072,
            "target" : 34962
        },
        {
            "buffer" : 0,
            "byteLength" : 108,
            "byteOffset" : 428504,
            "target" : 34963
        },
        {
            "buffer" : 0,
            "byteLength" : 29076,
            "byteOffset" : 428612,
            "target" : 34962
        },
        {
            "buffer" : 0,
            "byteLength" : 29076,
            "byteOffset" : 457688,
            "target" : 34962
        },
        {
            "buffer" : 0,
            "byteLength" : 4884,
            "byteOffset" : 486764,
            "target" : 34963
        },
        {
            "buffer" : 0,
            "byteLength" : 768,
            "byteOffset" : 491648,
            "target" : 34962
        },
        {
            "buffer" : 0,
            "byteLength" : 768,
            "byteOffset" : 492416,
            "target" : 34962
        },
        {
            "buffer" : 0,
            "byteLength" : 372,
            "byteOffset" : 493184,
            "target" : 34963
        },
        {
            "buffer" : 0,
            "byteLength" : 744,
            "byteOffset" : 493556,
            "target" : 34962
        },
        {
            "buffer" : 0,
            "byteLength" : 744,
            "byteOffset" : 494300,
            "target" : 34962
        },
        {
            "buffer" : 0,
            "byteLength" : 360,
            "byteOffset" : 495044,
            "target" : 34963
        },
        {
            "buffer" : 0,
            "byteLength" : 768,
            "byteOffset" : 495404,
            "target" : 34962
        },
        {
            "buffer" : 0,
            "byteLength" : 768,
            "byteOffset" : 496172,
            "target" : 34962
        },
        {
            "buffer" : 0,
            "byteLength" : 384,
            "byteOffset" : 496940,
            "target" : 34962
        },
        {
            "buffer" : 0,
            "byteLength" : 384,
            "byteOffset" : 497324,
            "target" : 34962
        },
        {
            "buffer" : 0,
            "byteLength" : 96,
            "byteOffset" : 497708,
            "target" : 34963
        },
        {
            "buffer" : 0,
            "byteLength" : 240,
            "byteOffset" : 497804,
            "target" : 34962
        },
        {
            "buffer" : 0,
            "byteLength" : 240,
            "byteOffset" : 498044,
            "target" : 34962
        },
        {
            "buffer" : 0,
            "byteLength" : 60,
            "byteOffset" : 498284,
            "target" : 34963
        },
        {
            "buffer" : 0,
            "byteLength" : 48,
            "byteOffset" : 498344,
            "target" : 34962
        },
        {
            "buffer" : 0,
            "byteLength" : 48,
            "byteOffset" : 498392,
            "target" : 34962
        },
        {
            "buffer" : 0,
            "byteLength" : 12,
            "byteOffset" : 498440,
            "target" : 34963
        },
        {
            "buffer" : 0,
            "byteLength" : 48,
            "byteOffset" : 498452,
            "target" : 34962
        },
        {
            "buffer" : 0,
            "byteLength" : 48,
            "byteOffset" : 498500,
            "target" : 34962
        },
        {
            "buffer" : 0,
            "byteLength" : 12,
            "byteOffset" : 498548,
            "target" : 34963
        }
    ],
    "buffers" : [
        {
            "byteLength" : 498560,
            "uri" : "data:application/octet-stream;base64,"
        }
    ]
}
