{
    "asset" : {
        "generator" : "Khronos glTF Blender I/O v3.3.36",
        "version" : "2.0"
    },
    "scene" : 0,
    "scenes" : [
        {
            "name" : "Scene",
            "nodes" : [
                0,
                1,
                2,
                3,
                4,
                5
            ]
        }
    ],
    "nodes" : [
        {
            "mesh" : 0,
            "name" : "Wall"
        },
        {
            "mesh" : 1,
            "name" : "Ceiling"
        },
        {
            "mesh" : 2,
            "name" : "SpikeBallCollision"
        },
        {
            "mesh" : 3,
            "name" : "FloorPavement"
        },
        {
            "mesh" : 4,
            "name" : "FloorStone"
        },
        {
            "mesh" : 5,
            "name" : "OneWayWall"
        }
    ],
    "meshes" : [
        {
            "name" : "Wall",
            "primitives" : [
                {
                    "attributes" : {
                        "POSITION" : 0,
                        "NORMAL" : 1
                    },
                    "indices" : 2
                }
            ]
        },
        {
            "name" : "Ceiling",
            "primitives" : [
                {
                    "attributes" : {
                        "POSITION" : 3,
                        "NORMAL" : 4
                    },
                    "indices" : 5
                }
            ]
        },
        {
            "name" : "SpikeBallCollision",
            "primitives" : [
                {
                    "attributes" : {
                        "POSITION" : 6,
                        "NORMAL" : 7
                    },
                    "indices" : 8
                }
            ]
        },
        {
            "name" : "FloorPavement",
            "primitives" : [
                {
                    "attributes" : {
                        "POSITION" : 9,
                        "NORMAL" : 10
                    },
                    "indices" : 11
                }
            ]
        },
        {
            "name" : "FloorStone",
            "primitives" : [
                {
                    "attributes" : {
                        "POSITION" : 12,
                        "NORMAL" : 13
                    },
                    "indices" : 14
                }
            ]
        },
        {
            "name" : "OneWayWall",
            "primitives" : [
                {
                    "attributes" : {
                        "POSITION" : 15,
                        "NORMAL" : 16
                    },
                    "indices" : 17
                }
            ]
        }
    ],
    "accessors" : [
        {
            "bufferView" : 0,
            "componentType" : 5126,
            "count" : 5730,
            "max" : [
                1152.4388427734375,
                70.35780334472656,
                14.026039123535156
            ],
            "min" : [
                -53.0609245300293,
                -82.785888671875,
                -1373.1341552734375
            ],
            "type" : "VEC3"
        },
        {
            "bufferView" : 1,
            "componentType" : 5126,
            "count" : 5730,
            "type" : "VEC3"
        },
        {
            "bufferView" : 2,
            "componentType" : 5123,
            "count" : 12228,
            "type" : "SCALAR"
        },
        {
            "bufferView" : 3,
            "componentType" : 5126,
            "count" : 1928,
            "max" : [
                55.87641143798828,
                21.222440719604492,
                -2.0204081535339355
            ],
            "min" : [
                -53.0609245300293,
                6.166064262390137,
                -620.6202392578125
            ],
            "type" : "VEC3"
        },
        {
            "bufferView" : 4,
            "componentType" : 5126,
            "count" : 1928,
            "type" : "VEC3"
        },
        {
            "bufferView" : 5,
            "componentType" : 5123,
            "count" : 8667,
            "type" : "SCALAR"
        },
        {
            "bufferView" : 6,
            "componentType" : 5126,
            "count" : 468,
            "max" : [
                827.5651245117188,
                20.32234764099121,
                -440.8720703125
            ],
            "min" : [
                -33.6130256652832,
                -12.023028373718262,
                -1369.4168701171875
            ],
            "type" : "VEC3"
        },
        {
            "bufferView" : 7,
            "componentType" : 5126,
            "count" : 468,
            "type" : "VEC3"
        },
        {
            "bufferView" : 8,
            "componentType" : 5123,
            "count" : 2160,
            "type" : "SCALAR"
        },
        {
            "bufferView" : 9,
            "componentType" : 5126,
            "count" : 4056,
            "max" : [
                1158.402587890625,
                59.9582633972168,
                72.82887268066406
            ],
            "min" : [
                -44.260074615478516,
                -40.55508804321289,
                -1374.136962890625
            ],
            "type" : "VEC3"
        },
        {
            "bufferView" : 10,
            "componentType" : 5126,
            "count" : 4056,
            "type" : "VEC3"
        },
        {
            "bufferView" : 11,
            "componentType" : 5123,
            "count" : 17883,
            "type" : "SCALAR"
        },
        {
            "bufferView" : 12,
            "componentType" : 5126,
            "count" : 818,
            "max" : [
                219.7310028076172,
                43.26620101928711,
                -654.1744995117188
            ],
            "min" : [
                -27.9604434967041,
                -0.08384250104427338,
                -914.0836181640625
            ],
            "type" : "VEC3"
        },
        {
            "bufferView" : 13,
            "componentType" : 5126,
            "count" : 818,
            "type" : "VEC3"
        },
        {
            "bufferView" : 14,
            "componentType" : 5123,
            "count" : 3966,
            "type" : "SCALAR"
        },
        {
            "bufferView" : 15,
            "componentType" : 5126,
            "count" : 256,
            "max" : [
                542.0874633789062,
                51.969181060791016,
                -801.1067504882812
            ],
            "min" : [
                -0.7882288694381714,
                -24.999858856201172,
                -1131.3765869140625
            ],
            "type" : "VEC3"
        },
        {
            "bufferView" : 16,
            "componentType" : 5126,
            "count" : 256,
            "type" : "VEC3"
        },
        {
            "bufferView" : 17,
            "componentType" : 5123,
            "count" : 384,
            "type" : "SCALAR"
        }
    ],
    "bufferViews" : [
        {
            "buffer" : 0,
            "byteLength" : 68760,
            "byteOffset" : 0,
            "target" : 34962
        },
        {
            "buffer" : 0,
            "byteLength" : 68760,
            "byteOffset" : 68760,
            "target" : 34962
        },
        {
            "buffer" : 0,
            "byteLength" : 24456,
            "byteOffset" : 137520,
            "target" : 34963
        },
        {
            "buffer" : 0,
            "byteLength" : 23136,
            "byteOffset" : 161976,
            "target" : 34962
        },
        {
            "buffer" : 0,
            "byteLength" : 23136,
            "byteOffset" : 185112,
            "target" : 34962
        },
        {
            "buffer" : 0,
            "byteLength" : 17334,
            "byteOffset" : 208248,
            "target" : 34963
        },
        {
            "buffer" : 0,
            "byteLength" : 5616,
            "byteOffset" : 225584,
            "target" : 34962
        },
        {
            "buffer" : 0,
            "byteLength" : 5616,
            "byteOffset" : 231200,
            "target" : 34962
        },
        {
            "buffer" : 0,
            "byteLength" : 4320,
            "byteOffset" : 236816,
            "target" : 34963
        },
        {
            "buffer" : 0,
            "byteLength" : 48672,
            "byteOffset" : 241136,
            "target" : 34962
        },
        {
            "buffer" : 0,
            "byteLength" : 48672,
            "byteOffset" : 289808,
            "target" : 34962
        },
        {
            "buffer" : 0,
            "byteLength" : 35766,
            "byteOffset" : 338480,
            "target" : 34963
        },
        {
            "buffer" : 0,
            "byteLength" : 9816,
            "byteOffset" : 374248,
            "target" : 34962
        },
        {
            "buffer" : 0,
            "byteLength" : 9816,
            "byteOffset" : 384064,
            "target" : 34962
        },
        {
            "buffer" : 0,
            "byteLength" : 7932,
            "byteOffset" : 393880,
            "target" : 34963
        },
        {
            "buffer" : 0,
            "byteLength" : 3072,
            "byteOffset" : 401812,
            "target" : 34962
        },
        {
            "buffer" : 0,
            "byteLength" : 3072,
            "byteOffset" : 404884,
            "target" : 34962
        },
        {
            "buffer" : 0,
            "byteLength" : 768,
            "byteOffset" : 407956,
            "target" : 34963
        }
    ],
    "buffers" : [
        {
            "byteLength" : 408724,
            "uri" : "data:application/octet-stream;base64,"
        }
    ]
}
