{
    "asset" : {
        "generator" : "Khronos glTF Blender I/O v3.3.27",
        "version" : "2.0"
    },
    "scene" : 0,
    "scenes" : [
        {
            "name" : "Scene",
            "nodes" : [
                0,
                1,
                2,
                3
            ]
        }
    ],
    "nodes" : [
        {
            "mesh" : 0,
            "name" : "Wall"
        },
        {
            "mesh" : 1,
            "name" : "Floor"
        },
        {
            "mesh" : 2,
            "name" : "Ceiling"
        },
        {
            "mesh" : 3,
            "name" : "MountainWall"
        }
    ],
    "meshes" : [
        {
            "name" : "Wall",
            "primitives" : [
                {
                    "attributes" : {
                        "POSITION" : 0,
                        "NORMAL" : 1
                    },
                    "indices" : 2
                }
            ]
        },
        {
            "name" : "Floor",
            "primitives" : [
                {
                    "attributes" : {
                        "POSITION" : 3,
                        "NORMAL" : 4
                    },
                    "indices" : 5
                }
            ]
        },
        {
            "name" : "Ceiling",
            "primitives" : [
                {
                    "attributes" : {
                        "POSITION" : 6,
                        "NORMAL" : 7
                    },
                    "indices" : 8
                }
            ]
        },
        {
            "name" : "MountainWall",
            "primitives" : [
                {
                    "attributes" : {
                        "POSITION" : 9,
                        "NORMAL" : 10
                    },
                    "indices" : 11
                }
            ]
        }
    ],
    "accessors" : [
        {
            "bufferView" : 0,
            "componentType" : 5126,
            "count" : 4559,
            "max" : [
                1153.0341796875,
                70.92098236083984,
                14.026039123535156
            ],
            "min" : [
                -42.76150131225586,
                -40.00263595581055,
                -1373.1341552734375
            ],
            "type" : "VEC3"
        },
        {
            "bufferView" : 1,
            "componentType" : 5126,
            "count" : 4559,
            "type" : "VEC3"
        },
        {
            "bufferView" : 2,
            "componentType" : 5123,
            "count" : 8013,
            "type" : "SCALAR"
        },
        {
            "bufferView" : 3,
            "componentType" : 5126,
            "count" : 5442,
            "max" : [
                1158.402587890625,
                60.142642974853516,
                72.82887268066406
            ],
            "min" : [
                -44.260074615478516,
                -40.55508804321289,
                -1374.136962890625
            ],
            "type" : "VEC3"
        },
        {
            "bufferView" : 4,
            "componentType" : 5126,
            "count" : 5442,
            "type" : "VEC3"
        },
        {
            "bufferView" : 5,
            "componentType" : 5123,
            "count" : 23799,
            "type" : "SCALAR"
        },
        {
            "bufferView" : 6,
            "componentType" : 5126,
            "count" : 2031,
            "max" : [
                55.87641143798828,
                72.00791931152344,
                -2.0204081535339355
            ],
            "min" : [
                -53.0609245300293,
                6.166064262390137,
                -816.5438232421875
            ],
            "type" : "VEC3"
        },
        {
            "bufferView" : 7,
            "componentType" : 5126,
            "count" : 2031,
            "type" : "VEC3"
        },
        {
            "bufferView" : 8,
            "componentType" : 5123,
            "count" : 9141,
            "type" : "SCALAR"
        },
        {
            "bufferView" : 9,
            "componentType" : 5126,
            "count" : 968,
            "max" : [
                55.87641143798828,
                30.516141891479492,
                -2.0204081535339355
            ],
            "min" : [
                -53.0609245300293,
                6.182732582092285,
                -617.2363891601562
            ],
            "type" : "VEC3"
        },
        {
            "bufferView" : 10,
            "componentType" : 5126,
            "count" : 968,
            "type" : "VEC3"
        },
        {
            "bufferView" : 11,
            "componentType" : 5123,
            "count" : 2832,
            "type" : "SCALAR"
        }
    ],
    "bufferViews" : [
        {
            "buffer" : 0,
            "byteLength" : 54708,
            "byteOffset" : 0,
            "target" : 34962
        },
        {
            "buffer" : 0,
            "byteLength" : 54708,
            "byteOffset" : 54708,
            "target" : 34962
        },
        {
            "buffer" : 0,
            "byteLength" : 16026,
            "byteOffset" : 109416,
            "target" : 34963
        },
        {
            "buffer" : 0,
            "byteLength" : 65304,
            "byteOffset" : 125444,
            "target" : 34962
        },
        {
            "buffer" : 0,
            "byteLength" : 65304,
            "byteOffset" : 190748,
            "target" : 34962
        },
        {
            "buffer" : 0,
            "byteLength" : 47598,
            "byteOffset" : 256052,
            "target" : 34963
        },
        {
            "buffer" : 0,
            "byteLength" : 24372,
            "byteOffset" : 303652,
            "target" : 34962
        },
        {
            "buffer" : 0,
            "byteLength" : 24372,
            "byteOffset" : 328024,
            "target" : 34962
        },
        {
            "buffer" : 0,
            "byteLength" : 18282,
            "byteOffset" : 352396,
            "target" : 34963
        },
        {
            "buffer" : 0,
            "byteLength" : 11616,
            "byteOffset" : 370680,
            "target" : 34962
        },
        {
            "buffer" : 0,
            "byteLength" : 11616,
            "byteOffset" : 382296,
            "target" : 34962
        },
        {
            "buffer" : 0,
            "byteLength" : 5664,
            "byteOffset" : 393912,
            "target" : 34963
        }
    ],
    "buffers" : [
        {
            "byteLength" : 399576,
            "uri" : "data:application/octet-stream;base64,"
        }
    ]
}
