{
    "asset" : {
        "generator" : "Khronos glTF Blender I/O v3.3.36",
        "version" : "2.0"
    },
    "scene" : 0,
    "scenes" : [
        {
            "name" : "Scene",
            "nodes" : [
                0,
                1,
                2,
                3,
                4,
                5,
                6
            ]
        }
    ],
    "nodes" : [
        {
            "mesh" : 0,
            "name" : "Wall"
        },
        {
            "mesh" : 1,
            "name" : "Ceiling"
        },
        {
            "mesh" : 2,
            "name" : "SpikeBallCollision"
        },
        {
            "mesh" : 3,
            "name" : "FloorPavement"
        },
        {
            "mesh" : 4,
            "name" : "FloorStone"
        },
        {
            "mesh" : 5,
            "name" : "OneWayWall"
        },
        {
            "mesh" : 6,
            "name" : "FloorSnow"
        }
    ],
    "meshes" : [
        {
            "name" : "Wall",
            "primitives" : [
                {
                    "attributes" : {
                        "POSITION" : 0,
                        "NORMAL" : 1
                    },
                    "indices" : 2
                }
            ]
        },
        {
            "name" : "Ceiling",
            "primitives" : [
                {
                    "attributes" : {
                        "POSITION" : 3,
                        "NORMAL" : 4
                    },
                    "indices" : 5
                }
            ]
        },
        {
            "name" : "SpikeBallCollision",
            "primitives" : [
                {
                    "attributes" : {
                        "POSITION" : 6,
                        "NORMAL" : 7
                    },
                    "indices" : 8
                }
            ]
        },
        {
            "name" : "FloorPavement",
            "primitives" : [
                {
                    "attributes" : {
                        "POSITION" : 9,
                        "NORMAL" : 10
                    },
                    "indices" : 11
                }
            ]
        },
        {
            "name" : "FloorStone",
            "primitives" : [
                {
                    "attributes" : {
                        "POSITION" : 12,
                        "NORMAL" : 13
                    },
                    "indices" : 14
                }
            ]
        },
        {
            "name" : "OneWayWall",
            "primitives" : [
                {
                    "attributes" : {
                        "POSITION" : 15,
                        "NORMAL" : 16
                    },
                    "indices" : 17
                }
            ]
        },
        {
            "name" : "FloorSnow",
            "primitives" : [
                {
                    "attributes" : {
                        "POSITION" : 18,
                        "NORMAL" : 19
                    },
                    "indices" : 20
                }
            ]
        }
    ],
    "accessors" : [
        {
            "bufferView" : 0,
            "componentType" : 5126,
            "count" : 8353,
            "max" : [
                1152.4388427734375,
                70.35780334472656,
                14.026039123535156
            ],
            "min" : [
                -53.0609245300293,
                -82.785888671875,
                -1373.1341552734375
            ],
            "type" : "VEC3"
        },
        {
            "bufferView" : 1,
            "componentType" : 5126,
            "count" : 8353,
            "type" : "VEC3"
        },
        {
            "bufferView" : 2,
            "componentType" : 5123,
            "count" : 15840,
            "type" : "SCALAR"
        },
        {
            "bufferView" : 3,
            "componentType" : 5126,
            "count" : 626,
            "max" : [
                1106.2022705078125,
                15.311487197875977,
                -488.3524169921875
            ],
            "min" : [
                493.0101623535156,
                6.196421146392822,
                -630.10888671875
            ],
            "type" : "VEC3"
        },
        {
            "bufferView" : 4,
            "componentType" : 5126,
            "count" : 626,
            "type" : "VEC3"
        },
        {
            "bufferView" : 5,
            "componentType" : 5123,
            "count" : 1068,
            "type" : "SCALAR"
        },
        {
            "bufferView" : 6,
            "componentType" : 5126,
            "count" : 520,
            "max" : [
                827.5651245117188,
                35.00035858154297,
                -440.8720703125
            ],
            "min" : [
                -33.6130256652832,
                -12.023028373718262,
                -1369.4168701171875
            ],
            "type" : "VEC3"
        },
        {
            "bufferView" : 7,
            "componentType" : 5126,
            "count" : 520,
            "type" : "VEC3"
        },
        {
            "bufferView" : 8,
            "componentType" : 5123,
            "count" : 2352,
            "type" : "SCALAR"
        },
        {
            "bufferView" : 9,
            "componentType" : 5126,
            "count" : 3210,
            "max" : [
                1158.402587890625,
                59.9582633972168,
                -485.3705749511719
            ],
            "min" : [
                -25.621257781982422,
                -40.55508804321289,
                -1374.136962890625
            ],
            "type" : "VEC3"
        },
        {
            "bufferView" : 10,
            "componentType" : 5126,
            "count" : 3210,
            "type" : "VEC3"
        },
        {
            "bufferView" : 11,
            "componentType" : 5123,
            "count" : 13980,
            "type" : "SCALAR"
        },
        {
            "bufferView" : 12,
            "componentType" : 5126,
            "count" : 818,
            "max" : [
                219.7310028076172,
                43.26620101928711,
                -654.1744995117188
            ],
            "min" : [
                -27.9604434967041,
                -0.08384250104427338,
                -914.0836181640625
            ],
            "type" : "VEC3"
        },
        {
            "bufferView" : 13,
            "componentType" : 5126,
            "count" : 818,
            "type" : "VEC3"
        },
        {
            "bufferView" : 14,
            "componentType" : 5123,
            "count" : 3966,
            "type" : "SCALAR"
        },
        {
            "bufferView" : 15,
            "componentType" : 5126,
            "count" : 256,
            "max" : [
                542.0874633789062,
                51.969181060791016,
                -801.1067504882812
            ],
            "min" : [
                -0.7882288694381714,
                -24.999858856201172,
                -1131.3765869140625
            ],
            "type" : "VEC3"
        },
        {
            "bufferView" : 16,
            "componentType" : 5126,
            "count" : 256,
            "type" : "VEC3"
        },
        {
            "bufferView" : 17,
            "componentType" : 5123,
            "count" : 384,
            "type" : "SCALAR"
        },
        {
            "bufferView" : 18,
            "componentType" : 5126,
            "count" : 855,
            "max" : [
                62.03555679321289,
                5.06165885925293,
                72.82887268066406
            ],
            "min" : [
                -44.260074615478516,
                -5.316843509674072,
                -591.3554077148438
            ],
            "type" : "VEC3"
        },
        {
            "bufferView" : 19,
            "componentType" : 5126,
            "count" : 855,
            "type" : "VEC3"
        },
        {
            "bufferView" : 20,
            "componentType" : 5123,
            "count" : 3903,
            "type" : "SCALAR"
        }
    ],
    "bufferViews" : [
        {
            "buffer" : 0,
            "byteLength" : 100236,
            "byteOffset" : 0,
            "target" : 34962
        },
        {
            "buffer" : 0,
            "byteLength" : 100236,
            "byteOffset" : 100236,
            "target" : 34962
        },
        {
            "buffer" : 0,
            "byteLength" : 31680,
            "byteOffset" : 200472,
            "target" : 34963
        },
        {
            "buffer" : 0,
            "byteLength" : 7512,
            "byteOffset" : 232152,
            "target" : 34962
        },
        {
            "buffer" : 0,
            "byteLength" : 7512,
            "byteOffset" : 239664,
            "target" : 34962
        },
        {
            "buffer" : 0,
            "byteLength" : 2136,
            "byteOffset" : 247176,
            "target" : 34963
        },
        {
            "buffer" : 0,
            "byteLength" : 6240,
            "byteOffset" : 249312,
            "target" : 34962
        },
        {
            "buffer" : 0,
            "byteLength" : 6240,
            "byteOffset" : 255552,
            "target" : 34962
        },
        {
            "buffer" : 0,
            "byteLength" : 4704,
            "byteOffset" : 261792,
            "target" : 34963
        },
        {
            "buffer" : 0,
            "byteLength" : 38520,
            "byteOffset" : 266496,
            "target" : 34962
        },
        {
            "buffer" : 0,
            "byteLength" : 38520,
            "byteOffset" : 305016,
            "target" : 34962
        },
        {
            "buffer" : 0,
            "byteLength" : 27960,
            "byteOffset" : 343536,
            "target" : 34963
        },
        {
            "buffer" : 0,
            "byteLength" : 9816,
            "byteOffset" : 371496,
            "target" : 34962
        },
        {
            "buffer" : 0,
            "byteLength" : 9816,
            "byteOffset" : 381312,
            "target" : 34962
        },
        {
            "buffer" : 0,
            "byteLength" : 7932,
            "byteOffset" : 391128,
            "target" : 34963
        },
        {
            "buffer" : 0,
            "byteLength" : 3072,
            "byteOffset" : 399060,
            "target" : 34962
        },
        {
            "buffer" : 0,
            "byteLength" : 3072,
            "byteOffset" : 402132,
            "target" : 34962
        },
        {
            "buffer" : 0,
            "byteLength" : 768,
            "byteOffset" : 405204,
            "target" : 34963
        },
        {
            "buffer" : 0,
            "byteLength" : 10260,
            "byteOffset" : 405972,
            "target" : 34962
        },
        {
            "buffer" : 0,
            "byteLength" : 10260,
            "byteOffset" : 416232,
            "target" : 34962
        },
        {
            "buffer" : 0,
            "byteLength" : 7806,
            "byteOffset" : 426492,
            "target" : 34963
        }
    ],
    "buffers" : [
        {
            "byteLength" : 434300,
            "uri" : "data:application/octet-stream;base64,"
        }
    ]
}
