{
    "asset" : {
        "generator" : "Khronos glTF Blender I/O v3.3.27",
        "version" : "2.0"
    },
    "scene" : 0,
    "scenes" : [
        {
            "name" : "Scene",
            "nodes" : [
                0,
                1
            ]
        }
    ],
    "nodes" : [
        {
            "mesh" : 0,
            "name" : "Wall"
        },
        {
            "mesh" : 1,
            "name" : "Floor"
        }
    ],
    "meshes" : [
        {
            "name" : "Wall",
            "primitives" : [
                {
                    "attributes" : {
                        "POSITION" : 0,
                        "NORMAL" : 1
                    },
                    "indices" : 2
                }
            ]
        },
        {
            "name" : "Floor",
            "primitives" : [
                {
                    "attributes" : {
                        "POSITION" : 3,
                        "NORMAL" : 4
                    },
                    "indices" : 5
                }
            ]
        }
    ],
    "accessors" : [
        {
            "bufferView" : 0,
            "componentType" : 5126,
            "count" : 4403,
            "max" : [
                1153.0341796875,
                70.92098236083984,
                1.5084964036941528
            ],
            "min" : [
                -42.76150131225586,
                -40.00263595581055,
                -1373.1341552734375
            ],
            "type" : "VEC3"
        },
        {
            "bufferView" : 1,
            "componentType" : 5126,
            "count" : 4403,
            "type" : "VEC3"
        },
        {
            "bufferView" : 2,
            "componentType" : 5123,
            "count" : 7773,
            "type" : "SCALAR"
        },
        {
            "bufferView" : 3,
            "componentType" : 5126,
            "count" : 5578,
            "max" : [
                1158.402587890625,
                60.142642974853516,
                72.82887268066406
            ],
            "min" : [
                -44.260074615478516,
                -40.55508804321289,
                -1374.136962890625
            ],
            "type" : "VEC3"
        },
        {
            "bufferView" : 4,
            "componentType" : 5126,
            "count" : 5578,
            "type" : "VEC3"
        },
        {
            "bufferView" : 5,
            "componentType" : 5123,
            "count" : 24357,
            "type" : "SCALAR"
        }
    ],
    "bufferViews" : [
        {
            "buffer" : 0,
            "byteLength" : 52836,
            "byteOffset" : 0,
            "target" : 34962
        },
        {
            "buffer" : 0,
            "byteLength" : 52836,
            "byteOffset" : 52836,
            "target" : 34962
        },
        {
            "buffer" : 0,
            "byteLength" : 15546,
            "byteOffset" : 105672,
            "target" : 34963
        },
        {
            "buffer" : 0,
            "byteLength" : 66936,
            "byteOffset" : 121220,
            "target" : 34962
        },
        {
            "buffer" : 0,
            "byteLength" : 66936,
            "byteOffset" : 188156,
            "target" : 34962
        },
        {
            "buffer" : 0,
            "byteLength" : 48714,
            "byteOffset" : 255092,
            "target" : 34963
        }
    ],
    "buffers" : [
        {
            "byteLength" : 303808,
            "uri" : "data:application/octet-stream;base64,"
        }
    ]
}
