{
    "asset" : {
        "generator" : "Khronos glTF Blender I/O v1.8.19",
        "version" : "2.0"
    },
    "scene" : 0,
    "scenes" : [
        {
            "name" : "Scene",
            "nodes" : [
                6
            ]
        }
    ],
    "nodes" : [
        {
            "name" : "Wing02.R",
            "rotation" : [
                -0.48522672057151794,
                0.695010244846344,
                0.3068011403083801,
                0.43288442492485046
            ],
            "scale" : [
                1.0000001192092896,
                1.000000238418579,
                1
            ],
            "translation" : [
                -1.1455262693971235e-07,
                0.7251442670822144,
                -7.786547517873998e-10
            ]
        },
        {
            "children" : [
                0
            ],
            "name" : "Wing01.R",
            "rotation" : [
                0.3493979275226593,
                -0.161813884973526,
                0.38260790705680847,
                0.8398503065109253
            ],
            "scale" : [
                0.9999999403953552,
                1,
                0.9999999403953552
            ],
            "translation" : [
                -0.7160000801086426,
                0.04616254195570946,
                0.0461621917784214
            ]
        },
        {
            "name" : "Wing02.L",
            "rotation" : [
                -0.4852267801761627,
                -0.6950101852416992,
                -0.30680111050605774,
                0.43288445472717285
            ],
            "scale" : [
                1,
                1.000000238418579,
                0.9999999403953552
            ],
            "translation" : [
                -1.0643970682622239e-07,
                0.7251439690589905,
                -7.471300733641328e-08
            ]
        },
        {
            "children" : [
                2
            ],
            "name" : "Wing01.L",
            "rotation" : [
                0.3493979275226593,
                0.1618138700723648,
                -0.38260796666145325,
                0.8398503065109253
            ],
            "scale" : [
                1,
                1.0000001192092896,
                1.0000001192092896
            ],
            "translation" : [
                0.7160000205039978,
                0.04616253450512886,
                0.04616217687726021
            ]
        },
        {
            "children" : [
                1,
                3
            ],
            "name" : "Body",
            "rotation" : [
                -0.7071068286895752,
                -1.1520233300643667e-07,
                -1.1520233300643667e-07,
                0.7071068286895752
            ]
        },
        {
            "mesh" : 0,
            "name" : "FlyingPotMesh",
            "skin" : 0
        },
        {
            "children" : [
                5,
                4
            ],
            "name" : "FlyingPot"
        }
    ],
    "materials" : [
        {
            "doubleSided" : true,
            "name" : "Flying Pot",
            "pbrMetallicRoughness" : {
                "baseColorTexture" : {
                    "index" : 0
                },
                "metallicFactor" : 0
            }
        },
        {
            "doubleSided" : true,
            "name" : "Flying Pot Wing",
            "pbrMetallicRoughness" : {
                "baseColorTexture" : {
                    "index" : 1
                },
                "metallicFactor" : 0
            }
        }
    ],
    "meshes" : [
        {
            "name" : "FlyingPotMesh",
            "primitives" : [
                {
                    "attributes" : {
                        "POSITION" : 0,
                        "NORMAL" : 1,
                        "TEXCOORD_0" : 2,
                        "COLOR_0" : 3,
                        "JOINTS_0" : 4,
                        "WEIGHTS_0" : 5
                    },
                    "indices" : 6,
                    "material" : 0
                },
                {
                    "attributes" : {
                        "POSITION" : 7,
                        "NORMAL" : 8,
                        "TEXCOORD_0" : 9,
                        "COLOR_0" : 10,
                        "JOINTS_0" : 11,
                        "WEIGHTS_0" : 12
                    },
                    "indices" : 13,
                    "material" : 1
                }
            ]
        }
    ],
    "textures" : [
        {
            "sampler" : 0,
            "source" : 0
        },
        {
            "sampler" : 0,
            "source" : 1
        }
    ],
    "images" : [
        {
            "bufferView" : 7,
            "mimeType" : "image/png",
            "name" : "flying pot"
        },
        {
            "bufferView" : 15,
            "mimeType" : "image/png",
            "name" : "flying pot wing"
        }
    ],
    "skins" : [
        {
            "inverseBindMatrices" : 14,
            "joints" : [
                4,
                1,
                0,
                3,
                2
            ],
            "name" : "FlyingPot"
        }
    ],
    "accessors" : [
        {
            "bufferView" : 0,
            "componentType" : 5126,
            "count" : 373,
            "max" : [
                0.7071384191513062,
                0.8882260322570801,
                0.7071245908737183
            ],
            "min" : [
                -0.7071384787559509,
                -0.6940675377845764,
                -0.7071524858474731
            ],
            "type" : "VEC3"
        },
        {
            "bufferView" : 1,
            "componentType" : 5126,
            "count" : 373,
            "type" : "VEC3"
        },
        {
            "bufferView" : 2,
            "componentType" : 5126,
            "count" : 373,
            "type" : "VEC2"
        },
        {
            "bufferView" : 3,
            "componentType" : 5123,
            "count" : 373,
            "normalized" : true,
            "type" : "VEC4"
        },
        {
            "bufferView" : 4,
            "componentType" : 5121,
            "count" : 373,
            "type" : "VEC4"
        },
        {
            "bufferView" : 5,
            "componentType" : 5126,
            "count" : 373,
            "type" : "VEC4"
        },
        {
            "bufferView" : 6,
            "componentType" : 5123,
            "count" : 732,
            "type" : "SCALAR"
        },
        {
            "bufferView" : 8,
            "componentType" : 5126,
            "count" : 82,
            "max" : [
                2.2586894035339355,
                0.7121801376342773,
                0.06751830875873566
            ],
            "min" : [
                -2.2586894035339355,
                -0.10122400522232056,
                -0.06752336025238037
            ],
            "type" : "VEC3"
        },
        {
            "bufferView" : 9,
            "componentType" : 5126,
            "count" : 82,
            "type" : "VEC3"
        },
        {
            "bufferView" : 10,
            "componentType" : 5126,
            "count" : 82,
            "type" : "VEC2"
        },
        {
            "bufferView" : 11,
            "componentType" : 5123,
            "count" : 82,
            "normalized" : true,
            "type" : "VEC4"
        },
        {
            "bufferView" : 12,
            "componentType" : 5121,
            "count" : 82,
            "type" : "VEC4"
        },
        {
            "bufferView" : 13,
            "componentType" : 5126,
            "count" : 82,
            "type" : "VEC4"
        },
        {
            "bufferView" : 14,
            "componentType" : 5123,
            "count" : 414,
            "type" : "SCALAR"
        },
        {
            "bufferView" : 16,
            "componentType" : 5126,
            "count" : 5,
            "type" : "MAT4"
        }
    ],
    "bufferViews" : [
        {
            "buffer" : 0,
            "byteLength" : 4476,
            "byteOffset" : 0
        },
        {
            "buffer" : 0,
            "byteLength" : 4476,
            "byteOffset" : 4476
        },
        {
            "buffer" : 0,
            "byteLength" : 2984,
            "byteOffset" : 8952
        },
        {
            "buffer" : 0,
            "byteLength" : 2984,
            "byteOffset" : 11936
        },
        {
            "buffer" : 0,
            "byteLength" : 1492,
            "byteOffset" : 14920
        },
        {
            "buffer" : 0,
            "byteLength" : 5968,
            "byteOffset" : 16412
        },
        {
            "buffer" : 0,
            "byteLength" : 1464,
            "byteOffset" : 22380
        },
        {
            "buffer" : 0,
            "byteLength" : 19005,
            "byteOffset" : 23844
        },
        {
            "buffer" : 0,
            "byteLength" : 984,
            "byteOffset" : 42852
        },
        {
            "buffer" : 0,
            "byteLength" : 984,
            "byteOffset" : 43836
        },
        {
            "buffer" : 0,
            "byteLength" : 656,
            "byteOffset" : 44820
        },
        {
            "buffer" : 0,
            "byteLength" : 656,
            "byteOffset" : 45476
        },
        {
            "buffer" : 0,
            "byteLength" : 328,
            "byteOffset" : 46132
        },
        {
            "buffer" : 0,
            "byteLength" : 1312,
            "byteOffset" : 46460
        },
        {
            "buffer" : 0,
            "byteLength" : 828,
            "byteOffset" : 47772
        },
        {
            "buffer" : 0,
            "byteLength" : 13121,
            "byteOffset" : 48600
        },
        {
            "buffer" : 0,
            "byteLength" : 320,
            "byteOffset" : 61724
        }
    ],
    "samplers" : [
        {
            "magFilter" : 9729,
            "minFilter" : 9987
        }
    ],
    "buffers" : [
        {
            "byteLength" : 62044,
            "uri" : "data:application/octet-stream;base64,"
        }
    ]
}
