{
    "asset" : {
        "generator" : "Khronos glTF Blender I/O v3.4.50",
        "version" : "2.0"
    },
    "extensionsUsed" : [
        "KHR_materials_specular",
        "KHR_materials_ior"
    ],
    "scene" : 0,
    "scenes" : [
        {
            "name" : "Scene",
            "nodes" : [
                0
            ]
        }
    ],
    "nodes" : [
        {
            "mesh" : 0,
            "name" : "SickleChainMesh"
        }
    ],
    "materials" : [
        {
            "extensions" : {
                "KHR_materials_specular" : {
                    "specularColorFactor" : [
                        0,
                        0,
                        0
                    ]
                },
                "KHR_materials_ior" : {
                    "ior" : 1.4500000476837158
                }
            },
            "name" : "Sickle Chain",
            "pbrMetallicRoughness" : {
                "baseColorFactor" : [
                    0.800000011920929,
                    0.800000011920929,
                    0.800000011920929,
                    1
                ],
                "metallicFactor" : 0
            }
        }
    ],
    "meshes" : [
        {
            "name" : "SickleChainMesh",
            "primitives" : [
                {
                    "attributes" : {
                        "COLOR_0" : 0,
                        "POSITION" : 1,
                        "TEXCOORD_0" : 2,
                        "NORMAL" : 3
                    },
                    "indices" : 4,
                    "material" : 0
                }
            ]
        }
    ],
    "accessors" : [
        {
            "bufferView" : 0,
            "componentType" : 5123,
            "count" : 576,
            "normalized" : true,
            "type" : "VEC4"
        },
        {
            "bufferView" : 1,
            "componentType" : 5126,
            "count" : 576,
            "max" : [
                0.1811707615852356,
                0.13165134191513062,
                0.18117070198059082
            ],
            "min" : [
                -0.1811707615852356,
                -1.3511689901351929,
                -0.1811710000038147
            ],
            "type" : "VEC3"
        },
        {
            "bufferView" : 2,
            "componentType" : 5126,
            "count" : 576,
            "type" : "VEC2"
        },
        {
            "bufferView" : 3,
            "componentType" : 5126,
            "count" : 576,
            "type" : "VEC3"
        },
        {
            "bufferView" : 4,
            "componentType" : 5123,
            "count" : 576,
            "type" : "SCALAR"
        }
    ],
    "bufferViews" : [
        {
            "buffer" : 0,
            "byteLength" : 4608,
            "byteOffset" : 0,
            "target" : 34962
        },
        {
            "buffer" : 0,
            "byteLength" : 6912,
            "byteOffset" : 4608,
            "target" : 34962
        },
        {
            "buffer" : 0,
            "byteLength" : 4608,
            "byteOffset" : 11520,
            "target" : 34962
        },
        {
            "buffer" : 0,
            "byteLength" : 6912,
            "byteOffset" : 16128,
            "target" : 34962
        },
        {
            "buffer" : 0,
            "byteLength" : 1152,
            "byteOffset" : 23040,
            "target" : 34963
        }
    ],
    "buffers" : [
        {
            "byteLength" : 24192,
            "uri" : "data:application/octet-stream;base64,"
        }
    ]
}
