{
    "asset" : {
        "generator" : "Khronos glTF Blender I/O v1.7.30",
        "version" : "2.0"
    },
    "scene" : 0,
    "scenes" : [
        {
            "name" : "Scene",
            "nodes" : [
                0
            ]
        }
    ],
    "nodes" : [
        {
            "mesh" : 0,
            "name" : "Spring",
            "rotation" : [
                0.7071068286895752,
                0,
                0,
                0.7071068286895752
            ],
            "scale" : [
                0.10000002384185791,
                0.10000002384185791,
                0.10000002384185791
            ]
        }
    ],
    "materials" : [
        {
            "doubleSided" : true,
            "name" : "Panel",
            "pbrMetallicRoughness" : {
                "baseColorTexture" : {
                    "index" : 0
                },
                "metallicFactor" : 0
            }
        }
    ],
    "meshes" : [
        {
            "name" : "Spring",
            "primitives" : [
                {
                    "attributes" : {
                        "POSITION" : 0,
                        "NORMAL" : 1,
                        "TEXCOORD_0" : 2,
                        "COLOR_0" : 3
                    },
                    "indices" : 4,
                    "material" : 0
                }
            ]
        }
    ],
    "textures" : [
        {
            "sampler" : 0,
            "source" : 0
        }
    ],
    "images" : [
        {
            "bufferView" : 5,
            "mimeType" : "image/png",
            "name" : "plate"
        }
    ],
    "accessors" : [
        {
            "bufferView" : 0,
            "componentType" : 5126,
            "count" : 989,
            "max" : [
                6.497531890869141,
                6.497531890869141,
                1.3528673648834229
            ],
            "min" : [
                -6.497531890869141,
                -6.497531890869141,
                -8.50326156616211
            ],
            "type" : "VEC3"
        },
        {
            "bufferView" : 1,
            "componentType" : 5126,
            "count" : 989,
            "type" : "VEC3"
        },
        {
            "bufferView" : 2,
            "componentType" : 5126,
            "count" : 989,
            "type" : "VEC2"
        },
        {
            "bufferView" : 3,
            "componentType" : 5123,
            "count" : 989,
            "normalized" : true,
            "type" : "VEC4"
        },
        {
            "bufferView" : 4,
            "componentType" : 5123,
            "count" : 1422,
            "type" : "SCALAR"
        }
    ],
    "bufferViews" : [
        {
            "buffer" : 0,
            "byteLength" : 11868,
            "byteOffset" : 0
        },
        {
            "buffer" : 0,
            "byteLength" : 11868,
            "byteOffset" : 11868
        },
        {
            "buffer" : 0,
            "byteLength" : 7912,
            "byteOffset" : 23736
        },
        {
            "buffer" : 0,
            "byteLength" : 7912,
            "byteOffset" : 31648
        },
        {
            "buffer" : 0,
            "byteLength" : 2844,
            "byteOffset" : 39560
        },
        {
            "buffer" : 0,
            "byteLength" : 72031,
            "byteOffset" : 42404
        }
    ],
    "samplers" : [
        {
            "magFilter" : 9729,
            "minFilter" : 9987
        }
    ],
    "buffers" : [
        {
            "byteLength" : 114436,
            "uri" : "data:application/octet-stream;base64,"
        }
    ]
}
