{
    "asset" : {
        "generator" : "Khronos glTF Blender I/O v3.3.36",
        "version" : "2.0"
    },
    "scene" : 0,
    "scenes" : [
        {
            "name" : "Scene",
            "nodes" : [
                0,
                1
            ]
        }
    ],
    "nodes" : [
        {
            "mesh" : 0,
            "name" : "FallingScrapCollisionWall"
        },
        {
            "mesh" : 1,
            "name" : "FallingScrapCollisionFloor"
        }
    ],
    "meshes" : [
        {
            "name" : "FallingScrapMesh.002",
            "primitives" : [
                {
                    "attributes" : {
                        "POSITION" : 0,
                        "NORMAL" : 1
                    },
                    "indices" : 2
                }
            ]
        },
        {
            "name" : "FallingScrapMesh.003",
            "primitives" : [
                {
                    "attributes" : {
                        "POSITION" : 3,
                        "NORMAL" : 4
                    },
                    "indices" : 5
                }
            ]
        }
    ],
    "accessors" : [
        {
            "bufferView" : 0,
            "componentType" : 5126,
            "count" : 507,
            "max" : [
                3.2366981506347656,
                3.185140609741211,
                2.626521110534668
            ],
            "min" : [
                -3.237534999847412,
                -0.0024924874305725098,
                -2.6269938945770264
            ],
            "type" : "VEC3"
        },
        {
            "bufferView" : 1,
            "componentType" : 5126,
            "count" : 507,
            "type" : "VEC3"
        },
        {
            "bufferView" : 2,
            "componentType" : 5123,
            "count" : 759,
            "type" : "SCALAR"
        },
        {
            "bufferView" : 3,
            "componentType" : 5126,
            "count" : 127,
            "max" : [
                3.2366981506347656,
                2.7906601428985596,
                2.626521110534668
            ],
            "min" : [
                -3.237534999847412,
                1.1303249597549438,
                -2.6269938945770264
            ],
            "type" : "VEC3"
        },
        {
            "bufferView" : 4,
            "componentType" : 5126,
            "count" : 127,
            "type" : "VEC3"
        },
        {
            "bufferView" : 5,
            "componentType" : 5123,
            "count" : 189,
            "type" : "SCALAR"
        }
    ],
    "bufferViews" : [
        {
            "buffer" : 0,
            "byteLength" : 6084,
            "byteOffset" : 0,
            "target" : 34962
        },
        {
            "buffer" : 0,
            "byteLength" : 6084,
            "byteOffset" : 6084,
            "target" : 34962
        },
        {
            "buffer" : 0,
            "byteLength" : 1518,
            "byteOffset" : 12168,
            "target" : 34963
        },
        {
            "buffer" : 0,
            "byteLength" : 1524,
            "byteOffset" : 13688,
            "target" : 34962
        },
        {
            "buffer" : 0,
            "byteLength" : 1524,
            "byteOffset" : 15212,
            "target" : 34962
        },
        {
            "buffer" : 0,
            "byteLength" : 378,
            "byteOffset" : 16736,
            "target" : 34963
        }
    ],
    "buffers" : [
        {
            "byteLength" : 17116,
            "uri" : "data:application/octet-stream;base64,"
        }
    ]
}
