{
    "asset" : {
        "generator" : "Khronos glTF Blender I/O v3.3.36",
        "version" : "2.0"
    },
    "scene" : 0,
    "scenes" : [
        {
            "name" : "Scene",
            "nodes" : [
                0,
                1,
                2,
                3,
                4,
                5,
                6,
                7,
                8
            ]
        }
    ],
    "nodes" : [
        {
            "mesh" : 0,
            "name" : "FloorWood"
        },
        {
            "mesh" : 1,
            "name" : "FloorMetal"
        },
        {
            "mesh" : 2,
            "name" : "FloorRock"
        },
        {
            "mesh" : 3,
            "name" : "Wall"
        },
        {
            "mesh" : 4,
            "name" : "FloorPavement"
        },
        {
            "mesh" : 5,
            "name" : "FloorWater"
        },
        {
            "mesh" : 6,
            "name" : "OneWayWall"
        },
        {
            "mesh" : 7,
            "name" : "Ceiling"
        },
        {
            "mesh" : 8,
            "name" : "SpikeBallCollision"
        }
    ],
    "meshes" : [
        {
            "name" : "FloorWood",
            "primitives" : [
                {
                    "attributes" : {
                        "POSITION" : 0,
                        "NORMAL" : 1,
                        "TEXCOORD_0" : 2,
                        "COLOR_0" : 3
                    },
                    "indices" : 4
                }
            ]
        },
        {
            "name" : "FloorMetal",
            "primitives" : [
                {
                    "attributes" : {
                        "POSITION" : 5,
                        "NORMAL" : 6
                    },
                    "indices" : 7
                }
            ]
        },
        {
            "name" : "FloorRock",
            "primitives" : [
                {
                    "attributes" : {
                        "POSITION" : 8,
                        "NORMAL" : 9
                    },
                    "indices" : 10
                }
            ]
        },
        {
            "name" : "Wall",
            "primitives" : [
                {
                    "attributes" : {
                        "POSITION" : 11,
                        "NORMAL" : 12
                    },
                    "indices" : 13
                }
            ]
        },
        {
            "name" : "FloorPavement",
            "primitives" : [
                {
                    "attributes" : {
                        "POSITION" : 14,
                        "NORMAL" : 15
                    },
                    "indices" : 16
                }
            ]
        },
        {
            "name" : "FloorWater",
            "primitives" : [
                {
                    "attributes" : {
                        "POSITION" : 17,
                        "NORMAL" : 18
                    },
                    "indices" : 19
                }
            ]
        },
        {
            "name" : "OneWayWall",
            "primitives" : [
                {
                    "attributes" : {
                        "POSITION" : 20,
                        "NORMAL" : 21
                    },
                    "indices" : 22
                }
            ]
        },
        {
            "name" : "Ceiling",
            "primitives" : [
                {
                    "attributes" : {
                        "POSITION" : 23,
                        "NORMAL" : 24
                    },
                    "indices" : 25
                }
            ]
        },
        {
            "name" : "SpikeBallCollision",
            "primitives" : [
                {
                    "attributes" : {
                        "POSITION" : 26,
                        "NORMAL" : 27
                    },
                    "indices" : 28
                }
            ]
        }
    ],
    "accessors" : [
        {
            "bufferView" : 0,
            "componentType" : 5126,
            "count" : 2047,
            "max" : [
                51.791831970214844,
                79.98904418945312,
                1992.198486328125
            ],
            "min" : [
                -580.9692993164062,
                -8.765429496765137,
                -49.18463134765625
            ],
            "type" : "VEC3"
        },
        {
            "bufferView" : 1,
            "componentType" : 5126,
            "count" : 2047,
            "type" : "VEC3"
        },
        {
            "bufferView" : 2,
            "componentType" : 5126,
            "count" : 2047,
            "type" : "VEC2"
        },
        {
            "bufferView" : 3,
            "componentType" : 5123,
            "count" : 2047,
            "normalized" : true,
            "type" : "VEC4"
        },
        {
            "bufferView" : 4,
            "componentType" : 5123,
            "count" : 3075,
            "type" : "SCALAR"
        },
        {
            "bufferView" : 5,
            "componentType" : 5126,
            "count" : 611,
            "max" : [
                44.77284240722656,
                15.013026237487793,
                1990.91259765625
            ],
            "min" : [
                -578.9766235351562,
                -10.894536018371582,
                -49.18463134765625
            ],
            "type" : "VEC3"
        },
        {
            "bufferView" : 6,
            "componentType" : 5126,
            "count" : 611,
            "type" : "VEC3"
        },
        {
            "bufferView" : 7,
            "componentType" : 5123,
            "count" : 837,
            "type" : "SCALAR"
        },
        {
            "bufferView" : 8,
            "componentType" : 5126,
            "count" : 702,
            "max" : [
                18.23100471496582,
                3.110351800918579,
                2911.98876953125
            ],
            "min" : [
                -665.2033081054688,
                0.0600508488714695,
                413.638427734375
            ],
            "type" : "VEC3"
        },
        {
            "bufferView" : 9,
            "componentType" : 5126,
            "count" : 702,
            "type" : "VEC3"
        },
        {
            "bufferView" : 10,
            "componentType" : 5123,
            "count" : 750,
            "type" : "SCALAR"
        },
        {
            "bufferView" : 11,
            "componentType" : 5126,
            "count" : 4861,
            "max" : [
                46.999237060546875,
                138.35826110839844,
                2901.3701171875
            ],
            "min" : [
                -915.3234252929688,
                -10.894536972045898,
                -5.7868971824646
            ],
            "type" : "VEC3"
        },
        {
            "bufferView" : 12,
            "componentType" : 5126,
            "count" : 4861,
            "type" : "VEC3"
        },
        {
            "bufferView" : 13,
            "componentType" : 5123,
            "count" : 12459,
            "type" : "SCALAR"
        },
        {
            "bufferView" : 14,
            "componentType" : 5126,
            "count" : 675,
            "max" : [
                -81.2988510131836,
                40.5773811340332,
                1622.212646484375
            ],
            "min" : [
                -504.73944091796875,
                -3.0820062160491943,
                1550.3197021484375
            ],
            "type" : "VEC3"
        },
        {
            "bufferView" : 15,
            "componentType" : 5126,
            "count" : 675,
            "type" : "VEC3"
        },
        {
            "bufferView" : 16,
            "componentType" : 5123,
            "count" : 981,
            "type" : "SCALAR"
        },
        {
            "bufferView" : 17,
            "componentType" : 5126,
            "count" : 691,
            "max" : [
                -189.24957275390625,
                20.068635940551758,
                1620.903564453125
            ],
            "min" : [
                -459.801025390625,
                -4.693750381469727,
                1534.9752197265625
            ],
            "type" : "VEC3"
        },
        {
            "bufferView" : 18,
            "componentType" : 5126,
            "count" : 691,
            "type" : "VEC3"
        },
        {
            "bufferView" : 19,
            "componentType" : 5123,
            "count" : 1005,
            "type" : "SCALAR"
        },
        {
            "bufferView" : 20,
            "componentType" : 5126,
            "count" : 120,
            "max" : [
                38.85646438598633,
                138.35826110839844,
                2844.52880859375
            ],
            "min" : [
                -600.4417724609375,
                -10.894536972045898,
                290.8149719238281
            ],
            "type" : "VEC3"
        },
        {
            "bufferView" : 21,
            "componentType" : 5126,
            "count" : 120,
            "type" : "VEC3"
        },
        {
            "bufferView" : 22,
            "componentType" : 5123,
            "count" : 180,
            "type" : "SCALAR"
        },
        {
            "bufferView" : 23,
            "componentType" : 5126,
            "count" : 134,
            "max" : [
                -70.39508819580078,
                66.99981689453125,
                1351.857177734375
            ],
            "min" : [
                -128.88922119140625,
                17.701845169067383,
                1224.398193359375
            ],
            "type" : "VEC3"
        },
        {
            "bufferView" : 24,
            "componentType" : 5126,
            "count" : 134,
            "type" : "VEC3"
        },
        {
            "bufferView" : 25,
            "componentType" : 5123,
            "count" : 156,
            "type" : "SCALAR"
        },
        {
            "bufferView" : 26,
            "componentType" : 5126,
            "count" : 421,
            "max" : [
                -401.55889892578125,
                63.214988708496094,
                1617.493896484375
            ],
            "min" : [
                -505.31524658203125,
                17.890371322631836,
                1568.3958740234375
            ],
            "type" : "VEC3"
        },
        {
            "bufferView" : 27,
            "componentType" : 5126,
            "count" : 421,
            "type" : "VEC3"
        },
        {
            "bufferView" : 28,
            "componentType" : 5123,
            "count" : 1566,
            "type" : "SCALAR"
        }
    ],
    "bufferViews" : [
        {
            "buffer" : 0,
            "byteLength" : 24564,
            "byteOffset" : 0,
            "target" : 34962
        },
        {
            "buffer" : 0,
            "byteLength" : 24564,
            "byteOffset" : 24564,
            "target" : 34962
        },
        {
            "buffer" : 0,
            "byteLength" : 16376,
            "byteOffset" : 49128,
            "target" : 34962
        },
        {
            "buffer" : 0,
            "byteLength" : 16376,
            "byteOffset" : 65504,
            "target" : 34962
        },
        {
            "buffer" : 0,
            "byteLength" : 6150,
            "byteOffset" : 81880,
            "target" : 34963
        },
        {
            "buffer" : 0,
            "byteLength" : 7332,
            "byteOffset" : 88032,
            "target" : 34962
        },
        {
            "buffer" : 0,
            "byteLength" : 7332,
            "byteOffset" : 95364,
            "target" : 34962
        },
        {
            "buffer" : 0,
            "byteLength" : 1674,
            "byteOffset" : 102696,
            "target" : 34963
        },
        {
            "buffer" : 0,
            "byteLength" : 8424,
            "byteOffset" : 104372,
            "target" : 34962
        },
        {
            "buffer" : 0,
            "byteLength" : 8424,
            "byteOffset" : 112796,
            "target" : 34962
        },
        {
            "buffer" : 0,
            "byteLength" : 1500,
            "byteOffset" : 121220,
            "target" : 34963
        },
        {
            "buffer" : 0,
            "byteLength" : 58332,
            "byteOffset" : 122720,
            "target" : 34962
        },
        {
            "buffer" : 0,
            "byteLength" : 58332,
            "byteOffset" : 181052,
            "target" : 34962
        },
        {
            "buffer" : 0,
            "byteLength" : 24918,
            "byteOffset" : 239384,
            "target" : 34963
        },
        {
            "buffer" : 0,
            "byteLength" : 8100,
            "byteOffset" : 264304,
            "target" : 34962
        },
        {
            "buffer" : 0,
            "byteLength" : 8100,
            "byteOffset" : 272404,
            "target" : 34962
        },
        {
            "buffer" : 0,
            "byteLength" : 1962,
            "byteOffset" : 280504,
            "target" : 34963
        },
        {
            "buffer" : 0,
            "byteLength" : 8292,
            "byteOffset" : 282468,
            "target" : 34962
        },
        {
            "buffer" : 0,
            "byteLength" : 8292,
            "byteOffset" : 290760,
            "target" : 34962
        },
        {
            "buffer" : 0,
            "byteLength" : 2010,
            "byteOffset" : 299052,
            "target" : 34963
        },
        {
            "buffer" : 0,
            "byteLength" : 1440,
            "byteOffset" : 301064,
            "target" : 34962
        },
        {
            "buffer" : 0,
            "byteLength" : 1440,
            "byteOffset" : 302504,
            "target" : 34962
        },
        {
            "buffer" : 0,
            "byteLength" : 360,
            "byteOffset" : 303944,
            "target" : 34963
        },
        {
            "buffer" : 0,
            "byteLength" : 1608,
            "byteOffset" : 304304,
            "target" : 34962
        },
        {
            "buffer" : 0,
            "byteLength" : 1608,
            "byteOffset" : 305912,
            "target" : 34962
        },
        {
            "buffer" : 0,
            "byteLength" : 312,
            "byteOffset" : 307520,
            "target" : 34963
        },
        {
            "buffer" : 0,
            "byteLength" : 5052,
            "byteOffset" : 307832,
            "target" : 34962
        },
        {
            "buffer" : 0,
            "byteLength" : 5052,
            "byteOffset" : 312884,
            "target" : 34962
        },
        {
            "buffer" : 0,
            "byteLength" : 3132,
            "byteOffset" : 317936,
            "target" : 34963
        }
    ],
    "buffers" : [
        {
            "byteLength" : 321068,
            "uri" : "data:application/octet-stream;base64,"
        }
    ]
}
