{
    "asset" : {
        "generator" : "Khronos glTF Blender I/O v3.3.36",
        "version" : "2.0"
    },
    "scene" : 0,
    "scenes" : [
        {
            "name" : "Scene",
            "nodes" : [
                0,
                1,
                2,
                3,
                4,
                5,
                6,
                7
            ]
        }
    ],
    "nodes" : [
        {
            "mesh" : 0,
            "name" : "FloorWood"
        },
        {
            "mesh" : 1,
            "name" : "FloorMetal"
        },
        {
            "mesh" : 2,
            "name" : "FloorRock"
        },
        {
            "mesh" : 3,
            "name" : "Wall"
        },
        {
            "mesh" : 4,
            "name" : "FloorPavement"
        },
        {
            "mesh" : 5,
            "name" : "FloorWater"
        },
        {
            "mesh" : 6,
            "name" : "OneWayWall"
        },
        {
            "mesh" : 7,
            "name" : "Ceiling"
        }
    ],
    "meshes" : [
        {
            "name" : "FloorWood",
            "primitives" : [
                {
                    "attributes" : {
                        "POSITION" : 0,
                        "NORMAL" : 1
                    },
                    "indices" : 2
                }
            ]
        },
        {
            "name" : "FloorMetal",
            "primitives" : [
                {
                    "attributes" : {
                        "POSITION" : 3,
                        "NORMAL" : 4
                    },
                    "indices" : 5
                }
            ]
        },
        {
            "name" : "FloorRock",
            "primitives" : [
                {
                    "attributes" : {
                        "POSITION" : 6,
                        "NORMAL" : 7
                    },
                    "indices" : 8
                }
            ]
        },
        {
            "name" : "Wall",
            "primitives" : [
                {
                    "attributes" : {
                        "POSITION" : 9,
                        "NORMAL" : 10
                    },
                    "indices" : 11
                }
            ]
        },
        {
            "name" : "FloorPavement",
            "primitives" : [
                {
                    "attributes" : {
                        "POSITION" : 12,
                        "NORMAL" : 13
                    },
                    "indices" : 14
                }
            ]
        },
        {
            "name" : "FloorWater",
            "primitives" : [
                {
                    "attributes" : {
                        "POSITION" : 15,
                        "NORMAL" : 16
                    },
                    "indices" : 17
                }
            ]
        },
        {
            "name" : "OneWayWall",
            "primitives" : [
                {
                    "attributes" : {
                        "POSITION" : 18,
                        "NORMAL" : 19
                    },
                    "indices" : 20
                }
            ]
        },
        {
            "name" : "Ceiling",
            "primitives" : [
                {
                    "attributes" : {
                        "POSITION" : 21,
                        "NORMAL" : 22
                    },
                    "indices" : 23
                }
            ]
        }
    ],
    "accessors" : [
        {
            "bufferView" : 0,
            "componentType" : 5126,
            "count" : 2006,
            "max" : [
                51.791831970214844,
                79.98904418945312,
                1992.198486328125
            ],
            "min" : [
                -580.9692993164062,
                -8.765429496765137,
                -49.18463134765625
            ],
            "type" : "VEC3"
        },
        {
            "bufferView" : 1,
            "componentType" : 5126,
            "count" : 2006,
            "type" : "VEC3"
        },
        {
            "bufferView" : 2,
            "componentType" : 5123,
            "count" : 2958,
            "type" : "SCALAR"
        },
        {
            "bufferView" : 3,
            "componentType" : 5126,
            "count" : 611,
            "max" : [
                44.77284240722656,
                15.013026237487793,
                1990.91259765625
            ],
            "min" : [
                -578.9766235351562,
                -10.894536018371582,
                -49.18463134765625
            ],
            "type" : "VEC3"
        },
        {
            "bufferView" : 4,
            "componentType" : 5126,
            "count" : 611,
            "type" : "VEC3"
        },
        {
            "bufferView" : 5,
            "componentType" : 5123,
            "count" : 837,
            "type" : "SCALAR"
        },
        {
            "bufferView" : 6,
            "componentType" : 5126,
            "count" : 702,
            "max" : [
                18.23100471496582,
                3.110351800918579,
                2911.98876953125
            ],
            "min" : [
                -665.2033081054688,
                0.0600508488714695,
                413.638427734375
            ],
            "type" : "VEC3"
        },
        {
            "bufferView" : 7,
            "componentType" : 5126,
            "count" : 702,
            "type" : "VEC3"
        },
        {
            "bufferView" : 8,
            "componentType" : 5123,
            "count" : 750,
            "type" : "SCALAR"
        },
        {
            "bufferView" : 9,
            "componentType" : 5126,
            "count" : 4740,
            "max" : [
                47.54523849487305,
                138.35826110839844,
                2901.3701171875
            ],
            "min" : [
                -915.3234252929688,
                -10.894536972045898,
                -5.7868971824646
            ],
            "type" : "VEC3"
        },
        {
            "bufferView" : 10,
            "componentType" : 5126,
            "count" : 4740,
            "type" : "VEC3"
        },
        {
            "bufferView" : 11,
            "componentType" : 5123,
            "count" : 12240,
            "type" : "SCALAR"
        },
        {
            "bufferView" : 12,
            "componentType" : 5126,
            "count" : 675,
            "max" : [
                -81.2988510131836,
                40.5773811340332,
                1622.212646484375
            ],
            "min" : [
                -504.73944091796875,
                -3.0820062160491943,
                1550.3197021484375
            ],
            "type" : "VEC3"
        },
        {
            "bufferView" : 13,
            "componentType" : 5126,
            "count" : 675,
            "type" : "VEC3"
        },
        {
            "bufferView" : 14,
            "componentType" : 5123,
            "count" : 981,
            "type" : "SCALAR"
        },
        {
            "bufferView" : 15,
            "componentType" : 5126,
            "count" : 691,
            "max" : [
                -189.24957275390625,
                20.068635940551758,
                1620.903564453125
            ],
            "min" : [
                -459.801025390625,
                -4.693750381469727,
                1534.9752197265625
            ],
            "type" : "VEC3"
        },
        {
            "bufferView" : 16,
            "componentType" : 5126,
            "count" : 691,
            "type" : "VEC3"
        },
        {
            "bufferView" : 17,
            "componentType" : 5123,
            "count" : 1005,
            "type" : "SCALAR"
        },
        {
            "bufferView" : 18,
            "componentType" : 5126,
            "count" : 80,
            "max" : [
                -62.86244583129883,
                138.35826110839844,
                2844.52880859375
            ],
            "min" : [
                -600.4417724609375,
                -2.4145545959472656,
                1168.35986328125
            ],
            "type" : "VEC3"
        },
        {
            "bufferView" : 19,
            "componentType" : 5126,
            "count" : 80,
            "type" : "VEC3"
        },
        {
            "bufferView" : 20,
            "componentType" : 5123,
            "count" : 120,
            "type" : "SCALAR"
        },
        {
            "bufferView" : 21,
            "componentType" : 5126,
            "count" : 134,
            "max" : [
                -70.39508819580078,
                66.99981689453125,
                1351.857177734375
            ],
            "min" : [
                -128.88922119140625,
                17.701845169067383,
                1224.398193359375
            ],
            "type" : "VEC3"
        },
        {
            "bufferView" : 22,
            "componentType" : 5126,
            "count" : 134,
            "type" : "VEC3"
        },
        {
            "bufferView" : 23,
            "componentType" : 5123,
            "count" : 156,
            "type" : "SCALAR"
        }
    ],
    "bufferViews" : [
        {
            "buffer" : 0,
            "byteLength" : 24072,
            "byteOffset" : 0,
            "target" : 34962
        },
        {
            "buffer" : 0,
            "byteLength" : 24072,
            "byteOffset" : 24072,
            "target" : 34962
        },
        {
            "buffer" : 0,
            "byteLength" : 5916,
            "byteOffset" : 48144,
            "target" : 34963
        },
        {
            "buffer" : 0,
            "byteLength" : 7332,
            "byteOffset" : 54060,
            "target" : 34962
        },
        {
            "buffer" : 0,
            "byteLength" : 7332,
            "byteOffset" : 61392,
            "target" : 34962
        },
        {
            "buffer" : 0,
            "byteLength" : 1674,
            "byteOffset" : 68724,
            "target" : 34963
        },
        {
            "buffer" : 0,
            "byteLength" : 8424,
            "byteOffset" : 70400,
            "target" : 34962
        },
        {
            "buffer" : 0,
            "byteLength" : 8424,
            "byteOffset" : 78824,
            "target" : 34962
        },
        {
            "buffer" : 0,
            "byteLength" : 1500,
            "byteOffset" : 87248,
            "target" : 34963
        },
        {
            "buffer" : 0,
            "byteLength" : 56880,
            "byteOffset" : 88748,
            "target" : 34962
        },
        {
            "buffer" : 0,
            "byteLength" : 56880,
            "byteOffset" : 145628,
            "target" : 34962
        },
        {
            "buffer" : 0,
            "byteLength" : 24480,
            "byteOffset" : 202508,
            "target" : 34963
        },
        {
            "buffer" : 0,
            "byteLength" : 8100,
            "byteOffset" : 226988,
            "target" : 34962
        },
        {
            "buffer" : 0,
            "byteLength" : 8100,
            "byteOffset" : 235088,
            "target" : 34962
        },
        {
            "buffer" : 0,
            "byteLength" : 1962,
            "byteOffset" : 243188,
            "target" : 34963
        },
        {
            "buffer" : 0,
            "byteLength" : 8292,
            "byteOffset" : 245152,
            "target" : 34962
        },
        {
            "buffer" : 0,
            "byteLength" : 8292,
            "byteOffset" : 253444,
            "target" : 34962
        },
        {
            "buffer" : 0,
            "byteLength" : 2010,
            "byteOffset" : 261736,
            "target" : 34963
        },
        {
            "buffer" : 0,
            "byteLength" : 960,
            "byteOffset" : 263748,
            "target" : 34962
        },
        {
            "buffer" : 0,
            "byteLength" : 960,
            "byteOffset" : 264708,
            "target" : 34962
        },
        {
            "buffer" : 0,
            "byteLength" : 240,
            "byteOffset" : 265668,
            "target" : 34963
        },
        {
            "buffer" : 0,
            "byteLength" : 1608,
            "byteOffset" : 265908,
            "target" : 34962
        },
        {
            "buffer" : 0,
            "byteLength" : 1608,
            "byteOffset" : 267516,
            "target" : 34962
        },
        {
            "buffer" : 0,
            "byteLength" : 312,
            "byteOffset" : 269124,
            "target" : 34963
        }
    ],
    "buffers" : [
        {
            "byteLength" : 269436,
            "uri" : "data:application/octet-stream;base64,"
        }
    ]
}
