{
    "asset" : {
        "generator" : "Khronos glTF Blender I/O v3.3.36",
        "version" : "2.0"
    },
    "scene" : 0,
    "scenes" : [
        {
            "name" : "Scene",
            "nodes" : [
                0,
                1,
                2,
                3,
                4,
                5,
                6,
                7,
                8,
                9
            ]
        }
    ],
    "nodes" : [
        {
            "mesh" : 0,
            "name" : "FloorWood"
        },
        {
            "mesh" : 1,
            "name" : "FloorMetal"
        },
        {
            "mesh" : 2,
            "name" : "FloorRock"
        },
        {
            "mesh" : 3,
            "name" : "Wall"
        },
        {
            "mesh" : 4,
            "name" : "FloorPavement"
        },
        {
            "mesh" : 5,
            "name" : "FloorWater"
        },
        {
            "mesh" : 6,
            "name" : "OneWayWall"
        },
        {
            "mesh" : 7,
            "name" : "Ceiling"
        },
        {
            "mesh" : 8,
            "name" : "SpikeBallCollision"
        },
        {
            "mesh" : 9,
            "name" : "GrindOneWayWall"
        }
    ],
    "meshes" : [
        {
            "name" : "FloorWood",
            "primitives" : [
                {
                    "attributes" : {
                        "POSITION" : 0,
                        "NORMAL" : 1,
                        "TEXCOORD_0" : 2,
                        "COLOR_0" : 3
                    },
                    "indices" : 4
                }
            ]
        },
        {
            "name" : "FloorMetal",
            "primitives" : [
                {
                    "attributes" : {
                        "POSITION" : 5,
                        "NORMAL" : 6
                    },
                    "indices" : 7
                }
            ]
        },
        {
            "name" : "FloorRock",
            "primitives" : [
                {
                    "attributes" : {
                        "POSITION" : 8,
                        "NORMAL" : 9
                    },
                    "indices" : 10
                }
            ]
        },
        {
            "name" : "Wall",
            "primitives" : [
                {
                    "attributes" : {
                        "POSITION" : 11,
                        "NORMAL" : 12
                    },
                    "indices" : 13
                }
            ]
        },
        {
            "name" : "FloorPavement",
            "primitives" : [
                {
                    "attributes" : {
                        "POSITION" : 14,
                        "NORMAL" : 15
                    },
                    "indices" : 16
                }
            ]
        },
        {
            "name" : "FloorWater",
            "primitives" : [
                {
                    "attributes" : {
                        "POSITION" : 17,
                        "NORMAL" : 18
                    },
                    "indices" : 19
                }
            ]
        },
        {
            "name" : "OneWayWall",
            "primitives" : [
                {
                    "attributes" : {
                        "POSITION" : 20,
                        "NORMAL" : 21
                    },
                    "indices" : 22
                }
            ]
        },
        {
            "name" : "Ceiling",
            "primitives" : [
                {
                    "attributes" : {
                        "POSITION" : 23,
                        "NORMAL" : 24
                    },
                    "indices" : 25
                }
            ]
        },
        {
            "name" : "SpikeBallCollision",
            "primitives" : [
                {
                    "attributes" : {
                        "POSITION" : 26,
                        "NORMAL" : 27
                    },
                    "indices" : 28
                }
            ]
        },
        {
            "name" : "GrindOneWayWall",
            "primitives" : [
                {
                    "attributes" : {
                        "POSITION" : 29,
                        "NORMAL" : 30
                    },
                    "indices" : 31
                }
            ]
        }
    ],
    "accessors" : [
        {
            "bufferView" : 0,
            "componentType" : 5126,
            "count" : 2063,
            "max" : [
                51.791831970214844,
                79.98904418945312,
                1992.198486328125
            ],
            "min" : [
                -580.9692993164062,
                -8.765429496765137,
                -49.18463134765625
            ],
            "type" : "VEC3"
        },
        {
            "bufferView" : 1,
            "componentType" : 5126,
            "count" : 2063,
            "type" : "VEC3"
        },
        {
            "bufferView" : 2,
            "componentType" : 5126,
            "count" : 2063,
            "type" : "VEC2"
        },
        {
            "bufferView" : 3,
            "componentType" : 5123,
            "count" : 2063,
            "normalized" : true,
            "type" : "VEC4"
        },
        {
            "bufferView" : 4,
            "componentType" : 5123,
            "count" : 3099,
            "type" : "SCALAR"
        },
        {
            "bufferView" : 5,
            "componentType" : 5126,
            "count" : 611,
            "max" : [
                44.77284240722656,
                15.013026237487793,
                1990.91259765625
            ],
            "min" : [
                -578.9766235351562,
                -10.894536018371582,
                -49.18463134765625
            ],
            "type" : "VEC3"
        },
        {
            "bufferView" : 6,
            "componentType" : 5126,
            "count" : 611,
            "type" : "VEC3"
        },
        {
            "bufferView" : 7,
            "componentType" : 5123,
            "count" : 837,
            "type" : "SCALAR"
        },
        {
            "bufferView" : 8,
            "componentType" : 5126,
            "count" : 702,
            "max" : [
                18.23100471496582,
                3.110351800918579,
                2911.98876953125
            ],
            "min" : [
                -665.2033081054688,
                0.0600508488714695,
                413.638427734375
            ],
            "type" : "VEC3"
        },
        {
            "bufferView" : 9,
            "componentType" : 5126,
            "count" : 702,
            "type" : "VEC3"
        },
        {
            "bufferView" : 10,
            "componentType" : 5123,
            "count" : 750,
            "type" : "SCALAR"
        },
        {
            "bufferView" : 11,
            "componentType" : 5126,
            "count" : 4944,
            "max" : [
                46.999237060546875,
                138.35826110839844,
                2901.3701171875
            ],
            "min" : [
                -915.3234252929688,
                -10.894536972045898,
                -5.7868971824646
            ],
            "type" : "VEC3"
        },
        {
            "bufferView" : 12,
            "componentType" : 5126,
            "count" : 4944,
            "type" : "VEC3"
        },
        {
            "bufferView" : 13,
            "componentType" : 5123,
            "count" : 12651,
            "type" : "SCALAR"
        },
        {
            "bufferView" : 14,
            "componentType" : 5126,
            "count" : 675,
            "max" : [
                -81.2988510131836,
                40.5773811340332,
                1622.212646484375
            ],
            "min" : [
                -504.73944091796875,
                -3.0820062160491943,
                1550.3197021484375
            ],
            "type" : "VEC3"
        },
        {
            "bufferView" : 15,
            "componentType" : 5126,
            "count" : 675,
            "type" : "VEC3"
        },
        {
            "bufferView" : 16,
            "componentType" : 5123,
            "count" : 981,
            "type" : "SCALAR"
        },
        {
            "bufferView" : 17,
            "componentType" : 5126,
            "count" : 691,
            "max" : [
                -189.24957275390625,
                20.068635940551758,
                1620.903564453125
            ],
            "min" : [
                -459.801025390625,
                -4.693750381469727,
                1534.9752197265625
            ],
            "type" : "VEC3"
        },
        {
            "bufferView" : 18,
            "componentType" : 5126,
            "count" : 691,
            "type" : "VEC3"
        },
        {
            "bufferView" : 19,
            "componentType" : 5123,
            "count" : 1005,
            "type" : "SCALAR"
        },
        {
            "bufferView" : 20,
            "componentType" : 5126,
            "count" : 120,
            "max" : [
                38.85646438598633,
                138.35826110839844,
                2844.52880859375
            ],
            "min" : [
                -600.4417724609375,
                -10.894536972045898,
                290.8149719238281
            ],
            "type" : "VEC3"
        },
        {
            "bufferView" : 21,
            "componentType" : 5126,
            "count" : 120,
            "type" : "VEC3"
        },
        {
            "bufferView" : 22,
            "componentType" : 5123,
            "count" : 180,
            "type" : "SCALAR"
        },
        {
            "bufferView" : 23,
            "componentType" : 5126,
            "count" : 134,
            "max" : [
                -70.39508819580078,
                66.99981689453125,
                1351.857177734375
            ],
            "min" : [
                -128.88922119140625,
                17.701845169067383,
                1224.398193359375
            ],
            "type" : "VEC3"
        },
        {
            "bufferView" : 24,
            "componentType" : 5126,
            "count" : 134,
            "type" : "VEC3"
        },
        {
            "bufferView" : 25,
            "componentType" : 5123,
            "count" : 156,
            "type" : "SCALAR"
        },
        {
            "bufferView" : 26,
            "componentType" : 5126,
            "count" : 575,
            "max" : [
                -401.55889892578125,
                63.214988708496094,
                2914.453857421875
            ],
            "min" : [
                -668.5767822265625,
                -2.051802396774292,
                1568.3958740234375
            ],
            "type" : "VEC3"
        },
        {
            "bufferView" : 27,
            "componentType" : 5126,
            "count" : 575,
            "type" : "VEC3"
        },
        {
            "bufferView" : 28,
            "componentType" : 5123,
            "count" : 2271,
            "type" : "SCALAR"
        },
        {
            "bufferView" : 29,
            "componentType" : 5126,
            "count" : 8,
            "max" : [
                -522.6966552734375,
                74.7612075805664,
                1666.3857421875
            ],
            "min" : [
                -524.6174926757812,
                10.12087631225586,
                1662.06591796875
            ],
            "type" : "VEC3"
        },
        {
            "bufferView" : 30,
            "componentType" : 5126,
            "count" : 8,
            "type" : "VEC3"
        },
        {
            "bufferView" : 31,
            "componentType" : 5123,
            "count" : 12,
            "type" : "SCALAR"
        }
    ],
    "bufferViews" : [
        {
            "buffer" : 0,
            "byteLength" : 24756,
            "byteOffset" : 0,
            "target" : 34962
        },
        {
            "buffer" : 0,
            "byteLength" : 24756,
            "byteOffset" : 24756,
            "target" : 34962
        },
        {
            "buffer" : 0,
            "byteLength" : 16504,
            "byteOffset" : 49512,
            "target" : 34962
        },
        {
            "buffer" : 0,
            "byteLength" : 16504,
            "byteOffset" : 66016,
            "target" : 34962
        },
        {
            "buffer" : 0,
            "byteLength" : 6198,
            "byteOffset" : 82520,
            "target" : 34963
        },
        {
            "buffer" : 0,
            "byteLength" : 7332,
            "byteOffset" : 88720,
            "target" : 34962
        },
        {
            "buffer" : 0,
            "byteLength" : 7332,
            "byteOffset" : 96052,
            "target" : 34962
        },
        {
            "buffer" : 0,
            "byteLength" : 1674,
            "byteOffset" : 103384,
            "target" : 34963
        },
        {
            "buffer" : 0,
            "byteLength" : 8424,
            "byteOffset" : 105060,
            "target" : 34962
        },
        {
            "buffer" : 0,
            "byteLength" : 8424,
            "byteOffset" : 113484,
            "target" : 34962
        },
        {
            "buffer" : 0,
            "byteLength" : 1500,
            "byteOffset" : 121908,
            "target" : 34963
        },
        {
            "buffer" : 0,
            "byteLength" : 59328,
            "byteOffset" : 123408,
            "target" : 34962
        },
        {
            "buffer" : 0,
            "byteLength" : 59328,
            "byteOffset" : 182736,
            "target" : 34962
        },
        {
            "buffer" : 0,
            "byteLength" : 25302,
            "byteOffset" : 242064,
            "target" : 34963
        },
        {
            "buffer" : 0,
            "byteLength" : 8100,
            "byteOffset" : 267368,
            "target" : 34962
        },
        {
            "buffer" : 0,
            "byteLength" : 8100,
            "byteOffset" : 275468,
            "target" : 34962
        },
        {
            "buffer" : 0,
            "byteLength" : 1962,
            "byteOffset" : 283568,
            "target" : 34963
        },
        {
            "buffer" : 0,
            "byteLength" : 8292,
            "byteOffset" : 285532,
            "target" : 34962
        },
        {
            "buffer" : 0,
            "byteLength" : 8292,
            "byteOffset" : 293824,
            "target" : 34962
        },
        {
            "buffer" : 0,
            "byteLength" : 2010,
            "byteOffset" : 302116,
            "target" : 34963
        },
        {
            "buffer" : 0,
            "byteLength" : 1440,
            "byteOffset" : 304128,
            "target" : 34962
        },
        {
            "buffer" : 0,
            "byteLength" : 1440,
            "byteOffset" : 305568,
            "target" : 34962
        },
        {
            "buffer" : 0,
            "byteLength" : 360,
            "byteOffset" : 307008,
            "target" : 34963
        },
        {
            "buffer" : 0,
            "byteLength" : 1608,
            "byteOffset" : 307368,
            "target" : 34962
        },
        {
            "buffer" : 0,
            "byteLength" : 1608,
            "byteOffset" : 308976,
            "target" : 34962
        },
        {
            "buffer" : 0,
            "byteLength" : 312,
            "byteOffset" : 310584,
            "target" : 34963
        },
        {
            "buffer" : 0,
            "byteLength" : 6900,
            "byteOffset" : 310896,
            "target" : 34962
        },
        {
            "buffer" : 0,
            "byteLength" : 6900,
            "byteOffset" : 317796,
            "target" : 34962
        },
        {
            "buffer" : 0,
            "byteLength" : 4542,
            "byteOffset" : 324696,
            "target" : 34963
        },
        {
            "buffer" : 0,
            "byteLength" : 96,
            "byteOffset" : 329240,
            "target" : 34962
        },
        {
            "buffer" : 0,
            "byteLength" : 96,
            "byteOffset" : 329336,
            "target" : 34962
        },
        {
            "buffer" : 0,
            "byteLength" : 24,
            "byteOffset" : 329432,
            "target" : 34963
        }
    ],
    "buffers" : [
        {
            "byteLength" : 329456,
            "uri" : "data:application/octet-stream;base64,"
        }
    ]
}
