{
    "asset" : {
        "generator" : "Khronos glTF Blender I/O v3.3.36",
        "version" : "2.0"
    },
    "extensionsUsed" : [
        "KHR_materials_specular",
        "KHR_materials_ior"
    ],
    "scene" : 0,
    "scenes" : [
        {
            "name" : "Scene",
            "nodes" : [
                0,
                1,
                2
            ]
        }
    ],
    "nodes" : [
        {
            "mesh" : 0,
            "name" : "PlatformExteriorEndMesh"
        },
        {
            "mesh" : 1,
            "name" : "PlatformExteriorEndFloorCollision"
        },
        {
            "mesh" : 2,
            "name" : "PlatformExteriorEndWallCollision"
        }
    ],
    "materials" : [
        {
            "extensions" : {
                "KHR_materials_specular" : {
                    "specularColorFactor" : [
                        0,
                        0,
                        0
                    ]
                },
                "KHR_materials_ior" : {
                    "ior" : 1.4500000476837158
                }
            },
            "name" : "Bone Orange",
            "pbrMetallicRoughness" : {
                "baseColorFactor" : [
                    0.800000011920929,
                    0.800000011920929,
                    0.800000011920929,
                    1
                ],
                "metallicFactor" : 0
            }
        },
        {
            "extensions" : {
                "KHR_materials_specular" : {
                    "specularColorFactor" : [
                        0,
                        0,
                        0
                    ]
                },
                "KHR_materials_ior" : {
                    "ior" : 1.4500000476837158
                }
            },
            "name" : "Bone Teeth",
            "pbrMetallicRoughness" : {
                "baseColorFactor" : [
                    0.800000011920929,
                    0.800000011920929,
                    0.800000011920929,
                    1
                ],
                "metallicFactor" : 0
            }
        },
        {
            "extensions" : {
                "KHR_materials_specular" : {
                    "specularColorFactor" : [
                        0,
                        0,
                        0
                    ]
                },
                "KHR_materials_ior" : {
                    "ior" : 1.4500000476837158
                }
            },
            "name" : "Bone Wood",
            "pbrMetallicRoughness" : {
                "baseColorFactor" : [
                    0.800000011920929,
                    0.800000011920929,
                    0.800000011920929,
                    1
                ],
                "metallicFactor" : 0
            }
        }
    ],
    "meshes" : [
        {
            "name" : "PlatformExteriorEndMesh",
            "primitives" : [
                {
                    "attributes" : {
                        "POSITION" : 0,
                        "NORMAL" : 1,
                        "TEXCOORD_0" : 2,
                        "COLOR_0" : 3
                    },
                    "indices" : 4,
                    "material" : 0
                },
                {
                    "attributes" : {
                        "POSITION" : 5,
                        "NORMAL" : 6,
                        "TEXCOORD_0" : 7,
                        "COLOR_0" : 8
                    },
                    "indices" : 9,
                    "material" : 1
                },
                {
                    "attributes" : {
                        "POSITION" : 10,
                        "NORMAL" : 11,
                        "TEXCOORD_0" : 12,
                        "COLOR_0" : 13
                    },
                    "indices" : 14,
                    "material" : 2
                }
            ]
        },
        {
            "name" : "PlatformExteriorEndFloorCollision",
            "primitives" : [
                {
                    "attributes" : {
                        "POSITION" : 15,
                        "NORMAL" : 16,
                        "TEXCOORD_0" : 17
                    },
                    "indices" : 18
                }
            ]
        },
        {
            "name" : "PlatformExteriorEndWallCollision",
            "primitives" : [
                {
                    "attributes" : {
                        "POSITION" : 19,
                        "NORMAL" : 20,
                        "TEXCOORD_0" : 21
                    },
                    "indices" : 22
                }
            ]
        }
    ],
    "accessors" : [
        {
            "bufferView" : 0,
            "componentType" : 5126,
            "count" : 1836,
            "max" : [
                1.4732245206832886,
                1.0715234279632568,
                2.6017653942108154
            ],
            "min" : [
                -1.4726626873016357,
                -1.048032283782959,
                -2.6017651557922363
            ],
            "type" : "VEC3"
        },
        {
            "bufferView" : 1,
            "componentType" : 5126,
            "count" : 1836,
            "type" : "VEC3"
        },
        {
            "bufferView" : 2,
            "componentType" : 5126,
            "count" : 1836,
            "type" : "VEC2"
        },
        {
            "bufferView" : 3,
            "componentType" : 5123,
            "count" : 1836,
            "normalized" : true,
            "type" : "VEC4"
        },
        {
            "bufferView" : 4,
            "componentType" : 5123,
            "count" : 1836,
            "type" : "SCALAR"
        },
        {
            "bufferView" : 5,
            "componentType" : 5126,
            "count" : 456,
            "max" : [
                2.8761301040649414,
                1.0656476020812988,
                2.4417195320129395
            ],
            "min" : [
                -2.305173635482788,
                -1.0715237855911255,
                -0.6846073269844055
            ],
            "type" : "VEC3"
        },
        {
            "bufferView" : 6,
            "componentType" : 5126,
            "count" : 456,
            "type" : "VEC3"
        },
        {
            "bufferView" : 7,
            "componentType" : 5126,
            "count" : 456,
            "type" : "VEC2"
        },
        {
            "bufferView" : 8,
            "componentType" : 5123,
            "count" : 456,
            "normalized" : true,
            "type" : "VEC4"
        },
        {
            "bufferView" : 9,
            "componentType" : 5123,
            "count" : 456,
            "type" : "SCALAR"
        },
        {
            "bufferView" : 10,
            "componentType" : 5126,
            "count" : 192,
            "max" : [
                2.8761301040649414,
                1.0445235967636108,
                2.4417195320129395
            ],
            "min" : [
                -2.305173635482788,
                -0.5135989189147949,
                1.2781543731689453
            ],
            "type" : "VEC3"
        },
        {
            "bufferView" : 11,
            "componentType" : 5126,
            "count" : 192,
            "type" : "VEC3"
        },
        {
            "bufferView" : 12,
            "componentType" : 5126,
            "count" : 192,
            "type" : "VEC2"
        },
        {
            "bufferView" : 13,
            "componentType" : 5123,
            "count" : 192,
            "normalized" : true,
            "type" : "VEC4"
        },
        {
            "bufferView" : 14,
            "componentType" : 5123,
            "count" : 192,
            "type" : "SCALAR"
        },
        {
            "bufferView" : 15,
            "componentType" : 5126,
            "count" : 91,
            "max" : [
                2.884021282196045,
                1,
                2.6017653942108154
            ],
            "min" : [
                -2.3048198223114014,
                -1.038343071937561,
                -2.2990312576293945
            ],
            "type" : "VEC3"
        },
        {
            "bufferView" : 16,
            "componentType" : 5126,
            "count" : 91,
            "type" : "VEC3"
        },
        {
            "bufferView" : 17,
            "componentType" : 5126,
            "count" : 91,
            "type" : "VEC2"
        },
        {
            "bufferView" : 18,
            "componentType" : 5123,
            "count" : 312,
            "type" : "SCALAR"
        },
        {
            "bufferView" : 19,
            "componentType" : 5126,
            "count" : 85,
            "max" : [
                2.884021282196045,
                1,
                2.6017653942108154
            ],
            "min" : [
                -2.3048198223114014,
                -1.03081214427948,
                -2.5560638904571533
            ],
            "type" : "VEC3"
        },
        {
            "bufferView" : 20,
            "componentType" : 5126,
            "count" : 85,
            "type" : "VEC3"
        },
        {
            "bufferView" : 21,
            "componentType" : 5126,
            "count" : 85,
            "type" : "VEC2"
        },
        {
            "bufferView" : 22,
            "componentType" : 5123,
            "count" : 306,
            "type" : "SCALAR"
        }
    ],
    "bufferViews" : [
        {
            "buffer" : 0,
            "byteLength" : 22032,
            "byteOffset" : 0,
            "target" : 34962
        },
        {
            "buffer" : 0,
            "byteLength" : 22032,
            "byteOffset" : 22032,
            "target" : 34962
        },
        {
            "buffer" : 0,
            "byteLength" : 14688,
            "byteOffset" : 44064,
            "target" : 34962
        },
        {
            "buffer" : 0,
            "byteLength" : 14688,
            "byteOffset" : 58752,
            "target" : 34962
        },
        {
            "buffer" : 0,
            "byteLength" : 3672,
            "byteOffset" : 73440,
            "target" : 34963
        },
        {
            "buffer" : 0,
            "byteLength" : 5472,
            "byteOffset" : 77112,
            "target" : 34962
        },
        {
            "buffer" : 0,
            "byteLength" : 5472,
            "byteOffset" : 82584,
            "target" : 34962
        },
        {
            "buffer" : 0,
            "byteLength" : 3648,
            "byteOffset" : 88056,
            "target" : 34962
        },
        {
            "buffer" : 0,
            "byteLength" : 3648,
            "byteOffset" : 91704,
            "target" : 34962
        },
        {
            "buffer" : 0,
            "byteLength" : 912,
            "byteOffset" : 95352,
            "target" : 34963
        },
        {
            "buffer" : 0,
            "byteLength" : 2304,
            "byteOffset" : 96264,
            "target" : 34962
        },
        {
            "buffer" : 0,
            "byteLength" : 2304,
            "byteOffset" : 98568,
            "target" : 34962
        },
        {
            "buffer" : 0,
            "byteLength" : 1536,
            "byteOffset" : 100872,
            "target" : 34962
        },
        {
            "buffer" : 0,
            "byteLength" : 1536,
            "byteOffset" : 102408,
            "target" : 34962
        },
        {
            "buffer" : 0,
            "byteLength" : 384,
            "byteOffset" : 103944,
            "target" : 34963
        },
        {
            "buffer" : 0,
            "byteLength" : 1092,
            "byteOffset" : 104328,
            "target" : 34962
        },
        {
            "buffer" : 0,
            "byteLength" : 1092,
            "byteOffset" : 105420,
            "target" : 34962
        },
        {
            "buffer" : 0,
            "byteLength" : 728,
            "byteOffset" : 106512,
            "target" : 34962
        },
        {
            "buffer" : 0,
            "byteLength" : 624,
            "byteOffset" : 107240,
            "target" : 34963
        },
        {
            "buffer" : 0,
            "byteLength" : 1020,
            "byteOffset" : 107864,
            "target" : 34962
        },
        {
            "buffer" : 0,
            "byteLength" : 1020,
            "byteOffset" : 108884,
            "target" : 34962
        },
        {
            "buffer" : 0,
            "byteLength" : 680,
            "byteOffset" : 109904,
            "target" : 34962
        },
        {
            "buffer" : 0,
            "byteLength" : 612,
            "byteOffset" : 110584,
            "target" : 34963
        }
    ],
    "buffers" : [
        {
            "byteLength" : 111196,
            "uri" : "data:application/octet-stream;base64,"
        }
    ]
}
