{
    "asset" : {
        "generator" : "Khronos glTF Blender I/O v3.3.27",
        "version" : "2.0"
    },
    "extensionsUsed" : [
        "KHR_materials_specular",
        "KHR_materials_ior"
    ],
    "scene" : 0,
    "scenes" : [
        {
            "name" : "Scene",
            "nodes" : [
                24
            ]
        }
    ],
    "nodes" : [
        {
            "name" : "ene_majin01f_dino_Bone_4",
            "rotation" : [
                -0.4479117691516876,
                -1.7520825679184782e-07,
                -0.46204444766044617,
                0.7654346823692322
            ],
            "scale" : [
                1,
                0.9999999403953552,
                0.9999999403953552
            ],
            "translation" : [
                0.3250000774860382,
                0.34500017762184143,
                -1.9791942307278987e-08
            ]
        },
        {
            "name" : "ene_majin01f_dino_Bone_5",
            "rotation" : [
                -0.4479115605354309,
                9.733795280908453e-08,
                0.4620450437068939,
                0.7654343247413635
            ],
            "scale" : [
                1,
                1,
                0.9999999403953552
            ],
            "translation" : [
                -0.3250000774860382,
                0.34499987959861755,
                2.901519735587499e-07
            ]
        },
        {
            "name" : "ene_majin01f_dino_Bone_6",
            "rotation" : [
                -0.5871150493621826,
                -3.149441951677545e-08,
                2.391523992173461e-07,
                0.8095034956932068
            ],
            "translation" : [
                1.1324758020236914e-08,
                0.6499998569488525,
                -0.07500000298023224
            ]
        },
        {
            "name" : "ene_majin01f_dino_Bone_7",
            "rotation" : [
                0.8929843902587891,
                4.790160090806239e-08,
                -8.79068352332979e-07,
                0.45008766651153564
            ],
            "scale" : [
                1,
                1,
                1.0000001192092896
            ],
            "translation" : [
                -1.6838750127590174e-07,
                0.20000000298023224,
                -0.1479998379945755
            ]
        },
        {
            "children" : [
                0,
                1,
                2,
                3
            ],
            "name" : "ene_majin01f_dino_Bone_3",
            "rotation" : [
                -0.7071065902709961,
                -3.793075009639324e-08,
                5.914658913752646e-07,
                0.7071070671081543
            ],
            "translation" : [
                -5.276042998048069e-07,
                -8.940703821735951e-08,
                -0.565000057220459
            ]
        },
        {
            "name" : "ene_majin01f_dino_Bone_11",
            "rotation" : [
                -0.0011414438486099243,
                0.0009419893613085151,
                0.0810186043381691,
                0.9967114925384521
            ],
            "scale" : [
                1,
                0.9999999403953552,
                1
            ],
            "translation" : [
                1.5064998706293409e-06,
                0.44024717807769775,
                -0.0011308637913316488
            ]
        },
        {
            "name" : "ene_majin01f_dino_Bone_12",
            "rotation" : [
                0.5737681984901428,
                -0.4934527277946472,
                -0.6122726798057556,
                0.22894684970378876
            ],
            "scale" : [
                1,
                1.000000238418579,
                1.000000238418579
            ],
            "translation" : [
                -0.03377146273851395,
                0.05576436594128609,
                0.1436147689819336
            ]
        },
        {
            "children" : [
                5,
                6
            ],
            "name" : "ene_majin01f_dino_Bone_10",
            "rotation" : [
                -0.006157359108328819,
                0.005335863679647446,
                -0.07470837235450745,
                0.9971722364425659
            ],
            "scale" : [
                0.9999998211860657,
                0.9999998807907104,
                0.9999998807907104
            ],
            "translation" : [
                -2.682645572349429e-07,
                0.9689645171165466,
                -1.6763806343078613e-07
            ]
        },
        {
            "children" : [
                7
            ],
            "name" : "ene_majin01f_dino_Bone_9",
            "rotation" : [
                0.017352620139718056,
                -0.021255958825349808,
                -0.355242520570755,
                0.9343714714050293
            ],
            "scale" : [
                0.9999999403953552,
                1,
                0.9999999403953552
            ],
            "translation" : [
                0.27959588170051575,
                0.31462135910987854,
                0.006143203936517239
            ]
        },
        {
            "children" : [
                8
            ],
            "name" : "ene_majin01f_dino_Bone_8",
            "rotation" : [
                -0.30383938550949097,
                0.6448954343795776,
                0.6448958516120911,
                0.2755010724067688
            ],
            "scale" : [
                0.9999999403953552,
                1.0000001192092896,
                1
            ],
            "translation" : [
                -0.48000064492225647,
                -2.98025426559434e-08,
                -0.5399999022483826
            ]
        },
        {
            "name" : "ene_majin01f_dino_Bone_16",
            "rotation" : [
                -0.0013314471580088139,
                -0.0011125419987365603,
                -0.08101413398981094,
                0.9967114329338074
            ],
            "scale" : [
                1,
                0.9999998807907104,
                0.9999998807907104
            ],
            "translation" : [
                -6.03868375037564e-06,
                0.4402479827404022,
                -0.0010928659467026591
            ]
        },
        {
            "name" : "ene_majin01f_dino_Bone_17",
            "rotation" : [
                0.5729874968528748,
                0.49286147952079773,
                0.6126705408096313,
                0.23110097646713257
            ],
            "translation" : [
                0.03365245833992958,
                0.055795636028051376,
                0.14413276314735413
            ]
        },
        {
            "children" : [
                10,
                11
            ],
            "name" : "ene_majin01f_dino_Bone_15",
            "rotation" : [
                -0.005910070613026619,
                -0.0051169306971132755,
                0.07473651319742203,
                0.9971727728843689
            ],
            "scale" : [
                1.0000001192092896,
                0.9999999403953552,
                0.9999999403953552
            ],
            "translation" : [
                -2.0954848878318444e-07,
                0.9689638018608093,
                3.0081719160079956e-07
            ]
        },
        {
            "children" : [
                12
            ],
            "name" : "ene_majin01f_dino_Bone_14",
            "rotation" : [
                0.019389398396015167,
                0.023160919547080994,
                0.3551371395587921,
                0.9343261122703552
            ],
            "scale" : [
                0.9999999403953552,
                1,
                1
            ],
            "translation" : [
                -0.2795402705669403,
                0.31462207436561584,
                0.008312557823956013
            ]
        },
        {
            "children" : [
                13
            ],
            "name" : "ene_majin01f_dino_Bone_13",
            "rotation" : [
                -0.3059873878955841,
                -0.644844114780426,
                -0.6448437571525574,
                0.2733575999736786
            ],
            "scale" : [
                0.9999998807907104,
                1.0000001192092896,
                0.9999998807907104
            ],
            "translation" : [
                0.4799995720386505,
                3.6507890399661846e-07,
                -0.5400007367134094
            ]
        },
        {
            "children" : [
                4,
                9,
                14
            ],
            "name" : "ene_majin01f_dino_Bone_2",
            "rotation" : [
                0.7071068286895752,
                -1.0048593088261143e-13,
                -6.293968226600555e-07,
                0.7071068286895752
            ],
            "translation" : [
                -3.5783936696620546e-20,
                1.1922384146600962e-07,
                -8.939423423726112e-09
            ]
        },
        {
            "name" : "ene_majin01f_dino_Bone_21",
            "rotation" : [
                -8.742244972381741e-08,
                1.7021848747146226e-14,
                8.742280499518529e-08,
                1
            ],
            "translation" : [
                -3.198550780586875e-15,
                0.2900000810623169,
                3.8013754470600514e-14
            ]
        },
        {
            "children" : [
                16
            ],
            "name" : "ene_majin01f_dino_Bone_20",
            "rotation" : [
                2.75813398786795e-08,
                5.364219290981964e-08,
                7.549787284233389e-08,
                1
            ],
            "translation" : [
                -5.404287043916933e-15,
                0.3550001084804535,
                -1.124385207162959e-08
            ]
        },
        {
            "children" : [
                17
            ],
            "name" : "ene_majin01f_dino_Bone_19",
            "rotation" : [
                2.247644914632474e-08,
                0.7071068286895752,
                0.7071068286895752,
                5.338508302088485e-08
            ],
            "translation" : [
                -1.923303294404377e-08,
                2.9802322387695312e-08,
                0.4399999976158142
            ]
        },
        {
            "children" : [
                18
            ],
            "name" : "ene_majin01f_dino_Bone_18",
            "rotation" : [
                0.7071068286895752,
                -1.1286739771965149e-13,
                1.1286739771965149e-13,
                0.7071068286895752
            ],
            "translation" : [
                5.908375339586109e-20,
                1.1922384146600962e-07,
                -8.939423423726112e-09
            ]
        },
        {
            "children" : [
                15,
                19
            ],
            "name" : "ene_majin01f_dino_Bone_1",
            "rotation" : [
                -0.7071080803871155,
                -5.3385068810030134e-08,
                -5.3385097231739564e-08,
                0.7071055769920349
            ],
            "translation" : [
                1.6383046386181377e-07,
                -3.874301910400391e-06,
                -1.0849997997283936
            ]
        },
        {
            "name" : "ene_majin01f_dino_Bone_22",
            "rotation" : [
                1,
                -4.0657581468206416e-20,
                -7.549790126404332e-08,
                3.619990820880048e-06
            ],
            "translation" : [
                -3.389564410908181e-21,
                2.9888361977013695e-26,
                3.619991559844493e-07
            ]
        },
        {
            "children" : [
                20,
                21
            ],
            "name" : "ene_majin01f_dino_Bone_0",
            "rotation" : [
                0.7071093320846558,
                5.338507946817117e-08,
                5.338507946817117e-08,
                0.7071042060852051
            ]
        },
        {
            "mesh" : 0,
            "name" : "BlueMajinMesh",
            "skin" : 0
        },
        {
            "children" : [
                23,
                22
            ],
            "name" : "BlueMajinRoot"
        }
    ],
    "materials" : [
        {
            "extensions" : {
                "KHR_materials_specular" : {
                    "specularColorTexture" : {
                        "index" : 0,
                        "texCoord" : 1
                    }
                },
                "KHR_materials_ior" : {
                    "ior" : 1.4500000476837158
                }
            },
            "name" : "Blue Majin Body",
            "pbrMetallicRoughness" : {
                "baseColorTexture" : {
                    "index" : 1,
                    "texCoord" : 1
                },
                "metallicFactor" : 0
            }
        },
        {
            "alphaMode" : "BLEND",
            "doubleSided" : true,
            "extensions" : {
                "KHR_materials_specular" : {
                    "specularColorFactor" : [
                        0,
                        0,
                        0
                    ]
                },
                "KHR_materials_ior" : {
                    "ior" : 1.4500000476837158
                }
            },
            "name" : "Blue Majin Leaf",
            "pbrMetallicRoughness" : {
                "baseColorTexture" : {
                    "index" : 2
                },
                "metallicFactor" : 0
            }
        }
    ],
    "meshes" : [
        {
            "name" : "BlueMajinMesh",
            "primitives" : [
                {
                    "attributes" : {
                        "POSITION" : 0,
                        "NORMAL" : 1,
                        "TEXCOORD_0" : 2,
                        "TEXCOORD_1" : 3,
                        "COLOR_0" : 4,
                        "JOINTS_0" : 5,
                        "WEIGHTS_0" : 6
                    },
                    "indices" : 7,
                    "material" : 0
                },
                {
                    "attributes" : {
                        "POSITION" : 8,
                        "NORMAL" : 9,
                        "TEXCOORD_0" : 10,
                        "TEXCOORD_1" : 11,
                        "COLOR_0" : 12,
                        "JOINTS_0" : 13,
                        "WEIGHTS_0" : 14
                    },
                    "indices" : 15,
                    "material" : 1
                }
            ]
        }
    ],
    "textures" : [
        {
            "sampler" : 0,
            "source" : 0
        },
        {
            "sampler" : 0,
            "source" : 1
        },
        {
            "sampler" : 0,
            "source" : 2
        }
    ],
    "images" : [
        {
            "bufferView" : 8,
            "mimeType" : "image/png",
            "name" : "Image"
        },
        {
            "bufferView" : 9,
            "mimeType" : "image/png",
            "name" : "blue majin body"
        },
        {
            "bufferView" : 18,
            "mimeType" : "image/png",
            "name" : "blue majin leaf"
        }
    ],
    "skins" : [
        {
            "inverseBindMatrices" : 16,
            "joints" : [
                22,
                20,
                15,
                4,
                0,
                1,
                2,
                3,
                9,
                8,
                7,
                5,
                6,
                14,
                13,
                12,
                10,
                11,
                19,
                18,
                17,
                16,
                21
            ],
            "name" : "BlueMajinRoot"
        }
    ],
    "accessors" : [
        {
            "bufferView" : 0,
            "componentType" : 5126,
            "count" : 1386,
            "max" : [
                2.6213197708129883,
                2.345837116241455,
                0.43315228819847107
            ],
            "min" : [
                -2.621319532394409,
                -0.31484708189964294,
                -0.43206483125686646
            ],
            "type" : "VEC3"
        },
        {
            "bufferView" : 1,
            "componentType" : 5126,
            "count" : 1386,
            "type" : "VEC3"
        },
        {
            "bufferView" : 2,
            "componentType" : 5126,
            "count" : 1386,
            "type" : "VEC2"
        },
        {
            "bufferView" : 3,
            "componentType" : 5126,
            "count" : 1386,
            "type" : "VEC2"
        },
        {
            "bufferView" : 4,
            "componentType" : 5123,
            "count" : 1386,
            "normalized" : true,
            "type" : "VEC4"
        },
        {
            "bufferView" : 5,
            "componentType" : 5121,
            "count" : 1386,
            "type" : "VEC4"
        },
        {
            "bufferView" : 6,
            "componentType" : 5126,
            "count" : 1386,
            "type" : "VEC4"
        },
        {
            "bufferView" : 7,
            "componentType" : 5123,
            "count" : 5352,
            "type" : "SCALAR"
        },
        {
            "bufferView" : 10,
            "componentType" : 5126,
            "count" : 214,
            "max" : [
                1.7703704833984375,
                2.7136518955230713,
                0.3869715929031372
            ],
            "min" : [
                -1.7703704833984375,
                0.19324739277362823,
                -0.4999885857105255
            ],
            "type" : "VEC3"
        },
        {
            "bufferView" : 11,
            "componentType" : 5126,
            "count" : 214,
            "type" : "VEC3"
        },
        {
            "bufferView" : 12,
            "componentType" : 5126,
            "count" : 214,
            "type" : "VEC2"
        },
        {
            "bufferView" : 13,
            "componentType" : 5126,
            "count" : 214,
            "type" : "VEC2"
        },
        {
            "bufferView" : 14,
            "componentType" : 5123,
            "count" : 214,
            "normalized" : true,
            "type" : "VEC4"
        },
        {
            "bufferView" : 15,
            "componentType" : 5121,
            "count" : 214,
            "type" : "VEC4"
        },
        {
            "bufferView" : 16,
            "componentType" : 5126,
            "count" : 214,
            "type" : "VEC4"
        },
        {
            "bufferView" : 17,
            "componentType" : 5123,
            "count" : 342,
            "type" : "SCALAR"
        },
        {
            "bufferView" : 19,
            "componentType" : 5126,
            "count" : 23,
            "type" : "MAT4"
        }
    ],
    "bufferViews" : [
        {
            "buffer" : 0,
            "byteLength" : 16632,
            "byteOffset" : 0,
            "target" : 34962
        },
        {
            "buffer" : 0,
            "byteLength" : 16632,
            "byteOffset" : 16632,
            "target" : 34962
        },
        {
            "buffer" : 0,
            "byteLength" : 11088,
            "byteOffset" : 33264,
            "target" : 34962
        },
        {
            "buffer" : 0,
            "byteLength" : 11088,
            "byteOffset" : 44352,
            "target" : 34962
        },
        {
            "buffer" : 0,
            "byteLength" : 11088,
            "byteOffset" : 55440,
            "target" : 34962
        },
        {
            "buffer" : 0,
            "byteLength" : 5544,
            "byteOffset" : 66528,
            "target" : 34962
        },
        {
            "buffer" : 0,
            "byteLength" : 22176,
            "byteOffset" : 72072,
            "target" : 34962
        },
        {
            "buffer" : 0,
            "byteLength" : 10704,
            "byteOffset" : 94248,
            "target" : 34963
        },
        {
            "buffer" : 0,
            "byteLength" : 960,
            "byteOffset" : 104952
        },
        {
            "buffer" : 0,
            "byteLength" : 51501,
            "byteOffset" : 105912
        },
        {
            "buffer" : 0,
            "byteLength" : 2568,
            "byteOffset" : 157416,
            "target" : 34962
        },
        {
            "buffer" : 0,
            "byteLength" : 2568,
            "byteOffset" : 159984,
            "target" : 34962
        },
        {
            "buffer" : 0,
            "byteLength" : 1712,
            "byteOffset" : 162552,
            "target" : 34962
        },
        {
            "buffer" : 0,
            "byteLength" : 1712,
            "byteOffset" : 164264,
            "target" : 34962
        },
        {
            "buffer" : 0,
            "byteLength" : 1712,
            "byteOffset" : 165976,
            "target" : 34962
        },
        {
            "buffer" : 0,
            "byteLength" : 856,
            "byteOffset" : 167688,
            "target" : 34962
        },
        {
            "buffer" : 0,
            "byteLength" : 3424,
            "byteOffset" : 168544,
            "target" : 34962
        },
        {
            "buffer" : 0,
            "byteLength" : 684,
            "byteOffset" : 171968,
            "target" : 34963
        },
        {
            "buffer" : 0,
            "byteLength" : 6995,
            "byteOffset" : 172652
        },
        {
            "buffer" : 0,
            "byteLength" : 1472,
            "byteOffset" : 179648
        }
    ],
    "samplers" : [
        {
            "magFilter" : 9729,
            "minFilter" : 9987
        }
    ],
    "buffers" : [
        {
            "byteLength" : 181120,
            "uri" : "data:application/octet-stream;base64,"
        }
    ]
}
