{
    "asset" : {
        "generator" : "Khronos glTF Blender I/O v3.3.27",
        "version" : "2.0"
    },
    "extensionsUsed" : [
        "KHR_materials_specular",
        "KHR_materials_ior"
    ],
    "scene" : 0,
    "scenes" : [
        {
            "name" : "Scene",
            "nodes" : [
                24
            ]
        }
    ],
    "nodes" : [
        {
            "name" : "ene_majin03f_dino_Bone_4",
            "rotation" : [
                -0.44791173934936523,
                -1.265392910454466e-07,
                -0.4620443880558014,
                0.7654345631599426
            ],
            "translation" : [
                0.325000137090683,
                0.34500041604042053,
                -1.9791942307278987e-08
            ]
        },
        {
            "name" : "ene_majin03f_dino_Bone_5",
            "rotation" : [
                -0.4479115605354309,
                1.1680553768655955e-07,
                0.46204498410224915,
                0.7654343247413635
            ],
            "translation" : [
                -0.32500001788139343,
                0.34499987959861755,
                2.901519735587499e-07
            ]
        },
        {
            "name" : "ene_majin03f_dino_Bone_6",
            "rotation" : [
                -0.5871150493621826,
                -3.149441951677545e-08,
                2.391523992173461e-07,
                0.8095034956932068
            ],
            "translation" : [
                1.1324758020236914e-08,
                0.6499998569488525,
                -0.07500000298023224
            ]
        },
        {
            "name" : "ene_majin03f_dino_Bone_7",
            "rotation" : [
                0.8929843902587891,
                4.790160090806239e-08,
                -8.79068352332979e-07,
                0.45008766651153564
            ],
            "scale" : [
                1,
                1,
                1.0000001192092896
            ],
            "translation" : [
                -1.6838750127590174e-07,
                0.20000000298023224,
                -0.1479998379945755
            ]
        },
        {
            "children" : [
                0,
                1,
                2,
                3
            ],
            "name" : "ene_majin03f_dino_Bone_3",
            "rotation" : [
                -0.7071065902709961,
                -3.793075009639324e-08,
                5.914658913752646e-07,
                0.7071070671081543
            ],
            "translation" : [
                -5.276042998048069e-07,
                -8.940703821735951e-08,
                -0.565000057220459
            ]
        },
        {
            "name" : "ene_majin03f_dino_Bone_11",
            "rotation" : [
                -0.010474986396729946,
                0.009329189546406269,
                0.10271283239126205,
                0.9946122169494629
            ],
            "translation" : [
                -2.9708928195759654e-05,
                0.3416668772697449,
                -0.004182412289083004
            ]
        },
        {
            "name" : "ene_majin03f_dino_Bone_12",
            "rotation" : [
                0.5823124051094055,
                -0.4835677146911621,
                -0.6090942025184631,
                0.23680967092514038
            ],
            "scale" : [
                1,
                1,
                0.9999999403953552
            ],
            "translation" : [
                -0.03513955697417259,
                0.05549745261669159,
                0.14338965713977814
            ]
        },
        {
            "children" : [
                5,
                6
            ],
            "name" : "ene_majin03f_dino_Bone_10",
            "rotation" : [
                -0.005638679023832083,
                0.003979487810283899,
                -0.0964142307639122,
                0.9953173995018005
            ],
            "scale" : [
                1.0000001192092896,
                1,
                0.9999999403953552
            ],
            "translation" : [
                -2.062006387859583e-07,
                0.6189971566200256,
                -9.755603969097137e-08
            ]
        },
        {
            "children" : [
                7
            ],
            "name" : "ene_majin03f_dino_Bone_9",
            "rotation" : [
                0.023644663393497467,
                -0.029208045452833176,
                -0.32364988327026367,
                0.9454303979873657
            ],
            "translation" : [
                0.19662295281887054,
                0.25364547967910767,
                0.005666906014084816
            ]
        },
        {
            "children" : [
                8
            ],
            "name" : "ene_majin03f_dino_Bone_8",
            "rotation" : [
                -0.3294107913970947,
                0.6347214579582214,
                0.6347216367721558,
                0.2928237318992615
            ],
            "scale" : [
                0.9999999403953552,
                0.9999999403953552,
                1
            ],
            "translation" : [
                -0.3800005614757538,
                5.2154099705603585e-08,
                -0.49000003933906555
            ]
        },
        {
            "name" : "ene_majin03f_dino_Bone_16",
            "rotation" : [
                -0.009334181435406208,
                -0.00829269178211689,
                -0.10395399481058121,
                0.9945037364959717
            ],
            "scale" : [
                0.9999998807907104,
                0.9999999403953552,
                0.9999999403953552
            ],
            "translation" : [
                0.000726404890883714,
                0.34488165378570557,
                -0.0037145293317735195
            ]
        },
        {
            "name" : "ene_majin03f_dino_Bone_17",
            "rotation" : [
                0.5878854393959045,
                0.4873034656047821,
                0.5982421636581421,
                0.24296586215496063
            ],
            "scale" : [
                0.9999998211860657,
                0.9999995827674866,
                0.9999998211860657
            ],
            "translation" : [
                0.035744328051805496,
                0.058549731969833374,
                0.14392203092575073
            ]
        },
        {
            "children" : [
                10,
                11
            ],
            "name" : "ene_majin03f_dino_Bone_15",
            "rotation" : [
                -0.005912913475185633,
                -0.004296844359487295,
                0.09675362706184387,
                0.9952815175056458
            ],
            "scale" : [
                1.0000001192092896,
                1.0000001192092896,
                0.9999999403953552
            ],
            "translation" : [
                -5.132005753694102e-07,
                0.6157379746437073,
                1.8370337784290314e-07
            ]
        },
        {
            "children" : [
                12
            ],
            "name" : "ene_majin03f_dino_Bone_14",
            "rotation" : [
                0.025434471666812897,
                0.030844058841466904,
                0.3234461545944214,
                0.945401668548584
            ],
            "scale" : [
                1,
                1.000000238418579,
                1.0000001192092896
            ],
            "translation" : [
                -0.19657748937606812,
                0.2536471486091614,
                0.007092897780239582
            ]
        },
        {
            "children" : [
                13
            ],
            "name" : "ene_majin03f_dino_Bone_13",
            "rotation" : [
                -0.33135759830474854,
                -0.6346616744995117,
                -0.6346613764762878,
                0.29088085889816284
            ],
            "scale" : [
                1,
                1,
                0.9999999403953552
            ],
            "translation" : [
                0.379999577999115,
                2.6822161203199357e-07,
                -0.4900006949901581
            ]
        },
        {
            "children" : [
                4,
                9,
                14
            ],
            "name" : "ene_majin03f_dino_Bone_2",
            "rotation" : [
                0.7071068286895752,
                -1.0048593088261143e-13,
                -6.293968226600555e-07,
                0.7071068286895752
            ],
            "translation" : [
                -3.5783936696620546e-20,
                1.1922384146600962e-07,
                -8.939423423726112e-09
            ]
        },
        {
            "name" : "ene_majin03f_dino_Bone_21",
            "rotation" : [
                -8.742284762774943e-08,
                1.3469125750983305e-14,
                8.742281920604e-08,
                1
            ],
            "translation" : [
                -5.3294554946752785e-15,
                0.29000014066696167,
                2.1316282072803006e-14
            ]
        },
        {
            "children" : [
                16
            ],
            "name" : "ene_majin03f_dino_Bone_20",
            "rotation" : [
                2.7581567252354944e-08,
                5.364219290981964e-08,
                7.549785152605182e-08,
                1
            ],
            "translation" : [
                -4.224444687291051e-15,
                0.35499995946884155,
                -1.1348130435351322e-08
            ]
        },
        {
            "children" : [
                17
            ],
            "name" : "ene_majin03f_dino_Bone_19",
            "rotation" : [
                2.2476431382756346e-08,
                0.7071068286895752,
                0.7071068286895752,
                5.338508302088485e-08
            ],
            "scale" : [
                1,
                0.9999997019767761,
                0.9999999403953552
            ],
            "translation" : [
                -9.616512919308207e-09,
                1.4901161193847656e-08,
                0.21999996900558472
            ]
        },
        {
            "children" : [
                18
            ],
            "name" : "ene_majin03f_dino_Bone_18",
            "rotation" : [
                0.7071068286895752,
                -1.1286739771965149e-13,
                1.1286739771965149e-13,
                0.7071068286895752
            ],
            "translation" : [
                8.61888077079987e-20,
                1.1922384146600962e-07,
                -8.939423423726112e-09
            ]
        },
        {
            "children" : [
                15,
                19
            ],
            "name" : "ene_majin03f_dino_Bone_1",
            "rotation" : [
                -0.7071080803871155,
                -5.3385068810030134e-08,
                -5.3385097231739564e-08,
                0.7071055769920349
            ],
            "translation" : [
                1.6383046386181377e-07,
                -3.874301910400391e-06,
                -1.0849997997283936
            ]
        },
        {
            "name" : "ene_majin03f_dino_Bone_22",
            "rotation" : [
                -1.8099952967531863e-06,
                4.946738586414118e-19,
                -2.710505431213761e-20,
                1
            ],
            "translation" : [
                -3.389564410908181e-21,
                2.9888361977013695e-26,
                3.619991559844493e-07
            ]
        },
        {
            "children" : [
                20,
                21
            ],
            "name" : "ene_majin03f_dino_Bone_0",
            "rotation" : [
                0.7071093320846558,
                5.338507946817117e-08,
                5.338507946817117e-08,
                0.7071042060852051
            ]
        },
        {
            "mesh" : 0,
            "name" : "GreenMajinMesh",
            "skin" : 0
        },
        {
            "children" : [
                23,
                22
            ],
            "name" : "GreenMajinRoot"
        }
    ],
    "materials" : [
        {
            "extensions" : {
                "KHR_materials_specular" : {
                    "specularColorFactor" : [
                        0,
                        0,
                        0
                    ]
                },
                "KHR_materials_ior" : {
                    "ior" : 1.4500000476837158
                }
            },
            "name" : "Green Majin Body",
            "pbrMetallicRoughness" : {
                "baseColorTexture" : {
                    "index" : 0,
                    "texCoord" : 1
                },
                "metallicFactor" : 0
            }
        },
        {
            "alphaMode" : "BLEND",
            "doubleSided" : true,
            "extensions" : {
                "KHR_materials_specular" : {
                    "specularColorFactor" : [
                        0,
                        0,
                        0
                    ]
                },
                "KHR_materials_ior" : {
                    "ior" : 1.4500000476837158
                }
            },
            "name" : "Green Majin Leaf",
            "pbrMetallicRoughness" : {
                "baseColorTexture" : {
                    "index" : 1
                },
                "metallicFactor" : 0
            }
        }
    ],
    "meshes" : [
        {
            "name" : "GreenMajinMesh",
            "primitives" : [
                {
                    "attributes" : {
                        "POSITION" : 0,
                        "NORMAL" : 1,
                        "TEXCOORD_0" : 2,
                        "TEXCOORD_1" : 3,
                        "COLOR_0" : 4,
                        "JOINTS_0" : 5,
                        "WEIGHTS_0" : 6
                    },
                    "indices" : 7,
                    "material" : 0
                },
                {
                    "attributes" : {
                        "POSITION" : 8,
                        "NORMAL" : 9,
                        "TEXCOORD_0" : 10,
                        "TEXCOORD_1" : 11,
                        "COLOR_0" : 12,
                        "JOINTS_0" : 13,
                        "WEIGHTS_0" : 14
                    },
                    "indices" : 15,
                    "material" : 1
                }
            ]
        }
    ],
    "textures" : [
        {
            "sampler" : 0,
            "source" : 0
        },
        {
            "sampler" : 0,
            "source" : 1
        }
    ],
    "images" : [
        {
            "bufferView" : 8,
            "mimeType" : "image/png",
            "name" : "green majin body"
        },
        {
            "bufferView" : 17,
            "mimeType" : "image/png",
            "name" : "green majin leaf"
        }
    ],
    "skins" : [
        {
            "inverseBindMatrices" : 16,
            "joints" : [
                22,
                20,
                15,
                4,
                0,
                1,
                2,
                3,
                9,
                8,
                7,
                5,
                6,
                14,
                13,
                12,
                10,
                11,
                19,
                18,
                17,
                16,
                21
            ],
            "name" : "GreenMajinRoot"
        }
    ],
    "accessors" : [
        {
            "bufferView" : 0,
            "componentType" : 5126,
            "count" : 978,
            "max" : [
                1.8550812005996704,
                2.223808526992798,
                0.4076208174228668
            ],
            "min" : [
                -1.8550817966461182,
                -0.09400001913309097,
                -0.4179036319255829
            ],
            "type" : "VEC3"
        },
        {
            "bufferView" : 1,
            "componentType" : 5126,
            "count" : 978,
            "type" : "VEC3"
        },
        {
            "bufferView" : 2,
            "componentType" : 5126,
            "count" : 978,
            "type" : "VEC2"
        },
        {
            "bufferView" : 3,
            "componentType" : 5126,
            "count" : 978,
            "type" : "VEC2"
        },
        {
            "bufferView" : 4,
            "componentType" : 5123,
            "count" : 978,
            "normalized" : true,
            "type" : "VEC4"
        },
        {
            "bufferView" : 5,
            "componentType" : 5121,
            "count" : 978,
            "type" : "VEC4"
        },
        {
            "bufferView" : 6,
            "componentType" : 5126,
            "count" : 978,
            "type" : "VEC4"
        },
        {
            "bufferView" : 7,
            "componentType" : 5123,
            "count" : 3606,
            "type" : "SCALAR"
        },
        {
            "bufferView" : 9,
            "componentType" : 5126,
            "count" : 256,
            "max" : [
                1.3429334163665771,
                2.4547650814056396,
                0.3756001889705658
            ],
            "min" : [
                -1.3429334163665771,
                0.4425048828125,
                -0.4357719421386719
            ],
            "type" : "VEC3"
        },
        {
            "bufferView" : 10,
            "componentType" : 5126,
            "count" : 256,
            "type" : "VEC3"
        },
        {
            "bufferView" : 11,
            "componentType" : 5126,
            "count" : 256,
            "type" : "VEC2"
        },
        {
            "bufferView" : 12,
            "componentType" : 5126,
            "count" : 256,
            "type" : "VEC2"
        },
        {
            "bufferView" : 13,
            "componentType" : 5123,
            "count" : 256,
            "normalized" : true,
            "type" : "VEC4"
        },
        {
            "bufferView" : 14,
            "componentType" : 5121,
            "count" : 256,
            "type" : "VEC4"
        },
        {
            "bufferView" : 15,
            "componentType" : 5126,
            "count" : 256,
            "type" : "VEC4"
        },
        {
            "bufferView" : 16,
            "componentType" : 5123,
            "count" : 420,
            "type" : "SCALAR"
        },
        {
            "bufferView" : 18,
            "componentType" : 5126,
            "count" : 23,
            "type" : "MAT4"
        }
    ],
    "bufferViews" : [
        {
            "buffer" : 0,
            "byteLength" : 11736,
            "byteOffset" : 0,
            "target" : 34962
        },
        {
            "buffer" : 0,
            "byteLength" : 11736,
            "byteOffset" : 11736,
            "target" : 34962
        },
        {
            "buffer" : 0,
            "byteLength" : 7824,
            "byteOffset" : 23472,
            "target" : 34962
        },
        {
            "buffer" : 0,
            "byteLength" : 7824,
            "byteOffset" : 31296,
            "target" : 34962
        },
        {
            "buffer" : 0,
            "byteLength" : 7824,
            "byteOffset" : 39120,
            "target" : 34962
        },
        {
            "buffer" : 0,
            "byteLength" : 3912,
            "byteOffset" : 46944,
            "target" : 34962
        },
        {
            "buffer" : 0,
            "byteLength" : 15648,
            "byteOffset" : 50856,
            "target" : 34962
        },
        {
            "buffer" : 0,
            "byteLength" : 7212,
            "byteOffset" : 66504,
            "target" : 34963
        },
        {
            "buffer" : 0,
            "byteLength" : 31273,
            "byteOffset" : 73716
        },
        {
            "buffer" : 0,
            "byteLength" : 3072,
            "byteOffset" : 104992,
            "target" : 34962
        },
        {
            "buffer" : 0,
            "byteLength" : 3072,
            "byteOffset" : 108064,
            "target" : 34962
        },
        {
            "buffer" : 0,
            "byteLength" : 2048,
            "byteOffset" : 111136,
            "target" : 34962
        },
        {
            "buffer" : 0,
            "byteLength" : 2048,
            "byteOffset" : 113184,
            "target" : 34962
        },
        {
            "buffer" : 0,
            "byteLength" : 2048,
            "byteOffset" : 115232,
            "target" : 34962
        },
        {
            "buffer" : 0,
            "byteLength" : 1024,
            "byteOffset" : 117280,
            "target" : 34962
        },
        {
            "buffer" : 0,
            "byteLength" : 4096,
            "byteOffset" : 118304,
            "target" : 34962
        },
        {
            "buffer" : 0,
            "byteLength" : 840,
            "byteOffset" : 122400,
            "target" : 34963
        },
        {
            "buffer" : 0,
            "byteLength" : 6884,
            "byteOffset" : 123240
        },
        {
            "buffer" : 0,
            "byteLength" : 1472,
            "byteOffset" : 130124
        }
    ],
    "samplers" : [
        {
            "magFilter" : 9729,
            "minFilter" : 9987
        }
    ],
    "buffers" : [
        {
            "byteLength" : 131596,
            "uri" : "data:application/octet-stream;base64,"
        }
    ]
}
