{
    "asset" : {
        "generator" : "Khronos glTF Blender I/O v3.3.27",
        "version" : "2.0"
    },
    "extensionsUsed" : [
        "KHR_materials_specular",
        "KHR_materials_ior"
    ],
    "scene" : 0,
    "scenes" : [
        {
            "name" : "Scene",
            "nodes" : [
                24
            ]
        }
    ],
    "nodes" : [
        {
            "name" : "ene_majin02f_dino_Bone_4",
            "rotation" : [
                -0.4479117691516876,
                -1.7520825679184782e-07,
                -0.46204444766044617,
                0.7654346823692322
            ],
            "scale" : [
                1,
                0.9999999403953552,
                0.9999999403953552
            ],
            "translation" : [
                0.3250000774860382,
                0.34500017762184143,
                -1.9791942307278987e-08
            ]
        },
        {
            "name" : "ene_majin02f_dino_Bone_5",
            "rotation" : [
                -0.4479115605354309,
                9.733795280908453e-08,
                0.4620450437068939,
                0.7654343247413635
            ],
            "scale" : [
                1,
                1,
                0.9999999403953552
            ],
            "translation" : [
                -0.3250000774860382,
                0.34499987959861755,
                2.901519735587499e-07
            ]
        },
        {
            "name" : "ene_majin02f_dino_Bone_6",
            "rotation" : [
                -0.5848318934440613,
                -3.137204629410917e-08,
                -5.3938155275545796e-08,
                0.8111544847488403
            ],
            "translation" : [
                1.132470828224541e-08,
                0.6838181018829346,
                -0.07500004023313522
            ]
        },
        {
            "name" : "ene_majin02f_dino_Bone_7",
            "rotation" : [
                0.8929842114448547,
                4.7901387745241664e-08,
                -1.194165633933153e-06,
                0.4500880241394043
            ],
            "scale" : [
                1,
                1,
                1.0000001192092896
            ],
            "translation" : [
                -1.683874586433376e-07,
                0.20000000298023224,
                -0.1479998379945755
            ]
        },
        {
            "children" : [
                0,
                1,
                2,
                3
            ],
            "name" : "ene_majin02f_dino_Bone_3",
            "rotation" : [
                -0.7071065902709961,
                -3.793075009639324e-08,
                5.914658913752646e-07,
                0.7071070671081543
            ],
            "translation" : [
                -5.276042998048069e-07,
                -8.940703821735951e-08,
                -0.565000057220459
            ]
        },
        {
            "name" : "ene_majin02f_dino_Bone_11",
            "rotation" : [
                0.001434620819054544,
                -0.001456222147680819,
                0.0810241848230362,
                0.9967100620269775
            ],
            "scale" : [
                1,
                0.9999999403953552,
                1
            ],
            "translation" : [
                5.076330467090884e-07,
                0.440248042345047,
                8.444658305961639e-08
            ]
        },
        {
            "name" : "ene_majin02f_dino_Bone_12",
            "rotation" : [
                0.5739145874977112,
                -0.49220192432403564,
                -0.613839328289032,
                0.2270699441432953
            ],
            "scale" : [
                0.9999998807907104,
                0.9999998211860657,
                0.9999999403953552
            ],
            "translation" : [
                -0.0340903103351593,
                0.05539434775710106,
                0.14368246495723724
            ]
        },
        {
            "children" : [
                5,
                6
            ],
            "name" : "ene_majin02f_dino_Bone_10",
            "rotation" : [
                -0.006347863469272852,
                0.005667049437761307,
                -0.07472071051597595,
                0.9971681833267212
            ],
            "scale" : [
                1.0000001192092896,
                0.9999999403953552,
                1
            ],
            "translation" : [
                -2.845345079549588e-07,
                1.1689552068710327,
                -1.8742866814136505e-07
            ]
        },
        {
            "children" : [
                7
            ],
            "name" : "ene_majin02f_dino_Bone_9",
            "rotation" : [
                0.014088617637753487,
                -0.0173239354044199,
                -0.3552910089492798,
                0.9344890117645264
            ],
            "scale" : [
                1,
                0.9999999403953552,
                1
            ],
            "translation" : [
                0.34603217244148254,
                0.3893475830554962,
                0.0061430372297763824
            ]
        },
        {
            "children" : [
                8
            ],
            "name" : "ene_majin02f_dino_Bone_8",
            "rotation" : [
                -0.30112090706825256,
                0.6449494957923889,
                0.644949734210968,
                0.27821964025497437
            ],
            "scale" : [
                1,
                1.0000001192092896,
                1
            ],
            "translation" : [
                -0.48000064492225647,
                -2.2351507311668684e-08,
                -0.5400001406669617
            ]
        },
        {
            "name" : "ene_majin02f_dino_Bone_16",
            "rotation" : [
                0.0011580324498936534,
                0.0012049861252307892,
                -0.08102944493293762,
                0.9967104196548462
            ],
            "scale" : [
                0.9999998807907104,
                0.9999999403953552,
                0.9999998807907104
            ],
            "translation" : [
                2.219903763034381e-07,
                0.4402486979961395,
                3.2741809263825417e-08
            ]
        },
        {
            "name" : "ene_majin02f_dino_Bone_17",
            "rotation" : [
                0.5731354355812073,
                0.4916555881500244,
                0.6141799688339233,
                0.2292892187833786
            ],
            "scale" : [
                0.9999999403953552,
                0.9999999403953552,
                1
            ],
            "translation" : [
                0.0339624397456646,
                0.05543838068842888,
                0.14419883489608765
            ]
        },
        {
            "children" : [
                10,
                11
            ],
            "name" : "ene_majin02f_dino_Bone_15",
            "rotation" : [
                -0.0060941600240767,
                -0.0054367962293326855,
                0.07474201172590256,
                0.9971694946289062
            ],
            "scale" : [
                1,
                0.9999999403953552,
                1
            ],
            "translation" : [
                -3.288878360763192e-07,
                1.168954610824585,
                3.627501428127289e-07
            ]
        },
        {
            "children" : [
                12
            ],
            "name" : "ene_majin02f_dino_Bone_14",
            "rotation" : [
                0.016096552833914757,
                0.019222939386963844,
                0.3552055060863495,
                0.9344519376754761
            ],
            "scale" : [
                0.9999999403953552,
                1.0000001192092896,
                1
            ],
            "translation" : [
                -0.3459746539592743,
                0.3893481194972992,
                0.008802098222076893
            ]
        },
        {
            "children" : [
                13
            ],
            "name" : "ene_majin02f_dino_Bone_13",
            "rotation" : [
                -0.3032205402851105,
                -0.6449081301689148,
                -0.6449078321456909,
                0.276124507188797
            ],
            "scale" : [
                1.0000001192092896,
                1.0000001192092896,
                1
            ],
            "translation" : [
                0.4799996018409729,
                3.650789324183279e-07,
                -0.5400007367134094
            ]
        },
        {
            "children" : [
                4,
                9,
                14
            ],
            "name" : "ene_majin02f_dino_Bone_2",
            "rotation" : [
                0.7071068286895752,
                -1.0048593088261143e-13,
                -6.293968226600555e-07,
                0.7071068286895752
            ],
            "translation" : [
                -3.5783936696620546e-20,
                1.1922384146600962e-07,
                -8.939423423726112e-09
            ]
        },
        {
            "name" : "ene_majin02f_dino_Bone_21",
            "rotation" : [
                -8.742244972381741e-08,
                1.7021848747146226e-14,
                8.742280499518529e-08,
                1
            ],
            "translation" : [
                -3.198550780586875e-15,
                0.2900000810623169,
                3.8013754470600514e-14
            ]
        },
        {
            "children" : [
                16
            ],
            "name" : "ene_majin02f_dino_Bone_20",
            "rotation" : [
                2.75813398786795e-08,
                5.364219290981964e-08,
                7.549787284233389e-08,
                1
            ],
            "translation" : [
                -5.404287043916933e-15,
                0.3550001084804535,
                -1.124385207162959e-08
            ]
        },
        {
            "children" : [
                17
            ],
            "name" : "ene_majin02f_dino_Bone_19",
            "rotation" : [
                2.247644914632474e-08,
                0.7071068286895752,
                0.7071068286895752,
                5.338508302088485e-08
            ],
            "translation" : [
                -1.923303294404377e-08,
                2.9802322387695312e-08,
                0.4399999976158142
            ]
        },
        {
            "children" : [
                18
            ],
            "name" : "ene_majin02f_dino_Bone_18",
            "rotation" : [
                0.7071068286895752,
                -1.1286739771965149e-13,
                1.1286739771965149e-13,
                0.7071068286895752
            ],
            "translation" : [
                5.908375339586109e-20,
                1.1922384146600962e-07,
                -8.939423423726112e-09
            ]
        },
        {
            "children" : [
                15,
                19
            ],
            "name" : "ene_majin02f_dino_Bone_1",
            "rotation" : [
                -0.7071080803871155,
                -5.3385068810030134e-08,
                -5.3385097231739564e-08,
                0.7071055769920349
            ],
            "translation" : [
                1.6383046386181377e-07,
                -3.874301910400391e-06,
                -1.0849997997283936
            ]
        },
        {
            "name" : "ene_majin02f_dino_Bone_22",
            "rotation" : [
                -1.809995410440024e-06,
                4.946738586414118e-19,
                -2.710505431213761e-20,
                1
            ],
            "translation" : [
                -3.389564410908181e-21,
                2.9888361977013695e-26,
                3.619991559844493e-07
            ]
        },
        {
            "children" : [
                20,
                21
            ],
            "name" : "ene_majin02f_dino_Bone_0",
            "rotation" : [
                0.7071093320846558,
                5.338507946817117e-08,
                5.338507946817117e-08,
                0.7071042060852051
            ]
        },
        {
            "mesh" : 0,
            "name" : "RedMajinMesh",
            "skin" : 0
        },
        {
            "children" : [
                23,
                22
            ],
            "name" : "RedMajinRoot"
        }
    ],
    "materials" : [
        {
            "extensions" : {
                "KHR_materials_specular" : {
                    "specularColorFactor" : [
                        0,
                        0,
                        0
                    ]
                },
                "KHR_materials_ior" : {
                    "ior" : 1.4500000476837158
                }
            },
            "name" : "Red Majin Body",
            "pbrMetallicRoughness" : {
                "baseColorTexture" : {
                    "index" : 0,
                    "texCoord" : 1
                },
                "metallicFactor" : 0
            }
        },
        {
            "alphaMode" : "BLEND",
            "doubleSided" : true,
            "extensions" : {
                "KHR_materials_specular" : {
                    "specularColorFactor" : [
                        0,
                        0,
                        0
                    ]
                },
                "KHR_materials_ior" : {
                    "ior" : 1.4500000476837158
                }
            },
            "name" : "Red Majin Leaf",
            "pbrMetallicRoughness" : {
                "baseColorTexture" : {
                    "index" : 1
                },
                "metallicFactor" : 0
            }
        }
    ],
    "meshes" : [
        {
            "name" : "RedMajinMesh",
            "primitives" : [
                {
                    "attributes" : {
                        "POSITION" : 0,
                        "NORMAL" : 1,
                        "TEXCOORD_0" : 2,
                        "TEXCOORD_1" : 3,
                        "COLOR_0" : 4,
                        "JOINTS_0" : 5,
                        "WEIGHTS_0" : 6
                    },
                    "indices" : 7,
                    "material" : 0
                },
                {
                    "attributes" : {
                        "POSITION" : 8,
                        "NORMAL" : 9,
                        "TEXCOORD_0" : 10,
                        "TEXCOORD_1" : 11,
                        "COLOR_0" : 12,
                        "JOINTS_0" : 13,
                        "WEIGHTS_0" : 14
                    },
                    "indices" : 15,
                    "material" : 1
                }
            ]
        }
    ],
    "textures" : [
        {
            "sampler" : 0,
            "source" : 0
        },
        {
            "sampler" : 0,
            "source" : 1
        }
    ],
    "images" : [
        {
            "bufferView" : 8,
            "mimeType" : "image/png",
            "name" : "red majin body"
        },
        {
            "bufferView" : 17,
            "mimeType" : "image/png",
            "name" : "red majin leaf"
        }
    ],
    "skins" : [
        {
            "inverseBindMatrices" : 16,
            "joints" : [
                22,
                20,
                15,
                4,
                0,
                1,
                2,
                3,
                9,
                8,
                7,
                5,
                6,
                14,
                13,
                12,
                10,
                11,
                19,
                18,
                17,
                16,
                21
            ],
            "name" : "RedMajinRoot"
        }
    ],
    "accessors" : [
        {
            "bufferView" : 0,
            "componentType" : 5126,
            "count" : 1388,
            "max" : [
                2.921321392059326,
                2.380134344100952,
                0.43315234780311584
            ],
            "min" : [
                -2.9213204383850098,
                -0.3058895766735077,
                -0.4320649206638336
            ],
            "type" : "VEC3"
        },
        {
            "bufferView" : 1,
            "componentType" : 5126,
            "count" : 1388,
            "type" : "VEC3"
        },
        {
            "bufferView" : 2,
            "componentType" : 5126,
            "count" : 1388,
            "type" : "VEC2"
        },
        {
            "bufferView" : 3,
            "componentType" : 5126,
            "count" : 1388,
            "type" : "VEC2"
        },
        {
            "bufferView" : 4,
            "componentType" : 5123,
            "count" : 1388,
            "normalized" : true,
            "type" : "VEC4"
        },
        {
            "bufferView" : 5,
            "componentType" : 5121,
            "count" : 1388,
            "type" : "VEC4"
        },
        {
            "bufferView" : 6,
            "componentType" : 5126,
            "count" : 1388,
            "type" : "VEC4"
        },
        {
            "bufferView" : 7,
            "componentType" : 5123,
            "count" : 5214,
            "type" : "SCALAR"
        },
        {
            "bufferView" : 9,
            "componentType" : 5126,
            "count" : 278,
            "max" : [
                2.283653736114502,
                2.8939599990844727,
                0.5520496964454651
            ],
            "min" : [
                -2.283653736114502,
                0.18005244433879852,
                -0.82720547914505
            ],
            "type" : "VEC3"
        },
        {
            "bufferView" : 10,
            "componentType" : 5126,
            "count" : 278,
            "type" : "VEC3"
        },
        {
            "bufferView" : 11,
            "componentType" : 5126,
            "count" : 278,
            "type" : "VEC2"
        },
        {
            "bufferView" : 12,
            "componentType" : 5126,
            "count" : 278,
            "type" : "VEC2"
        },
        {
            "bufferView" : 13,
            "componentType" : 5123,
            "count" : 278,
            "normalized" : true,
            "type" : "VEC4"
        },
        {
            "bufferView" : 14,
            "componentType" : 5121,
            "count" : 278,
            "type" : "VEC4"
        },
        {
            "bufferView" : 15,
            "componentType" : 5126,
            "count" : 278,
            "type" : "VEC4"
        },
        {
            "bufferView" : 16,
            "componentType" : 5123,
            "count" : 528,
            "type" : "SCALAR"
        },
        {
            "bufferView" : 18,
            "componentType" : 5126,
            "count" : 23,
            "type" : "MAT4"
        }
    ],
    "bufferViews" : [
        {
            "buffer" : 0,
            "byteLength" : 16656,
            "byteOffset" : 0,
            "target" : 34962
        },
        {
            "buffer" : 0,
            "byteLength" : 16656,
            "byteOffset" : 16656,
            "target" : 34962
        },
        {
            "buffer" : 0,
            "byteLength" : 11104,
            "byteOffset" : 33312,
            "target" : 34962
        },
        {
            "buffer" : 0,
            "byteLength" : 11104,
            "byteOffset" : 44416,
            "target" : 34962
        },
        {
            "buffer" : 0,
            "byteLength" : 11104,
            "byteOffset" : 55520,
            "target" : 34962
        },
        {
            "buffer" : 0,
            "byteLength" : 5552,
            "byteOffset" : 66624,
            "target" : 34962
        },
        {
            "buffer" : 0,
            "byteLength" : 22208,
            "byteOffset" : 72176,
            "target" : 34962
        },
        {
            "buffer" : 0,
            "byteLength" : 10428,
            "byteOffset" : 94384,
            "target" : 34963
        },
        {
            "buffer" : 0,
            "byteLength" : 56890,
            "byteOffset" : 104812
        },
        {
            "buffer" : 0,
            "byteLength" : 3336,
            "byteOffset" : 161704,
            "target" : 34962
        },
        {
            "buffer" : 0,
            "byteLength" : 3336,
            "byteOffset" : 165040,
            "target" : 34962
        },
        {
            "buffer" : 0,
            "byteLength" : 2224,
            "byteOffset" : 168376,
            "target" : 34962
        },
        {
            "buffer" : 0,
            "byteLength" : 2224,
            "byteOffset" : 170600,
            "target" : 34962
        },
        {
            "buffer" : 0,
            "byteLength" : 2224,
            "byteOffset" : 172824,
            "target" : 34962
        },
        {
            "buffer" : 0,
            "byteLength" : 1112,
            "byteOffset" : 175048,
            "target" : 34962
        },
        {
            "buffer" : 0,
            "byteLength" : 4448,
            "byteOffset" : 176160,
            "target" : 34962
        },
        {
            "buffer" : 0,
            "byteLength" : 1056,
            "byteOffset" : 180608,
            "target" : 34963
        },
        {
            "buffer" : 0,
            "byteLength" : 6803,
            "byteOffset" : 181664
        },
        {
            "buffer" : 0,
            "byteLength" : 1472,
            "byteOffset" : 188468
        }
    ],
    "samplers" : [
        {
            "magFilter" : 9729,
            "minFilter" : 9987
        }
    ],
    "buffers" : [
        {
            "byteLength" : 189940,
            "uri" : "data:application/octet-stream;base64,"
        }
    ]
}
