{
    "asset" : {
        "generator" : "Khronos glTF Blender I/O v1.8.19",
        "version" : "2.0"
    },
    "scene" : 0,
    "scenes" : [
        {
            "name" : "Scene",
            "nodes" : [
                0,
                1,
                2,
                3,
                4
            ]
        }
    ],
    "nodes" : [
        {
            "mesh" : 0,
            "name" : "Floor"
        },
        {
            "mesh" : 1,
            "name" : "BoatWall1"
        },
        {
            "mesh" : 2,
            "name" : "BoatWall2"
        },
        {
            "mesh" : 3,
            "name" : "Wall"
        },
        {
            "mesh" : 4,
            "name" : "ReverseWall"
        }
    ],
    "meshes" : [
        {
            "name" : "Floor",
            "primitives" : [
                {
                    "attributes" : {
                        "POSITION" : 0,
                        "NORMAL" : 1
                    },
                    "indices" : 2
                }
            ]
        },
        {
            "name" : "BoatWall1",
            "primitives" : [
                {
                    "attributes" : {
                        "POSITION" : 3,
                        "NORMAL" : 4,
                        "TEXCOORD_0" : 5,
                        "COLOR_0" : 6
                    },
                    "indices" : 7
                }
            ]
        },
        {
            "name" : "BoatWall2",
            "primitives" : [
                {
                    "attributes" : {
                        "POSITION" : 8,
                        "NORMAL" : 9,
                        "TEXCOORD_0" : 10,
                        "COLOR_0" : 11
                    },
                    "indices" : 12
                }
            ]
        },
        {
            "name" : "Wall",
            "primitives" : [
                {
                    "attributes" : {
                        "POSITION" : 13,
                        "NORMAL" : 14
                    },
                    "indices" : 15
                }
            ]
        },
        {
            "name" : "ReverseWall",
            "primitives" : [
                {
                    "attributes" : {
                        "POSITION" : 16,
                        "NORMAL" : 17
                    },
                    "indices" : 18
                }
            ]
        }
    ],
    "accessors" : [
        {
            "bufferView" : 0,
            "componentType" : 5126,
            "count" : 311,
            "max" : [
                -278.29534912109375,
                -257.1618347167969,
                -873.426025390625
            ],
            "min" : [
                -482.5665283203125,
                -277.0831298828125,
                -1187.322509765625
            ],
            "type" : "VEC3"
        },
        {
            "bufferView" : 1,
            "componentType" : 5126,
            "count" : 311,
            "type" : "VEC3"
        },
        {
            "bufferView" : 2,
            "componentType" : 5123,
            "count" : 777,
            "type" : "SCALAR"
        },
        {
            "bufferView" : 3,
            "componentType" : 5126,
            "count" : 32,
            "max" : [
                -414.07220458984375,
                -258.73773193359375,
                -993.6204223632812
            ],
            "min" : [
                -438.935302734375,
                -285.9542541503906,
                -999.51318359375
            ],
            "type" : "VEC3"
        },
        {
            "bufferView" : 4,
            "componentType" : 5126,
            "count" : 32,
            "type" : "VEC3"
        },
        {
            "bufferView" : 5,
            "componentType" : 5126,
            "count" : 32,
            "type" : "VEC2"
        },
        {
            "bufferView" : 6,
            "componentType" : 5123,
            "count" : 32,
            "normalized" : true,
            "type" : "VEC4"
        },
        {
            "bufferView" : 7,
            "componentType" : 5123,
            "count" : 48,
            "type" : "SCALAR"
        },
        {
            "bufferView" : 8,
            "componentType" : 5126,
            "count" : 32,
            "max" : [
                -416.38531494140625,
                -258.73773193359375,
                -992.0181274414062
            ],
            "min" : [
                -439.51568603515625,
                -285.9542541503906,
                -997.2027587890625
            ],
            "type" : "VEC3"
        },
        {
            "bufferView" : 9,
            "componentType" : 5126,
            "count" : 32,
            "type" : "VEC3"
        },
        {
            "bufferView" : 10,
            "componentType" : 5126,
            "count" : 32,
            "type" : "VEC2"
        },
        {
            "bufferView" : 11,
            "componentType" : 5123,
            "count" : 32,
            "normalized" : true,
            "type" : "VEC4"
        },
        {
            "bufferView" : 12,
            "componentType" : 5123,
            "count" : 48,
            "type" : "SCALAR"
        },
        {
            "bufferView" : 13,
            "componentType" : 5126,
            "count" : 2123,
            "max" : [
                -272.2392578125,
                -229.95260620117188,
                -873.5382080078125
            ],
            "min" : [
                -482.4763488769531,
                -307.9963684082031,
                -1177.439453125
            ],
            "type" : "VEC3"
        },
        {
            "bufferView" : 14,
            "componentType" : 5126,
            "count" : 2123,
            "type" : "VEC3"
        },
        {
            "bufferView" : 15,
            "componentType" : 5123,
            "count" : 3453,
            "type" : "SCALAR"
        },
        {
            "bufferView" : 16,
            "componentType" : 5126,
            "count" : 4,
            "max" : [
                -336.4170227050781,
                -249.1412353515625,
                -1104.979248046875
            ],
            "min" : [
                -339.9230041503906,
                -285.9486083984375,
                -1112.452880859375
            ],
            "type" : "VEC3"
        },
        {
            "bufferView" : 17,
            "componentType" : 5126,
            "count" : 4,
            "type" : "VEC3"
        },
        {
            "bufferView" : 18,
            "componentType" : 5123,
            "count" : 6,
            "type" : "SCALAR"
        }
    ],
    "bufferViews" : [
        {
            "buffer" : 0,
            "byteLength" : 3732,
            "byteOffset" : 0
        },
        {
            "buffer" : 0,
            "byteLength" : 3732,
            "byteOffset" : 3732
        },
        {
            "buffer" : 0,
            "byteLength" : 1554,
            "byteOffset" : 7464
        },
        {
            "buffer" : 0,
            "byteLength" : 384,
            "byteOffset" : 9020
        },
        {
            "buffer" : 0,
            "byteLength" : 384,
            "byteOffset" : 9404
        },
        {
            "buffer" : 0,
            "byteLength" : 256,
            "byteOffset" : 9788
        },
        {
            "buffer" : 0,
            "byteLength" : 256,
            "byteOffset" : 10044
        },
        {
            "buffer" : 0,
            "byteLength" : 96,
            "byteOffset" : 10300
        },
        {
            "buffer" : 0,
            "byteLength" : 384,
            "byteOffset" : 10396
        },
        {
            "buffer" : 0,
            "byteLength" : 384,
            "byteOffset" : 10780
        },
        {
            "buffer" : 0,
            "byteLength" : 256,
            "byteOffset" : 11164
        },
        {
            "buffer" : 0,
            "byteLength" : 256,
            "byteOffset" : 11420
        },
        {
            "buffer" : 0,
            "byteLength" : 96,
            "byteOffset" : 11676
        },
        {
            "buffer" : 0,
            "byteLength" : 25476,
            "byteOffset" : 11772
        },
        {
            "buffer" : 0,
            "byteLength" : 25476,
            "byteOffset" : 37248
        },
        {
            "buffer" : 0,
            "byteLength" : 6906,
            "byteOffset" : 62724
        },
        {
            "buffer" : 0,
            "byteLength" : 48,
            "byteOffset" : 69632
        },
        {
            "buffer" : 0,
            "byteLength" : 48,
            "byteOffset" : 69680
        },
        {
            "buffer" : 0,
            "byteLength" : 12,
            "byteOffset" : 69728
        }
    ],
    "buffers" : [
        {
            "byteLength" : 69740,
            "uri" : "data:application/octet-stream;base64,"
        }
    ]
}
