{
    "asset" : {
        "generator" : "Khronos glTF Blender I/O v3.3.36",
        "version" : "2.0"
    },
    "extensionsUsed" : [
        "KHR_materials_specular",
        "KHR_materials_ior"
    ],
    "scene" : 0,
    "scenes" : [
        {
            "name" : "Scene",
            "nodes" : [
                0,
                1,
                2,
                3,
                4
            ]
        }
    ],
    "nodes" : [
        {
            "mesh" : 0,
            "name" : "stg022_falls_w_03_Mesh_0000"
        },
        {
            "mesh" : 1,
            "name" : "stg022_falls_w_03_Mesh_0001"
        },
        {
            "mesh" : 2,
            "name" : "stg022_falls_w_03_Mesh_0002"
        },
        {
            "mesh" : 3,
            "name" : "stg022_o03_Mesh_0009"
        },
        {
            "mesh" : 4,
            "name" : "stg022_o03_Mesh_0016"
        }
    ],
    "materials" : [
        {
            "alphaMode" : "BLEND",
            "doubleSided" : true,
            "extensions" : {
                "KHR_materials_specular" : {
                    "specularColorFactor" : [
                        0,
                        0,
                        0
                    ]
                },
                "KHR_materials_ior" : {
                    "ior" : 1.4500000476837158
                }
            },
            "name" : "Falls",
            "pbrMetallicRoughness" : {
                "baseColorFactor" : [
                    0.800000011920929,
                    0.800000011920929,
                    0.800000011920929,
                    1
                ],
                "metallicFactor" : 0
            }
        },
        {
            "extensions" : {
                "KHR_materials_specular" : {
                    "specularColorFactor" : [
                        0,
                        0,
                        0
                    ]
                },
                "KHR_materials_ior" : {
                    "ior" : 1.4500000476837158
                }
            },
            "name" : "Cactus Wall",
            "pbrMetallicRoughness" : {
                "baseColorFactor" : [
                    0.800000011920929,
                    0.800000011920929,
                    0.800000011920929,
                    1
                ],
                "metallicFactor" : 0
            }
        },
        {
            "extensions" : {
                "KHR_materials_specular" : {
                    "specularColorFactor" : [
                        0,
                        0,
                        0
                    ]
                },
                "KHR_materials_ior" : {
                    "ior" : 1.4500000476837158
                }
            },
            "name" : "Rock Wall",
            "pbrMetallicRoughness" : {
                "baseColorFactor" : [
                    0.800000011920929,
                    0.800000011920929,
                    0.800000011920929,
                    1
                ],
                "metallicFactor" : 0
            }
        }
    ],
    "meshes" : [
        {
            "name" : "stg022_falls_w_03_Mesh_0000",
            "primitives" : [
                {
                    "attributes" : {
                        "POSITION" : 0,
                        "NORMAL" : 1,
                        "TEXCOORD_0" : 2,
                        "TEXCOORD_1" : 3,
                        "COLOR_0" : 4
                    },
                    "indices" : 5,
                    "material" : 0
                }
            ]
        },
        {
            "name" : "stg022_falls_w_03_Mesh_0001",
            "primitives" : [
                {
                    "attributes" : {
                        "POSITION" : 6,
                        "NORMAL" : 7,
                        "TEXCOORD_0" : 8,
                        "TEXCOORD_1" : 9,
                        "COLOR_0" : 10
                    },
                    "indices" : 11,
                    "material" : 0
                }
            ]
        },
        {
            "name" : "stg022_falls_w_03_Mesh_0002",
            "primitives" : [
                {
                    "attributes" : {
                        "POSITION" : 12,
                        "NORMAL" : 13,
                        "TEXCOORD_0" : 14,
                        "TEXCOORD_1" : 15,
                        "COLOR_0" : 16
                    },
                    "indices" : 17,
                    "material" : 0
                }
            ]
        },
        {
            "name" : "stg022_o03_Mesh_0009",
            "primitives" : [
                {
                    "attributes" : {
                        "POSITION" : 18,
                        "NORMAL" : 19,
                        "TEXCOORD_0" : 20,
                        "COLOR_0" : 21
                    },
                    "indices" : 22,
                    "material" : 1
                }
            ]
        },
        {
            "name" : "stg022_o03_Mesh_0016",
            "primitives" : [
                {
                    "attributes" : {
                        "POSITION" : 23,
                        "NORMAL" : 24,
                        "TEXCOORD_0" : 25,
                        "COLOR_0" : 26
                    },
                    "indices" : 27,
                    "material" : 2
                }
            ]
        }
    ],
    "accessors" : [
        {
            "bufferView" : 0,
            "componentType" : 5126,
            "count" : 77,
            "max" : [
                -348.17462158203125,
                -189.4547119140625,
                -521.0533447265625
            ],
            "min" : [
                -376.5329895019531,
                -237.1355438232422,
                -584.3897094726562
            ],
            "type" : "VEC3"
        },
        {
            "bufferView" : 1,
            "componentType" : 5126,
            "count" : 77,
            "type" : "VEC3"
        },
        {
            "bufferView" : 2,
            "componentType" : 5126,
            "count" : 77,
            "type" : "VEC2"
        },
        {
            "bufferView" : 3,
            "componentType" : 5126,
            "count" : 77,
            "type" : "VEC2"
        },
        {
            "bufferView" : 4,
            "componentType" : 5123,
            "count" : 77,
            "normalized" : true,
            "type" : "VEC4"
        },
        {
            "bufferView" : 5,
            "componentType" : 5123,
            "count" : 360,
            "type" : "SCALAR"
        },
        {
            "bufferView" : 6,
            "componentType" : 5126,
            "count" : 77,
            "max" : [
                -349.2529296875,
                -187.52169799804688,
                -521.1018676757812
            ],
            "min" : [
                -376.5649108886719,
                -237.11749267578125,
                -590.5073852539062
            ],
            "type" : "VEC3"
        },
        {
            "bufferView" : 7,
            "componentType" : 5126,
            "count" : 77,
            "type" : "VEC3"
        },
        {
            "bufferView" : 8,
            "componentType" : 5126,
            "count" : 77,
            "type" : "VEC2"
        },
        {
            "bufferView" : 9,
            "componentType" : 5126,
            "count" : 77,
            "type" : "VEC2"
        },
        {
            "bufferView" : 10,
            "componentType" : 5123,
            "count" : 77,
            "normalized" : true,
            "type" : "VEC4"
        },
        {
            "bufferView" : 11,
            "componentType" : 5123,
            "count" : 360,
            "type" : "SCALAR"
        },
        {
            "bufferView" : 12,
            "componentType" : 5126,
            "count" : 77,
            "max" : [
                -350.7960510253906,
                -188.70852661132812,
                -521.0969848632812
            ],
            "min" : [
                -374.9915771484375,
                -237.11752319335938,
                -587.593505859375
            ],
            "type" : "VEC3"
        },
        {
            "bufferView" : 13,
            "componentType" : 5126,
            "count" : 77,
            "type" : "VEC3"
        },
        {
            "bufferView" : 14,
            "componentType" : 5126,
            "count" : 77,
            "type" : "VEC2"
        },
        {
            "bufferView" : 15,
            "componentType" : 5126,
            "count" : 77,
            "type" : "VEC2"
        },
        {
            "bufferView" : 16,
            "componentType" : 5123,
            "count" : 77,
            "normalized" : true,
            "type" : "VEC4"
        },
        {
            "bufferView" : 17,
            "componentType" : 5123,
            "count" : 360,
            "type" : "SCALAR"
        },
        {
            "bufferView" : 18,
            "componentType" : 5126,
            "count" : 2583,
            "max" : [
                -271.7159729003906,
                -128.76846313476562,
                -483.4730529785156
            ],
            "min" : [
                -434.7344665527344,
                -261.1351318359375,
                -630.8734741210938
            ],
            "type" : "VEC3"
        },
        {
            "bufferView" : 19,
            "componentType" : 5126,
            "count" : 2583,
            "type" : "VEC3"
        },
        {
            "bufferView" : 20,
            "componentType" : 5126,
            "count" : 2583,
            "type" : "VEC2"
        },
        {
            "bufferView" : 21,
            "componentType" : 5123,
            "count" : 2583,
            "normalized" : true,
            "type" : "VEC4"
        },
        {
            "bufferView" : 22,
            "componentType" : 5123,
            "count" : 12084,
            "type" : "SCALAR"
        },
        {
            "bufferView" : 23,
            "componentType" : 5126,
            "count" : 65,
            "max" : [
                -277.2044677734375,
                -176.03103637695312,
                -556.4963989257812
            ],
            "min" : [
                -429.44024658203125,
                -256.4364318847656,
                -632.7073974609375
            ],
            "type" : "VEC3"
        },
        {
            "bufferView" : 24,
            "componentType" : 5126,
            "count" : 65,
            "type" : "VEC3"
        },
        {
            "bufferView" : 25,
            "componentType" : 5126,
            "count" : 65,
            "type" : "VEC2"
        },
        {
            "bufferView" : 26,
            "componentType" : 5123,
            "count" : 65,
            "normalized" : true,
            "type" : "VEC4"
        },
        {
            "bufferView" : 27,
            "componentType" : 5123,
            "count" : 288,
            "type" : "SCALAR"
        }
    ],
    "bufferViews" : [
        {
            "buffer" : 0,
            "byteLength" : 924,
            "byteOffset" : 0,
            "target" : 34962
        },
        {
            "buffer" : 0,
            "byteLength" : 924,
            "byteOffset" : 924,
            "target" : 34962
        },
        {
            "buffer" : 0,
            "byteLength" : 616,
            "byteOffset" : 1848,
            "target" : 34962
        },
        {
            "buffer" : 0,
            "byteLength" : 616,
            "byteOffset" : 2464,
            "target" : 34962
        },
        {
            "buffer" : 0,
            "byteLength" : 616,
            "byteOffset" : 3080,
            "target" : 34962
        },
        {
            "buffer" : 0,
            "byteLength" : 720,
            "byteOffset" : 3696,
            "target" : 34963
        },
        {
            "buffer" : 0,
            "byteLength" : 924,
            "byteOffset" : 4416,
            "target" : 34962
        },
        {
            "buffer" : 0,
            "byteLength" : 924,
            "byteOffset" : 5340,
            "target" : 34962
        },
        {
            "buffer" : 0,
            "byteLength" : 616,
            "byteOffset" : 6264,
            "target" : 34962
        },
        {
            "buffer" : 0,
            "byteLength" : 616,
            "byteOffset" : 6880,
            "target" : 34962
        },
        {
            "buffer" : 0,
            "byteLength" : 616,
            "byteOffset" : 7496,
            "target" : 34962
        },
        {
            "buffer" : 0,
            "byteLength" : 720,
            "byteOffset" : 8112,
            "target" : 34963
        },
        {
            "buffer" : 0,
            "byteLength" : 924,
            "byteOffset" : 8832,
            "target" : 34962
        },
        {
            "buffer" : 0,
            "byteLength" : 924,
            "byteOffset" : 9756,
            "target" : 34962
        },
        {
            "buffer" : 0,
            "byteLength" : 616,
            "byteOffset" : 10680,
            "target" : 34962
        },
        {
            "buffer" : 0,
            "byteLength" : 616,
            "byteOffset" : 11296,
            "target" : 34962
        },
        {
            "buffer" : 0,
            "byteLength" : 616,
            "byteOffset" : 11912,
            "target" : 34962
        },
        {
            "buffer" : 0,
            "byteLength" : 720,
            "byteOffset" : 12528,
            "target" : 34963
        },
        {
            "buffer" : 0,
            "byteLength" : 30996,
            "byteOffset" : 13248,
            "target" : 34962
        },
        {
            "buffer" : 0,
            "byteLength" : 30996,
            "byteOffset" : 44244,
            "target" : 34962
        },
        {
            "buffer" : 0,
            "byteLength" : 20664,
            "byteOffset" : 75240,
            "target" : 34962
        },
        {
            "buffer" : 0,
            "byteLength" : 20664,
            "byteOffset" : 95904,
            "target" : 34962
        },
        {
            "buffer" : 0,
            "byteLength" : 24168,
            "byteOffset" : 116568,
            "target" : 34963
        },
        {
            "buffer" : 0,
            "byteLength" : 780,
            "byteOffset" : 140736,
            "target" : 34962
        },
        {
            "buffer" : 0,
            "byteLength" : 780,
            "byteOffset" : 141516,
            "target" : 34962
        },
        {
            "buffer" : 0,
            "byteLength" : 520,
            "byteOffset" : 142296,
            "target" : 34962
        },
        {
            "buffer" : 0,
            "byteLength" : 520,
            "byteOffset" : 142816,
            "target" : 34962
        },
        {
            "buffer" : 0,
            "byteLength" : 576,
            "byteOffset" : 143336,
            "target" : 34963
        }
    ],
    "buffers" : [
        {
            "byteLength" : 143912,
            "uri" : "data:application/octet-stream;base64,"
        }
    ]
}
