{
    "asset" : {
        "generator" : "Khronos glTF Blender I/O v1.8.19",
        "version" : "2.0"
    },
    "scene" : 0,
    "scenes" : [
        {
            "name" : "Scene",
            "nodes" : [
                0,
                1,
                2,
                3
            ]
        }
    ],
    "nodes" : [
        {
            "mesh" : 0,
            "name" : "VFXRays2"
        },
        {
            "mesh" : 1,
            "name" : "VFXRays"
        },
        {
            "mesh" : 2,
            "name" : "ButtonBase"
        },
        {
            "mesh" : 3,
            "name" : "Button"
        }
    ],
    "materials" : [
        {
            "alphaMode" : "BLEND",
            "doubleSided" : true,
            "name" : "VfxRays",
            "pbrMetallicRoughness" : {
                "baseColorTexture" : {
                    "index" : 0
                },
                "roughnessFactor" : 0.5527864098548889
            }
        },
        {
            "name" : "Button",
            "pbrMetallicRoughness" : {
                "baseColorTexture" : {
                    "index" : 1
                },
                "metallicFactor" : 0
            }
        }
    ],
    "meshes" : [
        {
            "name" : "VFXRays2",
            "primitives" : [
                {
                    "attributes" : {
                        "POSITION" : 0,
                        "NORMAL" : 1,
                        "TEXCOORD_0" : 2
                    },
                    "indices" : 3,
                    "material" : 0
                }
            ]
        },
        {
            "name" : "VFXRays",
            "primitives" : [
                {
                    "attributes" : {
                        "POSITION" : 4,
                        "NORMAL" : 5,
                        "TEXCOORD_0" : 6
                    },
                    "indices" : 3,
                    "material" : 0
                }
            ]
        },
        {
            "name" : "ButtonBase",
            "primitives" : [
                {
                    "attributes" : {
                        "POSITION" : 7,
                        "NORMAL" : 8,
                        "TEXCOORD_0" : 9
                    },
                    "indices" : 10,
                    "material" : 1
                }
            ]
        },
        {
            "name" : "Button",
            "primitives" : [
                {
                    "attributes" : {
                        "POSITION" : 11,
                        "NORMAL" : 12,
                        "TEXCOORD_0" : 13
                    },
                    "indices" : 14,
                    "material" : 1
                }
            ]
        }
    ],
    "textures" : [
        {
            "sampler" : 0,
            "source" : 0
        },
        {
            "sampler" : 0,
            "source" : 1
        }
    ],
    "images" : [
        {
            "bufferView" : 4,
            "mimeType" : "image/png",
            "name" : "vfx rays"
        },
        {
            "bufferView" : 12,
            "mimeType" : "image/png",
            "name" : "button"
        }
    ],
    "accessors" : [
        {
            "bufferView" : 0,
            "componentType" : 5126,
            "count" : 48,
            "max" : [
                1.4931018352508545,
                0.8759088516235352,
                1.585636019706726
            ],
            "min" : [
                -1.4931025505065918,
                0.05055129900574684,
                -1.5856362581253052
            ],
            "type" : "VEC3"
        },
        {
            "bufferView" : 1,
            "componentType" : 5126,
            "count" : 48,
            "type" : "VEC3"
        },
        {
            "bufferView" : 2,
            "componentType" : 5126,
            "count" : 48,
            "type" : "VEC2"
        },
        {
            "bufferView" : 3,
            "componentType" : 5123,
            "count" : 72,
            "type" : "SCALAR"
        },
        {
            "bufferView" : 5,
            "componentType" : 5126,
            "count" : 48,
            "max" : [
                1.461917757987976,
                1.1773934364318848,
                1.4932427406311035
            ],
            "min" : [
                -1.4619183540344238,
                0.05055129900574684,
                -1.4932420253753662
            ],
            "type" : "VEC3"
        },
        {
            "bufferView" : 6,
            "componentType" : 5126,
            "count" : 48,
            "type" : "VEC3"
        },
        {
            "bufferView" : 7,
            "componentType" : 5126,
            "count" : 48,
            "type" : "VEC2"
        },
        {
            "bufferView" : 8,
            "componentType" : 5126,
            "count" : 96,
            "max" : [
                1.4999998807907104,
                0.1296490877866745,
                1.4999998807907104
            ],
            "min" : [
                -1.4999998807907104,
                -2.443810274144198e-07,
                -1.4999998807907104
            ],
            "type" : "VEC3"
        },
        {
            "bufferView" : 9,
            "componentType" : 5126,
            "count" : 96,
            "type" : "VEC3"
        },
        {
            "bufferView" : 10,
            "componentType" : 5126,
            "count" : 96,
            "type" : "VEC2"
        },
        {
            "bufferView" : 11,
            "componentType" : 5123,
            "count" : 144,
            "type" : "SCALAR"
        },
        {
            "bufferView" : 13,
            "componentType" : 5126,
            "count" : 169,
            "max" : [
                1.2053295373916626,
                0.3479686379432678,
                1.2053292989730835
            ],
            "min" : [
                -1.2053296566009521,
                -0.0006969261448830366,
                -1.2053292989730835
            ],
            "type" : "VEC3"
        },
        {
            "bufferView" : 14,
            "componentType" : 5126,
            "count" : 169,
            "type" : "VEC3"
        },
        {
            "bufferView" : 15,
            "componentType" : 5126,
            "count" : 169,
            "type" : "VEC2"
        },
        {
            "bufferView" : 16,
            "componentType" : 5123,
            "count" : 324,
            "type" : "SCALAR"
        }
    ],
    "bufferViews" : [
        {
            "buffer" : 0,
            "byteLength" : 576,
            "byteOffset" : 0
        },
        {
            "buffer" : 0,
            "byteLength" : 576,
            "byteOffset" : 576
        },
        {
            "buffer" : 0,
            "byteLength" : 384,
            "byteOffset" : 1152
        },
        {
            "buffer" : 0,
            "byteLength" : 144,
            "byteOffset" : 1536
        },
        {
            "buffer" : 0,
            "byteLength" : 1172,
            "byteOffset" : 1680
        },
        {
            "buffer" : 0,
            "byteLength" : 576,
            "byteOffset" : 2852
        },
        {
            "buffer" : 0,
            "byteLength" : 576,
            "byteOffset" : 3428
        },
        {
            "buffer" : 0,
            "byteLength" : 384,
            "byteOffset" : 4004
        },
        {
            "buffer" : 0,
            "byteLength" : 1152,
            "byteOffset" : 4388
        },
        {
            "buffer" : 0,
            "byteLength" : 1152,
            "byteOffset" : 5540
        },
        {
            "buffer" : 0,
            "byteLength" : 768,
            "byteOffset" : 6692
        },
        {
            "buffer" : 0,
            "byteLength" : 288,
            "byteOffset" : 7460
        },
        {
            "buffer" : 0,
            "byteLength" : 23642,
            "byteOffset" : 7748
        },
        {
            "buffer" : 0,
            "byteLength" : 2028,
            "byteOffset" : 31392
        },
        {
            "buffer" : 0,
            "byteLength" : 2028,
            "byteOffset" : 33420
        },
        {
            "buffer" : 0,
            "byteLength" : 1352,
            "byteOffset" : 35448
        },
        {
            "buffer" : 0,
            "byteLength" : 648,
            "byteOffset" : 36800
        }
    ],
    "samplers" : [
        {
            "magFilter" : 9729,
            "minFilter" : 9987
        }
    ],
    "buffers" : [
        {
            "byteLength" : 37448,
            "uri" : "data:application/octet-stream;base64,"
        }
    ]
}
