{
    "asset" : {
        "generator" : "Khronos glTF Blender I/O v3.3.36",
        "version" : "2.0"
    },
    "extensionsUsed" : [
        "KHR_materials_specular",
        "KHR_materials_ior"
    ],
    "scene" : 0,
    "scenes" : [
        {
            "name" : "Scene",
            "nodes" : [
                0,
                1,
                2,
                3
            ]
        }
    ],
    "nodes" : [
        {
            "mesh" : 0,
            "name" : "LavaRipple1Mesh"
        },
        {
            "mesh" : 1,
            "name" : "LavaMesh"
        },
        {
            "mesh" : 2,
            "name" : "LavaRipple2Mesh"
        },
        {
            "mesh" : 3,
            "name" : "LavaRipple3Mesh"
        }
    ],
    "materials" : [
        {
            "alphaMode" : "BLEND",
            "extensions" : {
                "KHR_materials_specular" : {
                    "specularColorFactor" : [
                        0,
                        0,
                        0
                    ]
                },
                "KHR_materials_ior" : {
                    "ior" : 1.4500000476837158
                }
            },
            "name" : "Lava",
            "pbrMetallicRoughness" : {
                "baseColorFactor" : [
                    0.800000011920929,
                    0.800000011920929,
                    0.800000011920929,
                    1
                ],
                "metallicFactor" : 0
            }
        }
    ],
    "meshes" : [
        {
            "name" : "LavaRipple1Mesh",
            "primitives" : [
                {
                    "attributes" : {
                        "POSITION" : 0,
                        "NORMAL" : 1,
                        "TEXCOORD_0" : 2,
                        "TEXCOORD_1" : 3,
                        "COLOR_0" : 4
                    },
                    "indices" : 5,
                    "material" : 0
                }
            ]
        },
        {
            "name" : "LavaMesh",
            "primitives" : [
                {
                    "attributes" : {
                        "POSITION" : 6,
                        "NORMAL" : 7,
                        "TEXCOORD_0" : 8,
                        "TEXCOORD_1" : 9,
                        "COLOR_0" : 10
                    },
                    "indices" : 11,
                    "material" : 0
                }
            ]
        },
        {
            "name" : "LavaRipple2Mesh",
            "primitives" : [
                {
                    "attributes" : {
                        "POSITION" : 12,
                        "NORMAL" : 13,
                        "TEXCOORD_0" : 14,
                        "TEXCOORD_1" : 15,
                        "COLOR_0" : 16
                    },
                    "indices" : 17,
                    "material" : 0
                }
            ]
        },
        {
            "name" : "LavaRipple3Mesh",
            "primitives" : [
                {
                    "attributes" : {
                        "POSITION" : 18,
                        "NORMAL" : 19,
                        "TEXCOORD_0" : 20,
                        "TEXCOORD_1" : 21,
                        "COLOR_0" : 22
                    },
                    "indices" : 23,
                    "material" : 0
                }
            ]
        }
    ],
    "accessors" : [
        {
            "bufferView" : 0,
            "componentType" : 5126,
            "count" : 67,
            "max" : [
                8.751487731933594,
                1.4227608442306519,
                8.387596130371094
            ],
            "min" : [
                -8.44362735748291,
                -3.0045018196105957,
                -8.803709983825684
            ],
            "type" : "VEC3"
        },
        {
            "bufferView" : 1,
            "componentType" : 5126,
            "count" : 67,
            "type" : "VEC3"
        },
        {
            "bufferView" : 2,
            "componentType" : 5126,
            "count" : 67,
            "type" : "VEC2"
        },
        {
            "bufferView" : 3,
            "componentType" : 5126,
            "count" : 67,
            "type" : "VEC2"
        },
        {
            "bufferView" : 4,
            "componentType" : 5123,
            "count" : 67,
            "normalized" : true,
            "type" : "VEC4"
        },
        {
            "bufferView" : 5,
            "componentType" : 5123,
            "count" : 315,
            "type" : "SCALAR"
        },
        {
            "bufferView" : 6,
            "componentType" : 5126,
            "count" : 1235,
            "max" : [
                41.19442367553711,
                0.025002146139740944,
                41.309940338134766
            ],
            "min" : [
                -41.19443130493164,
                -6.754085461579962e-06,
                -41.309940338134766
            ],
            "type" : "VEC3"
        },
        {
            "bufferView" : 7,
            "componentType" : 5126,
            "count" : 1235,
            "type" : "VEC3"
        },
        {
            "bufferView" : 8,
            "componentType" : 5126,
            "count" : 1235,
            "type" : "VEC2"
        },
        {
            "bufferView" : 9,
            "componentType" : 5126,
            "count" : 1235,
            "type" : "VEC2"
        },
        {
            "bufferView" : 10,
            "componentType" : 5123,
            "count" : 1235,
            "normalized" : true,
            "type" : "VEC4"
        },
        {
            "bufferView" : 11,
            "componentType" : 5123,
            "count" : 1260,
            "type" : "SCALAR"
        },
        {
            "bufferView" : 12,
            "componentType" : 5126,
            "count" : 68,
            "max" : [
                11.447556495666504,
                2.0637238025665283,
                12.09561824798584
            ],
            "min" : [
                -12.612699508666992,
                -5.050368309020996,
                -12.019124984741211
            ],
            "type" : "VEC3"
        },
        {
            "bufferView" : 13,
            "componentType" : 5126,
            "count" : 68,
            "type" : "VEC3"
        },
        {
            "bufferView" : 14,
            "componentType" : 5126,
            "count" : 68,
            "type" : "VEC2"
        },
        {
            "bufferView" : 15,
            "componentType" : 5126,
            "count" : 68,
            "type" : "VEC2"
        },
        {
            "bufferView" : 16,
            "componentType" : 5123,
            "count" : 68,
            "normalized" : true,
            "type" : "VEC4"
        },
        {
            "bufferView" : 17,
            "componentType" : 5123,
            "count" : 315,
            "type" : "SCALAR"
        },
        {
            "bufferView" : 18,
            "componentType" : 5126,
            "count" : 67,
            "max" : [
                16.3455753326416,
                1.1247293949127197,
                16.54217529296875
            ],
            "min" : [
                -16.554977416992188,
                -4.800586700439453,
                -16.31285858154297
            ],
            "type" : "VEC3"
        },
        {
            "bufferView" : 19,
            "componentType" : 5126,
            "count" : 67,
            "type" : "VEC3"
        },
        {
            "bufferView" : 20,
            "componentType" : 5126,
            "count" : 67,
            "type" : "VEC2"
        },
        {
            "bufferView" : 21,
            "componentType" : 5126,
            "count" : 67,
            "type" : "VEC2"
        },
        {
            "bufferView" : 22,
            "componentType" : 5123,
            "count" : 67,
            "normalized" : true,
            "type" : "VEC4"
        },
        {
            "bufferView" : 23,
            "componentType" : 5123,
            "count" : 315,
            "type" : "SCALAR"
        }
    ],
    "bufferViews" : [
        {
            "buffer" : 0,
            "byteLength" : 804,
            "byteOffset" : 0,
            "target" : 34962
        },
        {
            "buffer" : 0,
            "byteLength" : 804,
            "byteOffset" : 804,
            "target" : 34962
        },
        {
            "buffer" : 0,
            "byteLength" : 536,
            "byteOffset" : 1608,
            "target" : 34962
        },
        {
            "buffer" : 0,
            "byteLength" : 536,
            "byteOffset" : 2144,
            "target" : 34962
        },
        {
            "buffer" : 0,
            "byteLength" : 536,
            "byteOffset" : 2680,
            "target" : 34962
        },
        {
            "buffer" : 0,
            "byteLength" : 630,
            "byteOffset" : 3216,
            "target" : 34963
        },
        {
            "buffer" : 0,
            "byteLength" : 14820,
            "byteOffset" : 3848,
            "target" : 34962
        },
        {
            "buffer" : 0,
            "byteLength" : 14820,
            "byteOffset" : 18668,
            "target" : 34962
        },
        {
            "buffer" : 0,
            "byteLength" : 9880,
            "byteOffset" : 33488,
            "target" : 34962
        },
        {
            "buffer" : 0,
            "byteLength" : 9880,
            "byteOffset" : 43368,
            "target" : 34962
        },
        {
            "buffer" : 0,
            "byteLength" : 9880,
            "byteOffset" : 53248,
            "target" : 34962
        },
        {
            "buffer" : 0,
            "byteLength" : 2520,
            "byteOffset" : 63128,
            "target" : 34963
        },
        {
            "buffer" : 0,
            "byteLength" : 816,
            "byteOffset" : 65648,
            "target" : 34962
        },
        {
            "buffer" : 0,
            "byteLength" : 816,
            "byteOffset" : 66464,
            "target" : 34962
        },
        {
            "buffer" : 0,
            "byteLength" : 544,
            "byteOffset" : 67280,
            "target" : 34962
        },
        {
            "buffer" : 0,
            "byteLength" : 544,
            "byteOffset" : 67824,
            "target" : 34962
        },
        {
            "buffer" : 0,
            "byteLength" : 544,
            "byteOffset" : 68368,
            "target" : 34962
        },
        {
            "buffer" : 0,
            "byteLength" : 630,
            "byteOffset" : 68912,
            "target" : 34963
        },
        {
            "buffer" : 0,
            "byteLength" : 804,
            "byteOffset" : 69544,
            "target" : 34962
        },
        {
            "buffer" : 0,
            "byteLength" : 804,
            "byteOffset" : 70348,
            "target" : 34962
        },
        {
            "buffer" : 0,
            "byteLength" : 536,
            "byteOffset" : 71152,
            "target" : 34962
        },
        {
            "buffer" : 0,
            "byteLength" : 536,
            "byteOffset" : 71688,
            "target" : 34962
        },
        {
            "buffer" : 0,
            "byteLength" : 536,
            "byteOffset" : 72224,
            "target" : 34962
        },
        {
            "buffer" : 0,
            "byteLength" : 630,
            "byteOffset" : 72760,
            "target" : 34963
        }
    ],
    "buffers" : [
        {
            "byteLength" : 73392,
            "uri" : "data:application/octet-stream;base64,"
        }
    ]
}
