<?xml version="1.0" encoding="UTF-8" standalone="no"?>
<!DOCTYPE svg PUBLIC "-//W3C//DTD SVG 1.1//EN" "http://www.w3.org/Graphics/SVG/1.1/DTD/svg11.dtd">
<svg width="100%" height="100%" viewBox="0 0 16 16" version="1.1" xmlns="http://www.w3.org/2000/svg" xmlns:xlink="http://www.w3.org/1999/xlink" xml:space="preserve" xmlns:serif="http://www.serif.com/" style="fill-rule:evenodd;clip-rule:evenodd;stroke-linejoin:round;stroke-miterlimit:2;">
    <path d="M7.518,9.06C6.52,9.178 5.678,9.348 5.137,9.727C4.703,10.03 4.343,10.482 4.15,11.367C4.683,11.741 5,12.353 5,13.004C5,14.101 4.097,15.004 3,15.004C1.903,15.004 1,14.101 1,13.004C1,12.222 1.459,11.509 2.17,11.184C2.456,9.74 3.096,8.713 3.988,8.088C4.239,7.912 4.498,7.768 4.763,7.649L7.518,9.06ZM8.274,6.966C9.362,6.847 10.284,6.68 10.863,6.275C11.389,5.907 11.809,5.32 11.947,4L10,4L13,0L16,4L13.949,4C13.767,5.882 13.065,7.177 12.012,7.914C11.718,8.12 11.412,8.283 11.099,8.412L8.274,6.966Z" style="fill:rgb(252,127,127);"/>
    <g transform="matrix(0.537924,0.275003,-0.275003,0.537924,2.68043,2.37989)">
        <path d="M0.551,3.661L2.551,1.661C2.737,1.481 2.986,1.381 3.246,1.381C3.794,1.381 4.246,1.832 4.246,2.381C4.246,2.64 4.145,2.889 3.965,3.075L3.672,3.368L19.985,3.376L19.692,3.083C19.504,2.896 19.399,2.641 19.399,2.376C19.399,1.827 19.85,1.376 20.399,1.376C20.664,1.376 20.919,1.481 21.107,1.669L23.107,3.669C23.494,4.057 23.494,4.695 23.107,5.083L21.107,7.083C20.919,7.271 20.664,7.376 20.399,7.376C19.85,7.376 19.399,6.925 19.399,6.376C19.399,6.111 19.504,5.857 19.692,5.669L19.985,5.376L3.672,5.368L3.965,5.662C4.145,5.849 4.246,6.098 4.246,6.357C4.246,6.906 3.794,7.357 3.246,7.357C2.986,7.357 2.737,7.256 2.551,7.076L0.551,5.076C0.163,4.689 0.163,4.05 0.551,3.662L0.551,3.661Z" style="fill:rgb(224,224,224);fill-rule:nonzero;"/>
    </g>
</svg>
