{
    "asset" : {
        "generator" : "Khronos glTF Blender I/O v1.7.30",
        "version" : "2.0"
    },
    "scene" : 0,
    "scenes" : [
        {
            "name" : "Scene",
            "nodes" : [
                0
            ]
        }
    ],
    "nodes" : [
        {
            "mesh" : 0,
            "name" : "BridgeBrokenRailing"
        }
    ],
    "materials" : [
        {
            "name" : "Brick",
            "pbrMetallicRoughness" : {
                "baseColorTexture" : {
                    "index" : 0
                },
                "metallicFactor" : 0
            }
        },
        {
            "name" : "Bridge 1",
            "pbrMetallicRoughness" : {
                "baseColorTexture" : {
                    "index" : 1
                },
                "metallicFactor" : 0
            }
        },
        {
            "name" : "Bedrock",
            "pbrMetallicRoughness" : {
                "baseColorTexture" : {
                    "index" : 2
                },
                "metallicFactor" : 0
            }
        }
    ],
    "meshes" : [
        {
            "name" : "BridgeBrokenRailing",
            "primitives" : [
                {
                    "attributes" : {
                        "POSITION" : 0,
                        "NORMAL" : 1,
                        "TEXCOORD_0" : 2
                    },
                    "indices" : 3,
                    "material" : 0
                },
                {
                    "attributes" : {
                        "POSITION" : 4,
                        "NORMAL" : 5,
                        "TEXCOORD_0" : 6
                    },
                    "indices" : 7,
                    "material" : 1
                },
                {
                    "attributes" : {
                        "POSITION" : 8,
                        "NORMAL" : 9,
                        "TEXCOORD_0" : 10
                    },
                    "indices" : 11,
                    "material" : 2
                }
            ]
        }
    ],
    "textures" : [
        {
            "sampler" : 0,
            "source" : 0
        },
        {
            "sampler" : 0,
            "source" : 1
        },
        {
            "sampler" : 0,
            "source" : 2
        }
    ],
    "images" : [
        {
            "bufferView" : 4,
            "mimeType" : "image/png",
            "name" : "brick"
        },
        {
            "bufferView" : 9,
            "mimeType" : "image/png",
            "name" : "bridge 1"
        },
        {
            "bufferView" : 14,
            "mimeType" : "image/png",
            "name" : "bedrock"
        }
    ],
    "accessors" : [
        {
            "bufferView" : 0,
            "componentType" : 5126,
            "count" : 133,
            "max" : [
                0.3192770183086395,
                0.20759573578834534,
                2.4319074153900146
            ],
            "min" : [
                -0.31927689909935,
                -0.463835746049881,
                -2.1575543880462646
            ],
            "type" : "VEC3"
        },
        {
            "bufferView" : 1,
            "componentType" : 5126,
            "count" : 133,
            "type" : "VEC3"
        },
        {
            "bufferView" : 2,
            "componentType" : 5126,
            "count" : 133,
            "type" : "VEC2"
        },
        {
            "bufferView" : 3,
            "componentType" : 5123,
            "count" : 246,
            "type" : "SCALAR"
        },
        {
            "bufferView" : 5,
            "componentType" : 5126,
            "count" : 36,
            "max" : [
                0.31319957971572876,
                0.4638354480266571,
                1.7664179801940918
            ],
            "min" : [
                -0.3182005286216736,
                0.2075953632593155,
                -2.4319074153900146
            ],
            "type" : "VEC3"
        },
        {
            "bufferView" : 6,
            "componentType" : 5126,
            "count" : 36,
            "type" : "VEC3"
        },
        {
            "bufferView" : 7,
            "componentType" : 5126,
            "count" : 36,
            "type" : "VEC2"
        },
        {
            "bufferView" : 8,
            "componentType" : 5123,
            "count" : 72,
            "type" : "SCALAR"
        },
        {
            "bufferView" : 10,
            "componentType" : 5126,
            "count" : 30,
            "max" : [
                0.3192763030529022,
                0.4638354480266571,
                2.4319074153900146
            ],
            "min" : [
                -0.31927689909935,
                -0.463835746049881,
                -2.4319074153900146
            ],
            "type" : "VEC3"
        },
        {
            "bufferView" : 11,
            "componentType" : 5126,
            "count" : 30,
            "type" : "VEC3"
        },
        {
            "bufferView" : 12,
            "componentType" : 5126,
            "count" : 30,
            "type" : "VEC2"
        },
        {
            "bufferView" : 13,
            "componentType" : 5123,
            "count" : 78,
            "type" : "SCALAR"
        }
    ],
    "bufferViews" : [
        {
            "buffer" : 0,
            "byteLength" : 1596,
            "byteOffset" : 0
        },
        {
            "buffer" : 0,
            "byteLength" : 1596,
            "byteOffset" : 1596
        },
        {
            "buffer" : 0,
            "byteLength" : 1064,
            "byteOffset" : 3192
        },
        {
            "buffer" : 0,
            "byteLength" : 492,
            "byteOffset" : 4256
        },
        {
            "buffer" : 0,
            "byteLength" : 377785,
            "byteOffset" : 4748
        },
        {
            "buffer" : 0,
            "byteLength" : 432,
            "byteOffset" : 382536
        },
        {
            "buffer" : 0,
            "byteLength" : 432,
            "byteOffset" : 382968
        },
        {
            "buffer" : 0,
            "byteLength" : 288,
            "byteOffset" : 383400
        },
        {
            "buffer" : 0,
            "byteLength" : 144,
            "byteOffset" : 383688
        },
        {
            "buffer" : 0,
            "byteLength" : 77741,
            "byteOffset" : 383832
        },
        {
            "buffer" : 0,
            "byteLength" : 360,
            "byteOffset" : 461576
        },
        {
            "buffer" : 0,
            "byteLength" : 360,
            "byteOffset" : 461936
        },
        {
            "buffer" : 0,
            "byteLength" : 240,
            "byteOffset" : 462296
        },
        {
            "buffer" : 0,
            "byteLength" : 156,
            "byteOffset" : 462536
        },
        {
            "buffer" : 0,
            "byteLength" : 22979,
            "byteOffset" : 462692
        }
    ],
    "samplers" : [
        {
            "magFilter" : 9729,
            "minFilter" : 9987
        }
    ],
    "buffers" : [
        {
            "byteLength" : 485672,
            "uri" : "data:application/octet-stream;base64,"
        }
    ]
}
