{
    "asset" : {
        "generator" : "Khronos glTF Blender I/O v1.7.30",
        "version" : "2.0"
    },
    "scene" : 0,
    "scenes" : [
        {
            "name" : "Scene",
            "nodes" : [
                0
            ]
        }
    ],
    "nodes" : [
        {
            "mesh" : 0,
            "name" : "BridgeLegless"
        }
    ],
    "materials" : [
        {
            "name" : "Wall Chipped",
            "pbrMetallicRoughness" : {
                "baseColorTexture" : {
                    "index" : 0
                },
                "metallicFactor" : 0
            }
        },
        {
            "name" : "Trim 2",
            "pbrMetallicRoughness" : {
                "baseColorTexture" : {
                    "index" : 1
                },
                "metallicFactor" : 0
            }
        },
        {
            "name" : "Pavement Diamond",
            "pbrMetallicRoughness" : {
                "baseColorTexture" : {
                    "index" : 2
                },
                "metallicFactor" : 0
            }
        },
        {
            "name" : "Decal",
            "pbrMetallicRoughness" : {
                "baseColorTexture" : {
                    "index" : 3
                },
                "metallicFactor" : 0
            }
        },
        {
            "name" : "Brick",
            "pbrMetallicRoughness" : {
                "baseColorTexture" : {
                    "index" : 4
                },
                "metallicFactor" : 0
            }
        }
    ],
    "meshes" : [
        {
            "name" : "BridgeLegless",
            "primitives" : [
                {
                    "attributes" : {
                        "POSITION" : 0,
                        "NORMAL" : 1,
                        "TEXCOORD_0" : 2
                    },
                    "indices" : 3,
                    "material" : 0
                },
                {
                    "attributes" : {
                        "POSITION" : 4,
                        "NORMAL" : 5,
                        "TEXCOORD_0" : 6
                    },
                    "indices" : 7,
                    "material" : 1
                },
                {
                    "attributes" : {
                        "POSITION" : 8,
                        "NORMAL" : 9,
                        "TEXCOORD_0" : 10
                    },
                    "indices" : 11,
                    "material" : 2
                },
                {
                    "attributes" : {
                        "POSITION" : 12,
                        "NORMAL" : 13,
                        "TEXCOORD_0" : 14
                    },
                    "indices" : 15,
                    "material" : 3
                },
                {
                    "attributes" : {
                        "POSITION" : 16,
                        "NORMAL" : 17,
                        "TEXCOORD_0" : 18
                    },
                    "indices" : 19,
                    "material" : 4
                }
            ]
        }
    ],
    "textures" : [
        {
            "sampler" : 0,
            "source" : 0
        },
        {
            "sampler" : 0,
            "source" : 1
        },
        {
            "sampler" : 0,
            "source" : 2
        },
        {
            "sampler" : 0,
            "source" : 3
        },
        {
            "sampler" : 0,
            "source" : 4
        }
    ],
    "images" : [
        {
            "bufferView" : 4,
            "mimeType" : "image/png",
            "name" : "wall chipped"
        },
        {
            "bufferView" : 9,
            "mimeType" : "image/png",
            "name" : "trim 2"
        },
        {
            "bufferView" : 14,
            "mimeType" : "image/png",
            "name" : "pavement diamond"
        },
        {
            "bufferView" : 19,
            "mimeType" : "image/png",
            "name" : "decal"
        },
        {
            "bufferView" : 24,
            "mimeType" : "image/png",
            "name" : "brick"
        }
    ],
    "accessors" : [
        {
            "bufferView" : 0,
            "componentType" : 5126,
            "count" : 10,
            "max" : [
                3.7380077838897705,
                -0.09999891370534897,
                1.9792600870132446
            ],
            "min" : [
                -3.7369580268859863,
                -5,
                -1.97925865650177
            ],
            "type" : "VEC3"
        },
        {
            "bufferView" : 1,
            "componentType" : 5126,
            "count" : 10,
            "type" : "VEC3"
        },
        {
            "bufferView" : 2,
            "componentType" : 5126,
            "count" : 10,
            "type" : "VEC2"
        },
        {
            "bufferView" : 3,
            "componentType" : 5123,
            "count" : 24,
            "type" : "SCALAR"
        },
        {
            "bufferView" : 5,
            "componentType" : 5126,
            "count" : 72,
            "max" : [
                4.000001430511475,
                0.0500018484890461,
                1.9999998807907104
            ],
            "min" : [
                -4.00001335144043,
                -0.8000002503395081,
                -2.000002861022949
            ],
            "type" : "VEC3"
        },
        {
            "bufferView" : 6,
            "componentType" : 5126,
            "count" : 72,
            "type" : "VEC3"
        },
        {
            "bufferView" : 7,
            "componentType" : 5126,
            "count" : 72,
            "type" : "VEC2"
        },
        {
            "bufferView" : 8,
            "componentType" : 5123,
            "count" : 180,
            "type" : "SCALAR"
        },
        {
            "bufferView" : 10,
            "componentType" : 5126,
            "count" : 4,
            "max" : [
                2.41664719581604,
                3.2584162568127795e-07,
                1.9999998807907104
            ],
            "min" : [
                -2.4149138927459717,
                -3.258413983076025e-07,
                -2.0000014305114746
            ],
            "type" : "VEC3"
        },
        {
            "bufferView" : 11,
            "componentType" : 5126,
            "count" : 4,
            "type" : "VEC3"
        },
        {
            "bufferView" : 12,
            "componentType" : 5126,
            "count" : 4,
            "type" : "VEC2"
        },
        {
            "bufferView" : 13,
            "componentType" : 5123,
            "count" : 6,
            "type" : "SCALAR"
        },
        {
            "bufferView" : 15,
            "componentType" : 5126,
            "count" : 16,
            "max" : [
                3.7093489170074463,
                3.2584162568127795e-07,
                1.9999998807907104
            ],
            "min" : [
                -3.709110736846924,
                -3.2584142672931193e-07,
                -2.0000014305114746
            ],
            "type" : "VEC3"
        },
        {
            "bufferView" : 16,
            "componentType" : 5126,
            "count" : 16,
            "type" : "VEC3"
        },
        {
            "bufferView" : 17,
            "componentType" : 5126,
            "count" : 16,
            "type" : "VEC2"
        },
        {
            "bufferView" : 18,
            "componentType" : 5123,
            "count" : 24,
            "type" : "SCALAR"
        },
        {
            "bufferView" : 20,
            "componentType" : 5126,
            "count" : 28,
            "max" : [
                4.000001430511475,
                0.0500018484890461,
                1.9999998807907104
            ],
            "min" : [
                -4.000011920928955,
                -3.258413983076025e-07,
                -2.000002861022949
            ],
            "type" : "VEC3"
        },
        {
            "bufferView" : 21,
            "componentType" : 5126,
            "count" : 28,
            "type" : "VEC3"
        },
        {
            "bufferView" : 22,
            "componentType" : 5126,
            "count" : 28,
            "type" : "VEC2"
        },
        {
            "bufferView" : 23,
            "componentType" : 5123,
            "count" : 60,
            "type" : "SCALAR"
        }
    ],
    "bufferViews" : [
        {
            "buffer" : 0,
            "byteLength" : 120,
            "byteOffset" : 0
        },
        {
            "buffer" : 0,
            "byteLength" : 120,
            "byteOffset" : 120
        },
        {
            "buffer" : 0,
            "byteLength" : 80,
            "byteOffset" : 240
        },
        {
            "buffer" : 0,
            "byteLength" : 48,
            "byteOffset" : 320
        },
        {
            "buffer" : 0,
            "byteLength" : 289027,
            "byteOffset" : 368
        },
        {
            "buffer" : 0,
            "byteLength" : 864,
            "byteOffset" : 289396
        },
        {
            "buffer" : 0,
            "byteLength" : 864,
            "byteOffset" : 290260
        },
        {
            "buffer" : 0,
            "byteLength" : 576,
            "byteOffset" : 291124
        },
        {
            "buffer" : 0,
            "byteLength" : 360,
            "byteOffset" : 291700
        },
        {
            "buffer" : 0,
            "byteLength" : 5427,
            "byteOffset" : 292060
        },
        {
            "buffer" : 0,
            "byteLength" : 48,
            "byteOffset" : 297488
        },
        {
            "buffer" : 0,
            "byteLength" : 48,
            "byteOffset" : 297536
        },
        {
            "buffer" : 0,
            "byteLength" : 32,
            "byteOffset" : 297584
        },
        {
            "buffer" : 0,
            "byteLength" : 12,
            "byteOffset" : 297616
        },
        {
            "buffer" : 0,
            "byteLength" : 88983,
            "byteOffset" : 297628
        },
        {
            "buffer" : 0,
            "byteLength" : 192,
            "byteOffset" : 386612
        },
        {
            "buffer" : 0,
            "byteLength" : 192,
            "byteOffset" : 386804
        },
        {
            "buffer" : 0,
            "byteLength" : 128,
            "byteOffset" : 386996
        },
        {
            "buffer" : 0,
            "byteLength" : 48,
            "byteOffset" : 387124
        },
        {
            "buffer" : 0,
            "byteLength" : 79479,
            "byteOffset" : 387172
        },
        {
            "buffer" : 0,
            "byteLength" : 336,
            "byteOffset" : 466652
        },
        {
            "buffer" : 0,
            "byteLength" : 336,
            "byteOffset" : 466988
        },
        {
            "buffer" : 0,
            "byteLength" : 224,
            "byteOffset" : 467324
        },
        {
            "buffer" : 0,
            "byteLength" : 120,
            "byteOffset" : 467548
        },
        {
            "buffer" : 0,
            "byteLength" : 377785,
            "byteOffset" : 467668
        }
    ],
    "samplers" : [
        {
            "magFilter" : 9729,
            "minFilter" : 9987
        }
    ],
    "buffers" : [
        {
            "byteLength" : 845456,
            "uri" : "data:application/octet-stream;base64,"
        }
    ]
}
