{
    "asset" : {
        "generator" : "Khronos glTF Blender I/O v1.7.30",
        "version" : "2.0"
    },
    "scene" : 0,
    "scenes" : [
        {
            "name" : "Scene",
            "nodes" : [
                0
            ]
        }
    ],
    "nodes" : [
        {
            "mesh" : 0,
            "name" : "BedrockBlock"
        }
    ],
    "materials" : [
        {
            "name" : "Bedrock 2",
            "pbrMetallicRoughness" : {
                "baseColorTexture" : {
                    "index" : 0
                },
                "metallicFactor" : 0
            }
        },
        {
            "name" : "Bedrock",
            "pbrMetallicRoughness" : {
                "baseColorTexture" : {
                    "index" : 1
                },
                "metallicFactor" : 0
            }
        }
    ],
    "meshes" : [
        {
            "name" : "BedrockBlock",
            "primitives" : [
                {
                    "attributes" : {
                        "POSITION" : 0,
                        "NORMAL" : 1,
                        "TEXCOORD_0" : 2
                    },
                    "indices" : 3,
                    "material" : 0
                },
                {
                    "attributes" : {
                        "POSITION" : 4,
                        "NORMAL" : 5,
                        "TEXCOORD_0" : 6
                    },
                    "indices" : 7,
                    "material" : 1
                }
            ]
        }
    ],
    "textures" : [
        {
            "sampler" : 0,
            "source" : 0
        },
        {
            "sampler" : 0,
            "source" : 1
        }
    ],
    "images" : [
        {
            "bufferView" : 4,
            "mimeType" : "image/png",
            "name" : "bedrock 2"
        },
        {
            "bufferView" : 9,
            "mimeType" : "image/png",
            "name" : "bedrock"
        }
    ],
    "accessors" : [
        {
            "bufferView" : 0,
            "componentType" : 5126,
            "count" : 47,
            "max" : [
                0.809209406375885,
                0.9045125842094421,
                4.182225704193115
            ],
            "min" : [
                -0.6896861791610718,
                -1.4050320386886597,
                -4.9465861320495605
            ],
            "type" : "VEC3"
        },
        {
            "bufferView" : 1,
            "componentType" : 5126,
            "count" : 47,
            "type" : "VEC3"
        },
        {
            "bufferView" : 2,
            "componentType" : 5126,
            "count" : 47,
            "type" : "VEC2"
        },
        {
            "bufferView" : 3,
            "componentType" : 5123,
            "count" : 126,
            "type" : "SCALAR"
        },
        {
            "bufferView" : 5,
            "componentType" : 5126,
            "count" : 111,
            "max" : [
                0.809209406375885,
                1.1815153360366821,
                4.182226181030273
            ],
            "min" : [
                -0.6896861791610718,
                -1.6871602535247803,
                -4.9465861320495605
            ],
            "type" : "VEC3"
        },
        {
            "bufferView" : 6,
            "componentType" : 5126,
            "count" : 111,
            "type" : "VEC3"
        },
        {
            "bufferView" : 7,
            "componentType" : 5126,
            "count" : 111,
            "type" : "VEC2"
        },
        {
            "bufferView" : 8,
            "componentType" : 5123,
            "count" : 441,
            "type" : "SCALAR"
        }
    ],
    "bufferViews" : [
        {
            "buffer" : 0,
            "byteLength" : 564,
            "byteOffset" : 0
        },
        {
            "buffer" : 0,
            "byteLength" : 564,
            "byteOffset" : 564
        },
        {
            "buffer" : 0,
            "byteLength" : 376,
            "byteOffset" : 1128
        },
        {
            "buffer" : 0,
            "byteLength" : 252,
            "byteOffset" : 1504
        },
        {
            "buffer" : 0,
            "byteLength" : 21678,
            "byteOffset" : 1756
        },
        {
            "buffer" : 0,
            "byteLength" : 1332,
            "byteOffset" : 23436
        },
        {
            "buffer" : 0,
            "byteLength" : 1332,
            "byteOffset" : 24768
        },
        {
            "buffer" : 0,
            "byteLength" : 888,
            "byteOffset" : 26100
        },
        {
            "buffer" : 0,
            "byteLength" : 882,
            "byteOffset" : 26988
        },
        {
            "buffer" : 0,
            "byteLength" : 22979,
            "byteOffset" : 27872
        }
    ],
    "samplers" : [
        {
            "magFilter" : 9729,
            "minFilter" : 9987
        }
    ],
    "buffers" : [
        {
            "byteLength" : 50852,
            "uri" : "data:application/octet-stream;base64,"
        }
    ]
}
