{
    "asset" : {
        "generator" : "Khronos glTF Blender I/O v1.7.30",
        "version" : "2.0"
    },
    "scene" : 0,
    "scenes" : [
        {
            "name" : "Scene",
            "nodes" : [
                0,
                1,
                2
            ]
        }
    ],
    "nodes" : [
        {
            "mesh" : 0,
            "name" : "Railing"
        },
        {
            "mesh" : 1,
            "name" : "RailingEndL"
        },
        {
            "mesh" : 2,
            "name" : "RailingEndR"
        }
    ],
    "materials" : [
        {
            "name" : "Spear",
            "pbrMetallicRoughness" : {
                "baseColorTexture" : {
                    "index" : 0
                },
                "roughnessFactor" : 0.800000011920929
            }
        }
    ],
    "meshes" : [
        {
            "name" : "Railing",
            "primitives" : [
                {
                    "attributes" : {
                        "POSITION" : 0,
                        "NORMAL" : 1,
                        "TEXCOORD_0" : 2
                    },
                    "indices" : 3,
                    "material" : 0
                }
            ]
        },
        {
            "name" : "RailingEndL",
            "primitives" : [
                {
                    "attributes" : {
                        "POSITION" : 4,
                        "NORMAL" : 5,
                        "TEXCOORD_0" : 6
                    },
                    "indices" : 7,
                    "material" : 0
                }
            ]
        },
        {
            "name" : "RailingEndR",
            "primitives" : [
                {
                    "attributes" : {
                        "POSITION" : 8,
                        "NORMAL" : 9,
                        "TEXCOORD_0" : 10
                    },
                    "indices" : 11,
                    "material" : 0
                }
            ]
        }
    ],
    "textures" : [
        {
            "sampler" : 0,
            "source" : 0
        }
    ],
    "images" : [
        {
            "bufferView" : 4,
            "mimeType" : "image/png",
            "name" : "spear"
        }
    ],
    "accessors" : [
        {
            "bufferView" : 0,
            "componentType" : 5126,
            "count" : 18,
            "max" : [
                0.5,
                0.07224114239215851,
                0.39932551980018616
            ],
            "min" : [
                -0.5,
                -0.07224239408969879,
                0.2324901968240738
            ],
            "type" : "VEC3"
        },
        {
            "bufferView" : 1,
            "componentType" : 5126,
            "count" : 18,
            "type" : "VEC3"
        },
        {
            "bufferView" : 2,
            "componentType" : 5126,
            "count" : 18,
            "type" : "VEC2"
        },
        {
            "bufferView" : 3,
            "componentType" : 5123,
            "count" : 72,
            "type" : "SCALAR"
        },
        {
            "bufferView" : 5,
            "componentType" : 5126,
            "count" : 68,
            "max" : [
                0.09938797354698181,
                0.07224170118570328,
                0.39932578802108765
            ],
            "min" : [
                -0.09938811510801315,
                -0.07224184274673462,
                -0.39932578802108765
            ],
            "type" : "VEC3"
        },
        {
            "bufferView" : 6,
            "componentType" : 5126,
            "count" : 68,
            "type" : "VEC3"
        },
        {
            "bufferView" : 7,
            "componentType" : 5126,
            "count" : 68,
            "type" : "VEC2"
        },
        {
            "bufferView" : 8,
            "componentType" : 5123,
            "count" : 102,
            "type" : "SCALAR"
        },
        {
            "bufferView" : 9,
            "componentType" : 5126,
            "count" : 68,
            "max" : [
                0.09974248707294464,
                0.07224172353744507,
                0.39932629466056824
            ],
            "min" : [
                -0.0997425764799118,
                -0.07224186509847641,
                -0.39932629466056824
            ],
            "type" : "VEC3"
        },
        {
            "bufferView" : 10,
            "componentType" : 5126,
            "count" : 68,
            "type" : "VEC3"
        },
        {
            "bufferView" : 11,
            "componentType" : 5126,
            "count" : 68,
            "type" : "VEC2"
        },
        {
            "bufferView" : 12,
            "componentType" : 5123,
            "count" : 102,
            "type" : "SCALAR"
        }
    ],
    "bufferViews" : [
        {
            "buffer" : 0,
            "byteLength" : 216,
            "byteOffset" : 0
        },
        {
            "buffer" : 0,
            "byteLength" : 216,
            "byteOffset" : 216
        },
        {
            "buffer" : 0,
            "byteLength" : 144,
            "byteOffset" : 432
        },
        {
            "buffer" : 0,
            "byteLength" : 144,
            "byteOffset" : 576
        },
        {
            "buffer" : 0,
            "byteLength" : 77918,
            "byteOffset" : 720
        },
        {
            "buffer" : 0,
            "byteLength" : 816,
            "byteOffset" : 78640
        },
        {
            "buffer" : 0,
            "byteLength" : 816,
            "byteOffset" : 79456
        },
        {
            "buffer" : 0,
            "byteLength" : 544,
            "byteOffset" : 80272
        },
        {
            "buffer" : 0,
            "byteLength" : 204,
            "byteOffset" : 80816
        },
        {
            "buffer" : 0,
            "byteLength" : 816,
            "byteOffset" : 81020
        },
        {
            "buffer" : 0,
            "byteLength" : 816,
            "byteOffset" : 81836
        },
        {
            "buffer" : 0,
            "byteLength" : 544,
            "byteOffset" : 82652
        },
        {
            "buffer" : 0,
            "byteLength" : 204,
            "byteOffset" : 83196
        }
    ],
    "samplers" : [
        {
            "magFilter" : 9729,
            "minFilter" : 9987
        }
    ],
    "buffers" : [
        {
            "byteLength" : 83400,
            "uri" : "data:application/octet-stream;base64,"
        }
    ]
}
