{
    "asset" : {
        "generator" : "Khronos glTF Blender I/O v1.7.30",
        "version" : "2.0"
    },
    "scene" : 0,
    "scenes" : [
        {
            "name" : "Scene",
            "nodes" : [
                0
            ]
        }
    ],
    "nodes" : [
        {
            "mesh" : 0,
            "name" : "SquarePillarShort"
        }
    ],
    "materials" : [
        {
            "name" : "Pillar 1",
            "pbrMetallicRoughness" : {
                "baseColorTexture" : {
                    "index" : 0
                },
                "metallicFactor" : 0
            }
        },
        {
            "name" : "Pillar 2",
            "pbrMetallicRoughness" : {
                "baseColorTexture" : {
                    "index" : 1
                },
                "metallicFactor" : 0
            }
        }
    ],
    "meshes" : [
        {
            "name" : "SquarePillarShort",
            "primitives" : [
                {
                    "attributes" : {
                        "POSITION" : 0,
                        "NORMAL" : 1,
                        "TEXCOORD_0" : 2
                    },
                    "indices" : 3,
                    "material" : 0
                },
                {
                    "attributes" : {
                        "POSITION" : 4,
                        "NORMAL" : 5,
                        "TEXCOORD_0" : 6
                    },
                    "indices" : 7,
                    "material" : 1
                }
            ]
        }
    ],
    "textures" : [
        {
            "sampler" : 0,
            "source" : 0
        },
        {
            "sampler" : 0,
            "source" : 1
        }
    ],
    "images" : [
        {
            "bufferView" : 4,
            "mimeType" : "image/png",
            "name" : "pillar 1"
        },
        {
            "bufferView" : 9,
            "mimeType" : "image/png",
            "name" : "pillar 2"
        }
    ],
    "accessors" : [
        {
            "bufferView" : 0,
            "componentType" : 5126,
            "count" : 494,
            "max" : [
                1.5869606733322144,
                4.764432430267334,
                1.5869598388671875
            ],
            "min" : [
                -1.5869605541229248,
                -5.033388614654541,
                -1.5869618654251099
            ],
            "type" : "VEC3"
        },
        {
            "bufferView" : 1,
            "componentType" : 5126,
            "count" : 494,
            "type" : "VEC3"
        },
        {
            "bufferView" : 2,
            "componentType" : 5126,
            "count" : 494,
            "type" : "VEC2"
        },
        {
            "bufferView" : 3,
            "componentType" : 5123,
            "count" : 960,
            "type" : "SCALAR"
        },
        {
            "bufferView" : 5,
            "componentType" : 5126,
            "count" : 579,
            "max" : [
                1.5869604349136353,
                4.999999523162842,
                1.5869594812393188
            ],
            "min" : [
                -1.5869605541229248,
                -5.033388614654541,
                -1.5869618654251099
            ],
            "type" : "VEC3"
        },
        {
            "bufferView" : 6,
            "componentType" : 5126,
            "count" : 579,
            "type" : "VEC3"
        },
        {
            "bufferView" : 7,
            "componentType" : 5126,
            "count" : 579,
            "type" : "VEC2"
        },
        {
            "bufferView" : 8,
            "componentType" : 5123,
            "count" : 1200,
            "type" : "SCALAR"
        }
    ],
    "bufferViews" : [
        {
            "buffer" : 0,
            "byteLength" : 5928,
            "byteOffset" : 0
        },
        {
            "buffer" : 0,
            "byteLength" : 5928,
            "byteOffset" : 5928
        },
        {
            "buffer" : 0,
            "byteLength" : 3952,
            "byteOffset" : 11856
        },
        {
            "buffer" : 0,
            "byteLength" : 1920,
            "byteOffset" : 15808
        },
        {
            "buffer" : 0,
            "byteLength" : 86886,
            "byteOffset" : 17728
        },
        {
            "buffer" : 0,
            "byteLength" : 6948,
            "byteOffset" : 104616
        },
        {
            "buffer" : 0,
            "byteLength" : 6948,
            "byteOffset" : 111564
        },
        {
            "buffer" : 0,
            "byteLength" : 4632,
            "byteOffset" : 118512
        },
        {
            "buffer" : 0,
            "byteLength" : 2400,
            "byteOffset" : 123144
        },
        {
            "buffer" : 0,
            "byteLength" : 94933,
            "byteOffset" : 125544
        }
    ],
    "samplers" : [
        {
            "magFilter" : 9729,
            "minFilter" : 9987
        }
    ],
    "buffers" : [
        {
            "byteLength" : 220480,
            "uri" : "data:application/octet-stream;base64,"
        }
    ]
}
