{
    "asset" : {
        "generator" : "Khronos glTF Blender I/O v1.7.30",
        "version" : "2.0"
    },
    "scene" : 0,
    "scenes" : [
        {
            "name" : "Scene",
            "nodes" : [
                0
            ]
        }
    ],
    "nodes" : [
        {
            "mesh" : 0,
            "name" : "MainCollision"
        }
    ],
    "meshes" : [
        {
            "name" : "MainCollision",
            "primitives" : [
                {
                    "attributes" : {
                        "POSITION" : 0,
                        "NORMAL" : 1
                    },
                    "indices" : 2
                }
            ]
        }
    ],
    "accessors" : [
        {
            "bufferView" : 0,
            "componentType" : 5126,
            "count" : 6524,
            "max" : [
                91.75260925292969,
                120.0018081665039,
                5.15581750869751
            ],
            "min" : [
                -664.0101928710938,
                -65.01838684082031,
                -1368.910400390625
            ],
            "type" : "VEC3"
        },
        {
            "bufferView" : 1,
            "componentType" : 5126,
            "count" : 6524,
            "type" : "VEC3"
        },
        {
            "bufferView" : 2,
            "componentType" : 5123,
            "count" : 10299,
            "type" : "SCALAR"
        }
    ],
    "bufferViews" : [
        {
            "buffer" : 0,
            "byteLength" : 78288,
            "byteOffset" : 0
        },
        {
            "buffer" : 0,
            "byteLength" : 78288,
            "byteOffset" : 78288
        },
        {
            "buffer" : 0,
            "byteLength" : 20598,
            "byteOffset" : 156576
        }
    ],
    "buffers" : [
        {
            "byteLength" : 177176,
            "uri" : "data:application/octet-stream;base64,"
        }
    ]
}
