{
    "asset" : {
        "generator" : "Khronos glTF Blender I/O v1.8.19",
        "version" : "2.0"
    },
    "scene" : 0,
    "scenes" : [
        {
            "name" : "Scene",
            "nodes" : [
                0,
                1,
                2
            ]
        }
    ],
    "nodes" : [
        {
            "mesh" : 0,
            "name" : "Floor"
        },
        {
            "mesh" : 1,
            "name" : "Walls"
        },
        {
            "mesh" : 2,
            "name" : "Ceiling"
        }
    ],
    "meshes" : [
        {
            "name" : "MainCollision",
            "primitives" : [
                {
                    "attributes" : {
                        "POSITION" : 0,
                        "NORMAL" : 1
                    },
                    "indices" : 2
                }
            ]
        },
        {
            "name" : "MainCollision.001",
            "primitives" : [
                {
                    "attributes" : {
                        "POSITION" : 3,
                        "NORMAL" : 4
                    },
                    "indices" : 5
                }
            ]
        },
        {
            "name" : "MainCollision.002",
            "primitives" : [
                {
                    "attributes" : {
                        "POSITION" : 6,
                        "NORMAL" : 7
                    },
                    "indices" : 8
                }
            ]
        }
    ],
    "accessors" : [
        {
            "bufferView" : 0,
            "componentType" : 5126,
            "count" : 2492,
            "max" : [
                91.97470092773438,
                110.0018081665039,
                5.15581750869751
            ],
            "min" : [
                -664.0101928710938,
                -65.01838684082031,
                -1368.910400390625
            ],
            "type" : "VEC3"
        },
        {
            "bufferView" : 1,
            "componentType" : 5126,
            "count" : 2492,
            "type" : "VEC3"
        },
        {
            "bufferView" : 2,
            "componentType" : 5123,
            "count" : 3852,
            "type" : "SCALAR"
        },
        {
            "bufferView" : 3,
            "componentType" : 5126,
            "count" : 4753,
            "max" : [
                91.97470092773438,
                120.0018081665039,
                5.15581750869751
            ],
            "min" : [
                -664.0001831054688,
                -65.01838684082031,
                -1368.910400390625
            ],
            "type" : "VEC3"
        },
        {
            "bufferView" : 4,
            "componentType" : 5126,
            "count" : 4753,
            "type" : "VEC3"
        },
        {
            "bufferView" : 5,
            "componentType" : 5123,
            "count" : 7251,
            "type" : "SCALAR"
        },
        {
            "bufferView" : 6,
            "componentType" : 5126,
            "count" : 58,
            "max" : [
                42.558326721191406,
                120.0018081665039,
                -60.53569793701172
            ],
            "min" : [
                -120.0438232421875,
                -34.70730972290039,
                -63.65701675415039
            ],
            "type" : "VEC3"
        },
        {
            "bufferView" : 7,
            "componentType" : 5126,
            "count" : 58,
            "type" : "VEC3"
        },
        {
            "bufferView" : 8,
            "componentType" : 5123,
            "count" : 168,
            "type" : "SCALAR"
        }
    ],
    "bufferViews" : [
        {
            "buffer" : 0,
            "byteLength" : 29904,
            "byteOffset" : 0
        },
        {
            "buffer" : 0,
            "byteLength" : 29904,
            "byteOffset" : 29904
        },
        {
            "buffer" : 0,
            "byteLength" : 7704,
            "byteOffset" : 59808
        },
        {
            "buffer" : 0,
            "byteLength" : 57036,
            "byteOffset" : 67512
        },
        {
            "buffer" : 0,
            "byteLength" : 57036,
            "byteOffset" : 124548
        },
        {
            "buffer" : 0,
            "byteLength" : 14502,
            "byteOffset" : 181584
        },
        {
            "buffer" : 0,
            "byteLength" : 696,
            "byteOffset" : 196088
        },
        {
            "buffer" : 0,
            "byteLength" : 696,
            "byteOffset" : 196784
        },
        {
            "buffer" : 0,
            "byteLength" : 336,
            "byteOffset" : 197480
        }
    ],
    "buffers" : [
        {
            "byteLength" : 197816,
            "uri" : "data:application/octet-stream;base64,"
        }
    ]
}
