{
    "asset" : {
        "generator" : "Khronos glTF Blender I/O v3.3.36",
        "version" : "2.0"
    },
    "scene" : 0,
    "scenes" : [
        {
            "name" : "Scene",
            "nodes" : [
                0,
                1,
                2,
                3,
                4,
                5
            ]
        }
    ],
    "nodes" : [
        {
            "mesh" : 0,
            "name" : "FloorPavement"
        },
        {
            "mesh" : 1,
            "name" : "Wall"
        },
        {
            "mesh" : 2,
            "name" : "WallOneWay"
        },
        {
            "mesh" : 3,
            "name" : "SpikeBallCollision"
        },
        {
            "mesh" : 4,
            "name" : "FloorMetal"
        },
        {
            "mesh" : 5,
            "name" : "Ceiling"
        }
    ],
    "meshes" : [
        {
            "name" : "FloorPavement",
            "primitives" : [
                {
                    "attributes" : {
                        "POSITION" : 0,
                        "NORMAL" : 1
                    },
                    "indices" : 2
                }
            ]
        },
        {
            "name" : "Wall",
            "primitives" : [
                {
                    "attributes" : {
                        "POSITION" : 3,
                        "NORMAL" : 4
                    },
                    "indices" : 5
                }
            ]
        },
        {
            "name" : "WallOneWay",
            "primitives" : [
                {
                    "attributes" : {
                        "POSITION" : 6,
                        "NORMAL" : 7
                    },
                    "indices" : 8
                }
            ]
        },
        {
            "name" : "SpikeBallCollision",
            "primitives" : [
                {
                    "attributes" : {
                        "POSITION" : 9,
                        "NORMAL" : 10
                    },
                    "indices" : 11
                }
            ]
        },
        {
            "name" : "FloorMetal",
            "primitives" : [
                {
                    "attributes" : {
                        "POSITION" : 12,
                        "NORMAL" : 13
                    },
                    "indices" : 14
                }
            ]
        },
        {
            "name" : "Ceiling",
            "primitives" : [
                {
                    "attributes" : {
                        "POSITION" : 15,
                        "NORMAL" : 16
                    },
                    "indices" : 17
                }
            ]
        }
    ],
    "accessors" : [
        {
            "bufferView" : 0,
            "componentType" : 5126,
            "count" : 1235,
            "max" : [
                205.0000457763672,
                40.00077819824219,
                4.984095573425293
            ],
            "min" : [
                -673.0001220703125,
                -69.9987564086914,
                -439.83880615234375
            ],
            "type" : "VEC3"
        },
        {
            "bufferView" : 1,
            "componentType" : 5126,
            "count" : 1235,
            "type" : "VEC3"
        },
        {
            "bufferView" : 2,
            "componentType" : 5123,
            "count" : 1908,
            "type" : "SCALAR"
        },
        {
            "bufferView" : 3,
            "componentType" : 5126,
            "count" : 9158,
            "max" : [
                217.0000762939453,
                70.00077819824219,
                4.984095573425293
            ],
            "min" : [
                -673.2008666992188,
                -70.0688705444336,
                -452.2149353027344
            ],
            "type" : "VEC3"
        },
        {
            "bufferView" : 4,
            "componentType" : 5126,
            "count" : 9158,
            "type" : "VEC3"
        },
        {
            "bufferView" : 5,
            "componentType" : 5123,
            "count" : 14508,
            "type" : "SCALAR"
        },
        {
            "bufferView" : 6,
            "componentType" : 5126,
            "count" : 12,
            "max" : [
                4.400792121887207,
                50.00077819824219,
                -16.995140075683594
            ],
            "min" : [
                -620.6400146484375,
                -39.99997329711914,
                -423.5002136230469
            ],
            "type" : "VEC3"
        },
        {
            "bufferView" : 7,
            "componentType" : 5126,
            "count" : 12,
            "type" : "VEC3"
        },
        {
            "bufferView" : 8,
            "componentType" : 5123,
            "count" : 18,
            "type" : "SCALAR"
        },
        {
            "bufferView" : 9,
            "componentType" : 5126,
            "count" : 82,
            "max" : [
                217.0000762939453,
                39.9913330078125,
                -157.1248321533203
            ],
            "min" : [
                140.00811767578125,
                10.000641822814941,
                -231.1248321533203
            ],
            "type" : "VEC3"
        },
        {
            "bufferView" : 10,
            "componentType" : 5126,
            "count" : 82,
            "type" : "VEC3"
        },
        {
            "bufferView" : 11,
            "componentType" : 5123,
            "count" : 144,
            "type" : "SCALAR"
        },
        {
            "bufferView" : 12,
            "componentType" : 5126,
            "count" : 712,
            "max" : [
                217.0000762939453,
                43.18877029418945,
                -51.29182434082031
            ],
            "min" : [
                -675.7001342773438,
                -69.99896240234375,
                -452.2149353027344
            ],
            "type" : "VEC3"
        },
        {
            "bufferView" : 13,
            "componentType" : 5126,
            "count" : 712,
            "type" : "VEC3"
        },
        {
            "bufferView" : 14,
            "componentType" : 5123,
            "count" : 1071,
            "type" : "SCALAR"
        },
        {
            "bufferView" : 15,
            "componentType" : 5126,
            "count" : 2244,
            "max" : [
                121.93584442138672,
                48.01423645019531,
                -49.881587982177734
            ],
            "min" : [
                -673.19970703125,
                -63.20502853393555,
                -436.2844543457031
            ],
            "type" : "VEC3"
        },
        {
            "bufferView" : 16,
            "componentType" : 5126,
            "count" : 2244,
            "type" : "VEC3"
        },
        {
            "bufferView" : 17,
            "componentType" : 5123,
            "count" : 3846,
            "type" : "SCALAR"
        }
    ],
    "bufferViews" : [
        {
            "buffer" : 0,
            "byteLength" : 14820,
            "byteOffset" : 0,
            "target" : 34962
        },
        {
            "buffer" : 0,
            "byteLength" : 14820,
            "byteOffset" : 14820,
            "target" : 34962
        },
        {
            "buffer" : 0,
            "byteLength" : 3816,
            "byteOffset" : 29640,
            "target" : 34963
        },
        {
            "buffer" : 0,
            "byteLength" : 109896,
            "byteOffset" : 33456,
            "target" : 34962
        },
        {
            "buffer" : 0,
            "byteLength" : 109896,
            "byteOffset" : 143352,
            "target" : 34962
        },
        {
            "buffer" : 0,
            "byteLength" : 29016,
            "byteOffset" : 253248,
            "target" : 34963
        },
        {
            "buffer" : 0,
            "byteLength" : 144,
            "byteOffset" : 282264,
            "target" : 34962
        },
        {
            "buffer" : 0,
            "byteLength" : 144,
            "byteOffset" : 282408,
            "target" : 34962
        },
        {
            "buffer" : 0,
            "byteLength" : 36,
            "byteOffset" : 282552,
            "target" : 34963
        },
        {
            "buffer" : 0,
            "byteLength" : 984,
            "byteOffset" : 282588,
            "target" : 34962
        },
        {
            "buffer" : 0,
            "byteLength" : 984,
            "byteOffset" : 283572,
            "target" : 34962
        },
        {
            "buffer" : 0,
            "byteLength" : 288,
            "byteOffset" : 284556,
            "target" : 34963
        },
        {
            "buffer" : 0,
            "byteLength" : 8544,
            "byteOffset" : 284844,
            "target" : 34962
        },
        {
            "buffer" : 0,
            "byteLength" : 8544,
            "byteOffset" : 293388,
            "target" : 34962
        },
        {
            "buffer" : 0,
            "byteLength" : 2142,
            "byteOffset" : 301932,
            "target" : 34963
        },
        {
            "buffer" : 0,
            "byteLength" : 26928,
            "byteOffset" : 304076,
            "target" : 34962
        },
        {
            "buffer" : 0,
            "byteLength" : 26928,
            "byteOffset" : 331004,
            "target" : 34962
        },
        {
            "buffer" : 0,
            "byteLength" : 7692,
            "byteOffset" : 357932,
            "target" : 34963
        }
    ],
    "buffers" : [
        {
            "byteLength" : 365624,
            "uri" : "data:application/octet-stream;base64,"
        }
    ]
}
