{
    "asset" : {
        "generator" : "Khronos glTF Blender I/O v3.3.36",
        "version" : "2.0"
    },
    "extensionsUsed" : [
        "KHR_materials_specular",
        "KHR_materials_ior"
    ],
    "scene" : 0,
    "scenes" : [
        {
            "name" : "Scene",
            "nodes" : [
                21
            ]
        }
    ],
    "nodes" : [
        {
            "name" : "l_ear",
            "rotation" : [
                -0.44128817319869995,
                -0.5513167977333069,
                -0.4424499571323395,
                0.5527680516242981
            ],
            "scale" : [
                1,
                1,
                0.9999999403953552
            ],
            "translation" : [
                0.3249998986721039,
                0.34500014781951904,
                7.438253760483349e-06
            ]
        },
        {
            "name" : "r_ear",
            "rotation" : [
                -0.4412882626056671,
                0.5513169169425964,
                0.44245001673698425,
                0.5527679920196533
            ],
            "scale" : [
                1,
                1.0000001192092896,
                1
            ],
            "translation" : [
                -0.3249998390674591,
                0.34500014781951904,
                7.441302386723692e-06
            ]
        },
        {
            "name" : "hat",
            "rotation" : [
                -0.5000007748603821,
                9.078775775606118e-08,
                9.31330532694119e-08,
                0.8660250902175903
            ],
            "scale" : [
                1,
                0.9999999403953552,
                0.9999999403953552
            ],
            "translation" : [
                8.112897376122419e-08,
                0.6838184595108032,
                -0.07499109953641891
            ]
        },
        {
            "name" : "mouth",
            "rotation" : [
                0.7675803899765015,
                1.330650775344111e-06,
                1.3270495173856034e-06,
                0.6409527063369751
            ],
            "scale" : [
                1,
                0.9999999403953552,
                0.9999999403953552
            ],
            "translation" : [
                -1.4856259156204032e-07,
                0.20000064373016357,
                -0.1479930281639099
            ]
        },
        {
            "children" : [
                0,
                1,
                2,
                3
            ],
            "name" : "head",
            "rotation" : [
                4.721730636723118e-16,
                -2.4200994985790203e-08,
                -2.4200978998578648e-08,
                1
            ],
            "translation" : [
                0,
                0.565000057220459,
                0
            ]
        },
        {
            "name" : "r_finger",
            "rotation" : [
                -5.681401034962619e-06,
                5.6624885473866016e-06,
                0.0005988982738927007,
                0.9999998211860657
            ],
            "translation" : [
                0.001300799660384655,
                0.4353322684764862,
                0.06559857726097107
            ]
        },
        {
            "name" : "r_thumb",
            "rotation" : [
                -0.3816179633140564,
                0.835048258304596,
                -0.061996012926101685,
                0.3914315700531006
            ],
            "scale" : [
                0.9999998807907104,
                1,
                1
            ],
            "translation" : [
                -0.14412054419517517,
                0.060246482491493225,
                -0.02489522658288479
            ]
        },
        {
            "children" : [
                5,
                6
            ],
            "name" : "r_hand",
            "rotation" : [
                -0.003075971966609359,
                0.7070645689964294,
                -0.0031467245426028967,
                0.7071353197097778
            ],
            "scale" : [
                0.9999998807907104,
                0.9999997019767761,
                0.9999998807907104
            ],
            "translation" : [
                5.618537812779323e-08,
                1.1689536571502686,
                -3.637978807091713e-10
            ]
        },
        {
            "children" : [
                7
            ],
            "name" : "r_arm02",
            "rotation" : [
                0.00946467649191618,
                -0.7070119976997375,
                0.009527938440442085,
                0.7070741057395935
            ],
            "scale" : [
                1,
                1.0000001192092896,
                1.0000001192092896
            ],
            "translation" : [
                -3.531681613822002e-10,
                0.5209294557571411,
                -1.4075962440074363e-07
            ]
        },
        {
            "children" : [
                8
            ],
            "name" : "r_arm01",
            "rotation" : [
                -0.5044950842857361,
                0.49546435475349426,
                0.49546435475349426,
                0.5044946670532227
            ],
            "scale" : [
                0.9999997615814209,
                0.999999463558197,
                0.9999994039535522
            ],
            "translation" : [
                -0.47999972105026245,
                0.5400004386901855,
                5.871935627510538e-06
            ]
        },
        {
            "name" : "l_finger",
            "rotation" : [
                -5.6814260460669175e-06,
                -5.704377599613508e-06,
                -0.0005988984485156834,
                0.9999998211860657
            ],
            "scale" : [
                0.9999999403953552,
                0.9999999403953552,
                1
            ],
            "translation" : [
                -0.0013008052483201027,
                0.4353320598602295,
                0.06559869647026062
            ]
        },
        {
            "name" : "l_thumb",
            "rotation" : [
                -0.3816179931163788,
                -0.835048258304596,
                0.0619959831237793,
                0.3914315700531006
            ],
            "scale" : [
                1,
                1.0000003576278687,
                1.0000001192092896
            ],
            "translation" : [
                0.14412054419517517,
                0.060246482491493225,
                -0.02489509806036949
            ]
        },
        {
            "children" : [
                10,
                11
            ],
            "name" : "l_hand",
            "rotation" : [
                -0.0030759726651012897,
                -0.7070644497871399,
                0.003146723611280322,
                0.7071353793144226
            ],
            "scale" : [
                0.9999999403953552,
                0.9999998807907104,
                0.9999999403953552
            ],
            "translation" : [
                6.632582483234728e-08,
                1.1689536571502686,
                1.3533281162381172e-09
            ]
        },
        {
            "children" : [
                12
            ],
            "name" : "l_arm02",
            "rotation" : [
                0.009464678354561329,
                0.7070119976997375,
                -0.009527938440442085,
                0.707073986530304
            ],
            "translation" : [
                -7.146354619180784e-10,
                0.5209293961524963,
                -1.4279267190886458e-07
            ]
        },
        {
            "children" : [
                13
            ],
            "name" : "l_arm01",
            "rotation" : [
                -0.5044951438903809,
                -0.49546438455581665,
                -0.49546435475349426,
                0.5044946074485779
            ],
            "scale" : [
                0.9999997615814209,
                0.9999994039535522,
                0.9999994039535522
            ],
            "translation" : [
                0.4799997806549072,
                0.5400004386901855,
                5.9138988035556395e-06
            ]
        },
        {
            "children" : [
                4,
                9,
                14
            ],
            "name" : "chest",
            "rotation" : [
                -3.10588599042287e-22,
                2.1855743881360468e-08,
                2.1855729670505752e-08,
                1
            ],
            "translation" : [
                -3.7575348178294714e-20,
                1.0850001573562622,
                -3.363116314379561e-44
            ]
        },
        {
            "name" : "tail03",
            "rotation" : [
                -4.122105743087313e-15,
                -6.24203408960966e-08,
                6.242029826353246e-08,
                1
            ],
            "translation" : [
                0,
                0.2900000810623169,
                7.290583066292932e-24
            ]
        },
        {
            "children" : [
                16
            ],
            "name" : "tail02",
            "rotation" : [
                3.481229603766395e-15,
                8.960921604739269e-08,
                -8.960915920397383e-08,
                1
            ],
            "translation" : [
                8.881784197001252e-16,
                0.3550000786781311,
                -1.2505830863130425e-22
            ]
        },
        {
            "children" : [
                17
            ],
            "name" : "tail01",
            "rotation" : [
                -9.959283526459893e-19,
                1.9616308577496966e-11,
                -1.9614532220657566e-11,
                1
            ],
            "translation" : [
                -1.7763568394002505e-15,
                0.4399999976158142,
                0
            ]
        },
        {
            "children" : [
                18
            ],
            "name" : "stomach",
            "rotation" : [
                -1,
                2.539968946280169e-08,
                2.5399707226370083e-08,
                4.511891083371281e-22
            ],
            "translation" : [
                5.787477723182656e-20,
                1.0850001573562622,
                5.184804318001823e-44
            ]
        },
        {
            "mesh" : 0,
            "name" : "RedMajinMesh",
            "skin" : 0
        },
        {
            "children" : [
                20,
                15,
                19
            ],
            "name" : "RedMajinRoot"
        }
    ],
    "materials" : [
        {
            "alphaCutoff" : 0.5,
            "alphaMode" : "MASK",
            "doubleSided" : true,
            "extensions" : {
                "KHR_materials_specular" : {
                    "specularColorFactor" : [
                        0,
                        0,
                        0
                    ]
                },
                "KHR_materials_ior" : {
                    "ior" : 1.4500000476837158
                }
            },
            "name" : "Red Majin Cuffs",
            "pbrMetallicRoughness" : {
                "baseColorFactor" : [
                    0.800000011920929,
                    0.800000011920929,
                    0.800000011920929,
                    1
                ],
                "metallicFactor" : 0
            }
        },
        {
            "doubleSided" : true,
            "extensions" : {
                "KHR_materials_specular" : {
                    "specularColorFactor" : [
                        0,
                        0,
                        0
                    ]
                },
                "KHR_materials_ior" : {
                    "ior" : 1.4500000476837158
                }
            },
            "name" : "Red Majin Arm",
            "pbrMetallicRoughness" : {
                "baseColorFactor" : [
                    0.800000011920929,
                    0.800000011920929,
                    0.800000011920929,
                    1
                ],
                "metallicFactor" : 0
            }
        },
        {
            "extensions" : {
                "KHR_materials_specular" : {
                    "specularColorFactor" : [
                        0,
                        0,
                        0
                    ]
                },
                "KHR_materials_ior" : {
                    "ior" : 1.4500000476837158
                }
            },
            "name" : "Red Majin Body",
            "pbrMetallicRoughness" : {
                "baseColorFactor" : [
                    0.800000011920929,
                    0.800000011920929,
                    0.800000011920929,
                    1
                ],
                "metallicFactor" : 0
            }
        }
    ],
    "meshes" : [
        {
            "name" : "RedMajinMesh",
            "primitives" : [
                {
                    "attributes" : {
                        "POSITION" : 0,
                        "NORMAL" : 1,
                        "TEXCOORD_0" : 2,
                        "TEXCOORD_1" : 3,
                        "COLOR_0" : 4,
                        "JOINTS_0" : 5,
                        "WEIGHTS_0" : 6
                    },
                    "indices" : 7,
                    "material" : 0
                },
                {
                    "attributes" : {
                        "POSITION" : 8,
                        "NORMAL" : 9,
                        "TEXCOORD_0" : 10,
                        "TEXCOORD_1" : 11,
                        "COLOR_0" : 12,
                        "JOINTS_0" : 13,
                        "WEIGHTS_0" : 14
                    },
                    "indices" : 15,
                    "material" : 1
                },
                {
                    "attributes" : {
                        "POSITION" : 16,
                        "NORMAL" : 17,
                        "TEXCOORD_0" : 18,
                        "TEXCOORD_1" : 19,
                        "COLOR_0" : 20,
                        "JOINTS_0" : 21,
                        "WEIGHTS_0" : 22
                    },
                    "indices" : 23,
                    "material" : 2
                }
            ]
        }
    ],
    "skins" : [
        {
            "inverseBindMatrices" : 24,
            "joints" : [
                15,
                4,
                0,
                1,
                2,
                3,
                9,
                8,
                7,
                5,
                6,
                14,
                13,
                12,
                10,
                11,
                19,
                18,
                17,
                16
            ],
            "name" : "RedMajinRoot"
        }
    ],
    "accessors" : [
        {
            "bufferView" : 0,
            "componentType" : 5126,
            "count" : 768,
            "max" : [
                2.257889747619629,
                2.7218401432037354,
                0.6120280623435974
            ],
            "min" : [
                -2.257889747619629,
                1.0160179138183594,
                -0.6080470085144043
            ],
            "type" : "VEC3"
        },
        {
            "bufferView" : 1,
            "componentType" : 5126,
            "count" : 768,
            "type" : "VEC3"
        },
        {
            "bufferView" : 2,
            "componentType" : 5126,
            "count" : 768,
            "type" : "VEC2"
        },
        {
            "bufferView" : 3,
            "componentType" : 5126,
            "count" : 768,
            "type" : "VEC2"
        },
        {
            "bufferView" : 4,
            "componentType" : 5123,
            "count" : 768,
            "normalized" : true,
            "type" : "VEC4"
        },
        {
            "bufferView" : 5,
            "componentType" : 5121,
            "count" : 768,
            "type" : "VEC4"
        },
        {
            "bufferView" : 6,
            "componentType" : 5126,
            "count" : 768,
            "type" : "VEC4"
        },
        {
            "bufferView" : 7,
            "componentType" : 5123,
            "count" : 768,
            "type" : "SCALAR"
        },
        {
            "bufferView" : 8,
            "componentType" : 5126,
            "count" : 2046,
            "max" : [
                2.921320676803589,
                1.8987032175064087,
                0.4331474304199219
            ],
            "min" : [
                -2.921320676803589,
                -0.31396234035491943,
                -0.32578426599502563
            ],
            "type" : "VEC3"
        },
        {
            "bufferView" : 9,
            "componentType" : 5126,
            "count" : 2046,
            "type" : "VEC3"
        },
        {
            "bufferView" : 10,
            "componentType" : 5126,
            "count" : 2046,
            "type" : "VEC2"
        },
        {
            "bufferView" : 11,
            "componentType" : 5126,
            "count" : 2046,
            "type" : "VEC2"
        },
        {
            "bufferView" : 12,
            "componentType" : 5123,
            "count" : 2046,
            "normalized" : true,
            "type" : "VEC4"
        },
        {
            "bufferView" : 13,
            "componentType" : 5121,
            "count" : 2046,
            "type" : "VEC4"
        },
        {
            "bufferView" : 14,
            "componentType" : 5126,
            "count" : 2046,
            "type" : "VEC4"
        },
        {
            "bufferView" : 15,
            "componentType" : 5123,
            "count" : 2046,
            "type" : "SCALAR"
        },
        {
            "bufferView" : 16,
            "componentType" : 5126,
            "count" : 3024,
            "max" : [
                2.6415140628814697,
                2.4559035301208496,
                0.4148671627044678
            ],
            "min" : [
                -2.6415140628814697,
                -2.4422965338999347e-07,
                -0.4320701062679291
            ],
            "type" : "VEC3"
        },
        {
            "bufferView" : 17,
            "componentType" : 5126,
            "count" : 3024,
            "type" : "VEC3"
        },
        {
            "bufferView" : 18,
            "componentType" : 5126,
            "count" : 3024,
            "type" : "VEC2"
        },
        {
            "bufferView" : 19,
            "componentType" : 5126,
            "count" : 3024,
            "type" : "VEC2"
        },
        {
            "bufferView" : 20,
            "componentType" : 5123,
            "count" : 3024,
            "normalized" : true,
            "type" : "VEC4"
        },
        {
            "bufferView" : 21,
            "componentType" : 5121,
            "count" : 3024,
            "type" : "VEC4"
        },
        {
            "bufferView" : 22,
            "componentType" : 5126,
            "count" : 3024,
            "type" : "VEC4"
        },
        {
            "bufferView" : 23,
            "componentType" : 5123,
            "count" : 3024,
            "type" : "SCALAR"
        },
        {
            "bufferView" : 24,
            "componentType" : 5126,
            "count" : 20,
            "type" : "MAT4"
        }
    ],
    "bufferViews" : [
        {
            "buffer" : 0,
            "byteLength" : 9216,
            "byteOffset" : 0,
            "target" : 34962
        },
        {
            "buffer" : 0,
            "byteLength" : 9216,
            "byteOffset" : 9216,
            "target" : 34962
        },
        {
            "buffer" : 0,
            "byteLength" : 6144,
            "byteOffset" : 18432,
            "target" : 34962
        },
        {
            "buffer" : 0,
            "byteLength" : 6144,
            "byteOffset" : 24576,
            "target" : 34962
        },
        {
            "buffer" : 0,
            "byteLength" : 6144,
            "byteOffset" : 30720,
            "target" : 34962
        },
        {
            "buffer" : 0,
            "byteLength" : 3072,
            "byteOffset" : 36864,
            "target" : 34962
        },
        {
            "buffer" : 0,
            "byteLength" : 12288,
            "byteOffset" : 39936,
            "target" : 34962
        },
        {
            "buffer" : 0,
            "byteLength" : 1536,
            "byteOffset" : 52224,
            "target" : 34963
        },
        {
            "buffer" : 0,
            "byteLength" : 24552,
            "byteOffset" : 53760,
            "target" : 34962
        },
        {
            "buffer" : 0,
            "byteLength" : 24552,
            "byteOffset" : 78312,
            "target" : 34962
        },
        {
            "buffer" : 0,
            "byteLength" : 16368,
            "byteOffset" : 102864,
            "target" : 34962
        },
        {
            "buffer" : 0,
            "byteLength" : 16368,
            "byteOffset" : 119232,
            "target" : 34962
        },
        {
            "buffer" : 0,
            "byteLength" : 16368,
            "byteOffset" : 135600,
            "target" : 34962
        },
        {
            "buffer" : 0,
            "byteLength" : 8184,
            "byteOffset" : 151968,
            "target" : 34962
        },
        {
            "buffer" : 0,
            "byteLength" : 32736,
            "byteOffset" : 160152,
            "target" : 34962
        },
        {
            "buffer" : 0,
            "byteLength" : 4092,
            "byteOffset" : 192888,
            "target" : 34963
        },
        {
            "buffer" : 0,
            "byteLength" : 36288,
            "byteOffset" : 196980,
            "target" : 34962
        },
        {
            "buffer" : 0,
            "byteLength" : 36288,
            "byteOffset" : 233268,
            "target" : 34962
        },
        {
            "buffer" : 0,
            "byteLength" : 24192,
            "byteOffset" : 269556,
            "target" : 34962
        },
        {
            "buffer" : 0,
            "byteLength" : 24192,
            "byteOffset" : 293748,
            "target" : 34962
        },
        {
            "buffer" : 0,
            "byteLength" : 24192,
            "byteOffset" : 317940,
            "target" : 34962
        },
        {
            "buffer" : 0,
            "byteLength" : 12096,
            "byteOffset" : 342132,
            "target" : 34962
        },
        {
            "buffer" : 0,
            "byteLength" : 48384,
            "byteOffset" : 354228,
            "target" : 34962
        },
        {
            "buffer" : 0,
            "byteLength" : 6048,
            "byteOffset" : 402612,
            "target" : 34963
        },
        {
            "buffer" : 0,
            "byteLength" : 1280,
            "byteOffset" : 408660
        }
    ],
    "buffers" : [
        {
            "byteLength" : 409940,
            "uri" : "data:application/octet-stream;base64,"
        }
    ]
}
