{
    "asset" : {
        "generator" : "Khronos glTF Blender I/O v1.8.19",
        "version" : "2.0"
    },
    "scene" : 0,
    "scenes" : [
        {
            "name" : "Scene",
            "nodes" : [
                21
            ]
        }
    ],
    "nodes" : [
        {
            "name" : "Mouth",
            "rotation" : [
                0.8929842710494995,
                4.790116037156622e-08,
                -8.790694323579373e-07,
                0.45008787512779236
            ],
            "scale" : [
                1,
                0.9999999403953552,
                1
            ],
            "translation" : [
                -1.6838787075812434e-07,
                0.20000000298023224,
                -0.1479998379945755
            ]
        },
        {
            "children" : [
                0
            ],
            "name" : "Head",
            "rotation" : [
                4.262673201083089e-07,
                -2.9086145791152804e-15,
                -7.549831337883006e-08,
                1
            ],
            "translation" : [
                1.7772919637740192e-15,
                0.565000057220459,
                2.2737367544323206e-13
            ]
        },
        {
            "name" : "Fingers.R",
            "rotation" : [
                -0.10268758237361908,
                0.101361483335495,
                0.005190376192331314,
                0.9895222187042236
            ],
            "scale" : [
                1.0000001192092896,
                1,
                1
            ],
            "translation" : [
                -4.2084732143621295e-08,
                0.3416920304298401,
                -5.620178100684825e-08
            ]
        },
        {
            "children" : [
                2
            ],
            "name" : "Hand.R",
            "rotation" : [
                0.09500843286514282,
                -0.0966569036245346,
                -0.019834281876683235,
                0.990574300289154
            ],
            "scale" : [
                1,
                1.0000001192092896,
                0.9999999403953552
            ],
            "translation" : [
                1.2811742777785184e-09,
                0.6189973950386047,
                -5.624276866456057e-08
            ]
        },
        {
            "children" : [
                3
            ],
            "name" : "Amr.R",
            "rotation" : [
                1.599360217596768e-07,
                -1.6055118123858847e-07,
                0.022995851933956146,
                0.9997356534004211
            ],
            "scale" : [
                1,
                0.9999997615814209,
                1
            ],
            "translation" : [
                -4.994197055907534e-09,
                0.32098090648651123,
                -9.161192338069668e-08
            ]
        },
        {
            "children" : [
                4
            ],
            "name" : "Shoulder.R",
            "rotation" : [
                -0.5071028470993042,
                0.4927041828632355,
                0.4927922487258911,
                0.507193386554718
            ],
            "scale" : [
                1.0000003576278687,
                0.9999998211860657,
                1
            ],
            "translation" : [
                -0.3800000846385956,
                0.49000027775764465,
                4.58494298527512e-07
            ]
        },
        {
            "name" : "Fingers.L",
            "rotation" : [
                -0.10288365185260773,
                -0.10165051370859146,
                -0.005426598247140646,
                0.989470899105072
            ],
            "scale" : [
                0.9999998211860657,
                0.9999999403953552,
                0.9999999403953552
            ],
            "translation" : [
                -5.837217642579162e-08,
                0.3449021577835083,
                -1.33888050868336e-07
            ]
        },
        {
            "children" : [
                6
            ],
            "name" : "Hand.L",
            "rotation" : [
                0.0943901389837265,
                0.09597476571798325,
                0.019294515252113342,
                0.9907103776931763
            ],
            "scale" : [
                1.0000001192092896,
                1.0000001192092896,
                1.0000001192092896
            ],
            "translation" : [
                2.0767535247046e-08,
                0.6157376766204834,
                1.2429965501326024e-08
            ]
        },
        {
            "children" : [
                7
            ],
            "name" : "Arm.L",
            "rotation" : [
                -0.00015037661069072783,
                -0.00014592982188332826,
                -0.023019151762127876,
                0.9997351169586182
            ],
            "scale" : [
                1,
                1.0000004768371582,
                1
            ],
            "translation" : [
                -2.228194517783777e-09,
                0.3209826648235321,
                -3.651920366110062e-08
            ]
        },
        {
            "children" : [
                8
            ],
            "name" : "Shoulder.L",
            "rotation" : [
                -0.5072470307350159,
                -0.4925846755504608,
                -0.4926452934741974,
                0.5073079466819763
            ],
            "scale" : [
                1.000000238418579,
                1.0000003576278687,
                1
            ],
            "translation" : [
                0.3800000846385956,
                0.49000033736228943,
                -3.011020766052752e-09
            ]
        },
        {
            "children" : [
                1,
                5,
                9
            ],
            "name" : "Chest",
            "rotation" : [
                0.7071067094802856,
                -1.5454343582632646e-08,
                1.5454343582632646e-08,
                0.7071068286895752
            ],
            "translation" : [
                -3.7575374027688856e-20,
                -5.960464477539063e-08,
                1.0850001573562622
            ]
        },
        {
            "name" : "HandController.R",
            "rotation" : [
                -1.7881388885143679e-06,
                0,
                0,
                1
            ],
            "translation" : [
                -1.3197531700134277,
                -0.0014004111289978027,
                1.5750000476837158
            ]
        },
        {
            "name" : "Elbow.R",
            "rotation" : [
                0.7071055769920349,
                0,
                0,
                0.7071080803871155
            ],
            "translation" : [
                -0.7008447051048279,
                -1.000880479812622,
                1.574821949005127
            ]
        },
        {
            "name" : "HandController.L",
            "rotation" : [
                -1.7881388885143679e-06,
                0,
                0,
                1
            ],
            "translation" : [
                1.316496729850769,
                -0.0008805394172668457,
                1.5748182535171509
            ]
        },
        {
            "name" : "Elbow.L",
            "rotation" : [
                0.7071055769920349,
                0,
                0,
                0.7071080803871155
            ],
            "translation" : [
                0.7008447051048279,
                -1.000880479812622,
                1.574821949005127
            ]
        },
        {
            "name" : "Tail03",
            "rotation" : [
                -8.742262025407399e-08,
                -3.178674745640819e-08,
                8.742283341689472e-08,
                1
            ],
            "scale" : [
                1,
                0.9999999403953552,
                0.9999999403953552
            ],
            "translation" : [
                -7.659886654544194e-15,
                0.2900001108646393,
                2.613261549006435e-16
            ]
        },
        {
            "children" : [
                15
            ],
            "name" : "Tail02",
            "rotation" : [
                4.3711221309195025e-08,
                -7.549819258656498e-08,
                7.549785152605182e-08,
                1
            ],
            "scale" : [
                1,
                0.9999999403953552,
                0.9999999403953552
            ],
            "translation" : [
                -1.0839735582930405e-14,
                0.3550000786781311,
                5.24344836213414e-14
            ]
        },
        {
            "children" : [
                16
            ],
            "name" : "Tail01",
            "rotation" : [
                3.410605131648481e-13,
                9.85287291208406e-14,
                3.9083658726936366e-15,
                1
            ],
            "scale" : [
                1,
                0.9999999403953552,
                0.9999999403953552
            ],
            "translation" : [
                -1.2818604447492003e-14,
                0.21999990940093994,
                4.095938269544491e-13
            ]
        },
        {
            "children" : [
                17
            ],
            "name" : "Hip",
            "rotation" : [
                -2.247642250097215e-08,
                -0.7071068286895752,
                0.7071068286895752,
                5.338507946817117e-08
            ],
            "scale" : [
                1,
                0.9999996423721313,
                0.9999998807907104
            ],
            "translation" : [
                3.552801346710542e-15,
                -5.960462345910855e-08,
                1.0850001573562622
            ]
        },
        {
            "children" : [
                10,
                11,
                12,
                13,
                14,
                18
            ],
            "name" : "Root",
            "rotation" : [
                -0.7071055769920349,
                0,
                0,
                0.7071080803871155
            ]
        },
        {
            "mesh" : 0,
            "name" : "Mesh",
            "skin" : 0
        },
        {
            "children" : [
                20,
                19
            ],
            "name" : "Majin"
        }
    ],
    "materials" : [
        {
            "doubleSided" : true,
            "name" : "Limb",
            "pbrMetallicRoughness" : {
                "baseColorTexture" : {
                    "index" : 0
                },
                "metallicFactor" : 0,
                "roughnessFactor" : 0.8999999761581421
            }
        },
        {
            "doubleSided" : true,
            "name" : "Hat",
            "pbrMetallicRoughness" : {
                "baseColorTexture" : {
                    "index" : 1
                },
                "metallicFactor" : 0,
                "roughnessFactor" : 0.8999999761581421
            }
        },
        {
            "doubleSided" : true,
            "name" : "Body",
            "pbrMetallicRoughness" : {
                "baseColorTexture" : {
                    "index" : 2
                },
                "metallicFactor" : 0,
                "roughnessFactor" : 0.8999999761581421
            }
        }
    ],
    "meshes" : [
        {
            "name" : "Mesh",
            "primitives" : [
                {
                    "attributes" : {
                        "POSITION" : 0,
                        "NORMAL" : 1,
                        "TEXCOORD_0" : 2,
                        "COLOR_0" : 3,
                        "JOINTS_0" : 4,
                        "WEIGHTS_0" : 5
                    },
                    "indices" : 6,
                    "material" : 0
                },
                {
                    "attributes" : {
                        "POSITION" : 7,
                        "NORMAL" : 8,
                        "TEXCOORD_0" : 9,
                        "COLOR_0" : 10,
                        "JOINTS_0" : 11,
                        "WEIGHTS_0" : 12
                    },
                    "indices" : 13,
                    "material" : 1
                },
                {
                    "attributes" : {
                        "POSITION" : 14,
                        "NORMAL" : 15,
                        "TEXCOORD_0" : 16,
                        "COLOR_0" : 17,
                        "JOINTS_0" : 18,
                        "WEIGHTS_0" : 19
                    },
                    "indices" : 20,
                    "material" : 2
                }
            ]
        }
    ],
    "textures" : [
        {
            "sampler" : 0,
            "source" : 0
        },
        {
            "sampler" : 0,
            "source" : 1
        },
        {
            "sampler" : 0,
            "source" : 2
        }
    ],
    "images" : [
        {
            "bufferView" : 7,
            "mimeType" : "image/png",
            "name" : "Green Majin Limbs"
        },
        {
            "bufferView" : 15,
            "mimeType" : "image/png",
            "name" : "Green Majin Hat"
        },
        {
            "bufferView" : 23,
            "mimeType" : "image/png",
            "name" : "Green Majin Body"
        }
    ],
    "skins" : [
        {
            "inverseBindMatrices" : 21,
            "joints" : [
                19,
                10,
                1,
                0,
                5,
                4,
                3,
                2,
                9,
                8,
                7,
                6,
                11,
                12,
                13,
                14,
                18,
                17,
                16,
                15
            ],
            "name" : "Majin"
        }
    ],
    "accessors" : [
        {
            "bufferView" : 0,
            "componentType" : 5126,
            "count" : 408,
            "max" : [
                1.8550817966461182,
                2.382690668106079,
                0.3460877537727356
            ],
            "min" : [
                -1.8550817966461182,
                -0.09400001913309097,
                -0.3225281536579132
            ],
            "type" : "VEC3"
        },
        {
            "bufferView" : 1,
            "componentType" : 5126,
            "count" : 408,
            "type" : "VEC3"
        },
        {
            "bufferView" : 2,
            "componentType" : 5126,
            "count" : 408,
            "type" : "VEC2"
        },
        {
            "bufferView" : 3,
            "componentType" : 5123,
            "count" : 408,
            "normalized" : true,
            "type" : "VEC4"
        },
        {
            "bufferView" : 4,
            "componentType" : 5121,
            "count" : 408,
            "type" : "VEC4"
        },
        {
            "bufferView" : 5,
            "componentType" : 5126,
            "count" : 408,
            "type" : "VEC4"
        },
        {
            "bufferView" : 6,
            "componentType" : 5123,
            "count" : 1650,
            "type" : "SCALAR"
        },
        {
            "bufferView" : 8,
            "componentType" : 5126,
            "count" : 189,
            "max" : [
                0.39529263973236084,
                2.2593343257904053,
                0.4113619923591614
            ],
            "min" : [
                -0.39529263973236084,
                1.6133579015731812,
                -0.46149125695228577
            ],
            "type" : "VEC3"
        },
        {
            "bufferView" : 9,
            "componentType" : 5126,
            "count" : 189,
            "type" : "VEC3"
        },
        {
            "bufferView" : 10,
            "componentType" : 5126,
            "count" : 189,
            "type" : "VEC2"
        },
        {
            "bufferView" : 11,
            "componentType" : 5123,
            "count" : 189,
            "normalized" : true,
            "type" : "VEC4"
        },
        {
            "bufferView" : 12,
            "componentType" : 5121,
            "count" : 189,
            "type" : "VEC4"
        },
        {
            "bufferView" : 13,
            "componentType" : 5126,
            "count" : 189,
            "type" : "VEC4"
        },
        {
            "bufferView" : 14,
            "componentType" : 5123,
            "count" : 696,
            "type" : "SCALAR"
        },
        {
            "bufferView" : 16,
            "componentType" : 5126,
            "count" : 618,
            "max" : [
                1.3579808473587036,
                2.235896587371826,
                0.40762078762054443
            ],
            "min" : [
                -1.3579808473587036,
                0.5210527777671814,
                -0.4179036319255829
            ],
            "type" : "VEC3"
        },
        {
            "bufferView" : 17,
            "componentType" : 5126,
            "count" : 618,
            "type" : "VEC3"
        },
        {
            "bufferView" : 18,
            "componentType" : 5126,
            "count" : 618,
            "type" : "VEC2"
        },
        {
            "bufferView" : 19,
            "componentType" : 5123,
            "count" : 618,
            "normalized" : true,
            "type" : "VEC4"
        },
        {
            "bufferView" : 20,
            "componentType" : 5121,
            "count" : 618,
            "type" : "VEC4"
        },
        {
            "bufferView" : 21,
            "componentType" : 5126,
            "count" : 618,
            "type" : "VEC4"
        },
        {
            "bufferView" : 22,
            "componentType" : 5123,
            "count" : 1644,
            "type" : "SCALAR"
        },
        {
            "bufferView" : 24,
            "componentType" : 5126,
            "count" : 20,
            "type" : "MAT4"
        }
    ],
    "bufferViews" : [
        {
            "buffer" : 0,
            "byteLength" : 4896,
            "byteOffset" : 0
        },
        {
            "buffer" : 0,
            "byteLength" : 4896,
            "byteOffset" : 4896
        },
        {
            "buffer" : 0,
            "byteLength" : 3264,
            "byteOffset" : 9792
        },
        {
            "buffer" : 0,
            "byteLength" : 3264,
            "byteOffset" : 13056
        },
        {
            "buffer" : 0,
            "byteLength" : 1632,
            "byteOffset" : 16320
        },
        {
            "buffer" : 0,
            "byteLength" : 6528,
            "byteOffset" : 17952
        },
        {
            "buffer" : 0,
            "byteLength" : 3300,
            "byteOffset" : 24480
        },
        {
            "buffer" : 0,
            "byteLength" : 21973,
            "byteOffset" : 27780
        },
        {
            "buffer" : 0,
            "byteLength" : 2268,
            "byteOffset" : 49756
        },
        {
            "buffer" : 0,
            "byteLength" : 2268,
            "byteOffset" : 52024
        },
        {
            "buffer" : 0,
            "byteLength" : 1512,
            "byteOffset" : 54292
        },
        {
            "buffer" : 0,
            "byteLength" : 1512,
            "byteOffset" : 55804
        },
        {
            "buffer" : 0,
            "byteLength" : 756,
            "byteOffset" : 57316
        },
        {
            "buffer" : 0,
            "byteLength" : 3024,
            "byteOffset" : 58072
        },
        {
            "buffer" : 0,
            "byteLength" : 1392,
            "byteOffset" : 61096
        },
        {
            "buffer" : 0,
            "byteLength" : 23959,
            "byteOffset" : 62488
        },
        {
            "buffer" : 0,
            "byteLength" : 7416,
            "byteOffset" : 86448
        },
        {
            "buffer" : 0,
            "byteLength" : 7416,
            "byteOffset" : 93864
        },
        {
            "buffer" : 0,
            "byteLength" : 4944,
            "byteOffset" : 101280
        },
        {
            "buffer" : 0,
            "byteLength" : 4944,
            "byteOffset" : 106224
        },
        {
            "buffer" : 0,
            "byteLength" : 2472,
            "byteOffset" : 111168
        },
        {
            "buffer" : 0,
            "byteLength" : 9888,
            "byteOffset" : 113640
        },
        {
            "buffer" : 0,
            "byteLength" : 3288,
            "byteOffset" : 123528
        },
        {
            "buffer" : 0,
            "byteLength" : 33524,
            "byteOffset" : 126816
        },
        {
            "buffer" : 0,
            "byteLength" : 1280,
            "byteOffset" : 160340
        }
    ],
    "samplers" : [
        {
            "magFilter" : 9729,
            "minFilter" : 9987
        }
    ],
    "buffers" : [
        {
            "byteLength" : 161620,
            "uri" : "data:application/octet-stream;base64,"
        }
    ]
}
