{
    "asset" : {
        "generator" : "Khronos glTF Blender I/O v3.3.27",
        "version" : "2.0"
    },
    "extensionsUsed" : [
        "KHR_materials_specular",
        "KHR_materials_ior"
    ],
    "scene" : 0,
    "scenes" : [
        {
            "name" : "Scene",
            "nodes" : [
                21
            ]
        }
    ],
    "nodes" : [
        {
            "name" : "l_ear",
            "rotation" : [
                -0.44128817319869995,
                -0.5513167977333069,
                -0.4424499571323395,
                0.5527680516242981
            ],
            "scale" : [
                1,
                1,
                0.9999999403953552
            ],
            "translation" : [
                0.3249998986721039,
                0.34500014781951904,
                7.438253760483349e-06
            ]
        },
        {
            "name" : "r_ear",
            "rotation" : [
                -0.4412882626056671,
                0.5513169169425964,
                0.44245001673698425,
                0.5527679920196533
            ],
            "scale" : [
                1,
                1.0000001192092896,
                1
            ],
            "translation" : [
                -0.3249998390674591,
                0.34500014781951904,
                7.441302386723692e-06
            ]
        },
        {
            "name" : "hat",
            "rotation" : [
                -0.5000007748603821,
                9.078775775606118e-08,
                9.31330532694119e-08,
                0.8660250902175903
            ],
            "scale" : [
                1,
                0.9999999403953552,
                0.9999999403953552
            ],
            "translation" : [
                8.112897376122419e-08,
                0.6838184595108032,
                -0.07499109953641891
            ]
        },
        {
            "name" : "mouth",
            "rotation" : [
                0.7675803899765015,
                1.330650775344111e-06,
                1.3270495173856034e-06,
                0.6409527063369751
            ],
            "scale" : [
                1,
                0.9999999403953552,
                0.9999999403953552
            ],
            "translation" : [
                -1.4856259156204032e-07,
                0.20000064373016357,
                -0.1479930281639099
            ]
        },
        {
            "children" : [
                0,
                1,
                2,
                3
            ],
            "name" : "head",
            "rotation" : [
                4.721730636723118e-16,
                -2.4200994985790203e-08,
                -2.4200978998578648e-08,
                1
            ],
            "translation" : [
                0,
                0.565000057220459,
                0
            ]
        },
        {
            "name" : "r_finger",
            "rotation" : [
                -5.681428319803672e-06,
                5.701929694623686e-06,
                0.000598898739553988,
                0.9999998211860657
            ],
            "translation" : [
                0.0013008039677515626,
                0.4353320300579071,
                0.06559865921735764
            ]
        },
        {
            "name" : "r_thumb",
            "rotation" : [
                -0.38161808252334595,
                0.8350481986999512,
                -0.061995938420295715,
                0.3914315402507782
            ],
            "scale" : [
                1.0000001192092896,
                1.000000238418579,
                1.0000001192092896
            ],
            "translation" : [
                -0.14412052929401398,
                0.06024637818336487,
                -0.024895258247852325
            ]
        },
        {
            "children" : [
                5,
                6
            ],
            "name" : "r_hand",
            "rotation" : [
                -0.003711577970534563,
                0.7070614099502563,
                -0.0037953283172100782,
                0.7071322202682495
            ],
            "scale" : [
                1,
                1.0000001192092896,
                1.0000001192092896
            ],
            "translation" : [
                -2.599669812752836e-09,
                0.9689622521400452,
                -1.1932570487260818e-09
            ]
        },
        {
            "children" : [
                7
            ],
            "name" : "r_arm02",
            "rotation" : [
                0.011616884730756283,
                -0.7069798707962036,
                0.01169321034103632,
                0.7070416212081909
            ],
            "translation" : [
                1.6798367141745985e-09,
                0.4209504723548889,
                1.4507119772133592e-07
            ]
        },
        {
            "children" : [
                8
            ],
            "name" : "r_arm01",
            "rotation" : [
                -0.5055568814277649,
                0.49438101053237915,
                0.49438101053237915,
                0.5055562853813171
            ],
            "scale" : [
                1,
                1.0000001192092896,
                1
            ],
            "translation" : [
                -0.47999972105026245,
                0.5400004386901855,
                5.871935627510538e-06
            ]
        },
        {
            "name" : "l_finger",
            "rotation" : [
                -5.681416496372549e-06,
                -5.681531092704972e-06,
                -0.0005988981574773788,
                0.9999998211860657
            ],
            "translation" : [
                -0.0013008017558604479,
                0.43533191084861755,
                0.06559865921735764
            ]
        },
        {
            "name" : "l_thumb",
            "rotation" : [
                -0.38161808252334595,
                -0.835048258304596,
                0.06199593096971512,
                0.3914315104484558
            ],
            "scale" : [
                1.0000001192092896,
                1.000000238418579,
                1
            ],
            "translation" : [
                0.14412052929401398,
                0.06024637073278427,
                -0.024895263835787773
            ]
        },
        {
            "children" : [
                10,
                11
            ],
            "name" : "l_hand",
            "rotation" : [
                -0.0037115796003490686,
                -0.7070614099502563,
                0.0037953322753310204,
                0.7071322202682495
            ],
            "scale" : [
                1,
                1.0000001192092896,
                1.0000001192092896
            ],
            "translation" : [
                -3.4492373401917575e-09,
                0.9689621925354004,
                -1.6007106751203537e-10
            ]
        },
        {
            "children" : [
                12
            ],
            "name" : "l_arm02",
            "rotation" : [
                0.011616886593401432,
                0.7069798111915588,
                -0.011693214997649193,
                0.7070416808128357
            ],
            "translation" : [
                7.634071153006516e-11,
                0.42095041275024414,
                1.460789036400456e-07
            ]
        },
        {
            "children" : [
                13
            ],
            "name" : "l_arm01",
            "rotation" : [
                -0.5055568218231201,
                -0.49438098073005676,
                -0.49438104033470154,
                0.5055562853813171
            ],
            "scale" : [
                1,
                1.0000001192092896,
                1
            ],
            "translation" : [
                0.4799997806549072,
                0.5400004386901855,
                5.9138988035556395e-06
            ]
        },
        {
            "children" : [
                4,
                9,
                14
            ],
            "name" : "chest",
            "rotation" : [
                -3.10588599042287e-22,
                2.1855743881360468e-08,
                2.1855729670505752e-08,
                1
            ],
            "translation" : [
                -3.7575348178294714e-20,
                1.0850001573562622,
                -3.363116314379561e-44
            ]
        },
        {
            "name" : "tail03",
            "rotation" : [
                -4.122105743087313e-15,
                -6.24203408960966e-08,
                6.242029826353246e-08,
                1
            ],
            "translation" : [
                0,
                0.2900000810623169,
                7.290583066292932e-24
            ]
        },
        {
            "children" : [
                16
            ],
            "name" : "tail02",
            "rotation" : [
                3.481229603766395e-15,
                8.960921604739269e-08,
                -8.960915920397383e-08,
                1
            ],
            "translation" : [
                8.881784197001252e-16,
                0.3550000786781311,
                -1.2505830863130425e-22
            ]
        },
        {
            "children" : [
                17
            ],
            "name" : "tail01",
            "rotation" : [
                -9.959283526459893e-19,
                1.9616308577496966e-11,
                -1.9614532220657566e-11,
                1
            ],
            "translation" : [
                -1.7763568394002505e-15,
                0.4399999976158142,
                0
            ]
        },
        {
            "children" : [
                18
            ],
            "name" : "stomach",
            "rotation" : [
                -1,
                2.539968946280169e-08,
                2.5399707226370083e-08,
                4.511891083371281e-22
            ],
            "translation" : [
                5.787477723182656e-20,
                1.0850001573562622,
                5.184804318001823e-44
            ]
        },
        {
            "mesh" : 0,
            "name" : "BlueMajinMesh",
            "skin" : 0
        },
        {
            "children" : [
                20,
                15,
                19
            ],
            "name" : "BlueMajinRoot"
        }
    ],
    "materials" : [
        {
            "extensions" : {
                "KHR_materials_specular" : {
                    "specularColorFactor" : [
                        0,
                        0,
                        0
                    ]
                },
                "KHR_materials_ior" : {
                    "ior" : 1.4500000476837158
                }
            },
            "name" : "Blue Majin Arm",
            "pbrMetallicRoughness" : {
                "baseColorFactor" : [
                    0.800000011920929,
                    0.800000011920929,
                    0.800000011920929,
                    1
                ],
                "metallicFactor" : 0
            }
        },
        {
            "extensions" : {
                "KHR_materials_specular" : {
                    "specularColorFactor" : [
                        0,
                        0,
                        0
                    ]
                },
                "KHR_materials_ior" : {
                    "ior" : 1.4500000476837158
                }
            },
            "name" : "Blue Majin Body",
            "pbrMetallicRoughness" : {
                "baseColorFactor" : [
                    0.800000011920929,
                    0.800000011920929,
                    0.800000011920929,
                    1
                ],
                "metallicFactor" : 0
            }
        }
    ],
    "meshes" : [
        {
            "name" : "BlueMajinMesh",
            "primitives" : [
                {
                    "attributes" : {
                        "POSITION" : 0,
                        "NORMAL" : 1,
                        "TEXCOORD_0" : 2,
                        "TEXCOORD_1" : 3,
                        "COLOR_0" : 4,
                        "JOINTS_0" : 5,
                        "WEIGHTS_0" : 6
                    },
                    "indices" : 7,
                    "material" : 0
                },
                {
                    "attributes" : {
                        "POSITION" : 8,
                        "NORMAL" : 9,
                        "TEXCOORD_0" : 10,
                        "TEXCOORD_1" : 11,
                        "COLOR_0" : 12,
                        "JOINTS_0" : 13,
                        "WEIGHTS_0" : 14
                    },
                    "indices" : 15,
                    "material" : 1
                }
            ]
        }
    ],
    "skins" : [
        {
            "inverseBindMatrices" : 16,
            "joints" : [
                15,
                4,
                0,
                1,
                2,
                3,
                9,
                8,
                7,
                5,
                6,
                14,
                13,
                12,
                10,
                11,
                19,
                18,
                17,
                16
            ],
            "name" : "BlueMajinRoot"
        }
    ],
    "accessors" : [
        {
            "bufferView" : 0,
            "componentType" : 5126,
            "count" : 3120,
            "max" : [
                2.62131929397583,
                2.589876174926758,
                0.4339914917945862
            ],
            "min" : [
                -2.62131929397583,
                -0.31396234035491943,
                -0.3366859257221222
            ],
            "type" : "VEC3"
        },
        {
            "bufferView" : 1,
            "componentType" : 5126,
            "count" : 3120,
            "type" : "VEC3"
        },
        {
            "bufferView" : 2,
            "componentType" : 5126,
            "count" : 3120,
            "type" : "VEC2"
        },
        {
            "bufferView" : 3,
            "componentType" : 5126,
            "count" : 3120,
            "type" : "VEC2"
        },
        {
            "bufferView" : 4,
            "componentType" : 5123,
            "count" : 3120,
            "normalized" : true,
            "type" : "VEC4"
        },
        {
            "bufferView" : 5,
            "componentType" : 5121,
            "count" : 3120,
            "type" : "VEC4"
        },
        {
            "bufferView" : 6,
            "componentType" : 5126,
            "count" : 3120,
            "type" : "VEC4"
        },
        {
            "bufferView" : 7,
            "componentType" : 5123,
            "count" : 3120,
            "type" : "SCALAR"
        },
        {
            "bufferView" : 8,
            "componentType" : 5126,
            "count" : 2796,
            "max" : [
                1.8719770908355713,
                2.3467214107513428,
                0.4157106280326843
            ],
            "min" : [
                -1.8719770908355713,
                0.29105257987976074,
                -0.4312254786491394
            ],
            "type" : "VEC3"
        },
        {
            "bufferView" : 9,
            "componentType" : 5126,
            "count" : 2796,
            "type" : "VEC3"
        },
        {
            "bufferView" : 10,
            "componentType" : 5126,
            "count" : 2796,
            "type" : "VEC2"
        },
        {
            "bufferView" : 11,
            "componentType" : 5126,
            "count" : 2796,
            "type" : "VEC2"
        },
        {
            "bufferView" : 12,
            "componentType" : 5123,
            "count" : 2796,
            "normalized" : true,
            "type" : "VEC4"
        },
        {
            "bufferView" : 13,
            "componentType" : 5121,
            "count" : 2796,
            "type" : "VEC4"
        },
        {
            "bufferView" : 14,
            "componentType" : 5126,
            "count" : 2796,
            "type" : "VEC4"
        },
        {
            "bufferView" : 15,
            "componentType" : 5123,
            "count" : 2796,
            "type" : "SCALAR"
        },
        {
            "bufferView" : 16,
            "componentType" : 5126,
            "count" : 20,
            "type" : "MAT4"
        }
    ],
    "bufferViews" : [
        {
            "buffer" : 0,
            "byteLength" : 37440,
            "byteOffset" : 0,
            "target" : 34962
        },
        {
            "buffer" : 0,
            "byteLength" : 37440,
            "byteOffset" : 37440,
            "target" : 34962
        },
        {
            "buffer" : 0,
            "byteLength" : 24960,
            "byteOffset" : 74880,
            "target" : 34962
        },
        {
            "buffer" : 0,
            "byteLength" : 24960,
            "byteOffset" : 99840,
            "target" : 34962
        },
        {
            "buffer" : 0,
            "byteLength" : 24960,
            "byteOffset" : 124800,
            "target" : 34962
        },
        {
            "buffer" : 0,
            "byteLength" : 12480,
            "byteOffset" : 149760,
            "target" : 34962
        },
        {
            "buffer" : 0,
            "byteLength" : 49920,
            "byteOffset" : 162240,
            "target" : 34962
        },
        {
            "buffer" : 0,
            "byteLength" : 6240,
            "byteOffset" : 212160,
            "target" : 34963
        },
        {
            "buffer" : 0,
            "byteLength" : 33552,
            "byteOffset" : 218400,
            "target" : 34962
        },
        {
            "buffer" : 0,
            "byteLength" : 33552,
            "byteOffset" : 251952,
            "target" : 34962
        },
        {
            "buffer" : 0,
            "byteLength" : 22368,
            "byteOffset" : 285504,
            "target" : 34962
        },
        {
            "buffer" : 0,
            "byteLength" : 22368,
            "byteOffset" : 307872,
            "target" : 34962
        },
        {
            "buffer" : 0,
            "byteLength" : 22368,
            "byteOffset" : 330240,
            "target" : 34962
        },
        {
            "buffer" : 0,
            "byteLength" : 11184,
            "byteOffset" : 352608,
            "target" : 34962
        },
        {
            "buffer" : 0,
            "byteLength" : 44736,
            "byteOffset" : 363792,
            "target" : 34962
        },
        {
            "buffer" : 0,
            "byteLength" : 5592,
            "byteOffset" : 408528,
            "target" : 34963
        },
        {
            "buffer" : 0,
            "byteLength" : 1280,
            "byteOffset" : 414120
        }
    ],
    "buffers" : [
        {
            "byteLength" : 415400,
            "uri" : "data:application/octet-stream;base64,"
        }
    ]
}
