{
    "asset" : {
        "generator" : "Khronos glTF Blender I/O v3.3.36",
        "version" : "2.0"
    },
    "scene" : 0,
    "scenes" : [
        {
            "name" : "Scene",
            "nodes" : [
                0,
                1,
                2
            ]
        }
    ],
    "nodes" : [
        {
            "mesh" : 0,
            "name" : "Wall"
        },
        {
            "mesh" : 1,
            "name" : "Floor"
        },
        {
            "mesh" : 2,
            "name" : "OneWayWall"
        }
    ],
    "meshes" : [
        {
            "name" : "Wall",
            "primitives" : [
                {
                    "attributes" : {
                        "POSITION" : 0,
                        "NORMAL" : 1
                    },
                    "indices" : 2
                }
            ]
        },
        {
            "name" : "Floor",
            "primitives" : [
                {
                    "attributes" : {
                        "POSITION" : 3,
                        "NORMAL" : 4
                    },
                    "indices" : 5
                }
            ]
        },
        {
            "name" : "OneWayWall",
            "primitives" : [
                {
                    "attributes" : {
                        "POSITION" : 6,
                        "NORMAL" : 7
                    },
                    "indices" : 8
                }
            ]
        }
    ],
    "accessors" : [
        {
            "bufferView" : 0,
            "componentType" : 5126,
            "count" : 2713,
            "max" : [
                651.6815185546875,
                26.296939849853516,
                48.914093017578125
            ],
            "min" : [
                -108.39006805419922,
                -103.83309173583984,
                -1581.01123046875
            ],
            "type" : "VEC3"
        },
        {
            "bufferView" : 1,
            "componentType" : 5126,
            "count" : 2713,
            "type" : "VEC3"
        },
        {
            "bufferView" : 2,
            "componentType" : 5123,
            "count" : 7260,
            "type" : "SCALAR"
        },
        {
            "bufferView" : 3,
            "componentType" : 5126,
            "count" : 1766,
            "max" : [
                652.0001831054688,
                16.296939849853516,
                3.197205066680908
            ],
            "min" : [
                -108.39006805419922,
                -107.40509796142578,
                -1581.01123046875
            ],
            "type" : "VEC3"
        },
        {
            "bufferView" : 4,
            "componentType" : 5126,
            "count" : 1766,
            "type" : "VEC3"
        },
        {
            "bufferView" : 5,
            "componentType" : 5123,
            "count" : 5307,
            "type" : "SCALAR"
        },
        {
            "bufferView" : 6,
            "componentType" : 5126,
            "count" : 68,
            "max" : [
                650.911376953125,
                10.005248069763184,
                -379.0002136230469
            ],
            "min" : [
                -101.01783752441406,
                -103.83309173583984,
                -1488.3701171875
            ],
            "type" : "VEC3"
        },
        {
            "bufferView" : 7,
            "componentType" : 5126,
            "count" : 68,
            "type" : "VEC3"
        },
        {
            "bufferView" : 8,
            "componentType" : 5123,
            "count" : 156,
            "type" : "SCALAR"
        }
    ],
    "bufferViews" : [
        {
            "buffer" : 0,
            "byteLength" : 32556,
            "byteOffset" : 0,
            "target" : 34962
        },
        {
            "buffer" : 0,
            "byteLength" : 32556,
            "byteOffset" : 32556,
            "target" : 34962
        },
        {
            "buffer" : 0,
            "byteLength" : 14520,
            "byteOffset" : 65112,
            "target" : 34963
        },
        {
            "buffer" : 0,
            "byteLength" : 21192,
            "byteOffset" : 79632,
            "target" : 34962
        },
        {
            "buffer" : 0,
            "byteLength" : 21192,
            "byteOffset" : 100824,
            "target" : 34962
        },
        {
            "buffer" : 0,
            "byteLength" : 10614,
            "byteOffset" : 122016,
            "target" : 34963
        },
        {
            "buffer" : 0,
            "byteLength" : 816,
            "byteOffset" : 132632,
            "target" : 34962
        },
        {
            "buffer" : 0,
            "byteLength" : 816,
            "byteOffset" : 133448,
            "target" : 34962
        },
        {
            "buffer" : 0,
            "byteLength" : 312,
            "byteOffset" : 134264,
            "target" : 34963
        }
    ],
    "buffers" : [
        {
            "byteLength" : 134576,
            "uri" : "data:application/octet-stream;base64,"
        }
    ]
}
