{
    "asset" : {
        "generator" : "Khronos glTF Blender I/O v3.3.36",
        "version" : "2.0"
    },
    "scene" : 0,
    "scenes" : [
        {
            "name" : "Scene",
            "nodes" : [
                0,
                1,
                2,
                3
            ]
        }
    ],
    "nodes" : [
        {
            "mesh" : 0,
            "name" : "Wall"
        },
        {
            "mesh" : 1,
            "name" : "Floor"
        },
        {
            "mesh" : 2,
            "name" : "OneWayWall"
        },
        {
            "mesh" : 3,
            "name" : "Ceiling"
        }
    ],
    "meshes" : [
        {
            "name" : "Wall",
            "primitives" : [
                {
                    "attributes" : {
                        "POSITION" : 0,
                        "NORMAL" : 1
                    },
                    "indices" : 2
                }
            ]
        },
        {
            "name" : "Floor",
            "primitives" : [
                {
                    "attributes" : {
                        "POSITION" : 3,
                        "NORMAL" : 4
                    },
                    "indices" : 5
                }
            ]
        },
        {
            "name" : "OneWayWall",
            "primitives" : [
                {
                    "attributes" : {
                        "POSITION" : 6,
                        "NORMAL" : 7
                    },
                    "indices" : 8
                }
            ]
        },
        {
            "name" : "Ceiling",
            "primitives" : [
                {
                    "attributes" : {
                        "POSITION" : 9,
                        "NORMAL" : 10
                    },
                    "indices" : 11
                }
            ]
        }
    ],
    "accessors" : [
        {
            "bufferView" : 0,
            "componentType" : 5126,
            "count" : 5604,
            "max" : [
                651.6815185546875,
                26.296939849853516,
                48.914215087890625
            ],
            "min" : [
                -108.39006805419922,
                -103.69523620605469,
                -1540.226806640625
            ],
            "type" : "VEC3"
        },
        {
            "bufferView" : 1,
            "componentType" : 5126,
            "count" : 5604,
            "type" : "VEC3"
        },
        {
            "bufferView" : 2,
            "componentType" : 5123,
            "count" : 7776,
            "type" : "SCALAR"
        },
        {
            "bufferView" : 3,
            "componentType" : 5126,
            "count" : 4450,
            "max" : [
                652.0001831054688,
                16.296939849853516,
                48.914215087890625
            ],
            "min" : [
                -108.39006805419922,
                -107.40509796142578,
                -1543.7763671875
            ],
            "type" : "VEC3"
        },
        {
            "bufferView" : 4,
            "componentType" : 5126,
            "count" : 4450,
            "type" : "VEC3"
        },
        {
            "bufferView" : 5,
            "componentType" : 5123,
            "count" : 6618,
            "type" : "SCALAR"
        },
        {
            "bufferView" : 6,
            "componentType" : 5126,
            "count" : 264,
            "max" : [
                651.000244140625,
                82.50254821777344,
                0.9999033212661743
            ],
            "min" : [
                -101.9000015258789,
                -103.24169921875,
                -1607.2381591796875
            ],
            "type" : "VEC3"
        },
        {
            "bufferView" : 7,
            "componentType" : 5126,
            "count" : 264,
            "type" : "VEC3"
        },
        {
            "bufferView" : 8,
            "componentType" : 5123,
            "count" : 396,
            "type" : "SCALAR"
        },
        {
            "bufferView" : 9,
            "componentType" : 5126,
            "count" : 84,
            "max" : [
                -36.99959182739258,
                -79.33872985839844,
                -903.8344116210938
            ],
            "min" : [
                -43.00028610229492,
                -81.9964599609375,
                -946.1663208007812
            ],
            "type" : "VEC3"
        },
        {
            "bufferView" : 10,
            "componentType" : 5126,
            "count" : 84,
            "type" : "VEC3"
        },
        {
            "bufferView" : 11,
            "componentType" : 5123,
            "count" : 240,
            "type" : "SCALAR"
        }
    ],
    "bufferViews" : [
        {
            "buffer" : 0,
            "byteLength" : 67248,
            "byteOffset" : 0,
            "target" : 34962
        },
        {
            "buffer" : 0,
            "byteLength" : 67248,
            "byteOffset" : 67248,
            "target" : 34962
        },
        {
            "buffer" : 0,
            "byteLength" : 15552,
            "byteOffset" : 134496,
            "target" : 34963
        },
        {
            "buffer" : 0,
            "byteLength" : 53400,
            "byteOffset" : 150048,
            "target" : 34962
        },
        {
            "buffer" : 0,
            "byteLength" : 53400,
            "byteOffset" : 203448,
            "target" : 34962
        },
        {
            "buffer" : 0,
            "byteLength" : 13236,
            "byteOffset" : 256848,
            "target" : 34963
        },
        {
            "buffer" : 0,
            "byteLength" : 3168,
            "byteOffset" : 270084,
            "target" : 34962
        },
        {
            "buffer" : 0,
            "byteLength" : 3168,
            "byteOffset" : 273252,
            "target" : 34962
        },
        {
            "buffer" : 0,
            "byteLength" : 792,
            "byteOffset" : 276420,
            "target" : 34963
        },
        {
            "buffer" : 0,
            "byteLength" : 1008,
            "byteOffset" : 277212,
            "target" : 34962
        },
        {
            "buffer" : 0,
            "byteLength" : 1008,
            "byteOffset" : 278220,
            "target" : 34962
        },
        {
            "buffer" : 0,
            "byteLength" : 480,
            "byteOffset" : 279228,
            "target" : 34963
        }
    ],
    "buffers" : [
        {
            "byteLength" : 279708,
            "uri" : "data:application/octet-stream;base64,"
        }
    ]
}
