{
    "asset" : {
        "generator" : "Khronos glTF Blender I/O v3.3.36",
        "version" : "2.0"
    },
    "scene" : 0,
    "scenes" : [
        {
            "name" : "Scene",
            "nodes" : [
                0,
                1,
                2,
                3,
                4,
                5,
                6,
                7,
                8,
                9,
                10,
                11,
                12,
                13,
                14,
                15,
                16,
                17,
                18,
                19,
                20,
                21
            ]
        }
    ],
    "nodes" : [
        {
            "mesh" : 0,
            "name" : "Wall"
        },
        {
            "mesh" : 1,
            "name" : "Floor"
        },
        {
            "mesh" : 2,
            "name" : "OneWayWall"
        },
        {
            "name" : "Rukh1Path"
        },
        {
            "name" : "TowerPath"
        },
        {
            "name" : "Rukh2Path"
        },
        {
            "name" : "Rukh3Path"
        },
        {
            "name" : "Rukh4Path"
        },
        {
            "name" : "SkyRoadPath1"
        },
        {
            "name" : "SkyRoadPath2"
        },
        {
            "name" : "SkyRoadPath3"
        },
        {
            "name" : "SkyRoadPath4"
        },
        {
            "name" : "SkyRoadPath5"
        },
        {
            "name" : "Rukh7Path"
        },
        {
            "name" : "Rukh5TowerPath"
        },
        {
            "name" : "TowerTopPath"
        },
        {
            "name" : "SkyroadLoopAutomationPath"
        },
        {
            "name" : "SkyRoadPath6"
        },
        {
            "name" : "Rukh5Path"
        },
        {
            "name" : "SkyRoadCamPath2"
        },
        {
            "name" : "SkyRoadCamPath3"
        },
        {
            "name" : "SkyRoadCamPath4"
        }
    ],
    "meshes" : [
        {
            "name" : "Wall",
            "primitives" : [
                {
                    "attributes" : {
                        "POSITION" : 0,
                        "NORMAL" : 1
                    },
                    "indices" : 2
                }
            ]
        },
        {
            "name" : "Floor",
            "primitives" : [
                {
                    "attributes" : {
                        "POSITION" : 3,
                        "NORMAL" : 4
                    },
                    "indices" : 5
                }
            ]
        },
        {
            "name" : "OneWayWall",
            "primitives" : [
                {
                    "attributes" : {
                        "POSITION" : 6,
                        "NORMAL" : 7
                    },
                    "indices" : 8
                }
            ]
        }
    ],
    "accessors" : [
        {
            "bufferView" : 0,
            "componentType" : 5126,
            "count" : 4817,
            "max" : [
                651.6815185546875,
                26.296939849853516,
                0.9999033212661743
            ],
            "min" : [
                -108.39006805419922,
                -103.69523620605469,
                -1540.226806640625
            ],
            "type" : "VEC3"
        },
        {
            "bufferView" : 1,
            "componentType" : 5126,
            "count" : 4817,
            "type" : "VEC3"
        },
        {
            "bufferView" : 2,
            "componentType" : 5123,
            "count" : 6843,
            "type" : "SCALAR"
        },
        {
            "bufferView" : 3,
            "componentType" : 5126,
            "count" : 4307,
            "max" : [
                652.0001831054688,
                16.296939849853516,
                2.399322748184204
            ],
            "min" : [
                -108.39006805419922,
                -107.40509796142578,
                -1543.7763671875
            ],
            "type" : "VEC3"
        },
        {
            "bufferView" : 4,
            "componentType" : 5126,
            "count" : 4307,
            "type" : "VEC3"
        },
        {
            "bufferView" : 5,
            "componentType" : 5123,
            "count" : 6174,
            "type" : "SCALAR"
        },
        {
            "bufferView" : 6,
            "componentType" : 5126,
            "count" : 220,
            "max" : [
                651.000244140625,
                82.50254821777344,
                -287.4705810546875
            ],
            "min" : [
                -101.9000015258789,
                -103.24169921875,
                -1607.2381591796875
            ],
            "type" : "VEC3"
        },
        {
            "bufferView" : 7,
            "componentType" : 5126,
            "count" : 220,
            "type" : "VEC3"
        },
        {
            "bufferView" : 8,
            "componentType" : 5123,
            "count" : 330,
            "type" : "SCALAR"
        }
    ],
    "bufferViews" : [
        {
            "buffer" : 0,
            "byteLength" : 57804,
            "byteOffset" : 0,
            "target" : 34962
        },
        {
            "buffer" : 0,
            "byteLength" : 57804,
            "byteOffset" : 57804,
            "target" : 34962
        },
        {
            "buffer" : 0,
            "byteLength" : 13686,
            "byteOffset" : 115608,
            "target" : 34963
        },
        {
            "buffer" : 0,
            "byteLength" : 51684,
            "byteOffset" : 129296,
            "target" : 34962
        },
        {
            "buffer" : 0,
            "byteLength" : 51684,
            "byteOffset" : 180980,
            "target" : 34962
        },
        {
            "buffer" : 0,
            "byteLength" : 12348,
            "byteOffset" : 232664,
            "target" : 34963
        },
        {
            "buffer" : 0,
            "byteLength" : 2640,
            "byteOffset" : 245012,
            "target" : 34962
        },
        {
            "buffer" : 0,
            "byteLength" : 2640,
            "byteOffset" : 247652,
            "target" : 34962
        },
        {
            "buffer" : 0,
            "byteLength" : 660,
            "byteOffset" : 250292,
            "target" : 34963
        }
    ],
    "buffers" : [
        {
            "byteLength" : 250952,
            "uri" : "data:application/octet-stream;base64,"
        }
    ]
}
