{
    "asset" : {
        "generator" : "Khronos glTF Blender I/O v3.3.36",
        "version" : "2.0"
    },
    "scene" : 0,
    "scenes" : [
        {
            "name" : "Scene",
            "nodes" : [
                0,
                1,
                2
            ]
        }
    ],
    "nodes" : [
        {
            "mesh" : 0,
            "name" : "Wall"
        },
        {
            "mesh" : 1,
            "name" : "Floor"
        },
        {
            "mesh" : 2,
            "name" : "OneWayWall"
        }
    ],
    "meshes" : [
        {
            "name" : "Wall",
            "primitives" : [
                {
                    "attributes" : {
                        "POSITION" : 0,
                        "NORMAL" : 1
                    },
                    "indices" : 2
                }
            ]
        },
        {
            "name" : "Floor",
            "primitives" : [
                {
                    "attributes" : {
                        "POSITION" : 3,
                        "NORMAL" : 4
                    },
                    "indices" : 5
                }
            ]
        },
        {
            "name" : "OneWayWall",
            "primitives" : [
                {
                    "attributes" : {
                        "POSITION" : 6,
                        "NORMAL" : 7
                    },
                    "indices" : 8
                }
            ]
        }
    ],
    "accessors" : [
        {
            "bufferView" : 0,
            "componentType" : 5126,
            "count" : 2435,
            "max" : [
                651.6815185546875,
                26.296939849853516,
                0.9999033212661743
            ],
            "min" : [
                -108.39006805419922,
                -103.83309173583984,
                -1581.01123046875
            ],
            "type" : "VEC3"
        },
        {
            "bufferView" : 1,
            "componentType" : 5126,
            "count" : 2435,
            "type" : "VEC3"
        },
        {
            "bufferView" : 2,
            "componentType" : 5123,
            "count" : 6588,
            "type" : "SCALAR"
        },
        {
            "bufferView" : 3,
            "componentType" : 5126,
            "count" : 1834,
            "max" : [
                652.0001831054688,
                16.296939849853516,
                2.399322748184204
            ],
            "min" : [
                -108.39006805419922,
                -107.40509796142578,
                -1581.01123046875
            ],
            "type" : "VEC3"
        },
        {
            "bufferView" : 4,
            "componentType" : 5126,
            "count" : 1834,
            "type" : "VEC3"
        },
        {
            "bufferView" : 5,
            "componentType" : 5123,
            "count" : 5823,
            "type" : "SCALAR"
        },
        {
            "bufferView" : 6,
            "componentType" : 5126,
            "count" : 48,
            "max" : [
                650.911376953125,
                16.96991729736328,
                -287.4705810546875
            ],
            "min" : [
                -101.01783752441406,
                -103.83309173583984,
                -1488.3701171875
            ],
            "type" : "VEC3"
        },
        {
            "bufferView" : 7,
            "componentType" : 5126,
            "count" : 48,
            "type" : "VEC3"
        },
        {
            "bufferView" : 8,
            "componentType" : 5123,
            "count" : 96,
            "type" : "SCALAR"
        }
    ],
    "bufferViews" : [
        {
            "buffer" : 0,
            "byteLength" : 29220,
            "byteOffset" : 0,
            "target" : 34962
        },
        {
            "buffer" : 0,
            "byteLength" : 29220,
            "byteOffset" : 29220,
            "target" : 34962
        },
        {
            "buffer" : 0,
            "byteLength" : 13176,
            "byteOffset" : 58440,
            "target" : 34963
        },
        {
            "buffer" : 0,
            "byteLength" : 22008,
            "byteOffset" : 71616,
            "target" : 34962
        },
        {
            "buffer" : 0,
            "byteLength" : 22008,
            "byteOffset" : 93624,
            "target" : 34962
        },
        {
            "buffer" : 0,
            "byteLength" : 11646,
            "byteOffset" : 115632,
            "target" : 34963
        },
        {
            "buffer" : 0,
            "byteLength" : 576,
            "byteOffset" : 127280,
            "target" : 34962
        },
        {
            "buffer" : 0,
            "byteLength" : 576,
            "byteOffset" : 127856,
            "target" : 34962
        },
        {
            "buffer" : 0,
            "byteLength" : 192,
            "byteOffset" : 128432,
            "target" : 34963
        }
    ],
    "buffers" : [
        {
            "byteLength" : 128624,
            "uri" : "data:application/octet-stream;base64,"
        }
    ]
}
