{
    "asset" : {
        "generator" : "Khronos glTF Blender I/O v3.3.27",
        "version" : "2.0"
    },
    "scene" : 0,
    "scenes" : [
        {
            "name" : "Scene",
            "nodes" : [
                0,
                1
            ]
        }
    ],
    "nodes" : [
        {
            "mesh" : 0,
            "name" : "Wall"
        },
        {
            "mesh" : 1,
            "name" : "Floor"
        }
    ],
    "meshes" : [
        {
            "name" : "Wall",
            "primitives" : [
                {
                    "attributes" : {
                        "POSITION" : 0,
                        "NORMAL" : 1
                    },
                    "indices" : 2
                }
            ]
        },
        {
            "name" : "Floor",
            "primitives" : [
                {
                    "attributes" : {
                        "POSITION" : 3,
                        "NORMAL" : 4
                    },
                    "indices" : 5
                }
            ]
        }
    ],
    "accessors" : [
        {
            "bufferView" : 0,
            "componentType" : 5126,
            "count" : 3697,
            "max" : [
                93.78498840332031,
                120.00243377685547,
                5.15581750869751
            ],
            "min" : [
                -400.6011047363281,
                -99.99932861328125,
                -439.27154541015625
            ],
            "type" : "VEC3"
        },
        {
            "bufferView" : 1,
            "componentType" : 5126,
            "count" : 3697,
            "type" : "VEC3"
        },
        {
            "bufferView" : 2,
            "componentType" : 5123,
            "count" : 5625,
            "type" : "SCALAR"
        },
        {
            "bufferView" : 3,
            "componentType" : 5126,
            "count" : 1665,
            "max" : [
                92.30782318115234,
                110.00243377685547,
                32.19236755371094
            ],
            "min" : [
                -400.6011962890625,
                -65.0184097290039,
                -439.41595458984375
            ],
            "type" : "VEC3"
        },
        {
            "bufferView" : 4,
            "componentType" : 5126,
            "count" : 1665,
            "type" : "VEC3"
        },
        {
            "bufferView" : 5,
            "componentType" : 5123,
            "count" : 2646,
            "type" : "SCALAR"
        }
    ],
    "bufferViews" : [
        {
            "buffer" : 0,
            "byteLength" : 44364,
            "byteOffset" : 0,
            "target" : 34962
        },
        {
            "buffer" : 0,
            "byteLength" : 44364,
            "byteOffset" : 44364,
            "target" : 34962
        },
        {
            "buffer" : 0,
            "byteLength" : 11250,
            "byteOffset" : 88728,
            "target" : 34963
        },
        {
            "buffer" : 0,
            "byteLength" : 19980,
            "byteOffset" : 99980,
            "target" : 34962
        },
        {
            "buffer" : 0,
            "byteLength" : 19980,
            "byteOffset" : 119960,
            "target" : 34962
        },
        {
            "buffer" : 0,
            "byteLength" : 5292,
            "byteOffset" : 139940,
            "target" : 34963
        }
    ],
    "buffers" : [
        {
            "byteLength" : 145232,
            "uri" : "data:application/octet-stream;base64,"
        }
    ]
}
