{
    "asset" : {
        "generator" : "Khronos glTF Blender I/O v1.8.19",
        "version" : "2.0"
    },
    "scene" : 0,
    "scenes" : [
        {
            "name" : "Scene",
            "nodes" : [
                0,
                1,
                2,
                3,
                4
            ]
        }
    ],
    "nodes" : [
        {
            "mesh" : 0,
            "name" : "EnemyStonePiece1",
            "translation" : [
                -0.5616754293441772,
                0.3800373077392578,
                0.5840297937393188
            ]
        },
        {
            "mesh" : 1,
            "name" : "EnemyStonePiece2",
            "translation" : [
                0.4392458200454712,
                -0.34941792488098145,
                0.5744956731796265
            ]
        },
        {
            "mesh" : 2,
            "name" : "EnemyStonePiece3",
            "translation" : [
                0.6510542631149292,
                0.7560111880302429,
                -0.7633073329925537
            ]
        },
        {
            "mesh" : 3,
            "name" : "EnemyStonePiece4",
            "translation" : [
                -0.6213234663009644,
                -0.028360366821289062,
                -0.3609544038772583
            ]
        },
        {
            "mesh" : 4,
            "name" : "EnemyStonePiece5",
            "translation" : [
                0.7276098132133484,
                0.3568677604198456,
                0.16720986366271973
            ]
        }
    ],
    "materials" : [
        {
            "name" : "Enemy Stone",
            "pbrMetallicRoughness" : {
                "baseColorTexture" : {
                    "index" : 0
                },
                "metallicFactor" : 0,
                "roughnessFactor" : 0.8999999761581421
            }
        },
        {
            "name" : "Enemy Stone Crevice",
            "pbrMetallicRoughness" : {
                "baseColorTexture" : {
                    "index" : 1
                },
                "metallicFactor" : 0,
                "roughnessFactor" : 0.8999999761581421
            }
        }
    ],
    "meshes" : [
        {
            "name" : "EnemyStonePiece1",
            "primitives" : [
                {
                    "attributes" : {
                        "POSITION" : 0,
                        "NORMAL" : 1,
                        "TEXCOORD_0" : 2,
                        "COLOR_0" : 3
                    },
                    "indices" : 4,
                    "material" : 0
                },
                {
                    "attributes" : {
                        "POSITION" : 5,
                        "NORMAL" : 6,
                        "TEXCOORD_0" : 7,
                        "COLOR_0" : 8
                    },
                    "indices" : 9,
                    "material" : 1
                }
            ]
        },
        {
            "name" : "EnemyStonePiece2",
            "primitives" : [
                {
                    "attributes" : {
                        "POSITION" : 10,
                        "NORMAL" : 11,
                        "TEXCOORD_0" : 12,
                        "COLOR_0" : 13
                    },
                    "indices" : 14,
                    "material" : 0
                },
                {
                    "attributes" : {
                        "POSITION" : 15,
                        "NORMAL" : 16,
                        "TEXCOORD_0" : 17,
                        "COLOR_0" : 18
                    },
                    "indices" : 19,
                    "material" : 1
                }
            ]
        },
        {
            "name" : "EnemyStonePiece3",
            "primitives" : [
                {
                    "attributes" : {
                        "POSITION" : 20,
                        "NORMAL" : 21,
                        "TEXCOORD_0" : 22,
                        "COLOR_0" : 23
                    },
                    "indices" : 24,
                    "material" : 1
                },
                {
                    "attributes" : {
                        "POSITION" : 25,
                        "NORMAL" : 26,
                        "TEXCOORD_0" : 27,
                        "COLOR_0" : 28
                    },
                    "indices" : 29,
                    "material" : 0
                }
            ]
        },
        {
            "name" : "EnemyStonePiece4",
            "primitives" : [
                {
                    "attributes" : {
                        "POSITION" : 30,
                        "NORMAL" : 31,
                        "TEXCOORD_0" : 32,
                        "COLOR_0" : 33
                    },
                    "indices" : 34,
                    "material" : 0
                },
                {
                    "attributes" : {
                        "POSITION" : 35,
                        "NORMAL" : 36,
                        "TEXCOORD_0" : 37,
                        "COLOR_0" : 38
                    },
                    "indices" : 39,
                    "material" : 1
                }
            ]
        },
        {
            "name" : "EnemyStonePiece5",
            "primitives" : [
                {
                    "attributes" : {
                        "POSITION" : 40,
                        "NORMAL" : 41,
                        "TEXCOORD_0" : 42,
                        "COLOR_0" : 43
                    },
                    "indices" : 44,
                    "material" : 1
                },
                {
                    "attributes" : {
                        "POSITION" : 45,
                        "NORMAL" : 46,
                        "TEXCOORD_0" : 47,
                        "COLOR_0" : 48
                    },
                    "indices" : 49,
                    "material" : 0
                }
            ]
        }
    ],
    "textures" : [
        {
            "sampler" : 0,
            "source" : 0
        },
        {
            "sampler" : 0,
            "source" : 1
        }
    ],
    "images" : [
        {
            "bufferView" : 5,
            "mimeType" : "image/png",
            "name" : "enemy stone"
        },
        {
            "bufferView" : 11,
            "mimeType" : "image/png",
            "name" : "enemy stone crevice"
        }
    ],
    "accessors" : [
        {
            "bufferView" : 0,
            "componentType" : 5126,
            "count" : 51,
            "max" : [
                0.6188380122184753,
                0.6199597716331482,
                0.41648730635643005
            ],
            "min" : [
                -0.4359576404094696,
                -0.6526165008544922,
                -0.6306664943695068
            ],
            "type" : "VEC3"
        },
        {
            "bufferView" : 1,
            "componentType" : 5126,
            "count" : 51,
            "type" : "VEC3"
        },
        {
            "bufferView" : 2,
            "componentType" : 5126,
            "count" : 51,
            "type" : "VEC2"
        },
        {
            "bufferView" : 3,
            "componentType" : 5123,
            "count" : 51,
            "normalized" : true,
            "type" : "VEC4"
        },
        {
            "bufferView" : 4,
            "componentType" : 5123,
            "count" : 51,
            "type" : "SCALAR"
        },
        {
            "bufferView" : 6,
            "componentType" : 5126,
            "count" : 45,
            "max" : [
                0.6188380122184753,
                0.6199597716331482,
                0.41648730635643005
            ],
            "min" : [
                -0.4359576404094696,
                -0.6526165008544922,
                -0.6306664943695068
            ],
            "type" : "VEC3"
        },
        {
            "bufferView" : 7,
            "componentType" : 5126,
            "count" : 45,
            "type" : "VEC3"
        },
        {
            "bufferView" : 8,
            "componentType" : 5126,
            "count" : 45,
            "type" : "VEC2"
        },
        {
            "bufferView" : 9,
            "componentType" : 5123,
            "count" : 45,
            "normalized" : true,
            "type" : "VEC4"
        },
        {
            "bufferView" : 10,
            "componentType" : 5123,
            "count" : 45,
            "type" : "SCALAR"
        },
        {
            "bufferView" : 12,
            "componentType" : 5126,
            "count" : 45,
            "max" : [
                0.5607541799545288,
                0.6290512084960938,
                0.42550066113471985
            ],
            "min" : [
                -0.5566208362579346,
                -0.6505858898162842,
                -0.4662199020385742
            ],
            "type" : "VEC3"
        },
        {
            "bufferView" : 13,
            "componentType" : 5126,
            "count" : 45,
            "type" : "VEC3"
        },
        {
            "bufferView" : 14,
            "componentType" : 5126,
            "count" : 45,
            "type" : "VEC2"
        },
        {
            "bufferView" : 15,
            "componentType" : 5123,
            "count" : 45,
            "normalized" : true,
            "type" : "VEC4"
        },
        {
            "bufferView" : 16,
            "componentType" : 5123,
            "count" : 45,
            "type" : "SCALAR"
        },
        {
            "bufferView" : 17,
            "componentType" : 5126,
            "count" : 69,
            "max" : [
                0.5607541799545288,
                0.6398335695266724,
                0.42550066113471985
            ],
            "min" : [
                -0.5790923237800598,
                -0.6505858898162842,
                -0.4662199020385742
            ],
            "type" : "VEC3"
        },
        {
            "bufferView" : 18,
            "componentType" : 5126,
            "count" : 69,
            "type" : "VEC3"
        },
        {
            "bufferView" : 19,
            "componentType" : 5126,
            "count" : 69,
            "type" : "VEC2"
        },
        {
            "bufferView" : 20,
            "componentType" : 5123,
            "count" : 69,
            "normalized" : true,
            "type" : "VEC4"
        },
        {
            "bufferView" : 21,
            "componentType" : 5123,
            "count" : 69,
            "type" : "SCALAR"
        },
        {
            "bufferView" : 22,
            "componentType" : 5126,
            "count" : 39,
            "max" : [
                0.3489457666873932,
                0.2439924031496048,
                0.48502787947654724
            ],
            "min" : [
                -0.6086218953132629,
                -0.3259665369987488,
                -0.23668888211250305
            ],
            "type" : "VEC3"
        },
        {
            "bufferView" : 23,
            "componentType" : 5126,
            "count" : 39,
            "type" : "VEC3"
        },
        {
            "bufferView" : 24,
            "componentType" : 5126,
            "count" : 39,
            "type" : "VEC2"
        },
        {
            "bufferView" : 25,
            "componentType" : 5123,
            "count" : 39,
            "normalized" : true,
            "type" : "VEC4"
        },
        {
            "bufferView" : 26,
            "componentType" : 5123,
            "count" : 39,
            "type" : "SCALAR"
        },
        {
            "bufferView" : 27,
            "componentType" : 5126,
            "count" : 33,
            "max" : [
                0.3489457666873932,
                0.2439924031496048,
                0.48502787947654724
            ],
            "min" : [
                -0.6086218953132629,
                -0.3259665369987488,
                -0.23668888211250305
            ],
            "type" : "VEC3"
        },
        {
            "bufferView" : 28,
            "componentType" : 5126,
            "count" : 33,
            "type" : "VEC3"
        },
        {
            "bufferView" : 29,
            "componentType" : 5126,
            "count" : 33,
            "type" : "VEC2"
        },
        {
            "bufferView" : 30,
            "componentType" : 5123,
            "count" : 33,
            "normalized" : true,
            "type" : "VEC4"
        },
        {
            "bufferView" : 31,
            "componentType" : 5123,
            "count" : 33,
            "type" : "SCALAR"
        },
        {
            "bufferView" : 32,
            "componentType" : 5126,
            "count" : 42,
            "max" : [
                0.5124791264533997,
                0.08979512006044388,
                1.3609510660171509
            ],
            "min" : [
                -0.37867650389671326,
                -0.9716359376907349,
                -0.6390489339828491
            ],
            "type" : "VEC3"
        },
        {
            "bufferView" : 33,
            "componentType" : 5126,
            "count" : 42,
            "type" : "VEC3"
        },
        {
            "bufferView" : 34,
            "componentType" : 5126,
            "count" : 42,
            "type" : "VEC2"
        },
        {
            "bufferView" : 35,
            "componentType" : 5123,
            "count" : 42,
            "normalized" : true,
            "type" : "VEC4"
        },
        {
            "bufferView" : 36,
            "componentType" : 5123,
            "count" : 42,
            "type" : "SCALAR"
        },
        {
            "bufferView" : 37,
            "componentType" : 5126,
            "count" : 42,
            "max" : [
                0.5124791264533997,
                0.08979512006044388,
                1.3609510660171509
            ],
            "min" : [
                -0.37867650389671326,
                -0.9716359376907349,
                -0.6390489339828491
            ],
            "type" : "VEC3"
        },
        {
            "bufferView" : 38,
            "componentType" : 5126,
            "count" : 42,
            "type" : "VEC3"
        },
        {
            "bufferView" : 39,
            "componentType" : 5126,
            "count" : 42,
            "type" : "VEC2"
        },
        {
            "bufferView" : 40,
            "componentType" : 5123,
            "count" : 42,
            "normalized" : true,
            "type" : "VEC4"
        },
        {
            "bufferView" : 41,
            "componentType" : 5123,
            "count" : 42,
            "type" : "SCALAR"
        },
        {
            "bufferView" : 42,
            "componentType" : 5126,
            "count" : 39,
            "max" : [
                0.2723901867866516,
                0.5582093000411987,
                0.5449907779693604
            ],
            "min" : [
                -0.49551522731781006,
                -0.4517673850059509,
                -0.5200695395469666
            ],
            "type" : "VEC3"
        },
        {
            "bufferView" : 43,
            "componentType" : 5126,
            "count" : 39,
            "type" : "VEC3"
        },
        {
            "bufferView" : 44,
            "componentType" : 5126,
            "count" : 39,
            "type" : "VEC2"
        },
        {
            "bufferView" : 45,
            "componentType" : 5123,
            "count" : 39,
            "normalized" : true,
            "type" : "VEC4"
        },
        {
            "bufferView" : 46,
            "componentType" : 5123,
            "count" : 39,
            "type" : "SCALAR"
        },
        {
            "bufferView" : 47,
            "componentType" : 5126,
            "count" : 15,
            "max" : [
                0.2723901867866516,
                0.5582093000411987,
                0.5449907779693604
            ],
            "min" : [
                0.2715509831905365,
                -0.4517673850059509,
                -0.5200695395469666
            ],
            "type" : "VEC3"
        },
        {
            "bufferView" : 48,
            "componentType" : 5126,
            "count" : 15,
            "type" : "VEC3"
        },
        {
            "bufferView" : 49,
            "componentType" : 5126,
            "count" : 15,
            "type" : "VEC2"
        },
        {
            "bufferView" : 50,
            "componentType" : 5123,
            "count" : 15,
            "normalized" : true,
            "type" : "VEC4"
        },
        {
            "bufferView" : 51,
            "componentType" : 5123,
            "count" : 15,
            "type" : "SCALAR"
        }
    ],
    "bufferViews" : [
        {
            "buffer" : 0,
            "byteLength" : 612,
            "byteOffset" : 0
        },
        {
            "buffer" : 0,
            "byteLength" : 612,
            "byteOffset" : 612
        },
        {
            "buffer" : 0,
            "byteLength" : 408,
            "byteOffset" : 1224
        },
        {
            "buffer" : 0,
            "byteLength" : 408,
            "byteOffset" : 1632
        },
        {
            "buffer" : 0,
            "byteLength" : 102,
            "byteOffset" : 2040
        },
        {
            "buffer" : 0,
            "byteLength" : 81162,
            "byteOffset" : 2144
        },
        {
            "buffer" : 0,
            "byteLength" : 540,
            "byteOffset" : 83308
        },
        {
            "buffer" : 0,
            "byteLength" : 540,
            "byteOffset" : 83848
        },
        {
            "buffer" : 0,
            "byteLength" : 360,
            "byteOffset" : 84388
        },
        {
            "buffer" : 0,
            "byteLength" : 360,
            "byteOffset" : 84748
        },
        {
            "buffer" : 0,
            "byteLength" : 90,
            "byteOffset" : 85108
        },
        {
            "buffer" : 0,
            "byteLength" : 21792,
            "byteOffset" : 85200
        },
        {
            "buffer" : 0,
            "byteLength" : 540,
            "byteOffset" : 106992
        },
        {
            "buffer" : 0,
            "byteLength" : 540,
            "byteOffset" : 107532
        },
        {
            "buffer" : 0,
            "byteLength" : 360,
            "byteOffset" : 108072
        },
        {
            "buffer" : 0,
            "byteLength" : 360,
            "byteOffset" : 108432
        },
        {
            "buffer" : 0,
            "byteLength" : 90,
            "byteOffset" : 108792
        },
        {
            "buffer" : 0,
            "byteLength" : 828,
            "byteOffset" : 108884
        },
        {
            "buffer" : 0,
            "byteLength" : 828,
            "byteOffset" : 109712
        },
        {
            "buffer" : 0,
            "byteLength" : 552,
            "byteOffset" : 110540
        },
        {
            "buffer" : 0,
            "byteLength" : 552,
            "byteOffset" : 111092
        },
        {
            "buffer" : 0,
            "byteLength" : 138,
            "byteOffset" : 111644
        },
        {
            "buffer" : 0,
            "byteLength" : 468,
            "byteOffset" : 111784
        },
        {
            "buffer" : 0,
            "byteLength" : 468,
            "byteOffset" : 112252
        },
        {
            "buffer" : 0,
            "byteLength" : 312,
            "byteOffset" : 112720
        },
        {
            "buffer" : 0,
            "byteLength" : 312,
            "byteOffset" : 113032
        },
        {
            "buffer" : 0,
            "byteLength" : 78,
            "byteOffset" : 113344
        },
        {
            "buffer" : 0,
            "byteLength" : 396,
            "byteOffset" : 113424
        },
        {
            "buffer" : 0,
            "byteLength" : 396,
            "byteOffset" : 113820
        },
        {
            "buffer" : 0,
            "byteLength" : 264,
            "byteOffset" : 114216
        },
        {
            "buffer" : 0,
            "byteLength" : 264,
            "byteOffset" : 114480
        },
        {
            "buffer" : 0,
            "byteLength" : 66,
            "byteOffset" : 114744
        },
        {
            "buffer" : 0,
            "byteLength" : 504,
            "byteOffset" : 114812
        },
        {
            "buffer" : 0,
            "byteLength" : 504,
            "byteOffset" : 115316
        },
        {
            "buffer" : 0,
            "byteLength" : 336,
            "byteOffset" : 115820
        },
        {
            "buffer" : 0,
            "byteLength" : 336,
            "byteOffset" : 116156
        },
        {
            "buffer" : 0,
            "byteLength" : 84,
            "byteOffset" : 116492
        },
        {
            "buffer" : 0,
            "byteLength" : 504,
            "byteOffset" : 116576
        },
        {
            "buffer" : 0,
            "byteLength" : 504,
            "byteOffset" : 117080
        },
        {
            "buffer" : 0,
            "byteLength" : 336,
            "byteOffset" : 117584
        },
        {
            "buffer" : 0,
            "byteLength" : 336,
            "byteOffset" : 117920
        },
        {
            "buffer" : 0,
            "byteLength" : 84,
            "byteOffset" : 118256
        },
        {
            "buffer" : 0,
            "byteLength" : 468,
            "byteOffset" : 118340
        },
        {
            "buffer" : 0,
            "byteLength" : 468,
            "byteOffset" : 118808
        },
        {
            "buffer" : 0,
            "byteLength" : 312,
            "byteOffset" : 119276
        },
        {
            "buffer" : 0,
            "byteLength" : 312,
            "byteOffset" : 119588
        },
        {
            "buffer" : 0,
            "byteLength" : 78,
            "byteOffset" : 119900
        },
        {
            "buffer" : 0,
            "byteLength" : 180,
            "byteOffset" : 119980
        },
        {
            "buffer" : 0,
            "byteLength" : 180,
            "byteOffset" : 120160
        },
        {
            "buffer" : 0,
            "byteLength" : 120,
            "byteOffset" : 120340
        },
        {
            "buffer" : 0,
            "byteLength" : 120,
            "byteOffset" : 120460
        },
        {
            "buffer" : 0,
            "byteLength" : 30,
            "byteOffset" : 120580
        }
    ],
    "samplers" : [
        {
            "magFilter" : 9729,
            "minFilter" : 9987
        }
    ],
    "buffers" : [
        {
            "byteLength" : 120612,
            "uri" : "data:application/octet-stream;base64,"
        }
    ]
}
