{
    "asset" : {
        "generator" : "Khronos glTF Blender I/O v3.3.36",
        "version" : "2.0"
    },
    "extensionsUsed" : [
        "KHR_materials_specular",
        "KHR_materials_ior"
    ],
    "scene" : 0,
    "scenes" : [
        {
            "name" : "Scene",
            "nodes" : [
                0,
                1,
                2,
                3
            ]
        }
    ],
    "nodes" : [
        {
            "mesh" : 0,
            "name" : "CratePiece1",
            "translation" : [
                0.7201187014579773,
                -0.15183749794960022,
                -0.7127936482429504
            ]
        },
        {
            "mesh" : 1,
            "name" : "CratePiece2",
            "translation" : [
                -0.6466272473335266,
                0.22777816653251648,
                -0.6266801953315735
            ]
        },
        {
            "mesh" : 2,
            "name" : "CratePiece3",
            "translation" : [
                -0.24579426646232605,
                -0.33577683568000793,
                0.5740731954574585
            ]
        },
        {
            "mesh" : 3,
            "name" : "CratePiece4",
            "translation" : [
                0.5786193013191223,
                0.6739724278450012,
                0.36521995067596436
            ]
        }
    ],
    "materials" : [
        {
            "extensions" : {
                "KHR_materials_specular" : {
                    "specularColorFactor" : [
                        0,
                        0,
                        0
                    ]
                },
                "KHR_materials_ior" : {
                    "ior" : 1.4500000476837158
                }
            },
            "name" : "Wood Brown Peeled",
            "pbrMetallicRoughness" : {
                "baseColorFactor" : [
                    0.800000011920929,
                    0.800000011920929,
                    0.800000011920929,
                    1
                ],
                "metallicFactor" : 0
            }
        },
        {
            "extensions" : {
                "KHR_materials_specular" : {
                    "specularColorFactor" : [
                        0,
                        0,
                        0
                    ]
                },
                "KHR_materials_ior" : {
                    "ior" : 1.4500000476837158
                }
            },
            "name" : "Crate",
            "pbrMetallicRoughness" : {
                "baseColorFactor" : [
                    0.800000011920929,
                    0.800000011920929,
                    0.800000011920929,
                    1
                ],
                "metallicFactor" : 0,
                "roughnessFactor" : 0
            }
        }
    ],
    "meshes" : [
        {
            "name" : "CratePiece1",
            "primitives" : [
                {
                    "attributes" : {
                        "POSITION" : 0,
                        "NORMAL" : 1,
                        "TEXCOORD_0" : 2,
                        "COLOR_0" : 3
                    },
                    "indices" : 4,
                    "material" : 0
                },
                {
                    "attributes" : {
                        "POSITION" : 5,
                        "NORMAL" : 6,
                        "TEXCOORD_0" : 7,
                        "COLOR_0" : 8
                    },
                    "indices" : 9,
                    "material" : 1
                }
            ]
        },
        {
            "name" : "CratePiece2",
            "primitives" : [
                {
                    "attributes" : {
                        "POSITION" : 10,
                        "NORMAL" : 11,
                        "TEXCOORD_0" : 12,
                        "COLOR_0" : 13
                    },
                    "indices" : 14,
                    "material" : 0
                },
                {
                    "attributes" : {
                        "POSITION" : 15,
                        "NORMAL" : 16,
                        "TEXCOORD_0" : 17,
                        "COLOR_0" : 18
                    },
                    "indices" : 19,
                    "material" : 1
                }
            ]
        },
        {
            "name" : "CratePiece3",
            "primitives" : [
                {
                    "attributes" : {
                        "POSITION" : 20,
                        "NORMAL" : 21,
                        "TEXCOORD_0" : 22,
                        "COLOR_0" : 23
                    },
                    "indices" : 24,
                    "material" : 0
                },
                {
                    "attributes" : {
                        "POSITION" : 25,
                        "NORMAL" : 26,
                        "TEXCOORD_0" : 27,
                        "COLOR_0" : 28
                    },
                    "indices" : 29,
                    "material" : 1
                }
            ]
        },
        {
            "name" : "CratePiece4",
            "primitives" : [
                {
                    "attributes" : {
                        "POSITION" : 30,
                        "NORMAL" : 31,
                        "TEXCOORD_0" : 32,
                        "COLOR_0" : 33
                    },
                    "indices" : 34,
                    "material" : 0
                },
                {
                    "attributes" : {
                        "POSITION" : 35,
                        "NORMAL" : 36,
                        "TEXCOORD_0" : 37,
                        "COLOR_0" : 38
                    },
                    "indices" : 39,
                    "material" : 1
                }
            ]
        }
    ],
    "accessors" : [
        {
            "bufferView" : 0,
            "componentType" : 5126,
            "count" : 114,
            "max" : [
                0.2740055322647095,
                1.1501002311706543,
                0.9991684556007385
            ],
            "min" : [
                -1.034242868423462,
                -0.8464251756668091,
                -0.29358118772506714
            ],
            "type" : "VEC3"
        },
        {
            "bufferView" : 1,
            "componentType" : 5126,
            "count" : 114,
            "type" : "VEC3"
        },
        {
            "bufferView" : 2,
            "componentType" : 5126,
            "count" : 114,
            "type" : "VEC2"
        },
        {
            "bufferView" : 3,
            "componentType" : 5123,
            "count" : 114,
            "normalized" : true,
            "type" : "VEC4"
        },
        {
            "bufferView" : 4,
            "componentType" : 5123,
            "count" : 114,
            "type" : "SCALAR"
        },
        {
            "bufferView" : 5,
            "componentType" : 5126,
            "count" : 122,
            "max" : [
                0.2740047574043274,
                1.1501002311706543,
                0.9991684556007385
            ],
            "min" : [
                -1.0342435836791992,
                -0.8464251756668091,
                -0.29358118772506714
            ],
            "type" : "VEC3"
        },
        {
            "bufferView" : 6,
            "componentType" : 5126,
            "count" : 122,
            "type" : "VEC3"
        },
        {
            "bufferView" : 7,
            "componentType" : 5126,
            "count" : 122,
            "type" : "VEC2"
        },
        {
            "bufferView" : 8,
            "componentType" : 5123,
            "count" : 122,
            "normalized" : true,
            "type" : "VEC4"
        },
        {
            "bufferView" : 9,
            "componentType" : 5123,
            "count" : 126,
            "type" : "SCALAR"
        },
        {
            "bufferView" : 10,
            "componentType" : 5126,
            "count" : 147,
            "max" : [
                1.080113410949707,
                0.7704845666885376,
                1.186436653137207
            ],
            "min" : [
                -0.3468589782714844,
                -1.2260407209396362,
                -0.3730763792991638
            ],
            "type" : "VEC3"
        },
        {
            "bufferView" : 11,
            "componentType" : 5126,
            "count" : 147,
            "type" : "VEC3"
        },
        {
            "bufferView" : 12,
            "componentType" : 5126,
            "count" : 147,
            "type" : "VEC2"
        },
        {
            "bufferView" : 13,
            "componentType" : 5123,
            "count" : 147,
            "normalized" : true,
            "type" : "VEC4"
        },
        {
            "bufferView" : 14,
            "componentType" : 5123,
            "count" : 147,
            "type" : "SCALAR"
        },
        {
            "bufferView" : 15,
            "componentType" : 5126,
            "count" : 152,
            "max" : [
                1.0801126956939697,
                0.7704845666885376,
                1.186436653137207
            ],
            "min" : [
                -0.34685975313186646,
                -1.2260407209396362,
                -0.37307626008987427
            ],
            "type" : "VEC3"
        },
        {
            "bufferView" : 16,
            "componentType" : 5126,
            "count" : 152,
            "type" : "VEC3"
        },
        {
            "bufferView" : 17,
            "componentType" : 5126,
            "count" : 152,
            "type" : "VEC2"
        },
        {
            "bufferView" : 18,
            "componentType" : 5123,
            "count" : 152,
            "normalized" : true,
            "type" : "VEC4"
        },
        {
            "bufferView" : 19,
            "componentType" : 5123,
            "count" : 159,
            "type" : "SCALAR"
        },
        {
            "bufferView" : 20,
            "componentType" : 5126,
            "count" : 165,
            "max" : [
                1.244057059288025,
                1.334039568901062,
                0.4135056734085083
            ],
            "min" : [
                -0.7524685859680176,
                -0.6624859571456909,
                -1.1616520881652832
            ],
            "type" : "VEC3"
        },
        {
            "bufferView" : 21,
            "componentType" : 5126,
            "count" : 165,
            "type" : "VEC3"
        },
        {
            "bufferView" : 22,
            "componentType" : 5126,
            "count" : 165,
            "type" : "VEC2"
        },
        {
            "bufferView" : 23,
            "componentType" : 5123,
            "count" : 165,
            "normalized" : true,
            "type" : "VEC4"
        },
        {
            "bufferView" : 24,
            "componentType" : 5123,
            "count" : 165,
            "type" : "SCALAR"
        },
        {
            "bufferView" : 25,
            "componentType" : 5126,
            "count" : 181,
            "max" : [
                1.2440563440322876,
                1.334039568901062,
                0.4135057330131531
            ],
            "min" : [
                -0.7524693012237549,
                -0.6624859571456909,
                -1.1616520881652832
            ],
            "type" : "VEC3"
        },
        {
            "bufferView" : 26,
            "componentType" : 5126,
            "count" : 181,
            "type" : "VEC3"
        },
        {
            "bufferView" : 27,
            "componentType" : 5126,
            "count" : 181,
            "type" : "VEC2"
        },
        {
            "bufferView" : 28,
            "componentType" : 5123,
            "count" : 181,
            "normalized" : true,
            "type" : "VEC4"
        },
        {
            "bufferView" : 29,
            "componentType" : 5123,
            "count" : 189,
            "type" : "SCALAR"
        },
        {
            "bufferView" : 30,
            "componentType" : 5126,
            "count" : 123,
            "max" : [
                0.4073967933654785,
                0.32826900482177734,
                0.6297093629837036
            ],
            "min" : [
                -1.0046353340148926,
                -0.9178905487060547,
                -1.0801491737365723
            ],
            "type" : "VEC3"
        },
        {
            "bufferView" : 31,
            "componentType" : 5126,
            "count" : 123,
            "type" : "VEC3"
        },
        {
            "bufferView" : 32,
            "componentType" : 5126,
            "count" : 123,
            "type" : "VEC2"
        },
        {
            "bufferView" : 33,
            "componentType" : 5123,
            "count" : 123,
            "normalized" : true,
            "type" : "VEC4"
        },
        {
            "bufferView" : 34,
            "componentType" : 5123,
            "count" : 123,
            "type" : "SCALAR"
        },
        {
            "bufferView" : 35,
            "componentType" : 5126,
            "count" : 123,
            "max" : [
                0.4073960781097412,
                0.32826900482177734,
                0.6297093629837036
            ],
            "min" : [
                -1.0046360492706299,
                -0.9178905487060547,
                -1.0801492929458618
            ],
            "type" : "VEC3"
        },
        {
            "bufferView" : 36,
            "componentType" : 5126,
            "count" : 123,
            "type" : "VEC3"
        },
        {
            "bufferView" : 37,
            "componentType" : 5126,
            "count" : 123,
            "type" : "VEC2"
        },
        {
            "bufferView" : 38,
            "componentType" : 5123,
            "count" : 123,
            "normalized" : true,
            "type" : "VEC4"
        },
        {
            "bufferView" : 39,
            "componentType" : 5123,
            "count" : 123,
            "type" : "SCALAR"
        }
    ],
    "bufferViews" : [
        {
            "buffer" : 0,
            "byteLength" : 1368,
            "byteOffset" : 0,
            "target" : 34962
        },
        {
            "buffer" : 0,
            "byteLength" : 1368,
            "byteOffset" : 1368,
            "target" : 34962
        },
        {
            "buffer" : 0,
            "byteLength" : 912,
            "byteOffset" : 2736,
            "target" : 34962
        },
        {
            "buffer" : 0,
            "byteLength" : 912,
            "byteOffset" : 3648,
            "target" : 34962
        },
        {
            "buffer" : 0,
            "byteLength" : 228,
            "byteOffset" : 4560,
            "target" : 34963
        },
        {
            "buffer" : 0,
            "byteLength" : 1464,
            "byteOffset" : 4788,
            "target" : 34962
        },
        {
            "buffer" : 0,
            "byteLength" : 1464,
            "byteOffset" : 6252,
            "target" : 34962
        },
        {
            "buffer" : 0,
            "byteLength" : 976,
            "byteOffset" : 7716,
            "target" : 34962
        },
        {
            "buffer" : 0,
            "byteLength" : 976,
            "byteOffset" : 8692,
            "target" : 34962
        },
        {
            "buffer" : 0,
            "byteLength" : 252,
            "byteOffset" : 9668,
            "target" : 34963
        },
        {
            "buffer" : 0,
            "byteLength" : 1764,
            "byteOffset" : 9920,
            "target" : 34962
        },
        {
            "buffer" : 0,
            "byteLength" : 1764,
            "byteOffset" : 11684,
            "target" : 34962
        },
        {
            "buffer" : 0,
            "byteLength" : 1176,
            "byteOffset" : 13448,
            "target" : 34962
        },
        {
            "buffer" : 0,
            "byteLength" : 1176,
            "byteOffset" : 14624,
            "target" : 34962
        },
        {
            "buffer" : 0,
            "byteLength" : 294,
            "byteOffset" : 15800,
            "target" : 34963
        },
        {
            "buffer" : 0,
            "byteLength" : 1824,
            "byteOffset" : 16096,
            "target" : 34962
        },
        {
            "buffer" : 0,
            "byteLength" : 1824,
            "byteOffset" : 17920,
            "target" : 34962
        },
        {
            "buffer" : 0,
            "byteLength" : 1216,
            "byteOffset" : 19744,
            "target" : 34962
        },
        {
            "buffer" : 0,
            "byteLength" : 1216,
            "byteOffset" : 20960,
            "target" : 34962
        },
        {
            "buffer" : 0,
            "byteLength" : 318,
            "byteOffset" : 22176,
            "target" : 34963
        },
        {
            "buffer" : 0,
            "byteLength" : 1980,
            "byteOffset" : 22496,
            "target" : 34962
        },
        {
            "buffer" : 0,
            "byteLength" : 1980,
            "byteOffset" : 24476,
            "target" : 34962
        },
        {
            "buffer" : 0,
            "byteLength" : 1320,
            "byteOffset" : 26456,
            "target" : 34962
        },
        {
            "buffer" : 0,
            "byteLength" : 1320,
            "byteOffset" : 27776,
            "target" : 34962
        },
        {
            "buffer" : 0,
            "byteLength" : 330,
            "byteOffset" : 29096,
            "target" : 34963
        },
        {
            "buffer" : 0,
            "byteLength" : 2172,
            "byteOffset" : 29428,
            "target" : 34962
        },
        {
            "buffer" : 0,
            "byteLength" : 2172,
            "byteOffset" : 31600,
            "target" : 34962
        },
        {
            "buffer" : 0,
            "byteLength" : 1448,
            "byteOffset" : 33772,
            "target" : 34962
        },
        {
            "buffer" : 0,
            "byteLength" : 1448,
            "byteOffset" : 35220,
            "target" : 34962
        },
        {
            "buffer" : 0,
            "byteLength" : 378,
            "byteOffset" : 36668,
            "target" : 34963
        },
        {
            "buffer" : 0,
            "byteLength" : 1476,
            "byteOffset" : 37048,
            "target" : 34962
        },
        {
            "buffer" : 0,
            "byteLength" : 1476,
            "byteOffset" : 38524,
            "target" : 34962
        },
        {
            "buffer" : 0,
            "byteLength" : 984,
            "byteOffset" : 40000,
            "target" : 34962
        },
        {
            "buffer" : 0,
            "byteLength" : 984,
            "byteOffset" : 40984,
            "target" : 34962
        },
        {
            "buffer" : 0,
            "byteLength" : 246,
            "byteOffset" : 41968,
            "target" : 34963
        },
        {
            "buffer" : 0,
            "byteLength" : 1476,
            "byteOffset" : 42216,
            "target" : 34962
        },
        {
            "buffer" : 0,
            "byteLength" : 1476,
            "byteOffset" : 43692,
            "target" : 34962
        },
        {
            "buffer" : 0,
            "byteLength" : 984,
            "byteOffset" : 45168,
            "target" : 34962
        },
        {
            "buffer" : 0,
            "byteLength" : 984,
            "byteOffset" : 46152,
            "target" : 34962
        },
        {
            "buffer" : 0,
            "byteLength" : 246,
            "byteOffset" : 47136,
            "target" : 34963
        }
    ],
    "buffers" : [
        {
            "byteLength" : 47384,
            "uri" : "data:application/octet-stream;base64,"
        }
    ]
}
