{
    "asset" : {
        "generator" : "Khronos glTF Blender I/O v3.3.36",
        "version" : "2.0"
    },
    "extensionsUsed" : [
        "KHR_materials_specular",
        "KHR_materials_ior"
    ],
    "scene" : 0,
    "scenes" : [
        {
            "name" : "Scene",
            "nodes" : [
                0
            ]
        }
    ],
    "nodes" : [
        {
            "mesh" : 0,
            "name" : "FloatingShipDeckMesh"
        }
    ],
    "materials" : [
        {
            "extensions" : {
                "KHR_materials_specular" : {
                    "specularColorFactor" : [
                        0,
                        0,
                        0
                    ]
                },
                "KHR_materials_ior" : {
                    "ior" : 1.4500000476837158
                }
            },
            "name" : "Wood Brown",
            "pbrMetallicRoughness" : {
                "baseColorFactor" : [
                    0.800000011920929,
                    0.800000011920929,
                    0.800000011920929,
                    1
                ],
                "metallicFactor" : 0
            }
        },
        {
            "extensions" : {
                "KHR_materials_specular" : {
                    "specularColorFactor" : [
                        0,
                        0,
                        0
                    ]
                },
                "KHR_materials_ior" : {
                    "ior" : 1.4500000476837158
                }
            },
            "name" : "Wood Brown Peeled",
            "pbrMetallicRoughness" : {
                "baseColorFactor" : [
                    0.800000011920929,
                    0.800000011920929,
                    0.800000011920929,
                    1
                ],
                "metallicFactor" : 0
            }
        },
        {
            "extensions" : {
                "KHR_materials_specular" : {
                    "specularColorFactor" : [
                        0,
                        0,
                        0
                    ]
                },
                "KHR_materials_ior" : {
                    "ior" : 1.4500000476837158
                }
            },
            "name" : "Atlas Ship Metal",
            "pbrMetallicRoughness" : {
                "baseColorFactor" : [
                    0.800000011920929,
                    0.800000011920929,
                    0.800000011920929,
                    1
                ],
                "metallicFactor" : 0,
                "roughnessFactor" : 0
            }
        },
        {
            "extensions" : {
                "KHR_materials_specular" : {
                    "specularColorFactor" : [
                        0,
                        0,
                        0
                    ]
                },
                "KHR_materials_ior" : {
                    "ior" : 1.4500000476837158
                }
            },
            "name" : "Wood Red",
            "pbrMetallicRoughness" : {
                "baseColorFactor" : [
                    0.800000011920929,
                    0.800000011920929,
                    0.800000011920929,
                    1
                ],
                "metallicFactor" : 0,
                "roughnessFactor" : 0
            }
        },
        {
            "extensions" : {
                "KHR_materials_specular" : {
                    "specularColorFactor" : [
                        0,
                        0,
                        0
                    ]
                },
                "KHR_materials_ior" : {
                    "ior" : 1.4500000476837158
                }
            },
            "name" : "Atlas Plus Two",
            "pbrMetallicRoughness" : {
                "baseColorFactor" : [
                    0.800000011920929,
                    0.800000011920929,
                    0.800000011920929,
                    1
                ],
                "metallicFactor" : 0,
                "roughnessFactor" : 0
            }
        }
    ],
    "meshes" : [
        {
            "name" : "FloatingShipDeckMesh",
            "primitives" : [
                {
                    "attributes" : {
                        "POSITION" : 0,
                        "NORMAL" : 1,
                        "TEXCOORD_0" : 2,
                        "COLOR_0" : 3
                    },
                    "indices" : 4,
                    "material" : 0
                },
                {
                    "attributes" : {
                        "POSITION" : 5,
                        "NORMAL" : 6,
                        "TEXCOORD_0" : 7,
                        "COLOR_0" : 8
                    },
                    "indices" : 9,
                    "material" : 1
                },
                {
                    "attributes" : {
                        "POSITION" : 10,
                        "NORMAL" : 11,
                        "TEXCOORD_0" : 12,
                        "COLOR_0" : 13
                    },
                    "indices" : 14,
                    "material" : 2
                },
                {
                    "attributes" : {
                        "POSITION" : 15,
                        "NORMAL" : 16,
                        "TEXCOORD_0" : 17,
                        "COLOR_0" : 18
                    },
                    "indices" : 19,
                    "material" : 3
                },
                {
                    "attributes" : {
                        "POSITION" : 20,
                        "NORMAL" : 21,
                        "TEXCOORD_0" : 22,
                        "COLOR_0" : 23
                    },
                    "indices" : 24,
                    "material" : 4
                }
            ]
        }
    ],
    "accessors" : [
        {
            "bufferView" : 0,
            "componentType" : 5126,
            "count" : 549,
            "max" : [
                1.8308466672897339,
                1.811589002609253,
                2.081150770187378
            ],
            "min" : [
                -1.8638972043991089,
                -2.6596462726593018,
                -2.0544917583465576
            ],
            "type" : "VEC3"
        },
        {
            "bufferView" : 1,
            "componentType" : 5126,
            "count" : 549,
            "type" : "VEC3"
        },
        {
            "bufferView" : 2,
            "componentType" : 5126,
            "count" : 549,
            "type" : "VEC2"
        },
        {
            "bufferView" : 3,
            "componentType" : 5123,
            "count" : 549,
            "normalized" : true,
            "type" : "VEC4"
        },
        {
            "bufferView" : 4,
            "componentType" : 5123,
            "count" : 549,
            "type" : "SCALAR"
        },
        {
            "bufferView" : 5,
            "componentType" : 5126,
            "count" : 177,
            "max" : [
                1.863305687904358,
                1.6083570718765259,
                1.955259919166565
            ],
            "min" : [
                -1.8638972043991089,
                -2.12602162361145,
                -2.0877325534820557
            ],
            "type" : "VEC3"
        },
        {
            "bufferView" : 6,
            "componentType" : 5126,
            "count" : 177,
            "type" : "VEC3"
        },
        {
            "bufferView" : 7,
            "componentType" : 5126,
            "count" : 177,
            "type" : "VEC2"
        },
        {
            "bufferView" : 8,
            "componentType" : 5123,
            "count" : 177,
            "normalized" : true,
            "type" : "VEC4"
        },
        {
            "bufferView" : 9,
            "componentType" : 5123,
            "count" : 177,
            "type" : "SCALAR"
        },
        {
            "bufferView" : 10,
            "componentType" : 5126,
            "count" : 591,
            "max" : [
                1.8638943433761597,
                2.5004141330718994,
                2.0877320766448975
            ],
            "min" : [
                -1.8638972043991089,
                -2.671832323074341,
                -2.0877325534820557
            ],
            "type" : "VEC3"
        },
        {
            "bufferView" : 11,
            "componentType" : 5126,
            "count" : 591,
            "type" : "VEC3"
        },
        {
            "bufferView" : 12,
            "componentType" : 5126,
            "count" : 591,
            "type" : "VEC2"
        },
        {
            "bufferView" : 13,
            "componentType" : 5123,
            "count" : 591,
            "normalized" : true,
            "type" : "VEC4"
        },
        {
            "bufferView" : 14,
            "componentType" : 5123,
            "count" : 591,
            "type" : "SCALAR"
        },
        {
            "bufferView" : 15,
            "componentType" : 5126,
            "count" : 177,
            "max" : [
                1.860019564628601,
                2.6718294620513916,
                2.0877320766448975
            ],
            "min" : [
                -1.8554333448410034,
                -1.199655294418335,
                -2.0877325534820557
            ],
            "type" : "VEC3"
        },
        {
            "bufferView" : 16,
            "componentType" : 5126,
            "count" : 177,
            "type" : "VEC3"
        },
        {
            "bufferView" : 17,
            "componentType" : 5126,
            "count" : 177,
            "type" : "VEC2"
        },
        {
            "bufferView" : 18,
            "componentType" : 5123,
            "count" : 177,
            "normalized" : true,
            "type" : "VEC4"
        },
        {
            "bufferView" : 19,
            "componentType" : 5123,
            "count" : 177,
            "type" : "SCALAR"
        },
        {
            "bufferView" : 20,
            "componentType" : 5126,
            "count" : 57,
            "max" : [
                1.8638943433761597,
                1.6936619281768799,
                2.0739057064056396
            ],
            "min" : [
                -1.8521548509597778,
                -2.671832323074341,
                -2.086247444152832
            ],
            "type" : "VEC3"
        },
        {
            "bufferView" : 21,
            "componentType" : 5126,
            "count" : 57,
            "type" : "VEC3"
        },
        {
            "bufferView" : 22,
            "componentType" : 5126,
            "count" : 57,
            "type" : "VEC2"
        },
        {
            "bufferView" : 23,
            "componentType" : 5123,
            "count" : 57,
            "normalized" : true,
            "type" : "VEC4"
        },
        {
            "bufferView" : 24,
            "componentType" : 5123,
            "count" : 57,
            "type" : "SCALAR"
        }
    ],
    "bufferViews" : [
        {
            "buffer" : 0,
            "byteLength" : 6588,
            "byteOffset" : 0,
            "target" : 34962
        },
        {
            "buffer" : 0,
            "byteLength" : 6588,
            "byteOffset" : 6588,
            "target" : 34962
        },
        {
            "buffer" : 0,
            "byteLength" : 4392,
            "byteOffset" : 13176,
            "target" : 34962
        },
        {
            "buffer" : 0,
            "byteLength" : 4392,
            "byteOffset" : 17568,
            "target" : 34962
        },
        {
            "buffer" : 0,
            "byteLength" : 1098,
            "byteOffset" : 21960,
            "target" : 34963
        },
        {
            "buffer" : 0,
            "byteLength" : 2124,
            "byteOffset" : 23060,
            "target" : 34962
        },
        {
            "buffer" : 0,
            "byteLength" : 2124,
            "byteOffset" : 25184,
            "target" : 34962
        },
        {
            "buffer" : 0,
            "byteLength" : 1416,
            "byteOffset" : 27308,
            "target" : 34962
        },
        {
            "buffer" : 0,
            "byteLength" : 1416,
            "byteOffset" : 28724,
            "target" : 34962
        },
        {
            "buffer" : 0,
            "byteLength" : 354,
            "byteOffset" : 30140,
            "target" : 34963
        },
        {
            "buffer" : 0,
            "byteLength" : 7092,
            "byteOffset" : 30496,
            "target" : 34962
        },
        {
            "buffer" : 0,
            "byteLength" : 7092,
            "byteOffset" : 37588,
            "target" : 34962
        },
        {
            "buffer" : 0,
            "byteLength" : 4728,
            "byteOffset" : 44680,
            "target" : 34962
        },
        {
            "buffer" : 0,
            "byteLength" : 4728,
            "byteOffset" : 49408,
            "target" : 34962
        },
        {
            "buffer" : 0,
            "byteLength" : 1182,
            "byteOffset" : 54136,
            "target" : 34963
        },
        {
            "buffer" : 0,
            "byteLength" : 2124,
            "byteOffset" : 55320,
            "target" : 34962
        },
        {
            "buffer" : 0,
            "byteLength" : 2124,
            "byteOffset" : 57444,
            "target" : 34962
        },
        {
            "buffer" : 0,
            "byteLength" : 1416,
            "byteOffset" : 59568,
            "target" : 34962
        },
        {
            "buffer" : 0,
            "byteLength" : 1416,
            "byteOffset" : 60984,
            "target" : 34962
        },
        {
            "buffer" : 0,
            "byteLength" : 354,
            "byteOffset" : 62400,
            "target" : 34963
        },
        {
            "buffer" : 0,
            "byteLength" : 684,
            "byteOffset" : 62756,
            "target" : 34962
        },
        {
            "buffer" : 0,
            "byteLength" : 684,
            "byteOffset" : 63440,
            "target" : 34962
        },
        {
            "buffer" : 0,
            "byteLength" : 456,
            "byteOffset" : 64124,
            "target" : 34962
        },
        {
            "buffer" : 0,
            "byteLength" : 456,
            "byteOffset" : 64580,
            "target" : 34962
        },
        {
            "buffer" : 0,
            "byteLength" : 114,
            "byteOffset" : 65036,
            "target" : 34963
        }
    ],
    "buffers" : [
        {
            "byteLength" : 65152,
            "uri" : "data:application/octet-stream;base64,"
        }
    ]
}
