{
    "asset" : {
        "generator" : "Khronos glTF Blender I/O v3.3.27",
        "version" : "2.0"
    },
    "extensionsUsed" : [
        "KHR_materials_specular",
        "KHR_materials_ior"
    ],
    "scene" : 0,
    "scenes" : [
        {
            "name" : "Scene",
            "nodes" : [
                20
            ]
        }
    ],
    "nodes" : [
        {
            "name" : "r_foot",
            "rotation" : [
                -0.5222343802452087,
                -0.0027016974054276943,
                0.004054220858961344,
                0.8527881503105164
            ],
            "scale" : [
                1,
                1.0000001192092896,
                1.0000001192092896
            ],
            "translation" : [
                -2.1618325263261795e-07,
                6.87698221206665,
                -1.230509951710701e-07
            ]
        },
        {
            "children" : [
                0
            ],
            "name" : "r_leg",
            "rotation" : [
                0.37721240520477295,
                0.0005993571830913424,
                -0.0006883595488034189,
                0.9261263608932495
            ],
            "scale" : [
                1,
                0.9999998807907104,
                0.9999999403953552
            ],
            "translation" : [
                -1.587904989719391e-07,
                8.019624710083008,
                3.8836151361465454e-07
            ]
        },
        {
            "children" : [
                1
            ],
            "name" : "r_thigh",
            "rotation" : [
                0.991611123085022,
                -0.0003569343243725598,
                -0.00036786464625038207,
                0.1292564868927002
            ],
            "scale" : [
                1,
                1,
                1.0000026226043701
            ],
            "translation" : [
                -3.4080440998077393,
                0.803939700126648,
                -0.4059903919696808
            ]
        },
        {
            "name" : "l_foot",
            "rotation" : [
                -0.5222519636154175,
                0.0010015333537012339,
                -0.0013646065490320325,
                0.8527897000312805
            ],
            "scale" : [
                0.9999999403953552,
                0.9999998807907104,
                1
            ],
            "translation" : [
                -9.109498932957649e-08,
                6.877000331878662,
                1.5960540622472763e-07
            ]
        },
        {
            "children" : [
                3
            ],
            "name" : "l_leg",
            "rotation" : [
                0.37722301483154297,
                -0.0006045946502126753,
                0.000788847217336297,
                0.9261219501495361
            ],
            "scale" : [
                1,
                1.0000001192092896,
                1.0000001192092896
            ],
            "translation" : [
                1.4493707567453384e-07,
                8.019660949707031,
                1.0710209608078003e-07
            ]
        },
        {
            "children" : [
                4
            ],
            "name" : "l_thigh",
            "rotation" : [
                0.9915951490402222,
                0.000500279595144093,
                0.0005151625955477357,
                0.1293777972459793
            ],
            "scale" : [
                0.9999999403953552,
                0.9999999403953552,
                0.9999966621398926
            ],
            "translation" : [
                3.4080002307891846,
                0.8039349913597107,
                -0.40599218010902405
            ]
        },
        {
            "name" : "joe",
            "rotation" : [
                0.196059450507164,
                6.967603383145615e-08,
                8.108597882028334e-08,
                0.9805921316146851
            ],
            "translation" : [
                -4.433509730006335e-06,
                1.491715908050537,
                1.4899992942810059
            ]
        },
        {
            "children" : [
                6
            ],
            "name" : "head",
            "rotation" : [
                0.4443131983280182,
                5.77427613279724e-07,
                1.2565567431011004e-07,
                0.8958715200424194
            ],
            "scale" : [
                1,
                1,
                0.9999999403953552
            ],
            "translation" : [
                -3.410605131648481e-13,
                3.937344551086426,
                2.3841855636419496e-06
            ]
        },
        {
            "children" : [
                7
            ],
            "name" : "neck",
            "rotation" : [
                -0.28212082386016846,
                9.647529850553838e-07,
                3.6554470739247336e-07,
                0.9593788981437683
            ],
            "scale" : [
                1,
                0.9999999403953552,
                0.9999999403953552
            ],
            "translation" : [
                2.459614734107163e-09,
                5.979492664337158,
                8.940691031966708e-07
            ]
        },
        {
            "name" : "r_arm",
            "rotation" : [
                0.5342254638671875,
                -0.03284575417637825,
                -0.0012093017576262355,
                0.8447028398513794
            ],
            "scale" : [
                1,
                1,
                0.9999999403953552
            ],
            "translation" : [
                -2.249704122543335,
                4.327809810638428,
                3.2387795448303223
            ]
        },
        {
            "name" : "l_arm",
            "rotation" : [
                0.5342474579811096,
                0.03279400244355202,
                0.0012061556335538626,
                0.8446909189224243
            ],
            "scale" : [
                0.9999999403953552,
                1,
                0.9999998807907104
            ],
            "translation" : [
                2.2500076293945312,
                4.328136920928955,
                3.2387900352478027
            ]
        },
        {
            "children" : [
                8,
                9,
                10
            ],
            "name" : "spine",
            "rotation" : [
                0.6914157271385193,
                -6.775424594707147e-07,
                -8.674660421092995e-07,
                0.7224571108818054
            ],
            "translation" : [
                1.3107538734402624e-06,
                0.06168924272060394,
                6.819688320159912
            ]
        },
        {
            "name" : "tail4",
            "rotation" : [
                1.5398745745187625e-07,
                9.919869830080086e-14,
                -1.5400019037770107e-08,
                1
            ],
            "translation" : [
                -4.892961036340182e-14,
                6.19318962097168,
                -4.3200270738452673e-07
            ]
        },
        {
            "children" : [
                12
            ],
            "name" : "tail3",
            "rotation" : [
                1.8256133671457064e-07,
                7.378326465426466e-14,
                -4.420530785864685e-08,
                1
            ],
            "translation" : [
                3.892795807924898e-12,
                8.43142032623291,
                8.087954483926296e-07
            ]
        },
        {
            "children" : [
                13
            ],
            "name" : "tail2",
            "rotation" : [
                -1.7284838804698666e-07,
                -1.0551097755912009e-13,
                -6.425449328162358e-08,
                1
            ],
            "translation" : [
                -5.159934979293013e-13,
                11.451817512512207,
                -8.600545697845519e-07
            ]
        },
        {
            "children" : [
                14
            ],
            "name" : "tail1",
            "rotation" : [
                -0.6965414881706238,
                -4.571659530938632e-07,
                -3.6997025176788156e-07,
                0.7175165414810181
            ],
            "translation" : [
                -6.176371698529692e-07,
                -0.9812110066413879,
                -3.9340169429779053
            ]
        },
        {
            "children" : [
                2,
                5,
                11,
                15
            ],
            "name" : "root",
            "rotation" : [
                3.364776546277426e-08,
                0.6965426206588745,
                0.7175154685974121,
                1.356218319870095e-07
            ],
            "scale" : [
                1,
                0.9999998211860657,
                0.9999999403953552
            ],
            "translation" : [
                -2.217662320447289e-08,
                -0.5072804093360901,
                17.097461700439453
            ]
        },
        {
            "name" : "body_trex",
            "rotation" : [
                -1.8099951830663485e-06,
                0,
                0,
                1
            ],
            "translation" : [
                0,
                0,
                3.6199909914103046e-07
            ]
        },
        {
            "children" : [
                16,
                17
            ],
            "name" : "stg020D_TIRANO_REX",
            "rotation" : [
                0,
                0.7071068286895752,
                0.7071068286895752,
                0
            ]
        },
        {
            "mesh" : 0,
            "name" : "DinoRexMesh",
            "skin" : 0
        },
        {
            "children" : [
                19,
                18
            ],
            "name" : "DinoRexRoot"
        }
    ],
    "materials" : [
        {
            "extensions" : {
                "KHR_materials_specular" : {
                    "specularColorFactor" : [
                        0,
                        0,
                        0
                    ]
                },
                "KHR_materials_ior" : {
                    "ior" : 1.4500000476837158
                }
            },
            "name" : "Dino Rex",
            "pbrMetallicRoughness" : {
                "baseColorTexture" : {
                    "index" : 0
                },
                "metallicFactor" : 0
            }
        }
    ],
    "meshes" : [
        {
            "name" : "DinoRexMesh",
            "primitives" : [
                {
                    "attributes" : {
                        "POSITION" : 0,
                        "NORMAL" : 1,
                        "TEXCOORD_0" : 2,
                        "COLOR_0" : 3,
                        "JOINTS_0" : 4,
                        "WEIGHTS_0" : 5
                    },
                    "indices" : 6,
                    "material" : 0
                }
            ]
        }
    ],
    "textures" : [
        {
            "sampler" : 0,
            "source" : 0
        }
    ],
    "images" : [
        {
            "bufferView" : 7,
            "mimeType" : "image/png",
            "name" : "dino rex"
        }
    ],
    "skins" : [
        {
            "inverseBindMatrices" : 7,
            "joints" : [
                18,
                16,
                2,
                1,
                0,
                5,
                4,
                3,
                11,
                8,
                7,
                6,
                9,
                10,
                15,
                14,
                13,
                12,
                17
            ],
            "name" : "DinoRexRoot"
        }
    ],
    "accessors" : [
        {
            "bufferView" : 0,
            "componentType" : 5126,
            "count" : 2307,
            "max" : [
                6.30176305770874,
                24.839170455932617,
                24.14735221862793
            ],
            "min" : [
                -6.30176305770874,
                -0.003755261655896902,
                -36.891963958740234
            ],
            "type" : "VEC3"
        },
        {
            "bufferView" : 1,
            "componentType" : 5126,
            "count" : 2307,
            "type" : "VEC3"
        },
        {
            "bufferView" : 2,
            "componentType" : 5126,
            "count" : 2307,
            "type" : "VEC2"
        },
        {
            "bufferView" : 3,
            "componentType" : 5123,
            "count" : 2307,
            "normalized" : true,
            "type" : "VEC4"
        },
        {
            "bufferView" : 4,
            "componentType" : 5121,
            "count" : 2307,
            "type" : "VEC4"
        },
        {
            "bufferView" : 5,
            "componentType" : 5126,
            "count" : 2307,
            "type" : "VEC4"
        },
        {
            "bufferView" : 6,
            "componentType" : 5123,
            "count" : 8286,
            "type" : "SCALAR"
        },
        {
            "bufferView" : 8,
            "componentType" : 5126,
            "count" : 19,
            "type" : "MAT4"
        }
    ],
    "bufferViews" : [
        {
            "buffer" : 0,
            "byteLength" : 27684,
            "byteOffset" : 0,
            "target" : 34962
        },
        {
            "buffer" : 0,
            "byteLength" : 27684,
            "byteOffset" : 27684,
            "target" : 34962
        },
        {
            "buffer" : 0,
            "byteLength" : 18456,
            "byteOffset" : 55368,
            "target" : 34962
        },
        {
            "buffer" : 0,
            "byteLength" : 18456,
            "byteOffset" : 73824,
            "target" : 34962
        },
        {
            "buffer" : 0,
            "byteLength" : 9228,
            "byteOffset" : 92280,
            "target" : 34962
        },
        {
            "buffer" : 0,
            "byteLength" : 36912,
            "byteOffset" : 101508,
            "target" : 34962
        },
        {
            "buffer" : 0,
            "byteLength" : 16572,
            "byteOffset" : 138420,
            "target" : 34963
        },
        {
            "buffer" : 0,
            "byteLength" : 289390,
            "byteOffset" : 154992
        },
        {
            "buffer" : 0,
            "byteLength" : 1216,
            "byteOffset" : 444384
        }
    ],
    "samplers" : [
        {
            "magFilter" : 9729,
            "minFilter" : 9987
        }
    ],
    "buffers" : [
        {
            "byteLength" : 445600,
            "uri" : "data:application/octet-stream;base64,"
        }
    ]
}
