{
    "asset" : {
        "generator" : "Khronos glTF Blender I/O v1.8.19",
        "version" : "2.0"
    },
    "scene" : 0,
    "scenes" : [
        {
            "name" : "Scene",
            "nodes" : [
                0,
                1
            ]
        }
    ],
    "nodes" : [
        {
            "mesh" : 0,
            "name" : "FloorCollision"
        },
        {
            "mesh" : 1,
            "name" : "WallCollision"
        }
    ],
    "meshes" : [
        {
            "name" : "FloorCollision",
            "primitives" : [
                {
                    "attributes" : {
                        "POSITION" : 0,
                        "NORMAL" : 1
                    },
                    "indices" : 2
                }
            ]
        },
        {
            "name" : "WallCollision",
            "primitives" : [
                {
                    "attributes" : {
                        "POSITION" : 3,
                        "NORMAL" : 4
                    },
                    "indices" : 5
                }
            ]
        }
    ],
    "accessors" : [
        {
            "bufferView" : 0,
            "componentType" : 5126,
            "count" : 1156,
            "max" : [
                252.19876098632812,
                1.2113614082336426,
                215.23878479003906
            ],
            "min" : [
                -3,
                -9.961981773376465,
                -322.85858154296875
            ],
            "type" : "VEC3"
        },
        {
            "bufferView" : 1,
            "componentType" : 5126,
            "count" : 1156,
            "type" : "VEC3"
        },
        {
            "bufferView" : 2,
            "componentType" : 5123,
            "count" : 1734,
            "type" : "SCALAR"
        },
        {
            "bufferView" : 3,
            "componentType" : 5126,
            "count" : 1384,
            "max" : [
                252.19876098632812,
                10.30861759185791,
                215.23878479003906
            ],
            "min" : [
                -3,
                -18.621091842651367,
                -322.85858154296875
            ],
            "type" : "VEC3"
        },
        {
            "bufferView" : 4,
            "componentType" : 5126,
            "count" : 1384,
            "type" : "VEC3"
        },
        {
            "bufferView" : 5,
            "componentType" : 5123,
            "count" : 3486,
            "type" : "SCALAR"
        }
    ],
    "bufferViews" : [
        {
            "buffer" : 0,
            "byteLength" : 13872,
            "byteOffset" : 0
        },
        {
            "buffer" : 0,
            "byteLength" : 13872,
            "byteOffset" : 13872
        },
        {
            "buffer" : 0,
            "byteLength" : 3468,
            "byteOffset" : 27744
        },
        {
            "buffer" : 0,
            "byteLength" : 16608,
            "byteOffset" : 31212
        },
        {
            "buffer" : 0,
            "byteLength" : 16608,
            "byteOffset" : 47820
        },
        {
            "buffer" : 0,
            "byteLength" : 6972,
            "byteOffset" : 64428
        }
    ],
    "buffers" : [
        {
            "byteLength" : 71400,
            "uri" : "data:application/octet-stream;base64,"
        }
    ]
}
