{
    "asset" : {
        "generator" : "Khronos glTF Blender I/O v1.7.30",
        "version" : "2.0"
    },
    "scene" : 0,
    "scenes" : [
        {
            "name" : "Scene",
            "nodes" : [
                0
            ]
        }
    ],
    "nodes" : [
        {
            "mesh" : 0,
            "name" : "RedRing",
            "rotation" : [
                0.7071068286895752,
                0,
                0,
                0.7071067094802856
            ]
        }
    ],
    "materials" : [
        {
            "doubleSided" : true,
            "name" : "RedRing",
            "pbrMetallicRoughness" : {
                "baseColorTexture" : {
                    "index" : 0
                },
                "roughnessFactor" : 0.27272728085517883
            }
        }
    ],
    "meshes" : [
        {
            "name" : "Torus",
            "primitives" : [
                {
                    "attributes" : {
                        "POSITION" : 0,
                        "NORMAL" : 1,
                        "TEXCOORD_0" : 2
                    },
                    "indices" : 3,
                    "material" : 0
                }
            ]
        }
    ],
    "textures" : [
        {
            "sampler" : 0,
            "source" : 0
        }
    ],
    "images" : [
        {
            "bufferView" : 4,
            "mimeType" : "image/png",
            "name" : "red ring"
        }
    ],
    "accessors" : [
        {
            "bufferView" : 0,
            "componentType" : 5126,
            "count" : 200,
            "max" : [
                0.4000000059604645,
                0.06093299388885498,
                0.4000000059604645
            ],
            "min" : [
                -0.4000000059604645,
                -0.06093299388885498,
                -0.4000000059604645
            ],
            "type" : "VEC3"
        },
        {
            "bufferView" : 1,
            "componentType" : 5126,
            "count" : 200,
            "type" : "VEC3"
        },
        {
            "bufferView" : 2,
            "componentType" : 5126,
            "count" : 200,
            "type" : "VEC2"
        },
        {
            "bufferView" : 3,
            "componentType" : 5123,
            "count" : 1008,
            "type" : "SCALAR"
        }
    ],
    "bufferViews" : [
        {
            "buffer" : 0,
            "byteLength" : 2400,
            "byteOffset" : 0
        },
        {
            "buffer" : 0,
            "byteLength" : 2400,
            "byteOffset" : 2400
        },
        {
            "buffer" : 0,
            "byteLength" : 1600,
            "byteOffset" : 4800
        },
        {
            "buffer" : 0,
            "byteLength" : 2016,
            "byteOffset" : 6400
        },
        {
            "buffer" : 0,
            "byteLength" : 3860,
            "byteOffset" : 8416
        }
    ],
    "samplers" : [
        {
            "magFilter" : 9729,
            "minFilter" : 9987
        }
    ],
    "buffers" : [
        {
            "byteLength" : 12276,
            "uri" : "data:application/octet-stream;base64,"
        }
    ]
}
