{
    "asset" : {
        "generator" : "Khronos glTF Blender I/O v1.8.19",
        "version" : "2.0"
    },
    "scene" : 0,
    "scenes" : [
        {
            "name" : "Scene",
            "nodes" : [
                0,
                1
            ]
        }
    ],
    "nodes" : [
        {
            "mesh" : 0,
            "name" : "SpikePanel"
        },
        {
            "mesh" : 1,
            "name" : "Spikes"
        }
    ],
    "materials" : [
        {
            "name" : "Spike Panel",
            "normalTexture" : {
                "index" : 0
            },
            "pbrMetallicRoughness" : {
                "baseColorTexture" : {
                    "index" : 1
                },
                "roughnessFactor" : 0.7745454907417297
            }
        },
        {
            "name" : "Spikes",
            "pbrMetallicRoughness" : {
                "baseColorTexture" : {
                    "index" : 2
                },
                "roughnessFactor" : 0.40005913376808167
            }
        }
    ],
    "meshes" : [
        {
            "name" : "SpikePanel",
            "primitives" : [
                {
                    "attributes" : {
                        "POSITION" : 0,
                        "NORMAL" : 1,
                        "TEXCOORD_0" : 2
                    },
                    "indices" : 3,
                    "material" : 0
                }
            ]
        },
        {
            "name" : "Spikes",
            "primitives" : [
                {
                    "attributes" : {
                        "POSITION" : 4,
                        "NORMAL" : 5,
                        "TEXCOORD_0" : 6
                    },
                    "indices" : 7,
                    "material" : 1
                }
            ]
        }
    ],
    "textures" : [
        {
            "sampler" : 0,
            "source" : 0
        },
        {
            "sampler" : 0,
            "source" : 1
        },
        {
            "sampler" : 0,
            "source" : 2
        }
    ],
    "images" : [
        {
            "bufferView" : 4,
            "mimeType" : "image/png",
            "name" : "spike panel bump"
        },
        {
            "bufferView" : 5,
            "mimeType" : "image/png",
            "name" : "spike panel"
        },
        {
            "bufferView" : 10,
            "mimeType" : "image/png",
            "name" : "spikes"
        }
    ],
    "accessors" : [
        {
            "bufferView" : 0,
            "componentType" : 5126,
            "count" : 211,
            "max" : [
                0.7519168257713318,
                0.09457653015851974,
                0.7480548620223999
            ],
            "min" : [
                -0.7480831146240234,
                -0.26382145285606384,
                -0.7519450783729553
            ],
            "type" : "VEC3"
        },
        {
            "bufferView" : 1,
            "componentType" : 5126,
            "count" : 211,
            "type" : "VEC3"
        },
        {
            "bufferView" : 2,
            "componentType" : 5126,
            "count" : 211,
            "type" : "VEC2"
        },
        {
            "bufferView" : 3,
            "componentType" : 5123,
            "count" : 372,
            "type" : "SCALAR"
        },
        {
            "bufferView" : 6,
            "componentType" : 5126,
            "count" : 88,
            "max" : [
                0.5781143307685852,
                -0.018595661967992783,
                0.5819995403289795
            ],
            "min" : [
                -0.5533484816551208,
                -1.3454734086990356,
                -0.590904176235199
            ],
            "type" : "VEC3"
        },
        {
            "bufferView" : 7,
            "componentType" : 5126,
            "count" : 88,
            "type" : "VEC3"
        },
        {
            "bufferView" : 8,
            "componentType" : 5126,
            "count" : 88,
            "type" : "VEC2"
        },
        {
            "bufferView" : 9,
            "componentType" : 5123,
            "count" : 144,
            "type" : "SCALAR"
        }
    ],
    "bufferViews" : [
        {
            "buffer" : 0,
            "byteLength" : 2532,
            "byteOffset" : 0
        },
        {
            "buffer" : 0,
            "byteLength" : 2532,
            "byteOffset" : 2532
        },
        {
            "buffer" : 0,
            "byteLength" : 1688,
            "byteOffset" : 5064
        },
        {
            "buffer" : 0,
            "byteLength" : 744,
            "byteOffset" : 6752
        },
        {
            "buffer" : 0,
            "byteLength" : 11486,
            "byteOffset" : 7496
        },
        {
            "buffer" : 0,
            "byteLength" : 18826,
            "byteOffset" : 18984
        },
        {
            "buffer" : 0,
            "byteLength" : 1056,
            "byteOffset" : 37812
        },
        {
            "buffer" : 0,
            "byteLength" : 1056,
            "byteOffset" : 38868
        },
        {
            "buffer" : 0,
            "byteLength" : 704,
            "byteOffset" : 39924
        },
        {
            "buffer" : 0,
            "byteLength" : 288,
            "byteOffset" : 40628
        },
        {
            "buffer" : 0,
            "byteLength" : 3988,
            "byteOffset" : 40916
        }
    ],
    "samplers" : [
        {
            "magFilter" : 9729,
            "minFilter" : 9987
        }
    ],
    "buffers" : [
        {
            "byteLength" : 44904,
            "uri" : "data:application/octet-stream;base64,"
        }
    ]
}
