{
    "asset" : {
        "generator" : "Khronos glTF Blender I/O v3.3.27",
        "version" : "2.0"
    },
    "extensionsUsed" : [
        "KHR_materials_specular",
        "KHR_materials_ior"
    ],
    "scene" : 0,
    "scenes" : [
        {
            "name" : "Scene",
            "nodes" : [
                5
            ]
        }
    ],
    "nodes" : [
        {
            "name" : "dummy_eye",
            "rotation" : [
                0.7071068286895752,
                -1.5575317728264149e-13,
                -1.0676853179347745e-08,
                0.7071068286895752
            ],
            "translation" : [
                2.0123193476134782e-13,
                -2.0194839173657902e-28,
                -1.2789769243681803e-13
            ]
        },
        {
            "name" : "jaw_top",
            "rotation" : [
                0.9866976737976074,
                -6.222024229174394e-09,
                -8.676748208813478e-09,
                0.16256605088710785
            ],
            "scale" : [
                1,
                1,
                1.000002145767212
            ],
            "translation" : [
                1.5854045187779775e-08,
                1.0999970436096191,
                -0.05000029504299164
            ]
        },
        {
            "name" : "jaw_bottom",
            "rotation" : [
                -0.9889671206474304,
                8.584902566610708e-09,
                6.34794439235975e-09,
                0.1481352150440216
            ],
            "scale" : [
                1,
                1,
                1.0000033378601074
            ],
            "translation" : [
                1.5854043411422936e-08,
                1.0999969244003296,
                -0.050000302493572235
            ]
        },
        {
            "children" : [
                0,
                1,
                2
            ],
            "name" : "root",
            "rotation" : [
                -0.7071068286895752,
                1.2560740513293481e-15,
                1.0677005946035933e-08,
                0.7071068286895752
            ],
            "translation" : [
                4.5276613404657273e-13,
                1.3339665743544726e-13,
                -1.0071167103696763e-20
            ]
        },
        {
            "mesh" : 0,
            "name" : "FlyingEyeMesh",
            "skin" : 0
        },
        {
            "children" : [
                4,
                3
            ],
            "name" : "FlyingEyeRoot"
        }
    ],
    "materials" : [
        {
            "doubleSided" : true,
            "extensions" : {
                "KHR_materials_specular" : {
                    "specularColorTexture" : {
                        "index" : 0
                    }
                },
                "KHR_materials_ior" : {
                    "ior" : 1.4500000476837158
                }
            },
            "name" : "Body",
            "pbrMetallicRoughness" : {
                "baseColorTexture" : {
                    "index" : 1
                },
                "metallicFactor" : 0,
                "roughnessFactor" : 0.800000011920929
            }
        }
    ],
    "meshes" : [
        {
            "name" : "FlyingEyeMesh",
            "primitives" : [
                {
                    "attributes" : {
                        "POSITION" : 0,
                        "NORMAL" : 1,
                        "TEXCOORD_0" : 2,
                        "COLOR_0" : 3,
                        "JOINTS_0" : 4,
                        "WEIGHTS_0" : 5
                    },
                    "indices" : 6,
                    "material" : 0
                }
            ]
        }
    ],
    "textures" : [
        {
            "sampler" : 0,
            "source" : 0
        },
        {
            "sampler" : 0,
            "source" : 1
        }
    ],
    "images" : [
        {
            "bufferView" : 7,
            "mimeType" : "image/png",
            "name" : "Image"
        },
        {
            "bufferView" : 8,
            "mimeType" : "image/png",
            "name" : "body"
        }
    ],
    "skins" : [
        {
            "inverseBindMatrices" : 7,
            "joints" : [
                3,
                0,
                1,
                2
            ],
            "name" : "FlyingEyeRoot"
        }
    ],
    "accessors" : [
        {
            "bufferView" : 0,
            "componentType" : 5126,
            "count" : 2418,
            "max" : [
                2.3252310752868652,
                2.130854606628418,
                2.176751136779785
            ],
            "min" : [
                -2.3252310752868652,
                -2.1356215476989746,
                -2.16902756690979
            ],
            "type" : "VEC3"
        },
        {
            "bufferView" : 1,
            "componentType" : 5126,
            "count" : 2418,
            "type" : "VEC3"
        },
        {
            "bufferView" : 2,
            "componentType" : 5126,
            "count" : 2418,
            "type" : "VEC2"
        },
        {
            "bufferView" : 3,
            "componentType" : 5123,
            "count" : 2418,
            "normalized" : true,
            "type" : "VEC4"
        },
        {
            "bufferView" : 4,
            "componentType" : 5121,
            "count" : 2418,
            "type" : "VEC4"
        },
        {
            "bufferView" : 5,
            "componentType" : 5126,
            "count" : 2418,
            "type" : "VEC4"
        },
        {
            "bufferView" : 6,
            "componentType" : 5123,
            "count" : 2418,
            "type" : "SCALAR"
        },
        {
            "bufferView" : 9,
            "componentType" : 5126,
            "count" : 4,
            "type" : "MAT4"
        }
    ],
    "bufferViews" : [
        {
            "buffer" : 0,
            "byteLength" : 29016,
            "byteOffset" : 0,
            "target" : 34962
        },
        {
            "buffer" : 0,
            "byteLength" : 29016,
            "byteOffset" : 29016,
            "target" : 34962
        },
        {
            "buffer" : 0,
            "byteLength" : 19344,
            "byteOffset" : 58032,
            "target" : 34962
        },
        {
            "buffer" : 0,
            "byteLength" : 19344,
            "byteOffset" : 77376,
            "target" : 34962
        },
        {
            "buffer" : 0,
            "byteLength" : 9672,
            "byteOffset" : 96720,
            "target" : 34962
        },
        {
            "buffer" : 0,
            "byteLength" : 38688,
            "byteOffset" : 106392,
            "target" : 34962
        },
        {
            "buffer" : 0,
            "byteLength" : 4836,
            "byteOffset" : 145080,
            "target" : 34963
        },
        {
            "buffer" : 0,
            "byteLength" : 147144,
            "byteOffset" : 149916
        },
        {
            "buffer" : 0,
            "byteLength" : 263140,
            "byteOffset" : 297060
        },
        {
            "buffer" : 0,
            "byteLength" : 256,
            "byteOffset" : 560200
        }
    ],
    "samplers" : [
        {
            "magFilter" : 9729,
            "minFilter" : 9987
        }
    ],
    "buffers" : [
        {
            "byteLength" : 560456,
            "uri" : "data:application/octet-stream;base64,"
        }
    ]
}
