{
    "asset" : {
        "generator" : "Khronos glTF Blender I/O v1.8.19",
        "version" : "2.0"
    },
    "scene" : 0,
    "scenes" : [
        {
            "name" : "Scene",
            "nodes" : [
                0,
                1,
                2
            ]
        }
    ],
    "nodes" : [
        {
            "mesh" : 0,
            "name" : "clouds side"
        },
        {
            "mesh" : 1,
            "name" : "clouds top"
        },
        {
            "mesh" : 2,
            "name" : "sky"
        }
    ],
    "materials" : [
        {
            "alphaMode" : "BLEND",
            "name" : "clouds side",
            "pbrMetallicRoughness" : {
                "baseColorTexture" : {
                    "index" : 0
                },
                "metallicFactor" : 0
            }
        },
        {
            "alphaMode" : "BLEND",
            "name" : "clouds top",
            "pbrMetallicRoughness" : {
                "baseColorTexture" : {
                    "index" : 1
                },
                "metallicFactor" : 0
            }
        },
        {
            "name" : "Sky",
            "pbrMetallicRoughness" : {
                "metallicFactor" : 0
            }
        }
    ],
    "meshes" : [
        {
            "name" : "clouds side",
            "primitives" : [
                {
                    "attributes" : {
                        "POSITION" : 0,
                        "NORMAL" : 1,
                        "TEXCOORD_0" : 2,
                        "TEXCOORD_1" : 3,
                        "COLOR_0" : 4
                    },
                    "indices" : 5,
                    "material" : 0
                }
            ]
        },
        {
            "name" : "clouds top",
            "primitives" : [
                {
                    "attributes" : {
                        "POSITION" : 6,
                        "NORMAL" : 7,
                        "TEXCOORD_0" : 8,
                        "TEXCOORD_1" : 9,
                        "COLOR_0" : 10
                    },
                    "indices" : 11,
                    "material" : 1
                }
            ]
        },
        {
            "name" : "sky",
            "primitives" : [
                {
                    "attributes" : {
                        "POSITION" : 12,
                        "NORMAL" : 13,
                        "COLOR_0" : 14
                    },
                    "indices" : 15,
                    "material" : 2
                }
            ]
        }
    ],
    "textures" : [
        {
            "sampler" : 0,
            "source" : 0
        },
        {
            "sampler" : 0,
            "source" : 1
        }
    ],
    "images" : [
        {
            "bufferView" : 6,
            "mimeType" : "image/png",
            "name" : "clouds side"
        },
        {
            "bufferView" : 13,
            "mimeType" : "image/png",
            "name" : "clouds top"
        }
    ],
    "accessors" : [
        {
            "bufferView" : 0,
            "componentType" : 5126,
            "count" : 175,
            "max" : [
                2112.723876953125,
                700.0069580078125,
                1906.642822265625
            ],
            "min" : [
                -2712.7236328125,
                -500.0069580078125,
                -2806.646484375
            ],
            "type" : "VEC3"
        },
        {
            "bufferView" : 1,
            "componentType" : 5126,
            "count" : 175,
            "type" : "VEC3"
        },
        {
            "bufferView" : 2,
            "componentType" : 5126,
            "count" : 175,
            "type" : "VEC2"
        },
        {
            "bufferView" : 3,
            "componentType" : 5126,
            "count" : 175,
            "type" : "VEC2"
        },
        {
            "bufferView" : 4,
            "componentType" : 5123,
            "count" : 175,
            "normalized" : true,
            "type" : "VEC4"
        },
        {
            "bufferView" : 5,
            "componentType" : 5123,
            "count" : 864,
            "type" : "SCALAR"
        },
        {
            "bufferView" : 7,
            "componentType" : 5126,
            "count" : 600,
            "max" : [
                1739.1112060546875,
                781.5441284179688,
                1589.1097412109375
            ],
            "min" : [
                -2339.1103515625,
                35.98819351196289,
                -2489.10888671875
            ],
            "type" : "VEC3"
        },
        {
            "bufferView" : 8,
            "componentType" : 5126,
            "count" : 600,
            "type" : "VEC3"
        },
        {
            "bufferView" : 9,
            "componentType" : 5126,
            "count" : 600,
            "type" : "VEC2"
        },
        {
            "bufferView" : 10,
            "componentType" : 5126,
            "count" : 600,
            "type" : "VEC2"
        },
        {
            "bufferView" : 11,
            "componentType" : 5123,
            "count" : 600,
            "normalized" : true,
            "type" : "VEC4"
        },
        {
            "bufferView" : 12,
            "componentType" : 5123,
            "count" : 600,
            "type" : "SCALAR"
        },
        {
            "bufferView" : 14,
            "componentType" : 5126,
            "count" : 162,
            "max" : [
                2200.00048828125,
                850.0018310546875,
                2049.9990234375
            ],
            "min" : [
                -2800.000732421875,
                -700.0062255859375,
                -2950.001708984375
            ],
            "type" : "VEC3"
        },
        {
            "bufferView" : 15,
            "componentType" : 5126,
            "count" : 162,
            "type" : "VEC3"
        },
        {
            "bufferView" : 16,
            "componentType" : 5123,
            "count" : 162,
            "normalized" : true,
            "type" : "VEC4"
        },
        {
            "bufferView" : 17,
            "componentType" : 5123,
            "count" : 864,
            "type" : "SCALAR"
        }
    ],
    "bufferViews" : [
        {
            "buffer" : 0,
            "byteLength" : 2100,
            "byteOffset" : 0
        },
        {
            "buffer" : 0,
            "byteLength" : 2100,
            "byteOffset" : 2100
        },
        {
            "buffer" : 0,
            "byteLength" : 1400,
            "byteOffset" : 4200
        },
        {
            "buffer" : 0,
            "byteLength" : 1400,
            "byteOffset" : 5600
        },
        {
            "buffer" : 0,
            "byteLength" : 1400,
            "byteOffset" : 7000
        },
        {
            "buffer" : 0,
            "byteLength" : 1728,
            "byteOffset" : 8400
        },
        {
            "buffer" : 0,
            "byteLength" : 219815,
            "byteOffset" : 10128
        },
        {
            "buffer" : 0,
            "byteLength" : 7200,
            "byteOffset" : 229944
        },
        {
            "buffer" : 0,
            "byteLength" : 7200,
            "byteOffset" : 237144
        },
        {
            "buffer" : 0,
            "byteLength" : 4800,
            "byteOffset" : 244344
        },
        {
            "buffer" : 0,
            "byteLength" : 4800,
            "byteOffset" : 249144
        },
        {
            "buffer" : 0,
            "byteLength" : 4800,
            "byteOffset" : 253944
        },
        {
            "buffer" : 0,
            "byteLength" : 1200,
            "byteOffset" : 258744
        },
        {
            "buffer" : 0,
            "byteLength" : 166614,
            "byteOffset" : 259944
        },
        {
            "buffer" : 0,
            "byteLength" : 1944,
            "byteOffset" : 426560
        },
        {
            "buffer" : 0,
            "byteLength" : 1944,
            "byteOffset" : 428504
        },
        {
            "buffer" : 0,
            "byteLength" : 1296,
            "byteOffset" : 430448
        },
        {
            "buffer" : 0,
            "byteLength" : 1728,
            "byteOffset" : 431744
        }
    ],
    "samplers" : [
        {
            "magFilter" : 9729,
            "minFilter" : 9987
        }
    ],
    "buffers" : [
        {
            "byteLength" : 433472,
            "uri" : "data:application/octet-stream;base64,"
        }
    ]
}
