{
    "asset" : {
        "generator" : "Khronos glTF Blender I/O v1.7.30",
        "version" : "2.0"
    },
    "scene" : 0,
    "scenes" : [
        {
            "name" : "Scene",
            "nodes" : [
                0
            ]
        }
    ],
    "nodes" : [
        {
            "mesh" : 0,
            "name" : "Collision"
        }
    ],
    "meshes" : [
        {
            "name" : "Collision",
            "primitives" : [
                {
                    "attributes" : {
                        "POSITION" : 0,
                        "NORMAL" : 1,
                        "TEXCOORD_0" : 2
                    },
                    "indices" : 3
                }
            ]
        }
    ],
    "accessors" : [
        {
            "bufferView" : 0,
            "componentType" : 5126,
            "count" : 14346,
            "max" : [
                53.933837890625,
                9.997374534606934,
                193.90419006347656
            ],
            "min" : [
                -53.93387222290039,
                -50.000946044921875,
                -193.89102172851562
            ],
            "type" : "VEC3"
        },
        {
            "bufferView" : 1,
            "componentType" : 5126,
            "count" : 14346,
            "type" : "VEC3"
        },
        {
            "bufferView" : 2,
            "componentType" : 5126,
            "count" : 14346,
            "type" : "VEC2"
        },
        {
            "bufferView" : 3,
            "componentType" : 5123,
            "count" : 21528,
            "type" : "SCALAR"
        }
    ],
    "bufferViews" : [
        {
            "buffer" : 0,
            "byteLength" : 172152,
            "byteOffset" : 0
        },
        {
            "buffer" : 0,
            "byteLength" : 172152,
            "byteOffset" : 172152
        },
        {
            "buffer" : 0,
            "byteLength" : 114768,
            "byteOffset" : 344304
        },
        {
            "buffer" : 0,
            "byteLength" : 43056,
            "byteOffset" : 459072
        }
    ],
    "buffers" : [
        {
            "byteLength" : 502128,
            "uri" : "data:application/octet-stream;base64,"
        }
    ]
}
