{
    "asset" : {
        "generator" : "Khronos glTF Blender I/O v3.3.36",
        "version" : "2.0"
    },
    "scene" : 0,
    "scenes" : [
        {
            "name" : "Scene",
            "nodes" : [
                0
            ]
        }
    ],
    "nodes" : [
        {
            "mesh" : 0,
            "name" : "LightBlockerMesh",
            "translation" : [
                -0.00016393013356719166,
                8.410884857177734,
                -0.000395007838960737
            ]
        }
    ],
    "meshes" : [
        {
            "name" : "LightBlockerMesh",
            "primitives" : [
                {
                    "attributes" : {
                        "POSITION" : 0,
                        "NORMAL" : 1
                    },
                    "indices" : 2
                }
            ]
        }
    ],
    "accessors" : [
        {
            "bufferView" : 0,
            "componentType" : 5126,
            "count" : 2710,
            "max" : [
                57.936317443847656,
                6.333952903747559,
                197.90554809570312
            ],
            "min" : [
                -57.92531204223633,
                -43.674049377441406,
                -197.78271484375
            ],
            "type" : "VEC3"
        },
        {
            "bufferView" : 1,
            "componentType" : 5126,
            "count" : 2710,
            "type" : "VEC3"
        },
        {
            "bufferView" : 2,
            "componentType" : 5123,
            "count" : 4410,
            "type" : "SCALAR"
        }
    ],
    "bufferViews" : [
        {
            "buffer" : 0,
            "byteLength" : 32520,
            "byteOffset" : 0,
            "target" : 34962
        },
        {
            "buffer" : 0,
            "byteLength" : 32520,
            "byteOffset" : 32520,
            "target" : 34962
        },
        {
            "buffer" : 0,
            "byteLength" : 8820,
            "byteOffset" : 65040,
            "target" : 34963
        }
    ],
    "buffers" : [
        {
            "byteLength" : 73860,
            "uri" : "data:application/octet-stream;base64,"
        }
    ]
}
