{
    "asset" : {
        "generator" : "Khronos glTF Blender I/O v1.8.19",
        "version" : "2.0"
    },
    "scene" : 0,
    "scenes" : [
        {
            "name" : "Scene",
            "nodes" : [
                0,
                1
            ]
        }
    ],
    "nodes" : [
        {
            "mesh" : 0,
            "name" : "BoatRipple"
        },
        {
            "mesh" : 1,
            "name" : "Boat"
        }
    ],
    "materials" : [
        {
            "alphaMode" : "BLEND",
            "name" : "Boat Wave",
            "pbrMetallicRoughness" : {
                "baseColorTexture" : {
                    "index" : 0
                },
                "metallicFactor" : 0,
                "roughnessFactor" : 0.5
            }
        },
        {
            "name" : "Boat Exterior",
            "pbrMetallicRoughness" : {
                "baseColorTexture" : {
                    "index" : 1
                },
                "metallicFactor" : 0
            }
        },
        {
            "name" : "Boat Interior",
            "pbrMetallicRoughness" : {
                "baseColorTexture" : {
                    "index" : 2
                },
                "metallicFactor" : 0
            }
        }
    ],
    "meshes" : [
        {
            "name" : "BoatRipple",
            "primitives" : [
                {
                    "attributes" : {
                        "POSITION" : 0,
                        "NORMAL" : 1,
                        "TEXCOORD_0" : 2,
                        "COLOR_0" : 3
                    },
                    "indices" : 4,
                    "material" : 0
                }
            ]
        },
        {
            "name" : "Boat",
            "primitives" : [
                {
                    "attributes" : {
                        "POSITION" : 5,
                        "NORMAL" : 6,
                        "TEXCOORD_0" : 7,
                        "COLOR_0" : 8
                    },
                    "indices" : 9,
                    "material" : 1
                },
                {
                    "attributes" : {
                        "POSITION" : 10,
                        "NORMAL" : 11,
                        "TEXCOORD_0" : 12,
                        "COLOR_0" : 13
                    },
                    "indices" : 14,
                    "material" : 2
                }
            ]
        }
    ],
    "textures" : [
        {
            "sampler" : 0,
            "source" : 0
        },
        {
            "sampler" : 0,
            "source" : 1
        },
        {
            "sampler" : 0,
            "source" : 2
        }
    ],
    "images" : [
        {
            "bufferView" : 5,
            "mimeType" : "image/png",
            "name" : "boat wave"
        },
        {
            "bufferView" : 11,
            "mimeType" : "image/png",
            "name" : "boat exterior"
        },
        {
            "bufferView" : 17,
            "mimeType" : "image/png",
            "name" : "boat interior"
        }
    ],
    "accessors" : [
        {
            "bufferView" : 0,
            "componentType" : 5126,
            "count" : 90,
            "max" : [
                1.1049615144729614,
                0.15013387799263,
                2.511650800704956
            ],
            "min" : [
                -1.1049615144729614,
                -0.003711103927344084,
                -1.4117927551269531
            ],
            "type" : "VEC3"
        },
        {
            "bufferView" : 1,
            "componentType" : 5126,
            "count" : 90,
            "type" : "VEC3"
        },
        {
            "bufferView" : 2,
            "componentType" : 5126,
            "count" : 90,
            "type" : "VEC2"
        },
        {
            "bufferView" : 3,
            "componentType" : 5123,
            "count" : 90,
            "normalized" : true,
            "type" : "VEC4"
        },
        {
            "bufferView" : 4,
            "componentType" : 5123,
            "count" : 288,
            "type" : "SCALAR"
        },
        {
            "bufferView" : 6,
            "componentType" : 5126,
            "count" : 202,
            "max" : [
                0.340541273355484,
                0.4452887177467346,
                1.3422504663467407
            ],
            "min" : [
                -0.3398160934448242,
                -0.4452967345714569,
                -1.3422528505325317
            ],
            "type" : "VEC3"
        },
        {
            "bufferView" : 7,
            "componentType" : 5126,
            "count" : 202,
            "type" : "VEC3"
        },
        {
            "bufferView" : 8,
            "componentType" : 5126,
            "count" : 202,
            "type" : "VEC2"
        },
        {
            "bufferView" : 9,
            "componentType" : 5123,
            "count" : 202,
            "normalized" : true,
            "type" : "VEC4"
        },
        {
            "bufferView" : 10,
            "componentType" : 5123,
            "count" : 462,
            "type" : "SCALAR"
        },
        {
            "bufferView" : 12,
            "componentType" : 5126,
            "count" : 918,
            "max" : [
                0.33723101019859314,
                0.4452887177467346,
                1.3422504663467407
            ],
            "min" : [
                -0.34054121375083923,
                -0.4452967345714569,
                -1.3422528505325317
            ],
            "type" : "VEC3"
        },
        {
            "bufferView" : 13,
            "componentType" : 5126,
            "count" : 918,
            "type" : "VEC3"
        },
        {
            "bufferView" : 14,
            "componentType" : 5126,
            "count" : 918,
            "type" : "VEC2"
        },
        {
            "bufferView" : 15,
            "componentType" : 5123,
            "count" : 918,
            "normalized" : true,
            "type" : "VEC4"
        },
        {
            "bufferView" : 16,
            "componentType" : 5123,
            "count" : 918,
            "type" : "SCALAR"
        }
    ],
    "bufferViews" : [
        {
            "buffer" : 0,
            "byteLength" : 1080,
            "byteOffset" : 0
        },
        {
            "buffer" : 0,
            "byteLength" : 1080,
            "byteOffset" : 1080
        },
        {
            "buffer" : 0,
            "byteLength" : 720,
            "byteOffset" : 2160
        },
        {
            "buffer" : 0,
            "byteLength" : 720,
            "byteOffset" : 2880
        },
        {
            "buffer" : 0,
            "byteLength" : 576,
            "byteOffset" : 3600
        },
        {
            "buffer" : 0,
            "byteLength" : 17187,
            "byteOffset" : 4176
        },
        {
            "buffer" : 0,
            "byteLength" : 2424,
            "byteOffset" : 21364
        },
        {
            "buffer" : 0,
            "byteLength" : 2424,
            "byteOffset" : 23788
        },
        {
            "buffer" : 0,
            "byteLength" : 1616,
            "byteOffset" : 26212
        },
        {
            "buffer" : 0,
            "byteLength" : 1616,
            "byteOffset" : 27828
        },
        {
            "buffer" : 0,
            "byteLength" : 924,
            "byteOffset" : 29444
        },
        {
            "buffer" : 0,
            "byteLength" : 22482,
            "byteOffset" : 30368
        },
        {
            "buffer" : 0,
            "byteLength" : 11016,
            "byteOffset" : 52852
        },
        {
            "buffer" : 0,
            "byteLength" : 11016,
            "byteOffset" : 63868
        },
        {
            "buffer" : 0,
            "byteLength" : 7344,
            "byteOffset" : 74884
        },
        {
            "buffer" : 0,
            "byteLength" : 7344,
            "byteOffset" : 82228
        },
        {
            "buffer" : 0,
            "byteLength" : 1836,
            "byteOffset" : 89572
        },
        {
            "buffer" : 0,
            "byteLength" : 4792,
            "byteOffset" : 91408
        }
    ],
    "samplers" : [
        {
            "magFilter" : 9729,
            "minFilter" : 9987
        }
    ],
    "buffers" : [
        {
            "byteLength" : 96200,
            "uri" : "data:application/octet-stream;base64,"
        }
    ]
}
