{
    "asset" : {
        "generator" : "Khronos glTF Blender I/O v1.8.19",
        "version" : "2.0"
    },
    "scene" : 0,
    "scenes" : [
        {
            "name" : "Scene",
            "nodes" : [
                0,
                1
            ]
        }
    ],
    "nodes" : [
        {
            "mesh" : 0,
            "name" : "CactusPlatformCol1"
        },
        {
            "mesh" : 1,
            "name" : "CactusPlatformCol2"
        }
    ],
    "meshes" : [
        {
            "name" : "CactusPlatformCol1",
            "primitives" : [
                {
                    "attributes" : {
                        "POSITION" : 0,
                        "NORMAL" : 1
                    },
                    "indices" : 2
                }
            ]
        },
        {
            "name" : "CactusPlatformCol2",
            "primitives" : [
                {
                    "attributes" : {
                        "POSITION" : 3,
                        "NORMAL" : 4
                    },
                    "indices" : 5
                }
            ]
        }
    ],
    "accessors" : [
        {
            "bufferView" : 0,
            "componentType" : 5126,
            "count" : 41,
            "max" : [
                1.8943125009536743,
                0.3096173107624054,
                1.8830350637435913
            ],
            "min" : [
                -1.890784740447998,
                0.2301659733057022,
                -1.9118757247924805
            ],
            "type" : "VEC3"
        },
        {
            "bufferView" : 1,
            "componentType" : 5126,
            "count" : 41,
            "type" : "VEC3"
        },
        {
            "bufferView" : 2,
            "componentType" : 5123,
            "count" : 180,
            "type" : "SCALAR"
        },
        {
            "bufferView" : 3,
            "componentType" : 5126,
            "count" : 61,
            "max" : [
                2.0984649658203125,
                0.23017969727516174,
                1.9718726873397827
            ],
            "min" : [
                -2.0946264266967773,
                -0.30961132049560547,
                -2.002305746078491
            ],
            "type" : "VEC3"
        },
        {
            "bufferView" : 4,
            "componentType" : 5126,
            "count" : 61,
            "type" : "VEC3"
        },
        {
            "bufferView" : 5,
            "componentType" : 5123,
            "count" : 300,
            "type" : "SCALAR"
        }
    ],
    "bufferViews" : [
        {
            "buffer" : 0,
            "byteLength" : 492,
            "byteOffset" : 0
        },
        {
            "buffer" : 0,
            "byteLength" : 492,
            "byteOffset" : 492
        },
        {
            "buffer" : 0,
            "byteLength" : 360,
            "byteOffset" : 984
        },
        {
            "buffer" : 0,
            "byteLength" : 732,
            "byteOffset" : 1344
        },
        {
            "buffer" : 0,
            "byteLength" : 732,
            "byteOffset" : 2076
        },
        {
            "buffer" : 0,
            "byteLength" : 600,
            "byteOffset" : 2808
        }
    ],
    "buffers" : [
        {
            "byteLength" : 3408,
            "uri" : "data:application/octet-stream;base64,"
        }
    ]
}
