{
    "asset" : {
        "generator" : "Khronos glTF Blender I/O v1.8.19",
        "version" : "2.0"
    },
    "scene" : 0,
    "scenes" : [
        {
            "name" : "Scene",
            "nodes" : [
                0
            ]
        }
    ],
    "nodes" : [
        {
            "mesh" : 0,
            "name" : "CactusPlatform"
        }
    ],
    "materials" : [
        {
            "name" : "Cactus Platform",
            "pbrMetallicRoughness" : {
                "baseColorTexture" : {
                    "index" : 0
                },
                "metallicFactor" : 0
            }
        },
        {
            "alphaCutoff" : 0.5,
            "alphaMode" : "MASK",
            "doubleSided" : true,
            "name" : "Lilypad Fringe",
            "pbrMetallicRoughness" : {
                "baseColorTexture" : {
                    "index" : 1
                },
                "metallicFactor" : 0
            }
        }
    ],
    "meshes" : [
        {
            "name" : "CactusPlatform",
            "primitives" : [
                {
                    "attributes" : {
                        "POSITION" : 0,
                        "NORMAL" : 1,
                        "TEXCOORD_0" : 2,
                        "COLOR_0" : 3
                    },
                    "indices" : 4,
                    "material" : 0
                },
                {
                    "attributes" : {
                        "POSITION" : 5,
                        "NORMAL" : 6,
                        "TEXCOORD_0" : 7,
                        "COLOR_0" : 8
                    },
                    "indices" : 9,
                    "material" : 1
                }
            ]
        }
    ],
    "textures" : [
        {
            "sampler" : 0,
            "source" : 0
        },
        {
            "sampler" : 0,
            "source" : 1
        }
    ],
    "images" : [
        {
            "bufferView" : 5,
            "mimeType" : "image/png",
            "name" : "cactus platform"
        },
        {
            "bufferView" : 11,
            "mimeType" : "image/png",
            "name" : "lilypad fringe"
        }
    ],
    "accessors" : [
        {
            "bufferView" : 0,
            "componentType" : 5126,
            "count" : 163,
            "max" : [
                2.0984649658203125,
                0.3096173107624054,
                1.9718726873397827
            ],
            "min" : [
                -2.0946264266967773,
                -0.30961132049560547,
                -2.002305746078491
            ],
            "type" : "VEC3"
        },
        {
            "bufferView" : 1,
            "componentType" : 5126,
            "count" : 163,
            "type" : "VEC3"
        },
        {
            "bufferView" : 2,
            "componentType" : 5126,
            "count" : 163,
            "type" : "VEC2"
        },
        {
            "bufferView" : 3,
            "componentType" : 5123,
            "count" : 163,
            "normalized" : true,
            "type" : "VEC4"
        },
        {
            "bufferView" : 4,
            "componentType" : 5123,
            "count" : 480,
            "type" : "SCALAR"
        },
        {
            "bufferView" : 6,
            "componentType" : 5126,
            "count" : 60,
            "max" : [
                2.459768772125244,
                0.2493789941072464,
                2.426098346710205
            ],
            "min" : [
                -2.459768772125244,
                0.0810684934258461,
                -2.4260964393615723
            ],
            "type" : "VEC3"
        },
        {
            "bufferView" : 7,
            "componentType" : 5126,
            "count" : 60,
            "type" : "VEC3"
        },
        {
            "bufferView" : 8,
            "componentType" : 5126,
            "count" : 60,
            "type" : "VEC2"
        },
        {
            "bufferView" : 9,
            "componentType" : 5123,
            "count" : 60,
            "normalized" : true,
            "type" : "VEC4"
        },
        {
            "bufferView" : 10,
            "componentType" : 5123,
            "count" : 60,
            "type" : "SCALAR"
        }
    ],
    "bufferViews" : [
        {
            "buffer" : 0,
            "byteLength" : 1956,
            "byteOffset" : 0
        },
        {
            "buffer" : 0,
            "byteLength" : 1956,
            "byteOffset" : 1956
        },
        {
            "buffer" : 0,
            "byteLength" : 1304,
            "byteOffset" : 3912
        },
        {
            "buffer" : 0,
            "byteLength" : 1304,
            "byteOffset" : 5216
        },
        {
            "buffer" : 0,
            "byteLength" : 960,
            "byteOffset" : 6520
        },
        {
            "buffer" : 0,
            "byteLength" : 79706,
            "byteOffset" : 7480
        },
        {
            "buffer" : 0,
            "byteLength" : 720,
            "byteOffset" : 87188
        },
        {
            "buffer" : 0,
            "byteLength" : 720,
            "byteOffset" : 87908
        },
        {
            "buffer" : 0,
            "byteLength" : 480,
            "byteOffset" : 88628
        },
        {
            "buffer" : 0,
            "byteLength" : 480,
            "byteOffset" : 89108
        },
        {
            "buffer" : 0,
            "byteLength" : 120,
            "byteOffset" : 89588
        },
        {
            "buffer" : 0,
            "byteLength" : 2391,
            "byteOffset" : 89708
        }
    ],
    "samplers" : [
        {
            "magFilter" : 9729,
            "minFilter" : 9987
        }
    ],
    "buffers" : [
        {
            "byteLength" : 92100,
            "uri" : "data:application/octet-stream;base64,"
        }
    ]
}
