{
    "asset" : {
        "generator" : "Khronos glTF Blender I/O v1.8.19",
        "version" : "2.0"
    },
    "scene" : 0,
    "scenes" : [
        {
            "name" : "Scene",
            "nodes" : [
                0,
                1
            ]
        }
    ],
    "nodes" : [
        {
            "mesh" : 0,
            "name" : "GrassPillarCollision0"
        },
        {
            "mesh" : 1,
            "name" : "GrassPillarCollision1"
        }
    ],
    "meshes" : [
        {
            "name" : "GrassPillarCollision0",
            "primitives" : [
                {
                    "attributes" : {
                        "POSITION" : 0,
                        "NORMAL" : 1
                    },
                    "indices" : 2
                }
            ]
        },
        {
            "name" : "GrassPillarCollision1",
            "primitives" : [
                {
                    "attributes" : {
                        "POSITION" : 3,
                        "NORMAL" : 4
                    },
                    "indices" : 5
                }
            ]
        }
    ],
    "accessors" : [
        {
            "bufferView" : 0,
            "componentType" : 5126,
            "count" : 60,
            "max" : [
                3.6141622066497803,
                9.980999946594238,
                3.636173725128174
            ],
            "min" : [
                -3.6141622066497803,
                0.03063870035111904,
                -3.6361730098724365
            ],
            "type" : "VEC3"
        },
        {
            "bufferView" : 1,
            "componentType" : 5126,
            "count" : 60,
            "type" : "VEC3"
        },
        {
            "bufferView" : 2,
            "componentType" : 5123,
            "count" : 288,
            "type" : "SCALAR"
        },
        {
            "bufferView" : 3,
            "componentType" : 5126,
            "count" : 16,
            "max" : [
                2.811960458755493,
                9.980999946594238,
                2.91192364692688
            ],
            "min" : [
                -2.5985195636749268,
                9.967999458312988,
                -3.008697748184204
            ],
            "type" : "VEC3"
        },
        {
            "bufferView" : 4,
            "componentType" : 5126,
            "count" : 16,
            "type" : "VEC3"
        },
        {
            "bufferView" : 5,
            "componentType" : 5123,
            "count" : 54,
            "type" : "SCALAR"
        }
    ],
    "bufferViews" : [
        {
            "buffer" : 0,
            "byteLength" : 720,
            "byteOffset" : 0
        },
        {
            "buffer" : 0,
            "byteLength" : 720,
            "byteOffset" : 720
        },
        {
            "buffer" : 0,
            "byteLength" : 576,
            "byteOffset" : 1440
        },
        {
            "buffer" : 0,
            "byteLength" : 192,
            "byteOffset" : 2016
        },
        {
            "buffer" : 0,
            "byteLength" : 192,
            "byteOffset" : 2208
        },
        {
            "buffer" : 0,
            "byteLength" : 108,
            "byteOffset" : 2400
        }
    ],
    "buffers" : [
        {
            "byteLength" : 2508,
            "uri" : "data:application/octet-stream;base64,"
        }
    ]
}
