{
    "asset" : {
        "generator" : "Khronos glTF Blender I/O v3.3.36",
        "version" : "2.0"
    },
    "extensionsUsed" : [
        "KHR_materials_specular",
        "KHR_materials_ior"
    ],
    "scene" : 0,
    "scenes" : [
        {
            "name" : "Scene",
            "nodes" : [
                6
            ]
        }
    ],
    "nodes" : [
        {
            "name" : "player",
            "rotation" : [
                0,
                0.7071068286895752,
                0,
                0.7071068286895752
            ],
            "scale" : [
                0.9999999403953552,
                0.9999999403953552,
                1
            ],
            "translation" : [
                2.25,
                2.962540626525879,
                0
            ]
        },
        {
            "name" : "piece1",
            "rotation" : [
                0,
                -2.1855694143368964e-08,
                0,
                1
            ],
            "translation" : [
                0,
                1.500004768371582,
                0
            ]
        },
        {
            "name" : "piece2",
            "rotation" : [
                0,
                -2.1855694143368964e-08,
                0,
                1
            ],
            "translation" : [
                2,
                1.500004768371582,
                -3.5
            ]
        },
        {
            "name" : "piece3",
            "rotation" : [
                0,
                -2.1855694143368964e-08,
                0,
                1
            ],
            "translation" : [
                2,
                1.500004768371582,
                3
            ]
        },
        {
            "name" : "camera",
            "translation" : [
                4.52008056640625,
                2.962540626525879,
                4.000008583068848
            ]
        },
        {
            "mesh" : 0,
            "name" : "SandfallEventMesh",
            "skin" : 0
        },
        {
            "children" : [
                5,
                0,
                1,
                2,
                3,
                4
            ],
            "name" : "SandfallEventRoot"
        }
    ],
    "animations" : [
        {
            "channels" : [
                {
                    "sampler" : 0,
                    "target" : {
                        "node" : 0,
                        "path" : "translation"
                    }
                },
                {
                    "sampler" : 1,
                    "target" : {
                        "node" : 0,
                        "path" : "rotation"
                    }
                },
                {
                    "sampler" : 2,
                    "target" : {
                        "node" : 0,
                        "path" : "scale"
                    }
                },
                {
                    "sampler" : 3,
                    "target" : {
                        "node" : 1,
                        "path" : "translation"
                    }
                },
                {
                    "sampler" : 4,
                    "target" : {
                        "node" : 1,
                        "path" : "rotation"
                    }
                },
                {
                    "sampler" : 5,
                    "target" : {
                        "node" : 1,
                        "path" : "scale"
                    }
                },
                {
                    "sampler" : 6,
                    "target" : {
                        "node" : 2,
                        "path" : "translation"
                    }
                },
                {
                    "sampler" : 7,
                    "target" : {
                        "node" : 2,
                        "path" : "rotation"
                    }
                },
                {
                    "sampler" : 8,
                    "target" : {
                        "node" : 2,
                        "path" : "scale"
                    }
                },
                {
                    "sampler" : 9,
                    "target" : {
                        "node" : 3,
                        "path" : "translation"
                    }
                },
                {
                    "sampler" : 10,
                    "target" : {
                        "node" : 3,
                        "path" : "rotation"
                    }
                },
                {
                    "sampler" : 11,
                    "target" : {
                        "node" : 3,
                        "path" : "scale"
                    }
                },
                {
                    "sampler" : 12,
                    "target" : {
                        "node" : 4,
                        "path" : "translation"
                    }
                },
                {
                    "sampler" : 13,
                    "target" : {
                        "node" : 4,
                        "path" : "rotation"
                    }
                },
                {
                    "sampler" : 14,
                    "target" : {
                        "node" : 4,
                        "path" : "scale"
                    }
                }
            ],
            "name" : "sandfall-event",
            "samplers" : [
                {
                    "input" : 22,
                    "interpolation" : "LINEAR",
                    "output" : 23
                },
                {
                    "input" : 22,
                    "interpolation" : "LINEAR",
                    "output" : 24
                },
                {
                    "input" : 22,
                    "interpolation" : "LINEAR",
                    "output" : 25
                },
                {
                    "input" : 22,
                    "interpolation" : "LINEAR",
                    "output" : 26
                },
                {
                    "input" : 22,
                    "interpolation" : "LINEAR",
                    "output" : 27
                },
                {
                    "input" : 22,
                    "interpolation" : "LINEAR",
                    "output" : 28
                },
                {
                    "input" : 22,
                    "interpolation" : "LINEAR",
                    "output" : 29
                },
                {
                    "input" : 22,
                    "interpolation" : "LINEAR",
                    "output" : 30
                },
                {
                    "input" : 22,
                    "interpolation" : "LINEAR",
                    "output" : 31
                },
                {
                    "input" : 22,
                    "interpolation" : "LINEAR",
                    "output" : 32
                },
                {
                    "input" : 22,
                    "interpolation" : "LINEAR",
                    "output" : 33
                },
                {
                    "input" : 22,
                    "interpolation" : "LINEAR",
                    "output" : 34
                },
                {
                    "input" : 22,
                    "interpolation" : "LINEAR",
                    "output" : 35
                },
                {
                    "input" : 22,
                    "interpolation" : "LINEAR",
                    "output" : 36
                },
                {
                    "input" : 22,
                    "interpolation" : "LINEAR",
                    "output" : 37
                }
            ]
        }
    ],
    "materials" : [
        {
            "extensions" : {
                "KHR_materials_specular" : {
                    "specularColorFactor" : [
                        0,
                        0,
                        0
                    ]
                },
                "KHR_materials_ior" : {
                    "ior" : 1.4500000476837158
                }
            },
            "name" : "Brick Red",
            "pbrMetallicRoughness" : {
                "baseColorFactor" : [
                    0.800000011920929,
                    0.800000011920929,
                    0.800000011920929,
                    1
                ],
                "metallicFactor" : 0
            }
        },
        {
            "extensions" : {
                "KHR_materials_specular" : {
                    "specularColorFactor" : [
                        0,
                        0,
                        0
                    ]
                },
                "KHR_materials_ior" : {
                    "ior" : 1.4500000476837158
                }
            },
            "name" : "Bedrock Gray",
            "pbrMetallicRoughness" : {
                "baseColorFactor" : [
                    0.800000011920929,
                    0.800000011920929,
                    0.800000011920929,
                    1
                ],
                "metallicFactor" : 0
            }
        },
        {
            "extensions" : {
                "KHR_materials_specular" : {
                    "specularColorFactor" : [
                        0,
                        0,
                        0
                    ]
                },
                "KHR_materials_ior" : {
                    "ior" : 1.4500000476837158
                }
            },
            "name" : "Pattern Star Orange",
            "pbrMetallicRoughness" : {
                "baseColorFactor" : [
                    0.800000011920929,
                    0.800000011920929,
                    0.800000011920929,
                    1
                ],
                "metallicFactor" : 0
            }
        }
    ],
    "meshes" : [
        {
            "name" : "SandfallEventMesh",
            "primitives" : [
                {
                    "attributes" : {
                        "POSITION" : 0,
                        "NORMAL" : 1,
                        "TEXCOORD_0" : 2,
                        "COLOR_0" : 3,
                        "JOINTS_0" : 4,
                        "WEIGHTS_0" : 5
                    },
                    "indices" : 6,
                    "material" : 0
                },
                {
                    "attributes" : {
                        "POSITION" : 7,
                        "NORMAL" : 8,
                        "TEXCOORD_0" : 9,
                        "COLOR_0" : 10,
                        "JOINTS_0" : 11,
                        "WEIGHTS_0" : 12
                    },
                    "indices" : 13,
                    "material" : 1
                },
                {
                    "attributes" : {
                        "POSITION" : 14,
                        "NORMAL" : 15,
                        "TEXCOORD_0" : 16,
                        "COLOR_0" : 17,
                        "JOINTS_0" : 18,
                        "WEIGHTS_0" : 19
                    },
                    "indices" : 20,
                    "material" : 2
                }
            ]
        }
    ],
    "skins" : [
        {
            "inverseBindMatrices" : 21,
            "joints" : [
                0,
                1,
                2,
                3,
                4
            ],
            "name" : "SandfallEventRoot"
        }
    ],
    "accessors" : [
        {
            "bufferView" : 0,
            "componentType" : 5126,
            "count" : 30,
            "max" : [
                -664,
                7.0027923583984375,
                -761
            ],
            "min" : [
                -668.5,
                7.002784729003906,
                -769
            ],
            "type" : "VEC3"
        },
        {
            "bufferView" : 1,
            "componentType" : 5126,
            "count" : 30,
            "type" : "VEC3"
        },
        {
            "bufferView" : 2,
            "componentType" : 5126,
            "count" : 30,
            "type" : "VEC2"
        },
        {
            "bufferView" : 3,
            "componentType" : 5123,
            "count" : 30,
            "normalized" : true,
            "type" : "VEC4"
        },
        {
            "bufferView" : 4,
            "componentType" : 5121,
            "count" : 30,
            "type" : "VEC4"
        },
        {
            "bufferView" : 5,
            "componentType" : 5126,
            "count" : 30,
            "type" : "VEC4"
        },
        {
            "bufferView" : 6,
            "componentType" : 5123,
            "count" : 30,
            "type" : "SCALAR"
        },
        {
            "bufferView" : 7,
            "componentType" : 5126,
            "count" : 266,
            "max" : [
                -663.5,
                10.002796173095703,
                -761
            ],
            "min" : [
                -668.5,
                7.002784729003906,
                -769
            ],
            "type" : "VEC3"
        },
        {
            "bufferView" : 8,
            "componentType" : 5126,
            "count" : 266,
            "type" : "VEC3"
        },
        {
            "bufferView" : 9,
            "componentType" : 5126,
            "count" : 266,
            "type" : "VEC2"
        },
        {
            "bufferView" : 10,
            "componentType" : 5123,
            "count" : 266,
            "normalized" : true,
            "type" : "VEC4"
        },
        {
            "bufferView" : 11,
            "componentType" : 5121,
            "count" : 266,
            "type" : "VEC4"
        },
        {
            "bufferView" : 12,
            "componentType" : 5126,
            "count" : 266,
            "type" : "VEC4"
        },
        {
            "bufferView" : 13,
            "componentType" : 5123,
            "count" : 267,
            "type" : "SCALAR"
        },
        {
            "bufferView" : 14,
            "componentType" : 5126,
            "count" : 76,
            "max" : [
                -663.5,
                10.002796173095703,
                -761
            ],
            "min" : [
                -664.0000610351562,
                7.002785682678223,
                -769
            ],
            "type" : "VEC3"
        },
        {
            "bufferView" : 15,
            "componentType" : 5126,
            "count" : 76,
            "type" : "VEC3"
        },
        {
            "bufferView" : 16,
            "componentType" : 5126,
            "count" : 76,
            "type" : "VEC2"
        },
        {
            "bufferView" : 17,
            "componentType" : 5123,
            "count" : 76,
            "normalized" : true,
            "type" : "VEC4"
        },
        {
            "bufferView" : 18,
            "componentType" : 5121,
            "count" : 76,
            "type" : "VEC4"
        },
        {
            "bufferView" : 19,
            "componentType" : 5126,
            "count" : 76,
            "type" : "VEC4"
        },
        {
            "bufferView" : 20,
            "componentType" : 5123,
            "count" : 78,
            "type" : "SCALAR"
        },
        {
            "bufferView" : 21,
            "componentType" : 5126,
            "count" : 5,
            "type" : "MAT4"
        },
        {
            "bufferView" : 22,
            "componentType" : 5126,
            "count" : 121,
            "max" : [
                5
            ],
            "min" : [
                0
            ],
            "type" : "SCALAR"
        },
        {
            "bufferView" : 23,
            "componentType" : 5126,
            "count" : 121,
            "type" : "VEC3"
        },
        {
            "bufferView" : 24,
            "componentType" : 5126,
            "count" : 121,
            "type" : "VEC4"
        },
        {
            "bufferView" : 25,
            "componentType" : 5126,
            "count" : 121,
            "type" : "VEC3"
        },
        {
            "bufferView" : 26,
            "componentType" : 5126,
            "count" : 121,
            "type" : "VEC3"
        },
        {
            "bufferView" : 27,
            "componentType" : 5126,
            "count" : 121,
            "type" : "VEC4"
        },
        {
            "bufferView" : 28,
            "componentType" : 5126,
            "count" : 121,
            "type" : "VEC3"
        },
        {
            "bufferView" : 29,
            "componentType" : 5126,
            "count" : 121,
            "type" : "VEC3"
        },
        {
            "bufferView" : 30,
            "componentType" : 5126,
            "count" : 121,
            "type" : "VEC4"
        },
        {
            "bufferView" : 31,
            "componentType" : 5126,
            "count" : 121,
            "type" : "VEC3"
        },
        {
            "bufferView" : 32,
            "componentType" : 5126,
            "count" : 121,
            "type" : "VEC3"
        },
        {
            "bufferView" : 33,
            "componentType" : 5126,
            "count" : 121,
            "type" : "VEC4"
        },
        {
            "bufferView" : 34,
            "componentType" : 5126,
            "count" : 121,
            "type" : "VEC3"
        },
        {
            "bufferView" : 35,
            "componentType" : 5126,
            "count" : 121,
            "type" : "VEC3"
        },
        {
            "bufferView" : 36,
            "componentType" : 5126,
            "count" : 121,
            "type" : "VEC4"
        },
        {
            "bufferView" : 37,
            "componentType" : 5126,
            "count" : 121,
            "type" : "VEC3"
        }
    ],
    "bufferViews" : [
        {
            "buffer" : 0,
            "byteLength" : 360,
            "byteOffset" : 0,
            "target" : 34962
        },
        {
            "buffer" : 0,
            "byteLength" : 360,
            "byteOffset" : 360,
            "target" : 34962
        },
        {
            "buffer" : 0,
            "byteLength" : 240,
            "byteOffset" : 720,
            "target" : 34962
        },
        {
            "buffer" : 0,
            "byteLength" : 240,
            "byteOffset" : 960,
            "target" : 34962
        },
        {
            "buffer" : 0,
            "byteLength" : 120,
            "byteOffset" : 1200,
            "target" : 34962
        },
        {
            "buffer" : 0,
            "byteLength" : 480,
            "byteOffset" : 1320,
            "target" : 34962
        },
        {
            "buffer" : 0,
            "byteLength" : 60,
            "byteOffset" : 1800,
            "target" : 34963
        },
        {
            "buffer" : 0,
            "byteLength" : 3192,
            "byteOffset" : 1860,
            "target" : 34962
        },
        {
            "buffer" : 0,
            "byteLength" : 3192,
            "byteOffset" : 5052,
            "target" : 34962
        },
        {
            "buffer" : 0,
            "byteLength" : 2128,
            "byteOffset" : 8244,
            "target" : 34962
        },
        {
            "buffer" : 0,
            "byteLength" : 2128,
            "byteOffset" : 10372,
            "target" : 34962
        },
        {
            "buffer" : 0,
            "byteLength" : 1064,
            "byteOffset" : 12500,
            "target" : 34962
        },
        {
            "buffer" : 0,
            "byteLength" : 4256,
            "byteOffset" : 13564,
            "target" : 34962
        },
        {
            "buffer" : 0,
            "byteLength" : 534,
            "byteOffset" : 17820,
            "target" : 34963
        },
        {
            "buffer" : 0,
            "byteLength" : 912,
            "byteOffset" : 18356,
            "target" : 34962
        },
        {
            "buffer" : 0,
            "byteLength" : 912,
            "byteOffset" : 19268,
            "target" : 34962
        },
        {
            "buffer" : 0,
            "byteLength" : 608,
            "byteOffset" : 20180,
            "target" : 34962
        },
        {
            "buffer" : 0,
            "byteLength" : 608,
            "byteOffset" : 20788,
            "target" : 34962
        },
        {
            "buffer" : 0,
            "byteLength" : 304,
            "byteOffset" : 21396,
            "target" : 34962
        },
        {
            "buffer" : 0,
            "byteLength" : 1216,
            "byteOffset" : 21700,
            "target" : 34962
        },
        {
            "buffer" : 0,
            "byteLength" : 156,
            "byteOffset" : 22916,
            "target" : 34963
        },
        {
            "buffer" : 0,
            "byteLength" : 320,
            "byteOffset" : 23072
        },
        {
            "buffer" : 0,
            "byteLength" : 484,
            "byteOffset" : 23392
        },
        {
            "buffer" : 0,
            "byteLength" : 1452,
            "byteOffset" : 23876
        },
        {
            "buffer" : 0,
            "byteLength" : 1936,
            "byteOffset" : 25328
        },
        {
            "buffer" : 0,
            "byteLength" : 1452,
            "byteOffset" : 27264
        },
        {
            "buffer" : 0,
            "byteLength" : 1452,
            "byteOffset" : 28716
        },
        {
            "buffer" : 0,
            "byteLength" : 1936,
            "byteOffset" : 30168
        },
        {
            "buffer" : 0,
            "byteLength" : 1452,
            "byteOffset" : 32104
        },
        {
            "buffer" : 0,
            "byteLength" : 1452,
            "byteOffset" : 33556
        },
        {
            "buffer" : 0,
            "byteLength" : 1936,
            "byteOffset" : 35008
        },
        {
            "buffer" : 0,
            "byteLength" : 1452,
            "byteOffset" : 36944
        },
        {
            "buffer" : 0,
            "byteLength" : 1452,
            "byteOffset" : 38396
        },
        {
            "buffer" : 0,
            "byteLength" : 1936,
            "byteOffset" : 39848
        },
        {
            "buffer" : 0,
            "byteLength" : 1452,
            "byteOffset" : 41784
        },
        {
            "buffer" : 0,
            "byteLength" : 1452,
            "byteOffset" : 43236
        },
        {
            "buffer" : 0,
            "byteLength" : 1936,
            "byteOffset" : 44688
        },
        {
            "buffer" : 0,
            "byteLength" : 1452,
            "byteOffset" : 46624
        }
    ],
    "buffers" : [
        {
            "byteLength" : 48076,
            "uri" : "data:application/octet-stream;base64,"
        }
    ]
}
