{
    "asset" : {
        "generator" : "Khronos glTF Blender I/O v3.3.27",
        "version" : "2.0"
    },
    "extensionsUsed" : [
        "KHR_materials_specular",
        "KHR_materials_ior"
    ],
    "scene" : 0,
    "scenes" : [
        {
            "name" : "Scene",
            "nodes" : [
                0,
                1
            ]
        }
    ],
    "nodes" : [
        {
            "mesh" : 0,
            "name" : "CatapultArm",
            "translation" : [
                0,
                0.23999999463558197,
                0
            ]
        },
        {
            "mesh" : 1,
            "name" : "CatapultBase"
        }
    ],
    "materials" : [
        {
            "extensions" : {
                "KHR_materials_specular" : {
                    "specularColorFactor" : [
                        0,
                        0,
                        0
                    ]
                },
                "KHR_materials_ior" : {
                    "ior" : 1.4500000476837158
                }
            },
            "name" : "Catapult",
            "pbrMetallicRoughness" : {
                "baseColorFactor" : [
                    0.800000011920929,
                    0.800000011920929,
                    0.800000011920929,
                    1
                ],
                "metallicFactor" : 0
            }
        }
    ],
    "meshes" : [
        {
            "name" : "CatapultArm",
            "primitives" : [
                {
                    "attributes" : {
                        "POSITION" : 0,
                        "NORMAL" : 1,
                        "TEXCOORD_0" : 2,
                        "COLOR_0" : 3
                    },
                    "indices" : 4,
                    "material" : 0
                }
            ]
        },
        {
            "name" : "CatapultBase",
            "primitives" : [
                {
                    "attributes" : {
                        "POSITION" : 5,
                        "NORMAL" : 6,
                        "TEXCOORD_0" : 7,
                        "COLOR_0" : 8
                    },
                    "indices" : 9,
                    "material" : 0
                }
            ]
        }
    ],
    "accessors" : [
        {
            "bufferView" : 0,
            "componentType" : 5126,
            "count" : 746,
            "max" : [
                0.6327639818191528,
                0.22003890573978424,
                0.22078077495098114
            ],
            "min" : [
                -0.6331931948661804,
                -0.22106288373470306,
                -3.5012261867523193
            ],
            "type" : "VEC3"
        },
        {
            "bufferView" : 1,
            "componentType" : 5126,
            "count" : 746,
            "type" : "VEC3"
        },
        {
            "bufferView" : 2,
            "componentType" : 5126,
            "count" : 746,
            "type" : "VEC2"
        },
        {
            "bufferView" : 3,
            "componentType" : 5123,
            "count" : 746,
            "normalized" : true,
            "type" : "VEC4"
        },
        {
            "bufferView" : 4,
            "componentType" : 5123,
            "count" : 1014,
            "type" : "SCALAR"
        },
        {
            "bufferView" : 5,
            "componentType" : 5126,
            "count" : 552,
            "max" : [
                0.888993501663208,
                0.31030967831611633,
                0.8889931440353394
            ],
            "min" : [
                -0.888993501663208,
                4.3132658902322873e-05,
                -0.8889936208724976
            ],
            "type" : "VEC3"
        },
        {
            "bufferView" : 6,
            "componentType" : 5126,
            "count" : 552,
            "type" : "VEC3"
        },
        {
            "bufferView" : 7,
            "componentType" : 5126,
            "count" : 552,
            "type" : "VEC2"
        },
        {
            "bufferView" : 8,
            "componentType" : 5123,
            "count" : 552,
            "normalized" : true,
            "type" : "VEC4"
        },
        {
            "bufferView" : 9,
            "componentType" : 5123,
            "count" : 552,
            "type" : "SCALAR"
        }
    ],
    "bufferViews" : [
        {
            "buffer" : 0,
            "byteLength" : 8952,
            "byteOffset" : 0,
            "target" : 34962
        },
        {
            "buffer" : 0,
            "byteLength" : 8952,
            "byteOffset" : 8952,
            "target" : 34962
        },
        {
            "buffer" : 0,
            "byteLength" : 5968,
            "byteOffset" : 17904,
            "target" : 34962
        },
        {
            "buffer" : 0,
            "byteLength" : 5968,
            "byteOffset" : 23872,
            "target" : 34962
        },
        {
            "buffer" : 0,
            "byteLength" : 2028,
            "byteOffset" : 29840,
            "target" : 34963
        },
        {
            "buffer" : 0,
            "byteLength" : 6624,
            "byteOffset" : 31868,
            "target" : 34962
        },
        {
            "buffer" : 0,
            "byteLength" : 6624,
            "byteOffset" : 38492,
            "target" : 34962
        },
        {
            "buffer" : 0,
            "byteLength" : 4416,
            "byteOffset" : 45116,
            "target" : 34962
        },
        {
            "buffer" : 0,
            "byteLength" : 4416,
            "byteOffset" : 49532,
            "target" : 34962
        },
        {
            "buffer" : 0,
            "byteLength" : 1104,
            "byteOffset" : 53948,
            "target" : 34963
        }
    ],
    "buffers" : [
        {
            "byteLength" : 55052,
            "uri" : "data:application/octet-stream;base64,"
        }
    ]
}
