{
    "asset" : {
        "generator" : "Khronos glTF Blender I/O v3.3.27",
        "version" : "2.0"
    },
    "extensionsUsed" : [
        "KHR_materials_specular",
        "KHR_materials_ior"
    ],
    "scene" : 0,
    "scenes" : [
        {
            "name" : "Scene",
            "nodes" : [
                6
            ]
        }
    ],
    "nodes" : [
        {
            "name" : "Wing02.R",
            "rotation" : [
                -3.718762400239939e-07,
                1.0789357247631415e-06,
                0.4464239478111267,
                0.8948217034339905
            ],
            "scale" : [
                1,
                0.9999998807907104,
                1
            ],
            "translation" : [
                3.0619951019161817e-13,
                0.642713189125061,
                1.1368683772161603e-13
            ]
        },
        {
            "children" : [
                0
            ],
            "name" : "Wing01.R",
            "rotation" : [
                0.6169383525848389,
                -0.3455245792865753,
                0.34552454948425293,
                0.6169381737709045
            ],
            "scale" : [
                0.9999999403953552,
                0.9999998807907104,
                0.9999999403953552
            ],
            "translation" : [
                -0.7160000801086426,
                -1.5497207641601562e-06,
                0.046162188053131104
            ]
        },
        {
            "name" : "Wing02.L",
            "rotation" : [
                -4.781001621267933e-07,
                -1.033873445521749e-06,
                -0.4464239478111267,
                0.8948217034339905
            ],
            "scale" : [
                1,
                0.9999998807907104,
                1
            ],
            "translation" : [
                2.9802198042716554e-08,
                0.6427132487297058,
                1.0857981180834031e-13
            ]
        },
        {
            "children" : [
                2
            ],
            "name" : "Wing01.L",
            "rotation" : [
                0.6169381737709045,
                0.34552469849586487,
                -0.3455243706703186,
                0.6169382929801941
            ],
            "scale" : [
                0.9999999403953552,
                0.9999998807907104,
                1
            ],
            "translation" : [
                0.7160000801086426,
                -1.0728836059570312e-06,
                0.046162188053131104
            ]
        },
        {
            "children" : [
                1,
                3
            ],
            "name" : "Body",
            "rotation" : [
                -0.7071068286895752,
                -1.1520233300643667e-07,
                -1.1520233300643667e-07,
                0.7071068286895752
            ]
        },
        {
            "mesh" : 0,
            "name" : "FlyingPotMesh",
            "skin" : 0
        },
        {
            "children" : [
                5,
                4
            ],
            "name" : "FlyingPotRoot"
        }
    ],
    "animations" : [
        {
            "channels" : [
                {
                    "sampler" : 0,
                    "target" : {
                        "node" : 4,
                        "path" : "translation"
                    }
                },
                {
                    "sampler" : 1,
                    "target" : {
                        "node" : 4,
                        "path" : "rotation"
                    }
                },
                {
                    "sampler" : 2,
                    "target" : {
                        "node" : 4,
                        "path" : "scale"
                    }
                },
                {
                    "sampler" : 3,
                    "target" : {
                        "node" : 1,
                        "path" : "translation"
                    }
                },
                {
                    "sampler" : 4,
                    "target" : {
                        "node" : 1,
                        "path" : "rotation"
                    }
                },
                {
                    "sampler" : 5,
                    "target" : {
                        "node" : 1,
                        "path" : "scale"
                    }
                },
                {
                    "sampler" : 6,
                    "target" : {
                        "node" : 0,
                        "path" : "translation"
                    }
                },
                {
                    "sampler" : 7,
                    "target" : {
                        "node" : 0,
                        "path" : "rotation"
                    }
                },
                {
                    "sampler" : 8,
                    "target" : {
                        "node" : 0,
                        "path" : "scale"
                    }
                },
                {
                    "sampler" : 9,
                    "target" : {
                        "node" : 3,
                        "path" : "translation"
                    }
                },
                {
                    "sampler" : 10,
                    "target" : {
                        "node" : 3,
                        "path" : "rotation"
                    }
                },
                {
                    "sampler" : 11,
                    "target" : {
                        "node" : 3,
                        "path" : "scale"
                    }
                },
                {
                    "sampler" : 12,
                    "target" : {
                        "node" : 2,
                        "path" : "translation"
                    }
                },
                {
                    "sampler" : 13,
                    "target" : {
                        "node" : 2,
                        "path" : "rotation"
                    }
                },
                {
                    "sampler" : 14,
                    "target" : {
                        "node" : 2,
                        "path" : "scale"
                    }
                }
            ],
            "name" : "wing-loop",
            "samplers" : [
                {
                    "input" : 15,
                    "interpolation" : "LINEAR",
                    "output" : 16
                },
                {
                    "input" : 15,
                    "interpolation" : "LINEAR",
                    "output" : 17
                },
                {
                    "input" : 15,
                    "interpolation" : "LINEAR",
                    "output" : 18
                },
                {
                    "input" : 15,
                    "interpolation" : "LINEAR",
                    "output" : 19
                },
                {
                    "input" : 15,
                    "interpolation" : "LINEAR",
                    "output" : 20
                },
                {
                    "input" : 15,
                    "interpolation" : "LINEAR",
                    "output" : 21
                },
                {
                    "input" : 15,
                    "interpolation" : "LINEAR",
                    "output" : 22
                },
                {
                    "input" : 15,
                    "interpolation" : "LINEAR",
                    "output" : 23
                },
                {
                    "input" : 15,
                    "interpolation" : "LINEAR",
                    "output" : 24
                },
                {
                    "input" : 15,
                    "interpolation" : "LINEAR",
                    "output" : 25
                },
                {
                    "input" : 15,
                    "interpolation" : "LINEAR",
                    "output" : 26
                },
                {
                    "input" : 15,
                    "interpolation" : "LINEAR",
                    "output" : 27
                },
                {
                    "input" : 15,
                    "interpolation" : "LINEAR",
                    "output" : 28
                },
                {
                    "input" : 15,
                    "interpolation" : "LINEAR",
                    "output" : 29
                },
                {
                    "input" : 15,
                    "interpolation" : "LINEAR",
                    "output" : 30
                }
            ]
        }
    ],
    "materials" : [
        {
            "extensions" : {
                "KHR_materials_specular" : {
                    "specularColorFactor" : [
                        0,
                        0,
                        0
                    ]
                },
                "KHR_materials_ior" : {
                    "ior" : 1.4500000476837158
                }
            },
            "name" : "Flying Pot",
            "pbrMetallicRoughness" : {
                "baseColorTexture" : {
                    "index" : 0
                },
                "metallicFactor" : 0
            }
        },
        {
            "doubleSided" : true,
            "extensions" : {
                "KHR_materials_specular" : {
                    "specularColorFactor" : [
                        0,
                        0,
                        0
                    ]
                },
                "KHR_materials_ior" : {
                    "ior" : 1.4500000476837158
                }
            },
            "name" : "Flying Pot Wing",
            "pbrMetallicRoughness" : {
                "baseColorTexture" : {
                    "index" : 1
                },
                "metallicFactor" : 0
            }
        }
    ],
    "meshes" : [
        {
            "name" : "FlyingPotMesh",
            "primitives" : [
                {
                    "attributes" : {
                        "POSITION" : 0,
                        "NORMAL" : 1,
                        "TEXCOORD_0" : 2,
                        "COLOR_0" : 3,
                        "JOINTS_0" : 4,
                        "WEIGHTS_0" : 5
                    },
                    "indices" : 6,
                    "material" : 0
                },
                {
                    "attributes" : {
                        "POSITION" : 7,
                        "NORMAL" : 8,
                        "TEXCOORD_0" : 9,
                        "COLOR_0" : 10,
                        "JOINTS_0" : 11,
                        "WEIGHTS_0" : 12
                    },
                    "indices" : 13,
                    "material" : 1
                }
            ]
        }
    ],
    "textures" : [
        {
            "sampler" : 0,
            "source" : 0
        },
        {
            "sampler" : 0,
            "source" : 1
        }
    ],
    "images" : [
        {
            "bufferView" : 7,
            "mimeType" : "image/png",
            "name" : "flying pot"
        },
        {
            "bufferView" : 15,
            "mimeType" : "image/png",
            "name" : "flying pot wing"
        }
    ],
    "skins" : [
        {
            "inverseBindMatrices" : 14,
            "joints" : [
                4,
                1,
                0,
                3,
                2
            ],
            "name" : "FlyingPotRoot"
        }
    ],
    "accessors" : [
        {
            "bufferView" : 0,
            "componentType" : 5126,
            "count" : 373,
            "max" : [
                0.7071384787559509,
                0.8882260918617249,
                0.7071245908737183
            ],
            "min" : [
                -0.7071385383605957,
                -0.6940675973892212,
                -0.7071526050567627
            ],
            "type" : "VEC3"
        },
        {
            "bufferView" : 1,
            "componentType" : 5126,
            "count" : 373,
            "type" : "VEC3"
        },
        {
            "bufferView" : 2,
            "componentType" : 5126,
            "count" : 373,
            "type" : "VEC2"
        },
        {
            "bufferView" : 3,
            "componentType" : 5123,
            "count" : 373,
            "normalized" : true,
            "type" : "VEC4"
        },
        {
            "bufferView" : 4,
            "componentType" : 5121,
            "count" : 373,
            "type" : "VEC4"
        },
        {
            "bufferView" : 5,
            "componentType" : 5126,
            "count" : 373,
            "type" : "VEC4"
        },
        {
            "bufferView" : 6,
            "componentType" : 5123,
            "count" : 732,
            "type" : "SCALAR"
        },
        {
            "bufferView" : 8,
            "componentType" : 5126,
            "count" : 82,
            "max" : [
                2.2586894035339355,
                0.7121801376342773,
                0.06751842051744461
            ],
            "min" : [
                -2.2586894035339355,
                -0.10122400522232056,
                -0.0675237849354744
            ],
            "type" : "VEC3"
        },
        {
            "bufferView" : 9,
            "componentType" : 5126,
            "count" : 82,
            "type" : "VEC3"
        },
        {
            "bufferView" : 10,
            "componentType" : 5126,
            "count" : 82,
            "type" : "VEC2"
        },
        {
            "bufferView" : 11,
            "componentType" : 5123,
            "count" : 82,
            "normalized" : true,
            "type" : "VEC4"
        },
        {
            "bufferView" : 12,
            "componentType" : 5121,
            "count" : 82,
            "type" : "VEC4"
        },
        {
            "bufferView" : 13,
            "componentType" : 5126,
            "count" : 82,
            "type" : "VEC4"
        },
        {
            "bufferView" : 14,
            "componentType" : 5123,
            "count" : 414,
            "type" : "SCALAR"
        },
        {
            "bufferView" : 16,
            "componentType" : 5126,
            "count" : 5,
            "type" : "MAT4"
        },
        {
            "bufferView" : 17,
            "componentType" : 5126,
            "count" : 13,
            "max" : [
                0.5
            ],
            "min" : [
                0
            ],
            "type" : "SCALAR"
        },
        {
            "bufferView" : 18,
            "componentType" : 5126,
            "count" : 13,
            "type" : "VEC3"
        },
        {
            "bufferView" : 19,
            "componentType" : 5126,
            "count" : 13,
            "type" : "VEC4"
        },
        {
            "bufferView" : 20,
            "componentType" : 5126,
            "count" : 13,
            "type" : "VEC3"
        },
        {
            "bufferView" : 21,
            "componentType" : 5126,
            "count" : 13,
            "type" : "VEC3"
        },
        {
            "bufferView" : 22,
            "componentType" : 5126,
            "count" : 13,
            "type" : "VEC4"
        },
        {
            "bufferView" : 23,
            "componentType" : 5126,
            "count" : 13,
            "type" : "VEC3"
        },
        {
            "bufferView" : 24,
            "componentType" : 5126,
            "count" : 13,
            "type" : "VEC3"
        },
        {
            "bufferView" : 25,
            "componentType" : 5126,
            "count" : 13,
            "type" : "VEC4"
        },
        {
            "bufferView" : 26,
            "componentType" : 5126,
            "count" : 13,
            "type" : "VEC3"
        },
        {
            "bufferView" : 27,
            "componentType" : 5126,
            "count" : 13,
            "type" : "VEC3"
        },
        {
            "bufferView" : 28,
            "componentType" : 5126,
            "count" : 13,
            "type" : "VEC4"
        },
        {
            "bufferView" : 29,
            "componentType" : 5126,
            "count" : 13,
            "type" : "VEC3"
        },
        {
            "bufferView" : 30,
            "componentType" : 5126,
            "count" : 13,
            "type" : "VEC3"
        },
        {
            "bufferView" : 31,
            "componentType" : 5126,
            "count" : 13,
            "type" : "VEC4"
        },
        {
            "bufferView" : 32,
            "componentType" : 5126,
            "count" : 13,
            "type" : "VEC3"
        }
    ],
    "bufferViews" : [
        {
            "buffer" : 0,
            "byteLength" : 4476,
            "byteOffset" : 0,
            "target" : 34962
        },
        {
            "buffer" : 0,
            "byteLength" : 4476,
            "byteOffset" : 4476,
            "target" : 34962
        },
        {
            "buffer" : 0,
            "byteLength" : 2984,
            "byteOffset" : 8952,
            "target" : 34962
        },
        {
            "buffer" : 0,
            "byteLength" : 2984,
            "byteOffset" : 11936,
            "target" : 34962
        },
        {
            "buffer" : 0,
            "byteLength" : 1492,
            "byteOffset" : 14920,
            "target" : 34962
        },
        {
            "buffer" : 0,
            "byteLength" : 5968,
            "byteOffset" : 16412,
            "target" : 34962
        },
        {
            "buffer" : 0,
            "byteLength" : 1464,
            "byteOffset" : 22380,
            "target" : 34963
        },
        {
            "buffer" : 0,
            "byteLength" : 19005,
            "byteOffset" : 23844
        },
        {
            "buffer" : 0,
            "byteLength" : 984,
            "byteOffset" : 42852,
            "target" : 34962
        },
        {
            "buffer" : 0,
            "byteLength" : 984,
            "byteOffset" : 43836,
            "target" : 34962
        },
        {
            "buffer" : 0,
            "byteLength" : 656,
            "byteOffset" : 44820,
            "target" : 34962
        },
        {
            "buffer" : 0,
            "byteLength" : 656,
            "byteOffset" : 45476,
            "target" : 34962
        },
        {
            "buffer" : 0,
            "byteLength" : 328,
            "byteOffset" : 46132,
            "target" : 34962
        },
        {
            "buffer" : 0,
            "byteLength" : 1312,
            "byteOffset" : 46460,
            "target" : 34962
        },
        {
            "buffer" : 0,
            "byteLength" : 828,
            "byteOffset" : 47772,
            "target" : 34963
        },
        {
            "buffer" : 0,
            "byteLength" : 13121,
            "byteOffset" : 48600
        },
        {
            "buffer" : 0,
            "byteLength" : 320,
            "byteOffset" : 61724
        },
        {
            "buffer" : 0,
            "byteLength" : 52,
            "byteOffset" : 62044
        },
        {
            "buffer" : 0,
            "byteLength" : 156,
            "byteOffset" : 62096
        },
        {
            "buffer" : 0,
            "byteLength" : 208,
            "byteOffset" : 62252
        },
        {
            "buffer" : 0,
            "byteLength" : 156,
            "byteOffset" : 62460
        },
        {
            "buffer" : 0,
            "byteLength" : 156,
            "byteOffset" : 62616
        },
        {
            "buffer" : 0,
            "byteLength" : 208,
            "byteOffset" : 62772
        },
        {
            "buffer" : 0,
            "byteLength" : 156,
            "byteOffset" : 62980
        },
        {
            "buffer" : 0,
            "byteLength" : 156,
            "byteOffset" : 63136
        },
        {
            "buffer" : 0,
            "byteLength" : 208,
            "byteOffset" : 63292
        },
        {
            "buffer" : 0,
            "byteLength" : 156,
            "byteOffset" : 63500
        },
        {
            "buffer" : 0,
            "byteLength" : 156,
            "byteOffset" : 63656
        },
        {
            "buffer" : 0,
            "byteLength" : 208,
            "byteOffset" : 63812
        },
        {
            "buffer" : 0,
            "byteLength" : 156,
            "byteOffset" : 64020
        },
        {
            "buffer" : 0,
            "byteLength" : 156,
            "byteOffset" : 64176
        },
        {
            "buffer" : 0,
            "byteLength" : 208,
            "byteOffset" : 64332
        },
        {
            "buffer" : 0,
            "byteLength" : 156,
            "byteOffset" : 64540
        }
    ],
    "samplers" : [
        {
            "magFilter" : 9729,
            "minFilter" : 9987
        }
    ],
    "buffers" : [
        {
            "byteLength" : 64696,
            "uri" : "data:application/octet-stream;base64,"
        }
    ]
}
