{
    "asset" : {
        "generator" : "Khronos glTF Blender I/O v3.3.27",
        "version" : "2.0"
    },
    "extensionsUsed" : [
        "KHR_materials_specular",
        "KHR_materials_ior"
    ],
    "scene" : 0,
    "scenes" : [
        {
            "name" : "Scene",
            "nodes" : [
                6
            ]
        }
    ],
    "nodes" : [
        {
            "name" : "Wing02.R",
            "rotation" : [
                -6.734859994139697e-07,
                1.696628714853432e-06,
                0.4464244842529297,
                0.8948213458061218
            ],
            "scale" : [
                0.9999998807907104,
                0.9999999403953552,
                0.9999999403953552
            ],
            "translation" : [
                1.1920928955078125e-07,
                0.6427130103111267,
                1.4210854715202004e-14
            ]
        },
        {
            "children" : [
                0
            ],
            "name" : "Wing01.R",
            "rotation" : [
                0.6169382929801941,
                -0.3455246686935425,
                0.345524400472641,
                0.6169382929801941
            ],
            "scale" : [
                0.9999998807907104,
                0.9999997615814209,
                0.9999999403953552
            ],
            "translation" : [
                -0.811476469039917,
                0,
                0.046162188053131104
            ]
        },
        {
            "name" : "Wing02.L",
            "rotation" : [
                -6.734859994139697e-07,
                -1.696628714853432e-06,
                -0.4464244842529297,
                0.8948213458061218
            ],
            "scale" : [
                0.9999998807907104,
                0.9999999403953552,
                0.9999999403953552
            ],
            "translation" : [
                -1.1920928955078125e-07,
                0.6427130103111267,
                1.4210854715202004e-14
            ]
        },
        {
            "children" : [
                2
            ],
            "name" : "Wing01.L",
            "rotation" : [
                0.6169382929801941,
                0.3455246686935425,
                -0.345524400472641,
                0.6169382929801941
            ],
            "scale" : [
                0.9999998807907104,
                0.9999997615814209,
                0.9999999403953552
            ],
            "translation" : [
                0.811476469039917,
                0,
                0.046162188053131104
            ]
        },
        {
            "children" : [
                1,
                3
            ],
            "name" : "Root",
            "rotation" : [
                -0.7071068286895752,
                0,
                0,
                0.7071068286895752
            ]
        },
        {
            "mesh" : 0,
            "name" : "ItemBoxWingsMesh",
            "skin" : 0
        },
        {
            "children" : [
                5,
                4
            ],
            "name" : "ItemBoxWingsRoot",
            "translation" : [
                0,
                0.8432140350341797,
                0
            ]
        }
    ],
    "animations" : [
        {
            "channels" : [
                {
                    "sampler" : 0,
                    "target" : {
                        "node" : 4,
                        "path" : "translation"
                    }
                },
                {
                    "sampler" : 1,
                    "target" : {
                        "node" : 4,
                        "path" : "rotation"
                    }
                },
                {
                    "sampler" : 2,
                    "target" : {
                        "node" : 4,
                        "path" : "scale"
                    }
                },
                {
                    "sampler" : 3,
                    "target" : {
                        "node" : 1,
                        "path" : "translation"
                    }
                },
                {
                    "sampler" : 4,
                    "target" : {
                        "node" : 1,
                        "path" : "rotation"
                    }
                },
                {
                    "sampler" : 5,
                    "target" : {
                        "node" : 1,
                        "path" : "scale"
                    }
                },
                {
                    "sampler" : 6,
                    "target" : {
                        "node" : 0,
                        "path" : "translation"
                    }
                },
                {
                    "sampler" : 7,
                    "target" : {
                        "node" : 0,
                        "path" : "rotation"
                    }
                },
                {
                    "sampler" : 8,
                    "target" : {
                        "node" : 0,
                        "path" : "scale"
                    }
                },
                {
                    "sampler" : 9,
                    "target" : {
                        "node" : 3,
                        "path" : "translation"
                    }
                },
                {
                    "sampler" : 10,
                    "target" : {
                        "node" : 3,
                        "path" : "rotation"
                    }
                },
                {
                    "sampler" : 11,
                    "target" : {
                        "node" : 3,
                        "path" : "scale"
                    }
                },
                {
                    "sampler" : 12,
                    "target" : {
                        "node" : 2,
                        "path" : "translation"
                    }
                },
                {
                    "sampler" : 13,
                    "target" : {
                        "node" : 2,
                        "path" : "rotation"
                    }
                },
                {
                    "sampler" : 14,
                    "target" : {
                        "node" : 2,
                        "path" : "scale"
                    }
                }
            ],
            "name" : "wing-loop",
            "samplers" : [
                {
                    "input" : 8,
                    "interpolation" : "LINEAR",
                    "output" : 9
                },
                {
                    "input" : 8,
                    "interpolation" : "LINEAR",
                    "output" : 10
                },
                {
                    "input" : 8,
                    "interpolation" : "LINEAR",
                    "output" : 11
                },
                {
                    "input" : 8,
                    "interpolation" : "LINEAR",
                    "output" : 12
                },
                {
                    "input" : 8,
                    "interpolation" : "LINEAR",
                    "output" : 13
                },
                {
                    "input" : 8,
                    "interpolation" : "LINEAR",
                    "output" : 14
                },
                {
                    "input" : 8,
                    "interpolation" : "LINEAR",
                    "output" : 15
                },
                {
                    "input" : 8,
                    "interpolation" : "LINEAR",
                    "output" : 16
                },
                {
                    "input" : 8,
                    "interpolation" : "LINEAR",
                    "output" : 17
                },
                {
                    "input" : 8,
                    "interpolation" : "LINEAR",
                    "output" : 18
                },
                {
                    "input" : 8,
                    "interpolation" : "LINEAR",
                    "output" : 19
                },
                {
                    "input" : 8,
                    "interpolation" : "LINEAR",
                    "output" : 20
                },
                {
                    "input" : 8,
                    "interpolation" : "LINEAR",
                    "output" : 21
                },
                {
                    "input" : 8,
                    "interpolation" : "LINEAR",
                    "output" : 22
                },
                {
                    "input" : 8,
                    "interpolation" : "LINEAR",
                    "output" : 23
                }
            ]
        }
    ],
    "materials" : [
        {
            "extensions" : {
                "KHR_materials_specular" : {
                    "specularColorFactor" : [
                        0,
                        0,
                        0
                    ]
                },
                "KHR_materials_ior" : {
                    "ior" : 1.4500000476837158
                }
            },
            "name" : "Item Box Wing",
            "pbrMetallicRoughness" : {
                "baseColorTexture" : {
                    "index" : 0
                },
                "metallicFactor" : 0
            }
        }
    ],
    "meshes" : [
        {
            "name" : "ItemBoxWingsMesh",
            "primitives" : [
                {
                    "attributes" : {
                        "POSITION" : 0,
                        "NORMAL" : 1,
                        "TEXCOORD_0" : 2,
                        "COLOR_0" : 3,
                        "JOINTS_0" : 4,
                        "WEIGHTS_0" : 5
                    },
                    "indices" : 6,
                    "material" : 0
                }
            ]
        }
    ],
    "textures" : [
        {
            "sampler" : 0,
            "source" : 0
        }
    ],
    "images" : [
        {
            "bufferView" : 7,
            "mimeType" : "image/png",
            "name" : "item box wing"
        }
    ],
    "skins" : [
        {
            "inverseBindMatrices" : 7,
            "joints" : [
                4,
                1,
                0,
                3,
                2
            ],
            "name" : "ItemBoxWingsRoot"
        }
    ],
    "accessors" : [
        {
            "bufferView" : 0,
            "componentType" : 5126,
            "count" : 76,
            "max" : [
                2.3708865642547607,
                1.555394172668457,
                0.06752267479896545
            ],
            "min" : [
                -2.3708856105804443,
                0.7419900298118591,
                -0.06751769036054611
            ],
            "type" : "VEC3"
        },
        {
            "bufferView" : 1,
            "componentType" : 5126,
            "count" : 76,
            "type" : "VEC3"
        },
        {
            "bufferView" : 2,
            "componentType" : 5126,
            "count" : 76,
            "type" : "VEC2"
        },
        {
            "bufferView" : 3,
            "componentType" : 5123,
            "count" : 76,
            "normalized" : true,
            "type" : "VEC4"
        },
        {
            "bufferView" : 4,
            "componentType" : 5121,
            "count" : 76,
            "type" : "VEC4"
        },
        {
            "bufferView" : 5,
            "componentType" : 5126,
            "count" : 76,
            "type" : "VEC4"
        },
        {
            "bufferView" : 6,
            "componentType" : 5123,
            "count" : 378,
            "type" : "SCALAR"
        },
        {
            "bufferView" : 8,
            "componentType" : 5126,
            "count" : 5,
            "type" : "MAT4"
        },
        {
            "bufferView" : 9,
            "componentType" : 5126,
            "count" : 25,
            "max" : [
                1
            ],
            "min" : [
                0
            ],
            "type" : "SCALAR"
        },
        {
            "bufferView" : 10,
            "componentType" : 5126,
            "count" : 25,
            "type" : "VEC3"
        },
        {
            "bufferView" : 11,
            "componentType" : 5126,
            "count" : 25,
            "type" : "VEC4"
        },
        {
            "bufferView" : 12,
            "componentType" : 5126,
            "count" : 25,
            "type" : "VEC3"
        },
        {
            "bufferView" : 13,
            "componentType" : 5126,
            "count" : 25,
            "type" : "VEC3"
        },
        {
            "bufferView" : 14,
            "componentType" : 5126,
            "count" : 25,
            "type" : "VEC4"
        },
        {
            "bufferView" : 15,
            "componentType" : 5126,
            "count" : 25,
            "type" : "VEC3"
        },
        {
            "bufferView" : 16,
            "componentType" : 5126,
            "count" : 25,
            "type" : "VEC3"
        },
        {
            "bufferView" : 17,
            "componentType" : 5126,
            "count" : 25,
            "type" : "VEC4"
        },
        {
            "bufferView" : 18,
            "componentType" : 5126,
            "count" : 25,
            "type" : "VEC3"
        },
        {
            "bufferView" : 19,
            "componentType" : 5126,
            "count" : 25,
            "type" : "VEC3"
        },
        {
            "bufferView" : 20,
            "componentType" : 5126,
            "count" : 25,
            "type" : "VEC4"
        },
        {
            "bufferView" : 21,
            "componentType" : 5126,
            "count" : 25,
            "type" : "VEC3"
        },
        {
            "bufferView" : 22,
            "componentType" : 5126,
            "count" : 25,
            "type" : "VEC3"
        },
        {
            "bufferView" : 23,
            "componentType" : 5126,
            "count" : 25,
            "type" : "VEC4"
        },
        {
            "bufferView" : 24,
            "componentType" : 5126,
            "count" : 25,
            "type" : "VEC3"
        }
    ],
    "bufferViews" : [
        {
            "buffer" : 0,
            "byteLength" : 912,
            "byteOffset" : 0,
            "target" : 34962
        },
        {
            "buffer" : 0,
            "byteLength" : 912,
            "byteOffset" : 912,
            "target" : 34962
        },
        {
            "buffer" : 0,
            "byteLength" : 608,
            "byteOffset" : 1824,
            "target" : 34962
        },
        {
            "buffer" : 0,
            "byteLength" : 608,
            "byteOffset" : 2432,
            "target" : 34962
        },
        {
            "buffer" : 0,
            "byteLength" : 304,
            "byteOffset" : 3040,
            "target" : 34962
        },
        {
            "buffer" : 0,
            "byteLength" : 1216,
            "byteOffset" : 3344,
            "target" : 34962
        },
        {
            "buffer" : 0,
            "byteLength" : 756,
            "byteOffset" : 4560,
            "target" : 34963
        },
        {
            "buffer" : 0,
            "byteLength" : 12557,
            "byteOffset" : 5316
        },
        {
            "buffer" : 0,
            "byteLength" : 320,
            "byteOffset" : 17876
        },
        {
            "buffer" : 0,
            "byteLength" : 100,
            "byteOffset" : 18196
        },
        {
            "buffer" : 0,
            "byteLength" : 300,
            "byteOffset" : 18296
        },
        {
            "buffer" : 0,
            "byteLength" : 400,
            "byteOffset" : 18596
        },
        {
            "buffer" : 0,
            "byteLength" : 300,
            "byteOffset" : 18996
        },
        {
            "buffer" : 0,
            "byteLength" : 300,
            "byteOffset" : 19296
        },
        {
            "buffer" : 0,
            "byteLength" : 400,
            "byteOffset" : 19596
        },
        {
            "buffer" : 0,
            "byteLength" : 300,
            "byteOffset" : 19996
        },
        {
            "buffer" : 0,
            "byteLength" : 300,
            "byteOffset" : 20296
        },
        {
            "buffer" : 0,
            "byteLength" : 400,
            "byteOffset" : 20596
        },
        {
            "buffer" : 0,
            "byteLength" : 300,
            "byteOffset" : 20996
        },
        {
            "buffer" : 0,
            "byteLength" : 300,
            "byteOffset" : 21296
        },
        {
            "buffer" : 0,
            "byteLength" : 400,
            "byteOffset" : 21596
        },
        {
            "buffer" : 0,
            "byteLength" : 300,
            "byteOffset" : 21996
        },
        {
            "buffer" : 0,
            "byteLength" : 300,
            "byteOffset" : 22296
        },
        {
            "buffer" : 0,
            "byteLength" : 400,
            "byteOffset" : 22596
        },
        {
            "buffer" : 0,
            "byteLength" : 300,
            "byteOffset" : 22996
        }
    ],
    "samplers" : [
        {
            "magFilter" : 9729,
            "minFilter" : 9987
        }
    ],
    "buffers" : [
        {
            "byteLength" : 23296,
            "uri" : "data:application/octet-stream;base64,"
        }
    ]
}
