{
    "asset" : {
        "generator" : "Khronos glTF Blender I/O v3.3.27",
        "version" : "2.0"
    },
    "extensionsUsed" : [
        "KHR_materials_specular",
        "KHR_materials_ior"
    ],
    "scene" : 0,
    "scenes" : [
        {
            "name" : "Scene",
            "nodes" : [
                5
            ]
        }
    ],
    "nodes" : [
        {
            "name" : "lid",
            "rotation" : [
                0,
                0,
                -1,
                0
            ],
            "translation" : [
                0,
                0.4999973177909851,
                0.750001847743988
            ]
        },
        {
            "name" : "lock",
            "rotation" : [
                0.7071068286895752,
                -1.0048592410634785e-14,
                -1.8831380543815612e-07,
                0.7071068286895752
            ],
            "translation" : [
                3.552713678800501e-15,
                -0.540149450302124,
                0.5607051253318787
            ]
        },
        {
            "children" : [
                0,
                1
            ],
            "name" : "root",
            "rotation" : [
                -0.7071068286895752,
                0,
                0,
                0.7071068286895752
            ]
        },
        {
            "mesh" : 0,
            "name" : "ItemBoxGlowMesh",
            "skin" : 0
        },
        {
            "mesh" : 1,
            "name" : "ItemBoxMesh",
            "skin" : 0
        },
        {
            "children" : [
                3,
                4,
                2
            ],
            "name" : "ItemBoxRoot"
        }
    ],
    "animations" : [
        {
            "channels" : [
                {
                    "sampler" : 0,
                    "target" : {
                        "node" : 2,
                        "path" : "translation"
                    }
                },
                {
                    "sampler" : 1,
                    "target" : {
                        "node" : 2,
                        "path" : "rotation"
                    }
                },
                {
                    "sampler" : 2,
                    "target" : {
                        "node" : 2,
                        "path" : "scale"
                    }
                },
                {
                    "sampler" : 3,
                    "target" : {
                        "node" : 0,
                        "path" : "translation"
                    }
                },
                {
                    "sampler" : 4,
                    "target" : {
                        "node" : 0,
                        "path" : "rotation"
                    }
                },
                {
                    "sampler" : 5,
                    "target" : {
                        "node" : 0,
                        "path" : "scale"
                    }
                },
                {
                    "sampler" : 6,
                    "target" : {
                        "node" : 1,
                        "path" : "translation"
                    }
                },
                {
                    "sampler" : 7,
                    "target" : {
                        "node" : 1,
                        "path" : "rotation"
                    }
                },
                {
                    "sampler" : 8,
                    "target" : {
                        "node" : 1,
                        "path" : "scale"
                    }
                }
            ],
            "name" : "item-open",
            "samplers" : [
                {
                    "input" : 14,
                    "interpolation" : "LINEAR",
                    "output" : 15
                },
                {
                    "input" : 14,
                    "interpolation" : "LINEAR",
                    "output" : 16
                },
                {
                    "input" : 14,
                    "interpolation" : "LINEAR",
                    "output" : 17
                },
                {
                    "input" : 14,
                    "interpolation" : "LINEAR",
                    "output" : 18
                },
                {
                    "input" : 14,
                    "interpolation" : "LINEAR",
                    "output" : 19
                },
                {
                    "input" : 14,
                    "interpolation" : "LINEAR",
                    "output" : 20
                },
                {
                    "input" : 14,
                    "interpolation" : "LINEAR",
                    "output" : 21
                },
                {
                    "input" : 14,
                    "interpolation" : "LINEAR",
                    "output" : 22
                },
                {
                    "input" : 14,
                    "interpolation" : "LINEAR",
                    "output" : 23
                }
            ]
        },
        {
            "channels" : [
                {
                    "sampler" : 0,
                    "target" : {
                        "node" : 2,
                        "path" : "translation"
                    }
                },
                {
                    "sampler" : 1,
                    "target" : {
                        "node" : 2,
                        "path" : "rotation"
                    }
                },
                {
                    "sampler" : 2,
                    "target" : {
                        "node" : 2,
                        "path" : "scale"
                    }
                },
                {
                    "sampler" : 3,
                    "target" : {
                        "node" : 0,
                        "path" : "translation"
                    }
                },
                {
                    "sampler" : 4,
                    "target" : {
                        "node" : 0,
                        "path" : "rotation"
                    }
                },
                {
                    "sampler" : 5,
                    "target" : {
                        "node" : 0,
                        "path" : "scale"
                    }
                },
                {
                    "sampler" : 6,
                    "target" : {
                        "node" : 1,
                        "path" : "translation"
                    }
                },
                {
                    "sampler" : 7,
                    "target" : {
                        "node" : 1,
                        "path" : "rotation"
                    }
                },
                {
                    "sampler" : 8,
                    "target" : {
                        "node" : 1,
                        "path" : "scale"
                    }
                }
            ],
            "name" : "RESET",
            "samplers" : [
                {
                    "input" : 24,
                    "interpolation" : "LINEAR",
                    "output" : 25
                },
                {
                    "input" : 24,
                    "interpolation" : "LINEAR",
                    "output" : 26
                },
                {
                    "input" : 24,
                    "interpolation" : "LINEAR",
                    "output" : 27
                },
                {
                    "input" : 24,
                    "interpolation" : "LINEAR",
                    "output" : 28
                },
                {
                    "input" : 24,
                    "interpolation" : "LINEAR",
                    "output" : 29
                },
                {
                    "input" : 24,
                    "interpolation" : "LINEAR",
                    "output" : 30
                },
                {
                    "input" : 24,
                    "interpolation" : "LINEAR",
                    "output" : 31
                },
                {
                    "input" : 24,
                    "interpolation" : "LINEAR",
                    "output" : 32
                },
                {
                    "input" : 24,
                    "interpolation" : "LINEAR",
                    "output" : 33
                }
            ]
        }
    ],
    "materials" : [
        {
            "alphaMode" : "BLEND",
            "name" : "Item Box Glow",
            "pbrMetallicRoughness" : {
                "baseColorFactor" : [
                    0.800000011920929,
                    0.800000011920929,
                    0.800000011920929,
                    1
                ],
                "metallicFactor" : 0,
                "roughnessFactor" : 0.5
            }
        },
        {
            "extensions" : {
                "KHR_materials_specular" : {
                    "specularColorFactor" : [
                        0,
                        0,
                        0
                    ]
                },
                "KHR_materials_ior" : {
                    "ior" : 1.4500000476837158
                }
            },
            "name" : "Item Box",
            "pbrMetallicRoughness" : {
                "baseColorFactor" : [
                    0.800000011920929,
                    0.800000011920929,
                    0.800000011920929,
                    1
                ],
                "metallicFactor" : 0,
                "roughnessFactor" : 0.8999999761581421
            }
        }
    ],
    "meshes" : [
        {
            "name" : "ItemBoxGlowMesh",
            "primitives" : [
                {
                    "attributes" : {
                        "POSITION" : 0,
                        "NORMAL" : 1,
                        "COLOR_0" : 2,
                        "JOINTS_0" : 3,
                        "WEIGHTS_0" : 4
                    },
                    "indices" : 5,
                    "material" : 0
                }
            ]
        },
        {
            "name" : "ItemBoxMesh",
            "primitives" : [
                {
                    "attributes" : {
                        "POSITION" : 7,
                        "NORMAL" : 8,
                        "TEXCOORD_0" : 9,
                        "COLOR_0" : 10,
                        "JOINTS_0" : 11,
                        "WEIGHTS_0" : 12
                    },
                    "indices" : 13,
                    "material" : 1
                }
            ]
        }
    ],
    "skins" : [
        {
            "inverseBindMatrices" : 6,
            "joints" : [
                2,
                0,
                1
            ],
            "name" : "ItemBoxRoot"
        }
    ],
    "accessors" : [
        {
            "bufferView" : 0,
            "componentType" : 5126,
            "count" : 124,
            "max" : [
                0.7636521458625793,
                1.306393027305603,
                0.518335223197937
            ],
            "min" : [
                -0.7636521458625793,
                -0.012437061406672001,
                -0.5119997262954712
            ],
            "type" : "VEC3"
        },
        {
            "bufferView" : 1,
            "componentType" : 5126,
            "count" : 124,
            "type" : "VEC3"
        },
        {
            "bufferView" : 2,
            "componentType" : 5123,
            "count" : 124,
            "normalized" : true,
            "type" : "VEC4"
        },
        {
            "bufferView" : 3,
            "componentType" : 5121,
            "count" : 124,
            "type" : "VEC4"
        },
        {
            "bufferView" : 4,
            "componentType" : 5126,
            "count" : 124,
            "type" : "VEC4"
        },
        {
            "bufferView" : 5,
            "componentType" : 5123,
            "count" : 720,
            "type" : "SCALAR"
        },
        {
            "bufferView" : 6,
            "componentType" : 5126,
            "count" : 3,
            "type" : "MAT4"
        },
        {
            "bufferView" : 7,
            "componentType" : 5126,
            "count" : 665,
            "max" : [
                0.7500001788139343,
                1.2927430868148804,
                0.5802943706512451
            ],
            "min" : [
                -0.7500001788139343,
                -1.8477439880371094e-06,
                -0.4999975264072418
            ],
            "type" : "VEC3"
        },
        {
            "bufferView" : 8,
            "componentType" : 5126,
            "count" : 665,
            "type" : "VEC3"
        },
        {
            "bufferView" : 9,
            "componentType" : 5126,
            "count" : 665,
            "type" : "VEC2"
        },
        {
            "bufferView" : 10,
            "componentType" : 5123,
            "count" : 665,
            "normalized" : true,
            "type" : "VEC4"
        },
        {
            "bufferView" : 11,
            "componentType" : 5121,
            "count" : 665,
            "type" : "VEC4"
        },
        {
            "bufferView" : 12,
            "componentType" : 5126,
            "count" : 665,
            "type" : "VEC4"
        },
        {
            "bufferView" : 13,
            "componentType" : 5123,
            "count" : 1452,
            "type" : "SCALAR"
        },
        {
            "bufferView" : 14,
            "componentType" : 5126,
            "count" : 13,
            "max" : [
                0.5
            ],
            "min" : [
                0
            ],
            "type" : "SCALAR"
        },
        {
            "bufferView" : 15,
            "componentType" : 5126,
            "count" : 13,
            "type" : "VEC3"
        },
        {
            "bufferView" : 16,
            "componentType" : 5126,
            "count" : 13,
            "type" : "VEC4"
        },
        {
            "bufferView" : 17,
            "componentType" : 5126,
            "count" : 13,
            "type" : "VEC3"
        },
        {
            "bufferView" : 18,
            "componentType" : 5126,
            "count" : 13,
            "type" : "VEC3"
        },
        {
            "bufferView" : 19,
            "componentType" : 5126,
            "count" : 13,
            "type" : "VEC4"
        },
        {
            "bufferView" : 20,
            "componentType" : 5126,
            "count" : 13,
            "type" : "VEC3"
        },
        {
            "bufferView" : 21,
            "componentType" : 5126,
            "count" : 13,
            "type" : "VEC3"
        },
        {
            "bufferView" : 22,
            "componentType" : 5126,
            "count" : 13,
            "type" : "VEC4"
        },
        {
            "bufferView" : 23,
            "componentType" : 5126,
            "count" : 13,
            "type" : "VEC3"
        },
        {
            "bufferView" : 24,
            "componentType" : 5126,
            "count" : 1,
            "max" : [
                0
            ],
            "min" : [
                0
            ],
            "type" : "SCALAR"
        },
        {
            "bufferView" : 25,
            "componentType" : 5126,
            "count" : 1,
            "type" : "VEC3"
        },
        {
            "bufferView" : 26,
            "componentType" : 5126,
            "count" : 1,
            "type" : "VEC4"
        },
        {
            "bufferView" : 27,
            "componentType" : 5126,
            "count" : 1,
            "type" : "VEC3"
        },
        {
            "bufferView" : 28,
            "componentType" : 5126,
            "count" : 1,
            "type" : "VEC3"
        },
        {
            "bufferView" : 29,
            "componentType" : 5126,
            "count" : 1,
            "type" : "VEC4"
        },
        {
            "bufferView" : 30,
            "componentType" : 5126,
            "count" : 1,
            "type" : "VEC3"
        },
        {
            "bufferView" : 31,
            "componentType" : 5126,
            "count" : 1,
            "type" : "VEC3"
        },
        {
            "bufferView" : 32,
            "componentType" : 5126,
            "count" : 1,
            "type" : "VEC4"
        },
        {
            "bufferView" : 33,
            "componentType" : 5126,
            "count" : 1,
            "type" : "VEC3"
        }
    ],
    "bufferViews" : [
        {
            "buffer" : 0,
            "byteLength" : 1488,
            "byteOffset" : 0,
            "target" : 34962
        },
        {
            "buffer" : 0,
            "byteLength" : 1488,
            "byteOffset" : 1488,
            "target" : 34962
        },
        {
            "buffer" : 0,
            "byteLength" : 992,
            "byteOffset" : 2976,
            "target" : 34962
        },
        {
            "buffer" : 0,
            "byteLength" : 496,
            "byteOffset" : 3968,
            "target" : 34962
        },
        {
            "buffer" : 0,
            "byteLength" : 1984,
            "byteOffset" : 4464,
            "target" : 34962
        },
        {
            "buffer" : 0,
            "byteLength" : 1440,
            "byteOffset" : 6448,
            "target" : 34963
        },
        {
            "buffer" : 0,
            "byteLength" : 192,
            "byteOffset" : 7888
        },
        {
            "buffer" : 0,
            "byteLength" : 7980,
            "byteOffset" : 8080,
            "target" : 34962
        },
        {
            "buffer" : 0,
            "byteLength" : 7980,
            "byteOffset" : 16060,
            "target" : 34962
        },
        {
            "buffer" : 0,
            "byteLength" : 5320,
            "byteOffset" : 24040,
            "target" : 34962
        },
        {
            "buffer" : 0,
            "byteLength" : 5320,
            "byteOffset" : 29360,
            "target" : 34962
        },
        {
            "buffer" : 0,
            "byteLength" : 2660,
            "byteOffset" : 34680,
            "target" : 34962
        },
        {
            "buffer" : 0,
            "byteLength" : 10640,
            "byteOffset" : 37340,
            "target" : 34962
        },
        {
            "buffer" : 0,
            "byteLength" : 2904,
            "byteOffset" : 47980,
            "target" : 34963
        },
        {
            "buffer" : 0,
            "byteLength" : 52,
            "byteOffset" : 50884
        },
        {
            "buffer" : 0,
            "byteLength" : 156,
            "byteOffset" : 50936
        },
        {
            "buffer" : 0,
            "byteLength" : 208,
            "byteOffset" : 51092
        },
        {
            "buffer" : 0,
            "byteLength" : 156,
            "byteOffset" : 51300
        },
        {
            "buffer" : 0,
            "byteLength" : 156,
            "byteOffset" : 51456
        },
        {
            "buffer" : 0,
            "byteLength" : 208,
            "byteOffset" : 51612
        },
        {
            "buffer" : 0,
            "byteLength" : 156,
            "byteOffset" : 51820
        },
        {
            "buffer" : 0,
            "byteLength" : 156,
            "byteOffset" : 51976
        },
        {
            "buffer" : 0,
            "byteLength" : 208,
            "byteOffset" : 52132
        },
        {
            "buffer" : 0,
            "byteLength" : 156,
            "byteOffset" : 52340
        },
        {
            "buffer" : 0,
            "byteLength" : 4,
            "byteOffset" : 52496
        },
        {
            "buffer" : 0,
            "byteLength" : 12,
            "byteOffset" : 52500
        },
        {
            "buffer" : 0,
            "byteLength" : 16,
            "byteOffset" : 52512
        },
        {
            "buffer" : 0,
            "byteLength" : 12,
            "byteOffset" : 52528
        },
        {
            "buffer" : 0,
            "byteLength" : 12,
            "byteOffset" : 52540
        },
        {
            "buffer" : 0,
            "byteLength" : 16,
            "byteOffset" : 52552
        },
        {
            "buffer" : 0,
            "byteLength" : 12,
            "byteOffset" : 52568
        },
        {
            "buffer" : 0,
            "byteLength" : 12,
            "byteOffset" : 52580
        },
        {
            "buffer" : 0,
            "byteLength" : 16,
            "byteOffset" : 52592
        },
        {
            "buffer" : 0,
            "byteLength" : 12,
            "byteOffset" : 52608
        }
    ],
    "buffers" : [
        {
            "byteLength" : 52620,
            "uri" : "data:application/octet-stream;base64,"
        }
    ]
}
