{
    "asset" : {
        "generator" : "Khronos glTF Blender I/O v3.3.36",
        "version" : "2.0"
    },
    "scene" : 0,
    "scenes" : [
        {
            "name" : "Scene",
            "nodes" : [
                0,
                1,
                2,
                3,
                4,
                5
            ]
        }
    ],
    "nodes" : [
        {
            "mesh" : 0,
            "name" : "Ceiling"
        },
        {
            "mesh" : 1,
            "name" : "FloorPavement"
        },
        {
            "mesh" : 2,
            "name" : "FloorSand"
        },
        {
            "mesh" : 3,
            "name" : "IslandOneWay"
        },
        {
            "mesh" : 4,
            "name" : "UTurnOneWay"
        },
        {
            "mesh" : 5,
            "name" : "Wall"
        }
    ],
    "meshes" : [
        {
            "name" : "Ceiling",
            "primitives" : [
                {
                    "attributes" : {
                        "POSITION" : 0,
                        "NORMAL" : 1
                    },
                    "indices" : 2
                }
            ]
        },
        {
            "name" : "FloorPavement",
            "primitives" : [
                {
                    "attributes" : {
                        "POSITION" : 3,
                        "NORMAL" : 4,
                        "TEXCOORD_0" : 5
                    },
                    "indices" : 6
                }
            ]
        },
        {
            "name" : "FloorSand",
            "primitives" : [
                {
                    "attributes" : {
                        "POSITION" : 7,
                        "NORMAL" : 8
                    },
                    "indices" : 9
                }
            ]
        },
        {
            "name" : "IslandOneWay",
            "primitives" : [
                {
                    "attributes" : {
                        "POSITION" : 10,
                        "NORMAL" : 11
                    },
                    "indices" : 12
                }
            ]
        },
        {
            "name" : "UTurnOneWay",
            "primitives" : [
                {
                    "attributes" : {
                        "POSITION" : 13,
                        "NORMAL" : 14
                    },
                    "indices" : 15
                }
            ]
        },
        {
            "name" : "Wall",
            "primitives" : [
                {
                    "attributes" : {
                        "POSITION" : 16,
                        "NORMAL" : 17
                    },
                    "indices" : 18
                }
            ]
        }
    ],
    "accessors" : [
        {
            "bufferView" : 0,
            "componentType" : 5126,
            "count" : 868,
            "max" : [
                67.19783020019531,
                119.99391174316406,
                -60.100494384765625
            ],
            "min" : [
                -386.7657470703125,
                -55.018531799316406,
                -437.4307556152344
            ],
            "type" : "VEC3"
        },
        {
            "bufferView" : 1,
            "componentType" : 5126,
            "count" : 868,
            "type" : "VEC3"
        },
        {
            "bufferView" : 2,
            "componentType" : 5123,
            "count" : 1296,
            "type" : "SCALAR"
        },
        {
            "bufferView" : 3,
            "componentType" : 5126,
            "count" : 251,
            "max" : [
                92.30782318115234,
                110.00244140625,
                32.19236755371094
            ],
            "min" : [
                -318.9797058105469,
                -65.0184097290039,
                -448.87335205078125
            ],
            "type" : "VEC3"
        },
        {
            "bufferView" : 4,
            "componentType" : 5126,
            "count" : 251,
            "type" : "VEC3"
        },
        {
            "bufferView" : 5,
            "componentType" : 5126,
            "count" : 251,
            "type" : "VEC2"
        },
        {
            "bufferView" : 6,
            "componentType" : 5123,
            "count" : 357,
            "type" : "SCALAR"
        },
        {
            "bufferView" : 7,
            "componentType" : 5126,
            "count" : 1585,
            "max" : [
                80.66537475585938,
                -37.53946304321289,
                -53.82818603515625
            ],
            "min" : [
                -400.6011047363281,
                -64.85760498046875,
                -448.87335205078125
            ],
            "type" : "VEC3"
        },
        {
            "bufferView" : 8,
            "componentType" : 5126,
            "count" : 1585,
            "type" : "VEC3"
        },
        {
            "bufferView" : 9,
            "componentType" : 5123,
            "count" : 2841,
            "type" : "SCALAR"
        },
        {
            "bufferView" : 10,
            "componentType" : 5126,
            "count" : 4,
            "max" : [
                62.13890075683594,
                -28.066648483276367,
                -352.320556640625
            ],
            "min" : [
                58.13633728027344,
                -56.80434799194336,
                -357.68115234375
            ],
            "type" : "VEC3"
        },
        {
            "bufferView" : 11,
            "componentType" : 5126,
            "count" : 4,
            "type" : "VEC3"
        },
        {
            "bufferView" : 12,
            "componentType" : 5123,
            "count" : 6,
            "type" : "SCALAR"
        },
        {
            "bufferView" : 13,
            "componentType" : 5126,
            "count" : 4,
            "max" : [
                -84.599365234375,
                -19.781394958496094,
                -299.4717102050781
            ],
            "min" : [
                -90.32301330566406,
                -39.781402587890625,
                -300.4368591308594
            ],
            "type" : "VEC3"
        },
        {
            "bufferView" : 14,
            "componentType" : 5126,
            "count" : 4,
            "type" : "VEC3"
        },
        {
            "bufferView" : 15,
            "componentType" : 5123,
            "count" : 6,
            "type" : "SCALAR"
        },
        {
            "bufferView" : 16,
            "componentType" : 5126,
            "count" : 3828,
            "max" : [
                121.92916870117188,
                119.59088897705078,
                5.15582275390625
            ],
            "min" : [
                -400.6011047363281,
                -99.99932861328125,
                -454.72857666015625
            ],
            "type" : "VEC3"
        },
        {
            "bufferView" : 17,
            "componentType" : 5126,
            "count" : 3828,
            "type" : "VEC3"
        },
        {
            "bufferView" : 18,
            "componentType" : 5123,
            "count" : 5646,
            "type" : "SCALAR"
        }
    ],
    "bufferViews" : [
        {
            "buffer" : 0,
            "byteLength" : 10416,
            "byteOffset" : 0,
            "target" : 34962
        },
        {
            "buffer" : 0,
            "byteLength" : 10416,
            "byteOffset" : 10416,
            "target" : 34962
        },
        {
            "buffer" : 0,
            "byteLength" : 2592,
            "byteOffset" : 20832,
            "target" : 34963
        },
        {
            "buffer" : 0,
            "byteLength" : 3012,
            "byteOffset" : 23424,
            "target" : 34962
        },
        {
            "buffer" : 0,
            "byteLength" : 3012,
            "byteOffset" : 26436,
            "target" : 34962
        },
        {
            "buffer" : 0,
            "byteLength" : 2008,
            "byteOffset" : 29448,
            "target" : 34962
        },
        {
            "buffer" : 0,
            "byteLength" : 714,
            "byteOffset" : 31456,
            "target" : 34963
        },
        {
            "buffer" : 0,
            "byteLength" : 19020,
            "byteOffset" : 32172,
            "target" : 34962
        },
        {
            "buffer" : 0,
            "byteLength" : 19020,
            "byteOffset" : 51192,
            "target" : 34962
        },
        {
            "buffer" : 0,
            "byteLength" : 5682,
            "byteOffset" : 70212,
            "target" : 34963
        },
        {
            "buffer" : 0,
            "byteLength" : 48,
            "byteOffset" : 75896,
            "target" : 34962
        },
        {
            "buffer" : 0,
            "byteLength" : 48,
            "byteOffset" : 75944,
            "target" : 34962
        },
        {
            "buffer" : 0,
            "byteLength" : 12,
            "byteOffset" : 75992,
            "target" : 34963
        },
        {
            "buffer" : 0,
            "byteLength" : 48,
            "byteOffset" : 76004,
            "target" : 34962
        },
        {
            "buffer" : 0,
            "byteLength" : 48,
            "byteOffset" : 76052,
            "target" : 34962
        },
        {
            "buffer" : 0,
            "byteLength" : 12,
            "byteOffset" : 76100,
            "target" : 34963
        },
        {
            "buffer" : 0,
            "byteLength" : 45936,
            "byteOffset" : 76112,
            "target" : 34962
        },
        {
            "buffer" : 0,
            "byteLength" : 45936,
            "byteOffset" : 122048,
            "target" : 34962
        },
        {
            "buffer" : 0,
            "byteLength" : 11292,
            "byteOffset" : 167984,
            "target" : 34963
        }
    ],
    "buffers" : [
        {
            "byteLength" : 179276,
            "uri" : "data:application/octet-stream;base64,"
        }
    ]
}
