{
    "asset" : {
        "generator" : "Khronos glTF Blender I/O v3.3.36",
        "version" : "2.0"
    },
    "scene" : 0,
    "scenes" : [
        {
            "name" : "Scene",
            "nodes" : [
                0,
                1,
                2,
                3,
                4,
                5
            ]
        }
    ],
    "nodes" : [
        {
            "mesh" : 0,
            "name" : "Ceiling"
        },
        {
            "mesh" : 1,
            "name" : "FloorPavement"
        },
        {
            "mesh" : 2,
            "name" : "FloorSand"
        },
        {
            "mesh" : 3,
            "name" : "IslandOneWay"
        },
        {
            "mesh" : 4,
            "name" : "UTurnOneWay"
        },
        {
            "mesh" : 5,
            "name" : "Wall"
        }
    ],
    "meshes" : [
        {
            "name" : "Ceiling",
            "primitives" : [
                {
                    "attributes" : {
                        "POSITION" : 0,
                        "NORMAL" : 1
                    },
                    "indices" : 2
                }
            ]
        },
        {
            "name" : "FloorPavement",
            "primitives" : [
                {
                    "attributes" : {
                        "POSITION" : 3,
                        "NORMAL" : 4,
                        "TEXCOORD_0" : 5
                    },
                    "indices" : 6
                }
            ]
        },
        {
            "name" : "FloorSand",
            "primitives" : [
                {
                    "attributes" : {
                        "POSITION" : 7,
                        "NORMAL" : 8
                    },
                    "indices" : 9
                }
            ]
        },
        {
            "name" : "IslandOneWay",
            "primitives" : [
                {
                    "attributes" : {
                        "POSITION" : 10,
                        "NORMAL" : 11
                    },
                    "indices" : 12
                }
            ]
        },
        {
            "name" : "UTurnOneWay",
            "primitives" : [
                {
                    "attributes" : {
                        "POSITION" : 13,
                        "NORMAL" : 14
                    },
                    "indices" : 15
                }
            ]
        },
        {
            "name" : "Wall",
            "primitives" : [
                {
                    "attributes" : {
                        "POSITION" : 16,
                        "NORMAL" : 17
                    },
                    "indices" : 18
                }
            ]
        }
    ],
    "accessors" : [
        {
            "bufferView" : 0,
            "componentType" : 5126,
            "count" : 868,
            "max" : [
                67.19783020019531,
                119.99391174316406,
                -60.100494384765625
            ],
            "min" : [
                -386.7657470703125,
                -55.018531799316406,
                -437.4307556152344
            ],
            "type" : "VEC3"
        },
        {
            "bufferView" : 1,
            "componentType" : 5126,
            "count" : 868,
            "type" : "VEC3"
        },
        {
            "bufferView" : 2,
            "componentType" : 5123,
            "count" : 1296,
            "type" : "SCALAR"
        },
        {
            "bufferView" : 3,
            "componentType" : 5126,
            "count" : 145,
            "max" : [
                92.30782318115234,
                110.00244140625,
                32.19236755371094
            ],
            "min" : [
                -318.9797058105469,
                -65.0184097290039,
                -448.87335205078125
            ],
            "type" : "VEC3"
        },
        {
            "bufferView" : 4,
            "componentType" : 5126,
            "count" : 145,
            "type" : "VEC3"
        },
        {
            "bufferView" : 5,
            "componentType" : 5126,
            "count" : 145,
            "type" : "VEC2"
        },
        {
            "bufferView" : 6,
            "componentType" : 5123,
            "count" : 369,
            "type" : "SCALAR"
        },
        {
            "bufferView" : 7,
            "componentType" : 5126,
            "count" : 1058,
            "max" : [
                80.66537475585938,
                -37.53946304321289,
                -53.54578399658203
            ],
            "min" : [
                -400.6011047363281,
                -64.85760498046875,
                -448.87335205078125
            ],
            "type" : "VEC3"
        },
        {
            "bufferView" : 8,
            "componentType" : 5126,
            "count" : 1058,
            "type" : "VEC3"
        },
        {
            "bufferView" : 9,
            "componentType" : 5123,
            "count" : 2823,
            "type" : "SCALAR"
        },
        {
            "bufferView" : 10,
            "componentType" : 5126,
            "count" : 52,
            "max" : [
                119.77967071533203,
                -23.992828369140625,
                -190.00119018554688
            ],
            "min" : [
                58.54954528808594,
                -65.78956604003906,
                -437.8725891113281
            ],
            "type" : "VEC3"
        },
        {
            "bufferView" : 11,
            "componentType" : 5126,
            "count" : 52,
            "type" : "VEC3"
        },
        {
            "bufferView" : 12,
            "componentType" : 5123,
            "count" : 78,
            "type" : "SCALAR"
        },
        {
            "bufferView" : 13,
            "componentType" : 5126,
            "count" : 4,
            "max" : [
                -73.08637237548828,
                -24.999805450439453,
                -296.17620849609375
            ],
            "min" : [
                -75.56404876708984,
                -44.99992370605469,
                -296.54583740234375
            ],
            "type" : "VEC3"
        },
        {
            "bufferView" : 14,
            "componentType" : 5126,
            "count" : 4,
            "type" : "VEC3"
        },
        {
            "bufferView" : 15,
            "componentType" : 5123,
            "count" : 6,
            "type" : "SCALAR"
        },
        {
            "bufferView" : 16,
            "componentType" : 5126,
            "count" : 3756,
            "max" : [
                119.01788330078125,
                119.59088897705078,
                5.15582275390625
            ],
            "min" : [
                -400.6011047363281,
                -99.99932098388672,
                -447.50445556640625
            ],
            "type" : "VEC3"
        },
        {
            "bufferView" : 17,
            "componentType" : 5126,
            "count" : 3756,
            "type" : "VEC3"
        },
        {
            "bufferView" : 18,
            "componentType" : 5123,
            "count" : 5550,
            "type" : "SCALAR"
        }
    ],
    "bufferViews" : [
        {
            "buffer" : 0,
            "byteLength" : 10416,
            "byteOffset" : 0,
            "target" : 34962
        },
        {
            "buffer" : 0,
            "byteLength" : 10416,
            "byteOffset" : 10416,
            "target" : 34962
        },
        {
            "buffer" : 0,
            "byteLength" : 2592,
            "byteOffset" : 20832,
            "target" : 34963
        },
        {
            "buffer" : 0,
            "byteLength" : 1740,
            "byteOffset" : 23424,
            "target" : 34962
        },
        {
            "buffer" : 0,
            "byteLength" : 1740,
            "byteOffset" : 25164,
            "target" : 34962
        },
        {
            "buffer" : 0,
            "byteLength" : 1160,
            "byteOffset" : 26904,
            "target" : 34962
        },
        {
            "buffer" : 0,
            "byteLength" : 738,
            "byteOffset" : 28064,
            "target" : 34963
        },
        {
            "buffer" : 0,
            "byteLength" : 12696,
            "byteOffset" : 28804,
            "target" : 34962
        },
        {
            "buffer" : 0,
            "byteLength" : 12696,
            "byteOffset" : 41500,
            "target" : 34962
        },
        {
            "buffer" : 0,
            "byteLength" : 5646,
            "byteOffset" : 54196,
            "target" : 34963
        },
        {
            "buffer" : 0,
            "byteLength" : 624,
            "byteOffset" : 59844,
            "target" : 34962
        },
        {
            "buffer" : 0,
            "byteLength" : 624,
            "byteOffset" : 60468,
            "target" : 34962
        },
        {
            "buffer" : 0,
            "byteLength" : 156,
            "byteOffset" : 61092,
            "target" : 34963
        },
        {
            "buffer" : 0,
            "byteLength" : 48,
            "byteOffset" : 61248,
            "target" : 34962
        },
        {
            "buffer" : 0,
            "byteLength" : 48,
            "byteOffset" : 61296,
            "target" : 34962
        },
        {
            "buffer" : 0,
            "byteLength" : 12,
            "byteOffset" : 61344,
            "target" : 34963
        },
        {
            "buffer" : 0,
            "byteLength" : 45072,
            "byteOffset" : 61356,
            "target" : 34962
        },
        {
            "buffer" : 0,
            "byteLength" : 45072,
            "byteOffset" : 106428,
            "target" : 34962
        },
        {
            "buffer" : 0,
            "byteLength" : 11100,
            "byteOffset" : 151500,
            "target" : 34963
        }
    ],
    "buffers" : [
        {
            "byteLength" : 162600,
            "uri" : "data:application/octet-stream;base64,"
        }
    ]
}
