{
    "asset" : {
        "generator" : "Khronos glTF Blender I/O v3.3.27",
        "version" : "2.0"
    },
    "extensionsUsed" : [
        "KHR_materials_specular",
        "KHR_materials_ior"
    ],
    "scene" : 0,
    "scenes" : [
        {
            "name" : "Scene",
            "nodes" : [
                0
            ]
        }
    ],
    "nodes" : [
        {
            "mesh" : 0,
            "name" : "SquarePillarTallMesh"
        }
    ],
    "materials" : [
        {
            "extensions" : {
                "KHR_materials_specular" : {
                    "specularColorFactor" : [
                        0,
                        0,
                        0
                    ]
                },
                "KHR_materials_ior" : {
                    "ior" : 1.4500000476837158
                }
            },
            "name" : "Pillar 2",
            "pbrMetallicRoughness" : {
                "baseColorTexture" : {
                    "index" : 0
                },
                "metallicFactor" : 0
            }
        },
        {
            "extensions" : {
                "KHR_materials_specular" : {
                    "specularColorFactor" : [
                        0,
                        0,
                        0
                    ]
                },
                "KHR_materials_ior" : {
                    "ior" : 1.4500000476837158
                }
            },
            "name" : "Pillar 1",
            "pbrMetallicRoughness" : {
                "baseColorTexture" : {
                    "index" : 1
                },
                "metallicFactor" : 0
            }
        }
    ],
    "meshes" : [
        {
            "name" : "SquarePillarTallMesh",
            "primitives" : [
                {
                    "attributes" : {
                        "POSITION" : 0,
                        "NORMAL" : 1,
                        "TEXCOORD_0" : 2
                    },
                    "indices" : 3,
                    "material" : 0
                },
                {
                    "attributes" : {
                        "POSITION" : 4,
                        "NORMAL" : 5,
                        "TEXCOORD_0" : 6
                    },
                    "indices" : 7,
                    "material" : 1
                }
            ]
        }
    ],
    "textures" : [
        {
            "sampler" : 0,
            "source" : 0
        },
        {
            "sampler" : 0,
            "source" : 1
        }
    ],
    "images" : [
        {
            "bufferView" : 4,
            "mimeType" : "image/png",
            "name" : "pillar 2"
        },
        {
            "bufferView" : 9,
            "mimeType" : "image/png",
            "name" : "pillar 1"
        }
    ],
    "accessors" : [
        {
            "bufferView" : 0,
            "componentType" : 5126,
            "count" : 740,
            "max" : [
                0.7711304426193237,
                5.000001430511475,
                0.7711299657821655
            ],
            "min" : [
                -0.7711304426193237,
                -4.999999523162842,
                -0.7711312770843506
            ],
            "type" : "VEC3"
        },
        {
            "bufferView" : 1,
            "componentType" : 5126,
            "count" : 740,
            "type" : "VEC3"
        },
        {
            "bufferView" : 2,
            "componentType" : 5126,
            "count" : 740,
            "type" : "VEC2"
        },
        {
            "bufferView" : 3,
            "componentType" : 5123,
            "count" : 1524,
            "type" : "SCALAR"
        },
        {
            "bufferView" : 5,
            "componentType" : 5126,
            "count" : 274,
            "max" : [
                0.8704954385757446,
                4.993758678436279,
                0.8704949021339417
            ],
            "min" : [
                -0.8704954385757446,
                -3.7724645137786865,
                -0.8704959750175476
            ],
            "type" : "VEC3"
        },
        {
            "bufferView" : 6,
            "componentType" : 5126,
            "count" : 274,
            "type" : "VEC3"
        },
        {
            "bufferView" : 7,
            "componentType" : 5126,
            "count" : 274,
            "type" : "VEC2"
        },
        {
            "bufferView" : 8,
            "componentType" : 5123,
            "count" : 504,
            "type" : "SCALAR"
        }
    ],
    "bufferViews" : [
        {
            "buffer" : 0,
            "byteLength" : 8880,
            "byteOffset" : 0,
            "target" : 34962
        },
        {
            "buffer" : 0,
            "byteLength" : 8880,
            "byteOffset" : 8880,
            "target" : 34962
        },
        {
            "buffer" : 0,
            "byteLength" : 5920,
            "byteOffset" : 17760,
            "target" : 34962
        },
        {
            "buffer" : 0,
            "byteLength" : 3048,
            "byteOffset" : 23680,
            "target" : 34963
        },
        {
            "buffer" : 0,
            "byteLength" : 94933,
            "byteOffset" : 26728
        },
        {
            "buffer" : 0,
            "byteLength" : 3288,
            "byteOffset" : 121664,
            "target" : 34962
        },
        {
            "buffer" : 0,
            "byteLength" : 3288,
            "byteOffset" : 124952,
            "target" : 34962
        },
        {
            "buffer" : 0,
            "byteLength" : 2192,
            "byteOffset" : 128240,
            "target" : 34962
        },
        {
            "buffer" : 0,
            "byteLength" : 1008,
            "byteOffset" : 130432,
            "target" : 34963
        },
        {
            "buffer" : 0,
            "byteLength" : 86886,
            "byteOffset" : 131440
        }
    ],
    "samplers" : [
        {
            "magFilter" : 9729,
            "minFilter" : 9987
        }
    ],
    "buffers" : [
        {
            "byteLength" : 218328,
            "uri" : "data:application/octet-stream;base64,"
        }
    ]
}
