{
    "asset" : {
        "generator" : "Khronos glTF Blender I/O v3.3.27",
        "version" : "2.0"
    },
    "scene" : 0,
    "scenes" : [
        {
            "name" : "Scene",
            "nodes" : [
                0,
                1,
                2,
                3
            ]
        }
    ],
    "nodes" : [
        {
            "mesh" : 0,
            "name" : "Floor"
        },
        {
            "mesh" : 1,
            "name" : "WallDetail"
        },
        {
            "mesh" : 2,
            "name" : "Wall"
        },
        {
            "mesh" : 3,
            "name" : "WallCurves"
        }
    ],
    "meshes" : [
        {
            "name" : "Floor",
            "primitives" : [
                {
                    "attributes" : {
                        "POSITION" : 0,
                        "NORMAL" : 1
                    },
                    "indices" : 2
                }
            ]
        },
        {
            "name" : "WallDetail",
            "primitives" : [
                {
                    "attributes" : {
                        "POSITION" : 3,
                        "NORMAL" : 4
                    },
                    "indices" : 5
                }
            ]
        },
        {
            "name" : "Wall",
            "primitives" : [
                {
                    "attributes" : {
                        "POSITION" : 6,
                        "NORMAL" : 7,
                        "TEXCOORD_0" : 8
                    },
                    "indices" : 9
                }
            ]
        },
        {
            "name" : "Mesh",
            "primitives" : [
                {
                    "attributes" : {
                        "POSITION" : 10,
                        "NORMAL" : 11,
                        "TEXCOORD_0" : 12
                    },
                    "indices" : 13
                }
            ]
        }
    ],
    "accessors" : [
        {
            "bufferView" : 0,
            "componentType" : 5126,
            "count" : 3388,
            "max" : [
                315.2174072265625,
                13.565475463867188,
                218.77809143066406
            ],
            "min" : [
                -115.99298095703125,
                -20.114490509033203,
                -81.96273803710938
            ],
            "type" : "VEC3"
        },
        {
            "bufferView" : 1,
            "componentType" : 5126,
            "count" : 3388,
            "type" : "VEC3"
        },
        {
            "bufferView" : 2,
            "componentType" : 5123,
            "count" : 4908,
            "type" : "SCALAR"
        },
        {
            "bufferView" : 3,
            "componentType" : 5126,
            "count" : 6180,
            "max" : [
                315.2174072265625,
                37.40011978149414,
                219.1303253173828
            ],
            "min" : [
                -116.3154296875,
                -45.99921798706055,
                -82.66268920898438
            ],
            "type" : "VEC3"
        },
        {
            "bufferView" : 4,
            "componentType" : 5126,
            "count" : 6180,
            "type" : "VEC3"
        },
        {
            "bufferView" : 5,
            "componentType" : 5123,
            "count" : 12402,
            "type" : "SCALAR"
        },
        {
            "bufferView" : 6,
            "componentType" : 5126,
            "count" : 290,
            "max" : [
                312.361328125,
                30.01337242126465,
                202.8016815185547
            ],
            "min" : [
                -103.70716094970703,
                -19.999277114868164,
                -45.086822509765625
            ],
            "type" : "VEC3"
        },
        {
            "bufferView" : 7,
            "componentType" : 5126,
            "count" : 290,
            "type" : "VEC3"
        },
        {
            "bufferView" : 8,
            "componentType" : 5126,
            "count" : 290,
            "type" : "VEC2"
        },
        {
            "bufferView" : 9,
            "componentType" : 5123,
            "count" : 438,
            "type" : "SCALAR"
        },
        {
            "bufferView" : 10,
            "componentType" : 5126,
            "count" : 3084,
            "max" : [
                306.9657287597656,
                32.15419006347656,
                216.6873016357422
            ],
            "min" : [
                -114.22779846191406,
                -20.359886169433594,
                -80.4268569946289
            ],
            "type" : "VEC3"
        },
        {
            "bufferView" : 11,
            "componentType" : 5126,
            "count" : 3084,
            "type" : "VEC3"
        },
        {
            "bufferView" : 12,
            "componentType" : 5126,
            "count" : 3084,
            "type" : "VEC2"
        },
        {
            "bufferView" : 13,
            "componentType" : 5123,
            "count" : 4632,
            "type" : "SCALAR"
        }
    ],
    "bufferViews" : [
        {
            "buffer" : 0,
            "byteLength" : 40656,
            "byteOffset" : 0,
            "target" : 34962
        },
        {
            "buffer" : 0,
            "byteLength" : 40656,
            "byteOffset" : 40656,
            "target" : 34962
        },
        {
            "buffer" : 0,
            "byteLength" : 9816,
            "byteOffset" : 81312,
            "target" : 34963
        },
        {
            "buffer" : 0,
            "byteLength" : 74160,
            "byteOffset" : 91128,
            "target" : 34962
        },
        {
            "buffer" : 0,
            "byteLength" : 74160,
            "byteOffset" : 165288,
            "target" : 34962
        },
        {
            "buffer" : 0,
            "byteLength" : 24804,
            "byteOffset" : 239448,
            "target" : 34963
        },
        {
            "buffer" : 0,
            "byteLength" : 3480,
            "byteOffset" : 264252,
            "target" : 34962
        },
        {
            "buffer" : 0,
            "byteLength" : 3480,
            "byteOffset" : 267732,
            "target" : 34962
        },
        {
            "buffer" : 0,
            "byteLength" : 2320,
            "byteOffset" : 271212,
            "target" : 34962
        },
        {
            "buffer" : 0,
            "byteLength" : 876,
            "byteOffset" : 273532,
            "target" : 34963
        },
        {
            "buffer" : 0,
            "byteLength" : 37008,
            "byteOffset" : 274408,
            "target" : 34962
        },
        {
            "buffer" : 0,
            "byteLength" : 37008,
            "byteOffset" : 311416,
            "target" : 34962
        },
        {
            "buffer" : 0,
            "byteLength" : 24672,
            "byteOffset" : 348424,
            "target" : 34962
        },
        {
            "buffer" : 0,
            "byteLength" : 9264,
            "byteOffset" : 373096,
            "target" : 34963
        }
    ],
    "buffers" : [
        {
            "byteLength" : 382360,
            "uri" : "data:application/octet-stream;base64,"
        }
    ]
}
