{
    "asset" : {
        "generator" : "Khronos glTF Blender I/O v3.3.27",
        "version" : "2.0"
    },
    "scene" : 0,
    "scenes" : [
        {
            "name" : "Scene",
            "nodes" : [
                0,
                1
            ]
        }
    ],
    "nodes" : [
        {
            "mesh" : 0,
            "name" : "Floor"
        },
        {
            "mesh" : 1,
            "name" : "Wall"
        }
    ],
    "meshes" : [
        {
            "name" : "stg072_k_Mesh_0007.001",
            "primitives" : [
                {
                    "attributes" : {
                        "POSITION" : 0,
                        "NORMAL" : 1
                    },
                    "indices" : 2
                }
            ]
        },
        {
            "name" : "stg072_k_Mesh_0007.002",
            "primitives" : [
                {
                    "attributes" : {
                        "POSITION" : 3,
                        "NORMAL" : 4
                    },
                    "indices" : 5
                }
            ]
        }
    ],
    "accessors" : [
        {
            "bufferView" : 0,
            "componentType" : 5126,
            "count" : 2405,
            "max" : [
                315.2174072265625,
                12.748758316040039,
                217.9232940673828
            ],
            "min" : [
                -115.1234130859375,
                -20.114490509033203,
                -81.31085205078125
            ],
            "type" : "VEC3"
        },
        {
            "bufferView" : 1,
            "componentType" : 5126,
            "count" : 2405,
            "type" : "VEC3"
        },
        {
            "bufferView" : 2,
            "componentType" : 5123,
            "count" : 3447,
            "type" : "SCALAR"
        },
        {
            "bufferView" : 3,
            "componentType" : 5126,
            "count" : 2606,
            "max" : [
                312.1396484375,
                37.40011978149414,
                219.1303253173828
            ],
            "min" : [
                -116.3154296875,
                -45.99921798706055,
                -82.66268920898438
            ],
            "type" : "VEC3"
        },
        {
            "bufferView" : 4,
            "componentType" : 5126,
            "count" : 2606,
            "type" : "VEC3"
        },
        {
            "bufferView" : 5,
            "componentType" : 5123,
            "count" : 6804,
            "type" : "SCALAR"
        }
    ],
    "bufferViews" : [
        {
            "buffer" : 0,
            "byteLength" : 28860,
            "byteOffset" : 0,
            "target" : 34962
        },
        {
            "buffer" : 0,
            "byteLength" : 28860,
            "byteOffset" : 28860,
            "target" : 34962
        },
        {
            "buffer" : 0,
            "byteLength" : 6894,
            "byteOffset" : 57720,
            "target" : 34963
        },
        {
            "buffer" : 0,
            "byteLength" : 31272,
            "byteOffset" : 64616,
            "target" : 34962
        },
        {
            "buffer" : 0,
            "byteLength" : 31272,
            "byteOffset" : 95888,
            "target" : 34962
        },
        {
            "buffer" : 0,
            "byteLength" : 13608,
            "byteOffset" : 127160,
            "target" : 34963
        }
    ],
    "buffers" : [
        {
            "byteLength" : 140768,
            "uri" : "data:application/octet-stream;base64,"
        }
    ]
}
