{
    "asset" : {
        "generator" : "Khronos glTF Blender I/O v3.3.36",
        "version" : "2.0"
    },
    "extensionsUsed" : [
        "KHR_materials_specular",
        "KHR_materials_ior"
    ],
    "scene" : 0,
    "scenes" : [
        {
            "name" : "Scene",
            "nodes" : [
                0,
                1
            ]
        }
    ],
    "nodes" : [
        {
            "mesh" : 0,
            "name" : "SkyRoadWall04"
        },
        {
            "mesh" : 1,
            "name" : "SkyRoad04"
        }
    ],
    "materials" : [
        {
            "extensions" : {
                "KHR_materials_specular" : {
                    "specularColorFactor" : [
                        0,
                        0,
                        0
                    ]
                },
                "KHR_materials_ior" : {
                    "ior" : 1.4500000476837158
                }
            },
            "name" : "Sky Road",
            "pbrMetallicRoughness" : {
                "baseColorFactor" : [
                    1,
                    0.9459218978881836,
                    0.0945345088839531,
                    0.45454543828964233
                ],
                "metallicFactor" : 0
            }
        }
    ],
    "meshes" : [
        {
            "name" : "SkyRoadWall04",
            "primitives" : [
                {
                    "attributes" : {
                        "POSITION" : 0,
                        "NORMAL" : 1
                    },
                    "indices" : 2,
                    "material" : 0
                }
            ]
        },
        {
            "name" : "SkyRoad04",
            "primitives" : [
                {
                    "attributes" : {
                        "POSITION" : 3,
                        "NORMAL" : 4,
                        "TEXCOORD_0" : 5,
                        "COLOR_0" : 6
                    },
                    "indices" : 7,
                    "material" : 0
                }
            ]
        }
    ],
    "accessors" : [
        {
            "bufferView" : 0,
            "componentType" : 5126,
            "count" : 5335,
            "max" : [
                670.5277099609375,
                89.83267211914062,
                -1004.2774658203125
            ],
            "min" : [
                526.7413940429688,
                -95.59313201904297,
                -1309.787841796875
            ],
            "type" : "VEC3"
        },
        {
            "bufferView" : 1,
            "componentType" : 5126,
            "count" : 5335,
            "type" : "VEC3"
        },
        {
            "bufferView" : 2,
            "componentType" : 5123,
            "count" : 8001,
            "type" : "SCALAR"
        },
        {
            "bufferView" : 3,
            "componentType" : 5126,
            "count" : 3398,
            "max" : [
                670.5277099609375,
                74.95777893066406,
                -1004.2774658203125
            ],
            "min" : [
                488.7856750488281,
                -95.59313201904297,
                -1308
            ],
            "type" : "VEC3"
        },
        {
            "bufferView" : 4,
            "componentType" : 5126,
            "count" : 3398,
            "type" : "VEC3"
        },
        {
            "bufferView" : 5,
            "componentType" : 5126,
            "count" : 3398,
            "type" : "VEC2"
        },
        {
            "bufferView" : 6,
            "componentType" : 5123,
            "count" : 3398,
            "normalized" : true,
            "type" : "VEC4"
        },
        {
            "bufferView" : 7,
            "componentType" : 5123,
            "count" : 5112,
            "type" : "SCALAR"
        }
    ],
    "bufferViews" : [
        {
            "buffer" : 0,
            "byteLength" : 64020,
            "byteOffset" : 0,
            "target" : 34962
        },
        {
            "buffer" : 0,
            "byteLength" : 64020,
            "byteOffset" : 64020,
            "target" : 34962
        },
        {
            "buffer" : 0,
            "byteLength" : 16002,
            "byteOffset" : 128040,
            "target" : 34963
        },
        {
            "buffer" : 0,
            "byteLength" : 40776,
            "byteOffset" : 144044,
            "target" : 34962
        },
        {
            "buffer" : 0,
            "byteLength" : 40776,
            "byteOffset" : 184820,
            "target" : 34962
        },
        {
            "buffer" : 0,
            "byteLength" : 27184,
            "byteOffset" : 225596,
            "target" : 34962
        },
        {
            "buffer" : 0,
            "byteLength" : 27184,
            "byteOffset" : 252780,
            "target" : 34962
        },
        {
            "buffer" : 0,
            "byteLength" : 10224,
            "byteOffset" : 279964,
            "target" : 34963
        }
    ],
    "buffers" : [
        {
            "byteLength" : 290188,
            "uri" : "data:application/octet-stream;base64,"
        }
    ]
}
