{
    "asset" : {
        "generator" : "Khronos glTF Blender I/O v3.3.36",
        "version" : "2.0"
    },
    "extensionsUsed" : [
        "KHR_materials_specular",
        "KHR_materials_ior"
    ],
    "scene" : 0,
    "scenes" : [
        {
            "name" : "Scene",
            "nodes" : [
                0
            ]
        }
    ],
    "nodes" : [
        {
            "mesh" : 0,
            "name" : "SkyRoad01"
        }
    ],
    "materials" : [
        {
            "extensions" : {
                "KHR_materials_specular" : {
                    "specularColorFactor" : [
                        0,
                        0,
                        0
                    ]
                },
                "KHR_materials_ior" : {
                    "ior" : 1.4500000476837158
                }
            },
            "name" : "Sky Road",
            "pbrMetallicRoughness" : {
                "baseColorFactor" : [
                    1,
                    0.9459218978881836,
                    0.0945345088839531,
                    0.45454543828964233
                ],
                "metallicFactor" : 0
            }
        }
    ],
    "meshes" : [
        {
            "name" : "SkyRoad01",
            "primitives" : [
                {
                    "attributes" : {
                        "POSITION" : 0,
                        "NORMAL" : 1,
                        "TEXCOORD_0" : 2,
                        "COLOR_0" : 3
                    },
                    "indices" : 4,
                    "material" : 0
                }
            ]
        }
    ],
    "accessors" : [
        {
            "bufferView" : 0,
            "componentType" : 5126,
            "count" : 2312,
            "max" : [
                -28.139137268066406,
                8.359408378601074,
                -973.9149780273438
            ],
            "min" : [
                -100.9791030883789,
                -111.58486938476562,
                -1349.4754638671875
            ],
            "type" : "VEC3"
        },
        {
            "bufferView" : 1,
            "componentType" : 5126,
            "count" : 2312,
            "type" : "VEC3"
        },
        {
            "bufferView" : 2,
            "componentType" : 5126,
            "count" : 2312,
            "type" : "VEC2"
        },
        {
            "bufferView" : 3,
            "componentType" : 5126,
            "count" : 2312,
            "normalized" : false,
            "type" : "VEC4"
        },
        {
            "bufferView" : 4,
            "componentType" : 5123,
            "count" : 3468,
            "type" : "SCALAR"
        }
    ],
    "bufferViews" : [
        {
            "buffer" : 0,
            "byteLength" : 27744,
            "byteOffset" : 0,
            "target" : 34962
        },
        {
            "buffer" : 0,
            "byteLength" : 27744,
            "byteOffset" : 27744,
            "target" : 34962
        },
        {
            "buffer" : 0,
            "byteLength" : 18496,
            "byteOffset" : 55488,
            "target" : 34962
        },
        {
            "buffer" : 0,
            "byteLength" : 36992,
            "byteOffset" : 73984,
            "target" : 34962
        },
        {
            "buffer" : 0,
            "byteLength" : 6936,
            "byteOffset" : 110976,
            "target" : 34963
        }
    ],
    "buffers" : [
        {
            "byteLength" : 117912,
            "uri" : "data:application/octet-stream;base64,"
        }
    ]
}
