{
    "asset" : {
        "generator" : "Khronos glTF Blender I/O v3.3.36",
        "version" : "2.0"
    },
    "extensionsUsed" : [
        "KHR_materials_specular",
        "KHR_materials_ior"
    ],
    "scene" : 0,
    "scenes" : [
        {
            "name" : "Scene",
            "nodes" : [
                0
            ]
        }
    ],
    "nodes" : [
        {
            "mesh" : 0,
            "name" : "SkyRoad03"
        }
    ],
    "materials" : [
        {
            "extensions" : {
                "KHR_materials_specular" : {
                    "specularColorFactor" : [
                        0,
                        0,
                        0
                    ]
                },
                "KHR_materials_ior" : {
                    "ior" : 1.4500000476837158
                }
            },
            "name" : "Sky Road",
            "pbrMetallicRoughness" : {
                "baseColorFactor" : [
                    1,
                    0.9459218978881836,
                    0.0945345088839531,
                    0.45454543828964233
                ],
                "metallicFactor" : 0
            }
        }
    ],
    "meshes" : [
        {
            "name" : "SkyRoad03",
            "primitives" : [
                {
                    "attributes" : {
                        "POSITION" : 0,
                        "NORMAL" : 1,
                        "TEXCOORD_0" : 2,
                        "COLOR_0" : 3
                    },
                    "indices" : 4,
                    "material" : 0
                }
            ]
        }
    ],
    "accessors" : [
        {
            "bufferView" : 0,
            "componentType" : 5126,
            "count" : 3868,
            "max" : [
                655.5648803710938,
                6.620415687561035,
                -1355.2874755859375
            ],
            "min" : [
                228.63931274414062,
                -114.30812072753906,
                -1645.9913330078125
            ],
            "type" : "VEC3"
        },
        {
            "bufferView" : 1,
            "componentType" : 5126,
            "count" : 3868,
            "type" : "VEC3"
        },
        {
            "bufferView" : 2,
            "componentType" : 5126,
            "count" : 3868,
            "type" : "VEC2"
        },
        {
            "bufferView" : 3,
            "componentType" : 5123,
            "count" : 3868,
            "normalized" : true,
            "type" : "VEC4"
        },
        {
            "bufferView" : 4,
            "componentType" : 5123,
            "count" : 5802,
            "type" : "SCALAR"
        }
    ],
    "bufferViews" : [
        {
            "buffer" : 0,
            "byteLength" : 46416,
            "byteOffset" : 0,
            "target" : 34962
        },
        {
            "buffer" : 0,
            "byteLength" : 46416,
            "byteOffset" : 46416,
            "target" : 34962
        },
        {
            "buffer" : 0,
            "byteLength" : 30944,
            "byteOffset" : 92832,
            "target" : 34962
        },
        {
            "buffer" : 0,
            "byteLength" : 30944,
            "byteOffset" : 123776,
            "target" : 34962
        },
        {
            "buffer" : 0,
            "byteLength" : 11604,
            "byteOffset" : 154720,
            "target" : 34963
        }
    ],
    "buffers" : [
        {
            "byteLength" : 166324,
            "uri" : "data:application/octet-stream;base64,"
        }
    ]
}
