{
    "asset" : {
        "generator" : "Khronos glTF Blender I/O v3.3.36",
        "version" : "2.0"
    },
    "extensionsUsed" : [
        "KHR_materials_specular",
        "KHR_materials_ior"
    ],
    "scene" : 0,
    "scenes" : [
        {
            "name" : "Scene",
            "nodes" : [
                0,
                1
            ]
        }
    ],
    "nodes" : [
        {
            "mesh" : 0,
            "name" : "SkyRoad04"
        },
        {
            "mesh" : 1,
            "name" : "SkyRoadWall04"
        }
    ],
    "materials" : [
        {
            "extensions" : {
                "KHR_materials_specular" : {
                    "specularColorFactor" : [
                        0,
                        0,
                        0
                    ]
                },
                "KHR_materials_ior" : {
                    "ior" : 1.4500000476837158
                }
            },
            "name" : "Sky Road",
            "pbrMetallicRoughness" : {
                "baseColorFactor" : [
                    1,
                    0.9459218978881836,
                    0.0945345088839531,
                    0.45454543828964233
                ],
                "metallicFactor" : 0
            }
        }
    ],
    "meshes" : [
        {
            "name" : "SkyRoad04",
            "primitives" : [
                {
                    "attributes" : {
                        "POSITION" : 0,
                        "NORMAL" : 1,
                        "TEXCOORD_0" : 2,
                        "COLOR_0" : 3
                    },
                    "indices" : 4,
                    "material" : 0
                }
            ]
        },
        {
            "name" : "SkyRoadWall04",
            "primitives" : [
                {
                    "attributes" : {
                        "POSITION" : 5,
                        "NORMAL" : 6
                    },
                    "indices" : 7
                }
            ]
        }
    ],
    "accessors" : [
        {
            "bufferView" : 0,
            "componentType" : 5126,
            "count" : 3414,
            "max" : [
                670.2950439453125,
                74.87845611572266,
                -1004.5319213867188
            ],
            "min" : [
                489.00640869140625,
                -95.59490203857422,
                -1308
            ],
            "type" : "VEC3"
        },
        {
            "bufferView" : 1,
            "componentType" : 5126,
            "count" : 3414,
            "type" : "VEC3"
        },
        {
            "bufferView" : 2,
            "componentType" : 5126,
            "count" : 3414,
            "type" : "VEC2"
        },
        {
            "bufferView" : 3,
            "componentType" : 5123,
            "count" : 3414,
            "normalized" : true,
            "type" : "VEC4"
        },
        {
            "bufferView" : 4,
            "componentType" : 5123,
            "count" : 5142,
            "type" : "SCALAR"
        },
        {
            "bufferView" : 5,
            "componentType" : 5126,
            "count" : 5372,
            "max" : [
                670.2950439453125,
                89.83248901367188,
                -1004.5319213867188
            ],
            "min" : [
                526.748291015625,
                -95.59490203857422,
                -1308
            ],
            "type" : "VEC3"
        },
        {
            "bufferView" : 6,
            "componentType" : 5126,
            "count" : 5372,
            "type" : "VEC3"
        },
        {
            "bufferView" : 7,
            "componentType" : 5123,
            "count" : 8058,
            "type" : "SCALAR"
        }
    ],
    "bufferViews" : [
        {
            "buffer" : 0,
            "byteLength" : 40968,
            "byteOffset" : 0,
            "target" : 34962
        },
        {
            "buffer" : 0,
            "byteLength" : 40968,
            "byteOffset" : 40968,
            "target" : 34962
        },
        {
            "buffer" : 0,
            "byteLength" : 27312,
            "byteOffset" : 81936,
            "target" : 34962
        },
        {
            "buffer" : 0,
            "byteLength" : 27312,
            "byteOffset" : 109248,
            "target" : 34962
        },
        {
            "buffer" : 0,
            "byteLength" : 10284,
            "byteOffset" : 136560,
            "target" : 34963
        },
        {
            "buffer" : 0,
            "byteLength" : 64464,
            "byteOffset" : 146844,
            "target" : 34962
        },
        {
            "buffer" : 0,
            "byteLength" : 64464,
            "byteOffset" : 211308,
            "target" : 34962
        },
        {
            "buffer" : 0,
            "byteLength" : 16116,
            "byteOffset" : 275772,
            "target" : 34963
        }
    ],
    "buffers" : [
        {
            "byteLength" : 291888,
            "uri" : "data:application/octet-stream;base64,"
        }
    ]
}
