{
    "asset" : {
        "generator" : "Khronos glTF Blender I/O v1.8.19",
        "version" : "2.0"
    },
    "scene" : 0,
    "scenes" : [
        {
            "name" : "Scene",
            "nodes" : [
                0,
                1
            ]
        }
    ],
    "nodes" : [
        {
            "mesh" : 0,
            "name" : "LotasPlatformCol2"
        },
        {
            "mesh" : 1,
            "name" : "LotasPlatformCol1"
        }
    ],
    "meshes" : [
        {
            "name" : "LotasPlatformCol2",
            "primitives" : [
                {
                    "attributes" : {
                        "POSITION" : 0,
                        "NORMAL" : 1
                    },
                    "indices" : 2
                }
            ]
        },
        {
            "name" : "LotasPlatformCol1",
            "primitives" : [
                {
                    "attributes" : {
                        "POSITION" : 3,
                        "NORMAL" : 4
                    },
                    "indices" : 5
                }
            ]
        }
    ],
    "accessors" : [
        {
            "bufferView" : 0,
            "componentType" : 5126,
            "count" : 61,
            "max" : [
                3.6185567378997803,
                13.930370330810547,
                3.6270546913146973
            ],
            "min" : [
                -3.6185567378997803,
                13.320352554321289,
                -3.610055923461914
            ],
            "type" : "VEC3"
        },
        {
            "bufferView" : 1,
            "componentType" : 5126,
            "count" : 61,
            "type" : "VEC3"
        },
        {
            "bufferView" : 2,
            "componentType" : 5123,
            "count" : 180,
            "type" : "SCALAR"
        },
        {
            "bufferView" : 3,
            "componentType" : 5126,
            "count" : 180,
            "max" : [
                3.6185567378997803,
                13.930370330810547,
                3.6270546913146973
            ],
            "min" : [
                -3.6185567378997803,
                -13.91164779663086,
                -3.610055923461914
            ],
            "type" : "VEC3"
        },
        {
            "bufferView" : 4,
            "componentType" : 5126,
            "count" : 180,
            "type" : "VEC3"
        },
        {
            "bufferView" : 5,
            "componentType" : 5123,
            "count" : 885,
            "type" : "SCALAR"
        }
    ],
    "bufferViews" : [
        {
            "buffer" : 0,
            "byteLength" : 732,
            "byteOffset" : 0
        },
        {
            "buffer" : 0,
            "byteLength" : 732,
            "byteOffset" : 732
        },
        {
            "buffer" : 0,
            "byteLength" : 360,
            "byteOffset" : 1464
        },
        {
            "buffer" : 0,
            "byteLength" : 2160,
            "byteOffset" : 1824
        },
        {
            "buffer" : 0,
            "byteLength" : 2160,
            "byteOffset" : 3984
        },
        {
            "buffer" : 0,
            "byteLength" : 1770,
            "byteOffset" : 6144
        }
    ],
    "buffers" : [
        {
            "byteLength" : 7916,
            "uri" : "data:application/octet-stream;base64,"
        }
    ]
}
