{
    "asset" : {
        "generator" : "Khronos glTF Blender I/O v1.8.19",
        "version" : "2.0"
    },
    "scene" : 0,
    "scenes" : [
        {
            "name" : "Scene",
            "nodes" : [
                0
            ]
        }
    ],
    "nodes" : [
        {
            "mesh" : 0,
            "name" : "WaterRock"
        }
    ],
    "materials" : [
        {
            "doubleSided" : true,
            "name" : "Rock White",
            "pbrMetallicRoughness" : {
                "baseColorTexture" : {
                    "index" : 0
                },
                "metallicFactor" : 0
            }
        }
    ],
    "meshes" : [
        {
            "name" : "WaterRock",
            "primitives" : [
                {
                    "attributes" : {
                        "POSITION" : 0,
                        "NORMAL" : 1,
                        "TEXCOORD_0" : 2,
                        "COLOR_0" : 3
                    },
                    "indices" : 4,
                    "material" : 0
                }
            ]
        }
    ],
    "textures" : [
        {
            "sampler" : 0,
            "source" : 0
        }
    ],
    "images" : [
        {
            "bufferView" : 5,
            "mimeType" : "image/png",
            "name" : "rock white"
        }
    ],
    "accessors" : [
        {
            "bufferView" : 0,
            "componentType" : 5126,
            "count" : 122,
            "max" : [
                1.2087098360061646,
                2.254833221435547,
                1.0005356073379517
            ],
            "min" : [
                -1.2087098360061646,
                -5.04262113571167,
                -1.0005688667297363
            ],
            "type" : "VEC3"
        },
        {
            "bufferView" : 1,
            "componentType" : 5126,
            "count" : 122,
            "type" : "VEC3"
        },
        {
            "bufferView" : 2,
            "componentType" : 5126,
            "count" : 122,
            "type" : "VEC2"
        },
        {
            "bufferView" : 3,
            "componentType" : 5123,
            "count" : 122,
            "normalized" : true,
            "type" : "VEC4"
        },
        {
            "bufferView" : 4,
            "componentType" : 5123,
            "count" : 450,
            "type" : "SCALAR"
        }
    ],
    "bufferViews" : [
        {
            "buffer" : 0,
            "byteLength" : 1464,
            "byteOffset" : 0
        },
        {
            "buffer" : 0,
            "byteLength" : 1464,
            "byteOffset" : 1464
        },
        {
            "buffer" : 0,
            "byteLength" : 976,
            "byteOffset" : 2928
        },
        {
            "buffer" : 0,
            "byteLength" : 976,
            "byteOffset" : 3904
        },
        {
            "buffer" : 0,
            "byteLength" : 900,
            "byteOffset" : 4880
        },
        {
            "buffer" : 0,
            "byteLength" : 23602,
            "byteOffset" : 5780
        }
    ],
    "samplers" : [
        {
            "magFilter" : 9729,
            "minFilter" : 9987
        }
    ],
    "buffers" : [
        {
            "byteLength" : 29384,
            "uri" : "data:application/octet-stream;base64,"
        }
    ]
}
