{
    "asset" : {
        "generator" : "Khronos glTF Blender I/O v1.8.19",
        "version" : "2.0"
    },
    "scene" : 0,
    "scenes" : [
        {
            "name" : "Scene",
            "nodes" : [
                0,
                1,
                2,
                3
            ]
        }
    ],
    "nodes" : [
        {
            "mesh" : 0,
            "name" : "WhiteRockPiece1"
        },
        {
            "mesh" : 1,
            "name" : "WhiteRockPiece2"
        },
        {
            "mesh" : 2,
            "name" : "WhiteRockPiece3"
        },
        {
            "mesh" : 3,
            "name" : "WhiteRockPiece4"
        }
    ],
    "materials" : [
        {
            "doubleSided" : true,
            "name" : "Rock White",
            "pbrMetallicRoughness" : {
                "baseColorTexture" : {
                    "index" : 0
                },
                "metallicFactor" : 0
            }
        }
    ],
    "meshes" : [
        {
            "name" : "WhiteRockPiece1",
            "primitives" : [
                {
                    "attributes" : {
                        "POSITION" : 0,
                        "NORMAL" : 1,
                        "TEXCOORD_0" : 2,
                        "COLOR_0" : 3
                    },
                    "indices" : 4,
                    "material" : 0
                }
            ]
        },
        {
            "name" : "WhiteRockPiece2",
            "primitives" : [
                {
                    "attributes" : {
                        "POSITION" : 5,
                        "NORMAL" : 6,
                        "TEXCOORD_0" : 7,
                        "COLOR_0" : 8
                    },
                    "indices" : 9,
                    "material" : 0
                }
            ]
        },
        {
            "name" : "WhiteRockPiece3",
            "primitives" : [
                {
                    "attributes" : {
                        "POSITION" : 10,
                        "NORMAL" : 11,
                        "TEXCOORD_0" : 12,
                        "COLOR_0" : 13
                    },
                    "indices" : 14,
                    "material" : 0
                }
            ]
        },
        {
            "name" : "WhiteRockPiece4",
            "primitives" : [
                {
                    "attributes" : {
                        "POSITION" : 15,
                        "NORMAL" : 16,
                        "TEXCOORD_0" : 17,
                        "COLOR_0" : 18
                    },
                    "indices" : 19,
                    "material" : 0
                }
            ]
        }
    ],
    "textures" : [
        {
            "sampler" : 0,
            "source" : 0
        }
    ],
    "images" : [
        {
            "bufferView" : 5,
            "mimeType" : "image/png",
            "name" : "rock white"
        }
    ],
    "accessors" : [
        {
            "bufferView" : 0,
            "componentType" : 5126,
            "count" : 65,
            "max" : [
                0.28748956322669983,
                1.0110434293746948,
                0.5090608596801758
            ],
            "min" : [
                -0.2874895930290222,
                -1.0110442638397217,
                -0.5090590715408325
            ],
            "type" : "VEC3"
        },
        {
            "bufferView" : 1,
            "componentType" : 5126,
            "count" : 65,
            "type" : "VEC3"
        },
        {
            "bufferView" : 2,
            "componentType" : 5126,
            "count" : 65,
            "type" : "VEC2"
        },
        {
            "bufferView" : 3,
            "componentType" : 5123,
            "count" : 65,
            "normalized" : true,
            "type" : "VEC4"
        },
        {
            "bufferView" : 4,
            "componentType" : 5123,
            "count" : 228,
            "type" : "SCALAR"
        },
        {
            "bufferView" : 6,
            "componentType" : 5126,
            "count" : 30,
            "max" : [
                0.15243512392044067,
                0.2780507802963257,
                0.18557904660701752
            ],
            "min" : [
                -0.15243512392044067,
                -0.2780506908893585,
                -0.18557889759540558
            ],
            "type" : "VEC3"
        },
        {
            "bufferView" : 7,
            "componentType" : 5126,
            "count" : 30,
            "type" : "VEC3"
        },
        {
            "bufferView" : 8,
            "componentType" : 5126,
            "count" : 30,
            "type" : "VEC2"
        },
        {
            "bufferView" : 9,
            "componentType" : 5123,
            "count" : 30,
            "normalized" : true,
            "type" : "VEC4"
        },
        {
            "bufferView" : 10,
            "componentType" : 5123,
            "count" : 72,
            "type" : "SCALAR"
        },
        {
            "bufferView" : 11,
            "componentType" : 5126,
            "count" : 30,
            "max" : [
                0.2481033205986023,
                0.692643940448761,
                0.2703709602355957
            ],
            "min" : [
                -0.24810323119163513,
                -0.6926437020301819,
                -0.2703724205493927
            ],
            "type" : "VEC3"
        },
        {
            "bufferView" : 12,
            "componentType" : 5126,
            "count" : 30,
            "type" : "VEC3"
        },
        {
            "bufferView" : 13,
            "componentType" : 5126,
            "count" : 30,
            "type" : "VEC2"
        },
        {
            "bufferView" : 14,
            "componentType" : 5123,
            "count" : 30,
            "normalized" : true,
            "type" : "VEC4"
        },
        {
            "bufferView" : 15,
            "componentType" : 5123,
            "count" : 90,
            "type" : "SCALAR"
        },
        {
            "bufferView" : 16,
            "componentType" : 5126,
            "count" : 63,
            "max" : [
                0.4963884651660919,
                0.6181735992431641,
                0.3928301930427551
            ],
            "min" : [
                -0.49638837575912476,
                -0.6181740760803223,
                -0.39283135533332825
            ],
            "type" : "VEC3"
        },
        {
            "bufferView" : 17,
            "componentType" : 5126,
            "count" : 63,
            "type" : "VEC3"
        },
        {
            "bufferView" : 18,
            "componentType" : 5126,
            "count" : 63,
            "type" : "VEC2"
        },
        {
            "bufferView" : 19,
            "componentType" : 5123,
            "count" : 63,
            "normalized" : true,
            "type" : "VEC4"
        },
        {
            "bufferView" : 20,
            "componentType" : 5123,
            "count" : 240,
            "type" : "SCALAR"
        }
    ],
    "bufferViews" : [
        {
            "buffer" : 0,
            "byteLength" : 780,
            "byteOffset" : 0
        },
        {
            "buffer" : 0,
            "byteLength" : 780,
            "byteOffset" : 780
        },
        {
            "buffer" : 0,
            "byteLength" : 520,
            "byteOffset" : 1560
        },
        {
            "buffer" : 0,
            "byteLength" : 520,
            "byteOffset" : 2080
        },
        {
            "buffer" : 0,
            "byteLength" : 456,
            "byteOffset" : 2600
        },
        {
            "buffer" : 0,
            "byteLength" : 23602,
            "byteOffset" : 3056
        },
        {
            "buffer" : 0,
            "byteLength" : 360,
            "byteOffset" : 26660
        },
        {
            "buffer" : 0,
            "byteLength" : 360,
            "byteOffset" : 27020
        },
        {
            "buffer" : 0,
            "byteLength" : 240,
            "byteOffset" : 27380
        },
        {
            "buffer" : 0,
            "byteLength" : 240,
            "byteOffset" : 27620
        },
        {
            "buffer" : 0,
            "byteLength" : 144,
            "byteOffset" : 27860
        },
        {
            "buffer" : 0,
            "byteLength" : 360,
            "byteOffset" : 28004
        },
        {
            "buffer" : 0,
            "byteLength" : 360,
            "byteOffset" : 28364
        },
        {
            "buffer" : 0,
            "byteLength" : 240,
            "byteOffset" : 28724
        },
        {
            "buffer" : 0,
            "byteLength" : 240,
            "byteOffset" : 28964
        },
        {
            "buffer" : 0,
            "byteLength" : 180,
            "byteOffset" : 29204
        },
        {
            "buffer" : 0,
            "byteLength" : 756,
            "byteOffset" : 29384
        },
        {
            "buffer" : 0,
            "byteLength" : 756,
            "byteOffset" : 30140
        },
        {
            "buffer" : 0,
            "byteLength" : 504,
            "byteOffset" : 30896
        },
        {
            "buffer" : 0,
            "byteLength" : 504,
            "byteOffset" : 31400
        },
        {
            "buffer" : 0,
            "byteLength" : 480,
            "byteOffset" : 31904
        }
    ],
    "samplers" : [
        {
            "magFilter" : 9729,
            "minFilter" : 9987
        }
    ],
    "buffers" : [
        {
            "byteLength" : 32384,
            "uri" : "data:application/octet-stream;base64,"
        }
    ]
}
