{
    "asset" : {
        "generator" : "Khronos glTF Blender I/O v1.8.19",
        "version" : "2.0"
    },
    "scene" : 0,
    "scenes" : [
        {
            "name" : "Scene",
            "nodes" : [
                0,
                1,
                2,
                3,
                4,
                5,
                6
            ]
        }
    ],
    "nodes" : [
        {
            "mesh" : 0,
            "name" : "EnemyStoneAdd"
        },
        {
            "mesh" : 1,
            "name" : "EnemyStone"
        },
        {
            "mesh" : 2,
            "name" : "EnemyStone05"
        },
        {
            "mesh" : 3,
            "name" : "EnemyStone04"
        },
        {
            "mesh" : 4,
            "name" : "EnemyStone03"
        },
        {
            "mesh" : 5,
            "name" : "EnemyStone02"
        },
        {
            "mesh" : 6,
            "name" : "EnemyStone01"
        }
    ],
    "materials" : [
        {
            "doubleSided" : true,
            "name" : "com004C_ENEMY_STONEadd_Material_0",
            "pbrMetallicRoughness" : {
                "baseColorTexture" : {
                    "index" : 0
                },
                "metallicFactor" : 0
            }
        },
        {
            "name" : "Enemy Stone",
            "pbrMetallicRoughness" : {
                "baseColorTexture" : {
                    "index" : 1
                },
                "metallicFactor" : 0,
                "roughnessFactor" : 0.8999999761581421
            }
        },
        {
            "name" : "Stone Crevice",
            "pbrMetallicRoughness" : {
                "baseColorTexture" : {
                    "index" : 2
                },
                "metallicFactor" : 0,
                "roughnessFactor" : 0.8999999761581421
            }
        }
    ],
    "meshes" : [
        {
            "name" : "EnemyStoneAdd",
            "primitives" : [
                {
                    "attributes" : {
                        "POSITION" : 0,
                        "NORMAL" : 1,
                        "TEXCOORD_0" : 2,
                        "COLOR_0" : 3
                    },
                    "indices" : 4,
                    "material" : 0
                }
            ]
        },
        {
            "name" : "EnemyStone",
            "primitives" : [
                {
                    "attributes" : {
                        "POSITION" : 5,
                        "NORMAL" : 6,
                        "TEXCOORD_0" : 7,
                        "COLOR_0" : 8
                    },
                    "indices" : 9,
                    "material" : 1
                },
                {
                    "attributes" : {
                        "POSITION" : 10,
                        "NORMAL" : 11,
                        "TEXCOORD_0" : 12,
                        "COLOR_0" : 13
                    },
                    "indices" : 14,
                    "material" : 2
                }
            ]
        },
        {
            "name" : "EnemyStone05",
            "primitives" : [
                {
                    "attributes" : {
                        "POSITION" : 15,
                        "NORMAL" : 16,
                        "TEXCOORD_0" : 17,
                        "COLOR_0" : 18
                    },
                    "indices" : 19,
                    "material" : 1
                }
            ]
        },
        {
            "name" : "EnemyStone04",
            "primitives" : [
                {
                    "attributes" : {
                        "POSITION" : 20,
                        "NORMAL" : 21,
                        "TEXCOORD_0" : 22,
                        "COLOR_0" : 23
                    },
                    "indices" : 24,
                    "material" : 1
                }
            ]
        },
        {
            "name" : "EnemyStone03",
            "primitives" : [
                {
                    "attributes" : {
                        "POSITION" : 25,
                        "NORMAL" : 26,
                        "TEXCOORD_0" : 27,
                        "COLOR_0" : 28
                    },
                    "indices" : 29,
                    "material" : 1
                }
            ]
        },
        {
            "name" : "EnemyStone02",
            "primitives" : [
                {
                    "attributes" : {
                        "POSITION" : 30,
                        "NORMAL" : 31,
                        "TEXCOORD_0" : 32,
                        "COLOR_0" : 33
                    },
                    "indices" : 34,
                    "material" : 1
                }
            ]
        },
        {
            "name" : "EnemyStone01",
            "primitives" : [
                {
                    "attributes" : {
                        "POSITION" : 35,
                        "NORMAL" : 36,
                        "TEXCOORD_0" : 37,
                        "COLOR_0" : 38
                    },
                    "indices" : 39,
                    "material" : 1
                }
            ]
        }
    ],
    "textures" : [
        {
            "sampler" : 0,
            "source" : 0
        },
        {
            "sampler" : 0,
            "source" : 1
        },
        {
            "sampler" : 0,
            "source" : 2
        }
    ],
    "images" : [
        {
            "bufferView" : 5,
            "mimeType" : "image/png",
            "name" : "enemy stone add"
        },
        {
            "bufferView" : 11,
            "mimeType" : "image/png",
            "name" : "enemy stone"
        },
        {
            "bufferView" : 17,
            "mimeType" : "image/png",
            "name" : "stone crevice"
        }
    ],
    "accessors" : [
        {
            "bufferView" : 0,
            "componentType" : 5126,
            "count" : 199,
            "max" : [
                1.0089507102966309,
                1.008954405784607,
                1.0094726085662842
            ],
            "min" : [
                -1.0090019702911377,
                -1.0089545249938965,
                -1.008954405784607
            ],
            "type" : "VEC3"
        },
        {
            "bufferView" : 1,
            "componentType" : 5126,
            "count" : 199,
            "type" : "VEC3"
        },
        {
            "bufferView" : 2,
            "componentType" : 5126,
            "count" : 199,
            "type" : "VEC2"
        },
        {
            "bufferView" : 3,
            "componentType" : 5123,
            "count" : 199,
            "normalized" : true,
            "type" : "VEC4"
        },
        {
            "bufferView" : 4,
            "componentType" : 5123,
            "count" : 204,
            "type" : "SCALAR"
        },
        {
            "bufferView" : 6,
            "componentType" : 5126,
            "count" : 130,
            "max" : [
                1,
                1.0000035762786865,
                1.0005171298980713
            ],
            "min" : [
                -1.0000507831573486,
                -1.000003695487976,
                -1.0000035762786865
            ],
            "type" : "VEC3"
        },
        {
            "bufferView" : 7,
            "componentType" : 5126,
            "count" : 130,
            "type" : "VEC3"
        },
        {
            "bufferView" : 8,
            "componentType" : 5126,
            "count" : 130,
            "type" : "VEC2"
        },
        {
            "bufferView" : 9,
            "componentType" : 5123,
            "count" : 130,
            "normalized" : true,
            "type" : "VEC4"
        },
        {
            "bufferView" : 10,
            "componentType" : 5123,
            "count" : 138,
            "type" : "SCALAR"
        },
        {
            "bufferView" : 12,
            "componentType" : 5126,
            "count" : 66,
            "max" : [
                1,
                1.0000035762786865,
                1.0000035762786865
            ],
            "min" : [
                -1,
                -1.000003695487976,
                -1.0000035762786865
            ],
            "type" : "VEC3"
        },
        {
            "bufferView" : 13,
            "componentType" : 5126,
            "count" : 66,
            "type" : "VEC3"
        },
        {
            "bufferView" : 14,
            "componentType" : 5126,
            "count" : 66,
            "type" : "VEC2"
        },
        {
            "bufferView" : 15,
            "componentType" : 5123,
            "count" : 66,
            "normalized" : true,
            "type" : "VEC4"
        },
        {
            "bufferView" : 16,
            "componentType" : 5123,
            "count" : 66,
            "type" : "SCALAR"
        },
        {
            "bufferView" : 18,
            "componentType" : 5126,
            "count" : 54,
            "max" : [
                0.2723901867866516,
                0.5582093000411987,
                0.5449907779693604
            ],
            "min" : [
                -0.49551522731781006,
                -0.4517673850059509,
                -0.5200695395469666
            ],
            "type" : "VEC3"
        },
        {
            "bufferView" : 19,
            "componentType" : 5126,
            "count" : 54,
            "type" : "VEC3"
        },
        {
            "bufferView" : 20,
            "componentType" : 5126,
            "count" : 54,
            "type" : "VEC2"
        },
        {
            "bufferView" : 21,
            "componentType" : 5123,
            "count" : 54,
            "normalized" : true,
            "type" : "VEC4"
        },
        {
            "bufferView" : 22,
            "componentType" : 5123,
            "count" : 54,
            "type" : "SCALAR"
        },
        {
            "bufferView" : 23,
            "componentType" : 5126,
            "count" : 84,
            "max" : [
                0.5124791264533997,
                0.08979512006044388,
                1.3609510660171509
            ],
            "min" : [
                -0.37867650389671326,
                -0.9716359376907349,
                -0.6390489339828491
            ],
            "type" : "VEC3"
        },
        {
            "bufferView" : 24,
            "componentType" : 5126,
            "count" : 84,
            "type" : "VEC3"
        },
        {
            "bufferView" : 25,
            "componentType" : 5126,
            "count" : 84,
            "type" : "VEC2"
        },
        {
            "bufferView" : 26,
            "componentType" : 5123,
            "count" : 84,
            "normalized" : true,
            "type" : "VEC4"
        },
        {
            "bufferView" : 27,
            "componentType" : 5123,
            "count" : 84,
            "type" : "SCALAR"
        },
        {
            "bufferView" : 28,
            "componentType" : 5126,
            "count" : 72,
            "max" : [
                0.3489457666873932,
                0.2439924031496048,
                0.48502787947654724
            ],
            "min" : [
                -0.6086218953132629,
                -0.3259665369987488,
                -0.23668888211250305
            ],
            "type" : "VEC3"
        },
        {
            "bufferView" : 29,
            "componentType" : 5126,
            "count" : 72,
            "type" : "VEC3"
        },
        {
            "bufferView" : 30,
            "componentType" : 5126,
            "count" : 72,
            "type" : "VEC2"
        },
        {
            "bufferView" : 31,
            "componentType" : 5123,
            "count" : 72,
            "normalized" : true,
            "type" : "VEC4"
        },
        {
            "bufferView" : 32,
            "componentType" : 5123,
            "count" : 72,
            "type" : "SCALAR"
        },
        {
            "bufferView" : 33,
            "componentType" : 5126,
            "count" : 114,
            "max" : [
                0.5607541799545288,
                0.6398335695266724,
                0.42550066113471985
            ],
            "min" : [
                -0.5790923237800598,
                -0.6505858898162842,
                -0.4662199020385742
            ],
            "type" : "VEC3"
        },
        {
            "bufferView" : 34,
            "componentType" : 5126,
            "count" : 114,
            "type" : "VEC3"
        },
        {
            "bufferView" : 35,
            "componentType" : 5126,
            "count" : 114,
            "type" : "VEC2"
        },
        {
            "bufferView" : 36,
            "componentType" : 5123,
            "count" : 114,
            "normalized" : true,
            "type" : "VEC4"
        },
        {
            "bufferView" : 37,
            "componentType" : 5123,
            "count" : 114,
            "type" : "SCALAR"
        },
        {
            "bufferView" : 38,
            "componentType" : 5126,
            "count" : 96,
            "max" : [
                0.6188380122184753,
                0.6199597716331482,
                0.41648730635643005
            ],
            "min" : [
                -0.4359576404094696,
                -0.6526165008544922,
                -0.6306664943695068
            ],
            "type" : "VEC3"
        },
        {
            "bufferView" : 39,
            "componentType" : 5126,
            "count" : 96,
            "type" : "VEC3"
        },
        {
            "bufferView" : 40,
            "componentType" : 5126,
            "count" : 96,
            "type" : "VEC2"
        },
        {
            "bufferView" : 41,
            "componentType" : 5123,
            "count" : 96,
            "normalized" : true,
            "type" : "VEC4"
        },
        {
            "bufferView" : 42,
            "componentType" : 5123,
            "count" : 96,
            "type" : "SCALAR"
        }
    ],
    "bufferViews" : [
        {
            "buffer" : 0,
            "byteLength" : 2388,
            "byteOffset" : 0
        },
        {
            "buffer" : 0,
            "byteLength" : 2388,
            "byteOffset" : 2388
        },
        {
            "buffer" : 0,
            "byteLength" : 1592,
            "byteOffset" : 4776
        },
        {
            "buffer" : 0,
            "byteLength" : 1592,
            "byteOffset" : 6368
        },
        {
            "buffer" : 0,
            "byteLength" : 408,
            "byteOffset" : 7960
        },
        {
            "buffer" : 0,
            "byteLength" : 11086,
            "byteOffset" : 8368
        },
        {
            "buffer" : 0,
            "byteLength" : 1560,
            "byteOffset" : 19456
        },
        {
            "buffer" : 0,
            "byteLength" : 1560,
            "byteOffset" : 21016
        },
        {
            "buffer" : 0,
            "byteLength" : 1040,
            "byteOffset" : 22576
        },
        {
            "buffer" : 0,
            "byteLength" : 1040,
            "byteOffset" : 23616
        },
        {
            "buffer" : 0,
            "byteLength" : 276,
            "byteOffset" : 24656
        },
        {
            "buffer" : 0,
            "byteLength" : 81162,
            "byteOffset" : 24932
        },
        {
            "buffer" : 0,
            "byteLength" : 792,
            "byteOffset" : 106096
        },
        {
            "buffer" : 0,
            "byteLength" : 792,
            "byteOffset" : 106888
        },
        {
            "buffer" : 0,
            "byteLength" : 528,
            "byteOffset" : 107680
        },
        {
            "buffer" : 0,
            "byteLength" : 528,
            "byteOffset" : 108208
        },
        {
            "buffer" : 0,
            "byteLength" : 132,
            "byteOffset" : 108736
        },
        {
            "buffer" : 0,
            "byteLength" : 21792,
            "byteOffset" : 108868
        },
        {
            "buffer" : 0,
            "byteLength" : 648,
            "byteOffset" : 130660
        },
        {
            "buffer" : 0,
            "byteLength" : 648,
            "byteOffset" : 131308
        },
        {
            "buffer" : 0,
            "byteLength" : 432,
            "byteOffset" : 131956
        },
        {
            "buffer" : 0,
            "byteLength" : 432,
            "byteOffset" : 132388
        },
        {
            "buffer" : 0,
            "byteLength" : 108,
            "byteOffset" : 132820
        },
        {
            "buffer" : 0,
            "byteLength" : 1008,
            "byteOffset" : 132928
        },
        {
            "buffer" : 0,
            "byteLength" : 1008,
            "byteOffset" : 133936
        },
        {
            "buffer" : 0,
            "byteLength" : 672,
            "byteOffset" : 134944
        },
        {
            "buffer" : 0,
            "byteLength" : 672,
            "byteOffset" : 135616
        },
        {
            "buffer" : 0,
            "byteLength" : 168,
            "byteOffset" : 136288
        },
        {
            "buffer" : 0,
            "byteLength" : 864,
            "byteOffset" : 136456
        },
        {
            "buffer" : 0,
            "byteLength" : 864,
            "byteOffset" : 137320
        },
        {
            "buffer" : 0,
            "byteLength" : 576,
            "byteOffset" : 138184
        },
        {
            "buffer" : 0,
            "byteLength" : 576,
            "byteOffset" : 138760
        },
        {
            "buffer" : 0,
            "byteLength" : 144,
            "byteOffset" : 139336
        },
        {
            "buffer" : 0,
            "byteLength" : 1368,
            "byteOffset" : 139480
        },
        {
            "buffer" : 0,
            "byteLength" : 1368,
            "byteOffset" : 140848
        },
        {
            "buffer" : 0,
            "byteLength" : 912,
            "byteOffset" : 142216
        },
        {
            "buffer" : 0,
            "byteLength" : 912,
            "byteOffset" : 143128
        },
        {
            "buffer" : 0,
            "byteLength" : 228,
            "byteOffset" : 144040
        },
        {
            "buffer" : 0,
            "byteLength" : 1152,
            "byteOffset" : 144268
        },
        {
            "buffer" : 0,
            "byteLength" : 1152,
            "byteOffset" : 145420
        },
        {
            "buffer" : 0,
            "byteLength" : 768,
            "byteOffset" : 146572
        },
        {
            "buffer" : 0,
            "byteLength" : 768,
            "byteOffset" : 147340
        },
        {
            "buffer" : 0,
            "byteLength" : 192,
            "byteOffset" : 148108
        }
    ],
    "samplers" : [
        {
            "magFilter" : 9729,
            "minFilter" : 9987
        }
    ],
    "buffers" : [
        {
            "byteLength" : 148300,
            "uri" : "data:application/octet-stream;base64,"
        }
    ]
}
