{
    "asset" : {
        "generator" : "Khronos glTF Blender I/O v1.8.19",
        "version" : "2.0"
    },
    "scene" : 0,
    "scenes" : [
        {
            "name" : "Scene",
            "nodes" : [
                0,
                1
            ]
        }
    ],
    "nodes" : [
        {
            "mesh" : 0,
            "name" : "Floor"
        },
        {
            "mesh" : 1,
            "name" : "Wall"
        }
    ],
    "meshes" : [
        {
            "name" : "Floor",
            "primitives" : [
                {
                    "attributes" : {
                        "POSITION" : 0,
                        "NORMAL" : 1
                    },
                    "indices" : 2
                }
            ]
        },
        {
            "name" : "Wall",
            "primitives" : [
                {
                    "attributes" : {
                        "POSITION" : 3,
                        "NORMAL" : 4
                    },
                    "indices" : 5
                }
            ]
        }
    ],
    "accessors" : [
        {
            "bufferView" : 0,
            "componentType" : 5126,
            "count" : 373,
            "max" : [
                658.5350952148438,
                19.03588104248047,
                24.25836181640625
            ],
            "min" : [
                -216.1636505126953,
                -103.99826049804688,
                -526.9827270507812
            ],
            "type" : "VEC3"
        },
        {
            "bufferView" : 1,
            "componentType" : 5126,
            "count" : 373,
            "type" : "VEC3"
        },
        {
            "bufferView" : 2,
            "componentType" : 5123,
            "count" : 816,
            "type" : "SCALAR"
        },
        {
            "bufferView" : 3,
            "componentType" : 5126,
            "count" : 437,
            "max" : [
                658.5350952148438,
                20.231069564819336,
                4.440196990966797
            ],
            "min" : [
                -217.11143493652344,
                -104.02345275878906,
                -525.5805053710938
            ],
            "type" : "VEC3"
        },
        {
            "bufferView" : 4,
            "componentType" : 5126,
            "count" : 437,
            "type" : "VEC3"
        },
        {
            "bufferView" : 5,
            "componentType" : 5123,
            "count" : 783,
            "type" : "SCALAR"
        }
    ],
    "bufferViews" : [
        {
            "buffer" : 0,
            "byteLength" : 4476,
            "byteOffset" : 0
        },
        {
            "buffer" : 0,
            "byteLength" : 4476,
            "byteOffset" : 4476
        },
        {
            "buffer" : 0,
            "byteLength" : 1632,
            "byteOffset" : 8952
        },
        {
            "buffer" : 0,
            "byteLength" : 5244,
            "byteOffset" : 10584
        },
        {
            "buffer" : 0,
            "byteLength" : 5244,
            "byteOffset" : 15828
        },
        {
            "buffer" : 0,
            "byteLength" : 1566,
            "byteOffset" : 21072
        }
    ],
    "buffers" : [
        {
            "byteLength" : 22640,
            "uri" : "data:application/octet-stream;base64,"
        }
    ]
}
