{
    "asset" : {
        "generator" : "Khronos glTF Blender I/O v1.8.19",
        "version" : "2.0"
    },
    "scene" : 0,
    "scenes" : [
        {
            "name" : "Scene",
            "nodes" : [
                0,
                1
            ]
        }
    ],
    "nodes" : [
        {
            "mesh" : 0,
            "name" : "Floor"
        },
        {
            "mesh" : 1,
            "name" : "Wall"
        }
    ],
    "meshes" : [
        {
            "name" : "Ground",
            "primitives" : [
                {
                    "attributes" : {
                        "POSITION" : 0,
                        "NORMAL" : 1
                    },
                    "indices" : 2
                }
            ]
        },
        {
            "name" : "Wall",
            "primitives" : [
                {
                    "attributes" : {
                        "POSITION" : 3,
                        "NORMAL" : 4
                    },
                    "indices" : 5
                }
            ]
        }
    ],
    "accessors" : [
        {
            "bufferView" : 0,
            "componentType" : 5126,
            "count" : 196,
            "max" : [
                1618.2640380859375,
                15.98708724975586,
                -290.1002197265625
            ],
            "min" : [
                1397.3846435546875,
                -44.14896011352539,
                -586.1207275390625
            ],
            "type" : "VEC3"
        },
        {
            "bufferView" : 1,
            "componentType" : 5126,
            "count" : 196,
            "type" : "VEC3"
        },
        {
            "bufferView" : 2,
            "componentType" : 5123,
            "count" : 402,
            "type" : "SCALAR"
        },
        {
            "bufferView" : 3,
            "componentType" : 5126,
            "count" : 565,
            "max" : [
                1602.6207275390625,
                27.812334060668945,
                -290.1002502441406
            ],
            "min" : [
                1402.3846435546875,
                -44.14896011352539,
                -572.8240356445312
            ],
            "type" : "VEC3"
        },
        {
            "bufferView" : 4,
            "componentType" : 5126,
            "count" : 565,
            "type" : "VEC3"
        },
        {
            "bufferView" : 5,
            "componentType" : 5123,
            "count" : 1077,
            "type" : "SCALAR"
        }
    ],
    "bufferViews" : [
        {
            "buffer" : 0,
            "byteLength" : 2352,
            "byteOffset" : 0
        },
        {
            "buffer" : 0,
            "byteLength" : 2352,
            "byteOffset" : 2352
        },
        {
            "buffer" : 0,
            "byteLength" : 804,
            "byteOffset" : 4704
        },
        {
            "buffer" : 0,
            "byteLength" : 6780,
            "byteOffset" : 5508
        },
        {
            "buffer" : 0,
            "byteLength" : 6780,
            "byteOffset" : 12288
        },
        {
            "buffer" : 0,
            "byteLength" : 2154,
            "byteOffset" : 19068
        }
    ],
    "buffers" : [
        {
            "byteLength" : 21224,
            "uri" : "data:application/octet-stream;base64,"
        }
    ]
}
