{
    "asset" : {
        "generator" : "Khronos glTF Blender I/O v3.3.27",
        "version" : "2.0"
    },
    "scene" : 0,
    "scenes" : [
        {
            "name" : "Scene",
            "nodes" : [
                0,
                1,
                2,
                3,
                4,
                5
            ]
        }
    ],
    "nodes" : [
        {
            "mesh" : 0,
            "name" : "Wall"
        },
        {
            "mesh" : 1,
            "name" : "FloorPavement1"
        },
        {
            "mesh" : 2,
            "name" : "FloorWood"
        },
        {
            "mesh" : 3,
            "name" : "FloorGrass"
        },
        {
            "mesh" : 4,
            "name" : "FloorPavement2"
        },
        {
            "mesh" : 5,
            "name" : "FloorDino"
        }
    ],
    "meshes" : [
        {
            "name" : "Wall",
            "primitives" : [
                {
                    "attributes" : {
                        "POSITION" : 0,
                        "NORMAL" : 1
                    },
                    "indices" : 2
                }
            ]
        },
        {
            "name" : "FloorPavement1",
            "primitives" : [
                {
                    "attributes" : {
                        "POSITION" : 3,
                        "NORMAL" : 4
                    },
                    "indices" : 5
                }
            ]
        },
        {
            "name" : "FloorWood",
            "primitives" : [
                {
                    "attributes" : {
                        "POSITION" : 6,
                        "NORMAL" : 7
                    },
                    "indices" : 8
                }
            ]
        },
        {
            "name" : "FloorGrass",
            "primitives" : [
                {
                    "attributes" : {
                        "POSITION" : 9,
                        "NORMAL" : 10
                    },
                    "indices" : 11
                }
            ]
        },
        {
            "name" : "FloorPavement2",
            "primitives" : [
                {
                    "attributes" : {
                        "POSITION" : 12,
                        "NORMAL" : 13
                    },
                    "indices" : 14
                }
            ]
        },
        {
            "name" : "FloorDino",
            "primitives" : [
                {
                    "attributes" : {
                        "POSITION" : 15,
                        "NORMAL" : 16
                    },
                    "indices" : 17
                }
            ]
        }
    ],
    "accessors" : [
        {
            "bufferView" : 0,
            "componentType" : 5126,
            "count" : 6634,
            "max" : [
                7.450167655944824,
                25.415752410888672,
                93.21631622314453
            ],
            "min" : [
                -892.1873779296875,
                -285.95458984375,
                -1177.4393310546875
            ],
            "type" : "VEC3"
        },
        {
            "bufferView" : 1,
            "componentType" : 5126,
            "count" : 6634,
            "type" : "VEC3"
        },
        {
            "bufferView" : 2,
            "componentType" : 5123,
            "count" : 9972,
            "type" : "SCALAR"
        },
        {
            "bufferView" : 3,
            "componentType" : 5126,
            "count" : 5959,
            "max" : [
                12.019407272338867,
                5.793828010559082,
                96.01731872558594
            ],
            "min" : [
                -450.318603515625,
                -266.5970153808594,
                -915.565185546875
            ],
            "type" : "VEC3"
        },
        {
            "bufferView" : 4,
            "componentType" : 5126,
            "count" : 5959,
            "type" : "VEC3"
        },
        {
            "bufferView" : 5,
            "componentType" : 5123,
            "count" : 14931,
            "type" : "SCALAR"
        },
        {
            "bufferView" : 6,
            "componentType" : 5126,
            "count" : 36,
            "max" : [
                -188.9795379638672,
                -40.23957824707031,
                -487.07843017578125
            ],
            "min" : [
                -431.77960205078125,
                -265.05902099609375,
                -964.5554809570312
            ],
            "type" : "VEC3"
        },
        {
            "bufferView" : 7,
            "componentType" : 5126,
            "count" : 36,
            "type" : "VEC3"
        },
        {
            "bufferView" : 8,
            "componentType" : 5123,
            "count" : 54,
            "type" : "SCALAR"
        },
        {
            "bufferView" : 9,
            "componentType" : 5126,
            "count" : 2431,
            "max" : [
                -272.43304443359375,
                -245.64886474609375,
                -914.799072265625
            ],
            "min" : [
                -894.3561401367188,
                -279.9961242675781,
                -1187.322509765625
            ],
            "type" : "VEC3"
        },
        {
            "bufferView" : 10,
            "componentType" : 5126,
            "count" : 2431,
            "type" : "VEC3"
        },
        {
            "bufferView" : 11,
            "componentType" : 5123,
            "count" : 2454,
            "type" : "SCALAR"
        },
        {
            "bufferView" : 12,
            "componentType" : 5126,
            "count" : 948,
            "max" : [
                -456.960205078125,
                -262.9493103027344,
                -1042.5760498046875
            ],
            "min" : [
                -721.8980102539062,
                -280.9962158203125,
                -1141.036865234375
            ],
            "type" : "VEC3"
        },
        {
            "bufferView" : 13,
            "componentType" : 5126,
            "count" : 948,
            "type" : "VEC3"
        },
        {
            "bufferView" : 14,
            "componentType" : 5123,
            "count" : 1416,
            "type" : "SCALAR"
        },
        {
            "bufferView" : 15,
            "componentType" : 5126,
            "count" : 64,
            "max" : [
                -279.2215881347656,
                -251.6158447265625,
                -984.9818115234375
            ],
            "min" : [
                -295.9136657714844,
                -277.0282287597656,
                -1075.91162109375
            ],
            "type" : "VEC3"
        },
        {
            "bufferView" : 16,
            "componentType" : 5126,
            "count" : 64,
            "type" : "VEC3"
        },
        {
            "bufferView" : 17,
            "componentType" : 5123,
            "count" : 186,
            "type" : "SCALAR"
        }
    ],
    "bufferViews" : [
        {
            "buffer" : 0,
            "byteLength" : 79608,
            "byteOffset" : 0,
            "target" : 34962
        },
        {
            "buffer" : 0,
            "byteLength" : 79608,
            "byteOffset" : 79608,
            "target" : 34962
        },
        {
            "buffer" : 0,
            "byteLength" : 19944,
            "byteOffset" : 159216,
            "target" : 34963
        },
        {
            "buffer" : 0,
            "byteLength" : 71508,
            "byteOffset" : 179160,
            "target" : 34962
        },
        {
            "buffer" : 0,
            "byteLength" : 71508,
            "byteOffset" : 250668,
            "target" : 34962
        },
        {
            "buffer" : 0,
            "byteLength" : 29862,
            "byteOffset" : 322176,
            "target" : 34963
        },
        {
            "buffer" : 0,
            "byteLength" : 432,
            "byteOffset" : 352040,
            "target" : 34962
        },
        {
            "buffer" : 0,
            "byteLength" : 432,
            "byteOffset" : 352472,
            "target" : 34962
        },
        {
            "buffer" : 0,
            "byteLength" : 108,
            "byteOffset" : 352904,
            "target" : 34963
        },
        {
            "buffer" : 0,
            "byteLength" : 29172,
            "byteOffset" : 353012,
            "target" : 34962
        },
        {
            "buffer" : 0,
            "byteLength" : 29172,
            "byteOffset" : 382184,
            "target" : 34962
        },
        {
            "buffer" : 0,
            "byteLength" : 4908,
            "byteOffset" : 411356,
            "target" : 34963
        },
        {
            "buffer" : 0,
            "byteLength" : 11376,
            "byteOffset" : 416264,
            "target" : 34962
        },
        {
            "buffer" : 0,
            "byteLength" : 11376,
            "byteOffset" : 427640,
            "target" : 34962
        },
        {
            "buffer" : 0,
            "byteLength" : 2832,
            "byteOffset" : 439016,
            "target" : 34963
        },
        {
            "buffer" : 0,
            "byteLength" : 768,
            "byteOffset" : 441848,
            "target" : 34962
        },
        {
            "buffer" : 0,
            "byteLength" : 768,
            "byteOffset" : 442616,
            "target" : 34962
        },
        {
            "buffer" : 0,
            "byteLength" : 372,
            "byteOffset" : 443384,
            "target" : 34963
        }
    ],
    "buffers" : [
        {
            "byteLength" : 443756,
            "uri" : "data:application/octet-stream;base64,"
        }
    ]
}
