{
    "asset" : {
        "generator" : "Khronos glTF Blender I/O v3.3.27",
        "version" : "2.0"
    },
    "extensionsUsed" : [
        "KHR_materials_specular",
        "KHR_materials_ior"
    ],
    "scene" : 0,
    "scenes" : [
        {
            "name" : "Scene",
            "nodes" : [
                0,
                1,
                2
            ]
        }
    ],
    "nodes" : [
        {
            "mesh" : 0,
            "name" : "CactusPiece1"
        },
        {
            "mesh" : 1,
            "name" : "CactusPiece2"
        },
        {
            "mesh" : 2,
            "name" : "CactusPiece3"
        }
    ],
    "materials" : [
        {
            "extensions" : {
                "KHR_materials_specular" : {
                    "specularColorFactor" : [
                        0,
                        0,
                        0
                    ]
                },
                "KHR_materials_ior" : {
                    "ior" : 1.4500000476837158
                }
            },
            "name" : "Cactus Obstacle",
            "pbrMetallicRoughness" : {
                "baseColorTexture" : {
                    "index" : 0
                },
                "metallicFactor" : 0
            }
        },
        {
            "doubleSided" : true,
            "extensions" : {
                "KHR_materials_specular" : {
                    "specularColorFactor" : [
                        0,
                        0,
                        0
                    ]
                },
                "KHR_materials_ior" : {
                    "ior" : 1.4500000476837158
                }
            },
            "name" : "Cactus Obstacle Inside",
            "pbrMetallicRoughness" : {
                "baseColorTexture" : {
                    "index" : 1
                },
                "metallicFactor" : 0
            }
        },
        {
            "alphaCutoff" : 0.5,
            "alphaMode" : "MASK",
            "doubleSided" : true,
            "extensions" : {
                "KHR_materials_specular" : {
                    "specularColorFactor" : [
                        0,
                        0,
                        0
                    ]
                },
                "KHR_materials_ior" : {
                    "ior" : 1.4500000476837158
                }
            },
            "name" : "Cactus Obstacle Spikes",
            "pbrMetallicRoughness" : {
                "baseColorTexture" : {
                    "index" : 2
                },
                "metallicFactor" : 0
            }
        }
    ],
    "meshes" : [
        {
            "name" : "CactusPiece1",
            "primitives" : [
                {
                    "attributes" : {
                        "POSITION" : 0,
                        "NORMAL" : 1,
                        "TEXCOORD_0" : 2,
                        "COLOR_0" : 3
                    },
                    "indices" : 4,
                    "material" : 0
                },
                {
                    "attributes" : {
                        "POSITION" : 5,
                        "NORMAL" : 6,
                        "TEXCOORD_0" : 7,
                        "COLOR_0" : 8
                    },
                    "indices" : 9,
                    "material" : 1
                },
                {
                    "attributes" : {
                        "POSITION" : 10,
                        "NORMAL" : 11,
                        "TEXCOORD_0" : 12,
                        "COLOR_0" : 13
                    },
                    "indices" : 14,
                    "material" : 2
                }
            ]
        },
        {
            "name" : "CactusPiece2",
            "primitives" : [
                {
                    "attributes" : {
                        "POSITION" : 15,
                        "NORMAL" : 16,
                        "TEXCOORD_0" : 17,
                        "COLOR_0" : 18
                    },
                    "indices" : 19,
                    "material" : 0
                },
                {
                    "attributes" : {
                        "POSITION" : 20,
                        "NORMAL" : 21,
                        "TEXCOORD_0" : 22,
                        "COLOR_0" : 23
                    },
                    "indices" : 24,
                    "material" : 1
                },
                {
                    "attributes" : {
                        "POSITION" : 25,
                        "NORMAL" : 26,
                        "TEXCOORD_0" : 27,
                        "COLOR_0" : 28
                    },
                    "indices" : 29,
                    "material" : 2
                }
            ]
        },
        {
            "name" : "CactusPiece3",
            "primitives" : [
                {
                    "attributes" : {
                        "POSITION" : 30,
                        "NORMAL" : 31,
                        "TEXCOORD_0" : 32,
                        "COLOR_0" : 33
                    },
                    "indices" : 34,
                    "material" : 0
                },
                {
                    "attributes" : {
                        "POSITION" : 35,
                        "NORMAL" : 36,
                        "TEXCOORD_0" : 37,
                        "COLOR_0" : 38
                    },
                    "indices" : 39,
                    "material" : 1
                },
                {
                    "attributes" : {
                        "POSITION" : 40,
                        "NORMAL" : 41,
                        "TEXCOORD_0" : 42,
                        "COLOR_0" : 43
                    },
                    "indices" : 44,
                    "material" : 2
                }
            ]
        }
    ],
    "textures" : [
        {
            "sampler" : 0,
            "source" : 0
        },
        {
            "sampler" : 0,
            "source" : 1
        },
        {
            "sampler" : 0,
            "source" : 2
        }
    ],
    "images" : [
        {
            "bufferView" : 5,
            "mimeType" : "image/png",
            "name" : "cactus obstacle"
        },
        {
            "bufferView" : 11,
            "mimeType" : "image/png",
            "name" : "cactus obstacle inside"
        },
        {
            "bufferView" : 17,
            "mimeType" : "image/png",
            "name" : "cactus obstacle spikes"
        }
    ],
    "accessors" : [
        {
            "bufferView" : 0,
            "componentType" : 5126,
            "count" : 49,
            "max" : [
                0.8569709062576294,
                0.4074975550174713,
                0.759231448173523
            ],
            "min" : [
                -0.5932466983795166,
                -0.5791886448860168,
                -0.5528770685195923
            ],
            "type" : "VEC3"
        },
        {
            "bufferView" : 1,
            "componentType" : 5126,
            "count" : 49,
            "type" : "VEC3"
        },
        {
            "bufferView" : 2,
            "componentType" : 5126,
            "count" : 49,
            "type" : "VEC2"
        },
        {
            "bufferView" : 3,
            "componentType" : 5123,
            "count" : 49,
            "normalized" : true,
            "type" : "VEC4"
        },
        {
            "bufferView" : 4,
            "componentType" : 5123,
            "count" : 147,
            "type" : "SCALAR"
        },
        {
            "bufferView" : 6,
            "componentType" : 5126,
            "count" : 32,
            "max" : [
                0.8569709062576294,
                0.29380613565444946,
                0.759231448173523
            ],
            "min" : [
                -0.5932466983795166,
                -0.5791886448860168,
                -0.5528770685195923
            ],
            "type" : "VEC3"
        },
        {
            "bufferView" : 7,
            "componentType" : 5126,
            "count" : 32,
            "type" : "VEC3"
        },
        {
            "bufferView" : 8,
            "componentType" : 5126,
            "count" : 32,
            "type" : "VEC2"
        },
        {
            "bufferView" : 9,
            "componentType" : 5123,
            "count" : 32,
            "normalized" : true,
            "type" : "VEC4"
        },
        {
            "bufferView" : 10,
            "componentType" : 5123,
            "count" : 60,
            "type" : "SCALAR"
        },
        {
            "bufferView" : 12,
            "componentType" : 5126,
            "count" : 46,
            "max" : [
                0.6163451671600342,
                0.5791887044906616,
                0.44583505392074585
            ],
            "min" : [
                -0.8569709062576294,
                -0.5791886448860168,
                -0.7592294216156006
            ],
            "type" : "VEC3"
        },
        {
            "bufferView" : 13,
            "componentType" : 5126,
            "count" : 46,
            "type" : "VEC3"
        },
        {
            "bufferView" : 14,
            "componentType" : 5126,
            "count" : 46,
            "type" : "VEC2"
        },
        {
            "bufferView" : 15,
            "componentType" : 5123,
            "count" : 46,
            "normalized" : true,
            "type" : "VEC4"
        },
        {
            "bufferView" : 16,
            "componentType" : 5123,
            "count" : 84,
            "type" : "SCALAR"
        },
        {
            "bufferView" : 18,
            "componentType" : 5126,
            "count" : 20,
            "max" : [
                0.5365971922874451,
                0.646608829498291,
                0.506763219833374
            ],
            "min" : [
                -0.30694347620010376,
                -0.7019384503364563,
                -0.35717231035232544
            ],
            "type" : "VEC3"
        },
        {
            "bufferView" : 19,
            "componentType" : 5126,
            "count" : 20,
            "type" : "VEC3"
        },
        {
            "bufferView" : 20,
            "componentType" : 5126,
            "count" : 20,
            "type" : "VEC2"
        },
        {
            "bufferView" : 21,
            "componentType" : 5123,
            "count" : 20,
            "normalized" : true,
            "type" : "VEC4"
        },
        {
            "bufferView" : 22,
            "componentType" : 5123,
            "count" : 54,
            "type" : "SCALAR"
        },
        {
            "bufferView" : 23,
            "componentType" : 5126,
            "count" : 18,
            "max" : [
                0.5365971922874451,
                0.6417780518531799,
                0.506763219833374
            ],
            "min" : [
                -0.30694347620010376,
                -0.7019384503364563,
                -0.3382273316383362
            ],
            "type" : "VEC3"
        },
        {
            "bufferView" : 24,
            "componentType" : 5126,
            "count" : 18,
            "type" : "VEC3"
        },
        {
            "bufferView" : 25,
            "componentType" : 5126,
            "count" : 18,
            "type" : "VEC2"
        },
        {
            "bufferView" : 26,
            "componentType" : 5123,
            "count" : 18,
            "normalized" : true,
            "type" : "VEC4"
        },
        {
            "bufferView" : 27,
            "componentType" : 5123,
            "count" : 48,
            "type" : "SCALAR"
        },
        {
            "bufferView" : 28,
            "componentType" : 5126,
            "count" : 20,
            "max" : [
                0.4021754860877991,
                0.7665255069732666,
                0.36669671535491943
            ],
            "min" : [
                -0.5365971922874451,
                -0.7665250301361084,
                -0.5067619681358337
            ],
            "type" : "VEC3"
        },
        {
            "bufferView" : 29,
            "componentType" : 5126,
            "count" : 20,
            "type" : "VEC3"
        },
        {
            "bufferView" : 30,
            "componentType" : 5126,
            "count" : 20,
            "type" : "VEC2"
        },
        {
            "bufferView" : 31,
            "componentType" : 5123,
            "count" : 20,
            "normalized" : true,
            "type" : "VEC4"
        },
        {
            "bufferView" : 32,
            "componentType" : 5123,
            "count" : 36,
            "type" : "SCALAR"
        },
        {
            "bufferView" : 33,
            "componentType" : 5126,
            "count" : 35,
            "max" : [
                0.4668123424053192,
                0.3688322603702545,
                0.6621297597885132
            ],
            "min" : [
                -0.32440680265426636,
                -0.540523886680603,
                -0.4521399140357971
            ],
            "type" : "VEC3"
        },
        {
            "bufferView" : 34,
            "componentType" : 5126,
            "count" : 35,
            "type" : "VEC3"
        },
        {
            "bufferView" : 35,
            "componentType" : 5126,
            "count" : 35,
            "type" : "VEC2"
        },
        {
            "bufferView" : 36,
            "componentType" : 5123,
            "count" : 35,
            "normalized" : true,
            "type" : "VEC4"
        },
        {
            "bufferView" : 37,
            "componentType" : 5123,
            "count" : 96,
            "type" : "SCALAR"
        },
        {
            "bufferView" : 38,
            "componentType" : 5126,
            "count" : 35,
            "max" : [
                0.4668123424053192,
                0.306918740272522,
                0.6621297597885132
            ],
            "min" : [
                -0.32440680265426636,
                -0.540523886680603,
                -0.4521399140357971
            ],
            "type" : "VEC3"
        },
        {
            "bufferView" : 39,
            "componentType" : 5126,
            "count" : 35,
            "type" : "VEC3"
        },
        {
            "bufferView" : 40,
            "componentType" : 5126,
            "count" : 35,
            "type" : "VEC2"
        },
        {
            "bufferView" : 41,
            "componentType" : 5123,
            "count" : 35,
            "normalized" : true,
            "type" : "VEC4"
        },
        {
            "bufferView" : 42,
            "componentType" : 5123,
            "count" : 66,
            "type" : "SCALAR"
        },
        {
            "bufferView" : 43,
            "componentType" : 5126,
            "count" : 26,
            "max" : [
                0.2721358835697174,
                0.5405250191688538,
                0.5069781541824341
            ],
            "min" : [
                -0.46681252121925354,
                -0.540523886680603,
                -0.6621307730674744
            ],
            "type" : "VEC3"
        },
        {
            "bufferView" : 44,
            "componentType" : 5126,
            "count" : 26,
            "type" : "VEC3"
        },
        {
            "bufferView" : 45,
            "componentType" : 5126,
            "count" : 26,
            "type" : "VEC2"
        },
        {
            "bufferView" : 46,
            "componentType" : 5123,
            "count" : 26,
            "normalized" : true,
            "type" : "VEC4"
        },
        {
            "bufferView" : 47,
            "componentType" : 5123,
            "count" : 48,
            "type" : "SCALAR"
        }
    ],
    "bufferViews" : [
        {
            "buffer" : 0,
            "byteLength" : 588,
            "byteOffset" : 0,
            "target" : 34962
        },
        {
            "buffer" : 0,
            "byteLength" : 588,
            "byteOffset" : 588,
            "target" : 34962
        },
        {
            "buffer" : 0,
            "byteLength" : 392,
            "byteOffset" : 1176,
            "target" : 34962
        },
        {
            "buffer" : 0,
            "byteLength" : 392,
            "byteOffset" : 1568,
            "target" : 34962
        },
        {
            "buffer" : 0,
            "byteLength" : 294,
            "byteOffset" : 1960,
            "target" : 34963
        },
        {
            "buffer" : 0,
            "byteLength" : 20439,
            "byteOffset" : 2256
        },
        {
            "buffer" : 0,
            "byteLength" : 384,
            "byteOffset" : 22696,
            "target" : 34962
        },
        {
            "buffer" : 0,
            "byteLength" : 384,
            "byteOffset" : 23080,
            "target" : 34962
        },
        {
            "buffer" : 0,
            "byteLength" : 256,
            "byteOffset" : 23464,
            "target" : 34962
        },
        {
            "buffer" : 0,
            "byteLength" : 256,
            "byteOffset" : 23720,
            "target" : 34962
        },
        {
            "buffer" : 0,
            "byteLength" : 120,
            "byteOffset" : 23976,
            "target" : 34963
        },
        {
            "buffer" : 0,
            "byteLength" : 5858,
            "byteOffset" : 24096
        },
        {
            "buffer" : 0,
            "byteLength" : 552,
            "byteOffset" : 29956,
            "target" : 34962
        },
        {
            "buffer" : 0,
            "byteLength" : 552,
            "byteOffset" : 30508,
            "target" : 34962
        },
        {
            "buffer" : 0,
            "byteLength" : 368,
            "byteOffset" : 31060,
            "target" : 34962
        },
        {
            "buffer" : 0,
            "byteLength" : 368,
            "byteOffset" : 31428,
            "target" : 34962
        },
        {
            "buffer" : 0,
            "byteLength" : 168,
            "byteOffset" : 31796,
            "target" : 34963
        },
        {
            "buffer" : 0,
            "byteLength" : 2669,
            "byteOffset" : 31964
        },
        {
            "buffer" : 0,
            "byteLength" : 240,
            "byteOffset" : 34636,
            "target" : 34962
        },
        {
            "buffer" : 0,
            "byteLength" : 240,
            "byteOffset" : 34876,
            "target" : 34962
        },
        {
            "buffer" : 0,
            "byteLength" : 160,
            "byteOffset" : 35116,
            "target" : 34962
        },
        {
            "buffer" : 0,
            "byteLength" : 160,
            "byteOffset" : 35276,
            "target" : 34962
        },
        {
            "buffer" : 0,
            "byteLength" : 108,
            "byteOffset" : 35436,
            "target" : 34963
        },
        {
            "buffer" : 0,
            "byteLength" : 216,
            "byteOffset" : 35544,
            "target" : 34962
        },
        {
            "buffer" : 0,
            "byteLength" : 216,
            "byteOffset" : 35760,
            "target" : 34962
        },
        {
            "buffer" : 0,
            "byteLength" : 144,
            "byteOffset" : 35976,
            "target" : 34962
        },
        {
            "buffer" : 0,
            "byteLength" : 144,
            "byteOffset" : 36120,
            "target" : 34962
        },
        {
            "buffer" : 0,
            "byteLength" : 96,
            "byteOffset" : 36264,
            "target" : 34963
        },
        {
            "buffer" : 0,
            "byteLength" : 240,
            "byteOffset" : 36360,
            "target" : 34962
        },
        {
            "buffer" : 0,
            "byteLength" : 240,
            "byteOffset" : 36600,
            "target" : 34962
        },
        {
            "buffer" : 0,
            "byteLength" : 160,
            "byteOffset" : 36840,
            "target" : 34962
        },
        {
            "buffer" : 0,
            "byteLength" : 160,
            "byteOffset" : 37000,
            "target" : 34962
        },
        {
            "buffer" : 0,
            "byteLength" : 72,
            "byteOffset" : 37160,
            "target" : 34963
        },
        {
            "buffer" : 0,
            "byteLength" : 420,
            "byteOffset" : 37232,
            "target" : 34962
        },
        {
            "buffer" : 0,
            "byteLength" : 420,
            "byteOffset" : 37652,
            "target" : 34962
        },
        {
            "buffer" : 0,
            "byteLength" : 280,
            "byteOffset" : 38072,
            "target" : 34962
        },
        {
            "buffer" : 0,
            "byteLength" : 280,
            "byteOffset" : 38352,
            "target" : 34962
        },
        {
            "buffer" : 0,
            "byteLength" : 192,
            "byteOffset" : 38632,
            "target" : 34963
        },
        {
            "buffer" : 0,
            "byteLength" : 420,
            "byteOffset" : 38824,
            "target" : 34962
        },
        {
            "buffer" : 0,
            "byteLength" : 420,
            "byteOffset" : 39244,
            "target" : 34962
        },
        {
            "buffer" : 0,
            "byteLength" : 280,
            "byteOffset" : 39664,
            "target" : 34962
        },
        {
            "buffer" : 0,
            "byteLength" : 280,
            "byteOffset" : 39944,
            "target" : 34962
        },
        {
            "buffer" : 0,
            "byteLength" : 132,
            "byteOffset" : 40224,
            "target" : 34963
        },
        {
            "buffer" : 0,
            "byteLength" : 312,
            "byteOffset" : 40356,
            "target" : 34962
        },
        {
            "buffer" : 0,
            "byteLength" : 312,
            "byteOffset" : 40668,
            "target" : 34962
        },
        {
            "buffer" : 0,
            "byteLength" : 208,
            "byteOffset" : 40980,
            "target" : 34962
        },
        {
            "buffer" : 0,
            "byteLength" : 208,
            "byteOffset" : 41188,
            "target" : 34962
        },
        {
            "buffer" : 0,
            "byteLength" : 96,
            "byteOffset" : 41396,
            "target" : 34963
        }
    ],
    "samplers" : [
        {
            "magFilter" : 9729,
            "minFilter" : 9987
        }
    ],
    "buffers" : [
        {
            "byteLength" : 41492,
            "uri" : "data:application/octet-stream;base64,"
        }
    ]
}
