{
    "asset" : {
        "generator" : "Khronos glTF Blender I/O v3.3.27",
        "version" : "2.0"
    },
    "scene" : 0,
    "scenes" : [
        {
            "name" : "Scene",
            "nodes" : [
                0,
                1
            ]
        }
    ],
    "nodes" : [
        {
            "mesh" : 0,
            "name" : "Floor",
            "translation" : [
                -4.514130115509033,
                -40.06315231323242,
                -74.19071197509766
            ]
        },
        {
            "mesh" : 1,
            "name" : "Wall",
            "translation" : [
                -4.514130115509033,
                -40.06315231323242,
                -74.19071197509766
            ]
        }
    ],
    "meshes" : [
        {
            "name" : "Floor",
            "primitives" : [
                {
                    "attributes" : {
                        "POSITION" : 0,
                        "NORMAL" : 1
                    },
                    "indices" : 2
                }
            ]
        },
        {
            "name" : "Wall",
            "primitives" : [
                {
                    "attributes" : {
                        "POSITION" : 3,
                        "NORMAL" : 4
                    },
                    "indices" : 5
                }
            ]
        }
    ],
    "accessors" : [
        {
            "bufferView" : 0,
            "componentType" : 5126,
            "count" : 548,
            "max" : [
                221.5142059326172,
                80.06417083740234,
                64.19027709960938
            ],
            "min" : [
                -215.48782348632812,
                -19.936279296875,
                -378.6069030761719
            ],
            "type" : "VEC3"
        },
        {
            "bufferView" : 1,
            "componentType" : 5126,
            "count" : 548,
            "type" : "VEC3"
        },
        {
            "bufferView" : 2,
            "componentType" : 5123,
            "count" : 828,
            "type" : "SCALAR"
        },
        {
            "bufferView" : 3,
            "componentType" : 5126,
            "count" : 1270,
            "max" : [
                221.5142059326172,
                90.06417083740234,
                33.97826385498047
            ],
            "min" : [
                -155.5174102783203,
                -19.936279296875,
                -378.6069030761719
            ],
            "type" : "VEC3"
        },
        {
            "bufferView" : 4,
            "componentType" : 5126,
            "count" : 1270,
            "type" : "VEC3"
        },
        {
            "bufferView" : 5,
            "componentType" : 5123,
            "count" : 1782,
            "type" : "SCALAR"
        }
    ],
    "bufferViews" : [
        {
            "buffer" : 0,
            "byteLength" : 6576,
            "byteOffset" : 0,
            "target" : 34962
        },
        {
            "buffer" : 0,
            "byteLength" : 6576,
            "byteOffset" : 6576,
            "target" : 34962
        },
        {
            "buffer" : 0,
            "byteLength" : 1656,
            "byteOffset" : 13152,
            "target" : 34963
        },
        {
            "buffer" : 0,
            "byteLength" : 15240,
            "byteOffset" : 14808,
            "target" : 34962
        },
        {
            "buffer" : 0,
            "byteLength" : 15240,
            "byteOffset" : 30048,
            "target" : 34962
        },
        {
            "buffer" : 0,
            "byteLength" : 3564,
            "byteOffset" : 45288,
            "target" : 34963
        }
    ],
    "buffers" : [
        {
            "byteLength" : 48852,
            "uri" : "data:application/octet-stream;base64,"
        }
    ]
}
