{
    "asset" : {
        "generator" : "Khronos glTF Blender I/O v3.3.36",
        "version" : "2.0"
    },
    "scene" : 0,
    "scenes" : [
        {
            "name" : "Scene",
            "nodes" : [
                0
            ]
        }
    ],
    "nodes" : [
        {
            "mesh" : 0,
            "name" : "GargoylePlatformMesh"
        }
    ],
    "materials" : [
        {
            "doubleSided" : true,
            "name" : "Gargoyle Platform",
            "pbrMetallicRoughness" : {
                "baseColorFactor" : [
                    0,
                    0,
                    0,
                    1
                ],
                "metallicFactor" : 0
            }
        }
    ],
    "meshes" : [
        {
            "name" : "GargoylePlatformMesh",
            "primitives" : [
                {
                    "attributes" : {
                        "POSITION" : 0,
                        "NORMAL" : 1,
                        "TEXCOORD_0" : 2,
                        "TEXCOORD_1" : 3,
                        "COLOR_0" : 4
                    },
                    "indices" : 5,
                    "material" : 0
                }
            ]
        }
    ],
    "accessors" : [
        {
            "bufferView" : 0,
            "componentType" : 5126,
            "count" : 432,
            "max" : [
                0.721549391746521,
                2.0150091648101807,
                0.7277467846870422
            ],
            "min" : [
                -0.727740466594696,
                -2.5597200874472037e-06,
                -0.7215480208396912
            ],
            "type" : "VEC3"
        },
        {
            "bufferView" : 1,
            "componentType" : 5126,
            "count" : 432,
            "type" : "VEC3"
        },
        {
            "bufferView" : 2,
            "componentType" : 5126,
            "count" : 432,
            "type" : "VEC2"
        },
        {
            "bufferView" : 3,
            "componentType" : 5126,
            "count" : 432,
            "type" : "VEC2"
        },
        {
            "bufferView" : 4,
            "componentType" : 5123,
            "count" : 432,
            "normalized" : true,
            "type" : "VEC4"
        },
        {
            "bufferView" : 5,
            "componentType" : 5123,
            "count" : 432,
            "type" : "SCALAR"
        }
    ],
    "bufferViews" : [
        {
            "buffer" : 0,
            "byteLength" : 5184,
            "byteOffset" : 0,
            "target" : 34962
        },
        {
            "buffer" : 0,
            "byteLength" : 5184,
            "byteOffset" : 5184,
            "target" : 34962
        },
        {
            "buffer" : 0,
            "byteLength" : 3456,
            "byteOffset" : 10368,
            "target" : 34962
        },
        {
            "buffer" : 0,
            "byteLength" : 3456,
            "byteOffset" : 13824,
            "target" : 34962
        },
        {
            "buffer" : 0,
            "byteLength" : 3456,
            "byteOffset" : 17280,
            "target" : 34962
        },
        {
            "buffer" : 0,
            "byteLength" : 864,
            "byteOffset" : 20736,
            "target" : 34963
        }
    ],
    "buffers" : [
        {
            "byteLength" : 21600,
            "uri" : "data:application/octet-stream;base64,"
        }
    ]
}
