{
    "asset" : {
        "generator" : "Khronos glTF Blender I/O v3.3.36",
        "version" : "2.0"
    },
    "extensionsUsed" : [
        "KHR_materials_specular",
        "KHR_materials_ior"
    ],
    "scene" : 0,
    "scenes" : [
        {
            "name" : "Scene",
            "nodes" : [
                0,
                1,
                2,
                3
            ]
        }
    ],
    "nodes" : [
        {
            "mesh" : 0,
            "name" : "RoundPillarPiece1Mesh",
            "translation" : [
                0,
                6.449880599975586,
                0
            ]
        },
        {
            "mesh" : 1,
            "name" : "RoundPillarPiece2Mesh",
            "translation" : [
                0,
                5.197967052459717,
                0
            ]
        },
        {
            "mesh" : 2,
            "name" : "RoundPillarPiece3Mesh",
            "translation" : [
                0.21615807712078094,
                4.588331699371338,
                0.05815239995718002
            ]
        },
        {
            "mesh" : 3,
            "name" : "RoundPillarPiece4Mesh",
            "translation" : [
                0,
                2.9974894523620605,
                0
            ]
        }
    ],
    "materials" : [
        {
            "name" : "Brick Mossy",
            "pbrMetallicRoughness" : {
                "baseColorFactor" : [
                    0.800000011920929,
                    0.800000011920929,
                    0.800000011920929,
                    1
                ],
                "metallicFactor" : 0,
                "roughnessFactor" : 0.5
            }
        },
        {
            "extensions" : {
                "KHR_materials_specular" : {
                    "specularColorFactor" : [
                        0,
                        0,
                        0
                    ]
                },
                "KHR_materials_ior" : {
                    "ior" : 1.4500000476837158
                }
            },
            "name" : "Mirror Stand",
            "pbrMetallicRoughness" : {
                "baseColorFactor" : [
                    0.800000011920929,
                    0.800000011920929,
                    0.800000011920929,
                    1
                ],
                "metallicFactor" : 0
            }
        },
        {
            "extensions" : {
                "KHR_materials_specular" : {
                    "specularColorFactor" : [
                        0,
                        0,
                        0
                    ]
                },
                "KHR_materials_ior" : {
                    "ior" : 1.4500000476837158
                }
            },
            "name" : "Cement Exposed",
            "pbrMetallicRoughness" : {
                "baseColorFactor" : [
                    0.800000011920929,
                    0.800000011920929,
                    0.800000011920929,
                    1
                ],
                "metallicFactor" : 0
            }
        }
    ],
    "meshes" : [
        {
            "name" : "RoundPillarPiece1Mesh",
            "primitives" : [
                {
                    "attributes" : {
                        "POSITION" : 0,
                        "NORMAL" : 1,
                        "TEXCOORD_0" : 2,
                        "COLOR_0" : 3
                    },
                    "indices" : 4,
                    "material" : 0
                },
                {
                    "attributes" : {
                        "POSITION" : 5,
                        "NORMAL" : 6,
                        "TEXCOORD_0" : 7,
                        "COLOR_0" : 8
                    },
                    "indices" : 9,
                    "material" : 1
                },
                {
                    "attributes" : {
                        "POSITION" : 10,
                        "NORMAL" : 11,
                        "TEXCOORD_0" : 12,
                        "COLOR_0" : 13
                    },
                    "indices" : 14,
                    "material" : 2
                }
            ]
        },
        {
            "name" : "RoundPillarPiece2Mesh",
            "primitives" : [
                {
                    "attributes" : {
                        "POSITION" : 15,
                        "NORMAL" : 16,
                        "TEXCOORD_0" : 17,
                        "COLOR_0" : 18
                    },
                    "indices" : 19,
                    "material" : 2
                },
                {
                    "attributes" : {
                        "POSITION" : 20,
                        "NORMAL" : 21,
                        "TEXCOORD_0" : 22,
                        "COLOR_0" : 23
                    },
                    "indices" : 24,
                    "material" : 0
                }
            ]
        },
        {
            "name" : "RoundPillarPiece3Mesh",
            "primitives" : [
                {
                    "attributes" : {
                        "POSITION" : 25,
                        "NORMAL" : 26,
                        "TEXCOORD_0" : 27,
                        "COLOR_0" : 28
                    },
                    "indices" : 29,
                    "material" : 2
                },
                {
                    "attributes" : {
                        "POSITION" : 30,
                        "NORMAL" : 31,
                        "TEXCOORD_0" : 32,
                        "COLOR_0" : 33
                    },
                    "indices" : 34,
                    "material" : 0
                }
            ]
        },
        {
            "name" : "RoundPillarPiece4Mesh",
            "primitives" : [
                {
                    "attributes" : {
                        "POSITION" : 35,
                        "NORMAL" : 36,
                        "TEXCOORD_0" : 37,
                        "COLOR_0" : 38
                    },
                    "indices" : 39,
                    "material" : 2
                },
                {
                    "attributes" : {
                        "POSITION" : 40,
                        "NORMAL" : 41,
                        "TEXCOORD_0" : 42,
                        "COLOR_0" : 43
                    },
                    "indices" : 44,
                    "material" : 0
                }
            ]
        }
    ],
    "accessors" : [
        {
            "bufferView" : 0,
            "componentType" : 5126,
            "count" : 48,
            "max" : [
                0.545137345790863,
                0.18329277634620667,
                0.538865864276886
            ],
            "min" : [
                -0.5340974926948547,
                -0.6927939653396606,
                -0.539818286895752
            ],
            "type" : "VEC3"
        },
        {
            "bufferView" : 1,
            "componentType" : 5126,
            "count" : 48,
            "type" : "VEC3"
        },
        {
            "bufferView" : 2,
            "componentType" : 5126,
            "count" : 48,
            "type" : "VEC2"
        },
        {
            "bufferView" : 3,
            "componentType" : 5123,
            "count" : 48,
            "normalized" : true,
            "type" : "VEC4"
        },
        {
            "bufferView" : 4,
            "componentType" : 5123,
            "count" : 48,
            "type" : "SCALAR"
        },
        {
            "bufferView" : 5,
            "componentType" : 5126,
            "count" : 123,
            "max" : [
                0.6710437536239624,
                0.7744777202606201,
                0.672827422618866
            ],
            "min" : [
                -0.6710437536239624,
                0.1832888126373291,
                -0.6728218197822571
            ],
            "type" : "VEC3"
        },
        {
            "bufferView" : 6,
            "componentType" : 5126,
            "count" : 123,
            "type" : "VEC3"
        },
        {
            "bufferView" : 7,
            "componentType" : 5126,
            "count" : 123,
            "type" : "VEC2"
        },
        {
            "bufferView" : 8,
            "componentType" : 5123,
            "count" : 123,
            "normalized" : true,
            "type" : "VEC4"
        },
        {
            "bufferView" : 9,
            "componentType" : 5123,
            "count" : 123,
            "type" : "SCALAR"
        },
        {
            "bufferView" : 10,
            "componentType" : 5126,
            "count" : 99,
            "max" : [
                0.6710437536239624,
                0.7744759917259216,
                0.672827422618866
            ],
            "min" : [
                -0.5340974926948547,
                -0.7744748592376709,
                -0.539818286895752
            ],
            "type" : "VEC3"
        },
        {
            "bufferView" : 11,
            "componentType" : 5126,
            "count" : 99,
            "type" : "VEC3"
        },
        {
            "bufferView" : 12,
            "componentType" : 5126,
            "count" : 99,
            "type" : "VEC2"
        },
        {
            "bufferView" : 13,
            "componentType" : 5123,
            "count" : 99,
            "normalized" : true,
            "type" : "VEC4"
        },
        {
            "bufferView" : 14,
            "componentType" : 5123,
            "count" : 99,
            "type" : "SCALAR"
        },
        {
            "bufferView" : 15,
            "componentType" : 5126,
            "count" : 132,
            "max" : [
                0.5684108734130859,
                0.6841750741004944,
                0.5689522624015808
            ],
            "min" : [
                -0.5684108734130859,
                -0.6841753721237183,
                -0.5689545273780823
            ],
            "type" : "VEC3"
        },
        {
            "bufferView" : 16,
            "componentType" : 5126,
            "count" : 132,
            "type" : "VEC3"
        },
        {
            "bufferView" : 17,
            "componentType" : 5126,
            "count" : 132,
            "type" : "VEC2"
        },
        {
            "bufferView" : 18,
            "componentType" : 5123,
            "count" : 132,
            "normalized" : true,
            "type" : "VEC4"
        },
        {
            "bufferView" : 19,
            "componentType" : 5123,
            "count" : 132,
            "type" : "SCALAR"
        },
        {
            "bufferView" : 20,
            "componentType" : 5126,
            "count" : 48,
            "max" : [
                0.5684108734130859,
                0.5908010005950928,
                0.5689522624015808
            ],
            "min" : [
                -0.5684108734130859,
                -0.6009839773178101,
                -0.5689545273780823
            ],
            "type" : "VEC3"
        },
        {
            "bufferView" : 21,
            "componentType" : 5126,
            "count" : 48,
            "type" : "VEC3"
        },
        {
            "bufferView" : 22,
            "componentType" : 5126,
            "count" : 48,
            "type" : "VEC2"
        },
        {
            "bufferView" : 23,
            "componentType" : 5123,
            "count" : 48,
            "normalized" : true,
            "type" : "VEC4"
        },
        {
            "bufferView" : 24,
            "componentType" : 5123,
            "count" : 48,
            "type" : "SCALAR"
        },
        {
            "bufferView" : 25,
            "componentType" : 5126,
            "count" : 57,
            "max" : [
                0.3480994999408722,
                0.4608279764652252,
                0.5093636512756348
            ],
            "min" : [
                -0.3480994999408722,
                -0.4608277380466461,
                -0.5093626379966736
            ],
            "type" : "VEC3"
        },
        {
            "bufferView" : 26,
            "componentType" : 5126,
            "count" : 57,
            "type" : "VEC3"
        },
        {
            "bufferView" : 27,
            "componentType" : 5126,
            "count" : 57,
            "type" : "VEC2"
        },
        {
            "bufferView" : 28,
            "componentType" : 5123,
            "count" : 57,
            "normalized" : true,
            "type" : "VEC4"
        },
        {
            "bufferView" : 29,
            "componentType" : 5123,
            "count" : 57,
            "type" : "SCALAR"
        },
        {
            "bufferView" : 30,
            "componentType" : 5126,
            "count" : 27,
            "max" : [
                0.3480994999408722,
                0.4608279764652252,
                0.5093636512756348
            ],
            "min" : [
                -0.3480994999408722,
                -0.30022871494293213,
                -0.5093626379966736
            ],
            "type" : "VEC3"
        },
        {
            "bufferView" : 31,
            "componentType" : 5126,
            "count" : 27,
            "type" : "VEC3"
        },
        {
            "bufferView" : 32,
            "componentType" : 5126,
            "count" : 27,
            "type" : "VEC2"
        },
        {
            "bufferView" : 33,
            "componentType" : 5123,
            "count" : 27,
            "normalized" : true,
            "type" : "VEC4"
        },
        {
            "bufferView" : 34,
            "componentType" : 5123,
            "count" : 27,
            "type" : "SCALAR"
        },
        {
            "bufferView" : 35,
            "componentType" : 5126,
            "count" : 153,
            "max" : [
                0.6644366979598999,
                1.8380533456802368,
                0.6644003987312317
            ],
            "min" : [
                -0.6644366979598999,
                -1.838053584098816,
                -0.6644088625907898
            ],
            "type" : "VEC3"
        },
        {
            "bufferView" : 36,
            "componentType" : 5126,
            "count" : 153,
            "type" : "VEC3"
        },
        {
            "bufferView" : 37,
            "componentType" : 5126,
            "count" : 153,
            "type" : "VEC2"
        },
        {
            "bufferView" : 38,
            "componentType" : 5123,
            "count" : 153,
            "normalized" : true,
            "type" : "VEC4"
        },
        {
            "bufferView" : 39,
            "componentType" : 5123,
            "count" : 153,
            "type" : "SCALAR"
        },
        {
            "bufferView" : 40,
            "componentType" : 5126,
            "count" : 69,
            "max" : [
                0.6644366979598999,
                1.8238786458969116,
                0.6644003987312317
            ],
            "min" : [
                -0.6644366979598999,
                -1.7300652265548706,
                -0.6644088625907898
            ],
            "type" : "VEC3"
        },
        {
            "bufferView" : 41,
            "componentType" : 5126,
            "count" : 69,
            "type" : "VEC3"
        },
        {
            "bufferView" : 42,
            "componentType" : 5126,
            "count" : 69,
            "type" : "VEC2"
        },
        {
            "bufferView" : 43,
            "componentType" : 5123,
            "count" : 69,
            "normalized" : true,
            "type" : "VEC4"
        },
        {
            "bufferView" : 44,
            "componentType" : 5123,
            "count" : 69,
            "type" : "SCALAR"
        }
    ],
    "bufferViews" : [
        {
            "buffer" : 0,
            "byteLength" : 576,
            "byteOffset" : 0,
            "target" : 34962
        },
        {
            "buffer" : 0,
            "byteLength" : 576,
            "byteOffset" : 576,
            "target" : 34962
        },
        {
            "buffer" : 0,
            "byteLength" : 384,
            "byteOffset" : 1152,
            "target" : 34962
        },
        {
            "buffer" : 0,
            "byteLength" : 384,
            "byteOffset" : 1536,
            "target" : 34962
        },
        {
            "buffer" : 0,
            "byteLength" : 96,
            "byteOffset" : 1920,
            "target" : 34963
        },
        {
            "buffer" : 0,
            "byteLength" : 1476,
            "byteOffset" : 2016,
            "target" : 34962
        },
        {
            "buffer" : 0,
            "byteLength" : 1476,
            "byteOffset" : 3492,
            "target" : 34962
        },
        {
            "buffer" : 0,
            "byteLength" : 984,
            "byteOffset" : 4968,
            "target" : 34962
        },
        {
            "buffer" : 0,
            "byteLength" : 984,
            "byteOffset" : 5952,
            "target" : 34962
        },
        {
            "buffer" : 0,
            "byteLength" : 246,
            "byteOffset" : 6936,
            "target" : 34963
        },
        {
            "buffer" : 0,
            "byteLength" : 1188,
            "byteOffset" : 7184,
            "target" : 34962
        },
        {
            "buffer" : 0,
            "byteLength" : 1188,
            "byteOffset" : 8372,
            "target" : 34962
        },
        {
            "buffer" : 0,
            "byteLength" : 792,
            "byteOffset" : 9560,
            "target" : 34962
        },
        {
            "buffer" : 0,
            "byteLength" : 792,
            "byteOffset" : 10352,
            "target" : 34962
        },
        {
            "buffer" : 0,
            "byteLength" : 198,
            "byteOffset" : 11144,
            "target" : 34963
        },
        {
            "buffer" : 0,
            "byteLength" : 1584,
            "byteOffset" : 11344,
            "target" : 34962
        },
        {
            "buffer" : 0,
            "byteLength" : 1584,
            "byteOffset" : 12928,
            "target" : 34962
        },
        {
            "buffer" : 0,
            "byteLength" : 1056,
            "byteOffset" : 14512,
            "target" : 34962
        },
        {
            "buffer" : 0,
            "byteLength" : 1056,
            "byteOffset" : 15568,
            "target" : 34962
        },
        {
            "buffer" : 0,
            "byteLength" : 264,
            "byteOffset" : 16624,
            "target" : 34963
        },
        {
            "buffer" : 0,
            "byteLength" : 576,
            "byteOffset" : 16888,
            "target" : 34962
        },
        {
            "buffer" : 0,
            "byteLength" : 576,
            "byteOffset" : 17464,
            "target" : 34962
        },
        {
            "buffer" : 0,
            "byteLength" : 384,
            "byteOffset" : 18040,
            "target" : 34962
        },
        {
            "buffer" : 0,
            "byteLength" : 384,
            "byteOffset" : 18424,
            "target" : 34962
        },
        {
            "buffer" : 0,
            "byteLength" : 96,
            "byteOffset" : 18808,
            "target" : 34963
        },
        {
            "buffer" : 0,
            "byteLength" : 684,
            "byteOffset" : 18904,
            "target" : 34962
        },
        {
            "buffer" : 0,
            "byteLength" : 684,
            "byteOffset" : 19588,
            "target" : 34962
        },
        {
            "buffer" : 0,
            "byteLength" : 456,
            "byteOffset" : 20272,
            "target" : 34962
        },
        {
            "buffer" : 0,
            "byteLength" : 456,
            "byteOffset" : 20728,
            "target" : 34962
        },
        {
            "buffer" : 0,
            "byteLength" : 114,
            "byteOffset" : 21184,
            "target" : 34963
        },
        {
            "buffer" : 0,
            "byteLength" : 324,
            "byteOffset" : 21300,
            "target" : 34962
        },
        {
            "buffer" : 0,
            "byteLength" : 324,
            "byteOffset" : 21624,
            "target" : 34962
        },
        {
            "buffer" : 0,
            "byteLength" : 216,
            "byteOffset" : 21948,
            "target" : 34962
        },
        {
            "buffer" : 0,
            "byteLength" : 216,
            "byteOffset" : 22164,
            "target" : 34962
        },
        {
            "buffer" : 0,
            "byteLength" : 54,
            "byteOffset" : 22380,
            "target" : 34963
        },
        {
            "buffer" : 0,
            "byteLength" : 1836,
            "byteOffset" : 22436,
            "target" : 34962
        },
        {
            "buffer" : 0,
            "byteLength" : 1836,
            "byteOffset" : 24272,
            "target" : 34962
        },
        {
            "buffer" : 0,
            "byteLength" : 1224,
            "byteOffset" : 26108,
            "target" : 34962
        },
        {
            "buffer" : 0,
            "byteLength" : 1224,
            "byteOffset" : 27332,
            "target" : 34962
        },
        {
            "buffer" : 0,
            "byteLength" : 306,
            "byteOffset" : 28556,
            "target" : 34963
        },
        {
            "buffer" : 0,
            "byteLength" : 828,
            "byteOffset" : 28864,
            "target" : 34962
        },
        {
            "buffer" : 0,
            "byteLength" : 828,
            "byteOffset" : 29692,
            "target" : 34962
        },
        {
            "buffer" : 0,
            "byteLength" : 552,
            "byteOffset" : 30520,
            "target" : 34962
        },
        {
            "buffer" : 0,
            "byteLength" : 552,
            "byteOffset" : 31072,
            "target" : 34962
        },
        {
            "buffer" : 0,
            "byteLength" : 138,
            "byteOffset" : 31624,
            "target" : 34963
        }
    ],
    "buffers" : [
        {
            "byteLength" : 31764,
            "uri" : "data:application/octet-stream;base64,"
        }
    ]
}
