{
    "asset" : {
        "generator" : "Khronos glTF Blender I/O v3.3.36",
        "version" : "2.0"
    },
    "extensionsUsed" : [
        "KHR_materials_specular",
        "KHR_materials_ior"
    ],
    "scene" : 0,
    "scenes" : [
        {
            "name" : "Scene",
            "nodes" : [
                0
            ]
        }
    ],
    "nodes" : [
        {
            "mesh" : 0,
            "name" : "IvyLinkMesh"
        }
    ],
    "materials" : [
        {
            "extensions" : {
                "KHR_materials_specular" : {
                    "specularColorFactor" : [
                        0,
                        0,
                        0
                    ]
                },
                "KHR_materials_ior" : {
                    "ior" : 1.4500000476837158
                }
            },
            "name" : "Ivy",
            "pbrMetallicRoughness" : {
                "baseColorFactor" : [
                    0.800000011920929,
                    0.800000011920929,
                    0.800000011920929,
                    1
                ],
                "metallicFactor" : 0
            }
        }
    ],
    "meshes" : [
        {
            "name" : "IvyLinkMesh",
            "primitives" : [
                {
                    "attributes" : {
                        "POSITION" : 0,
                        "NORMAL" : 1,
                        "TEXCOORD_0" : 2,
                        "COLOR_0" : 3
                    },
                    "indices" : 4,
                    "material" : 0
                }
            ]
        }
    ],
    "accessors" : [
        {
            "bufferView" : 0,
            "componentType" : 5126,
            "count" : 252,
            "max" : [
                0.09836774319410324,
                0.046767715364694595,
                0.09234385192394257
            ],
            "min" : [
                -0.09836770594120026,
                -0.9910210371017456,
                -0.0923510193824768
            ],
            "type" : "VEC3"
        },
        {
            "bufferView" : 1,
            "componentType" : 5126,
            "count" : 252,
            "type" : "VEC3"
        },
        {
            "bufferView" : 2,
            "componentType" : 5126,
            "count" : 252,
            "type" : "VEC2"
        },
        {
            "bufferView" : 3,
            "componentType" : 5123,
            "count" : 252,
            "normalized" : true,
            "type" : "VEC4"
        },
        {
            "bufferView" : 4,
            "componentType" : 5123,
            "count" : 252,
            "type" : "SCALAR"
        }
    ],
    "bufferViews" : [
        {
            "buffer" : 0,
            "byteLength" : 3024,
            "byteOffset" : 0,
            "target" : 34962
        },
        {
            "buffer" : 0,
            "byteLength" : 3024,
            "byteOffset" : 3024,
            "target" : 34962
        },
        {
            "buffer" : 0,
            "byteLength" : 2016,
            "byteOffset" : 6048,
            "target" : 34962
        },
        {
            "buffer" : 0,
            "byteLength" : 2016,
            "byteOffset" : 8064,
            "target" : 34962
        },
        {
            "buffer" : 0,
            "byteLength" : 504,
            "byteOffset" : 10080,
            "target" : 34963
        }
    ],
    "buffers" : [
        {
            "byteLength" : 10584,
            "uri" : "data:application/octet-stream;base64,"
        }
    ]
}
