{
    "asset" : {
        "generator" : "Khronos glTF Blender I/O v1.7.30",
        "version" : "2.0"
    },
    "scene" : 0,
    "scenes" : [
        {
            "name" : "Scene",
            "nodes" : [
                0,
                1,
                2
            ]
        }
    ],
    "nodes" : [
        {
            "mesh" : 0,
            "name" : "DrawbridgeStatic"
        },
        {
            "mesh" : 1,
            "name" : "DrawbridgeCog"
        },
        {
            "mesh" : 2,
            "name" : "DrawbridgeBridge"
        }
    ],
    "materials" : [
        {
            "name" : "Drawbridge 3",
            "pbrMetallicRoughness" : {
                "baseColorTexture" : {
                    "index" : 0
                },
                "metallicFactor" : 0,
                "roughnessFactor" : 0.5527864098548889
            }
        },
        {
            "name" : "Drawbridge 2",
            "pbrMetallicRoughness" : {
                "baseColorTexture" : {
                    "index" : 1
                },
                "metallicFactor" : 0
            }
        },
        {
            "name" : "Drawbridge 1",
            "pbrMetallicRoughness" : {
                "baseColorTexture" : {
                    "index" : 2
                },
                "metallicFactor" : 0
            }
        }
    ],
    "meshes" : [
        {
            "name" : "DrawbridgeStatic",
            "primitives" : [
                {
                    "attributes" : {
                        "POSITION" : 0,
                        "NORMAL" : 1,
                        "TEXCOORD_0" : 2
                    },
                    "indices" : 3,
                    "material" : 0
                }
            ]
        },
        {
            "name" : "DrawbridgeCog",
            "primitives" : [
                {
                    "attributes" : {
                        "POSITION" : 4,
                        "NORMAL" : 5,
                        "TEXCOORD_0" : 6
                    },
                    "indices" : 7,
                    "material" : 0
                }
            ]
        },
        {
            "name" : "DrawbridgeBridge",
            "primitives" : [
                {
                    "attributes" : {
                        "POSITION" : 8,
                        "NORMAL" : 9,
                        "TEXCOORD_0" : 10
                    },
                    "indices" : 11,
                    "material" : 1
                },
                {
                    "attributes" : {
                        "POSITION" : 12,
                        "NORMAL" : 13,
                        "TEXCOORD_0" : 14
                    },
                    "indices" : 15,
                    "material" : 2
                }
            ]
        }
    ],
    "textures" : [
        {
            "sampler" : 0,
            "source" : 0
        },
        {
            "sampler" : 0,
            "source" : 1
        },
        {
            "sampler" : 0,
            "source" : 2
        }
    ],
    "images" : [
        {
            "bufferView" : 4,
            "mimeType" : "image/png",
            "name" : "drawbridge 3"
        },
        {
            "bufferView" : 13,
            "mimeType" : "image/png",
            "name" : "drawbridge 2"
        },
        {
            "bufferView" : 18,
            "mimeType" : "image/png",
            "name" : "drawbridge 1"
        }
    ],
    "accessors" : [
        {
            "bufferView" : 0,
            "componentType" : 5126,
            "count" : 50,
            "max" : [
                2.2988622188568115,
                1.5000004768371582,
                1.5000009536743164
            ],
            "min" : [
                -2.2988622188568115,
                -3.5060086250305176,
                -1.4999994039535522
            ],
            "type" : "VEC3"
        },
        {
            "bufferView" : 1,
            "componentType" : 5126,
            "count" : 50,
            "type" : "VEC3"
        },
        {
            "bufferView" : 2,
            "componentType" : 5126,
            "count" : 50,
            "type" : "VEC2"
        },
        {
            "bufferView" : 3,
            "componentType" : 5123,
            "count" : 96,
            "type" : "SCALAR"
        },
        {
            "bufferView" : 5,
            "componentType" : 5126,
            "count" : 410,
            "max" : [
                3.1901490688323975,
                1.9035258293151855,
                1.9117285013198853
            ],
            "min" : [
                -3.1901490688323975,
                -1.912563443183899,
                -1.909536600112915
            ],
            "type" : "VEC3"
        },
        {
            "bufferView" : 6,
            "componentType" : 5126,
            "count" : 410,
            "type" : "VEC3"
        },
        {
            "bufferView" : 7,
            "componentType" : 5126,
            "count" : 410,
            "type" : "VEC2"
        },
        {
            "bufferView" : 8,
            "componentType" : 5123,
            "count" : 756,
            "type" : "SCALAR"
        },
        {
            "bufferView" : 9,
            "componentType" : 5126,
            "count" : 553,
            "max" : [
                1.6327402591705322,
                31.695035934448242,
                31.707618713378906
            ],
            "min" : [
                -1.6327407360076904,
                -0.20463387668132782,
                -0.12762542068958282
            ],
            "type" : "VEC3"
        },
        {
            "bufferView" : 10,
            "componentType" : 5126,
            "count" : 553,
            "type" : "VEC3"
        },
        {
            "bufferView" : 11,
            "componentType" : 5126,
            "count" : 553,
            "type" : "VEC2"
        },
        {
            "bufferView" : 12,
            "componentType" : 5123,
            "count" : 1254,
            "type" : "SCALAR"
        },
        {
            "bufferView" : 14,
            "componentType" : 5126,
            "count" : 467,
            "max" : [
                1.7205424308776855,
                31.345767974853516,
                32.52848815917969
            ],
            "min" : [
                -1.720540165901184,
                -1.231286883354187,
                -0.000389585125958547
            ],
            "type" : "VEC3"
        },
        {
            "bufferView" : 15,
            "componentType" : 5126,
            "count" : 467,
            "type" : "VEC3"
        },
        {
            "bufferView" : 16,
            "componentType" : 5126,
            "count" : 467,
            "type" : "VEC2"
        },
        {
            "bufferView" : 17,
            "componentType" : 5123,
            "count" : 816,
            "type" : "SCALAR"
        }
    ],
    "bufferViews" : [
        {
            "buffer" : 0,
            "byteLength" : 600,
            "byteOffset" : 0
        },
        {
            "buffer" : 0,
            "byteLength" : 600,
            "byteOffset" : 600
        },
        {
            "buffer" : 0,
            "byteLength" : 400,
            "byteOffset" : 1200
        },
        {
            "buffer" : 0,
            "byteLength" : 192,
            "byteOffset" : 1600
        },
        {
            "buffer" : 0,
            "byteLength" : 87323,
            "byteOffset" : 1792
        },
        {
            "buffer" : 0,
            "byteLength" : 4920,
            "byteOffset" : 89116
        },
        {
            "buffer" : 0,
            "byteLength" : 4920,
            "byteOffset" : 94036
        },
        {
            "buffer" : 0,
            "byteLength" : 3280,
            "byteOffset" : 98956
        },
        {
            "buffer" : 0,
            "byteLength" : 1512,
            "byteOffset" : 102236
        },
        {
            "buffer" : 0,
            "byteLength" : 6636,
            "byteOffset" : 103748
        },
        {
            "buffer" : 0,
            "byteLength" : 6636,
            "byteOffset" : 110384
        },
        {
            "buffer" : 0,
            "byteLength" : 4424,
            "byteOffset" : 117020
        },
        {
            "buffer" : 0,
            "byteLength" : 2508,
            "byteOffset" : 121444
        },
        {
            "buffer" : 0,
            "byteLength" : 90929,
            "byteOffset" : 123952
        },
        {
            "buffer" : 0,
            "byteLength" : 5604,
            "byteOffset" : 214884
        },
        {
            "buffer" : 0,
            "byteLength" : 5604,
            "byteOffset" : 220488
        },
        {
            "buffer" : 0,
            "byteLength" : 3736,
            "byteOffset" : 226092
        },
        {
            "buffer" : 0,
            "byteLength" : 1632,
            "byteOffset" : 229828
        },
        {
            "buffer" : 0,
            "byteLength" : 87890,
            "byteOffset" : 231460
        }
    ],
    "samplers" : [
        {
            "magFilter" : 9729,
            "minFilter" : 9987
        }
    ],
    "buffers" : [
        {
            "byteLength" : 319352,
            "uri" : "data:application/octet-stream;base64,"
        }
    ]
}
