{
    "asset" : {
        "generator" : "Khronos glTF Blender I/O v3.3.27",
        "version" : "2.0"
    },
    "scene" : 0,
    "scenes" : [
        {
            "name" : "Scene",
            "nodes" : [
                0,
                1,
                2,
                3,
                4
            ]
        }
    ],
    "nodes" : [
        {
            "mesh" : 0,
            "name" : "Floor"
        },
        {
            "mesh" : 1,
            "name" : "BoatWall1"
        },
        {
            "mesh" : 2,
            "name" : "BoatWall2"
        },
        {
            "mesh" : 3,
            "name" : "Wall"
        },
        {
            "mesh" : 4,
            "name" : "ReverseWall"
        }
    ],
    "meshes" : [
        {
            "name" : "Floor",
            "primitives" : [
                {
                    "attributes" : {
                        "POSITION" : 0,
                        "NORMAL" : 1
                    },
                    "indices" : 2
                }
            ]
        },
        {
            "name" : "BoatWall1",
            "primitives" : [
                {
                    "attributes" : {
                        "POSITION" : 3,
                        "NORMAL" : 4,
                        "TEXCOORD_0" : 5,
                        "COLOR_0" : 6
                    },
                    "indices" : 7
                }
            ]
        },
        {
            "name" : "BoatWall2",
            "primitives" : [
                {
                    "attributes" : {
                        "POSITION" : 8,
                        "NORMAL" : 9,
                        "TEXCOORD_0" : 10,
                        "COLOR_0" : 11
                    },
                    "indices" : 12
                }
            ]
        },
        {
            "name" : "Wall",
            "primitives" : [
                {
                    "attributes" : {
                        "POSITION" : 13,
                        "NORMAL" : 14
                    },
                    "indices" : 15
                }
            ]
        },
        {
            "name" : "ReverseWall",
            "primitives" : [
                {
                    "attributes" : {
                        "POSITION" : 16,
                        "NORMAL" : 17
                    },
                    "indices" : 18
                }
            ]
        }
    ],
    "accessors" : [
        {
            "bufferView" : 0,
            "componentType" : 5126,
            "count" : 311,
            "max" : [
                21.70465087890625,
                17.838165283203125,
                226.573974609375
            ],
            "min" : [
                -182.5665283203125,
                -2.0831298828125,
                -87.322509765625
            ],
            "type" : "VEC3"
        },
        {
            "bufferView" : 1,
            "componentType" : 5126,
            "count" : 311,
            "type" : "VEC3"
        },
        {
            "bufferView" : 2,
            "componentType" : 5123,
            "count" : 777,
            "type" : "SCALAR"
        },
        {
            "bufferView" : 3,
            "componentType" : 5126,
            "count" : 32,
            "max" : [
                -114.07220458984375,
                16.26226806640625,
                106.37957763671875
            ],
            "min" : [
                -138.935302734375,
                -10.954254150390625,
                100.48681640625
            ],
            "type" : "VEC3"
        },
        {
            "bufferView" : 4,
            "componentType" : 5126,
            "count" : 32,
            "type" : "VEC3"
        },
        {
            "bufferView" : 5,
            "componentType" : 5126,
            "count" : 32,
            "type" : "VEC2"
        },
        {
            "bufferView" : 6,
            "componentType" : 5123,
            "count" : 32,
            "normalized" : true,
            "type" : "VEC4"
        },
        {
            "bufferView" : 7,
            "componentType" : 5123,
            "count" : 48,
            "type" : "SCALAR"
        },
        {
            "bufferView" : 8,
            "componentType" : 5126,
            "count" : 32,
            "max" : [
                -116.38531494140625,
                16.26226806640625,
                107.98187255859375
            ],
            "min" : [
                -139.51568603515625,
                -10.954254150390625,
                102.7972412109375
            ],
            "type" : "VEC3"
        },
        {
            "bufferView" : 9,
            "componentType" : 5126,
            "count" : 32,
            "type" : "VEC3"
        },
        {
            "bufferView" : 10,
            "componentType" : 5126,
            "count" : 32,
            "type" : "VEC2"
        },
        {
            "bufferView" : 11,
            "componentType" : 5123,
            "count" : 32,
            "normalized" : true,
            "type" : "VEC4"
        },
        {
            "bufferView" : 12,
            "componentType" : 5123,
            "count" : 48,
            "type" : "SCALAR"
        },
        {
            "bufferView" : 13,
            "componentType" : 5126,
            "count" : 2123,
            "max" : [
                27.7607421875,
                45.047393798828125,
                226.4617919921875
            ],
            "min" : [
                -182.47634887695312,
                -32.996368408203125,
                -77.439453125
            ],
            "type" : "VEC3"
        },
        {
            "bufferView" : 14,
            "componentType" : 5126,
            "count" : 2123,
            "type" : "VEC3"
        },
        {
            "bufferView" : 15,
            "componentType" : 5123,
            "count" : 3453,
            "type" : "SCALAR"
        },
        {
            "bufferView" : 16,
            "componentType" : 5126,
            "count" : 4,
            "max" : [
                -36.417022705078125,
                25.8587646484375,
                -4.979248046875
            ],
            "min" : [
                -39.923004150390625,
                -10.9486083984375,
                -12.452880859375
            ],
            "type" : "VEC3"
        },
        {
            "bufferView" : 17,
            "componentType" : 5126,
            "count" : 4,
            "type" : "VEC3"
        },
        {
            "bufferView" : 18,
            "componentType" : 5123,
            "count" : 6,
            "type" : "SCALAR"
        }
    ],
    "bufferViews" : [
        {
            "buffer" : 0,
            "byteLength" : 3732,
            "byteOffset" : 0,
            "target" : 34962
        },
        {
            "buffer" : 0,
            "byteLength" : 3732,
            "byteOffset" : 3732,
            "target" : 34962
        },
        {
            "buffer" : 0,
            "byteLength" : 1554,
            "byteOffset" : 7464,
            "target" : 34963
        },
        {
            "buffer" : 0,
            "byteLength" : 384,
            "byteOffset" : 9020,
            "target" : 34962
        },
        {
            "buffer" : 0,
            "byteLength" : 384,
            "byteOffset" : 9404,
            "target" : 34962
        },
        {
            "buffer" : 0,
            "byteLength" : 256,
            "byteOffset" : 9788,
            "target" : 34962
        },
        {
            "buffer" : 0,
            "byteLength" : 256,
            "byteOffset" : 10044,
            "target" : 34962
        },
        {
            "buffer" : 0,
            "byteLength" : 96,
            "byteOffset" : 10300,
            "target" : 34963
        },
        {
            "buffer" : 0,
            "byteLength" : 384,
            "byteOffset" : 10396,
            "target" : 34962
        },
        {
            "buffer" : 0,
            "byteLength" : 384,
            "byteOffset" : 10780,
            "target" : 34962
        },
        {
            "buffer" : 0,
            "byteLength" : 256,
            "byteOffset" : 11164,
            "target" : 34962
        },
        {
            "buffer" : 0,
            "byteLength" : 256,
            "byteOffset" : 11420,
            "target" : 34962
        },
        {
            "buffer" : 0,
            "byteLength" : 96,
            "byteOffset" : 11676,
            "target" : 34963
        },
        {
            "buffer" : 0,
            "byteLength" : 25476,
            "byteOffset" : 11772,
            "target" : 34962
        },
        {
            "buffer" : 0,
            "byteLength" : 25476,
            "byteOffset" : 37248,
            "target" : 34962
        },
        {
            "buffer" : 0,
            "byteLength" : 6906,
            "byteOffset" : 62724,
            "target" : 34963
        },
        {
            "buffer" : 0,
            "byteLength" : 48,
            "byteOffset" : 69632,
            "target" : 34962
        },
        {
            "buffer" : 0,
            "byteLength" : 48,
            "byteOffset" : 69680,
            "target" : 34962
        },
        {
            "buffer" : 0,
            "byteLength" : 12,
            "byteOffset" : 69728,
            "target" : 34963
        }
    ],
    "buffers" : [
        {
            "byteLength" : 69740,
            "uri" : "data:application/octet-stream;base64,"
        }
    ]
}
