{
    "asset" : {
        "generator" : "Khronos glTF Blender I/O v3.3.27",
        "version" : "2.0"
    },
    "scene" : 0,
    "scenes" : [
        {
            "name" : "Scene",
            "nodes" : [
                0,
                1
            ]
        }
    ],
    "nodes" : [
        {
            "mesh" : 0,
            "name" : "Floor"
        },
        {
            "mesh" : 1,
            "name" : "Wall"
        }
    ],
    "meshes" : [
        {
            "name" : "Floor",
            "primitives" : [
                {
                    "attributes" : {
                        "POSITION" : 0,
                        "NORMAL" : 1
                    },
                    "indices" : 2
                }
            ]
        },
        {
            "name" : "Wall",
            "primitives" : [
                {
                    "attributes" : {
                        "POSITION" : 3,
                        "NORMAL" : 4,
                        "TEXCOORD_0" : 5,
                        "COLOR_0" : 6
                    },
                    "indices" : 7
                }
            ]
        }
    ],
    "accessors" : [
        {
            "bufferView" : 0,
            "componentType" : 5126,
            "count" : 2362,
            "max" : [
                92.30782318115234,
                110.00243377685547,
                32.19236755371094
            ],
            "min" : [
                -664.0101928710938,
                -65.0184097290039,
                -1368.910400390625
            ],
            "type" : "VEC3"
        },
        {
            "bufferView" : 1,
            "componentType" : 5126,
            "count" : 2362,
            "type" : "VEC3"
        },
        {
            "bufferView" : 2,
            "componentType" : 5123,
            "count" : 3711,
            "type" : "SCALAR"
        },
        {
            "bufferView" : 3,
            "componentType" : 5126,
            "count" : 4987,
            "max" : [
                93.78498840332031,
                120.00243377685547,
                5.15581750869751
            ],
            "min" : [
                -664.0101928710938,
                -99.99932861328125,
                -1368.910400390625
            ],
            "type" : "VEC3"
        },
        {
            "bufferView" : 4,
            "componentType" : 5126,
            "count" : 4987,
            "type" : "VEC3"
        },
        {
            "bufferView" : 5,
            "componentType" : 5126,
            "count" : 4987,
            "type" : "VEC2"
        },
        {
            "bufferView" : 6,
            "componentType" : 5123,
            "count" : 4987,
            "normalized" : true,
            "type" : "VEC4"
        },
        {
            "bufferView" : 7,
            "componentType" : 5123,
            "count" : 7599,
            "type" : "SCALAR"
        }
    ],
    "bufferViews" : [
        {
            "buffer" : 0,
            "byteLength" : 28344,
            "byteOffset" : 0,
            "target" : 34962
        },
        {
            "buffer" : 0,
            "byteLength" : 28344,
            "byteOffset" : 28344,
            "target" : 34962
        },
        {
            "buffer" : 0,
            "byteLength" : 7422,
            "byteOffset" : 56688,
            "target" : 34963
        },
        {
            "buffer" : 0,
            "byteLength" : 59844,
            "byteOffset" : 64112,
            "target" : 34962
        },
        {
            "buffer" : 0,
            "byteLength" : 59844,
            "byteOffset" : 123956,
            "target" : 34962
        },
        {
            "buffer" : 0,
            "byteLength" : 39896,
            "byteOffset" : 183800,
            "target" : 34962
        },
        {
            "buffer" : 0,
            "byteLength" : 39896,
            "byteOffset" : 223696,
            "target" : 34962
        },
        {
            "buffer" : 0,
            "byteLength" : 15198,
            "byteOffset" : 263592,
            "target" : 34963
        }
    ],
    "buffers" : [
        {
            "byteLength" : 278792,
            "uri" : "data:application/octet-stream;base64,"
        }
    ]
}
