{
    "asset" : {
        "generator" : "Khronos glTF Blender I/O v3.3.27",
        "version" : "2.0"
    },
    "scene" : 0,
    "scenes" : [
        {
            "name" : "Scene",
            "nodes" : [
                0,
                1,
                2
            ]
        }
    ],
    "nodes" : [
        {
            "mesh" : 0,
            "name" : "Floor"
        },
        {
            "mesh" : 1,
            "name" : "Wall"
        },
        {
            "mesh" : 2,
            "name" : "Ceiling"
        }
    ],
    "meshes" : [
        {
            "name" : "Floor",
            "primitives" : [
                {
                    "attributes" : {
                        "POSITION" : 0,
                        "NORMAL" : 1,
                        "TEXCOORD_0" : 2,
                        "COLOR_0" : 3
                    },
                    "indices" : 4
                }
            ]
        },
        {
            "name" : "Wall",
            "primitives" : [
                {
                    "attributes" : {
                        "POSITION" : 5,
                        "NORMAL" : 6,
                        "TEXCOORD_0" : 7,
                        "COLOR_0" : 8
                    },
                    "indices" : 9
                }
            ]
        },
        {
            "name" : "Ceiling",
            "primitives" : [
                {
                    "attributes" : {
                        "POSITION" : 10,
                        "NORMAL" : 11,
                        "TEXCOORD_0" : 12,
                        "COLOR_0" : 13
                    },
                    "indices" : 14
                }
            ]
        }
    ],
    "accessors" : [
        {
            "bufferView" : 0,
            "componentType" : 5126,
            "count" : 1919,
            "max" : [
                92.30782318115234,
                110.00243377685547,
                5.155817031860352
            ],
            "min" : [
                -664.0101928710938,
                -65.01838684082031,
                -1368.910400390625
            ],
            "type" : "VEC3"
        },
        {
            "bufferView" : 1,
            "componentType" : 5126,
            "count" : 1919,
            "type" : "VEC3"
        },
        {
            "bufferView" : 2,
            "componentType" : 5126,
            "count" : 1919,
            "type" : "VEC2"
        },
        {
            "bufferView" : 3,
            "componentType" : 5123,
            "count" : 1919,
            "normalized" : true,
            "type" : "VEC4"
        },
        {
            "bufferView" : 4,
            "componentType" : 5123,
            "count" : 3810,
            "type" : "SCALAR"
        },
        {
            "bufferView" : 5,
            "componentType" : 5126,
            "count" : 4846,
            "max" : [
                93.78498840332031,
                120.0018081665039,
                5.15581750869751
            ],
            "min" : [
                -664.0001831054688,
                -99.99932861328125,
                -1368.910400390625
            ],
            "type" : "VEC3"
        },
        {
            "bufferView" : 6,
            "componentType" : 5126,
            "count" : 4846,
            "type" : "VEC3"
        },
        {
            "bufferView" : 7,
            "componentType" : 5126,
            "count" : 4846,
            "type" : "VEC2"
        },
        {
            "bufferView" : 8,
            "componentType" : 5123,
            "count" : 4846,
            "normalized" : true,
            "type" : "VEC4"
        },
        {
            "bufferView" : 9,
            "componentType" : 5123,
            "count" : 7485,
            "type" : "SCALAR"
        },
        {
            "bufferView" : 10,
            "componentType" : 5126,
            "count" : 80,
            "max" : [
                1.99519681930542,
                119.99980926513672,
                -60.58988952636719
            ],
            "min" : [
                -117.64962005615234,
                -32.99452209472656,
                -63.65701675415039
            ],
            "type" : "VEC3"
        },
        {
            "bufferView" : 11,
            "componentType" : 5126,
            "count" : 80,
            "type" : "VEC3"
        },
        {
            "bufferView" : 12,
            "componentType" : 5126,
            "count" : 80,
            "type" : "VEC2"
        },
        {
            "bufferView" : 13,
            "componentType" : 5123,
            "count" : 80,
            "normalized" : true,
            "type" : "VEC4"
        },
        {
            "bufferView" : 14,
            "componentType" : 5123,
            "count" : 120,
            "type" : "SCALAR"
        }
    ],
    "bufferViews" : [
        {
            "buffer" : 0,
            "byteLength" : 23028,
            "byteOffset" : 0,
            "target" : 34962
        },
        {
            "buffer" : 0,
            "byteLength" : 23028,
            "byteOffset" : 23028,
            "target" : 34962
        },
        {
            "buffer" : 0,
            "byteLength" : 15352,
            "byteOffset" : 46056,
            "target" : 34962
        },
        {
            "buffer" : 0,
            "byteLength" : 15352,
            "byteOffset" : 61408,
            "target" : 34962
        },
        {
            "buffer" : 0,
            "byteLength" : 7620,
            "byteOffset" : 76760,
            "target" : 34963
        },
        {
            "buffer" : 0,
            "byteLength" : 58152,
            "byteOffset" : 84380,
            "target" : 34962
        },
        {
            "buffer" : 0,
            "byteLength" : 58152,
            "byteOffset" : 142532,
            "target" : 34962
        },
        {
            "buffer" : 0,
            "byteLength" : 38768,
            "byteOffset" : 200684,
            "target" : 34962
        },
        {
            "buffer" : 0,
            "byteLength" : 38768,
            "byteOffset" : 239452,
            "target" : 34962
        },
        {
            "buffer" : 0,
            "byteLength" : 14970,
            "byteOffset" : 278220,
            "target" : 34963
        },
        {
            "buffer" : 0,
            "byteLength" : 960,
            "byteOffset" : 293192,
            "target" : 34962
        },
        {
            "buffer" : 0,
            "byteLength" : 960,
            "byteOffset" : 294152,
            "target" : 34962
        },
        {
            "buffer" : 0,
            "byteLength" : 640,
            "byteOffset" : 295112,
            "target" : 34962
        },
        {
            "buffer" : 0,
            "byteLength" : 640,
            "byteOffset" : 295752,
            "target" : 34962
        },
        {
            "buffer" : 0,
            "byteLength" : 240,
            "byteOffset" : 296392,
            "target" : 34963
        }
    ],
    "buffers" : [
        {
            "byteLength" : 296632,
            "uri" : "data:application/octet-stream;base64,"
        }
    ]
}
