{
    "asset" : {
        "generator" : "Khronos glTF Blender I/O v3.3.27",
        "version" : "2.0"
    },
    "scene" : 0,
    "scenes" : [
        {
            "name" : "Scene",
            "nodes" : [
                0,
                1,
                2,
                3,
                4,
                5,
                6
            ]
        }
    ],
    "nodes" : [
        {
            "mesh" : 0,
            "name" : "Wall"
        },
        {
            "mesh" : 1,
            "name" : "WallDinoRight"
        },
        {
            "mesh" : 2,
            "name" : "WallDinoLeft"
        },
        {
            "mesh" : 3,
            "name" : "FloorPavement1"
        },
        {
            "mesh" : 4,
            "name" : "FloorWood"
        },
        {
            "mesh" : 5,
            "name" : "FloorGrass"
        },
        {
            "mesh" : 6,
            "name" : "FloorPavement2"
        }
    ],
    "meshes" : [
        {
            "name" : "Wall",
            "primitives" : [
                {
                    "attributes" : {
                        "POSITION" : 0,
                        "NORMAL" : 1
                    },
                    "indices" : 2
                }
            ]
        },
        {
            "name" : "WallDinoRight",
            "primitives" : [
                {
                    "attributes" : {
                        "POSITION" : 3,
                        "NORMAL" : 4
                    },
                    "indices" : 5
                }
            ]
        },
        {
            "name" : "WallDinoLeft",
            "primitives" : [
                {
                    "attributes" : {
                        "POSITION" : 6,
                        "NORMAL" : 7
                    },
                    "indices" : 8
                }
            ]
        },
        {
            "name" : "FloorPavement1",
            "primitives" : [
                {
                    "attributes" : {
                        "POSITION" : 9,
                        "NORMAL" : 10
                    },
                    "indices" : 11
                }
            ]
        },
        {
            "name" : "FloorWood",
            "primitives" : [
                {
                    "attributes" : {
                        "POSITION" : 12,
                        "NORMAL" : 13
                    },
                    "indices" : 14
                }
            ]
        },
        {
            "name" : "FloorGrass",
            "primitives" : [
                {
                    "attributes" : {
                        "POSITION" : 15,
                        "NORMAL" : 16
                    },
                    "indices" : 17
                }
            ]
        },
        {
            "name" : "FloorPavement2",
            "primitives" : [
                {
                    "attributes" : {
                        "POSITION" : 18,
                        "NORMAL" : 19
                    },
                    "indices" : 20
                }
            ]
        }
    ],
    "accessors" : [
        {
            "bufferView" : 0,
            "componentType" : 5126,
            "count" : 6542,
            "max" : [
                7.450167655944824,
                25.415752410888672,
                93.21631622314453
            ],
            "min" : [
                -892.1873779296875,
                -285.9543151855469,
                -1177.4393310546875
            ],
            "type" : "VEC3"
        },
        {
            "bufferView" : 1,
            "componentType" : 5126,
            "count" : 6542,
            "type" : "VEC3"
        },
        {
            "bufferView" : 2,
            "componentType" : 5123,
            "count" : 9828,
            "type" : "SCALAR"
        },
        {
            "bufferView" : 3,
            "componentType" : 5126,
            "count" : 108,
            "max" : [
                -391.3965759277344,
                -249.14120483398438,
                -1132.5555419921875
            ],
            "min" : [
                -413.99298095703125,
                -285.95428466796875,
                -1171.0194091796875
            ],
            "type" : "VEC3"
        },
        {
            "bufferView" : 4,
            "componentType" : 5126,
            "count" : 108,
            "type" : "VEC3"
        },
        {
            "bufferView" : 5,
            "componentType" : 5123,
            "count" : 162,
            "type" : "SCALAR"
        },
        {
            "bufferView" : 6,
            "componentType" : 5126,
            "count" : 48,
            "max" : [
                -391.3965759277344,
                -249.14120483398438,
                -1132.5555419921875
            ],
            "min" : [
                -438.6961975097656,
                -285.9540710449219,
                -1152.108642578125
            ],
            "type" : "VEC3"
        },
        {
            "bufferView" : 7,
            "componentType" : 5126,
            "count" : 48,
            "type" : "VEC3"
        },
        {
            "bufferView" : 8,
            "componentType" : 5123,
            "count" : 72,
            "type" : "SCALAR"
        },
        {
            "bufferView" : 9,
            "componentType" : 5126,
            "count" : 5960,
            "max" : [
                12.019407272338867,
                5.793828010559082,
                96.01731872558594
            ],
            "min" : [
                -450.318603515625,
                -266.5970153808594,
                -915.565185546875
            ],
            "type" : "VEC3"
        },
        {
            "bufferView" : 10,
            "componentType" : 5126,
            "count" : 5960,
            "type" : "VEC3"
        },
        {
            "bufferView" : 11,
            "componentType" : 5123,
            "count" : 14949,
            "type" : "SCALAR"
        },
        {
            "bufferView" : 12,
            "componentType" : 5126,
            "count" : 107,
            "max" : [
                -329.03387451171875,
                -254.9965362548828,
                -924.6436157226562
            ],
            "min" : [
                -431.77960205078125,
                -265.21099853515625,
                -964.5554809570312
            ],
            "type" : "VEC3"
        },
        {
            "bufferView" : 13,
            "componentType" : 5126,
            "count" : 107,
            "type" : "VEC3"
        },
        {
            "bufferView" : 14,
            "componentType" : 5123,
            "count" : 159,
            "type" : "SCALAR"
        },
        {
            "bufferView" : 15,
            "componentType" : 5126,
            "count" : 2425,
            "max" : [
                -272.43304443359375,
                -245.64886474609375,
                -914.799072265625
            ],
            "min" : [
                -894.3561401367188,
                -279.9961242675781,
                -1187.322509765625
            ],
            "type" : "VEC3"
        },
        {
            "bufferView" : 16,
            "componentType" : 5126,
            "count" : 2425,
            "type" : "VEC3"
        },
        {
            "bufferView" : 17,
            "componentType" : 5123,
            "count" : 2448,
            "type" : "SCALAR"
        },
        {
            "bufferView" : 18,
            "componentType" : 5126,
            "count" : 900,
            "max" : [
                -456.960205078125,
                -262.9493103027344,
                -1042.5760498046875
            ],
            "min" : [
                -721.8980102539062,
                -280.9962158203125,
                -1141.036865234375
            ],
            "type" : "VEC3"
        },
        {
            "bufferView" : 19,
            "componentType" : 5126,
            "count" : 900,
            "type" : "VEC3"
        },
        {
            "bufferView" : 20,
            "componentType" : 5123,
            "count" : 1344,
            "type" : "SCALAR"
        }
    ],
    "bufferViews" : [
        {
            "buffer" : 0,
            "byteLength" : 78504,
            "byteOffset" : 0,
            "target" : 34962
        },
        {
            "buffer" : 0,
            "byteLength" : 78504,
            "byteOffset" : 78504,
            "target" : 34962
        },
        {
            "buffer" : 0,
            "byteLength" : 19656,
            "byteOffset" : 157008,
            "target" : 34963
        },
        {
            "buffer" : 0,
            "byteLength" : 1296,
            "byteOffset" : 176664,
            "target" : 34962
        },
        {
            "buffer" : 0,
            "byteLength" : 1296,
            "byteOffset" : 177960,
            "target" : 34962
        },
        {
            "buffer" : 0,
            "byteLength" : 324,
            "byteOffset" : 179256,
            "target" : 34963
        },
        {
            "buffer" : 0,
            "byteLength" : 576,
            "byteOffset" : 179580,
            "target" : 34962
        },
        {
            "buffer" : 0,
            "byteLength" : 576,
            "byteOffset" : 180156,
            "target" : 34962
        },
        {
            "buffer" : 0,
            "byteLength" : 144,
            "byteOffset" : 180732,
            "target" : 34963
        },
        {
            "buffer" : 0,
            "byteLength" : 71520,
            "byteOffset" : 180876,
            "target" : 34962
        },
        {
            "buffer" : 0,
            "byteLength" : 71520,
            "byteOffset" : 252396,
            "target" : 34962
        },
        {
            "buffer" : 0,
            "byteLength" : 29898,
            "byteOffset" : 323916,
            "target" : 34963
        },
        {
            "buffer" : 0,
            "byteLength" : 1284,
            "byteOffset" : 353816,
            "target" : 34962
        },
        {
            "buffer" : 0,
            "byteLength" : 1284,
            "byteOffset" : 355100,
            "target" : 34962
        },
        {
            "buffer" : 0,
            "byteLength" : 318,
            "byteOffset" : 356384,
            "target" : 34963
        },
        {
            "buffer" : 0,
            "byteLength" : 29100,
            "byteOffset" : 356704,
            "target" : 34962
        },
        {
            "buffer" : 0,
            "byteLength" : 29100,
            "byteOffset" : 385804,
            "target" : 34962
        },
        {
            "buffer" : 0,
            "byteLength" : 4896,
            "byteOffset" : 414904,
            "target" : 34963
        },
        {
            "buffer" : 0,
            "byteLength" : 10800,
            "byteOffset" : 419800,
            "target" : 34962
        },
        {
            "buffer" : 0,
            "byteLength" : 10800,
            "byteOffset" : 430600,
            "target" : 34962
        },
        {
            "buffer" : 0,
            "byteLength" : 2688,
            "byteOffset" : 441400,
            "target" : 34963
        }
    ],
    "buffers" : [
        {
            "byteLength" : 444088,
            "uri" : "data:application/octet-stream;base64,"
        }
    ]
}
