{
    "asset" : {
        "generator" : "Khronos glTF Blender I/O v3.3.27",
        "version" : "2.0"
    },
    "scene" : 0,
    "scenes" : [
        {
            "name" : "Scene",
            "nodes" : [
                0,
                1
            ]
        }
    ],
    "nodes" : [
        {
            "mesh" : 0,
            "name" : "WallDinoRight"
        },
        {
            "mesh" : 1,
            "name" : "FloorDinoRight"
        }
    ],
    "meshes" : [
        {
            "name" : "WallDinoRight",
            "primitives" : [
                {
                    "attributes" : {
                        "POSITION" : 0,
                        "NORMAL" : 1
                    },
                    "indices" : 2
                }
            ]
        },
        {
            "name" : "FloorDinoRight",
            "primitives" : [
                {
                    "attributes" : {
                        "POSITION" : 3,
                        "NORMAL" : 4
                    },
                    "indices" : 5
                }
            ]
        }
    ],
    "accessors" : [
        {
            "bufferView" : 0,
            "componentType" : 5126,
            "count" : 124,
            "max" : [
                -391.3965759277344,
                -249.14120483398438,
                -1132.5555419921875
            ],
            "min" : [
                -413.99298095703125,
                -285.95428466796875,
                -1171.0194091796875
            ],
            "type" : "VEC3"
        },
        {
            "bufferView" : 1,
            "componentType" : 5126,
            "count" : 124,
            "type" : "VEC3"
        },
        {
            "bufferView" : 2,
            "componentType" : 5123,
            "count" : 186,
            "type" : "SCALAR"
        },
        {
            "bufferView" : 3,
            "componentType" : 5126,
            "count" : 62,
            "max" : [
                -337.48638916015625,
                -269.1471862792969,
                -1106.6240234375
            ],
            "min" : [
                -409.5332336425781,
                -277.1943359375,
                -1169.843994140625
            ],
            "type" : "VEC3"
        },
        {
            "bufferView" : 4,
            "componentType" : 5126,
            "count" : 62,
            "type" : "VEC3"
        },
        {
            "bufferView" : 5,
            "componentType" : 5123,
            "count" : 180,
            "type" : "SCALAR"
        }
    ],
    "bufferViews" : [
        {
            "buffer" : 0,
            "byteLength" : 1488,
            "byteOffset" : 0,
            "target" : 34962
        },
        {
            "buffer" : 0,
            "byteLength" : 1488,
            "byteOffset" : 1488,
            "target" : 34962
        },
        {
            "buffer" : 0,
            "byteLength" : 372,
            "byteOffset" : 2976,
            "target" : 34963
        },
        {
            "buffer" : 0,
            "byteLength" : 744,
            "byteOffset" : 3348,
            "target" : 34962
        },
        {
            "buffer" : 0,
            "byteLength" : 744,
            "byteOffset" : 4092,
            "target" : 34962
        },
        {
            "buffer" : 0,
            "byteLength" : 360,
            "byteOffset" : 4836,
            "target" : 34963
        }
    ],
    "buffers" : [
        {
            "byteLength" : 5196,
            "uri" : "data:application/octet-stream;base64,"
        }
    ]
}
