{
    "asset" : {
        "generator" : "Khronos glTF Blender I/O v3.3.27",
        "version" : "2.0"
    },
    "scene" : 0,
    "scenes" : [
        {
            "name" : "Scene",
            "nodes" : [
                0,
                1
            ]
        }
    ],
    "nodes" : [
        {
            "mesh" : 0,
            "name" : "Floor"
        },
        {
            "mesh" : 1,
            "name" : "Wall"
        }
    ],
    "meshes" : [
        {
            "name" : "Floor",
            "primitives" : [
                {
                    "attributes" : {
                        "POSITION" : 0,
                        "NORMAL" : 1
                    },
                    "indices" : 2
                }
            ]
        },
        {
            "name" : "Wall",
            "primitives" : [
                {
                    "attributes" : {
                        "POSITION" : 3,
                        "NORMAL" : 4
                    },
                    "indices" : 5
                }
            ]
        }
    ],
    "accessors" : [
        {
            "bufferView" : 0,
            "componentType" : 5126,
            "count" : 1156,
            "max" : [
                252.19876098632812,
                1.2113614082336426,
                215.23878479003906
            ],
            "min" : [
                -3,
                -10.006461143493652,
                -322.85858154296875
            ],
            "type" : "VEC3"
        },
        {
            "bufferView" : 1,
            "componentType" : 5126,
            "count" : 1156,
            "type" : "VEC3"
        },
        {
            "bufferView" : 2,
            "componentType" : 5123,
            "count" : 1734,
            "type" : "SCALAR"
        },
        {
            "bufferView" : 3,
            "componentType" : 5126,
            "count" : 2326,
            "max" : [
                252.19876098632812,
                10.30861759185791,
                215.23878479003906
            ],
            "min" : [
                -3,
                -18.621091842651367,
                -322.85858154296875
            ],
            "type" : "VEC3"
        },
        {
            "bufferView" : 4,
            "componentType" : 5126,
            "count" : 2326,
            "type" : "VEC3"
        },
        {
            "bufferView" : 5,
            "componentType" : 5123,
            "count" : 3486,
            "type" : "SCALAR"
        }
    ],
    "bufferViews" : [
        {
            "buffer" : 0,
            "byteLength" : 13872,
            "byteOffset" : 0,
            "target" : 34962
        },
        {
            "buffer" : 0,
            "byteLength" : 13872,
            "byteOffset" : 13872,
            "target" : 34962
        },
        {
            "buffer" : 0,
            "byteLength" : 3468,
            "byteOffset" : 27744,
            "target" : 34963
        },
        {
            "buffer" : 0,
            "byteLength" : 27912,
            "byteOffset" : 31212,
            "target" : 34962
        },
        {
            "buffer" : 0,
            "byteLength" : 27912,
            "byteOffset" : 59124,
            "target" : 34962
        },
        {
            "buffer" : 0,
            "byteLength" : 6972,
            "byteOffset" : 87036,
            "target" : 34963
        }
    ],
    "buffers" : [
        {
            "byteLength" : 94008,
            "uri" : "data:application/octet-stream;base64,"
        }
    ]
}
