{
    "asset" : {
        "generator" : "Khronos glTF Blender I/O v3.3.36",
        "version" : "2.0"
    },
    "scene" : 0,
    "scenes" : [
        {
            "name" : "Scene",
            "nodes" : [
                21
            ]
        }
    ],
    "nodes" : [
        {
            "name" : "l_ear",
            "rotation" : [
                -0.4412882626056671,
                -0.5513168573379517,
                -0.44245001673698425,
                0.5527679920196533
            ],
            "scale" : [
                1,
                1.0000001192092896,
                1
            ],
            "translation" : [
                0.325000137090683,
                0.34500014781951904,
                7.438253760483349e-06
            ]
        },
        {
            "name" : "r_ear",
            "rotation" : [
                -0.4412882924079895,
                0.5513168573379517,
                0.44244998693466187,
                0.5527679920196533
            ],
            "scale" : [
                0.9999999403953552,
                1,
                0.9999999403953552
            ],
            "translation" : [
                -0.3250000774860382,
                0.34500014781951904,
                7.441302386723692e-06
            ]
        },
        {
            "name" : "hat",
            "rotation" : [
                -0.5000007748603821,
                9.078783591576212e-08,
                9.313311011283076e-08,
                0.8660250902175903
            ],
            "scale" : [
                1,
                0.9999999403953552,
                0.9999999403953552
            ],
            "translation" : [
                8.11290377100704e-08,
                0.6838184595108032,
                -0.07499109953641891
            ]
        },
        {
            "name" : "mouth",
            "rotation" : [
                0.7675803899765015,
                1.3306545270097558e-06,
                1.3270536101117614e-06,
                0.6409527063369751
            ],
            "scale" : [
                1,
                0.9999999403953552,
                0.9999999403953552
            ],
            "translation" : [
                -1.4856270524887805e-07,
                0.20000064373016357,
                -0.1479930281639099
            ]
        },
        {
            "children" : [
                0,
                1,
                2,
                3
            ],
            "name" : "head",
            "rotation" : [
                4.721732754305486e-16,
                -2.4200994985790203e-08,
                -2.4200994985790203e-08,
                1
            ],
            "translation" : [
                0,
                0.565000057220459,
                1.028293947689776e-22
            ]
        },
        {
            "name" : "r_finger",
            "rotation" : [
                -5.681422862835461e-06,
                5.702602720702998e-06,
                0.0005988975754007697,
                0.9999998211860657
            ],
            "translation" : [
                0.0013008053647354245,
                0.43533241748809814,
                0.06559854000806808
            ]
        },
        {
            "name" : "r_thumb",
            "rotation" : [
                -0.3816179931163788,
                0.835048258304596,
                -0.061995916068553925,
                0.3914315700531006
            ],
            "scale" : [
                1,
                1,
                0.9999999403953552
            ],
            "translation" : [
                -0.14412054419517517,
                0.060246363282203674,
                -0.024895256385207176
            ]
        },
        {
            "children" : [
                5,
                6
            ],
            "name" : "r_hand",
            "rotation" : [
                -0.003711574710905552,
                0.7070612907409668,
                -0.0037953266873955727,
                0.7071323394775391
            ],
            "scale" : [
                1,
                1.0000001192092896,
                1.0000001192092896
            ],
            "translation" : [
                1.1971764024565346e-07,
                0.9689629673957825,
                -2.9831426218152046e-09
            ]
        },
        {
            "children" : [
                7
            ],
            "name" : "r_arm02",
            "rotation" : [
                0.011616873554885387,
                -0.7069798111915588,
                0.011693203821778297,
                0.7070416808128357
            ],
            "translation" : [
                9.065388439921662e-10,
                0.4209507703781128,
                2.6022366483857695e-08
            ]
        },
        {
            "children" : [
                8
            ],
            "name" : "r_arm01",
            "rotation" : [
                -0.5055568814277649,
                0.49438101053237915,
                0.4943809509277344,
                0.5055564045906067
            ],
            "scale" : [
                0.9999996423721313,
                0.9999993443489075,
                0.9999993443489075
            ],
            "translation" : [
                -0.4800000786781311,
                0.5400004386901855,
                5.871935627510538e-06
            ]
        },
        {
            "name" : "l_finger",
            "rotation" : [
                -5.681412858393742e-06,
                -5.682245955540566e-06,
                -0.0005988983903080225,
                0.9999998211860657
            ],
            "translation" : [
                -0.001300802337937057,
                0.4353322684764862,
                0.06559854000806808
            ]
        },
        {
            "name" : "l_thumb",
            "rotation" : [
                -0.38161805272102356,
                -0.8350483179092407,
                0.06199595704674721,
                0.39143162965774536
            ],
            "scale" : [
                1.0000001192092896,
                1.0000003576278687,
                1.0000001192092896
            ],
            "translation" : [
                0.14412052929401398,
                0.060246605426073074,
                -0.024895261973142624
            ]
        },
        {
            "children" : [
                10,
                11
            ],
            "name" : "l_hand",
            "rotation" : [
                -0.0037115775048732758,
                -0.7070614099502563,
                0.0037953306455165148,
                0.7071322202682495
            ],
            "scale" : [
                1.0000001192092896,
                1.0000003576278687,
                1.0000001192092896
            ],
            "translation" : [
                1.1506558195151229e-07,
                0.9689629077911377,
                6.693881005048752e-10
            ]
        },
        {
            "children" : [
                12
            ],
            "name" : "l_arm02",
            "rotation" : [
                0.011616881005465984,
                0.7069798707962036,
                -0.011693207547068596,
                0.7070416212081909
            ],
            "scale" : [
                1.0000001192092896,
                1.000000238418579,
                1
            ],
            "translation" : [
                2.469846549502108e-10,
                0.420950710773468,
                2.7009956937718016e-08
            ]
        },
        {
            "children" : [
                13
            ],
            "name" : "l_arm01",
            "rotation" : [
                -0.5055568218231201,
                -0.49438098073005676,
                -0.49438101053237915,
                0.5055562853813171
            ],
            "scale" : [
                0.9999997615814209,
                0.9999995231628418,
                0.9999994039535522
            ],
            "translation" : [
                0.4800001382827759,
                0.5400004386901855,
                5.9138988035556395e-06
            ]
        },
        {
            "children" : [
                4,
                9,
                14
            ],
            "name" : "chest",
            "rotation" : [
                -9.660023026593489e-33,
                2.1855743881360468e-08,
                2.1855743881360468e-08,
                1
            ],
            "translation" : [
                -3.7575374027688856e-20,
                1.0850001573562622,
                -3.363116314379561e-44
            ]
        },
        {
            "name" : "tail03",
            "rotation" : [
                -4.1221087077026285e-15,
                -6.24203408960966e-08,
                6.242033379066925e-08,
                1
            ],
            "translation" : [
                1.7763568394002505e-15,
                0.2900000810623169,
                2.5627813842513844e-22
            ]
        },
        {
            "children" : [
                16
            ],
            "name" : "tail02",
            "rotation" : [
                3.481231086074053e-15,
                8.960921604739269e-08,
                -8.960921604739269e-08,
                1
            ],
            "translation" : [
                -3.552713678800501e-15,
                0.3550000786781311,
                -1.4076855560031485e-22
            ]
        },
        {
            "children" : [
                17
            ],
            "name" : "tail01",
            "rotation" : [
                -9.960948227442656e-19,
                1.9615420399077266e-11,
                -1.9617196755916666e-11,
                1
            ],
            "translation" : [
                -1.7763568394002505e-15,
                0.4399999976158142,
                0
            ]
        },
        {
            "children" : [
                18
            ],
            "name" : "stomach",
            "rotation" : [
                -1,
                2.5399707226370083e-08,
                2.5399707226370083e-08,
                1.1226419942258066e-32
            ],
            "translation" : [
                5.787481600591777e-20,
                1.0850001573562622,
                5.184804318001823e-44
            ]
        },
        {
            "mesh" : 0,
            "name" : "BlueMajinMesh",
            "skin" : 0
        },
        {
            "children" : [
                20,
                15,
                19
            ],
            "name" : "BlueMajinRoot"
        }
    ],
    "materials" : [
        {
            "name" : "Blue Majin Body",
            "pbrMetallicRoughness" : {
                "baseColorFactor" : [
                    0,
                    0,
                    0,
                    1
                ],
                "metallicFactor" : 0
            }
        }
    ],
    "meshes" : [
        {
            "name" : "BlueMajinMesh",
            "primitives" : [
                {
                    "attributes" : {
                        "POSITION" : 0,
                        "NORMAL" : 1,
                        "TEXCOORD_0" : 2,
                        "TEXCOORD_1" : 3,
                        "COLOR_0" : 4,
                        "JOINTS_0" : 5,
                        "WEIGHTS_0" : 6
                    },
                    "indices" : 7,
                    "material" : 0
                }
            ]
        }
    ],
    "skins" : [
        {
            "inverseBindMatrices" : 8,
            "joints" : [
                15,
                4,
                0,
                1,
                2,
                3,
                9,
                8,
                7,
                5,
                6,
                14,
                13,
                12,
                10,
                11,
                19,
                18,
                17,
                16
            ],
            "name" : "BlueMajinRoot"
        }
    ],
    "accessors" : [
        {
            "bufferView" : 0,
            "componentType" : 5126,
            "count" : 5526,
            "max" : [
                2.621319532394409,
                2.465899705886841,
                0.43315231800079346
            ],
            "min" : [
                -2.621319532394409,
                -0.31396231055259705,
                -0.43206483125686646
            ],
            "type" : "VEC3"
        },
        {
            "bufferView" : 1,
            "componentType" : 5126,
            "count" : 5526,
            "type" : "VEC3"
        },
        {
            "bufferView" : 2,
            "componentType" : 5126,
            "count" : 5526,
            "type" : "VEC2"
        },
        {
            "bufferView" : 3,
            "componentType" : 5126,
            "count" : 5526,
            "type" : "VEC2"
        },
        {
            "bufferView" : 4,
            "componentType" : 5123,
            "count" : 5526,
            "normalized" : true,
            "type" : "VEC4"
        },
        {
            "bufferView" : 5,
            "componentType" : 5121,
            "count" : 5526,
            "type" : "VEC4"
        },
        {
            "bufferView" : 6,
            "componentType" : 5126,
            "count" : 5526,
            "type" : "VEC4"
        },
        {
            "bufferView" : 7,
            "componentType" : 5123,
            "count" : 5526,
            "type" : "SCALAR"
        },
        {
            "bufferView" : 8,
            "componentType" : 5126,
            "count" : 20,
            "type" : "MAT4"
        }
    ],
    "bufferViews" : [
        {
            "buffer" : 0,
            "byteLength" : 66312,
            "byteOffset" : 0,
            "target" : 34962
        },
        {
            "buffer" : 0,
            "byteLength" : 66312,
            "byteOffset" : 66312,
            "target" : 34962
        },
        {
            "buffer" : 0,
            "byteLength" : 44208,
            "byteOffset" : 132624,
            "target" : 34962
        },
        {
            "buffer" : 0,
            "byteLength" : 44208,
            "byteOffset" : 176832,
            "target" : 34962
        },
        {
            "buffer" : 0,
            "byteLength" : 44208,
            "byteOffset" : 221040,
            "target" : 34962
        },
        {
            "buffer" : 0,
            "byteLength" : 22104,
            "byteOffset" : 265248,
            "target" : 34962
        },
        {
            "buffer" : 0,
            "byteLength" : 88416,
            "byteOffset" : 287352,
            "target" : 34962
        },
        {
            "buffer" : 0,
            "byteLength" : 11052,
            "byteOffset" : 375768,
            "target" : 34963
        },
        {
            "buffer" : 0,
            "byteLength" : 1280,
            "byteOffset" : 386820
        }
    ],
    "buffers" : [
        {
            "byteLength" : 388100,
            "uri" : "data:application/octet-stream;base64,"
        }
    ]
}
