{
    "asset" : {
        "generator" : "Khronos glTF Blender I/O v3.3.36",
        "version" : "2.0"
    },
    "scene" : 0,
    "scenes" : [
        {
            "name" : "Scene",
            "nodes" : [
                16
            ]
        }
    ],
    "nodes" : [
        {
            "name" : "mouth",
            "rotation" : [
                0.7675803899765015,
                1.3306545270097558e-06,
                1.3270536101117614e-06,
                0.6409527063369751
            ],
            "scale" : [
                1,
                0.9999999403953552,
                0.9999999403953552
            ],
            "translation" : [
                -1.4856270524887805e-07,
                0.20000064373016357,
                -0.1479930281639099
            ]
        },
        {
            "children" : [
                0
            ],
            "name" : "head",
            "rotation" : [
                4.721732754305486e-16,
                -2.4200994985790203e-08,
                -2.4200994985790203e-08,
                1
            ],
            "translation" : [
                0,
                0.565000057220459,
                1.028293947689776e-22
            ]
        },
        {
            "name" : "r_finger",
            "rotation" : [
                -5.798438905912917e-06,
                5.814687483507441e-06,
                0.0009466484189033508,
                0.9999996423721313
            ],
            "translation" : [
                0.0012999949976801872,
                0.3385891020298004,
                0.06567732244729996
            ]
        },
        {
            "children" : [
                2
            ],
            "name" : "r_hand",
            "rotation" : [
                -0.0059036146849393845,
                0.7070461511611938,
                -0.005911855958402157,
                0.7071181535720825
            ],
            "scale" : [
                1,
                0.9999998211860657,
                0.9999999403953552
            ],
            "translation" : [
                -1.1758412910012339e-07,
                0.6157387495040894,
                -3.899913281202316e-09
            ]
        },
        {
            "children" : [
                3
            ],
            "name" : "r_arm02",
            "rotation" : [
                0.016268381848931313,
                -0.7068876028060913,
                0.016269855201244354,
                0.7069516181945801
            ],
            "translation" : [
                1.1854517367737571e-09,
                0.3209828734397888,
                -1.2089743961496424e-07
            ]
        },
        {
            "children" : [
                4
            ],
            "name" : "r_arm01",
            "rotation" : [
                -0.5072739124298096,
                0.49261873960494995,
                0.49261870980262756,
                0.5072739124298096
            ],
            "scale" : [
                0.9999997615814209,
                0.9999995231628418,
                0.9999994039535522
            ],
            "translation" : [
                -0.3800002932548523,
                0.49000003933906555,
                5.679660262103425e-06
            ]
        },
        {
            "name" : "l_finger",
            "rotation" : [
                -5.79841980652418e-06,
                -5.794405751657905e-06,
                -0.0009466487681493163,
                0.9999996423721313
            ],
            "translation" : [
                -0.0012999926693737507,
                0.3385891020298004,
                0.06567732989788055
            ]
        },
        {
            "children" : [
                6
            ],
            "name" : "l_hand",
            "rotation" : [
                -0.00590361375361681,
                -0.7070461511611938,
                0.005911855027079582,
                0.7071181535720825
            ],
            "scale" : [
                1,
                0.9999998211860657,
                1
            ],
            "translation" : [
                1.1657318310653864e-07,
                0.6157388687133789,
                -4.3655745685100555e-09
            ]
        },
        {
            "children" : [
                7
            ],
            "name" : "l_arm02",
            "rotation" : [
                0.01626838557422161,
                0.7068876028060913,
                -0.016269857063889503,
                0.7069516777992249
            ],
            "scale" : [
                1,
                1.000000238418579,
                1.0000001192092896
            ],
            "translation" : [
                1.0092691127283615e-09,
                0.32098275423049927,
                1.8749497510128776e-09
            ]
        },
        {
            "children" : [
                8
            ],
            "name" : "l_arm01",
            "rotation" : [
                -0.5072739124298096,
                -0.49261873960494995,
                -0.49261873960494995,
                0.5072738528251648
            ],
            "scale" : [
                0.9999996423721313,
                0.9999993443489075,
                0.9999993443489075
            ],
            "translation" : [
                0.38000035285949707,
                0.4899999797344208,
                5.712881375075085e-06
            ]
        },
        {
            "children" : [
                1,
                5,
                9
            ],
            "name" : "chest",
            "rotation" : [
                -9.660023026593489e-33,
                2.1855743881360468e-08,
                2.1855743881360468e-08,
                1
            ],
            "translation" : [
                -3.7575374027688856e-20,
                1.0850001573562622,
                -3.363116314379561e-44
            ]
        },
        {
            "name" : "tail03",
            "rotation" : [
                -2.3490218389952532e-15,
                -6.242054695348997e-08,
                6.242053984806262e-08,
                1
            ],
            "translation" : [
                -2.220446049250313e-16,
                0.2900000512599945,
                2.4881581718433527e-22
            ]
        },
        {
            "children" : [
                11
            ],
            "name" : "tail02",
            "rotation" : [
                2.908563757138445e-15,
                8.960920894196533e-08,
                -8.960921604739269e-08,
                1
            ],
            "translation" : [
                -1.2434497875801753e-14,
                0.3549998998641968,
                4.446925043056092e-23
            ]
        },
        {
            "children" : [
                12
            ],
            "name" : "tail01",
            "rotation" : [
                4.496385462039992e-16,
                -9.37899358177674e-08,
                -2.541932175859074e-08,
                1
            ],
            "translation" : [
                7.105427357601002e-15,
                0.21999984979629517,
                0
            ]
        },
        {
            "children" : [
                13
            ],
            "name" : "stomach",
            "rotation" : [
                -1,
                5.0799421558167523e-08,
                -6.840985378175901e-08,
                2.9802320611338473e-08
            ],
            "scale" : [
                1,
                0.9999999403953552,
                0.9999999403953552
            ],
            "translation" : [
                5.787481600591777e-20,
                1.0850001573562622,
                5.184804318001823e-44
            ]
        },
        {
            "mesh" : 0,
            "name" : "GreenMajinMesh",
            "skin" : 0
        },
        {
            "children" : [
                15,
                10,
                14
            ],
            "name" : "GreenMajinRoot"
        }
    ],
    "materials" : [
        {
            "name" : "Green Majin Body",
            "pbrMetallicRoughness" : {
                "baseColorFactor" : [
                    0,
                    0,
                    0,
                    1
                ],
                "metallicFactor" : 0
            }
        }
    ],
    "meshes" : [
        {
            "name" : "GreenMajinMesh",
            "primitives" : [
                {
                    "attributes" : {
                        "POSITION" : 0,
                        "NORMAL" : 1,
                        "TEXCOORD_0" : 2,
                        "TEXCOORD_1" : 3,
                        "COLOR_0" : 4,
                        "JOINTS_0" : 5,
                        "WEIGHTS_0" : 6
                    },
                    "indices" : 7,
                    "material" : 0
                }
            ]
        }
    ],
    "skins" : [
        {
            "inverseBindMatrices" : 8,
            "joints" : [
                10,
                1,
                0,
                5,
                4,
                3,
                2,
                9,
                8,
                7,
                6,
                14,
                13,
                12,
                11
            ],
            "name" : "GreenMajinRoot"
        }
    ],
    "accessors" : [
        {
            "bufferView" : 0,
            "componentType" : 5126,
            "count" : 3725,
            "max" : [
                1.8550812005996704,
                2.3783810138702393,
                0.40762078762054443
            ],
            "min" : [
                -1.8550814390182495,
                -0.09400001913309097,
                -0.4179036319255829
            ],
            "type" : "VEC3"
        },
        {
            "bufferView" : 1,
            "componentType" : 5126,
            "count" : 3725,
            "type" : "VEC3"
        },
        {
            "bufferView" : 2,
            "componentType" : 5126,
            "count" : 3725,
            "type" : "VEC2"
        },
        {
            "bufferView" : 3,
            "componentType" : 5126,
            "count" : 3725,
            "type" : "VEC2"
        },
        {
            "bufferView" : 4,
            "componentType" : 5123,
            "count" : 3725,
            "normalized" : true,
            "type" : "VEC4"
        },
        {
            "bufferView" : 5,
            "componentType" : 5121,
            "count" : 3725,
            "type" : "VEC4"
        },
        {
            "bufferView" : 6,
            "componentType" : 5126,
            "count" : 3725,
            "type" : "VEC4"
        },
        {
            "bufferView" : 7,
            "componentType" : 5123,
            "count" : 3726,
            "type" : "SCALAR"
        },
        {
            "bufferView" : 8,
            "componentType" : 5126,
            "count" : 15,
            "type" : "MAT4"
        }
    ],
    "bufferViews" : [
        {
            "buffer" : 0,
            "byteLength" : 44700,
            "byteOffset" : 0,
            "target" : 34962
        },
        {
            "buffer" : 0,
            "byteLength" : 44700,
            "byteOffset" : 44700,
            "target" : 34962
        },
        {
            "buffer" : 0,
            "byteLength" : 29800,
            "byteOffset" : 89400,
            "target" : 34962
        },
        {
            "buffer" : 0,
            "byteLength" : 29800,
            "byteOffset" : 119200,
            "target" : 34962
        },
        {
            "buffer" : 0,
            "byteLength" : 29800,
            "byteOffset" : 149000,
            "target" : 34962
        },
        {
            "buffer" : 0,
            "byteLength" : 14900,
            "byteOffset" : 178800,
            "target" : 34962
        },
        {
            "buffer" : 0,
            "byteLength" : 59600,
            "byteOffset" : 193700,
            "target" : 34962
        },
        {
            "buffer" : 0,
            "byteLength" : 7452,
            "byteOffset" : 253300,
            "target" : 34963
        },
        {
            "buffer" : 0,
            "byteLength" : 960,
            "byteOffset" : 260752
        }
    ],
    "buffers" : [
        {
            "byteLength" : 261712,
            "uri" : "data:application/octet-stream;base64,"
        }
    ]
}
