{
    "asset" : {
        "generator" : "Khronos glTF Blender I/O v3.3.36",
        "version" : "2.0"
    },
    "extensionsUsed" : [
        "KHR_materials_specular",
        "KHR_materials_ior"
    ],
    "scene" : 0,
    "scenes" : [
        {
            "name" : "Scene",
            "nodes" : [
                0,
                1,
                2,
                3,
                4
            ]
        }
    ],
    "nodes" : [
        {
            "mesh" : 0,
            "name" : "GrayRockMesh1",
            "translation" : [
                0.3368273675441742,
                1.8568278551101685,
                1.7000582218170166
            ]
        },
        {
            "mesh" : 1,
            "name" : "GrayRockMesh2",
            "translation" : [
                1.0210171937942505,
                1.7008702754974365,
                -0.15873678028583527
            ]
        },
        {
            "mesh" : 2,
            "name" : "GrayRockMesh3",
            "translation" : [
                0.6451406478881836,
                0.0590766966342926,
                -0.2580932676792145
            ]
        },
        {
            "mesh" : 3,
            "name" : "GrayRockMesh4",
            "translation" : [
                -0.7426131963729858,
                2.75522780418396,
                -0.7702801823616028
            ]
        },
        {
            "mesh" : 4,
            "name" : "GrayRockMesh5",
            "translation" : [
                -0.11384481191635132,
                5.727789878845215,
                0.634829044342041
            ]
        }
    ],
    "materials" : [
        {
            "extensions" : {
                "KHR_materials_specular" : {
                    "specularColorFactor" : [
                        0,
                        0,
                        0
                    ]
                },
                "KHR_materials_ior" : {
                    "ior" : 1.4500000476837158
                }
            },
            "name" : "Rock Gray",
            "pbrMetallicRoughness" : {
                "baseColorFactor" : [
                    0.800000011920929,
                    0.800000011920929,
                    0.800000011920929,
                    1
                ],
                "metallicFactor" : 0
            }
        }
    ],
    "meshes" : [
        {
            "name" : "GrayRockMesh1",
            "primitives" : [
                {
                    "attributes" : {
                        "POSITION" : 0,
                        "NORMAL" : 1,
                        "TEXCOORD_0" : 2,
                        "COLOR_0" : 3
                    },
                    "indices" : 4,
                    "material" : 0
                }
            ]
        },
        {
            "name" : "GrayRockMesh2",
            "primitives" : [
                {
                    "attributes" : {
                        "POSITION" : 5,
                        "NORMAL" : 6,
                        "TEXCOORD_0" : 7,
                        "COLOR_0" : 8
                    },
                    "indices" : 9,
                    "material" : 0
                }
            ]
        },
        {
            "name" : "GrayRockMesh3",
            "primitives" : [
                {
                    "attributes" : {
                        "POSITION" : 10,
                        "NORMAL" : 11,
                        "TEXCOORD_0" : 12,
                        "COLOR_0" : 13
                    },
                    "indices" : 14,
                    "material" : 0
                }
            ]
        },
        {
            "name" : "GrayRockMesh4",
            "primitives" : [
                {
                    "attributes" : {
                        "POSITION" : 15,
                        "NORMAL" : 16,
                        "TEXCOORD_0" : 17,
                        "COLOR_0" : 18
                    },
                    "indices" : 19,
                    "material" : 0
                }
            ]
        },
        {
            "name" : "GrayRockMesh5",
            "primitives" : [
                {
                    "attributes" : {
                        "POSITION" : 20,
                        "NORMAL" : 21,
                        "TEXCOORD_0" : 22,
                        "COLOR_0" : 23
                    },
                    "indices" : 24,
                    "material" : 0
                }
            ]
        }
    ],
    "accessors" : [
        {
            "bufferView" : 0,
            "componentType" : 5126,
            "count" : 151,
            "max" : [
                2.7026097774505615,
                3.8965556621551514,
                1.3772797584533691
            ],
            "min" : [
                -3.3539419174194336,
                -2.223788022994995,
                -1.2621021270751953
            ],
            "type" : "VEC3"
        },
        {
            "bufferView" : 1,
            "componentType" : 5126,
            "count" : 151,
            "type" : "VEC3"
        },
        {
            "bufferView" : 2,
            "componentType" : 5126,
            "count" : 151,
            "type" : "VEC2"
        },
        {
            "bufferView" : 3,
            "componentType" : 5123,
            "count" : 151,
            "normalized" : true,
            "type" : "VEC4"
        },
        {
            "bufferView" : 4,
            "componentType" : 5123,
            "count" : 360,
            "type" : "SCALAR"
        },
        {
            "bufferView" : 5,
            "componentType" : 5126,
            "count" : 84,
            "max" : [
                1.8549813032150269,
                3.4073660373687744,
                1.3624801635742188
            ],
            "min" : [
                -3.560441017150879,
                -1.7084503173828125,
                -2.0142319202423096
            ],
            "type" : "VEC3"
        },
        {
            "bufferView" : 6,
            "componentType" : 5126,
            "count" : 84,
            "type" : "VEC3"
        },
        {
            "bufferView" : 7,
            "componentType" : 5126,
            "count" : 84,
            "type" : "VEC2"
        },
        {
            "bufferView" : 8,
            "componentType" : 5123,
            "count" : 84,
            "normalized" : true,
            "type" : "VEC4"
        },
        {
            "bufferView" : 9,
            "componentType" : 5123,
            "count" : 204,
            "type" : "SCALAR"
        },
        {
            "bufferView" : 10,
            "componentType" : 5126,
            "count" : 110,
            "max" : [
                2.6030333042144775,
                0.8517464399337769,
                2.6336727142333984
            ],
            "min" : [
                -3.762030839920044,
                -0.426034152507782,
                -2.6746296882629395
            ],
            "type" : "VEC3"
        },
        {
            "bufferView" : 11,
            "componentType" : 5126,
            "count" : 110,
            "type" : "VEC3"
        },
        {
            "bufferView" : 12,
            "componentType" : 5126,
            "count" : 110,
            "type" : "VEC2"
        },
        {
            "bufferView" : 13,
            "componentType" : 5123,
            "count" : 110,
            "normalized" : true,
            "type" : "VEC4"
        },
        {
            "bufferView" : 14,
            "componentType" : 5123,
            "count" : 246,
            "type" : "SCALAR"
        },
        {
            "bufferView" : 15,
            "componentType" : 5126,
            "count" : 154,
            "max" : [
                3.2783052921295166,
                3.825782537460327,
                2.1671199798583984
            ],
            "min" : [
                -2.3727567195892334,
                -3.1221749782562256,
                -2.141995906829834
            ],
            "type" : "VEC3"
        },
        {
            "bufferView" : 16,
            "componentType" : 5126,
            "count" : 154,
            "type" : "VEC3"
        },
        {
            "bufferView" : 17,
            "componentType" : 5126,
            "count" : 154,
            "type" : "VEC2"
        },
        {
            "bufferView" : 18,
            "componentType" : 5123,
            "count" : 154,
            "normalized" : true,
            "type" : "VEC4"
        },
        {
            "bufferView" : 19,
            "componentType" : 5123,
            "count" : 372,
            "type" : "SCALAR"
        },
        {
            "bufferView" : 20,
            "componentType" : 5126,
            "count" : 190,
            "max" : [
                2.6346044540405273,
                3.778744697570801,
                1.8454179763793945
            ],
            "min" : [
                -2.844503879547119,
                -4.413630485534668,
                -2.21502947807312
            ],
            "type" : "VEC3"
        },
        {
            "bufferView" : 21,
            "componentType" : 5126,
            "count" : 190,
            "type" : "VEC3"
        },
        {
            "bufferView" : 22,
            "componentType" : 5126,
            "count" : 190,
            "type" : "VEC2"
        },
        {
            "bufferView" : 23,
            "componentType" : 5123,
            "count" : 190,
            "normalized" : true,
            "type" : "VEC4"
        },
        {
            "bufferView" : 24,
            "componentType" : 5123,
            "count" : 486,
            "type" : "SCALAR"
        }
    ],
    "bufferViews" : [
        {
            "buffer" : 0,
            "byteLength" : 1812,
            "byteOffset" : 0,
            "target" : 34962
        },
        {
            "buffer" : 0,
            "byteLength" : 1812,
            "byteOffset" : 1812,
            "target" : 34962
        },
        {
            "buffer" : 0,
            "byteLength" : 1208,
            "byteOffset" : 3624,
            "target" : 34962
        },
        {
            "buffer" : 0,
            "byteLength" : 1208,
            "byteOffset" : 4832,
            "target" : 34962
        },
        {
            "buffer" : 0,
            "byteLength" : 720,
            "byteOffset" : 6040,
            "target" : 34963
        },
        {
            "buffer" : 0,
            "byteLength" : 1008,
            "byteOffset" : 6760,
            "target" : 34962
        },
        {
            "buffer" : 0,
            "byteLength" : 1008,
            "byteOffset" : 7768,
            "target" : 34962
        },
        {
            "buffer" : 0,
            "byteLength" : 672,
            "byteOffset" : 8776,
            "target" : 34962
        },
        {
            "buffer" : 0,
            "byteLength" : 672,
            "byteOffset" : 9448,
            "target" : 34962
        },
        {
            "buffer" : 0,
            "byteLength" : 408,
            "byteOffset" : 10120,
            "target" : 34963
        },
        {
            "buffer" : 0,
            "byteLength" : 1320,
            "byteOffset" : 10528,
            "target" : 34962
        },
        {
            "buffer" : 0,
            "byteLength" : 1320,
            "byteOffset" : 11848,
            "target" : 34962
        },
        {
            "buffer" : 0,
            "byteLength" : 880,
            "byteOffset" : 13168,
            "target" : 34962
        },
        {
            "buffer" : 0,
            "byteLength" : 880,
            "byteOffset" : 14048,
            "target" : 34962
        },
        {
            "buffer" : 0,
            "byteLength" : 492,
            "byteOffset" : 14928,
            "target" : 34963
        },
        {
            "buffer" : 0,
            "byteLength" : 1848,
            "byteOffset" : 15420,
            "target" : 34962
        },
        {
            "buffer" : 0,
            "byteLength" : 1848,
            "byteOffset" : 17268,
            "target" : 34962
        },
        {
            "buffer" : 0,
            "byteLength" : 1232,
            "byteOffset" : 19116,
            "target" : 34962
        },
        {
            "buffer" : 0,
            "byteLength" : 1232,
            "byteOffset" : 20348,
            "target" : 34962
        },
        {
            "buffer" : 0,
            "byteLength" : 744,
            "byteOffset" : 21580,
            "target" : 34963
        },
        {
            "buffer" : 0,
            "byteLength" : 2280,
            "byteOffset" : 22324,
            "target" : 34962
        },
        {
            "buffer" : 0,
            "byteLength" : 2280,
            "byteOffset" : 24604,
            "target" : 34962
        },
        {
            "buffer" : 0,
            "byteLength" : 1520,
            "byteOffset" : 26884,
            "target" : 34962
        },
        {
            "buffer" : 0,
            "byteLength" : 1520,
            "byteOffset" : 28404,
            "target" : 34962
        },
        {
            "buffer" : 0,
            "byteLength" : 972,
            "byteOffset" : 29924,
            "target" : 34963
        }
    ],
    "buffers" : [
        {
            "byteLength" : 30896,
            "uri" : "data:application/octet-stream;base64,"
        }
    ]
}
