{
    "asset" : {
        "generator" : "Khronos glTF Blender I/O v3.3.36",
        "version" : "2.0"
    },
    "extensionsUsed" : [
        "KHR_materials_specular",
        "KHR_materials_ior"
    ],
    "scene" : 0,
    "scenes" : [
        {
            "name" : "Scene",
            "nodes" : [
                0,
                1,
                2,
                3,
                4
            ]
        }
    ],
    "nodes" : [
        {
            "mesh" : 0,
            "name" : "WhiteRockMesh1",
            "translation" : [
                0.5003805160522461,
                -0.16504304111003876,
                -0.5332202911376953
            ]
        },
        {
            "mesh" : 1,
            "name" : "WhiteRockMesh2",
            "translation" : [
                0.7963379621505737,
                -0.165045365691185,
                0.10629905760288239
            ]
        },
        {
            "mesh" : 2,
            "name" : "WhiteRockMesh3",
            "translation" : [
                -0.26115915179252625,
                1.4671145677566528,
                -0.4729395806789398
            ]
        },
        {
            "mesh" : 3,
            "name" : "WhiteRockMesh4",
            "translation" : [
                -0.5000725388526917,
                1.0962435007095337,
                0.6187551021575928
            ]
        },
        {
            "mesh" : 4,
            "name" : "WhiteRockMesh5",
            "translation" : [
                0.479138046503067,
                2.201547145843506,
                0.4572272002696991
            ]
        }
    ],
    "materials" : [
        {
            "doubleSided" : true,
            "extensions" : {
                "KHR_materials_specular" : {
                    "specularColorFactor" : [
                        0,
                        0,
                        0
                    ]
                },
                "KHR_materials_ior" : {
                    "ior" : 1.4500000476837158
                }
            },
            "name" : "Rock White",
            "pbrMetallicRoughness" : {
                "baseColorFactor" : [
                    0.800000011920929,
                    0.800000011920929,
                    0.800000011920929,
                    1
                ],
                "metallicFactor" : 0
            }
        }
    ],
    "meshes" : [
        {
            "name" : "WhiteRockMesh1",
            "primitives" : [
                {
                    "attributes" : {
                        "POSITION" : 0,
                        "NORMAL" : 1,
                        "TEXCOORD_0" : 2,
                        "COLOR_0" : 3
                    },
                    "indices" : 4,
                    "material" : 0
                }
            ]
        },
        {
            "name" : "WhiteRockMesh2",
            "primitives" : [
                {
                    "attributes" : {
                        "POSITION" : 5,
                        "NORMAL" : 6,
                        "TEXCOORD_0" : 7,
                        "COLOR_0" : 8
                    },
                    "indices" : 9,
                    "material" : 0
                }
            ]
        },
        {
            "name" : "WhiteRockMesh3",
            "primitives" : [
                {
                    "attributes" : {
                        "POSITION" : 10,
                        "NORMAL" : 11,
                        "TEXCOORD_0" : 12,
                        "COLOR_0" : 13
                    },
                    "indices" : 14,
                    "material" : 0
                }
            ]
        },
        {
            "name" : "WhiteRockMesh4",
            "primitives" : [
                {
                    "attributes" : {
                        "POSITION" : 15,
                        "NORMAL" : 16,
                        "TEXCOORD_0" : 17,
                        "COLOR_0" : 18
                    },
                    "indices" : 19,
                    "material" : 0
                }
            ]
        },
        {
            "name" : "WhiteRockMesh5",
            "primitives" : [
                {
                    "attributes" : {
                        "POSITION" : 20,
                        "NORMAL" : 21,
                        "TEXCOORD_0" : 22,
                        "COLOR_0" : 23
                    },
                    "indices" : 24,
                    "material" : 0
                }
            ]
        }
    ],
    "accessors" : [
        {
            "bufferView" : 0,
            "componentType" : 5126,
            "count" : 101,
            "max" : [
                0.25785669684410095,
                1.011257290840149,
                0.8448296785354614
            ],
            "min" : [
                -1.2913870811462402,
                -3.061690904360148e-06,
                -0.32077497243881226
            ],
            "type" : "VEC3"
        },
        {
            "bufferView" : 1,
            "componentType" : 5126,
            "count" : 101,
            "type" : "VEC3"
        },
        {
            "bufferView" : 2,
            "componentType" : 5126,
            "count" : 101,
            "type" : "VEC2"
        },
        {
            "bufferView" : 3,
            "componentType" : 5123,
            "count" : 101,
            "normalized" : true,
            "type" : "VEC4"
        },
        {
            "bufferView" : 4,
            "componentType" : 5123,
            "count" : 228,
            "type" : "SCALAR"
        },
        {
            "bufferView" : 5,
            "componentType" : 5126,
            "count" : 114,
            "max" : [
                0.09688717126846313,
                1.217660665512085,
                0.7250529527664185
            ],
            "min" : [
                -1.2817511558532715,
                -2.6165187136939494e-06,
                -0.3707898259162903
            ],
            "type" : "VEC3"
        },
        {
            "bufferView" : 6,
            "componentType" : 5126,
            "count" : 114,
            "type" : "VEC3"
        },
        {
            "bufferView" : 7,
            "componentType" : 5126,
            "count" : 114,
            "type" : "VEC2"
        },
        {
            "bufferView" : 8,
            "componentType" : 5123,
            "count" : 114,
            "normalized" : true,
            "type" : "VEC4"
        },
        {
            "bufferView" : 9,
            "componentType" : 5123,
            "count" : 246,
            "type" : "SCALAR"
        },
        {
            "bufferView" : 10,
            "componentType" : 5126,
            "count" : 153,
            "max" : [
                1.0063724517822266,
                0.7841834425926208,
                0.7552571892738342
            ],
            "min" : [
                -0.44819727540016174,
                -1.2088905572891235,
                -0.24543549120426178
            ],
            "type" : "VEC3"
        },
        {
            "bufferView" : 11,
            "componentType" : 5126,
            "count" : 153,
            "type" : "VEC3"
        },
        {
            "bufferView" : 12,
            "componentType" : 5126,
            "count" : 153,
            "type" : "VEC2"
        },
        {
            "bufferView" : 13,
            "componentType" : 5123,
            "count" : 153,
            "normalized" : true,
            "type" : "VEC4"
        },
        {
            "bufferView" : 14,
            "componentType" : 5123,
            "count" : 360,
            "type" : "SCALAR"
        },
        {
            "bufferView" : 15,
            "componentType" : 5126,
            "count" : 163,
            "max" : [
                1.2042014598846436,
                0.6947041153907776,
                0.2352389693260193
            ],
            "min" : [
                -0.39315265417099,
                -1.26129150390625,
                -0.9655304551124573
            ],
            "type" : "VEC3"
        },
        {
            "bufferView" : 16,
            "componentType" : 5126,
            "count" : 163,
            "type" : "VEC3"
        },
        {
            "bufferView" : 17,
            "componentType" : 5126,
            "count" : 163,
            "type" : "VEC2"
        },
        {
            "bufferView" : 18,
            "componentType" : 5123,
            "count" : 163,
            "normalized" : true,
            "type" : "VEC4"
        },
        {
            "bufferView" : 19,
            "componentType" : 5123,
            "count" : 414,
            "type" : "SCALAR"
        },
        {
            "bufferView" : 20,
            "componentType" : 5126,
            "count" : 133,
            "max" : [
                0.26090389490127563,
                0.3027663230895996,
                0.21509623527526855
            ],
            "min" : [
                -0.6907941699028015,
                -1.1987550258636475,
                -0.6652121543884277
            ],
            "type" : "VEC3"
        },
        {
            "bufferView" : 21,
            "componentType" : 5126,
            "count" : 133,
            "type" : "VEC3"
        },
        {
            "bufferView" : 22,
            "componentType" : 5126,
            "count" : 133,
            "type" : "VEC2"
        },
        {
            "bufferView" : 23,
            "componentType" : 5123,
            "count" : 133,
            "normalized" : true,
            "type" : "VEC4"
        },
        {
            "bufferView" : 24,
            "componentType" : 5123,
            "count" : 300,
            "type" : "SCALAR"
        }
    ],
    "bufferViews" : [
        {
            "buffer" : 0,
            "byteLength" : 1212,
            "byteOffset" : 0,
            "target" : 34962
        },
        {
            "buffer" : 0,
            "byteLength" : 1212,
            "byteOffset" : 1212,
            "target" : 34962
        },
        {
            "buffer" : 0,
            "byteLength" : 808,
            "byteOffset" : 2424,
            "target" : 34962
        },
        {
            "buffer" : 0,
            "byteLength" : 808,
            "byteOffset" : 3232,
            "target" : 34962
        },
        {
            "buffer" : 0,
            "byteLength" : 456,
            "byteOffset" : 4040,
            "target" : 34963
        },
        {
            "buffer" : 0,
            "byteLength" : 1368,
            "byteOffset" : 4496,
            "target" : 34962
        },
        {
            "buffer" : 0,
            "byteLength" : 1368,
            "byteOffset" : 5864,
            "target" : 34962
        },
        {
            "buffer" : 0,
            "byteLength" : 912,
            "byteOffset" : 7232,
            "target" : 34962
        },
        {
            "buffer" : 0,
            "byteLength" : 912,
            "byteOffset" : 8144,
            "target" : 34962
        },
        {
            "buffer" : 0,
            "byteLength" : 492,
            "byteOffset" : 9056,
            "target" : 34963
        },
        {
            "buffer" : 0,
            "byteLength" : 1836,
            "byteOffset" : 9548,
            "target" : 34962
        },
        {
            "buffer" : 0,
            "byteLength" : 1836,
            "byteOffset" : 11384,
            "target" : 34962
        },
        {
            "buffer" : 0,
            "byteLength" : 1224,
            "byteOffset" : 13220,
            "target" : 34962
        },
        {
            "buffer" : 0,
            "byteLength" : 1224,
            "byteOffset" : 14444,
            "target" : 34962
        },
        {
            "buffer" : 0,
            "byteLength" : 720,
            "byteOffset" : 15668,
            "target" : 34963
        },
        {
            "buffer" : 0,
            "byteLength" : 1956,
            "byteOffset" : 16388,
            "target" : 34962
        },
        {
            "buffer" : 0,
            "byteLength" : 1956,
            "byteOffset" : 18344,
            "target" : 34962
        },
        {
            "buffer" : 0,
            "byteLength" : 1304,
            "byteOffset" : 20300,
            "target" : 34962
        },
        {
            "buffer" : 0,
            "byteLength" : 1304,
            "byteOffset" : 21604,
            "target" : 34962
        },
        {
            "buffer" : 0,
            "byteLength" : 828,
            "byteOffset" : 22908,
            "target" : 34963
        },
        {
            "buffer" : 0,
            "byteLength" : 1596,
            "byteOffset" : 23736,
            "target" : 34962
        },
        {
            "buffer" : 0,
            "byteLength" : 1596,
            "byteOffset" : 25332,
            "target" : 34962
        },
        {
            "buffer" : 0,
            "byteLength" : 1064,
            "byteOffset" : 26928,
            "target" : 34962
        },
        {
            "buffer" : 0,
            "byteLength" : 1064,
            "byteOffset" : 27992,
            "target" : 34962
        },
        {
            "buffer" : 0,
            "byteLength" : 600,
            "byteOffset" : 29056,
            "target" : 34963
        }
    ],
    "buffers" : [
        {
            "byteLength" : 29656,
            "uri" : "data:application/octet-stream;base64,"
        }
    ]
}
