{
    "asset" : {
        "generator" : "Khronos glTF Blender I/O v3.3.27",
        "version" : "2.0"
    },
    "extensionsUsed" : [
        "KHR_materials_specular",
        "KHR_materials_ior"
    ],
    "scene" : 0,
    "scenes" : [
        {
            "name" : "Scene",
            "nodes" : [
                0
            ]
        }
    ],
    "nodes" : [
        {
            "mesh" : 0,
            "name" : "CrusherBottomMesh"
        }
    ],
    "materials" : [
        {
            "extensions" : {
                "KHR_materials_specular" : {
                    "specularColorFactor" : [
                        0,
                        0,
                        0
                    ]
                },
                "KHR_materials_ior" : {
                    "ior" : 1.4500000476837158
                }
            },
            "name" : "Platform Side",
            "pbrMetallicRoughness" : {
                "baseColorTexture" : {
                    "index" : 0
                },
                "metallicFactor" : 0
            }
        },
        {
            "extensions" : {
                "KHR_materials_specular" : {
                    "specularColorFactor" : [
                        0,
                        0,
                        0
                    ]
                },
                "KHR_materials_ior" : {
                    "ior" : 1.4500000476837158
                }
            },
            "name" : "Crusher",
            "pbrMetallicRoughness" : {
                "baseColorTexture" : {
                    "index" : 1
                },
                "metallicFactor" : 0
            }
        },
        {
            "extensions" : {
                "KHR_materials_specular" : {
                    "specularColorTexture" : {
                        "index" : 2
                    },
                    "specularColorFactor" : [
                        2.3719510718560675,
                        2.371653601992566,
                        2.3692038074246233
                    ]
                },
                "KHR_materials_ior" : {
                    "ior" : 1.4500000476837158
                }
            },
            "name" : "Platform Top",
            "pbrMetallicRoughness" : {
                "baseColorTexture" : {
                    "index" : 3
                },
                "metallicFactor" : 0,
                "roughnessFactor" : 0.800000011920929
            }
        },
        {
            "extensions" : {
                "KHR_materials_specular" : {
                    "specularColorFactor" : [
                        0,
                        0,
                        0
                    ]
                },
                "KHR_materials_ior" : {
                    "ior" : 1.4500000476837158
                }
            },
            "name" : "Crusher Light",
            "pbrMetallicRoughness" : {
                "baseColorTexture" : {
                    "index" : 4
                },
                "metallicFactor" : 0
            }
        }
    ],
    "meshes" : [
        {
            "name" : "CrusherBottomMesh",
            "primitives" : [
                {
                    "attributes" : {
                        "POSITION" : 0,
                        "NORMAL" : 1,
                        "TEXCOORD_0" : 2,
                        "COLOR_0" : 3
                    },
                    "indices" : 4,
                    "material" : 0
                },
                {
                    "attributes" : {
                        "POSITION" : 5,
                        "NORMAL" : 6,
                        "TEXCOORD_0" : 7,
                        "COLOR_0" : 8
                    },
                    "indices" : 9,
                    "material" : 1
                },
                {
                    "attributes" : {
                        "POSITION" : 10,
                        "NORMAL" : 11,
                        "TEXCOORD_0" : 12,
                        "COLOR_0" : 13
                    },
                    "indices" : 14,
                    "material" : 2
                },
                {
                    "attributes" : {
                        "POSITION" : 15,
                        "NORMAL" : 16,
                        "TEXCOORD_0" : 17,
                        "COLOR_0" : 18
                    },
                    "indices" : 19,
                    "material" : 3
                }
            ]
        }
    ],
    "textures" : [
        {
            "sampler" : 0,
            "source" : 0
        },
        {
            "sampler" : 0,
            "source" : 1
        },
        {
            "sampler" : 0,
            "source" : 2
        },
        {
            "sampler" : 0,
            "source" : 3
        },
        {
            "sampler" : 0,
            "source" : 4
        }
    ],
    "images" : [
        {
            "bufferView" : 5,
            "mimeType" : "image/png",
            "name" : "platform side"
        },
        {
            "bufferView" : 11,
            "mimeType" : "image/png",
            "name" : "crusher"
        },
        {
            "bufferView" : 17,
            "mimeType" : "image/png",
            "name" : "Image"
        },
        {
            "bufferView" : 18,
            "mimeType" : "image/png",
            "name" : "platform top"
        },
        {
            "bufferView" : 24,
            "mimeType" : "image/png",
            "name" : "crusher light"
        }
    ],
    "accessors" : [
        {
            "bufferView" : 0,
            "componentType" : 5126,
            "count" : 466,
            "max" : [
                2.6128618717193604,
                -0.5746744275093079,
                2.522430896759033
            ],
            "min" : [
                -2.6128618717193604,
                -10.00001049041748,
                -2.522475242614746
            ],
            "type" : "VEC3"
        },
        {
            "bufferView" : 1,
            "componentType" : 5126,
            "count" : 466,
            "type" : "VEC3"
        },
        {
            "bufferView" : 2,
            "componentType" : 5126,
            "count" : 466,
            "type" : "VEC2"
        },
        {
            "bufferView" : 3,
            "componentType" : 5123,
            "count" : 466,
            "normalized" : true,
            "type" : "VEC4"
        },
        {
            "bufferView" : 4,
            "componentType" : 5123,
            "count" : 468,
            "type" : "SCALAR"
        },
        {
            "bufferView" : 6,
            "componentType" : 5126,
            "count" : 275,
            "max" : [
                2.500000476837158,
                1.612477717571892e-05,
                2.500000238418579
            ],
            "min" : [
                -2.500000476837158,
                -0.5746925473213196,
                -2.500002861022949
            ],
            "type" : "VEC3"
        },
        {
            "bufferView" : 7,
            "componentType" : 5126,
            "count" : 275,
            "type" : "VEC3"
        },
        {
            "bufferView" : 8,
            "componentType" : 5126,
            "count" : 275,
            "type" : "VEC2"
        },
        {
            "bufferView" : 9,
            "componentType" : 5123,
            "count" : 275,
            "normalized" : true,
            "type" : "VEC4"
        },
        {
            "bufferView" : 10,
            "componentType" : 5123,
            "count" : 276,
            "type" : "SCALAR"
        },
        {
            "bufferView" : 12,
            "componentType" : 5126,
            "count" : 216,
            "max" : [
                2.409050941467285,
                0.0653592050075531,
                2.4090511798858643
            ],
            "min" : [
                -2.4090511798858643,
                -0.0001663361763348803,
                -2.4090511798858643
            ],
            "type" : "VEC3"
        },
        {
            "bufferView" : 13,
            "componentType" : 5126,
            "count" : 216,
            "type" : "VEC3"
        },
        {
            "bufferView" : 14,
            "componentType" : 5126,
            "count" : 216,
            "type" : "VEC2"
        },
        {
            "bufferView" : 15,
            "componentType" : 5123,
            "count" : 216,
            "normalized" : true,
            "type" : "VEC4"
        },
        {
            "bufferView" : 16,
            "componentType" : 5123,
            "count" : 216,
            "type" : "SCALAR"
        },
        {
            "bufferView" : 19,
            "componentType" : 5126,
            "count" : 72,
            "max" : [
                2.278707981109619,
                0.10104814916849136,
                2.2787082195281982
            ],
            "min" : [
                -2.27870774269104,
                0.05035930871963501,
                -2.278707981109619
            ],
            "type" : "VEC3"
        },
        {
            "bufferView" : 20,
            "componentType" : 5126,
            "count" : 72,
            "type" : "VEC3"
        },
        {
            "bufferView" : 21,
            "componentType" : 5126,
            "count" : 72,
            "type" : "VEC2"
        },
        {
            "bufferView" : 22,
            "componentType" : 5123,
            "count" : 72,
            "normalized" : true,
            "type" : "VEC4"
        },
        {
            "bufferView" : 23,
            "componentType" : 5123,
            "count" : 72,
            "type" : "SCALAR"
        }
    ],
    "bufferViews" : [
        {
            "buffer" : 0,
            "byteLength" : 5592,
            "byteOffset" : 0,
            "target" : 34962
        },
        {
            "buffer" : 0,
            "byteLength" : 5592,
            "byteOffset" : 5592,
            "target" : 34962
        },
        {
            "buffer" : 0,
            "byteLength" : 3728,
            "byteOffset" : 11184,
            "target" : 34962
        },
        {
            "buffer" : 0,
            "byteLength" : 3728,
            "byteOffset" : 14912,
            "target" : 34962
        },
        {
            "buffer" : 0,
            "byteLength" : 936,
            "byteOffset" : 18640,
            "target" : 34963
        },
        {
            "buffer" : 0,
            "byteLength" : 75215,
            "byteOffset" : 19576
        },
        {
            "buffer" : 0,
            "byteLength" : 3300,
            "byteOffset" : 94792,
            "target" : 34962
        },
        {
            "buffer" : 0,
            "byteLength" : 3300,
            "byteOffset" : 98092,
            "target" : 34962
        },
        {
            "buffer" : 0,
            "byteLength" : 2200,
            "byteOffset" : 101392,
            "target" : 34962
        },
        {
            "buffer" : 0,
            "byteLength" : 2200,
            "byteOffset" : 103592,
            "target" : 34962
        },
        {
            "buffer" : 0,
            "byteLength" : 552,
            "byteOffset" : 105792,
            "target" : 34963
        },
        {
            "buffer" : 0,
            "byteLength" : 66513,
            "byteOffset" : 106344
        },
        {
            "buffer" : 0,
            "byteLength" : 2592,
            "byteOffset" : 172860,
            "target" : 34962
        },
        {
            "buffer" : 0,
            "byteLength" : 2592,
            "byteOffset" : 175452,
            "target" : 34962
        },
        {
            "buffer" : 0,
            "byteLength" : 1728,
            "byteOffset" : 178044,
            "target" : 34962
        },
        {
            "buffer" : 0,
            "byteLength" : 1728,
            "byteOffset" : 179772,
            "target" : 34962
        },
        {
            "buffer" : 0,
            "byteLength" : 432,
            "byteOffset" : 181500,
            "target" : 34963
        },
        {
            "buffer" : 0,
            "byteLength" : 69014,
            "byteOffset" : 181932
        },
        {
            "buffer" : 0,
            "byteLength" : 86967,
            "byteOffset" : 250948
        },
        {
            "buffer" : 0,
            "byteLength" : 864,
            "byteOffset" : 337916,
            "target" : 34962
        },
        {
            "buffer" : 0,
            "byteLength" : 864,
            "byteOffset" : 338780,
            "target" : 34962
        },
        {
            "buffer" : 0,
            "byteLength" : 576,
            "byteOffset" : 339644,
            "target" : 34962
        },
        {
            "buffer" : 0,
            "byteLength" : 576,
            "byteOffset" : 340220,
            "target" : 34962
        },
        {
            "buffer" : 0,
            "byteLength" : 144,
            "byteOffset" : 340796,
            "target" : 34963
        },
        {
            "buffer" : 0,
            "byteLength" : 4610,
            "byteOffset" : 340940
        }
    ],
    "samplers" : [
        {
            "magFilter" : 9729,
            "minFilter" : 9987
        }
    ],
    "buffers" : [
        {
            "byteLength" : 345552,
            "uri" : "data:application/octet-stream;base64,"
        }
    ]
}
