{
    "asset" : {
        "generator" : "Khronos glTF Blender I/O v3.3.36",
        "version" : "2.0"
    },
    "scene" : 0,
    "scenes" : [
        {
            "name" : "Scene",
            "nodes" : [
                0,
                1,
                2,
                3,
                4
            ]
        }
    ],
    "nodes" : [
        {
            "mesh" : 0,
            "name" : "Wall"
        },
        {
            "mesh" : 1,
            "name" : "FloorPavement"
        },
        {
            "mesh" : 2,
            "name" : "FloorMetal"
        },
        {
            "mesh" : 3,
            "name" : "FloorPavement2"
        },
        {
            "mesh" : 4,
            "name" : "Ceiling"
        }
    ],
    "meshes" : [
        {
            "name" : "Wall",
            "primitives" : [
                {
                    "attributes" : {
                        "POSITION" : 0,
                        "NORMAL" : 1
                    },
                    "indices" : 2
                }
            ]
        },
        {
            "name" : "FloorPavement",
            "primitives" : [
                {
                    "attributes" : {
                        "POSITION" : 3,
                        "NORMAL" : 4
                    },
                    "indices" : 5
                }
            ]
        },
        {
            "name" : "FloorMetal",
            "primitives" : [
                {
                    "attributes" : {
                        "POSITION" : 6,
                        "NORMAL" : 7
                    },
                    "indices" : 8
                }
            ]
        },
        {
            "name" : "FloorPavement2",
            "primitives" : [
                {
                    "attributes" : {
                        "POSITION" : 9,
                        "NORMAL" : 10
                    },
                    "indices" : 11
                }
            ]
        },
        {
            "name" : "Ceiling",
            "primitives" : [
                {
                    "attributes" : {
                        "POSITION" : 12,
                        "NORMAL" : 13
                    },
                    "indices" : 14
                }
            ]
        }
    ],
    "accessors" : [
        {
            "bufferView" : 0,
            "componentType" : 5126,
            "count" : 4350,
            "max" : [
                -56.02515411376953,
                0.34270477294921875,
                -18.217670440673828
            ],
            "min" : [
                -673.0001220703125,
                -69.99896240234375,
                -423.5002136230469
            ],
            "type" : "VEC3"
        },
        {
            "bufferView" : 1,
            "componentType" : 5126,
            "count" : 4350,
            "type" : "VEC3"
        },
        {
            "bufferView" : 2,
            "componentType" : 5123,
            "count" : 7557,
            "type" : "SCALAR"
        },
        {
            "bufferView" : 3,
            "componentType" : 5126,
            "count" : 947,
            "max" : [
                -58.12001419067383,
                -29.665706634521484,
                -52.00021743774414
            ],
            "min" : [
                -673.0001220703125,
                -69.9987564086914,
                -423.5002136230469
            ],
            "type" : "VEC3"
        },
        {
            "bufferView" : 4,
            "componentType" : 5126,
            "count" : 947,
            "type" : "VEC3"
        },
        {
            "bufferView" : 5,
            "componentType" : 5123,
            "count" : 1584,
            "type" : "SCALAR"
        },
        {
            "bufferView" : 6,
            "componentType" : 5126,
            "count" : 563,
            "max" : [
                -56.02515411376953,
                -29.98604393005371,
                -51.29182434082031
            ],
            "min" : [
                -675.7001342773438,
                -69.99896240234375,
                -425.00030517578125
            ],
            "type" : "VEC3"
        },
        {
            "bufferView" : 7,
            "componentType" : 5126,
            "count" : 563,
            "type" : "VEC3"
        },
        {
            "bufferView" : 8,
            "componentType" : 5123,
            "count" : 900,
            "type" : "SCALAR"
        },
        {
            "bufferView" : 9,
            "componentType" : 5126,
            "count" : 292,
            "max" : [
                -430.0000915527344,
                -30.000675201416016,
                -17.999509811401367
            ],
            "min" : [
                -510.62139892578125,
                -59.99994659423828,
                -63.00034713745117
            ],
            "type" : "VEC3"
        },
        {
            "bufferView" : 10,
            "componentType" : 5126,
            "count" : 292,
            "type" : "VEC3"
        },
        {
            "bufferView" : 11,
            "componentType" : 5123,
            "count" : 438,
            "type" : "SCALAR"
        },
        {
            "bufferView" : 12,
            "componentType" : 5126,
            "count" : 268,
            "max" : [
                -219.1956024169922,
                -15.272393226623535,
                -56.56037139892578
            ],
            "min" : [
                -430.7281799316406,
                -23.485456466674805,
                -130.06187438964844
            ],
            "type" : "VEC3"
        },
        {
            "bufferView" : 13,
            "componentType" : 5126,
            "count" : 268,
            "type" : "VEC3"
        },
        {
            "bufferView" : 14,
            "componentType" : 5123,
            "count" : 558,
            "type" : "SCALAR"
        }
    ],
    "bufferViews" : [
        {
            "buffer" : 0,
            "byteLength" : 52200,
            "byteOffset" : 0,
            "target" : 34962
        },
        {
            "buffer" : 0,
            "byteLength" : 52200,
            "byteOffset" : 52200,
            "target" : 34962
        },
        {
            "buffer" : 0,
            "byteLength" : 15114,
            "byteOffset" : 104400,
            "target" : 34963
        },
        {
            "buffer" : 0,
            "byteLength" : 11364,
            "byteOffset" : 119516,
            "target" : 34962
        },
        {
            "buffer" : 0,
            "byteLength" : 11364,
            "byteOffset" : 130880,
            "target" : 34962
        },
        {
            "buffer" : 0,
            "byteLength" : 3168,
            "byteOffset" : 142244,
            "target" : 34963
        },
        {
            "buffer" : 0,
            "byteLength" : 6756,
            "byteOffset" : 145412,
            "target" : 34962
        },
        {
            "buffer" : 0,
            "byteLength" : 6756,
            "byteOffset" : 152168,
            "target" : 34962
        },
        {
            "buffer" : 0,
            "byteLength" : 1800,
            "byteOffset" : 158924,
            "target" : 34963
        },
        {
            "buffer" : 0,
            "byteLength" : 3504,
            "byteOffset" : 160724,
            "target" : 34962
        },
        {
            "buffer" : 0,
            "byteLength" : 3504,
            "byteOffset" : 164228,
            "target" : 34962
        },
        {
            "buffer" : 0,
            "byteLength" : 876,
            "byteOffset" : 167732,
            "target" : 34963
        },
        {
            "buffer" : 0,
            "byteLength" : 3216,
            "byteOffset" : 168608,
            "target" : 34962
        },
        {
            "buffer" : 0,
            "byteLength" : 3216,
            "byteOffset" : 171824,
            "target" : 34962
        },
        {
            "buffer" : 0,
            "byteLength" : 1116,
            "byteOffset" : 175040,
            "target" : 34963
        }
    ],
    "buffers" : [
        {
            "byteLength" : 176156,
            "uri" : "data:application/octet-stream;base64,"
        }
    ]
}
