{
    "asset" : {
        "generator" : "Khronos glTF Blender I/O v3.3.36",
        "version" : "2.0"
    },
    "scene" : 0,
    "scenes" : [
        {
            "name" : "Scene",
            "nodes" : [
                0,
                1,
                2,
                3
            ]
        }
    ],
    "nodes" : [
        {
            "mesh" : 0,
            "name" : "Wall"
        },
        {
            "mesh" : 1,
            "name" : "WallOneWay"
        },
        {
            "mesh" : 2,
            "name" : "FloorPavement"
        },
        {
            "mesh" : 3,
            "name" : "FloorMetal"
        }
    ],
    "meshes" : [
        {
            "name" : "Wall",
            "primitives" : [
                {
                    "attributes" : {
                        "POSITION" : 0,
                        "NORMAL" : 1
                    },
                    "indices" : 2
                }
            ]
        },
        {
            "name" : "WallOneWay",
            "primitives" : [
                {
                    "attributes" : {
                        "POSITION" : 3,
                        "NORMAL" : 4
                    },
                    "indices" : 5
                }
            ]
        },
        {
            "name" : "FloorPavement",
            "primitives" : [
                {
                    "attributes" : {
                        "POSITION" : 6,
                        "NORMAL" : 7
                    },
                    "indices" : 8
                }
            ]
        },
        {
            "name" : "FloorMetal",
            "primitives" : [
                {
                    "attributes" : {
                        "POSITION" : 9,
                        "NORMAL" : 10
                    },
                    "indices" : 11
                }
            ]
        }
    ],
    "accessors" : [
        {
            "bufferView" : 0,
            "componentType" : 5126,
            "count" : 3374,
            "max" : [
                -56.02515411376953,
                0.34270477294921875,
                -18.217670440673828
            ],
            "min" : [
                -673.0001220703125,
                -69.99896240234375,
                -423.5002136230469
            ],
            "type" : "VEC3"
        },
        {
            "bufferView" : 1,
            "componentType" : 5126,
            "count" : 3374,
            "type" : "VEC3"
        },
        {
            "bufferView" : 2,
            "componentType" : 5123,
            "count" : 5106,
            "type" : "SCALAR"
        },
        {
            "bufferView" : 3,
            "componentType" : 5126,
            "count" : 4,
            "max" : [
                -620.6400146484375,
                0.3342742919921875,
                -416.5002136230469
            ],
            "min" : [
                -620.6400146484375,
                -29.670581817626953,
                -423.5002136230469
            ],
            "type" : "VEC3"
        },
        {
            "bufferView" : 4,
            "componentType" : 5126,
            "count" : 4,
            "type" : "VEC3"
        },
        {
            "bufferView" : 5,
            "componentType" : 5123,
            "count" : 6,
            "type" : "SCALAR"
        },
        {
            "bufferView" : 6,
            "componentType" : 5126,
            "count" : 1241,
            "max" : [
                -58.12001419067383,
                -29.665706634521484,
                -17.999509811401367
            ],
            "min" : [
                -673.0001220703125,
                -69.9987564086914,
                -423.5002136230469
            ],
            "type" : "VEC3"
        },
        {
            "bufferView" : 7,
            "componentType" : 5126,
            "count" : 1241,
            "type" : "VEC3"
        },
        {
            "bufferView" : 8,
            "componentType" : 5123,
            "count" : 2022,
            "type" : "SCALAR"
        },
        {
            "bufferView" : 9,
            "componentType" : 5126,
            "count" : 563,
            "max" : [
                -56.02515411376953,
                -29.98604393005371,
                -51.29182434082031
            ],
            "min" : [
                -675.7001342773438,
                -69.99896240234375,
                -425.00030517578125
            ],
            "type" : "VEC3"
        },
        {
            "bufferView" : 10,
            "componentType" : 5126,
            "count" : 563,
            "type" : "VEC3"
        },
        {
            "bufferView" : 11,
            "componentType" : 5123,
            "count" : 900,
            "type" : "SCALAR"
        }
    ],
    "bufferViews" : [
        {
            "buffer" : 0,
            "byteLength" : 40488,
            "byteOffset" : 0,
            "target" : 34962
        },
        {
            "buffer" : 0,
            "byteLength" : 40488,
            "byteOffset" : 40488,
            "target" : 34962
        },
        {
            "buffer" : 0,
            "byteLength" : 10212,
            "byteOffset" : 80976,
            "target" : 34963
        },
        {
            "buffer" : 0,
            "byteLength" : 48,
            "byteOffset" : 91188,
            "target" : 34962
        },
        {
            "buffer" : 0,
            "byteLength" : 48,
            "byteOffset" : 91236,
            "target" : 34962
        },
        {
            "buffer" : 0,
            "byteLength" : 12,
            "byteOffset" : 91284,
            "target" : 34963
        },
        {
            "buffer" : 0,
            "byteLength" : 14892,
            "byteOffset" : 91296,
            "target" : 34962
        },
        {
            "buffer" : 0,
            "byteLength" : 14892,
            "byteOffset" : 106188,
            "target" : 34962
        },
        {
            "buffer" : 0,
            "byteLength" : 4044,
            "byteOffset" : 121080,
            "target" : 34963
        },
        {
            "buffer" : 0,
            "byteLength" : 6756,
            "byteOffset" : 125124,
            "target" : 34962
        },
        {
            "buffer" : 0,
            "byteLength" : 6756,
            "byteOffset" : 131880,
            "target" : 34962
        },
        {
            "buffer" : 0,
            "byteLength" : 1800,
            "byteOffset" : 138636,
            "target" : 34963
        }
    ],
    "buffers" : [
        {
            "byteLength" : 140436,
            "uri" : "data:application/octet-stream;base64,"
        }
    ]
}
