{
    "asset" : {
        "generator" : "Khronos glTF Blender I/O v3.3.27",
        "version" : "2.0"
    },
    "scene" : 0,
    "scenes" : [
        {
            "name" : "Scene",
            "nodes" : [
                0,
                1
            ]
        }
    ],
    "nodes" : [
        {
            "mesh" : 0,
            "name" : "Floor"
        },
        {
            "mesh" : 1,
            "name" : "Wall"
        }
    ],
    "meshes" : [
        {
            "name" : "Floor",
            "primitives" : [
                {
                    "attributes" : {
                        "POSITION" : 0,
                        "NORMAL" : 1
                    },
                    "indices" : 2
                }
            ]
        },
        {
            "name" : "Wall",
            "primitives" : [
                {
                    "attributes" : {
                        "POSITION" : 3,
                        "NORMAL" : 4
                    },
                    "indices" : 5
                }
            ]
        }
    ],
    "accessors" : [
        {
            "bufferView" : 0,
            "componentType" : 5126,
            "count" : 1532,
            "max" : [
                -54.66915512084961,
                -29.67049789428711,
                -17.999509811401367
            ],
            "min" : [
                -675.7001342773438,
                -69.99897003173828,
                -430.000244140625
            ],
            "type" : "VEC3"
        },
        {
            "bufferView" : 1,
            "componentType" : 5126,
            "count" : 1532,
            "type" : "VEC3"
        },
        {
            "bufferView" : 2,
            "componentType" : 5123,
            "count" : 2298,
            "type" : "SCALAR"
        },
        {
            "bufferView" : 3,
            "componentType" : 5126,
            "count" : 3178,
            "max" : [
                -56.5294303894043,
                -19.969697952270508,
                -18.249191284179688
            ],
            "min" : [
                -673.2501831054688,
                -69.99884033203125,
                -424.5362548828125
            ],
            "type" : "VEC3"
        },
        {
            "bufferView" : 4,
            "componentType" : 5126,
            "count" : 3178,
            "type" : "VEC3"
        },
        {
            "bufferView" : 5,
            "componentType" : 5123,
            "count" : 4806,
            "type" : "SCALAR"
        }
    ],
    "bufferViews" : [
        {
            "buffer" : 0,
            "byteLength" : 18384,
            "byteOffset" : 0,
            "target" : 34962
        },
        {
            "buffer" : 0,
            "byteLength" : 18384,
            "byteOffset" : 18384,
            "target" : 34962
        },
        {
            "buffer" : 0,
            "byteLength" : 4596,
            "byteOffset" : 36768,
            "target" : 34963
        },
        {
            "buffer" : 0,
            "byteLength" : 38136,
            "byteOffset" : 41364,
            "target" : 34962
        },
        {
            "buffer" : 0,
            "byteLength" : 38136,
            "byteOffset" : 79500,
            "target" : 34962
        },
        {
            "buffer" : 0,
            "byteLength" : 9612,
            "byteOffset" : 117636,
            "target" : 34963
        }
    ],
    "buffers" : [
        {
            "byteLength" : 127248,
            "uri" : "data:application/octet-stream;base64,"
        }
    ]
}
