{
    "asset" : {
        "generator" : "Khronos glTF Blender I/O v3.3.27",
        "version" : "2.0"
    },
    "scene" : 0,
    "scenes" : [
        {
            "name" : "Scene",
            "nodes" : [
                0,
                1
            ]
        }
    ],
    "nodes" : [
        {
            "mesh" : 0,
            "name" : "Floor"
        },
        {
            "mesh" : 1,
            "name" : "Wall"
        }
    ],
    "meshes" : [
        {
            "name" : "Floor",
            "primitives" : [
                {
                    "attributes" : {
                        "POSITION" : 0,
                        "NORMAL" : 1
                    },
                    "indices" : 2
                }
            ]
        },
        {
            "name" : "Wall",
            "primitives" : [
                {
                    "attributes" : {
                        "POSITION" : 3,
                        "NORMAL" : 4
                    },
                    "indices" : 5
                }
            ]
        }
    ],
    "accessors" : [
        {
            "bufferView" : 0,
            "componentType" : 5126,
            "count" : 2749,
            "max" : [
                92.30782318115234,
                110.00243377685547,
                32.19236755371094
            ],
            "min" : [
                -664.0101928710938,
                -65.0184097290039,
                -1368.910400390625
            ],
            "type" : "VEC3"
        },
        {
            "bufferView" : 1,
            "componentType" : 5126,
            "count" : 2749,
            "type" : "VEC3"
        },
        {
            "bufferView" : 2,
            "componentType" : 5123,
            "count" : 3897,
            "type" : "SCALAR"
        },
        {
            "bufferView" : 3,
            "componentType" : 5126,
            "count" : 5847,
            "max" : [
                113.49879455566406,
                120.00242614746094,
                5.15582275390625
            ],
            "min" : [
                -664.000244140625,
                -101.0951919555664,
                -1368.910400390625
            ],
            "type" : "VEC3"
        },
        {
            "bufferView" : 4,
            "componentType" : 5126,
            "count" : 5847,
            "type" : "VEC3"
        },
        {
            "bufferView" : 5,
            "componentType" : 5123,
            "count" : 8787,
            "type" : "SCALAR"
        }
    ],
    "bufferViews" : [
        {
            "buffer" : 0,
            "byteLength" : 32988,
            "byteOffset" : 0,
            "target" : 34962
        },
        {
            "buffer" : 0,
            "byteLength" : 32988,
            "byteOffset" : 32988,
            "target" : 34962
        },
        {
            "buffer" : 0,
            "byteLength" : 7794,
            "byteOffset" : 65976,
            "target" : 34963
        },
        {
            "buffer" : 0,
            "byteLength" : 70164,
            "byteOffset" : 73772,
            "target" : 34962
        },
        {
            "buffer" : 0,
            "byteLength" : 70164,
            "byteOffset" : 143936,
            "target" : 34962
        },
        {
            "buffer" : 0,
            "byteLength" : 17574,
            "byteOffset" : 214100,
            "target" : 34963
        }
    ],
    "buffers" : [
        {
            "byteLength" : 231676,
            "uri" : "data:application/octet-stream;base64,"
        }
    ]
}
