{
    "asset" : {
        "generator" : "Khronos glTF Blender I/O v3.3.27",
        "version" : "2.0"
    },
    "scene" : 0,
    "scenes" : [
        {
            "name" : "Scene",
            "nodes" : [
                0,
                1
            ]
        }
    ],
    "nodes" : [
        {
            "mesh" : 0,
            "name" : "Floor"
        },
        {
            "mesh" : 1,
            "name" : "Wall"
        }
    ],
    "meshes" : [
        {
            "name" : "Floor",
            "primitives" : [
                {
                    "attributes" : {
                        "POSITION" : 0,
                        "NORMAL" : 1
                    },
                    "indices" : 2
                }
            ]
        },
        {
            "name" : "Wall",
            "primitives" : [
                {
                    "attributes" : {
                        "POSITION" : 3,
                        "NORMAL" : 4
                    },
                    "indices" : 5
                }
            ]
        }
    ],
    "accessors" : [
        {
            "bufferView" : 0,
            "componentType" : 5126,
            "count" : 2366,
            "max" : [
                92.30782318115234,
                110.00243377685547,
                32.19236755371094
            ],
            "min" : [
                -664.0101928710938,
                -65.0184097290039,
                -1368.910400390625
            ],
            "type" : "VEC3"
        },
        {
            "bufferView" : 1,
            "componentType" : 5126,
            "count" : 2366,
            "type" : "VEC3"
        },
        {
            "bufferView" : 2,
            "componentType" : 5123,
            "count" : 3717,
            "type" : "SCALAR"
        },
        {
            "bufferView" : 3,
            "componentType" : 5126,
            "count" : 5123,
            "max" : [
                116.57884979248047,
                120.00243377685547,
                5.15581750869751
            ],
            "min" : [
                -664.0101928710938,
                -99.99932861328125,
                -1368.910400390625
            ],
            "type" : "VEC3"
        },
        {
            "bufferView" : 4,
            "componentType" : 5126,
            "count" : 5123,
            "type" : "VEC3"
        },
        {
            "bufferView" : 5,
            "componentType" : 5123,
            "count" : 7821,
            "type" : "SCALAR"
        }
    ],
    "bufferViews" : [
        {
            "buffer" : 0,
            "byteLength" : 28392,
            "byteOffset" : 0,
            "target" : 34962
        },
        {
            "buffer" : 0,
            "byteLength" : 28392,
            "byteOffset" : 28392,
            "target" : 34962
        },
        {
            "buffer" : 0,
            "byteLength" : 7434,
            "byteOffset" : 56784,
            "target" : 34963
        },
        {
            "buffer" : 0,
            "byteLength" : 61476,
            "byteOffset" : 64220,
            "target" : 34962
        },
        {
            "buffer" : 0,
            "byteLength" : 61476,
            "byteOffset" : 125696,
            "target" : 34962
        },
        {
            "buffer" : 0,
            "byteLength" : 15642,
            "byteOffset" : 187172,
            "target" : 34963
        }
    ],
    "buffers" : [
        {
            "byteLength" : 202816,
            "uri" : "data:application/octet-stream;base64,"
        }
    ]
}
