{
    "asset" : {
        "generator" : "Khronos glTF Blender I/O v3.3.27",
        "version" : "2.0"
    },
    "scene" : 0,
    "scenes" : [
        {
            "name" : "Scene",
            "nodes" : [
                0,
                1
            ]
        }
    ],
    "nodes" : [
        {
            "mesh" : 0,
            "name" : "Floor"
        },
        {
            "mesh" : 1,
            "name" : "Wall"
        }
    ],
    "meshes" : [
        {
            "name" : "Floor",
            "primitives" : [
                {
                    "attributes" : {
                        "POSITION" : 0,
                        "NORMAL" : 1
                    },
                    "indices" : 2
                }
            ]
        },
        {
            "name" : "Wall.001",
            "primitives" : [
                {
                    "attributes" : {
                        "POSITION" : 3,
                        "NORMAL" : 4
                    },
                    "indices" : 5
                }
            ]
        }
    ],
    "accessors" : [
        {
            "bufferView" : 0,
            "componentType" : 5126,
            "count" : 1528,
            "max" : [
                217.0000762939453,
                40.00077819824219,
                4.984095573425293
            ],
            "min" : [
                -675.7001342773438,
                -69.99896240234375,
                -452.2149353027344
            ],
            "type" : "VEC3"
        },
        {
            "bufferView" : 1,
            "componentType" : 5126,
            "count" : 1528,
            "type" : "VEC3"
        },
        {
            "bufferView" : 2,
            "componentType" : 5123,
            "count" : 2394,
            "type" : "SCALAR"
        },
        {
            "bufferView" : 3,
            "componentType" : 5126,
            "count" : 2788,
            "max" : [
                217.0000762939453,
                50.00077819824219,
                4.984095573425293
            ],
            "min" : [
                -673.0001220703125,
                -69.99896240234375,
                -452.2149353027344
            ],
            "type" : "VEC3"
        },
        {
            "bufferView" : 4,
            "componentType" : 5126,
            "count" : 2788,
            "type" : "VEC3"
        },
        {
            "bufferView" : 5,
            "componentType" : 5123,
            "count" : 4242,
            "type" : "SCALAR"
        }
    ],
    "bufferViews" : [
        {
            "buffer" : 0,
            "byteLength" : 18336,
            "byteOffset" : 0,
            "target" : 34962
        },
        {
            "buffer" : 0,
            "byteLength" : 18336,
            "byteOffset" : 18336,
            "target" : 34962
        },
        {
            "buffer" : 0,
            "byteLength" : 4788,
            "byteOffset" : 36672,
            "target" : 34963
        },
        {
            "buffer" : 0,
            "byteLength" : 33456,
            "byteOffset" : 41460,
            "target" : 34962
        },
        {
            "buffer" : 0,
            "byteLength" : 33456,
            "byteOffset" : 74916,
            "target" : 34962
        },
        {
            "buffer" : 0,
            "byteLength" : 8484,
            "byteOffset" : 108372,
            "target" : 34963
        }
    ],
    "buffers" : [
        {
            "byteLength" : 116856,
            "uri" : "data:application/octet-stream;base64,"
        }
    ]
}
