<svg height="16" viewBox="0 0 16 16" width="16" xmlns="http://www.w3.org/2000/svg"><g fill="#fc7f7f" stroke-width=".700598"><path d="m8.165355 12.591213a2.101793 2.101793 0 0 0 .2900474-4.181867 3.1526894 3.5029883 0 0 0 -6.1820736 0 2.101793 2.101793 0 0 0 .2900475 4.180466zm-5.6047812.700599a.70059765.70059765 0 0 0 0 1.401195.70059765.70059765 0 0 0 0-1.401195zm5.6047812 0a.70059765.70059765 0 0 0 0 1.401195.70059765.70059765 0 0 0 0-1.401195zm-2.8023906.700597a.70059765.70059765 0 0 0 0 1.401195.70059765.70059765 0 0 0 0-1.401195z"/><path d="m11.148522 9.5268461a2.101793 2.101793 0 0 0 .290048-4.1818669 3.1526894 3.5029883 0 0 0 -6.1820733 0 2.101793 2.101793 0 0 0 .2900475 4.1804659zm-5.6047803.7005989a.70059765.70059765 0 0 0 0 1.401195.70059765.70059765 0 0 0 0-1.401195zm5.6047803 0a.70059765.70059765 0 0 0 0 1.401195.70059765.70059765 0 0 0 0-1.401195zm-2.8023897.700597a.70059765.70059765 0 0 0 0 1.401195.70059765.70059765 0 0 0 0-1.401195z" fill-opacity=".7"/><path d="m13.293664 7.6449273a2.101793 2.101793 0 0 0 .290048-4.1818669 3.1526894 3.5029883 0 0 0 -6.1820739 0 2.101793 2.101793 0 0 0 .2900475 4.1804659zm-5.6047809.700599a.70059765.70059765 0 0 0 0 1.401195.70059765.70059765 0 0 0 0-1.401195zm5.6047809 0a.70059765.70059765 0 0 0 0 1.401195.70059765.70059765 0 0 0 0-1.401195zm-2.802391.700597a.70059765.70059765 0 0 0 0 1.4011947.70059765.70059765 0 0 0 0-1.4011947z" fill-opacity=".5"/></g></svg>