<svg height="16" viewBox="0 0 16 16" width="16" xmlns="http://www.w3.org/2000/svg"><g fill="#8da5f3" transform="translate(-.4508 .47048)"><path d="m7 0a2 2 0 0 0 -2 2h7a2 2 0 0 1 2 2v6a2 2 0 0 0 2-2v-6a2 2 0 0 0 -2-2z" fill-opacity=".4"/><path d="m5 2a2 2 0 0 0 -2 2h7a2 2 0 0 1 2 2v7a2 2 0 0 0 2-2v-7a2 2 0 0 0 -2-2z" fill-opacity=".6"/><path d="m3 4a2 2 0 0 0 -2 2v7a2 2 0 0 0 2 2h7a2 2 0 0 0 2-2v-7a2 2 0 0 0 -2-2zm-1 5a1 1 0 0 1 2 0v1a1 1 0 0 1 -2 0zm7 0a1 1 0 0 1 2 0v1a1 1 0 0 1 -2 0zm0 3a2.5 2 0 0 1 -5 0z"/></g><path d="m11.666667 10v1.666666h-1.666667v1.666668h1.666667v1.666666h1.666667v-1.666666h1.666666v-1.666668h-1.666666v-1.666666z" fill="#e9e9e9" stroke-width=".833333"/></svg>