{
    "asset" : {
        "generator" : "Khronos glTF Blender I/O v1.8.19",
        "version" : "2.0"
    },
    "scene" : 0,
    "scenes" : [
        {
            "name" : "Scene",
            "nodes" : [
                24
            ]
        }
    ],
    "nodes" : [
        {
            "name" : "ene_majin01f_sand_Bone_4",
            "rotation" : [
                -0.4479116201400757,
                -1.9467579193133133e-07,
                -0.46204426884651184,
                0.7654346823692322
            ],
            "scale" : [
                0.9999998807907104,
                0.9999998211860657,
                0.9999998211860657
            ],
            "translation" : [
                0.325000137090683,
                0.3450000286102295,
                -8.269670104255056e-08
            ]
        },
        {
            "name" : "ene_majin01f_sand_Bone_5",
            "rotation" : [
                -0.4479115605354309,
                1.1680553768655955e-07,
                0.4620450437068939,
                0.7654343247413635
            ],
            "scale" : [
                1,
                1.0000001192092896,
                0.9999999403953552
            ],
            "translation" : [
                -0.3250000476837158,
                0.3449999690055847,
                1.9994034516912507e-07
            ]
        },
        {
            "name" : "ene_majin01f_sand_Bone_6",
            "rotation" : [
                -0.5871149301528931,
                -3.149440175320706e-08,
                2.3915237079563667e-07,
                0.8095035552978516
            ],
            "translation" : [
                1.1324793547373702e-08,
                0.6499998569488525,
                -0.07500007003545761
            ]
        },
        {
            "name" : "ene_majin01f_sand_Bone_7",
            "rotation" : [
                0.8929842710494995,
                4.790152630107514e-08,
                -8.790684091763978e-07,
                0.45008784532546997
            ],
            "scale" : [
                1,
                1,
                1.0000001192092896
            ],
            "translation" : [
                -1.6838757233017532e-07,
                0.19999991357326508,
                -0.14799992740154266
            ]
        },
        {
            "children" : [
                0,
                1,
                2,
                3
            ],
            "name" : "ene_majin01f_sand_Bone_3",
            "rotation" : [
                -0.7071065902709961,
                -3.793075009639324e-08,
                5.914658913752646e-07,
                0.7071070671081543
            ],
            "translation" : [
                -5.276042998048069e-07,
                -8.940703821735951e-08,
                -0.565000057220459
            ]
        },
        {
            "name" : "ene_majin01f_sand_Bone_11",
            "rotation" : [
                -0.0011414438486099243,
                0.000941989419516176,
                0.0810186043381691,
                0.9967114925384521
            ],
            "scale" : [
                1,
                0.9999999403953552,
                1
            ],
            "translation" : [
                1.5064998706293409e-06,
                0.44024717807769775,
                -0.0011308637913316488
            ]
        },
        {
            "name" : "ene_majin01f_sand_Bone_12",
            "rotation" : [
                0.5737684965133667,
                -0.4934528172016144,
                -0.6122725009918213,
                0.2289462834596634
            ],
            "scale" : [
                1,
                1.000000238418579,
                1.000000238418579
            ],
            "translation" : [
                -0.033771250396966934,
                0.05576459318399429,
                0.14361457526683807
            ]
        },
        {
            "children" : [
                5,
                6
            ],
            "name" : "ene_majin01f_sand_Bone_10",
            "rotation" : [
                -0.006157359108328819,
                0.005335863679647446,
                -0.07470837235450745,
                0.9971722364425659
            ],
            "scale" : [
                0.9999999403953552,
                1,
                1
            ],
            "translation" : [
                -3.118078950592462e-08,
                0.9689645171165466,
                -1.6856415641086642e-07
            ]
        },
        {
            "children" : [
                7
            ],
            "name" : "ene_majin01f_sand_Bone_9",
            "rotation" : [
                0.017352620139718056,
                -0.021255958825349808,
                -0.355242520570755,
                0.9343714714050293
            ],
            "scale" : [
                1,
                1,
                0.9999999403953552
            ],
            "translation" : [
                0.2795957922935486,
                0.3146213889122009,
                0.006143210455775261
            ]
        },
        {
            "children" : [
                8
            ],
            "name" : "ene_majin01f_sand_Bone_8",
            "rotation" : [
                -0.3038393557071686,
                0.6448955535888672,
                0.6448957920074463,
                0.2755010724067688
            ],
            "scale" : [
                1,
                1.0000001192092896,
                1
            ],
            "translation" : [
                -0.48000046610832214,
                -2.3488222922196655e-08,
                -0.5399999022483826
            ]
        },
        {
            "name" : "ene_majin01f_sand_Bone_16",
            "rotation" : [
                -0.0013314391253516078,
                -0.001112542930059135,
                -0.08101409673690796,
                0.9967114925384521
            ],
            "scale" : [
                1.0000001192092896,
                1.0000001192092896,
                0.9999999403953552
            ],
            "translation" : [
                -5.840296580572613e-06,
                0.44024771451950073,
                -0.0010928635019809008
            ]
        },
        {
            "name" : "ene_majin01f_sand_Bone_17",
            "rotation" : [
                0.5729876756668091,
                0.492861807346344,
                0.6126703023910522,
                0.2311008870601654
            ],
            "scale" : [
                1,
                1.0000001192092896,
                1.000000238418579
            ],
            "translation" : [
                0.03365236520767212,
                0.055795472115278244,
                0.14413286745548248
            ]
        },
        {
            "children" : [
                10,
                11
            ],
            "name" : "ene_majin01f_sand_Bone_15",
            "rotation" : [
                -0.005910076666623354,
                -0.0051169306971132755,
                0.07473647594451904,
                0.9971727132797241
            ],
            "scale" : [
                1,
                0.9999999403953552,
                0.9999999403953552
            ],
            "translation" : [
                1.075966267194417e-07,
                0.968963623046875,
                3.0294188491097884e-07
            ]
        },
        {
            "children" : [
                12
            ],
            "name" : "ene_majin01f_sand_Bone_14",
            "rotation" : [
                0.019389355555176735,
                0.023160897195339203,
                0.3551371097564697,
                0.9343261122703552
            ],
            "scale" : [
                1,
                0.9999999403953552,
                1
            ],
            "translation" : [
                -0.27954018115997314,
                0.3146222233772278,
                0.008312514051795006
            ]
        },
        {
            "children" : [
                13
            ],
            "name" : "ene_majin01f_sand_Bone_13",
            "rotation" : [
                -0.30598729848861694,
                -0.644844114780426,
                -0.6448437571525574,
                0.2733575999736786
            ],
            "scale" : [
                0.9999999403953552,
                0.9999998807907104,
                1
            ],
            "translation" : [
                0.47999951243400574,
                3.6913732515131414e-07,
                -0.5400004982948303
            ]
        },
        {
            "children" : [
                4,
                9,
                14
            ],
            "name" : "ene_majin01f_sand_Bone_2",
            "rotation" : [
                0.7071068286895752,
                -1.0048593088261143e-13,
                -6.293968226600555e-07,
                0.7071068286895752
            ],
            "translation" : [
                -8.005578691614938e-20,
                1.1922384146600962e-07,
                -8.939473161717615e-09
            ]
        },
        {
            "name" : "ene_majin01f_sand_Bone_21",
            "rotation" : [
                -8.742267709749285e-08,
                1.702183519461907e-14,
                8.742280499518529e-08,
                1
            ],
            "translation" : [
                -3.1985526864110065e-15,
                0.2900000810623169,
                3.8013754470600514e-14
            ]
        },
        {
            "children" : [
                16
            ],
            "name" : "ene_majin01f_sand_Bone_20",
            "rotation" : [
                2.75813398786795e-08,
                5.364220356796068e-08,
                7.549787284233389e-08,
                1
            ],
            "translation" : [
                -8.957000722717434e-15,
                0.3550001084804535,
                -1.124385207162959e-08
            ]
        },
        {
            "children" : [
                17
            ],
            "name" : "ene_majin01f_sand_Bone_19",
            "rotation" : [
                2.247644914632474e-08,
                0.7071068286895752,
                0.7071068286895752,
                5.338508302088485e-08
            ],
            "translation" : [
                -1.923303294404377e-08,
                2.9802322387695312e-08,
                0.4399999976158142
            ]
        },
        {
            "children" : [
                18
            ],
            "name" : "ene_majin01f_sand_Bone_18",
            "rotation" : [
                0.7071068286895752,
                -1.1286739771965149e-13,
                1.1286739771965149e-13,
                0.7071068286895752
            ],
            "translation" : [
                5.908375339586109e-20,
                1.1922384146600962e-07,
                -8.939423423726112e-09
            ]
        },
        {
            "children" : [
                15,
                19
            ],
            "name" : "ene_majin01f_sand_Bone_1",
            "rotation" : [
                -0.7071080803871155,
                -5.3385068810030134e-08,
                -5.3385097231739564e-08,
                0.7071055769920349
            ],
            "translation" : [
                1.6383046386181377e-07,
                -3.874301910400391e-06,
                -1.0849997997283936
            ]
        },
        {
            "name" : "ene_majin01f_sand_Bone_22",
            "rotation" : [
                -1.8974180875375168e-06,
                4.7077826510598e-19,
                -1.3200486710662762e-14,
                1
            ],
            "translation" : [
                -3.388849917498217e-21,
                2.9888361977013695e-26,
                3.619991559844493e-07
            ]
        },
        {
            "children" : [
                20,
                21
            ],
            "name" : "ene_majin01f_sand_Bone_0",
            "rotation" : [
                0.7071093320846558,
                5.338507946817117e-08,
                5.338507946817117e-08,
                0.7071042060852051
            ]
        },
        {
            "mesh" : 0,
            "name" : "BlueMajinMesh",
            "skin" : 0
        },
        {
            "children" : [
                23,
                22
            ],
            "name" : "BlueMajin"
        }
    ],
    "materials" : [
        {
            "name" : "SO Blue Majin Body",
            "pbrMetallicRoughness" : {
                "baseColorTexture" : {
                    "index" : 0,
                    "texCoord" : 1
                },
                "metallicFactor" : 0
            }
        },
        {
            "name" : "SO Blue Majin Limb",
            "pbrMetallicRoughness" : {
                "baseColorTexture" : {
                    "index" : 1
                },
                "metallicFactor" : 0
            }
        },
        {
            "name" : "SO Blue Majin Hat",
            "pbrMetallicRoughness" : {
                "baseColorTexture" : {
                    "index" : 2
                },
                "metallicFactor" : 0
            }
        }
    ],
    "meshes" : [
        {
            "name" : "BlueMajinMesh",
            "primitives" : [
                {
                    "attributes" : {
                        "POSITION" : 0,
                        "NORMAL" : 1,
                        "TEXCOORD_0" : 2,
                        "TEXCOORD_1" : 3,
                        "COLOR_0" : 4,
                        "JOINTS_0" : 5,
                        "WEIGHTS_0" : 6
                    },
                    "indices" : 7,
                    "material" : 0
                },
                {
                    "attributes" : {
                        "POSITION" : 8,
                        "NORMAL" : 9,
                        "TEXCOORD_0" : 10,
                        "TEXCOORD_1" : 11,
                        "COLOR_0" : 12,
                        "JOINTS_0" : 13,
                        "WEIGHTS_0" : 14
                    },
                    "indices" : 15,
                    "material" : 1
                },
                {
                    "attributes" : {
                        "POSITION" : 16,
                        "NORMAL" : 17,
                        "TEXCOORD_0" : 18,
                        "TEXCOORD_1" : 19,
                        "COLOR_0" : 20,
                        "JOINTS_0" : 21,
                        "WEIGHTS_0" : 22
                    },
                    "indices" : 23,
                    "material" : 2
                }
            ]
        }
    ],
    "textures" : [
        {
            "sampler" : 0,
            "source" : 0
        },
        {
            "sampler" : 0,
            "source" : 1
        },
        {
            "sampler" : 0,
            "source" : 2
        }
    ],
    "images" : [
        {
            "bufferView" : 8,
            "mimeType" : "image/png",
            "name" : "so blue majin body"
        },
        {
            "bufferView" : 17,
            "mimeType" : "image/png",
            "name" : "so blue majin limb"
        },
        {
            "bufferView" : 26,
            "mimeType" : "image/png",
            "name" : "so blue majin hat"
        }
    ],
    "skins" : [
        {
            "inverseBindMatrices" : 24,
            "joints" : [
                22,
                20,
                15,
                4,
                0,
                1,
                2,
                3,
                9,
                8,
                7,
                5,
                6,
                14,
                13,
                12,
                10,
                11,
                19,
                18,
                17,
                16,
                21
            ],
            "name" : "BlueMajin"
        }
    ],
    "accessors" : [
        {
            "bufferView" : 0,
            "componentType" : 5126,
            "count" : 730,
            "max" : [
                1.8719770908355713,
                2.465899705886841,
                0.41487085819244385
            ],
            "min" : [
                -1.8719770908355713,
                0.04000142589211464,
                -0.43206530809402466
            ],
            "type" : "VEC3"
        },
        {
            "bufferView" : 1,
            "componentType" : 5126,
            "count" : 730,
            "type" : "VEC3"
        },
        {
            "bufferView" : 2,
            "componentType" : 5126,
            "count" : 730,
            "type" : "VEC2"
        },
        {
            "bufferView" : 3,
            "componentType" : 5126,
            "count" : 730,
            "type" : "VEC2"
        },
        {
            "bufferView" : 4,
            "componentType" : 5123,
            "count" : 730,
            "normalized" : true,
            "type" : "VEC4"
        },
        {
            "bufferView" : 5,
            "componentType" : 5121,
            "count" : 730,
            "type" : "VEC4"
        },
        {
            "bufferView" : 6,
            "componentType" : 5126,
            "count" : 730,
            "type" : "VEC4"
        },
        {
            "bufferView" : 7,
            "componentType" : 5123,
            "count" : 2538,
            "type" : "SCALAR"
        },
        {
            "bufferView" : 9,
            "componentType" : 5126,
            "count" : 503,
            "max" : [
                2.621319532394409,
                2.0736939907073975,
                0.4331517517566681
            ],
            "min" : [
                -2.621319532394409,
                -0.31396231055259705,
                -0.2910214066505432
            ],
            "type" : "VEC3"
        },
        {
            "bufferView" : 10,
            "componentType" : 5126,
            "count" : 503,
            "type" : "VEC3"
        },
        {
            "bufferView" : 11,
            "componentType" : 5126,
            "count" : 503,
            "type" : "VEC2"
        },
        {
            "bufferView" : 12,
            "componentType" : 5126,
            "count" : 503,
            "type" : "VEC2"
        },
        {
            "bufferView" : 13,
            "componentType" : 5123,
            "count" : 503,
            "normalized" : true,
            "type" : "VEC4"
        },
        {
            "bufferView" : 14,
            "componentType" : 5121,
            "count" : 503,
            "type" : "VEC4"
        },
        {
            "bufferView" : 15,
            "componentType" : 5126,
            "count" : 503,
            "type" : "VEC4"
        },
        {
            "bufferView" : 16,
            "componentType" : 5123,
            "count" : 2592,
            "type" : "SCALAR"
        },
        {
            "bufferView" : 18,
            "componentType" : 5126,
            "count" : 178,
            "max" : [
                0.443334698677063,
                2.3165810108184814,
                0.41136208176612854
            ],
            "min" : [
                -0.443334698677063,
                1.607158899307251,
                -0.4649737477302551
            ],
            "type" : "VEC3"
        },
        {
            "bufferView" : 19,
            "componentType" : 5126,
            "count" : 178,
            "type" : "VEC3"
        },
        {
            "bufferView" : 20,
            "componentType" : 5126,
            "count" : 178,
            "type" : "VEC2"
        },
        {
            "bufferView" : 21,
            "componentType" : 5126,
            "count" : 178,
            "type" : "VEC2"
        },
        {
            "bufferView" : 22,
            "componentType" : 5123,
            "count" : 178,
            "normalized" : true,
            "type" : "VEC4"
        },
        {
            "bufferView" : 23,
            "componentType" : 5121,
            "count" : 178,
            "type" : "VEC4"
        },
        {
            "bufferView" : 24,
            "componentType" : 5126,
            "count" : 178,
            "type" : "VEC4"
        },
        {
            "bufferView" : 25,
            "componentType" : 5123,
            "count" : 714,
            "type" : "SCALAR"
        },
        {
            "bufferView" : 27,
            "componentType" : 5126,
            "count" : 23,
            "type" : "MAT4"
        }
    ],
    "bufferViews" : [
        {
            "buffer" : 0,
            "byteLength" : 8760,
            "byteOffset" : 0
        },
        {
            "buffer" : 0,
            "byteLength" : 8760,
            "byteOffset" : 8760
        },
        {
            "buffer" : 0,
            "byteLength" : 5840,
            "byteOffset" : 17520
        },
        {
            "buffer" : 0,
            "byteLength" : 5840,
            "byteOffset" : 23360
        },
        {
            "buffer" : 0,
            "byteLength" : 5840,
            "byteOffset" : 29200
        },
        {
            "buffer" : 0,
            "byteLength" : 2920,
            "byteOffset" : 35040
        },
        {
            "buffer" : 0,
            "byteLength" : 11680,
            "byteOffset" : 37960
        },
        {
            "buffer" : 0,
            "byteLength" : 5076,
            "byteOffset" : 49640
        },
        {
            "buffer" : 0,
            "byteLength" : 53111,
            "byteOffset" : 54716
        },
        {
            "buffer" : 0,
            "byteLength" : 6036,
            "byteOffset" : 107828
        },
        {
            "buffer" : 0,
            "byteLength" : 6036,
            "byteOffset" : 113864
        },
        {
            "buffer" : 0,
            "byteLength" : 4024,
            "byteOffset" : 119900
        },
        {
            "buffer" : 0,
            "byteLength" : 4024,
            "byteOffset" : 123924
        },
        {
            "buffer" : 0,
            "byteLength" : 4024,
            "byteOffset" : 127948
        },
        {
            "buffer" : 0,
            "byteLength" : 2012,
            "byteOffset" : 131972
        },
        {
            "buffer" : 0,
            "byteLength" : 8048,
            "byteOffset" : 133984
        },
        {
            "buffer" : 0,
            "byteLength" : 5184,
            "byteOffset" : 142032
        },
        {
            "buffer" : 0,
            "byteLength" : 21893,
            "byteOffset" : 147216
        },
        {
            "buffer" : 0,
            "byteLength" : 2136,
            "byteOffset" : 169112
        },
        {
            "buffer" : 0,
            "byteLength" : 2136,
            "byteOffset" : 171248
        },
        {
            "buffer" : 0,
            "byteLength" : 1424,
            "byteOffset" : 173384
        },
        {
            "buffer" : 0,
            "byteLength" : 1424,
            "byteOffset" : 174808
        },
        {
            "buffer" : 0,
            "byteLength" : 1424,
            "byteOffset" : 176232
        },
        {
            "buffer" : 0,
            "byteLength" : 712,
            "byteOffset" : 177656
        },
        {
            "buffer" : 0,
            "byteLength" : 2848,
            "byteOffset" : 178368
        },
        {
            "buffer" : 0,
            "byteLength" : 1428,
            "byteOffset" : 181216
        },
        {
            "buffer" : 0,
            "byteLength" : 24491,
            "byteOffset" : 182644
        },
        {
            "buffer" : 0,
            "byteLength" : 1472,
            "byteOffset" : 207136
        }
    ],
    "samplers" : [
        {
            "magFilter" : 9729,
            "minFilter" : 9987
        }
    ],
    "buffers" : [
        {
            "byteLength" : 208608,
            "uri" : "data:application/octet-stream;base64,"
        }
    ]
}
