{
    "asset" : {
        "generator" : "Khronos glTF Blender I/O v3.3.36",
        "version" : "2.0"
    },
    "extensionsUsed" : [
        "KHR_materials_specular",
        "KHR_materials_ior"
    ],
    "scene" : 0,
    "scenes" : [
        {
            "name" : "Scene",
            "nodes" : [
                0,
                1,
                2,
                3,
                4,
                5,
                6,
                7
            ]
        }
    ],
    "nodes" : [
        {
            "mesh" : 0,
            "name" : "FloorPavement"
        },
        {
            "mesh" : 1,
            "name" : "Wall"
        },
        {
            "mesh" : 2,
            "name" : "Ceiling"
        },
        {
            "mesh" : 3,
            "name" : "IslandOneWay"
        },
        {
            "mesh" : 4,
            "name" : "FloorSand"
        },
        {
            "mesh" : 5,
            "name" : "FloorWater"
        },
        {
            "mesh" : 6,
            "name" : "HallOneWay"
        },
        {
            "mesh" : 7,
            "name" : "UTurnOneWay"
        }
    ],
    "materials" : [
        {
            "extensions" : {
                "KHR_materials_specular" : {
                    "specularColorFactor" : [
                        0,
                        0,
                        0
                    ]
                },
                "KHR_materials_ior" : {
                    "ior" : 1.4500000476837158
                }
            },
            "name" : "Sand Wavy",
            "pbrMetallicRoughness" : {
                "baseColorFactor" : [
                    0.800000011920929,
                    0.800000011920929,
                    0.800000011920929,
                    1
                ],
                "metallicFactor" : 0
            }
        }
    ],
    "meshes" : [
        {
            "name" : "FloorPavement",
            "primitives" : [
                {
                    "attributes" : {
                        "POSITION" : 0,
                        "NORMAL" : 1,
                        "TEXCOORD_0" : 2
                    },
                    "indices" : 3
                }
            ]
        },
        {
            "name" : "Wall",
            "primitives" : [
                {
                    "attributes" : {
                        "POSITION" : 4,
                        "NORMAL" : 5
                    },
                    "indices" : 6
                }
            ]
        },
        {
            "name" : "Ceiling",
            "primitives" : [
                {
                    "attributes" : {
                        "POSITION" : 7,
                        "NORMAL" : 8
                    },
                    "indices" : 9
                }
            ]
        },
        {
            "name" : "IslandOneWay",
            "primitives" : [
                {
                    "attributes" : {
                        "POSITION" : 10,
                        "NORMAL" : 11
                    },
                    "indices" : 12
                }
            ]
        },
        {
            "name" : "FloorSand",
            "primitives" : [
                {
                    "attributes" : {
                        "POSITION" : 13,
                        "NORMAL" : 14
                    },
                    "indices" : 15,
                    "material" : 0
                }
            ]
        },
        {
            "name" : "FloorWater",
            "primitives" : [
                {
                    "attributes" : {
                        "POSITION" : 16,
                        "NORMAL" : 17,
                        "TEXCOORD_0" : 18
                    },
                    "indices" : 19
                }
            ]
        },
        {
            "name" : "HallOneWay",
            "primitives" : [
                {
                    "attributes" : {
                        "POSITION" : 20,
                        "NORMAL" : 21
                    },
                    "indices" : 22
                }
            ]
        },
        {
            "name" : "UTurnOneWay",
            "primitives" : [
                {
                    "attributes" : {
                        "POSITION" : 23,
                        "NORMAL" : 24
                    },
                    "indices" : 22
                }
            ]
        }
    ],
    "accessors" : [
        {
            "bufferView" : 0,
            "componentType" : 5126,
            "count" : 471,
            "max" : [
                92.30782318115234,
                110.00244140625,
                32.19236755371094
            ],
            "min" : [
                -664.0001831054688,
                -65.0184097290039,
                -1368.910400390625
            ],
            "type" : "VEC3"
        },
        {
            "bufferView" : 1,
            "componentType" : 5126,
            "count" : 471,
            "type" : "VEC3"
        },
        {
            "bufferView" : 2,
            "componentType" : 5126,
            "count" : 471,
            "type" : "VEC2"
        },
        {
            "bufferView" : 3,
            "componentType" : 5123,
            "count" : 693,
            "type" : "SCALAR"
        },
        {
            "bufferView" : 4,
            "componentType" : 5126,
            "count" : 5452,
            "max" : [
                121.92916870117188,
                119.59088897705078,
                5.15582275390625
            ],
            "min" : [
                -664.000244140625,
                -101.0951919555664,
                -1368.910400390625
            ],
            "type" : "VEC3"
        },
        {
            "bufferView" : 5,
            "componentType" : 5126,
            "count" : 5452,
            "type" : "VEC3"
        },
        {
            "bufferView" : 6,
            "componentType" : 5123,
            "count" : 8082,
            "type" : "SCALAR"
        },
        {
            "bufferView" : 7,
            "componentType" : 5126,
            "count" : 921,
            "max" : [
                67.19783020019531,
                119.99391174316406,
                -60.100494384765625
            ],
            "min" : [
                -386.7657470703125,
                -55.00080108642578,
                -450.7281799316406
            ],
            "type" : "VEC3"
        },
        {
            "bufferView" : 8,
            "componentType" : 5126,
            "count" : 921,
            "type" : "VEC3"
        },
        {
            "bufferView" : 9,
            "componentType" : 5123,
            "count" : 1371,
            "type" : "SCALAR"
        },
        {
            "bufferView" : 10,
            "componentType" : 5126,
            "count" : 4,
            "max" : [
                62.13890075683594,
                -28.066648483276367,
                -352.320556640625
            ],
            "min" : [
                58.13633728027344,
                -56.80434799194336,
                -357.68115234375
            ],
            "type" : "VEC3"
        },
        {
            "bufferView" : 11,
            "componentType" : 5126,
            "count" : 4,
            "type" : "VEC3"
        },
        {
            "bufferView" : 12,
            "componentType" : 5123,
            "count" : 6,
            "type" : "SCALAR"
        },
        {
            "bufferView" : 13,
            "componentType" : 5126,
            "count" : 2085,
            "max" : [
                80.66537475585938,
                -29.996957778930664,
                -53.82818603515625
            ],
            "min" : [
                -659.5031127929688,
                -64.85760498046875,
                -842.5204467773438
            ],
            "type" : "VEC3"
        },
        {
            "bufferView" : 14,
            "componentType" : 5126,
            "count" : 2085,
            "type" : "VEC3"
        },
        {
            "bufferView" : 15,
            "componentType" : 5123,
            "count" : 3777,
            "type" : "SCALAR"
        },
        {
            "bufferView" : 16,
            "componentType" : 5126,
            "count" : 136,
            "max" : [
                -307.93878173828125,
                -50.147735595703125,
                -466.71173095703125
            ],
            "min" : [
                -454.45440673828125,
                -53.319732666015625,
                -631.9060668945312
            ],
            "type" : "VEC3"
        },
        {
            "bufferView" : 17,
            "componentType" : 5126,
            "count" : 136,
            "type" : "VEC3"
        },
        {
            "bufferView" : 18,
            "componentType" : 5126,
            "count" : 136,
            "type" : "VEC2"
        },
        {
            "bufferView" : 19,
            "componentType" : 5123,
            "count" : 390,
            "type" : "SCALAR"
        },
        {
            "bufferView" : 20,
            "componentType" : 5126,
            "count" : 4,
            "max" : [
                -0.17669677734375,
                -24.97809600830078,
                -431.72723388671875
            ],
            "min" : [
                -0.17669677734375,
                -44.97809600830078,
                -439.1366271972656
            ],
            "type" : "VEC3"
        },
        {
            "bufferView" : 21,
            "componentType" : 5126,
            "count" : 4,
            "type" : "VEC3"
        },
        {
            "bufferView" : 22,
            "componentType" : 5123,
            "count" : 6,
            "type" : "SCALAR"
        },
        {
            "bufferView" : 23,
            "componentType" : 5126,
            "count" : 4,
            "max" : [
                -84.599365234375,
                -19.781394958496094,
                -299.4717102050781
            ],
            "min" : [
                -90.32301330566406,
                -39.781402587890625,
                -300.4368591308594
            ],
            "type" : "VEC3"
        },
        {
            "bufferView" : 24,
            "componentType" : 5126,
            "count" : 4,
            "type" : "VEC3"
        }
    ],
    "bufferViews" : [
        {
            "buffer" : 0,
            "byteLength" : 5652,
            "byteOffset" : 0,
            "target" : 34962
        },
        {
            "buffer" : 0,
            "byteLength" : 5652,
            "byteOffset" : 5652,
            "target" : 34962
        },
        {
            "buffer" : 0,
            "byteLength" : 3768,
            "byteOffset" : 11304,
            "target" : 34962
        },
        {
            "buffer" : 0,
            "byteLength" : 1386,
            "byteOffset" : 15072,
            "target" : 34963
        },
        {
            "buffer" : 0,
            "byteLength" : 65424,
            "byteOffset" : 16460,
            "target" : 34962
        },
        {
            "buffer" : 0,
            "byteLength" : 65424,
            "byteOffset" : 81884,
            "target" : 34962
        },
        {
            "buffer" : 0,
            "byteLength" : 16164,
            "byteOffset" : 147308,
            "target" : 34963
        },
        {
            "buffer" : 0,
            "byteLength" : 11052,
            "byteOffset" : 163472,
            "target" : 34962
        },
        {
            "buffer" : 0,
            "byteLength" : 11052,
            "byteOffset" : 174524,
            "target" : 34962
        },
        {
            "buffer" : 0,
            "byteLength" : 2742,
            "byteOffset" : 185576,
            "target" : 34963
        },
        {
            "buffer" : 0,
            "byteLength" : 48,
            "byteOffset" : 188320,
            "target" : 34962
        },
        {
            "buffer" : 0,
            "byteLength" : 48,
            "byteOffset" : 188368,
            "target" : 34962
        },
        {
            "buffer" : 0,
            "byteLength" : 12,
            "byteOffset" : 188416,
            "target" : 34963
        },
        {
            "buffer" : 0,
            "byteLength" : 25020,
            "byteOffset" : 188428,
            "target" : 34962
        },
        {
            "buffer" : 0,
            "byteLength" : 25020,
            "byteOffset" : 213448,
            "target" : 34962
        },
        {
            "buffer" : 0,
            "byteLength" : 7554,
            "byteOffset" : 238468,
            "target" : 34963
        },
        {
            "buffer" : 0,
            "byteLength" : 1632,
            "byteOffset" : 246024,
            "target" : 34962
        },
        {
            "buffer" : 0,
            "byteLength" : 1632,
            "byteOffset" : 247656,
            "target" : 34962
        },
        {
            "buffer" : 0,
            "byteLength" : 1088,
            "byteOffset" : 249288,
            "target" : 34962
        },
        {
            "buffer" : 0,
            "byteLength" : 780,
            "byteOffset" : 250376,
            "target" : 34963
        },
        {
            "buffer" : 0,
            "byteLength" : 48,
            "byteOffset" : 251156,
            "target" : 34962
        },
        {
            "buffer" : 0,
            "byteLength" : 48,
            "byteOffset" : 251204,
            "target" : 34962
        },
        {
            "buffer" : 0,
            "byteLength" : 12,
            "byteOffset" : 251252,
            "target" : 34963
        },
        {
            "buffer" : 0,
            "byteLength" : 48,
            "byteOffset" : 251264,
            "target" : 34962
        },
        {
            "buffer" : 0,
            "byteLength" : 48,
            "byteOffset" : 251312,
            "target" : 34962
        }
    ],
    "buffers" : [
        {
            "byteLength" : 251360,
            "uri" : "data:application/octet-stream;base64,"
        }
    ]
}
