{
    "asset" : {
        "generator" : "Khronos glTF Blender I/O v3.3.36",
        "version" : "2.0"
    },
    "scene" : 0,
    "scenes" : [
        {
            "name" : "Scene",
            "nodes" : [
                0,
                1,
                2,
                3
            ]
        }
    ],
    "nodes" : [
        {
            "mesh" : 0,
            "name" : "Floor"
        },
        {
            "mesh" : 1,
            "name" : "Wall"
        },
        {
            "mesh" : 2,
            "name" : "Ceiling"
        },
        {
            "mesh" : 3,
            "name" : "IslandOneWay"
        }
    ],
    "meshes" : [
        {
            "name" : "Floor",
            "primitives" : [
                {
                    "attributes" : {
                        "POSITION" : 0,
                        "NORMAL" : 1
                    },
                    "indices" : 2
                }
            ]
        },
        {
            "name" : "Wall",
            "primitives" : [
                {
                    "attributes" : {
                        "POSITION" : 3,
                        "NORMAL" : 4
                    },
                    "indices" : 5
                }
            ]
        },
        {
            "name" : "Ceiling",
            "primitives" : [
                {
                    "attributes" : {
                        "POSITION" : 6,
                        "NORMAL" : 7
                    },
                    "indices" : 8
                }
            ]
        },
        {
            "name" : "IslandOneWay",
            "primitives" : [
                {
                    "attributes" : {
                        "POSITION" : 9,
                        "NORMAL" : 10
                    },
                    "indices" : 11
                }
            ]
        }
    ],
    "accessors" : [
        {
            "bufferView" : 0,
            "componentType" : 5126,
            "count" : 2755,
            "max" : [
                92.30782318115234,
                110.00244140625,
                32.19236755371094
            ],
            "min" : [
                -664.0101928710938,
                -65.0184097290039,
                -1368.910400390625
            ],
            "type" : "VEC3"
        },
        {
            "bufferView" : 1,
            "componentType" : 5126,
            "count" : 2755,
            "type" : "VEC3"
        },
        {
            "bufferView" : 2,
            "componentType" : 5123,
            "count" : 3909,
            "type" : "SCALAR"
        },
        {
            "bufferView" : 3,
            "componentType" : 5126,
            "count" : 5532,
            "max" : [
                113.49879455566406,
                119.59088897705078,
                5.15582275390625
            ],
            "min" : [
                -664.000244140625,
                -101.0951919555664,
                -1368.910400390625
            ],
            "type" : "VEC3"
        },
        {
            "bufferView" : 4,
            "componentType" : 5126,
            "count" : 5532,
            "type" : "VEC3"
        },
        {
            "bufferView" : 5,
            "componentType" : 5123,
            "count" : 8202,
            "type" : "SCALAR"
        },
        {
            "bufferView" : 6,
            "componentType" : 5126,
            "count" : 933,
            "max" : [
                67.19783020019531,
                119.99391174316406,
                -60.100494384765625
            ],
            "min" : [
                -386.7657470703125,
                -55.00080108642578,
                -450.7281799316406
            ],
            "type" : "VEC3"
        },
        {
            "bufferView" : 7,
            "componentType" : 5126,
            "count" : 933,
            "type" : "VEC3"
        },
        {
            "bufferView" : 8,
            "componentType" : 5123,
            "count" : 1389,
            "type" : "SCALAR"
        },
        {
            "bufferView" : 9,
            "componentType" : 5126,
            "count" : 4,
            "max" : [
                62.13890075683594,
                -28.066648483276367,
                -352.320556640625
            ],
            "min" : [
                58.13633728027344,
                -56.80434799194336,
                -357.68115234375
            ],
            "type" : "VEC3"
        },
        {
            "bufferView" : 10,
            "componentType" : 5126,
            "count" : 4,
            "type" : "VEC3"
        },
        {
            "bufferView" : 11,
            "componentType" : 5123,
            "count" : 6,
            "type" : "SCALAR"
        }
    ],
    "bufferViews" : [
        {
            "buffer" : 0,
            "byteLength" : 33060,
            "byteOffset" : 0,
            "target" : 34962
        },
        {
            "buffer" : 0,
            "byteLength" : 33060,
            "byteOffset" : 33060,
            "target" : 34962
        },
        {
            "buffer" : 0,
            "byteLength" : 7818,
            "byteOffset" : 66120,
            "target" : 34963
        },
        {
            "buffer" : 0,
            "byteLength" : 66384,
            "byteOffset" : 73940,
            "target" : 34962
        },
        {
            "buffer" : 0,
            "byteLength" : 66384,
            "byteOffset" : 140324,
            "target" : 34962
        },
        {
            "buffer" : 0,
            "byteLength" : 16404,
            "byteOffset" : 206708,
            "target" : 34963
        },
        {
            "buffer" : 0,
            "byteLength" : 11196,
            "byteOffset" : 223112,
            "target" : 34962
        },
        {
            "buffer" : 0,
            "byteLength" : 11196,
            "byteOffset" : 234308,
            "target" : 34962
        },
        {
            "buffer" : 0,
            "byteLength" : 2778,
            "byteOffset" : 245504,
            "target" : 34963
        },
        {
            "buffer" : 0,
            "byteLength" : 48,
            "byteOffset" : 248284,
            "target" : 34962
        },
        {
            "buffer" : 0,
            "byteLength" : 48,
            "byteOffset" : 248332,
            "target" : 34962
        },
        {
            "buffer" : 0,
            "byteLength" : 12,
            "byteOffset" : 248380,
            "target" : 34963
        }
    ],
    "buffers" : [
        {
            "byteLength" : 248392,
            "uri" : "data:application/octet-stream;base64,"
        }
    ]
}
