{
    "asset" : {
        "generator" : "Khronos glTF Blender I/O v3.3.36",
        "version" : "2.0"
    },
    "scene" : 0,
    "scenes" : [
        {
            "name" : "Scene",
            "nodes" : [
                0
            ]
        }
    ],
    "nodes" : [
        {
            "mesh" : 0,
            "name" : "PageMesh"
        }
    ],
    "materials" : [
        {
            "doubleSided" : true,
            "name" : "Page",
            "pbrMetallicRoughness" : {
                "baseColorFactor" : [
                    0.800000011920929,
                    0.800000011920929,
                    0.800000011920929,
                    1
                ],
                "metallicFactor" : 0,
                "roughnessFactor" : 0.5
            }
        }
    ],
    "meshes" : [
        {
            "extras" : {
                "targetNames" : [
                    "Stretch",
                    "Flip"
                ]
            },
            "name" : "PageMesh",
            "primitives" : [
                {
                    "attributes" : {
                        "POSITION" : 0,
                        "NORMAL" : 1,
                        "TEXCOORD_0" : 2,
                        "COLOR_0" : 3
                    },
                    "indices" : 4,
                    "material" : 0,
                    "targets" : [
                        {
                            "POSITION" : 5,
                            "NORMAL" : 6
                        },
                        {
                            "POSITION" : 7,
                            "NORMAL" : 8
                        }
                    ]
                }
            ],
            "weights" : [
                0,
                0
            ]
        }
    ],
    "accessors" : [
        {
            "bufferView" : 0,
            "componentType" : 5126,
            "count" : 92,
            "max" : [
                3.3987889289855957,
                0.5152174234390259,
                2.317420482635498
            ],
            "min" : [
                -3.0785213311901316e-06,
                -6.193295121192932e-07,
                -2.3446497917175293
            ],
            "type" : "VEC3"
        },
        {
            "bufferView" : 1,
            "componentType" : 5126,
            "count" : 92,
            "type" : "VEC3"
        },
        {
            "bufferView" : 2,
            "componentType" : 5126,
            "count" : 92,
            "type" : "VEC2"
        },
        {
            "bufferView" : 3,
            "componentType" : 5123,
            "count" : 92,
            "normalized" : true,
            "type" : "VEC4"
        },
        {
            "bufferView" : 4,
            "componentType" : 5123,
            "count" : 414,
            "type" : "SCALAR"
        },
        {
            "bufferView" : 5,
            "componentType" : 5126,
            "count" : 92,
            "max" : [
                0.4179161787033081,
                0.0004862602800130844,
                0
            ],
            "min" : [
                0.039175376296043396,
                -2.2351741790771484e-07,
                0
            ],
            "type" : "VEC3"
        },
        {
            "bufferView" : 6,
            "componentType" : 5126,
            "count" : 92,
            "type" : "VEC3"
        },
        {
            "bufferView" : 7,
            "componentType" : 5126,
            "count" : 92,
            "max" : [
                0,
                -8.195638656616211e-05,
                0
            ],
            "min" : [
                0,
                -1.030522346496582,
                0
            ],
            "type" : "VEC3"
        },
        {
            "bufferView" : 8,
            "componentType" : 5126,
            "count" : 92,
            "type" : "VEC3"
        }
    ],
    "bufferViews" : [
        {
            "buffer" : 0,
            "byteLength" : 1104,
            "byteOffset" : 0,
            "target" : 34962
        },
        {
            "buffer" : 0,
            "byteLength" : 1104,
            "byteOffset" : 1104,
            "target" : 34962
        },
        {
            "buffer" : 0,
            "byteLength" : 736,
            "byteOffset" : 2208,
            "target" : 34962
        },
        {
            "buffer" : 0,
            "byteLength" : 736,
            "byteOffset" : 2944,
            "target" : 34962
        },
        {
            "buffer" : 0,
            "byteLength" : 828,
            "byteOffset" : 3680,
            "target" : 34963
        },
        {
            "buffer" : 0,
            "byteLength" : 1104,
            "byteOffset" : 4508,
            "target" : 34962
        },
        {
            "buffer" : 0,
            "byteLength" : 1104,
            "byteOffset" : 5612,
            "target" : 34962
        },
        {
            "buffer" : 0,
            "byteLength" : 1104,
            "byteOffset" : 6716,
            "target" : 34962
        },
        {
            "buffer" : 0,
            "byteLength" : 1104,
            "byteOffset" : 7820,
            "target" : 34962
        }
    ],
    "buffers" : [
        {
            "byteLength" : 8924,
            "uri" : "data:application/octet-stream;base64,"
        }
    ]
}
