{
    "asset" : {
        "generator" : "Khronos glTF Blender I/O v3.3.36",
        "version" : "2.0"
    },
    "extensionsUsed" : [
        "KHR_materials_specular",
        "KHR_materials_ior"
    ],
    "scene" : 0,
    "scenes" : [
        {
            "name" : "Scene",
            "nodes" : [
                0,
                1
            ]
        }
    ],
    "nodes" : [
        {
            "mesh" : 0,
            "name" : "stg061_o21_Mesh_0001"
        },
        {
            "mesh" : 1,
            "name" : "stg061_o21_Mesh_0000"
        }
    ],
    "materials" : [
        {
            "extensions" : {
                "KHR_materials_specular" : {
                    "specularColorFactor" : [
                        0,
                        0,
                        0
                    ]
                },
                "KHR_materials_ior" : {
                    "ior" : 1.4500000476837158
                }
            },
            "name" : "Zipline Pole",
            "pbrMetallicRoughness" : {
                "baseColorFactor" : [
                    0.800000011920929,
                    0.800000011920929,
                    0.800000011920929,
                    1
                ],
                "metallicFactor" : 0
            }
        },
        {
            "extensions" : {
                "KHR_materials_specular" : {
                    "specularColorFactor" : [
                        0,
                        0,
                        0
                    ]
                },
                "KHR_materials_ior" : {
                    "ior" : 1.4500000476837158
                }
            },
            "name" : "Zipline",
            "pbrMetallicRoughness" : {
                "baseColorFactor" : [
                    0.800000011920929,
                    0.800000011920929,
                    0.800000011920929,
                    1
                ],
                "metallicFactor" : 0
            }
        }
    ],
    "meshes" : [
        {
            "name" : "stg061_o21_Mesh_0001",
            "primitives" : [
                {
                    "attributes" : {
                        "POSITION" : 0,
                        "NORMAL" : 1,
                        "TEXCOORD_0" : 2,
                        "COLOR_0" : 3
                    },
                    "indices" : 4,
                    "material" : 0
                }
            ]
        },
        {
            "name" : "stg061_o21_Mesh_0000",
            "primitives" : [
                {
                    "attributes" : {
                        "POSITION" : 5,
                        "NORMAL" : 6,
                        "TEXCOORD_0" : 7,
                        "COLOR_0" : 8
                    },
                    "indices" : 9,
                    "material" : 1
                }
            ]
        }
    ],
    "accessors" : [
        {
            "bufferView" : 0,
            "componentType" : 5126,
            "count" : 289,
            "max" : [
                661.1692504882812,
                37.496402740478516,
                -959.6571655273438
            ],
            "min" : [
                -108.72271728515625,
                -82.86398315429688,
                -1474.89599609375
            ],
            "type" : "VEC3"
        },
        {
            "bufferView" : 1,
            "componentType" : 5126,
            "count" : 289,
            "type" : "VEC3"
        },
        {
            "bufferView" : 2,
            "componentType" : 5126,
            "count" : 289,
            "type" : "VEC2"
        },
        {
            "bufferView" : 3,
            "componentType" : 5123,
            "count" : 289,
            "normalized" : true,
            "type" : "VEC4"
        },
        {
            "bufferView" : 4,
            "componentType" : 5123,
            "count" : 1308,
            "type" : "SCALAR"
        },
        {
            "bufferView" : 5,
            "componentType" : 5126,
            "count" : 48,
            "max" : [
                -107.50682830810547,
                15.167717933654785,
                -1474.4195556640625
            ],
            "min" : [
                -107.57889556884766,
                14.933235168457031,
                -1474.619384765625
            ],
            "type" : "VEC3"
        },
        {
            "bufferView" : 6,
            "componentType" : 5126,
            "count" : 48,
            "type" : "VEC3"
        },
        {
            "bufferView" : 7,
            "componentType" : 5126,
            "count" : 48,
            "type" : "VEC2"
        },
        {
            "bufferView" : 8,
            "componentType" : 5123,
            "count" : 48,
            "normalized" : true,
            "type" : "VEC4"
        },
        {
            "bufferView" : 9,
            "componentType" : 5123,
            "count" : 72,
            "type" : "SCALAR"
        }
    ],
    "bufferViews" : [
        {
            "buffer" : 0,
            "byteLength" : 3468,
            "byteOffset" : 0,
            "target" : 34962
        },
        {
            "buffer" : 0,
            "byteLength" : 3468,
            "byteOffset" : 3468,
            "target" : 34962
        },
        {
            "buffer" : 0,
            "byteLength" : 2312,
            "byteOffset" : 6936,
            "target" : 34962
        },
        {
            "buffer" : 0,
            "byteLength" : 2312,
            "byteOffset" : 9248,
            "target" : 34962
        },
        {
            "buffer" : 0,
            "byteLength" : 2616,
            "byteOffset" : 11560,
            "target" : 34963
        },
        {
            "buffer" : 0,
            "byteLength" : 576,
            "byteOffset" : 14176,
            "target" : 34962
        },
        {
            "buffer" : 0,
            "byteLength" : 576,
            "byteOffset" : 14752,
            "target" : 34962
        },
        {
            "buffer" : 0,
            "byteLength" : 384,
            "byteOffset" : 15328,
            "target" : 34962
        },
        {
            "buffer" : 0,
            "byteLength" : 384,
            "byteOffset" : 15712,
            "target" : 34962
        },
        {
            "buffer" : 0,
            "byteLength" : 144,
            "byteOffset" : 16096,
            "target" : 34963
        }
    ],
    "buffers" : [
        {
            "byteLength" : 16240,
            "uri" : "data:application/octet-stream;base64,"
        }
    ]
}
