{
    "asset" : {
        "generator" : "Khronos glTF Blender I/O v1.8.19",
        "version" : "2.0"
    },
    "scene" : 0,
    "scenes" : [
        {
            "name" : "Scene",
            "nodes" : [
                0,
                1
            ]
        }
    ],
    "nodes" : [
        {
            "mesh" : 0,
            "name" : "Wall"
        },
        {
            "mesh" : 1,
            "name" : "Floor"
        }
    ],
    "meshes" : [
        {
            "name" : "Wall",
            "primitives" : [
                {
                    "attributes" : {
                        "POSITION" : 0,
                        "NORMAL" : 1
                    },
                    "indices" : 2
                }
            ]
        },
        {
            "name" : "Floor",
            "primitives" : [
                {
                    "attributes" : {
                        "POSITION" : 3,
                        "NORMAL" : 4
                    },
                    "indices" : 5
                }
            ]
        }
    ],
    "accessors" : [
        {
            "bufferView" : 0,
            "componentType" : 5126,
            "count" : 1288,
            "max" : [
                1097.6234130859375,
                45.00260543823242,
                -673.051025390625
            ],
            "min" : [
                792.1409301757812,
                -25.997150421142578,
                -792.7055053710938
            ],
            "type" : "VEC3"
        },
        {
            "bufferView" : 1,
            "componentType" : 5126,
            "count" : 1288,
            "type" : "VEC3"
        },
        {
            "bufferView" : 2,
            "componentType" : 5123,
            "count" : 2112,
            "type" : "SCALAR"
        },
        {
            "bufferView" : 3,
            "componentType" : 5126,
            "count" : 1050,
            "max" : [
                1096.9046630859375,
                26.136104583740234,
                -673.7615966796875
            ],
            "min" : [
                776.480224609375,
                -0.15013916790485382,
                -787.82421875
            ],
            "type" : "VEC3"
        },
        {
            "bufferView" : 4,
            "componentType" : 5126,
            "count" : 1050,
            "type" : "VEC3"
        },
        {
            "bufferView" : 5,
            "componentType" : 5123,
            "count" : 1566,
            "type" : "SCALAR"
        }
    ],
    "bufferViews" : [
        {
            "buffer" : 0,
            "byteLength" : 15456,
            "byteOffset" : 0
        },
        {
            "buffer" : 0,
            "byteLength" : 15456,
            "byteOffset" : 15456
        },
        {
            "buffer" : 0,
            "byteLength" : 4224,
            "byteOffset" : 30912
        },
        {
            "buffer" : 0,
            "byteLength" : 12600,
            "byteOffset" : 35136
        },
        {
            "buffer" : 0,
            "byteLength" : 12600,
            "byteOffset" : 47736
        },
        {
            "buffer" : 0,
            "byteLength" : 3132,
            "byteOffset" : 60336
        }
    ],
    "buffers" : [
        {
            "byteLength" : 63468,
            "uri" : "data:application/octet-stream;base64,"
        }
    ]
}
