{
    "asset" : {
        "generator" : "Khronos glTF Blender I/O v1.8.19",
        "version" : "2.0"
    },
    "scene" : 0,
    "scenes" : [
        {
            "name" : "Scene",
            "nodes" : [
                0,
                1,
                2,
                3,
                4
            ]
        }
    ],
    "nodes" : [
        {
            "mesh" : 0,
            "name" : "CloudsTop"
        },
        {
            "mesh" : 1,
            "name" : "Sky"
        },
        {
            "mesh" : 2,
            "name" : "Clouds"
        },
        {
            "mesh" : 3,
            "name" : "Moon"
        },
        {
            "mesh" : 4,
            "name" : "Bloom"
        }
    ],
    "materials" : [
        {
            "alphaMode" : "BLEND",
            "name" : "Sky Clouds Top",
            "pbrMetallicRoughness" : {
                "baseColorTexture" : {
                    "index" : 0
                },
                "metallicFactor" : 0
            }
        },
        {
            "name" : "Sky Background",
            "pbrMetallicRoughness" : {
                "baseColorTexture" : {
                    "index" : 1,
                    "texCoord" : 1
                },
                "metallicFactor" : 0
            }
        },
        {
            "alphaMode" : "BLEND",
            "name" : "Sky Clouds",
            "pbrMetallicRoughness" : {
                "baseColorTexture" : {
                    "index" : 2
                },
                "metallicFactor" : 0
            }
        },
        {
            "emissiveFactor" : [
                1,
                1,
                1
            ],
            "name" : "Sky Moon",
            "pbrMetallicRoughness" : {
                "baseColorTexture" : {
                    "index" : 3
                },
                "metallicFactor" : 0
            }
        },
        {
            "alphaMode" : "BLEND",
            "name" : "Sky Bloom",
            "pbrMetallicRoughness" : {
                "metallicFactor" : 0,
                "roughnessFactor" : 0.5
            }
        }
    ],
    "meshes" : [
        {
            "name" : "CloudsTop",
            "primitives" : [
                {
                    "attributes" : {
                        "POSITION" : 0,
                        "NORMAL" : 1,
                        "TEXCOORD_0" : 2,
                        "TEXCOORD_1" : 3,
                        "COLOR_0" : 4
                    },
                    "indices" : 5,
                    "material" : 0
                }
            ]
        },
        {
            "name" : "Sky",
            "primitives" : [
                {
                    "attributes" : {
                        "POSITION" : 6,
                        "NORMAL" : 7,
                        "TEXCOORD_0" : 8,
                        "TEXCOORD_1" : 9,
                        "TEXCOORD_2" : 10
                    },
                    "indices" : 11,
                    "material" : 1
                }
            ]
        },
        {
            "name" : "Clouds",
            "primitives" : [
                {
                    "attributes" : {
                        "POSITION" : 12,
                        "NORMAL" : 13,
                        "TEXCOORD_0" : 14,
                        "TEXCOORD_1" : 15,
                        "COLOR_0" : 16
                    },
                    "indices" : 17,
                    "material" : 2
                }
            ]
        },
        {
            "name" : "Moon",
            "primitives" : [
                {
                    "attributes" : {
                        "POSITION" : 18,
                        "NORMAL" : 19,
                        "TEXCOORD_0" : 20,
                        "COLOR_0" : 21
                    },
                    "indices" : 22,
                    "material" : 3
                }
            ]
        },
        {
            "name" : "Circle",
            "primitives" : [
                {
                    "attributes" : {
                        "POSITION" : 23,
                        "NORMAL" : 24,
                        "TEXCOORD_0" : 25,
                        "COLOR_0" : 26
                    },
                    "indices" : 27,
                    "material" : 4
                }
            ]
        }
    ],
    "textures" : [
        {
            "sampler" : 0,
            "source" : 0
        },
        {
            "sampler" : 0,
            "source" : 1
        },
        {
            "sampler" : 0,
            "source" : 2
        },
        {
            "sampler" : 0,
            "source" : 3
        }
    ],
    "images" : [
        {
            "bufferView" : 6,
            "mimeType" : "image/png",
            "name" : "sky clouds top"
        },
        {
            "bufferView" : 13,
            "mimeType" : "image/png",
            "name" : "sky background"
        },
        {
            "bufferView" : 20,
            "mimeType" : "image/png",
            "name" : "sky clouds"
        },
        {
            "bufferView" : 26,
            "mimeType" : "image/png",
            "name" : "sky moon"
        }
    ],
    "accessors" : [
        {
            "bufferView" : 0,
            "componentType" : 5126,
            "count" : 81,
            "max" : [
                2565.47265625,
                958.5182495117188,
                1908.63916015625
            ],
            "min" : [
                -1799.4632568359375,
                569.0277709960938,
                -2516.291015625
            ],
            "type" : "VEC3"
        },
        {
            "bufferView" : 1,
            "componentType" : 5126,
            "count" : 81,
            "type" : "VEC3"
        },
        {
            "bufferView" : 2,
            "componentType" : 5126,
            "count" : 81,
            "type" : "VEC2"
        },
        {
            "bufferView" : 3,
            "componentType" : 5126,
            "count" : 81,
            "type" : "VEC2"
        },
        {
            "bufferView" : 4,
            "componentType" : 5123,
            "count" : 81,
            "normalized" : true,
            "type" : "VEC4"
        },
        {
            "bufferView" : 5,
            "componentType" : 5123,
            "count" : 384,
            "type" : "SCALAR"
        },
        {
            "bufferView" : 7,
            "componentType" : 5126,
            "count" : 223,
            "max" : [
                3963.462646484375,
                1715.153076171875,
                3257.00390625
            ],
            "min" : [
                -3235.97998046875,
                -920.5318603515625,
                -4019.5947265625
            ],
            "type" : "VEC3"
        },
        {
            "bufferView" : 8,
            "componentType" : 5126,
            "count" : 223,
            "type" : "VEC3"
        },
        {
            "bufferView" : 9,
            "componentType" : 5126,
            "count" : 223,
            "type" : "VEC2"
        },
        {
            "bufferView" : 10,
            "componentType" : 5126,
            "count" : 223,
            "type" : "VEC2"
        },
        {
            "bufferView" : 11,
            "componentType" : 5126,
            "count" : 223,
            "type" : "VEC2"
        },
        {
            "bufferView" : 12,
            "componentType" : 5123,
            "count" : 864,
            "type" : "SCALAR"
        },
        {
            "bufferView" : 14,
            "componentType" : 5126,
            "count" : 175,
            "max" : [
                2718.999267578125,
                1005.951171875,
                2037.405029296875
            ],
            "min" : [
                -1967.6527099609375,
                -7.04071044921875,
                -2685.216064453125
            ],
            "type" : "VEC3"
        },
        {
            "bufferView" : 15,
            "componentType" : 5126,
            "count" : 175,
            "type" : "VEC3"
        },
        {
            "bufferView" : 16,
            "componentType" : 5126,
            "count" : 175,
            "type" : "VEC2"
        },
        {
            "bufferView" : 17,
            "componentType" : 5126,
            "count" : 175,
            "type" : "VEC2"
        },
        {
            "bufferView" : 18,
            "componentType" : 5123,
            "count" : 175,
            "normalized" : true,
            "type" : "VEC4"
        },
        {
            "bufferView" : 19,
            "componentType" : 5123,
            "count" : 864,
            "type" : "SCALAR"
        },
        {
            "bufferView" : 21,
            "componentType" : 5126,
            "count" : 4,
            "max" : [
                639.9999389648438,
                1041.6231689453125,
                -3380.139892578125
            ],
            "min" : [
                -639.9999389648438,
                -194.76202392578125,
                -3711.427978515625
            ],
            "type" : "VEC3"
        },
        {
            "bufferView" : 22,
            "componentType" : 5126,
            "count" : 4,
            "type" : "VEC3"
        },
        {
            "bufferView" : 23,
            "componentType" : 5126,
            "count" : 4,
            "type" : "VEC2"
        },
        {
            "bufferView" : 24,
            "componentType" : 5123,
            "count" : 4,
            "normalized" : true,
            "type" : "VEC4"
        },
        {
            "bufferView" : 25,
            "componentType" : 5123,
            "count" : 6,
            "type" : "SCALAR"
        },
        {
            "bufferView" : 27,
            "componentType" : 5126,
            "count" : 49,
            "max" : [
                929.681640625,
                1204.4437255859375,
                -3088.39208984375
            ],
            "min" : [
                -929.681640625,
                -591.5640869140625,
                -3848.23876953125
            ],
            "type" : "VEC3"
        },
        {
            "bufferView" : 28,
            "componentType" : 5126,
            "count" : 49,
            "type" : "VEC3"
        },
        {
            "bufferView" : 29,
            "componentType" : 5126,
            "count" : 49,
            "type" : "VEC2"
        },
        {
            "bufferView" : 30,
            "componentType" : 5123,
            "count" : 49,
            "normalized" : true,
            "type" : "VEC4"
        },
        {
            "bufferView" : 31,
            "componentType" : 5123,
            "count" : 252,
            "type" : "SCALAR"
        }
    ],
    "bufferViews" : [
        {
            "buffer" : 0,
            "byteLength" : 972,
            "byteOffset" : 0
        },
        {
            "buffer" : 0,
            "byteLength" : 972,
            "byteOffset" : 972
        },
        {
            "buffer" : 0,
            "byteLength" : 648,
            "byteOffset" : 1944
        },
        {
            "buffer" : 0,
            "byteLength" : 648,
            "byteOffset" : 2592
        },
        {
            "buffer" : 0,
            "byteLength" : 648,
            "byteOffset" : 3240
        },
        {
            "buffer" : 0,
            "byteLength" : 768,
            "byteOffset" : 3888
        },
        {
            "buffer" : 0,
            "byteLength" : 109387,
            "byteOffset" : 4656
        },
        {
            "buffer" : 0,
            "byteLength" : 2676,
            "byteOffset" : 114044
        },
        {
            "buffer" : 0,
            "byteLength" : 2676,
            "byteOffset" : 116720
        },
        {
            "buffer" : 0,
            "byteLength" : 1784,
            "byteOffset" : 119396
        },
        {
            "buffer" : 0,
            "byteLength" : 1784,
            "byteOffset" : 121180
        },
        {
            "buffer" : 0,
            "byteLength" : 1784,
            "byteOffset" : 122964
        },
        {
            "buffer" : 0,
            "byteLength" : 1728,
            "byteOffset" : 124748
        },
        {
            "buffer" : 0,
            "byteLength" : 1822,
            "byteOffset" : 126476
        },
        {
            "buffer" : 0,
            "byteLength" : 2100,
            "byteOffset" : 128300
        },
        {
            "buffer" : 0,
            "byteLength" : 2100,
            "byteOffset" : 130400
        },
        {
            "buffer" : 0,
            "byteLength" : 1400,
            "byteOffset" : 132500
        },
        {
            "buffer" : 0,
            "byteLength" : 1400,
            "byteOffset" : 133900
        },
        {
            "buffer" : 0,
            "byteLength" : 1400,
            "byteOffset" : 135300
        },
        {
            "buffer" : 0,
            "byteLength" : 1728,
            "byteOffset" : 136700
        },
        {
            "buffer" : 0,
            "byteLength" : 218971,
            "byteOffset" : 138428
        },
        {
            "buffer" : 0,
            "byteLength" : 48,
            "byteOffset" : 357400
        },
        {
            "buffer" : 0,
            "byteLength" : 48,
            "byteOffset" : 357448
        },
        {
            "buffer" : 0,
            "byteLength" : 32,
            "byteOffset" : 357496
        },
        {
            "buffer" : 0,
            "byteLength" : 32,
            "byteOffset" : 357528
        },
        {
            "buffer" : 0,
            "byteLength" : 12,
            "byteOffset" : 357560
        },
        {
            "buffer" : 0,
            "byteLength" : 56681,
            "byteOffset" : 357572
        },
        {
            "buffer" : 0,
            "byteLength" : 588,
            "byteOffset" : 414256
        },
        {
            "buffer" : 0,
            "byteLength" : 588,
            "byteOffset" : 414844
        },
        {
            "buffer" : 0,
            "byteLength" : 392,
            "byteOffset" : 415432
        },
        {
            "buffer" : 0,
            "byteLength" : 392,
            "byteOffset" : 415824
        },
        {
            "buffer" : 0,
            "byteLength" : 504,
            "byteOffset" : 416216
        }
    ],
    "samplers" : [
        {
            "magFilter" : 9729,
            "minFilter" : 9987
        }
    ],
    "buffers" : [
        {
            "byteLength" : 416720,
            "uri" : "data:application/octet-stream;base64,"
        }
    ]
}
