{
    "asset" : {
        "generator" : "Khronos glTF Blender I/O v1.8.19",
        "version" : "2.0"
    },
    "scene" : 0,
    "scenes" : [
        {
            "name" : "Scene",
            "nodes" : [
                0,
                1,
                2,
                3
            ]
        }
    ],
    "nodes" : [
        {
            "mesh" : 0,
            "name" : "SpaceSky"
        },
        {
            "mesh" : 1,
            "name" : "SpaceSkyBlend"
        },
        {
            "mesh" : 2,
            "name" : "SpaceFog"
        },
        {
            "mesh" : 3,
            "name" : "SpaceFog2"
        }
    ],
    "materials" : [
        {
            "alphaMode" : "BLEND",
            "name" : "Space",
            "pbrMetallicRoughness" : {
                "baseColorTexture" : {
                    "index" : 0
                },
                "metallicFactor" : 0
            }
        },
        {
            "alphaMode" : "BLEND",
            "name" : "Space Blend",
            "pbrMetallicRoughness" : {
                "baseColorTexture" : {
                    "index" : 1
                },
                "metallicFactor" : 0
            }
        },
        {
            "alphaMode" : "BLEND",
            "name" : "Space Fog",
            "pbrMetallicRoughness" : {
                "baseColorTexture" : {
                    "index" : 2
                },
                "metallicFactor" : 0
            }
        }
    ],
    "meshes" : [
        {
            "name" : "SpaceSky",
            "primitives" : [
                {
                    "attributes" : {
                        "POSITION" : 0,
                        "NORMAL" : 1,
                        "TEXCOORD_0" : 2,
                        "COLOR_0" : 3
                    },
                    "indices" : 4,
                    "material" : 0
                }
            ]
        },
        {
            "name" : "SpaceSkyBlend",
            "primitives" : [
                {
                    "attributes" : {
                        "POSITION" : 5,
                        "NORMAL" : 6,
                        "TEXCOORD_0" : 7,
                        "COLOR_0" : 8
                    },
                    "indices" : 9,
                    "material" : 1
                }
            ]
        },
        {
            "name" : "SpaceFog",
            "primitives" : [
                {
                    "attributes" : {
                        "POSITION" : 10,
                        "NORMAL" : 11,
                        "TEXCOORD_0" : 12,
                        "TEXCOORD_1" : 13,
                        "COLOR_0" : 14
                    },
                    "indices" : 15,
                    "material" : 2
                }
            ]
        },
        {
            "name" : "SpaceFog2",
            "primitives" : [
                {
                    "attributes" : {
                        "POSITION" : 16,
                        "NORMAL" : 17,
                        "TEXCOORD_0" : 18,
                        "TEXCOORD_1" : 19,
                        "COLOR_0" : 20
                    },
                    "indices" : 21,
                    "material" : 2
                }
            ]
        }
    ],
    "textures" : [
        {
            "sampler" : 0,
            "source" : 0
        },
        {
            "sampler" : 0,
            "source" : 0
        },
        {
            "sampler" : 0,
            "source" : 1
        }
    ],
    "images" : [
        {
            "bufferView" : 5,
            "mimeType" : "image/png",
            "name" : "space"
        },
        {
            "bufferView" : 17,
            "mimeType" : "image/png",
            "name" : "space fog"
        }
    ],
    "accessors" : [
        {
            "bufferView" : 0,
            "componentType" : 5126,
            "count" : 151,
            "max" : [
                3137.50048828125,
                2200.002197265625,
                1862.500244140625
            ],
            "min" : [
                -1487.5003662109375,
                -2199.998779296875,
                -2762.500732421875
            ],
            "type" : "VEC3"
        },
        {
            "bufferView" : 1,
            "componentType" : 5126,
            "count" : 151,
            "type" : "VEC3"
        },
        {
            "bufferView" : 2,
            "componentType" : 5126,
            "count" : 151,
            "type" : "VEC2"
        },
        {
            "bufferView" : 3,
            "componentType" : 5123,
            "count" : 151,
            "normalized" : true,
            "type" : "VEC4"
        },
        {
            "bufferView" : 4,
            "componentType" : 5123,
            "count" : 672,
            "type" : "SCALAR"
        },
        {
            "bufferView" : 6,
            "componentType" : 5126,
            "count" : 98,
            "max" : [
                2765.48828125,
                2158.240234375,
                1490.4927978515625
            ],
            "min" : [
                -1115.48779296875,
                -2158.23681640625,
                -2390.49267578125
            ],
            "type" : "VEC3"
        },
        {
            "bufferView" : 7,
            "componentType" : 5126,
            "count" : 98,
            "type" : "VEC3"
        },
        {
            "bufferView" : 8,
            "componentType" : 5126,
            "count" : 98,
            "type" : "VEC2"
        },
        {
            "bufferView" : 9,
            "componentType" : 5123,
            "count" : 98,
            "normalized" : true,
            "type" : "VEC4"
        },
        {
            "bufferView" : 10,
            "componentType" : 5123,
            "count" : 480,
            "type" : "SCALAR"
        },
        {
            "bufferView" : 11,
            "componentType" : 5126,
            "count" : 119,
            "max" : [
                2955.154541015625,
                1506.2537841796875,
                1680.154296875
            ],
            "min" : [
                -1305.1541748046875,
                -1506.25048828125,
                -2580.154541015625
            ],
            "type" : "VEC3"
        },
        {
            "bufferView" : 12,
            "componentType" : 5126,
            "count" : 119,
            "type" : "VEC3"
        },
        {
            "bufferView" : 13,
            "componentType" : 5126,
            "count" : 119,
            "type" : "VEC2"
        },
        {
            "bufferView" : 14,
            "componentType" : 5126,
            "count" : 119,
            "type" : "VEC2"
        },
        {
            "bufferView" : 15,
            "componentType" : 5123,
            "count" : 119,
            "normalized" : true,
            "type" : "VEC4"
        },
        {
            "bufferView" : 16,
            "componentType" : 5123,
            "count" : 576,
            "type" : "SCALAR"
        },
        {
            "bufferView" : 18,
            "componentType" : 5126,
            "count" : 119,
            "max" : [
                2875.640869140625,
                2067.278564453125,
                1530.912109375
            ],
            "min" : [
                -1225.640625,
                -2067.275390625,
                -2430.912353515625
            ],
            "type" : "VEC3"
        },
        {
            "bufferView" : 19,
            "componentType" : 5126,
            "count" : 119,
            "type" : "VEC3"
        },
        {
            "bufferView" : 20,
            "componentType" : 5126,
            "count" : 119,
            "type" : "VEC2"
        },
        {
            "bufferView" : 21,
            "componentType" : 5126,
            "count" : 119,
            "type" : "VEC2"
        },
        {
            "bufferView" : 22,
            "componentType" : 5123,
            "count" : 119,
            "normalized" : true,
            "type" : "VEC4"
        },
        {
            "bufferView" : 23,
            "componentType" : 5123,
            "count" : 576,
            "type" : "SCALAR"
        }
    ],
    "bufferViews" : [
        {
            "buffer" : 0,
            "byteLength" : 1812,
            "byteOffset" : 0
        },
        {
            "buffer" : 0,
            "byteLength" : 1812,
            "byteOffset" : 1812
        },
        {
            "buffer" : 0,
            "byteLength" : 1208,
            "byteOffset" : 3624
        },
        {
            "buffer" : 0,
            "byteLength" : 1208,
            "byteOffset" : 4832
        },
        {
            "buffer" : 0,
            "byteLength" : 1344,
            "byteOffset" : 6040
        },
        {
            "buffer" : 0,
            "byteLength" : 173048,
            "byteOffset" : 7384
        },
        {
            "buffer" : 0,
            "byteLength" : 1176,
            "byteOffset" : 180432
        },
        {
            "buffer" : 0,
            "byteLength" : 1176,
            "byteOffset" : 181608
        },
        {
            "buffer" : 0,
            "byteLength" : 784,
            "byteOffset" : 182784
        },
        {
            "buffer" : 0,
            "byteLength" : 784,
            "byteOffset" : 183568
        },
        {
            "buffer" : 0,
            "byteLength" : 960,
            "byteOffset" : 184352
        },
        {
            "buffer" : 0,
            "byteLength" : 1428,
            "byteOffset" : 185312
        },
        {
            "buffer" : 0,
            "byteLength" : 1428,
            "byteOffset" : 186740
        },
        {
            "buffer" : 0,
            "byteLength" : 952,
            "byteOffset" : 188168
        },
        {
            "buffer" : 0,
            "byteLength" : 952,
            "byteOffset" : 189120
        },
        {
            "buffer" : 0,
            "byteLength" : 952,
            "byteOffset" : 190072
        },
        {
            "buffer" : 0,
            "byteLength" : 1152,
            "byteOffset" : 191024
        },
        {
            "buffer" : 0,
            "byteLength" : 136895,
            "byteOffset" : 192176
        },
        {
            "buffer" : 0,
            "byteLength" : 1428,
            "byteOffset" : 329072
        },
        {
            "buffer" : 0,
            "byteLength" : 1428,
            "byteOffset" : 330500
        },
        {
            "buffer" : 0,
            "byteLength" : 952,
            "byteOffset" : 331928
        },
        {
            "buffer" : 0,
            "byteLength" : 952,
            "byteOffset" : 332880
        },
        {
            "buffer" : 0,
            "byteLength" : 952,
            "byteOffset" : 333832
        },
        {
            "buffer" : 0,
            "byteLength" : 1152,
            "byteOffset" : 334784
        }
    ],
    "samplers" : [
        {
            "magFilter" : 9729,
            "minFilter" : 9987
        }
    ],
    "buffers" : [
        {
            "byteLength" : 335936,
            "uri" : "data:application/octet-stream;base64,"
        }
    ]
}
