{
    "asset" : {
        "generator" : "Khronos glTF Blender I/O v1.8.19",
        "version" : "2.0"
    },
    "scene" : 0,
    "scenes" : [
        {
            "name" : "Scene",
            "nodes" : [
                0,
                1
            ]
        }
    ],
    "nodes" : [
        {
            "mesh" : 0,
            "name" : "StairRailing"
        },
        {
            "mesh" : 1,
            "name" : "StairSlope"
        }
    ],
    "materials" : [
        {
            "doubleSided" : true,
            "name" : "Space Star Clover Clear",
            "pbrMetallicRoughness" : {
                "baseColorTexture" : {
                    "index" : 0
                },
                "metallicFactor" : 0,
                "roughnessFactor" : 0.5
            }
        },
        {
            "doubleSided" : true,
            "name" : "Staircase",
            "pbrMetallicRoughness" : {
                "baseColorTexture" : {
                    "index" : 1
                },
                "metallicFactor" : 0,
                "roughnessFactor" : 0.5
            }
        },
        {
            "doubleSided" : true,
            "name" : "Staircase Pillar",
            "pbrMetallicRoughness" : {
                "baseColorTexture" : {
                    "index" : 2
                },
                "metallicFactor" : 0,
                "roughnessFactor" : 0.5
            }
        },
        {
            "doubleSided" : true,
            "name" : "Space Window",
            "pbrMetallicRoughness" : {
                "baseColorTexture" : {
                    "index" : 3
                },
                "metallicFactor" : 0,
                "roughnessFactor" : 0.5
            }
        },
        {
            "doubleSided" : true,
            "name" : "Space Brick",
            "pbrMetallicRoughness" : {
                "baseColorTexture" : {
                    "index" : 4
                },
                "metallicFactor" : 0,
                "roughnessFactor" : 0.5
            }
        },
        {
            "doubleSided" : true,
            "name" : "Space Clear Trim",
            "pbrMetallicRoughness" : {
                "baseColorTexture" : {
                    "index" : 5
                },
                "metallicFactor" : 0,
                "roughnessFactor" : 0.5
            }
        }
    ],
    "meshes" : [
        {
            "name" : "StairRailing",
            "primitives" : [
                {
                    "attributes" : {
                        "POSITION" : 0,
                        "NORMAL" : 1,
                        "TEXCOORD_0" : 2,
                        "COLOR_0" : 3
                    },
                    "indices" : 4,
                    "material" : 0
                },
                {
                    "attributes" : {
                        "POSITION" : 5,
                        "NORMAL" : 6,
                        "TEXCOORD_0" : 7,
                        "COLOR_0" : 8
                    },
                    "indices" : 9,
                    "material" : 1
                },
                {
                    "attributes" : {
                        "POSITION" : 10,
                        "NORMAL" : 11,
                        "TEXCOORD_0" : 12,
                        "COLOR_0" : 13
                    },
                    "indices" : 14,
                    "material" : 2
                },
                {
                    "attributes" : {
                        "POSITION" : 15,
                        "NORMAL" : 16,
                        "TEXCOORD_0" : 17,
                        "COLOR_0" : 18
                    },
                    "indices" : 19,
                    "material" : 3
                },
                {
                    "attributes" : {
                        "POSITION" : 20,
                        "NORMAL" : 21,
                        "TEXCOORD_0" : 22,
                        "COLOR_0" : 23
                    },
                    "indices" : 24,
                    "material" : 4
                },
                {
                    "attributes" : {
                        "POSITION" : 25,
                        "NORMAL" : 26,
                        "TEXCOORD_0" : 27,
                        "COLOR_0" : 28
                    },
                    "indices" : 29,
                    "material" : 5
                }
            ]
        },
        {
            "name" : "StairSlope",
            "primitives" : [
                {
                    "attributes" : {
                        "POSITION" : 30,
                        "NORMAL" : 31,
                        "TEXCOORD_0" : 32,
                        "COLOR_0" : 33
                    },
                    "indices" : 34,
                    "material" : 0
                }
            ]
        }
    ],
    "textures" : [
        {
            "sampler" : 0,
            "source" : 0
        },
        {
            "sampler" : 0,
            "source" : 1
        },
        {
            "sampler" : 0,
            "source" : 2
        },
        {
            "sampler" : 0,
            "source" : 3
        },
        {
            "sampler" : 0,
            "source" : 4
        },
        {
            "sampler" : 0,
            "source" : 5
        }
    ],
    "images" : [
        {
            "bufferView" : 5,
            "mimeType" : "image/png",
            "name" : "space star clover clear"
        },
        {
            "bufferView" : 11,
            "mimeType" : "image/png",
            "name" : "staircase"
        },
        {
            "bufferView" : 17,
            "mimeType" : "image/png",
            "name" : "staircase pillar"
        },
        {
            "bufferView" : 23,
            "mimeType" : "image/png",
            "name" : "space window"
        },
        {
            "bufferView" : 29,
            "mimeType" : "image/png",
            "name" : "space brick"
        },
        {
            "bufferView" : 35,
            "mimeType" : "image/png",
            "name" : "space clear trim"
        }
    ],
    "accessors" : [
        {
            "bufferView" : 0,
            "componentType" : 5126,
            "count" : 12,
            "max" : [
                2.000000238418579,
                -2.4063225282588974e-05,
                8.138011932373047
            ],
            "min" : [
                -2.000000238418579,
                -0.06821193546056747,
                6.690782070159912
            ],
            "type" : "VEC3"
        },
        {
            "bufferView" : 1,
            "componentType" : 5126,
            "count" : 12,
            "type" : "VEC3"
        },
        {
            "bufferView" : 2,
            "componentType" : 5126,
            "count" : 12,
            "type" : "VEC2"
        },
        {
            "bufferView" : 3,
            "componentType" : 5123,
            "count" : 12,
            "normalized" : true,
            "type" : "VEC4"
        },
        {
            "bufferView" : 4,
            "componentType" : 5123,
            "count" : 12,
            "type" : "SCALAR"
        },
        {
            "bufferView" : 6,
            "componentType" : 5126,
            "count" : 901,
            "max" : [
                2.8652963638305664,
                7.012217044830322,
                8.412877082824707
            ],
            "min" : [
                -2.8652963638305664,
                -3.010373802680988e-05,
                -8.007323265075684
            ],
            "type" : "VEC3"
        },
        {
            "bufferView" : 7,
            "componentType" : 5126,
            "count" : 901,
            "type" : "VEC3"
        },
        {
            "bufferView" : 8,
            "componentType" : 5126,
            "count" : 901,
            "type" : "VEC2"
        },
        {
            "bufferView" : 9,
            "componentType" : 5123,
            "count" : 901,
            "normalized" : true,
            "type" : "VEC4"
        },
        {
            "bufferView" : 10,
            "componentType" : 5123,
            "count" : 912,
            "type" : "SCALAR"
        },
        {
            "bufferView" : 12,
            "componentType" : 5126,
            "count" : 152,
            "max" : [
                2.864508867263794,
                2.7058513164520264,
                8.41219711303711
            ],
            "min" : [
                -2.864508867263794,
                1.93845534324646,
                7.349628925323486
            ],
            "type" : "VEC3"
        },
        {
            "bufferView" : 13,
            "componentType" : 5126,
            "count" : 152,
            "type" : "VEC3"
        },
        {
            "bufferView" : 14,
            "componentType" : 5126,
            "count" : 152,
            "type" : "VEC2"
        },
        {
            "bufferView" : 15,
            "componentType" : 5123,
            "count" : 152,
            "normalized" : true,
            "type" : "VEC4"
        },
        {
            "bufferView" : 16,
            "componentType" : 5123,
            "count" : 156,
            "type" : "SCALAR"
        },
        {
            "bufferView" : 18,
            "componentType" : 5126,
            "count" : 36,
            "max" : [
                2.500000476837158,
                5.618998050689697,
                4.469830513000488
            ],
            "min" : [
                -2.500000476837158,
                0.6117784380912781,
                -6.690781593322754
            ],
            "type" : "VEC3"
        },
        {
            "bufferView" : 19,
            "componentType" : 5126,
            "count" : 36,
            "type" : "VEC3"
        },
        {
            "bufferView" : 20,
            "componentType" : 5126,
            "count" : 36,
            "type" : "VEC2"
        },
        {
            "bufferView" : 21,
            "componentType" : 5123,
            "count" : 36,
            "normalized" : true,
            "type" : "VEC4"
        },
        {
            "bufferView" : 22,
            "componentType" : 5123,
            "count" : 36,
            "type" : "SCALAR"
        },
        {
            "bufferView" : 24,
            "componentType" : 5126,
            "count" : 211,
            "max" : [
                2.500000476837158,
                6.611770153045654,
                7.7430806159973145
            ],
            "min" : [
                -2.500000476837158,
                0.1451411247253418,
                -7.606875419616699
            ],
            "type" : "VEC3"
        },
        {
            "bufferView" : 25,
            "componentType" : 5126,
            "count" : 211,
            "type" : "VEC3"
        },
        {
            "bufferView" : 26,
            "componentType" : 5126,
            "count" : 211,
            "type" : "VEC2"
        },
        {
            "bufferView" : 27,
            "componentType" : 5123,
            "count" : 211,
            "normalized" : true,
            "type" : "VEC4"
        },
        {
            "bufferView" : 28,
            "componentType" : 5123,
            "count" : 228,
            "type" : "SCALAR"
        },
        {
            "bufferView" : 30,
            "componentType" : 5126,
            "count" : 448,
            "max" : [
                3.1190295219421387,
                7.012217044830322,
                8.138011932373047
            ],
            "min" : [
                -3.1190295219421387,
                -0.06821193546056747,
                -8.007323265075684
            ],
            "type" : "VEC3"
        },
        {
            "bufferView" : 31,
            "componentType" : 5126,
            "count" : 448,
            "type" : "VEC3"
        },
        {
            "bufferView" : 32,
            "componentType" : 5126,
            "count" : 448,
            "type" : "VEC2"
        },
        {
            "bufferView" : 33,
            "componentType" : 5123,
            "count" : 448,
            "normalized" : true,
            "type" : "VEC4"
        },
        {
            "bufferView" : 34,
            "componentType" : 5123,
            "count" : 462,
            "type" : "SCALAR"
        },
        {
            "bufferView" : 36,
            "componentType" : 5126,
            "count" : 106,
            "max" : [
                2.0000009536743164,
                5.999974727630615,
                6.690784454345703
            ],
            "min" : [
                -2.0000007152557373,
                -0.06820669770240784,
                -6.690762519836426
            ],
            "type" : "VEC3"
        },
        {
            "bufferView" : 37,
            "componentType" : 5126,
            "count" : 106,
            "type" : "VEC3"
        },
        {
            "bufferView" : 38,
            "componentType" : 5126,
            "count" : 106,
            "type" : "VEC2"
        },
        {
            "bufferView" : 39,
            "componentType" : 5123,
            "count" : 106,
            "normalized" : true,
            "type" : "VEC4"
        },
        {
            "bufferView" : 40,
            "componentType" : 5123,
            "count" : 108,
            "type" : "SCALAR"
        }
    ],
    "bufferViews" : [
        {
            "buffer" : 0,
            "byteLength" : 144,
            "byteOffset" : 0
        },
        {
            "buffer" : 0,
            "byteLength" : 144,
            "byteOffset" : 144
        },
        {
            "buffer" : 0,
            "byteLength" : 96,
            "byteOffset" : 288
        },
        {
            "buffer" : 0,
            "byteLength" : 96,
            "byteOffset" : 384
        },
        {
            "buffer" : 0,
            "byteLength" : 24,
            "byteOffset" : 480
        },
        {
            "buffer" : 0,
            "byteLength" : 20160,
            "byteOffset" : 504
        },
        {
            "buffer" : 0,
            "byteLength" : 10812,
            "byteOffset" : 20664
        },
        {
            "buffer" : 0,
            "byteLength" : 10812,
            "byteOffset" : 31476
        },
        {
            "buffer" : 0,
            "byteLength" : 7208,
            "byteOffset" : 42288
        },
        {
            "buffer" : 0,
            "byteLength" : 7208,
            "byteOffset" : 49496
        },
        {
            "buffer" : 0,
            "byteLength" : 1824,
            "byteOffset" : 56704
        },
        {
            "buffer" : 0,
            "byteLength" : 62348,
            "byteOffset" : 58528
        },
        {
            "buffer" : 0,
            "byteLength" : 1824,
            "byteOffset" : 120876
        },
        {
            "buffer" : 0,
            "byteLength" : 1824,
            "byteOffset" : 122700
        },
        {
            "buffer" : 0,
            "byteLength" : 1216,
            "byteOffset" : 124524
        },
        {
            "buffer" : 0,
            "byteLength" : 1216,
            "byteOffset" : 125740
        },
        {
            "buffer" : 0,
            "byteLength" : 312,
            "byteOffset" : 126956
        },
        {
            "buffer" : 0,
            "byteLength" : 80020,
            "byteOffset" : 127268
        },
        {
            "buffer" : 0,
            "byteLength" : 432,
            "byteOffset" : 207288
        },
        {
            "buffer" : 0,
            "byteLength" : 432,
            "byteOffset" : 207720
        },
        {
            "buffer" : 0,
            "byteLength" : 288,
            "byteOffset" : 208152
        },
        {
            "buffer" : 0,
            "byteLength" : 288,
            "byteOffset" : 208440
        },
        {
            "buffer" : 0,
            "byteLength" : 72,
            "byteOffset" : 208728
        },
        {
            "buffer" : 0,
            "byteLength" : 44514,
            "byteOffset" : 208800
        },
        {
            "buffer" : 0,
            "byteLength" : 2532,
            "byteOffset" : 253316
        },
        {
            "buffer" : 0,
            "byteLength" : 2532,
            "byteOffset" : 255848
        },
        {
            "buffer" : 0,
            "byteLength" : 1688,
            "byteOffset" : 258380
        },
        {
            "buffer" : 0,
            "byteLength" : 1688,
            "byteOffset" : 260068
        },
        {
            "buffer" : 0,
            "byteLength" : 456,
            "byteOffset" : 261756
        },
        {
            "buffer" : 0,
            "byteLength" : 15504,
            "byteOffset" : 262212
        },
        {
            "buffer" : 0,
            "byteLength" : 5376,
            "byteOffset" : 277716
        },
        {
            "buffer" : 0,
            "byteLength" : 5376,
            "byteOffset" : 283092
        },
        {
            "buffer" : 0,
            "byteLength" : 3584,
            "byteOffset" : 288468
        },
        {
            "buffer" : 0,
            "byteLength" : 3584,
            "byteOffset" : 292052
        },
        {
            "buffer" : 0,
            "byteLength" : 924,
            "byteOffset" : 295636
        },
        {
            "buffer" : 0,
            "byteLength" : 8465,
            "byteOffset" : 296560
        },
        {
            "buffer" : 0,
            "byteLength" : 1272,
            "byteOffset" : 305028
        },
        {
            "buffer" : 0,
            "byteLength" : 1272,
            "byteOffset" : 306300
        },
        {
            "buffer" : 0,
            "byteLength" : 848,
            "byteOffset" : 307572
        },
        {
            "buffer" : 0,
            "byteLength" : 848,
            "byteOffset" : 308420
        },
        {
            "buffer" : 0,
            "byteLength" : 216,
            "byteOffset" : 309268
        }
    ],
    "samplers" : [
        {
            "magFilter" : 9729,
            "minFilter" : 9987
        }
    ],
    "buffers" : [
        {
            "byteLength" : 309484,
            "uri" : "data:application/octet-stream;base64,"
        }
    ]
}
