{
    "asset" : {
        "generator" : "Khronos glTF Blender I/O v1.8.19",
        "version" : "2.0"
    },
    "scene" : 0,
    "scenes" : [
        {
            "name" : "Scene",
            "nodes" : [
                0,
                1
            ]
        }
    ],
    "nodes" : [
        {
            "mesh" : 0,
            "name" : "StairCollisionFloor"
        },
        {
            "mesh" : 1,
            "name" : "StairCollisionWall"
        }
    ],
    "meshes" : [
        {
            "name" : "StairCollisionFloor",
            "primitives" : [
                {
                    "attributes" : {
                        "POSITION" : 0,
                        "NORMAL" : 1
                    },
                    "indices" : 2
                }
            ]
        },
        {
            "name" : "StairCollisionWall",
            "primitives" : [
                {
                    "attributes" : {
                        "POSITION" : 3,
                        "NORMAL" : 4
                    },
                    "indices" : 5
                }
            ]
        }
    ],
    "accessors" : [
        {
            "bufferView" : 0,
            "componentType" : 5126,
            "count" : 64,
            "max" : [
                2.500000476837158,
                7.012217044830322,
                7.532624244689941
            ],
            "min" : [
                -2.500000476837158,
                1.0122175216674805,
                -7.872363090515137
            ],
            "type" : "VEC3"
        },
        {
            "bufferView" : 1,
            "componentType" : 5126,
            "count" : 64,
            "type" : "VEC3"
        },
        {
            "bufferView" : 2,
            "componentType" : 5123,
            "count" : 96,
            "type" : "SCALAR"
        },
        {
            "bufferView" : 3,
            "componentType" : 5126,
            "count" : 220,
            "max" : [
                2.864508867263794,
                7.012217044830322,
                8.41219711303711
            ],
            "min" : [
                -2.864508867263794,
                -3.0159950256347656e-05,
                -8.007322311401367
            ],
            "type" : "VEC3"
        },
        {
            "bufferView" : 4,
            "componentType" : 5126,
            "count" : 220,
            "type" : "VEC3"
        },
        {
            "bufferView" : 5,
            "componentType" : 5123,
            "count" : 276,
            "type" : "SCALAR"
        }
    ],
    "bufferViews" : [
        {
            "buffer" : 0,
            "byteLength" : 768,
            "byteOffset" : 0
        },
        {
            "buffer" : 0,
            "byteLength" : 768,
            "byteOffset" : 768
        },
        {
            "buffer" : 0,
            "byteLength" : 192,
            "byteOffset" : 1536
        },
        {
            "buffer" : 0,
            "byteLength" : 2640,
            "byteOffset" : 1728
        },
        {
            "buffer" : 0,
            "byteLength" : 2640,
            "byteOffset" : 4368
        },
        {
            "buffer" : 0,
            "byteLength" : 552,
            "byteOffset" : 7008
        }
    ],
    "buffers" : [
        {
            "byteLength" : 7560,
            "uri" : "data:application/octet-stream;base64,"
        }
    ]
}
