{
    "asset" : {
        "generator" : "Khronos glTF Blender I/O v3.3.27",
        "version" : "2.0"
    },
    "extensionsUsed" : [
        "KHR_materials_specular",
        "KHR_materials_ior"
    ],
    "scene" : 0,
    "scenes" : [
        {
            "name" : "Scene",
            "nodes" : [
                0
            ]
        }
    ],
    "nodes" : [
        {
            "mesh" : 0,
            "name" : "TailMesh"
        }
    ],
    "materials" : [
        {
            "extensions" : {
                "KHR_materials_specular" : {
                    "specularColorFactor" : [
                        0,
                        0,
                        0
                    ]
                },
                "KHR_materials_ior" : {
                    "ior" : 1.4500000476837158
                }
            },
            "name" : "Bone Orange",
            "pbrMetallicRoughness" : {
                "baseColorFactor" : [
                    0.800000011920929,
                    0.800000011920929,
                    0.800000011920929,
                    1
                ],
                "metallicFactor" : 0
            }
        },
        {
            "extensions" : {
                "KHR_materials_specular" : {
                    "specularColorFactor" : [
                        0,
                        0,
                        0
                    ]
                },
                "KHR_materials_ior" : {
                    "ior" : 1.4500000476837158
                }
            },
            "name" : "Bone Teeth",
            "pbrMetallicRoughness" : {
                "baseColorFactor" : [
                    0.800000011920929,
                    0.800000011920929,
                    0.800000011920929,
                    1
                ],
                "metallicFactor" : 0
            }
        }
    ],
    "meshes" : [
        {
            "name" : "TailMesh",
            "primitives" : [
                {
                    "attributes" : {
                        "POSITION" : 0,
                        "NORMAL" : 1,
                        "TEXCOORD_0" : 2,
                        "COLOR_0" : 3
                    },
                    "indices" : 4,
                    "material" : 0
                },
                {
                    "attributes" : {
                        "POSITION" : 5,
                        "NORMAL" : 6,
                        "TEXCOORD_0" : 7,
                        "COLOR_0" : 8
                    },
                    "indices" : 9,
                    "material" : 1
                }
            ]
        }
    ],
    "accessors" : [
        {
            "bufferView" : 0,
            "componentType" : 5126,
            "count" : 1456,
            "max" : [
                1.1085602045059204,
                0.5455029606819153,
                2.6568734645843506
            ],
            "min" : [
                -1.1285252571105957,
                -0.8028911352157593,
                -2.6530911922454834
            ],
            "type" : "VEC3"
        },
        {
            "bufferView" : 1,
            "componentType" : 5126,
            "count" : 1456,
            "type" : "VEC3"
        },
        {
            "bufferView" : 2,
            "componentType" : 5126,
            "count" : 1456,
            "type" : "VEC2"
        },
        {
            "bufferView" : 3,
            "componentType" : 5123,
            "count" : 1456,
            "normalized" : true,
            "type" : "VEC4"
        },
        {
            "bufferView" : 4,
            "componentType" : 5123,
            "count" : 1482,
            "type" : "SCALAR"
        },
        {
            "bufferView" : 5,
            "componentType" : 5126,
            "count" : 1296,
            "max" : [
                0.5512017607688904,
                0.9538982510566711,
                2.6568734645843506
            ],
            "min" : [
                -0.5583459138870239,
                -0.8028911352157593,
                -2.362924098968506
            ],
            "type" : "VEC3"
        },
        {
            "bufferView" : 6,
            "componentType" : 5126,
            "count" : 1296,
            "type" : "VEC3"
        },
        {
            "bufferView" : 7,
            "componentType" : 5126,
            "count" : 1296,
            "type" : "VEC2"
        },
        {
            "bufferView" : 8,
            "componentType" : 5123,
            "count" : 1296,
            "normalized" : true,
            "type" : "VEC4"
        },
        {
            "bufferView" : 9,
            "componentType" : 5123,
            "count" : 1302,
            "type" : "SCALAR"
        }
    ],
    "bufferViews" : [
        {
            "buffer" : 0,
            "byteLength" : 17472,
            "byteOffset" : 0,
            "target" : 34962
        },
        {
            "buffer" : 0,
            "byteLength" : 17472,
            "byteOffset" : 17472,
            "target" : 34962
        },
        {
            "buffer" : 0,
            "byteLength" : 11648,
            "byteOffset" : 34944,
            "target" : 34962
        },
        {
            "buffer" : 0,
            "byteLength" : 11648,
            "byteOffset" : 46592,
            "target" : 34962
        },
        {
            "buffer" : 0,
            "byteLength" : 2964,
            "byteOffset" : 58240,
            "target" : 34963
        },
        {
            "buffer" : 0,
            "byteLength" : 15552,
            "byteOffset" : 61204,
            "target" : 34962
        },
        {
            "buffer" : 0,
            "byteLength" : 15552,
            "byteOffset" : 76756,
            "target" : 34962
        },
        {
            "buffer" : 0,
            "byteLength" : 10368,
            "byteOffset" : 92308,
            "target" : 34962
        },
        {
            "buffer" : 0,
            "byteLength" : 10368,
            "byteOffset" : 102676,
            "target" : 34962
        },
        {
            "buffer" : 0,
            "byteLength" : 2604,
            "byteOffset" : 113044,
            "target" : 34963
        }
    ],
    "buffers" : [
        {
            "byteLength" : 115648,
            "uri" : "data:application/octet-stream;base64,"
        }
    ]
}
