{
    "asset" : {
        "generator" : "Khronos glTF Blender I/O v3.3.27",
        "version" : "2.0"
    },
    "extensionsUsed" : [
        "KHR_materials_specular",
        "KHR_materials_ior"
    ],
    "scene" : 0,
    "scenes" : [
        {
            "name" : "Scene",
            "nodes" : [
                0,
                1,
                2,
                3,
                4
            ]
        }
    ],
    "nodes" : [
        {
            "mesh" : 0,
            "name" : "TailPiece4",
            "translation" : [
                -0.026908565312623978,
                0.19515031576156616,
                0.8024267554283142
            ]
        },
        {
            "mesh" : 1,
            "name" : "TailPiece2",
            "translation" : [
                -0.01632838509976864,
                -0.12116689234972,
                -1.2068787813186646
            ]
        },
        {
            "mesh" : 2,
            "name" : "TailPiece1",
            "translation" : [
                -0.009169087745249271,
                -0.5165137648582458,
                -2.0339102745056152
            ]
        },
        {
            "mesh" : 3,
            "name" : "TailPiece5",
            "translation" : [
                -0.01798922009766102,
                -0.1706509292125702,
                1.9215009212493896
            ]
        },
        {
            "mesh" : 4,
            "name" : "TailPiece3",
            "translation" : [
                -0.011875375173985958,
                0.13274061679840088,
                -0.26787054538726807
            ]
        }
    ],
    "materials" : [
        {
            "extensions" : {
                "KHR_materials_specular" : {
                    "specularColorFactor" : [
                        0,
                        0,
                        0
                    ]
                },
                "KHR_materials_ior" : {
                    "ior" : 1.4500000476837158
                }
            },
            "name" : "Bone Orange",
            "pbrMetallicRoughness" : {
                "baseColorFactor" : [
                    0.800000011920929,
                    0.800000011920929,
                    0.800000011920929,
                    1
                ],
                "metallicFactor" : 0
            }
        },
        {
            "extensions" : {
                "KHR_materials_specular" : {
                    "specularColorFactor" : [
                        0,
                        0,
                        0
                    ]
                },
                "KHR_materials_ior" : {
                    "ior" : 1.4500000476837158
                }
            },
            "name" : "Bone Teeth",
            "pbrMetallicRoughness" : {
                "baseColorFactor" : [
                    0.800000011920929,
                    0.800000011920929,
                    0.800000011920929,
                    1
                ],
                "metallicFactor" : 0
            }
        }
    ],
    "meshes" : [
        {
            "name" : "TailPiece4",
            "primitives" : [
                {
                    "attributes" : {
                        "POSITION" : 0,
                        "NORMAL" : 1,
                        "TEXCOORD_0" : 2,
                        "COLOR_0" : 3
                    },
                    "indices" : 4,
                    "material" : 0
                },
                {
                    "attributes" : {
                        "POSITION" : 5,
                        "NORMAL" : 6,
                        "TEXCOORD_0" : 7,
                        "COLOR_0" : 8
                    },
                    "indices" : 9,
                    "material" : 1
                }
            ]
        },
        {
            "name" : "TailPiece2",
            "primitives" : [
                {
                    "attributes" : {
                        "POSITION" : 10,
                        "NORMAL" : 11,
                        "TEXCOORD_0" : 12,
                        "COLOR_0" : 13
                    },
                    "indices" : 14,
                    "material" : 0
                },
                {
                    "attributes" : {
                        "POSITION" : 15,
                        "NORMAL" : 16,
                        "TEXCOORD_0" : 17,
                        "COLOR_0" : 18
                    },
                    "indices" : 19,
                    "material" : 1
                }
            ]
        },
        {
            "name" : "TailPiece1",
            "primitives" : [
                {
                    "attributes" : {
                        "POSITION" : 20,
                        "NORMAL" : 21,
                        "TEXCOORD_0" : 22,
                        "COLOR_0" : 23
                    },
                    "indices" : 24,
                    "material" : 0
                },
                {
                    "attributes" : {
                        "POSITION" : 25,
                        "NORMAL" : 26,
                        "TEXCOORD_0" : 27,
                        "COLOR_0" : 28
                    },
                    "indices" : 29,
                    "material" : 1
                }
            ]
        },
        {
            "name" : "TailPiece5",
            "primitives" : [
                {
                    "attributes" : {
                        "POSITION" : 30,
                        "NORMAL" : 31,
                        "TEXCOORD_0" : 32,
                        "COLOR_0" : 33
                    },
                    "indices" : 34,
                    "material" : 0
                },
                {
                    "attributes" : {
                        "POSITION" : 35,
                        "NORMAL" : 36,
                        "TEXCOORD_0" : 37,
                        "COLOR_0" : 38
                    },
                    "indices" : 39,
                    "material" : 1
                }
            ]
        },
        {
            "name" : "TailPiece3",
            "primitives" : [
                {
                    "attributes" : {
                        "POSITION" : 40,
                        "NORMAL" : 41,
                        "TEXCOORD_0" : 42,
                        "COLOR_0" : 43
                    },
                    "indices" : 44,
                    "material" : 0
                },
                {
                    "attributes" : {
                        "POSITION" : 45,
                        "NORMAL" : 46,
                        "TEXCOORD_0" : 47,
                        "COLOR_0" : 48
                    },
                    "indices" : 49,
                    "material" : 1
                }
            ]
        }
    ],
    "accessors" : [
        {
            "bufferView" : 0,
            "componentType" : 5126,
            "count" : 294,
            "max" : [
                1.1132442951202393,
                0.35035258531570435,
                0.7164650559425354
            ],
            "min" : [
                -1.101616621017456,
                -0.5215016007423401,
                -0.7096434235572815
            ],
            "type" : "VEC3"
        },
        {
            "bufferView" : 1,
            "componentType" : 5126,
            "count" : 294,
            "type" : "VEC3"
        },
        {
            "bufferView" : 2,
            "componentType" : 5126,
            "count" : 294,
            "type" : "VEC2"
        },
        {
            "bufferView" : 3,
            "componentType" : 5123,
            "count" : 294,
            "normalized" : true,
            "type" : "VEC4"
        },
        {
            "bufferView" : 4,
            "componentType" : 5123,
            "count" : 294,
            "type" : "SCALAR"
        },
        {
            "bufferView" : 5,
            "componentType" : 5126,
            "count" : 264,
            "max" : [
                0.5361535549163818,
                0.7587478160858154,
                0.7164650559425354
            ],
            "min" : [
                -0.5314374566078186,
                -0.5476922392845154,
                -0.7096434235572815
            ],
            "type" : "VEC3"
        },
        {
            "bufferView" : 6,
            "componentType" : 5126,
            "count" : 264,
            "type" : "VEC3"
        },
        {
            "bufferView" : 7,
            "componentType" : 5126,
            "count" : 264,
            "type" : "VEC2"
        },
        {
            "bufferView" : 8,
            "componentType" : 5123,
            "count" : 264,
            "normalized" : true,
            "type" : "VEC4"
        },
        {
            "bufferView" : 9,
            "componentType" : 5123,
            "count" : 264,
            "type" : "SCALAR"
        },
        {
            "bufferView" : 10,
            "componentType" : 5126,
            "count" : 294,
            "max" : [
                0.8593354821205139,
                0.3580441474914551,
                0.5507954955101013
            ],
            "min" : [
                -0.8851510882377625,
                -0.41216981410980225,
                -0.6084068417549133
            ],
            "type" : "VEC3"
        },
        {
            "bufferView" : 11,
            "componentType" : 5126,
            "count" : 294,
            "type" : "VEC3"
        },
        {
            "bufferView" : 12,
            "componentType" : 5126,
            "count" : 294,
            "type" : "VEC2"
        },
        {
            "bufferView" : 13,
            "componentType" : 5123,
            "count" : 294,
            "normalized" : true,
            "type" : "VEC4"
        },
        {
            "bufferView" : 14,
            "componentType" : 5123,
            "count" : 294,
            "type" : "SCALAR"
        },
        {
            "bufferView" : 15,
            "componentType" : 5126,
            "count" : 276,
            "max" : [
                0.42419832944869995,
                0.5643360018730164,
                0.5507954955101013
            ],
            "min" : [
                -0.4474768042564392,
                -0.4299701452255249,
                -0.6084068417549133
            ],
            "type" : "VEC3"
        },
        {
            "bufferView" : 16,
            "componentType" : 5126,
            "count" : 276,
            "type" : "VEC3"
        },
        {
            "bufferView" : 17,
            "componentType" : 5126,
            "count" : 276,
            "type" : "VEC2"
        },
        {
            "bufferView" : 18,
            "componentType" : 5123,
            "count" : 276,
            "normalized" : true,
            "type" : "VEC4"
        },
        {
            "bufferView" : 19,
            "componentType" : 5123,
            "count" : 276,
            "type" : "SCALAR"
        },
        {
            "bufferView" : 20,
            "componentType" : 5126,
            "count" : 330,
            "max" : [
                0.5344027280807495,
                0.3020531237125397,
                0.42350462079048157
            ],
            "min" : [
                -0.532319188117981,
                -0.27886611223220825,
                -0.6191806793212891
            ],
            "type" : "VEC3"
        },
        {
            "bufferView" : 21,
            "componentType" : 5126,
            "count" : 330,
            "type" : "VEC3"
        },
        {
            "bufferView" : 22,
            "componentType" : 5126,
            "count" : 330,
            "type" : "VEC2"
        },
        {
            "bufferView" : 23,
            "componentType" : 5123,
            "count" : 330,
            "normalized" : true,
            "type" : "VEC4"
        },
        {
            "bufferView" : 24,
            "componentType" : 5123,
            "count" : 330,
            "type" : "SCALAR"
        },
        {
            "bufferView" : 25,
            "componentType" : 5126,
            "count" : 210,
            "max" : [
                0.3494653105735779,
                0.35845908522605896,
                0.42350462079048157
            ],
            "min" : [
                -0.2941545844078064,
                -0.08852582424879074,
                -0.32901355624198914
            ],
            "type" : "VEC3"
        },
        {
            "bufferView" : 26,
            "componentType" : 5126,
            "count" : 210,
            "type" : "VEC3"
        },
        {
            "bufferView" : 27,
            "componentType" : 5126,
            "count" : 210,
            "type" : "VEC2"
        },
        {
            "bufferView" : 28,
            "componentType" : 5123,
            "count" : 210,
            "normalized" : true,
            "type" : "VEC4"
        },
        {
            "bufferView" : 29,
            "componentType" : 5123,
            "count" : 210,
            "type" : "SCALAR"
        },
        {
            "bufferView" : 30,
            "componentType" : 5126,
            "count" : 294,
            "max" : [
                1.126549482345581,
                0.5033009052276611,
                0.7353721261024475
            ],
            "min" : [
                -1.0905709266662598,
                -0.6322400569915771,
                -0.7306645512580872
            ],
            "type" : "VEC3"
        },
        {
            "bufferView" : 31,
            "componentType" : 5126,
            "count" : 294,
            "type" : "VEC3"
        },
        {
            "bufferView" : 32,
            "componentType" : 5126,
            "count" : 294,
            "type" : "VEC2"
        },
        {
            "bufferView" : 33,
            "componentType" : 5123,
            "count" : 294,
            "normalized" : true,
            "type" : "VEC4"
        },
        {
            "bufferView" : 34,
            "componentType" : 5123,
            "count" : 294,
            "type" : "SCALAR"
        },
        {
            "bufferView" : 35,
            "componentType" : 5126,
            "count" : 264,
            "max" : [
                0.5691909790039062,
                0.7505854368209839,
                0.7353721261024475
            ],
            "min" : [
                -0.5067118406295776,
                -0.6322400569915771,
                -0.7306645512580872
            ],
            "type" : "VEC3"
        },
        {
            "bufferView" : 36,
            "componentType" : 5126,
            "count" : 264,
            "type" : "VEC3"
        },
        {
            "bufferView" : 37,
            "componentType" : 5126,
            "count" : 264,
            "type" : "VEC2"
        },
        {
            "bufferView" : 38,
            "componentType" : 5123,
            "count" : 264,
            "normalized" : true,
            "type" : "VEC4"
        },
        {
            "bufferView" : 39,
            "componentType" : 5123,
            "count" : 264,
            "type" : "SCALAR"
        },
        {
            "bufferView" : 40,
            "componentType" : 5126,
            "count" : 294,
            "max" : [
                0.873702883720398,
                0.27625808119773865,
                0.5195153951644897
            ],
            "min" : [
                -0.8705778121948242,
                -0.3339427411556244,
                -0.6085281372070312
            ],
            "type" : "VEC3"
        },
        {
            "bufferView" : 41,
            "componentType" : 5126,
            "count" : 294,
            "type" : "VEC3"
        },
        {
            "bufferView" : 42,
            "componentType" : 5126,
            "count" : 294,
            "type" : "VEC2"
        },
        {
            "bufferView" : 43,
            "componentType" : 5123,
            "count" : 294,
            "normalized" : true,
            "type" : "VEC4"
        },
        {
            "bufferView" : 44,
            "componentType" : 5123,
            "count" : 294,
            "type" : "SCALAR"
        },
        {
            "bufferView" : 45,
            "componentType" : 5126,
            "count" : 276,
            "max" : [
                0.4500277638435364,
                0.5538047552108765,
                0.5195153951644897
            ],
            "min" : [
                -0.42153477668762207,
                -0.3719938099384308,
                -0.6085281372070312
            ],
            "type" : "VEC3"
        },
        {
            "bufferView" : 46,
            "componentType" : 5126,
            "count" : 276,
            "type" : "VEC3"
        },
        {
            "bufferView" : 47,
            "componentType" : 5126,
            "count" : 276,
            "type" : "VEC2"
        },
        {
            "bufferView" : 48,
            "componentType" : 5123,
            "count" : 276,
            "normalized" : true,
            "type" : "VEC4"
        },
        {
            "bufferView" : 49,
            "componentType" : 5123,
            "count" : 276,
            "type" : "SCALAR"
        }
    ],
    "bufferViews" : [
        {
            "buffer" : 0,
            "byteLength" : 3528,
            "byteOffset" : 0,
            "target" : 34962
        },
        {
            "buffer" : 0,
            "byteLength" : 3528,
            "byteOffset" : 3528,
            "target" : 34962
        },
        {
            "buffer" : 0,
            "byteLength" : 2352,
            "byteOffset" : 7056,
            "target" : 34962
        },
        {
            "buffer" : 0,
            "byteLength" : 2352,
            "byteOffset" : 9408,
            "target" : 34962
        },
        {
            "buffer" : 0,
            "byteLength" : 588,
            "byteOffset" : 11760,
            "target" : 34963
        },
        {
            "buffer" : 0,
            "byteLength" : 3168,
            "byteOffset" : 12348,
            "target" : 34962
        },
        {
            "buffer" : 0,
            "byteLength" : 3168,
            "byteOffset" : 15516,
            "target" : 34962
        },
        {
            "buffer" : 0,
            "byteLength" : 2112,
            "byteOffset" : 18684,
            "target" : 34962
        },
        {
            "buffer" : 0,
            "byteLength" : 2112,
            "byteOffset" : 20796,
            "target" : 34962
        },
        {
            "buffer" : 0,
            "byteLength" : 528,
            "byteOffset" : 22908,
            "target" : 34963
        },
        {
            "buffer" : 0,
            "byteLength" : 3528,
            "byteOffset" : 23436,
            "target" : 34962
        },
        {
            "buffer" : 0,
            "byteLength" : 3528,
            "byteOffset" : 26964,
            "target" : 34962
        },
        {
            "buffer" : 0,
            "byteLength" : 2352,
            "byteOffset" : 30492,
            "target" : 34962
        },
        {
            "buffer" : 0,
            "byteLength" : 2352,
            "byteOffset" : 32844,
            "target" : 34962
        },
        {
            "buffer" : 0,
            "byteLength" : 588,
            "byteOffset" : 35196,
            "target" : 34963
        },
        {
            "buffer" : 0,
            "byteLength" : 3312,
            "byteOffset" : 35784,
            "target" : 34962
        },
        {
            "buffer" : 0,
            "byteLength" : 3312,
            "byteOffset" : 39096,
            "target" : 34962
        },
        {
            "buffer" : 0,
            "byteLength" : 2208,
            "byteOffset" : 42408,
            "target" : 34962
        },
        {
            "buffer" : 0,
            "byteLength" : 2208,
            "byteOffset" : 44616,
            "target" : 34962
        },
        {
            "buffer" : 0,
            "byteLength" : 552,
            "byteOffset" : 46824,
            "target" : 34963
        },
        {
            "buffer" : 0,
            "byteLength" : 3960,
            "byteOffset" : 47376,
            "target" : 34962
        },
        {
            "buffer" : 0,
            "byteLength" : 3960,
            "byteOffset" : 51336,
            "target" : 34962
        },
        {
            "buffer" : 0,
            "byteLength" : 2640,
            "byteOffset" : 55296,
            "target" : 34962
        },
        {
            "buffer" : 0,
            "byteLength" : 2640,
            "byteOffset" : 57936,
            "target" : 34962
        },
        {
            "buffer" : 0,
            "byteLength" : 660,
            "byteOffset" : 60576,
            "target" : 34963
        },
        {
            "buffer" : 0,
            "byteLength" : 2520,
            "byteOffset" : 61236,
            "target" : 34962
        },
        {
            "buffer" : 0,
            "byteLength" : 2520,
            "byteOffset" : 63756,
            "target" : 34962
        },
        {
            "buffer" : 0,
            "byteLength" : 1680,
            "byteOffset" : 66276,
            "target" : 34962
        },
        {
            "buffer" : 0,
            "byteLength" : 1680,
            "byteOffset" : 67956,
            "target" : 34962
        },
        {
            "buffer" : 0,
            "byteLength" : 420,
            "byteOffset" : 69636,
            "target" : 34963
        },
        {
            "buffer" : 0,
            "byteLength" : 3528,
            "byteOffset" : 70056,
            "target" : 34962
        },
        {
            "buffer" : 0,
            "byteLength" : 3528,
            "byteOffset" : 73584,
            "target" : 34962
        },
        {
            "buffer" : 0,
            "byteLength" : 2352,
            "byteOffset" : 77112,
            "target" : 34962
        },
        {
            "buffer" : 0,
            "byteLength" : 2352,
            "byteOffset" : 79464,
            "target" : 34962
        },
        {
            "buffer" : 0,
            "byteLength" : 588,
            "byteOffset" : 81816,
            "target" : 34963
        },
        {
            "buffer" : 0,
            "byteLength" : 3168,
            "byteOffset" : 82404,
            "target" : 34962
        },
        {
            "buffer" : 0,
            "byteLength" : 3168,
            "byteOffset" : 85572,
            "target" : 34962
        },
        {
            "buffer" : 0,
            "byteLength" : 2112,
            "byteOffset" : 88740,
            "target" : 34962
        },
        {
            "buffer" : 0,
            "byteLength" : 2112,
            "byteOffset" : 90852,
            "target" : 34962
        },
        {
            "buffer" : 0,
            "byteLength" : 528,
            "byteOffset" : 92964,
            "target" : 34963
        },
        {
            "buffer" : 0,
            "byteLength" : 3528,
            "byteOffset" : 93492,
            "target" : 34962
        },
        {
            "buffer" : 0,
            "byteLength" : 3528,
            "byteOffset" : 97020,
            "target" : 34962
        },
        {
            "buffer" : 0,
            "byteLength" : 2352,
            "byteOffset" : 100548,
            "target" : 34962
        },
        {
            "buffer" : 0,
            "byteLength" : 2352,
            "byteOffset" : 102900,
            "target" : 34962
        },
        {
            "buffer" : 0,
            "byteLength" : 588,
            "byteOffset" : 105252,
            "target" : 34963
        },
        {
            "buffer" : 0,
            "byteLength" : 3312,
            "byteOffset" : 105840,
            "target" : 34962
        },
        {
            "buffer" : 0,
            "byteLength" : 3312,
            "byteOffset" : 109152,
            "target" : 34962
        },
        {
            "buffer" : 0,
            "byteLength" : 2208,
            "byteOffset" : 112464,
            "target" : 34962
        },
        {
            "buffer" : 0,
            "byteLength" : 2208,
            "byteOffset" : 114672,
            "target" : 34962
        },
        {
            "buffer" : 0,
            "byteLength" : 552,
            "byteOffset" : 116880,
            "target" : 34963
        }
    ],
    "buffers" : [
        {
            "byteLength" : 117432,
            "uri" : "data:application/octet-stream;base64,"
        }
    ]
}
