{
    "asset" : {
        "generator" : "Khronos glTF Blender I/O v3.4.50",
        "version" : "2.0"
    },
    "scene" : 0,
    "scenes" : [
        {
            "name" : "Scene",
            "nodes" : [
                20
            ]
        }
    ],
    "nodes" : [
        {
            "name" : "jaw",
            "rotation" : [
                -1.8626469255877964e-08,
                -4.8483499881513126e-08,
                7.072580388012284e-08,
                1
            ],
            "translation" : [
                -1.4941159420800432e-08,
                -0.07701611518859863,
                0.12377548962831497
            ]
        },
        {
            "children" : [
                0
            ],
            "name" : "head",
            "rotation" : [
                -0.008426187559962273,
                2.267708154590764e-08,
                -9.838088033120584e-08,
                0.9999645352363586
            ],
            "scale" : [
                1,
                1,
                0.9999999403953552
            ],
            "translation" : [
                -1.0658141036401503e-13,
                0.2498626559972763,
                3.725269870358261e-09
            ]
        },
        {
            "children" : [
                1
            ],
            "name" : "neck",
            "rotation" : [
                -0.008722792379558086,
                1.4781554114051687e-07,
                1.42796892532715e-07,
                0.9999619722366333
            ],
            "translation" : [
                -9.159339953157541e-16,
                0.4604439437389374,
                0
            ]
        },
        {
            "name" : "jewel",
            "rotation" : [
                -0.01714833453297615,
                1.6686788839592737e-08,
                -4.259112784676944e-10,
                0.9998529553413391
            ],
            "scale" : [
                1,
                1.0000001192092896,
                1
            ],
            "translation" : [
                -4.238033035619537e-09,
                0.19711674749851227,
                0.18046799302101135
            ]
        },
        {
            "name" : "L_arm02",
            "rotation" : [
                6.638915237999754e-06,
                -2.3095424239727436e-08,
                2.5095907574268494e-08,
                1
            ],
            "translation" : [
                2.4444275936730264e-07,
                0.6440304517745972,
                -1.3724269592785276e-05
            ]
        },
        {
            "children" : [
                4
            ],
            "name" : "L_arm01",
            "rotation" : [
                0.9998529553413391,
                -9.395219535690558e-08,
                -8.887955260661329e-08,
                0.017148323357105255
            ],
            "scale" : [
                1,
                1,
                1.0000004768371582
            ],
            "translation" : [
                0.5000001192092896,
                0.35828036069869995,
                0.11778327822685242
            ]
        },
        {
            "name" : "R_arm02",
            "rotation" : [
                -4.916511642250043e-08,
                -7.797520140684355e-08,
                7.997790874014754e-08,
                1
            ],
            "translation" : [
                1.8439820337334822e-07,
                0.6440304517745972,
                1.3769723409495782e-05
            ]
        },
        {
            "children" : [
                6
            ],
            "name" : "R_arm01",
            "rotation" : [
                0.9998529553413391,
                9.401855294299821e-08,
                9.274888412846849e-08,
                0.017148295417428017
            ],
            "scale" : [
                1,
                1,
                1.0000004768371582
            ],
            "translation" : [
                -0.5000001192092896,
                0.35828036069869995,
                0.1177833154797554
            ]
        },
        {
            "children" : [
                2,
                3,
                5,
                7
            ],
            "name" : "chest",
            "rotation" : [
                0.14810273051261902,
                1.1457156112726352e-08,
                1.1644220698769914e-08,
                0.988972008228302
            ],
            "translation" : [
                -2.4424906541753444e-15,
                0.26925820112228394,
                -2.9802322387695312e-08
            ]
        },
        {
            "children" : [
                8
            ],
            "name" : "waist",
            "rotation" : [
                0.6082847714424133,
                0,
                -1.3576777035950727e-08,
                0.7937189936637878
            ]
        },
        {
            "name" : "L_foot",
            "rotation" : [
                -0.5302603244781494,
                -2.723527359194122e-07,
                3.3931453913282894e-07,
                0.8478348851203918
            ],
            "translation" : [
                3.055950159591703e-08,
                0.5900000929832458,
                0.010000001639127731
            ]
        },
        {
            "children" : [
                10
            ],
            "name" : "L_leg02",
            "rotation" : [
                -6.866529389526477e-08,
                -3.173030904690677e-08,
                3.1730316152334126e-08,
                1
            ],
            "translation" : [
                2.236463814142553e-08,
                0.47440534830093384,
                -0.01000006403774023
            ]
        },
        {
            "children" : [
                11
            ],
            "name" : "L_leg01",
            "rotation" : [
                8.245174143439726e-08,
                -3.141018822816477e-08,
                3.141018822816477e-08,
                1
            ],
            "translation" : [
                0.20000004768371582,
                0.18559575080871582,
                -0.0599999874830246
            ]
        },
        {
            "name" : "R_foot",
            "rotation" : [
                -0.5302603244781494,
                -3.48054847165713e-08,
                8.02075827976978e-09,
                0.8478348851203918
            ],
            "translation" : [
                7.122270062609459e-08,
                0.5900000929832458,
                0.010000001639127731
            ]
        },
        {
            "children" : [
                13
            ],
            "name" : "R_leg02",
            "rotation" : [
                -6.945455055529237e-08,
                -6.1539875417793155e-09,
                6.153984877244056e-09,
                1
            ],
            "translation" : [
                2.233884544011744e-08,
                0.47440534830093384,
                -0.010000063106417656
            ]
        },
        {
            "children" : [
                14
            ],
            "name" : "R_leg01",
            "rotation" : [
                8.245174143439726e-08,
                3.141018822816477e-08,
                -3.141018822816477e-08,
                1
            ],
            "translation" : [
                -0.20000004768371582,
                0.18559575080871582,
                -0.0599999874830246
            ]
        },
        {
            "children" : [
                12,
                15
            ],
            "name" : "hip",
            "rotation" : [
                -0.7071068286895752,
                0,
                0,
                0.7071068286895752
            ],
            "translation" : [
                2.6453044199570286e-09,
                0,
                5.0067901611328125e-06
            ]
        },
        {
            "children" : [
                9,
                16
            ],
            "name" : "root",
            "translation" : [
                0,
                0.059999942779541016,
                1.4800002574920654
            ]
        },
        {
            "children" : [
                17
            ],
            "name" : "ene_skelton01",
            "rotation" : [
                -0.7071068286895752,
                0,
                0,
                0.7071068286895752
            ]
        },
        {
            "mesh" : 0,
            "name" : "SkeletonMajinMesh",
            "skin" : 0
        },
        {
            "children" : [
                19,
                18
            ],
            "name" : "SkeletonMajinRoot"
        }
    ],
    "materials" : [
        {
            "name" : "Skeleton Majin",
            "pbrMetallicRoughness" : {
                "baseColorFactor" : [
                    0.800000011920929,
                    0.800000011920929,
                    0.800000011920929,
                    1
                ],
                "metallicFactor" : 0
            }
        }
    ],
    "meshes" : [
        {
            "name" : "SkeletonMajinMesh",
            "primitives" : [
                {
                    "attributes" : {
                        "COLOR_0" : 0,
                        "POSITION" : 1,
                        "TEXCOORD_0" : 2,
                        "NORMAL" : 3,
                        "JOINTS_0" : 4,
                        "WEIGHTS_0" : 5
                    },
                    "indices" : 6,
                    "material" : 0
                }
            ]
        }
    ],
    "skins" : [
        {
            "inverseBindMatrices" : 7,
            "joints" : [
                18,
                17,
                9,
                8,
                2,
                1,
                0,
                3,
                5,
                4,
                7,
                6,
                16,
                12,
                11,
                10,
                15,
                14,
                13
            ],
            "name" : "SkeletonMajinRoot"
        }
    ],
    "accessors" : [
        {
            "bufferView" : 0,
            "componentType" : 5123,
            "count" : 5154,
            "normalized" : true,
            "type" : "VEC4"
        },
        {
            "bufferView" : 1,
            "componentType" : 5126,
            "count" : 5154,
            "max" : [
                0.8296278119087219,
                2.990255117416382,
                0.4748561680316925
            ],
            "min" : [
                -0.8296278119087219,
                -0.6140660643577576,
                -0.3297281563282013
            ],
            "type" : "VEC3"
        },
        {
            "bufferView" : 2,
            "componentType" : 5126,
            "count" : 5154,
            "type" : "VEC2"
        },
        {
            "bufferView" : 3,
            "componentType" : 5126,
            "count" : 5154,
            "type" : "VEC3"
        },
        {
            "bufferView" : 4,
            "componentType" : 5121,
            "count" : 5154,
            "type" : "VEC4"
        },
        {
            "bufferView" : 5,
            "componentType" : 5126,
            "count" : 5154,
            "type" : "VEC4"
        },
        {
            "bufferView" : 6,
            "componentType" : 5123,
            "count" : 5154,
            "type" : "SCALAR"
        },
        {
            "bufferView" : 7,
            "componentType" : 5126,
            "count" : 19,
            "type" : "MAT4"
        }
    ],
    "bufferViews" : [
        {
            "buffer" : 0,
            "byteLength" : 41232,
            "byteOffset" : 0,
            "target" : 34962
        },
        {
            "buffer" : 0,
            "byteLength" : 61848,
            "byteOffset" : 41232,
            "target" : 34962
        },
        {
            "buffer" : 0,
            "byteLength" : 41232,
            "byteOffset" : 103080,
            "target" : 34962
        },
        {
            "buffer" : 0,
            "byteLength" : 61848,
            "byteOffset" : 144312,
            "target" : 34962
        },
        {
            "buffer" : 0,
            "byteLength" : 20616,
            "byteOffset" : 206160,
            "target" : 34962
        },
        {
            "buffer" : 0,
            "byteLength" : 82464,
            "byteOffset" : 226776,
            "target" : 34962
        },
        {
            "buffer" : 0,
            "byteLength" : 10308,
            "byteOffset" : 309240,
            "target" : 34963
        },
        {
            "buffer" : 0,
            "byteLength" : 1216,
            "byteOffset" : 319548
        }
    ],
    "buffers" : [
        {
            "byteLength" : 320764,
            "uri" : "data:application/octet-stream;base64,"
        }
    ]
}
