{
    "asset" : {
        "generator" : "Khronos glTF Blender I/O v1.8.19",
        "version" : "2.0"
    },
    "scene" : 0,
    "scenes" : [
        {
            "name" : "Scene",
            "nodes" : [
                0,
                1,
                2
            ]
        }
    ],
    "nodes" : [
        {
            "mesh" : 0,
            "name" : "Skybox"
        },
        {
            "mesh" : 1,
            "name" : "SkyboxMist"
        },
        {
            "mesh" : 2,
            "name" : "SkyboxShells"
        }
    ],
    "materials" : [
        {
            "name" : "Skybox",
            "pbrMetallicRoughness" : {
                "baseColorTexture" : {
                    "index" : 0
                },
                "metallicFactor" : 0,
                "roughnessFactor" : 0.5
            }
        },
        {
            "name" : "Skybox Mist",
            "pbrMetallicRoughness" : {
                "baseColorTexture" : {
                    "index" : 1
                },
                "metallicFactor" : 0,
                "roughnessFactor" : 0.5
            }
        }
    ],
    "meshes" : [
        {
            "name" : "Skybox",
            "primitives" : [
                {
                    "attributes" : {
                        "POSITION" : 0,
                        "NORMAL" : 1,
                        "TEXCOORD_0" : 2,
                        "TEXCOORD_1" : 3,
                        "COLOR_0" : 4
                    },
                    "indices" : 5,
                    "material" : 0
                }
            ]
        },
        {
            "name" : "SkyboxMist",
            "primitives" : [
                {
                    "attributes" : {
                        "POSITION" : 6,
                        "NORMAL" : 7,
                        "TEXCOORD_0" : 8,
                        "TEXCOORD_1" : 9,
                        "COLOR_0" : 10
                    },
                    "indices" : 11,
                    "material" : 1
                }
            ]
        },
        {
            "name" : "SkyboxMist.001",
            "primitives" : [
                {
                    "attributes" : {
                        "POSITION" : 12,
                        "NORMAL" : 13,
                        "TEXCOORD_0" : 14,
                        "TEXCOORD_1" : 15,
                        "COLOR_0" : 16
                    },
                    "indices" : 17,
                    "material" : 1
                }
            ]
        }
    ],
    "textures" : [
        {
            "sampler" : 0,
            "source" : 0
        },
        {
            "sampler" : 0,
            "source" : 1
        }
    ],
    "images" : [
        {
            "bufferView" : 6,
            "mimeType" : "image/png",
            "name" : "skybox"
        },
        {
            "bufferView" : 13,
            "mimeType" : "image/png",
            "name" : "skybox mist"
        }
    ],
    "accessors" : [
        {
            "bufferView" : 0,
            "componentType" : 5126,
            "count" : 3832,
            "max" : [
                290.67572021484375,
                50.88388442993164,
                252.7267608642578
            ],
            "min" : [
                -49.83575439453125,
                -50.883827209472656,
                -363.72467041015625
            ],
            "type" : "VEC3"
        },
        {
            "bufferView" : 1,
            "componentType" : 5126,
            "count" : 3832,
            "type" : "VEC3"
        },
        {
            "bufferView" : 2,
            "componentType" : 5126,
            "count" : 3832,
            "type" : "VEC2"
        },
        {
            "bufferView" : 3,
            "componentType" : 5126,
            "count" : 3832,
            "type" : "VEC2"
        },
        {
            "bufferView" : 4,
            "componentType" : 5123,
            "count" : 3832,
            "normalized" : true,
            "type" : "VEC4"
        },
        {
            "bufferView" : 5,
            "componentType" : 5123,
            "count" : 22128,
            "type" : "SCALAR"
        },
        {
            "bufferView" : 7,
            "componentType" : 5126,
            "count" : 1356,
            "max" : [
                289.68072509765625,
                49.38378143310547,
                251.7317352294922
            ],
            "min" : [
                -48.84125518798828,
                -49.38372802734375,
                -362.73065185546875
            ],
            "type" : "VEC3"
        },
        {
            "bufferView" : 8,
            "componentType" : 5126,
            "count" : 1356,
            "type" : "VEC3"
        },
        {
            "bufferView" : 9,
            "componentType" : 5126,
            "count" : 1356,
            "type" : "VEC2"
        },
        {
            "bufferView" : 10,
            "componentType" : 5126,
            "count" : 1356,
            "type" : "VEC2"
        },
        {
            "bufferView" : 11,
            "componentType" : 5123,
            "count" : 1356,
            "normalized" : true,
            "type" : "VEC4"
        },
        {
            "bufferView" : 12,
            "componentType" : 5123,
            "count" : 7608,
            "type" : "SCALAR"
        },
        {
            "bufferView" : 14,
            "componentType" : 5126,
            "count" : 6780,
            "max" : [
                294.6805419921875,
                54.355140686035156,
                256.73150634765625
            ],
            "min" : [
                -53.83881378173828,
                -54.35549545288086,
                -367.7183532714844
            ],
            "type" : "VEC3"
        },
        {
            "bufferView" : 15,
            "componentType" : 5126,
            "count" : 6780,
            "type" : "VEC3"
        },
        {
            "bufferView" : 16,
            "componentType" : 5126,
            "count" : 6780,
            "type" : "VEC2"
        },
        {
            "bufferView" : 17,
            "componentType" : 5126,
            "count" : 6780,
            "type" : "VEC2"
        },
        {
            "bufferView" : 18,
            "componentType" : 5123,
            "count" : 6780,
            "normalized" : true,
            "type" : "VEC4"
        },
        {
            "bufferView" : 19,
            "componentType" : 5123,
            "count" : 38040,
            "type" : "SCALAR"
        }
    ],
    "bufferViews" : [
        {
            "buffer" : 0,
            "byteLength" : 45984,
            "byteOffset" : 0
        },
        {
            "buffer" : 0,
            "byteLength" : 45984,
            "byteOffset" : 45984
        },
        {
            "buffer" : 0,
            "byteLength" : 30656,
            "byteOffset" : 91968
        },
        {
            "buffer" : 0,
            "byteLength" : 30656,
            "byteOffset" : 122624
        },
        {
            "buffer" : 0,
            "byteLength" : 30656,
            "byteOffset" : 153280
        },
        {
            "buffer" : 0,
            "byteLength" : 44256,
            "byteOffset" : 183936
        },
        {
            "buffer" : 0,
            "byteLength" : 57784,
            "byteOffset" : 228192
        },
        {
            "buffer" : 0,
            "byteLength" : 16272,
            "byteOffset" : 285976
        },
        {
            "buffer" : 0,
            "byteLength" : 16272,
            "byteOffset" : 302248
        },
        {
            "buffer" : 0,
            "byteLength" : 10848,
            "byteOffset" : 318520
        },
        {
            "buffer" : 0,
            "byteLength" : 10848,
            "byteOffset" : 329368
        },
        {
            "buffer" : 0,
            "byteLength" : 10848,
            "byteOffset" : 340216
        },
        {
            "buffer" : 0,
            "byteLength" : 15216,
            "byteOffset" : 351064
        },
        {
            "buffer" : 0,
            "byteLength" : 11448,
            "byteOffset" : 366280
        },
        {
            "buffer" : 0,
            "byteLength" : 81360,
            "byteOffset" : 377728
        },
        {
            "buffer" : 0,
            "byteLength" : 81360,
            "byteOffset" : 459088
        },
        {
            "buffer" : 0,
            "byteLength" : 54240,
            "byteOffset" : 540448
        },
        {
            "buffer" : 0,
            "byteLength" : 54240,
            "byteOffset" : 594688
        },
        {
            "buffer" : 0,
            "byteLength" : 54240,
            "byteOffset" : 648928
        },
        {
            "buffer" : 0,
            "byteLength" : 76080,
            "byteOffset" : 703168
        }
    ],
    "samplers" : [
        {
            "magFilter" : 9729,
            "minFilter" : 9987
        }
    ],
    "buffers" : [
        {
            "byteLength" : 779248,
            "uri" : "data:application/octet-stream;base64,"
        }
    ]
}
