{
    "asset" : {
        "generator" : "Khronos glTF Blender I/O v3.3.36",
        "version" : "2.0"
    },
    "extensionsUsed" : [
        "KHR_materials_specular",
        "KHR_materials_ior"
    ],
    "scene" : 0,
    "scenes" : [
        {
            "name" : "Scene",
            "nodes" : [
                0,
                1,
                2,
                3,
                4
            ]
        }
    ],
    "nodes" : [
        {
            "mesh" : 0,
            "name" : "OneWayWall"
        },
        {
            "mesh" : 1,
            "name" : "Wall"
        },
        {
            "mesh" : 2,
            "name" : "Floor"
        },
        {
            "mesh" : 3,
            "name" : "Ceiling"
        },
        {
            "mesh" : 4,
            "name" : "SpikeBallCollision"
        }
    ],
    "materials" : [
        {
            "extensions" : {
                "KHR_materials_specular" : {
                    "specularColorFactor" : [
                        0,
                        0,
                        0
                    ]
                },
                "KHR_materials_ior" : {
                    "ior" : 1.4500000476837158
                }
            },
            "name" : "Atlas Diamond.001",
            "pbrMetallicRoughness" : {
                "baseColorFactor" : [
                    0.800000011920929,
                    0.800000011920929,
                    0.800000011920929,
                    1
                ],
                "metallicFactor" : 0
            }
        }
    ],
    "meshes" : [
        {
            "name" : "OneWayWall",
            "primitives" : [
                {
                    "attributes" : {
                        "POSITION" : 0,
                        "NORMAL" : 1
                    },
                    "indices" : 2
                }
            ]
        },
        {
            "name" : "Wall",
            "primitives" : [
                {
                    "attributes" : {
                        "POSITION" : 3,
                        "NORMAL" : 4
                    },
                    "indices" : 5
                }
            ]
        },
        {
            "name" : "Floor",
            "primitives" : [
                {
                    "attributes" : {
                        "POSITION" : 6,
                        "NORMAL" : 7
                    },
                    "indices" : 8
                }
            ]
        },
        {
            "name" : "Ceiling",
            "primitives" : [
                {
                    "attributes" : {
                        "POSITION" : 9,
                        "NORMAL" : 10
                    },
                    "indices" : 11,
                    "material" : 0
                }
            ]
        },
        {
            "name" : "SpikeBallCollision",
            "primitives" : [
                {
                    "attributes" : {
                        "POSITION" : 12,
                        "NORMAL" : 13
                    },
                    "indices" : 14
                }
            ]
        }
    ],
    "accessors" : [
        {
            "bufferView" : 0,
            "componentType" : 5126,
            "count" : 44,
            "max" : [
                276.814208984375,
                30.901409149169922,
                -1083.4205322265625
            ],
            "min" : [
                224.15481567382812,
                -80.31826782226562,
                -1488.837890625
            ],
            "type" : "VEC3"
        },
        {
            "bufferView" : 1,
            "componentType" : 5126,
            "count" : 44,
            "type" : "VEC3"
        },
        {
            "bufferView" : 2,
            "componentType" : 5123,
            "count" : 66,
            "type" : "SCALAR"
        },
        {
            "bufferView" : 3,
            "componentType" : 5126,
            "count" : 940,
            "max" : [
                271.6815185546875,
                20.005043029785156,
                -1147.604248046875
            ],
            "min" : [
                228.3186798095703,
                -93.700927734375,
                -1387.188720703125
            ],
            "type" : "VEC3"
        },
        {
            "bufferView" : 4,
            "componentType" : 5126,
            "count" : 940,
            "type" : "VEC3"
        },
        {
            "bufferView" : 5,
            "componentType" : 5123,
            "count" : 1392,
            "type" : "SCALAR"
        },
        {
            "bufferView" : 6,
            "componentType" : 5126,
            "count" : 479,
            "max" : [
                259.00048828125,
                10.00507640838623,
                -1147.604248046875
            ],
            "min" : [
                241.13816833496094,
                -67.4107666015625,
                -1401.8955078125
            ],
            "type" : "VEC3"
        },
        {
            "bufferView" : 7,
            "componentType" : 5126,
            "count" : 479,
            "type" : "VEC3"
        },
        {
            "bufferView" : 8,
            "componentType" : 5123,
            "count" : 723,
            "type" : "SCALAR"
        },
        {
            "bufferView" : 9,
            "componentType" : 5126,
            "count" : 196,
            "max" : [
                258.8605041503906,
                8.900243759155273,
                -1353.8343505859375
            ],
            "min" : [
                241.1396026611328,
                -26.99510955810547,
                -1383.8609619140625
            ],
            "type" : "VEC3"
        },
        {
            "bufferView" : 10,
            "componentType" : 5126,
            "count" : 196,
            "type" : "VEC3"
        },
        {
            "bufferView" : 11,
            "componentType" : 5123,
            "count" : 294,
            "type" : "SCALAR"
        },
        {
            "bufferView" : 12,
            "componentType" : 5126,
            "count" : 434,
            "max" : [
                261.5873718261719,
                10.50023078918457,
                -1356.5008544921875
            ],
            "min" : [
                239.7303009033203,
                -29.9951171875,
                -1389.0003662109375
            ],
            "type" : "VEC3"
        },
        {
            "bufferView" : 13,
            "componentType" : 5126,
            "count" : 434,
            "type" : "VEC3"
        },
        {
            "bufferView" : 14,
            "componentType" : 5123,
            "count" : 642,
            "type" : "SCALAR"
        }
    ],
    "bufferViews" : [
        {
            "buffer" : 0,
            "byteLength" : 528,
            "byteOffset" : 0,
            "target" : 34962
        },
        {
            "buffer" : 0,
            "byteLength" : 528,
            "byteOffset" : 528,
            "target" : 34962
        },
        {
            "buffer" : 0,
            "byteLength" : 132,
            "byteOffset" : 1056,
            "target" : 34963
        },
        {
            "buffer" : 0,
            "byteLength" : 11280,
            "byteOffset" : 1188,
            "target" : 34962
        },
        {
            "buffer" : 0,
            "byteLength" : 11280,
            "byteOffset" : 12468,
            "target" : 34962
        },
        {
            "buffer" : 0,
            "byteLength" : 2784,
            "byteOffset" : 23748,
            "target" : 34963
        },
        {
            "buffer" : 0,
            "byteLength" : 5748,
            "byteOffset" : 26532,
            "target" : 34962
        },
        {
            "buffer" : 0,
            "byteLength" : 5748,
            "byteOffset" : 32280,
            "target" : 34962
        },
        {
            "buffer" : 0,
            "byteLength" : 1446,
            "byteOffset" : 38028,
            "target" : 34963
        },
        {
            "buffer" : 0,
            "byteLength" : 2352,
            "byteOffset" : 39476,
            "target" : 34962
        },
        {
            "buffer" : 0,
            "byteLength" : 2352,
            "byteOffset" : 41828,
            "target" : 34962
        },
        {
            "buffer" : 0,
            "byteLength" : 588,
            "byteOffset" : 44180,
            "target" : 34963
        },
        {
            "buffer" : 0,
            "byteLength" : 5208,
            "byteOffset" : 44768,
            "target" : 34962
        },
        {
            "buffer" : 0,
            "byteLength" : 5208,
            "byteOffset" : 49976,
            "target" : 34962
        },
        {
            "buffer" : 0,
            "byteLength" : 1284,
            "byteOffset" : 55184,
            "target" : 34963
        }
    ],
    "buffers" : [
        {
            "byteLength" : 56468,
            "uri" : "data:application/octet-stream;base64,"
        }
    ]
}
