{
    "asset" : {
        "generator" : "Khronos glTF Blender I/O v3.3.36",
        "version" : "2.0"
    },
    "extensionsUsed" : [
        "KHR_materials_specular",
        "KHR_materials_ior"
    ],
    "scene" : 0,
    "scenes" : [
        {
            "name" : "Scene",
            "nodes" : [
                0,
                1
            ]
        }
    ],
    "nodes" : [
        {
            "mesh" : 0,
            "name" : "SkyRoadWall01"
        },
        {
            "mesh" : 1,
            "name" : "SkyRoad01"
        }
    ],
    "materials" : [
        {
            "extensions" : {
                "KHR_materials_specular" : {
                    "specularColorFactor" : [
                        0,
                        0,
                        0
                    ]
                },
                "KHR_materials_ior" : {
                    "ior" : 1.4500000476837158
                }
            },
            "name" : "Sky Road",
            "pbrMetallicRoughness" : {
                "baseColorFactor" : [
                    1,
                    0.9459218978881836,
                    0.0945345088839531,
                    0.45454543828964233
                ],
                "metallicFactor" : 0
            }
        }
    ],
    "meshes" : [
        {
            "name" : "SkyRoadWall01",
            "primitives" : [
                {
                    "attributes" : {
                        "POSITION" : 0,
                        "NORMAL" : 1
                    },
                    "indices" : 2
                }
            ]
        },
        {
            "name" : "SkyRoad01.002",
            "primitives" : [
                {
                    "attributes" : {
                        "POSITION" : 3,
                        "NORMAL" : 4,
                        "TEXCOORD_0" : 5,
                        "COLOR_0" : 6
                    },
                    "indices" : 7,
                    "material" : 0
                }
            ]
        }
    ],
    "accessors" : [
        {
            "bufferView" : 0,
            "componentType" : 5126,
            "count" : 1066,
            "max" : [
                276.814208984375,
                30.896665573120117,
                -1336.5318603515625
            ],
            "min" : [
                237.1909637451172,
                -80.4205093383789,
                -1488.837890625
            ],
            "type" : "VEC3"
        },
        {
            "bufferView" : 1,
            "componentType" : 5126,
            "count" : 1066,
            "type" : "VEC3"
        },
        {
            "bufferView" : 2,
            "componentType" : 5123,
            "count" : 1608,
            "type" : "SCALAR"
        },
        {
            "bufferView" : 3,
            "componentType" : 5126,
            "count" : 2132,
            "max" : [
                286.5121765136719,
                15.886448860168457,
                -1336.5318603515625
            ],
            "min" : [
                237.1909637451172,
                -80.4205093383789,
                -1505.2867431640625
            ],
            "type" : "VEC3"
        },
        {
            "bufferView" : 4,
            "componentType" : 5126,
            "count" : 2132,
            "type" : "VEC3"
        },
        {
            "bufferView" : 5,
            "componentType" : 5126,
            "count" : 2132,
            "type" : "VEC2"
        },
        {
            "bufferView" : 6,
            "componentType" : 5126,
            "count" : 2132,
            "normalized" : false,
            "type" : "VEC4"
        },
        {
            "bufferView" : 7,
            "componentType" : 5123,
            "count" : 3198,
            "type" : "SCALAR"
        }
    ],
    "bufferViews" : [
        {
            "buffer" : 0,
            "byteLength" : 12792,
            "byteOffset" : 0,
            "target" : 34962
        },
        {
            "buffer" : 0,
            "byteLength" : 12792,
            "byteOffset" : 12792,
            "target" : 34962
        },
        {
            "buffer" : 0,
            "byteLength" : 3216,
            "byteOffset" : 25584,
            "target" : 34963
        },
        {
            "buffer" : 0,
            "byteLength" : 25584,
            "byteOffset" : 28800,
            "target" : 34962
        },
        {
            "buffer" : 0,
            "byteLength" : 25584,
            "byteOffset" : 54384,
            "target" : 34962
        },
        {
            "buffer" : 0,
            "byteLength" : 17056,
            "byteOffset" : 79968,
            "target" : 34962
        },
        {
            "buffer" : 0,
            "byteLength" : 34112,
            "byteOffset" : 97024,
            "target" : 34962
        },
        {
            "buffer" : 0,
            "byteLength" : 6396,
            "byteOffset" : 131136,
            "target" : 34963
        }
    ],
    "buffers" : [
        {
            "byteLength" : 137532,
            "uri" : "data:application/octet-stream;base64,"
        }
    ]
}
