{
    "asset" : {
        "generator" : "Khronos glTF Blender I/O v1.8.19",
        "version" : "2.0"
    },
    "scene" : 0,
    "scenes" : [
        {
            "name" : "Scene",
            "nodes" : [
                24
            ]
        }
    ],
    "nodes" : [
        {
            "name" : "ene_majin01f_dino_Bone_4",
            "rotation" : [
                -0.4479117691516876,
                -2.1414344075765257e-07,
                -0.46204444766044617,
                0.7654346823692322
            ],
            "scale" : [
                0.9999999403953552,
                0.9999998211860657,
                0.9999998807907104
            ],
            "translation" : [
                0.3250000476837158,
                0.34500017762184143,
                2.107860730404809e-08
            ]
        },
        {
            "name" : "ene_majin01f_dino_Bone_5",
            "rotation" : [
                -0.4479115605354309,
                1.0707174880053572e-07,
                0.4620450437068939,
                0.7654342651367188
            ],
            "scale" : [
                1,
                1.0000001192092896,
                1
            ],
            "translation" : [
                -0.32500001788139343,
                0.3449999690055847,
                2.408099817330367e-07
            ]
        },
        {
            "name" : "ene_majin01f_dino_Bone_6",
            "rotation" : [
                -0.5871150493621826,
                -3.149441951677545e-08,
                2.391523992173461e-07,
                0.8095034956932068
            ],
            "translation" : [
                1.1324814863655774e-08,
                0.6499998569488525,
                -0.07500000298023224
            ]
        },
        {
            "name" : "ene_majin01f_dino_Bone_7",
            "rotation" : [
                0.8929843902587891,
                4.790160090806239e-08,
                -8.79068352332979e-07,
                0.45008766651153564
            ],
            "scale" : [
                1,
                1,
                1.0000001192092896
            ],
            "translation" : [
                -1.683872739022263e-07,
                0.20000000298023224,
                -0.1479998379945755
            ]
        },
        {
            "children" : [
                0,
                1,
                2,
                3
            ],
            "name" : "ene_majin01f_dino_Bone_3",
            "rotation" : [
                -0.7071065902709961,
                -3.793075009639324e-08,
                5.914658913752646e-07,
                0.7071070671081543
            ],
            "translation" : [
                -5.276042998048069e-07,
                -8.940703821735951e-08,
                -0.565000057220459
            ]
        },
        {
            "name" : "ene_majin01f_dino_Bone_11",
            "rotation" : [
                -0.0011414438486099243,
                0.0009419893031008542,
                0.0810186043381691,
                0.9967114925384521
            ],
            "scale" : [
                1,
                0.9999999403953552,
                1
            ],
            "translation" : [
                1.5064998706293409e-06,
                0.44024717807769775,
                -0.0011308637913316488
            ]
        },
        {
            "name" : "ene_majin01f_dino_Bone_12",
            "rotation" : [
                0.5737681984901428,
                -0.4934527277946472,
                -0.6122726798057556,
                0.22894684970378876
            ],
            "scale" : [
                1,
                1.000000238418579,
                1.000000238418579
            ],
            "translation" : [
                -0.03377151861786842,
                0.05576416477560997,
                0.14361464977264404
            ]
        },
        {
            "children" : [
                5,
                6
            ],
            "name" : "ene_majin01f_dino_Bone_10",
            "rotation" : [
                -0.006157359108328819,
                0.005335863679647446,
                -0.07470837235450745,
                0.9971722364425659
            ],
            "scale" : [
                0.9999999403953552,
                1,
                1
            ],
            "translation" : [
                -3.1186175419861684e-08,
                0.9689645171165466,
                -1.690297608547553e-07
            ]
        },
        {
            "children" : [
                7
            ],
            "name" : "ene_majin01f_dino_Bone_9",
            "rotation" : [
                0.017352620139718056,
                -0.021255958825349808,
                -0.355242520570755,
                0.9343714714050293
            ],
            "scale" : [
                1,
                1,
                0.9999999403953552
            ],
            "translation" : [
                0.2795957922935486,
                0.3146213889122009,
                0.006143210455775261
            ]
        },
        {
            "children" : [
                8
            ],
            "name" : "ene_majin01f_dino_Bone_8",
            "rotation" : [
                -0.3038393557071686,
                0.6448955535888672,
                0.6448957920074463,
                0.2755010724067688
            ],
            "scale" : [
                1,
                1.0000001192092896,
                1
            ],
            "translation" : [
                -0.48000046610832214,
                -2.3488222922196655e-08,
                -0.5399999022483826
            ]
        },
        {
            "name" : "ene_majin01f_dino_Bone_16",
            "rotation" : [
                -0.0013314471580088139,
                -0.0011125419987365603,
                -0.08101413398981094,
                0.9967114329338074
            ],
            "scale" : [
                1,
                1,
                0.9999998807907104
            ],
            "translation" : [
                -6.040248990757391e-06,
                0.44024795293807983,
                -0.0010928657138720155
            ]
        },
        {
            "name" : "ene_majin01f_dino_Bone_17",
            "rotation" : [
                0.5729875564575195,
                0.4928615391254425,
                0.6126706004142761,
                0.23110103607177734
            ],
            "scale" : [
                1,
                1.000000238418579,
                1
            ],
            "translation" : [
                0.03365238383412361,
                0.05579555034637451,
                0.14413243532180786
            ]
        },
        {
            "children" : [
                10,
                11
            ],
            "name" : "ene_majin01f_dino_Bone_15",
            "rotation" : [
                -0.005910069216042757,
                -0.005116929765790701,
                0.07473649084568024,
                0.9971727132797241
            ],
            "scale" : [
                1.0000001192092896,
                0.9999999403953552,
                0.9999999403953552
            ],
            "translation" : [
                -2.93235814297077e-07,
                0.9689635634422302,
                3.038097133867268e-07
            ]
        },
        {
            "children" : [
                12
            ],
            "name" : "ene_majin01f_dino_Bone_14",
            "rotation" : [
                0.019389402121305466,
                0.023160923272371292,
                0.3551371991634369,
                0.934326171875
            ],
            "scale" : [
                0.9999999403953552,
                1,
                1
            ],
            "translation" : [
                -0.27954044938087463,
                0.3146219253540039,
                0.00831256527453661
            ]
        },
        {
            "children" : [
                13
            ],
            "name" : "ene_majin01f_dino_Bone_13",
            "rotation" : [
                -0.3059873878955841,
                -0.644844114780426,
                -0.6448437571525574,
                0.2733575999736786
            ],
            "scale" : [
                0.9999999403953552,
                1.0000001192092896,
                0.9999998807907104
            ],
            "translation" : [
                0.47999948263168335,
                3.673323476505175e-07,
                -0.5400007963180542
            ]
        },
        {
            "children" : [
                4,
                9,
                14
            ],
            "name" : "ene_majin01f_dino_Bone_2",
            "rotation" : [
                0.7071068286895752,
                -1.0048593088261143e-13,
                -6.293968226600555e-07,
                0.7071068286895752
            ],
            "translation" : [
                -8.005578691614938e-20,
                1.1922384146600962e-07,
                -8.939473161717615e-09
            ]
        },
        {
            "name" : "ene_majin01f_dino_Bone_21",
            "rotation" : [
                -8.742244972381741e-08,
                1.7021848747146226e-14,
                8.742280499518529e-08,
                1
            ],
            "translation" : [
                -3.198550780586875e-15,
                0.2900000810623169,
                3.8013754470600514e-14
            ]
        },
        {
            "children" : [
                16
            ],
            "name" : "ene_majin01f_dino_Bone_20",
            "rotation" : [
                2.75813398786795e-08,
                5.364219290981964e-08,
                7.549787284233389e-08,
                1
            ],
            "translation" : [
                -8.957000722717434e-15,
                0.3550001084804535,
                -1.124385207162959e-08
            ]
        },
        {
            "children" : [
                17
            ],
            "name" : "ene_majin01f_dino_Bone_19",
            "rotation" : [
                2.247644914632474e-08,
                0.7071068286895752,
                0.7071068286895752,
                5.338508302088485e-08
            ],
            "translation" : [
                -1.923303294404377e-08,
                2.9802322387695312e-08,
                0.4399999976158142
            ]
        },
        {
            "children" : [
                18
            ],
            "name" : "ene_majin01f_dino_Bone_18",
            "rotation" : [
                0.7071068286895752,
                -1.1286739771965149e-13,
                1.1286739771965149e-13,
                0.7071068286895752
            ],
            "translation" : [
                5.908375339586109e-20,
                1.1922384146600962e-07,
                -8.939423423726112e-09
            ]
        },
        {
            "children" : [
                15,
                19
            ],
            "name" : "ene_majin01f_dino_Bone_1",
            "rotation" : [
                -0.7071080803871155,
                -5.3385068810030134e-08,
                -5.3385097231739564e-08,
                0.7071055769920349
            ],
            "translation" : [
                1.6383046386181377e-07,
                -3.874301910400391e-06,
                -1.0849997997283936
            ]
        },
        {
            "name" : "ene_majin01f_dino_Bone_22",
            "rotation" : [
                1,
                -4.0657581468206416e-20,
                -7.549790126404332e-08,
                3.619990820880048e-06
            ],
            "translation" : [
                -3.389564410908181e-21,
                2.9888361977013695e-26,
                3.619991559844493e-07
            ]
        },
        {
            "children" : [
                20,
                21
            ],
            "name" : "ene_majin01f_dino_Bone_0",
            "rotation" : [
                0.7071093320846558,
                5.338507946817117e-08,
                5.338507946817117e-08,
                0.7071042060852051
            ]
        },
        {
            "mesh" : 0,
            "name" : "BlueMajinMesh",
            "skin" : 0
        },
        {
            "children" : [
                23,
                22
            ],
            "name" : "BlueMajin"
        }
    ],
    "materials" : [
        {
            "name" : "DJ Blue Majin Body",
            "pbrMetallicRoughness" : {
                "baseColorTexture" : {
                    "index" : 0
                },
                "metallicFactor" : 0
            }
        },
        {
            "alphaMode" : "BLEND",
            "doubleSided" : true,
            "name" : "DJ Blue Majin Leaf",
            "pbrMetallicRoughness" : {
                "baseColorTexture" : {
                    "index" : 1
                },
                "metallicFactor" : 0
            }
        }
    ],
    "meshes" : [
        {
            "name" : "BlueMajinMesh",
            "primitives" : [
                {
                    "attributes" : {
                        "POSITION" : 0,
                        "NORMAL" : 1,
                        "TEXCOORD_0" : 2,
                        "TEXCOORD_1" : 3,
                        "COLOR_0" : 4,
                        "JOINTS_0" : 5,
                        "WEIGHTS_0" : 6
                    },
                    "indices" : 7,
                    "material" : 0
                },
                {
                    "attributes" : {
                        "POSITION" : 8,
                        "NORMAL" : 9,
                        "TEXCOORD_0" : 10,
                        "TEXCOORD_1" : 11,
                        "COLOR_0" : 12,
                        "JOINTS_0" : 13,
                        "WEIGHTS_0" : 14
                    },
                    "indices" : 15,
                    "material" : 1
                }
            ]
        }
    ],
    "textures" : [
        {
            "sampler" : 0,
            "source" : 0
        },
        {
            "sampler" : 0,
            "source" : 1
        }
    ],
    "images" : [
        {
            "bufferView" : 8,
            "mimeType" : "image/png",
            "name" : "dj blue majin base"
        },
        {
            "bufferView" : 17,
            "mimeType" : "image/png",
            "name" : "dj blue majin leaf"
        }
    ],
    "skins" : [
        {
            "inverseBindMatrices" : 16,
            "joints" : [
                22,
                20,
                15,
                4,
                0,
                1,
                2,
                3,
                9,
                8,
                7,
                5,
                6,
                14,
                13,
                12,
                10,
                11,
                19,
                18,
                17,
                16,
                21
            ],
            "name" : "BlueMajin"
        }
    ],
    "accessors" : [
        {
            "bufferView" : 0,
            "componentType" : 5126,
            "count" : 1520,
            "max" : [
                2.6213197708129883,
                2.345837116241455,
                0.43315228819847107
            ],
            "min" : [
                -2.621319532394409,
                -0.31484708189964294,
                -0.43206483125686646
            ],
            "type" : "VEC3"
        },
        {
            "bufferView" : 1,
            "componentType" : 5126,
            "count" : 1520,
            "type" : "VEC3"
        },
        {
            "bufferView" : 2,
            "componentType" : 5126,
            "count" : 1520,
            "type" : "VEC2"
        },
        {
            "bufferView" : 3,
            "componentType" : 5126,
            "count" : 1520,
            "type" : "VEC2"
        },
        {
            "bufferView" : 4,
            "componentType" : 5123,
            "count" : 1520,
            "normalized" : true,
            "type" : "VEC4"
        },
        {
            "bufferView" : 5,
            "componentType" : 5121,
            "count" : 1520,
            "type" : "VEC4"
        },
        {
            "bufferView" : 6,
            "componentType" : 5126,
            "count" : 1520,
            "type" : "VEC4"
        },
        {
            "bufferView" : 7,
            "componentType" : 5123,
            "count" : 5352,
            "type" : "SCALAR"
        },
        {
            "bufferView" : 9,
            "componentType" : 5126,
            "count" : 218,
            "max" : [
                1.7703704833984375,
                2.7136518955230713,
                0.3869715929031372
            ],
            "min" : [
                -1.7703704833984375,
                0.19324739277362823,
                -0.4999885857105255
            ],
            "type" : "VEC3"
        },
        {
            "bufferView" : 10,
            "componentType" : 5126,
            "count" : 218,
            "type" : "VEC3"
        },
        {
            "bufferView" : 11,
            "componentType" : 5126,
            "count" : 218,
            "type" : "VEC2"
        },
        {
            "bufferView" : 12,
            "componentType" : 5126,
            "count" : 218,
            "type" : "VEC2"
        },
        {
            "bufferView" : 13,
            "componentType" : 5123,
            "count" : 218,
            "normalized" : true,
            "type" : "VEC4"
        },
        {
            "bufferView" : 14,
            "componentType" : 5121,
            "count" : 218,
            "type" : "VEC4"
        },
        {
            "bufferView" : 15,
            "componentType" : 5126,
            "count" : 218,
            "type" : "VEC4"
        },
        {
            "bufferView" : 16,
            "componentType" : 5123,
            "count" : 360,
            "type" : "SCALAR"
        },
        {
            "bufferView" : 18,
            "componentType" : 5126,
            "count" : 23,
            "type" : "MAT4"
        }
    ],
    "bufferViews" : [
        {
            "buffer" : 0,
            "byteLength" : 18240,
            "byteOffset" : 0
        },
        {
            "buffer" : 0,
            "byteLength" : 18240,
            "byteOffset" : 18240
        },
        {
            "buffer" : 0,
            "byteLength" : 12160,
            "byteOffset" : 36480
        },
        {
            "buffer" : 0,
            "byteLength" : 12160,
            "byteOffset" : 48640
        },
        {
            "buffer" : 0,
            "byteLength" : 12160,
            "byteOffset" : 60800
        },
        {
            "buffer" : 0,
            "byteLength" : 6080,
            "byteOffset" : 72960
        },
        {
            "buffer" : 0,
            "byteLength" : 24320,
            "byteOffset" : 79040
        },
        {
            "buffer" : 0,
            "byteLength" : 10704,
            "byteOffset" : 103360
        },
        {
            "buffer" : 0,
            "byteLength" : 17221,
            "byteOffset" : 114064
        },
        {
            "buffer" : 0,
            "byteLength" : 2616,
            "byteOffset" : 131288
        },
        {
            "buffer" : 0,
            "byteLength" : 2616,
            "byteOffset" : 133904
        },
        {
            "buffer" : 0,
            "byteLength" : 1744,
            "byteOffset" : 136520
        },
        {
            "buffer" : 0,
            "byteLength" : 1744,
            "byteOffset" : 138264
        },
        {
            "buffer" : 0,
            "byteLength" : 1744,
            "byteOffset" : 140008
        },
        {
            "buffer" : 0,
            "byteLength" : 872,
            "byteOffset" : 141752
        },
        {
            "buffer" : 0,
            "byteLength" : 3488,
            "byteOffset" : 142624
        },
        {
            "buffer" : 0,
            "byteLength" : 720,
            "byteOffset" : 146112
        },
        {
            "buffer" : 0,
            "byteLength" : 6995,
            "byteOffset" : 146832
        },
        {
            "buffer" : 0,
            "byteLength" : 1472,
            "byteOffset" : 153828
        }
    ],
    "samplers" : [
        {
            "magFilter" : 9729,
            "minFilter" : 9987
        }
    ],
    "buffers" : [
        {
            "byteLength" : 155300,
            "uri" : "data:application/octet-stream;base64,"
        }
    ]
}
