{
    "asset" : {
        "generator" : "Khronos glTF Blender I/O v1.8.19",
        "version" : "2.0"
    },
    "scene" : 0,
    "scenes" : [
        {
            "name" : "Scene",
            "nodes" : [
                24
            ]
        }
    ],
    "nodes" : [
        {
            "name" : "ene_majin03f_dino_Bone_4",
            "rotation" : [
                -0.44791179895401,
                -1.1680550926485012e-07,
                -0.46204444766044617,
                0.7654345035552979
            ],
            "scale" : [
                1,
                0.9999999403953552,
                1
            ],
            "translation" : [
                0.3250000774860382,
                0.3450005054473877,
                -6.913391814578063e-08
            ]
        },
        {
            "name" : "ene_majin03f_dino_Bone_5",
            "rotation" : [
                -0.4479115605354309,
                1.2653933367801073e-07,
                0.46204498410224915,
                0.7654343247413635
            ],
            "translation" : [
                -0.3250000476837158,
                0.34499987959861755,
                2.492814417109912e-07
            ]
        },
        {
            "name" : "ene_majin03f_dino_Bone_6",
            "rotation" : [
                -0.5871150493621826,
                -3.149441951677545e-08,
                2.391523992173461e-07,
                0.8095034956932068
            ],
            "translation" : [
                1.1324814863655774e-08,
                0.6499998569488525,
                -0.07500000298023224
            ]
        },
        {
            "name" : "ene_majin03f_dino_Bone_7",
            "rotation" : [
                0.8929843902587891,
                4.790160090806239e-08,
                -8.79068352332979e-07,
                0.45008766651153564
            ],
            "scale" : [
                1,
                1,
                1.0000001192092896
            ],
            "translation" : [
                -1.683872739022263e-07,
                0.20000000298023224,
                -0.1479998379945755
            ]
        },
        {
            "children" : [
                0,
                1,
                2,
                3
            ],
            "name" : "ene_majin03f_dino_Bone_3",
            "rotation" : [
                -0.7071065902709961,
                -3.793075009639324e-08,
                5.914658913752646e-07,
                0.7071070671081543
            ],
            "translation" : [
                -5.276042998048069e-07,
                -8.940703821735951e-08,
                -0.565000057220459
            ]
        },
        {
            "name" : "ene_majin03f_dino_Bone_11",
            "rotation" : [
                -0.010474984534084797,
                0.00932918768376112,
                0.10271281003952026,
                0.9946121573448181
            ],
            "scale" : [
                1,
                1,
                0.9999999403953552
            ],
            "translation" : [
                -2.9592316423077136e-05,
                0.34166690707206726,
                -0.004182418342679739
            ]
        },
        {
            "name" : "ene_majin03f_dino_Bone_12",
            "rotation" : [
                0.5823124051094055,
                -0.48356765508651733,
                -0.6090942025184631,
                0.23680971562862396
            ],
            "scale" : [
                0.9999999403953552,
                1,
                0.9999999403953552
            ],
            "translation" : [
                -0.0351395420730114,
                0.05549730733036995,
                0.14338965713977814
            ]
        },
        {
            "children" : [
                5,
                6
            ],
            "name" : "ene_majin03f_dino_Bone_10",
            "rotation" : [
                -0.0056386785581707954,
                0.003979487810283899,
                -0.0964142382144928,
                0.9953173995018005
            ],
            "scale" : [
                1.0000001192092896,
                1,
                0.9999999403953552
            ],
            "translation" : [
                -1.81106642571649e-07,
                0.6189972758293152,
                -9.817085810936987e-08
            ]
        },
        {
            "children" : [
                7
            ],
            "name" : "ene_majin03f_dino_Bone_9",
            "rotation" : [
                0.023644663393497467,
                -0.029208045452833176,
                -0.32364988327026367,
                0.9454303979873657
            ],
            "translation" : [
                0.196622833609581,
                0.25364547967910767,
                0.005666906014084816
            ]
        },
        {
            "children" : [
                8
            ],
            "name" : "ene_majin03f_dino_Bone_8",
            "rotation" : [
                -0.3294107913970947,
                0.6347214579582214,
                0.6347216367721558,
                0.2928237318992615
            ],
            "scale" : [
                1,
                0.9999999403953552,
                1
            ],
            "translation" : [
                -0.38000062108039856,
                4.661742281086845e-08,
                -0.4900001287460327
            ]
        },
        {
            "name" : "ene_majin03f_dino_Bone_16",
            "rotation" : [
                -0.009334179572761059,
                -0.008292690850794315,
                -0.10395399481058121,
                0.9945037961006165
            ],
            "scale" : [
                0.9999998807907104,
                1,
                0.9999999403953552
            ],
            "translation" : [
                0.000726404890883714,
                0.34488165378570557,
                -0.0037145293317735195
            ]
        },
        {
            "name" : "ene_majin03f_dino_Bone_17",
            "rotation" : [
                0.5878854393959045,
                0.4873034656047821,
                0.5982421636581421,
                0.24296586215496063
            ],
            "scale" : [
                1,
                0.9999997019767761,
                0.9999998807907104
            ],
            "translation" : [
                0.03574425354599953,
                0.05854973942041397,
                0.14392198622226715
            ]
        },
        {
            "children" : [
                10,
                11
            ],
            "name" : "ene_majin03f_dino_Bone_15",
            "rotation" : [
                -0.005912913475185633,
                -0.004296844359487295,
                0.09675362706184387,
                0.9952815175056458
            ],
            "scale" : [
                1,
                1.0000001192092896,
                0.9999999403953552
            ],
            "translation" : [
                -5.132005753694102e-07,
                0.6157379746437073,
                1.8370337784290314e-07
            ]
        },
        {
            "children" : [
                12
            ],
            "name" : "ene_majin03f_dino_Bone_14",
            "rotation" : [
                0.025434473529458046,
                0.030844056978821754,
                0.3234461843967438,
                0.945401668548584
            ],
            "scale" : [
                1,
                1.000000238418579,
                1.0000001192092896
            ],
            "translation" : [
                -0.19657745957374573,
                0.2536470890045166,
                0.0070929029025137424
            ]
        },
        {
            "children" : [
                13
            ],
            "name" : "ene_majin03f_dino_Bone_13",
            "rotation" : [
                -0.33135759830474854,
                -0.6346616744995117,
                -0.6346613764762878,
                0.29088085889816284
            ],
            "scale" : [
                1.0000001192092896,
                1,
                0.9999999403953552
            ],
            "translation" : [
                0.379999577999115,
                2.6822161203199357e-07,
                -0.4900006949901581
            ]
        },
        {
            "children" : [
                4,
                9,
                14
            ],
            "name" : "ene_majin03f_dino_Bone_2",
            "rotation" : [
                0.7071068286895752,
                -1.0048593088261143e-13,
                -6.293968226600555e-07,
                0.7071068286895752
            ],
            "translation" : [
                -8.005578691614938e-20,
                1.1922384146600962e-07,
                -8.939473161717615e-09
            ]
        },
        {
            "name" : "ene_majin03f_dino_Bone_21",
            "rotation" : [
                -8.742279078433057e-08,
                1.3469124903950358e-14,
                8.742281920604e-08,
                1
            ],
            "scale" : [
                1,
                0.9999999403953552,
                0.9999999403953552
            ],
            "translation" : [
                -1.5987597801626202e-14,
                0.29000014066696167,
                2.997671439839845e-28
            ]
        },
        {
            "children" : [
                16
            ],
            "name" : "ene_majin03f_dino_Bone_20",
            "rotation" : [
                2.7581680939192665e-08,
                5.364219646253332e-08,
                7.549785152605182e-08,
                1
            ],
            "scale" : [
                1,
                0.9999999403953552,
                0.9999999403953552
            ],
            "translation" : [
                -6.0008176203172996e-15,
                0.35499995946884155,
                -1.1348279649325832e-08
            ]
        },
        {
            "children" : [
                17
            ],
            "name" : "ene_majin03f_dino_Bone_19",
            "rotation" : [
                2.2476431382756346e-08,
                0.7071068286895752,
                0.7071068286895752,
                5.338507946817117e-08
            ],
            "scale" : [
                1,
                0.9999996423721313,
                0.9999998807907104
            ],
            "translation" : [
                -9.616515583843466e-09,
                1.4900682465679438e-08,
                0.2200000286102295
            ]
        },
        {
            "children" : [
                18
            ],
            "name" : "ene_majin03f_dino_Bone_18",
            "rotation" : [
                0.7071068286895752,
                -1.1286739771965149e-13,
                1.1286739771965149e-13,
                0.7071068286895752
            ],
            "translation" : [
                8.61888077079987e-20,
                1.1922384146600962e-07,
                -8.939423423726112e-09
            ]
        },
        {
            "children" : [
                15,
                19
            ],
            "name" : "ene_majin03f_dino_Bone_1",
            "rotation" : [
                -0.7071080803871155,
                -5.3385068810030134e-08,
                -5.3385097231739564e-08,
                0.7071055769920349
            ],
            "translation" : [
                1.6383046386181377e-07,
                -3.874301910400391e-06,
                -1.0849997997283936
            ]
        },
        {
            "name" : "ene_majin03f_dino_Bone_22",
            "rotation" : [
                -1.8099952967531863e-06,
                4.946738586414118e-19,
                -2.710505431213761e-20,
                1
            ],
            "translation" : [
                -3.388848301911083e-21,
                2.9888361977013695e-26,
                3.619991559844493e-07
            ]
        },
        {
            "children" : [
                20,
                21
            ],
            "name" : "ene_majin03f_dino_Bone_0",
            "rotation" : [
                0.7071093320846558,
                5.338507946817117e-08,
                5.338507946817117e-08,
                0.7071042060852051
            ]
        },
        {
            "mesh" : 0,
            "name" : "GreenMajinMesh",
            "skin" : 0
        },
        {
            "children" : [
                23,
                22
            ],
            "name" : "GreenMajin"
        }
    ],
    "materials" : [
        {
            "name" : "DJ Green Majin Body",
            "pbrMetallicRoughness" : {
                "baseColorTexture" : {
                    "index" : 0
                },
                "metallicFactor" : 0
            }
        },
        {
            "alphaMode" : "BLEND",
            "doubleSided" : true,
            "name" : "DJ Green Majin Leaf",
            "pbrMetallicRoughness" : {
                "baseColorTexture" : {
                    "index" : 1
                },
                "metallicFactor" : 0
            }
        }
    ],
    "meshes" : [
        {
            "name" : "ene_majin03f_dino_Mesh_7",
            "primitives" : [
                {
                    "attributes" : {
                        "POSITION" : 0,
                        "NORMAL" : 1,
                        "TEXCOORD_0" : 2,
                        "TEXCOORD_1" : 3,
                        "COLOR_0" : 4,
                        "JOINTS_0" : 5,
                        "WEIGHTS_0" : 6
                    },
                    "indices" : 7,
                    "material" : 0
                },
                {
                    "attributes" : {
                        "POSITION" : 8,
                        "NORMAL" : 9,
                        "TEXCOORD_0" : 10,
                        "TEXCOORD_1" : 11,
                        "COLOR_0" : 12,
                        "JOINTS_0" : 13,
                        "WEIGHTS_0" : 14
                    },
                    "indices" : 15,
                    "material" : 1
                }
            ]
        }
    ],
    "textures" : [
        {
            "sampler" : 0,
            "source" : 0
        },
        {
            "sampler" : 0,
            "source" : 1
        }
    ],
    "images" : [
        {
            "bufferView" : 8,
            "mimeType" : "image/png",
            "name" : "dj green majin base"
        },
        {
            "bufferView" : 17,
            "mimeType" : "image/png",
            "name" : "dj green majin leaf"
        }
    ],
    "skins" : [
        {
            "inverseBindMatrices" : 16,
            "joints" : [
                22,
                20,
                15,
                4,
                0,
                1,
                2,
                3,
                9,
                8,
                7,
                5,
                6,
                14,
                13,
                12,
                10,
                11,
                19,
                18,
                17,
                16,
                21
            ],
            "name" : "GreenMajin"
        }
    ],
    "accessors" : [
        {
            "bufferView" : 0,
            "componentType" : 5126,
            "count" : 978,
            "max" : [
                1.8550812005996704,
                2.223808526992798,
                0.4076208174228668
            ],
            "min" : [
                -1.8550817966461182,
                -0.09400001913309097,
                -0.4179036319255829
            ],
            "type" : "VEC3"
        },
        {
            "bufferView" : 1,
            "componentType" : 5126,
            "count" : 978,
            "type" : "VEC3"
        },
        {
            "bufferView" : 2,
            "componentType" : 5126,
            "count" : 978,
            "type" : "VEC2"
        },
        {
            "bufferView" : 3,
            "componentType" : 5126,
            "count" : 978,
            "type" : "VEC2"
        },
        {
            "bufferView" : 4,
            "componentType" : 5123,
            "count" : 978,
            "normalized" : true,
            "type" : "VEC4"
        },
        {
            "bufferView" : 5,
            "componentType" : 5121,
            "count" : 978,
            "type" : "VEC4"
        },
        {
            "bufferView" : 6,
            "componentType" : 5126,
            "count" : 978,
            "type" : "VEC4"
        },
        {
            "bufferView" : 7,
            "componentType" : 5123,
            "count" : 3606,
            "type" : "SCALAR"
        },
        {
            "bufferView" : 9,
            "componentType" : 5126,
            "count" : 256,
            "max" : [
                1.3429334163665771,
                2.4547650814056396,
                0.3756001889705658
            ],
            "min" : [
                -1.3429334163665771,
                0.4425048828125,
                -0.4357719421386719
            ],
            "type" : "VEC3"
        },
        {
            "bufferView" : 10,
            "componentType" : 5126,
            "count" : 256,
            "type" : "VEC3"
        },
        {
            "bufferView" : 11,
            "componentType" : 5126,
            "count" : 256,
            "type" : "VEC2"
        },
        {
            "bufferView" : 12,
            "componentType" : 5126,
            "count" : 256,
            "type" : "VEC2"
        },
        {
            "bufferView" : 13,
            "componentType" : 5123,
            "count" : 256,
            "normalized" : true,
            "type" : "VEC4"
        },
        {
            "bufferView" : 14,
            "componentType" : 5121,
            "count" : 256,
            "type" : "VEC4"
        },
        {
            "bufferView" : 15,
            "componentType" : 5126,
            "count" : 256,
            "type" : "VEC4"
        },
        {
            "bufferView" : 16,
            "componentType" : 5123,
            "count" : 420,
            "type" : "SCALAR"
        },
        {
            "bufferView" : 18,
            "componentType" : 5126,
            "count" : 23,
            "type" : "MAT4"
        }
    ],
    "bufferViews" : [
        {
            "buffer" : 0,
            "byteLength" : 11736,
            "byteOffset" : 0
        },
        {
            "buffer" : 0,
            "byteLength" : 11736,
            "byteOffset" : 11736
        },
        {
            "buffer" : 0,
            "byteLength" : 7824,
            "byteOffset" : 23472
        },
        {
            "buffer" : 0,
            "byteLength" : 7824,
            "byteOffset" : 31296
        },
        {
            "buffer" : 0,
            "byteLength" : 7824,
            "byteOffset" : 39120
        },
        {
            "buffer" : 0,
            "byteLength" : 3912,
            "byteOffset" : 46944
        },
        {
            "buffer" : 0,
            "byteLength" : 15648,
            "byteOffset" : 50856
        },
        {
            "buffer" : 0,
            "byteLength" : 7212,
            "byteOffset" : 66504
        },
        {
            "buffer" : 0,
            "byteLength" : 21655,
            "byteOffset" : 73716
        },
        {
            "buffer" : 0,
            "byteLength" : 3072,
            "byteOffset" : 95372
        },
        {
            "buffer" : 0,
            "byteLength" : 3072,
            "byteOffset" : 98444
        },
        {
            "buffer" : 0,
            "byteLength" : 2048,
            "byteOffset" : 101516
        },
        {
            "buffer" : 0,
            "byteLength" : 2048,
            "byteOffset" : 103564
        },
        {
            "buffer" : 0,
            "byteLength" : 2048,
            "byteOffset" : 105612
        },
        {
            "buffer" : 0,
            "byteLength" : 1024,
            "byteOffset" : 107660
        },
        {
            "buffer" : 0,
            "byteLength" : 4096,
            "byteOffset" : 108684
        },
        {
            "buffer" : 0,
            "byteLength" : 840,
            "byteOffset" : 112780
        },
        {
            "buffer" : 0,
            "byteLength" : 6884,
            "byteOffset" : 113620
        },
        {
            "buffer" : 0,
            "byteLength" : 1472,
            "byteOffset" : 120504
        }
    ],
    "samplers" : [
        {
            "magFilter" : 9729,
            "minFilter" : 9987
        }
    ],
    "buffers" : [
        {
            "byteLength" : 121976,
            "uri" : "data:application/octet-stream;base64,"
        }
    ]
}
